<?xml version="1.0" encoding="UTF-8"?>
<svg id="Layer_2" data-name="Layer 2" xmlns="http://www.w3.org/2000/svg" viewBox="0 0 641.24 188.48">
  <defs>
    <style>
      .cls-1 {
        fill: #fff;
      }
    </style>
  </defs>
  <g id="_Слой_1" data-name="Слой 1">
    <g>
      <g>
        <path class="cls-1" d="m227.2,3.44c2.26,0,4.22.74,6.14,1.87l1.72-3.05c-2.41-1.47-4.86-2.26-7.76-2.26-7.27,0-12.33,4.86-12.33,12.09s5.06,12.09,12.33,12.09c2.9,0,5.36-.79,7.76-2.26l-1.72-3.05c-1.92,1.13-3.88,1.87-6.14,1.87-5.16,0-8.5-3.83-8.5-8.65s3.34-8.65,8.5-8.65Z"/>
        <path class="cls-1" d="m248.73,0c-7.08,0-12.28,5.06-12.28,12.09s5.21,12.09,12.28,12.09,12.28-5.06,12.28-12.09-5.16-12.09-12.28-12.09Zm0,20.68c-4.91,0-8.55-3.39-8.55-8.6s3.63-8.6,8.55-8.6,8.55,3.39,8.55,8.6-3.64,8.6-8.55,8.6Z"/>
        <path class="cls-1" d="m276.1,11.35v-.1c3.44-.44,5.41-2.46,5.41-5.36,0-3.83-3.44-5.9-9.14-5.9-3.63,0-6.93.88-9.04,1.67l1.23,3.19c1.92-.74,4.72-1.57,7.67-1.57,3.44,0,5.55,1.03,5.55,3.34,0,2.51-2.16,3.29-5.6,3.29h-4.08v3.14h4.27c3.98,0,6.14.93,6.14,3.88s-2.65,3.93-6.34,3.93-6.09-.98-8.06-1.97l-1.52,3.1c2.36,1.28,5.45,2.16,9.43,2.16,7.03,0,10.07-2.7,10.07-6.93,0-3.59-2.21-5.55-5.99-5.9Z"/>
        <path class="cls-1" d="m305.43.74h-16.85v11.59c0,3.69-.74,6.09-1.96,8.25h-2.9v9.24h3.19v-5.95h18.18v5.95h3.14v-9.24h-2.8V.74Zm-3.54,19.85h-11.5c1.03-2.06,1.72-4.47,1.72-8.06V3.98h9.78v16.61Z"/>
        <path class="cls-1" d="m329.46,4.77h-.1c-1.57-2.85-4.47-4.77-8.6-4.77-6.24,0-11.25,4.57-11.25,12.09s5.01,12.09,11.25,12.09c4.13,0,7.03-1.92,8.6-4.77h.1v4.03h3.54V.74h-3.54v4.03Zm-8.01,15.92c-4.96,0-8.21-3.59-8.21-8.6s3.24-8.6,8.21-8.6,8.21,3.59,8.21,8.6-3.24,8.6-8.21,8.6Z"/>
        <polygon class="cls-1" points="355.95 9.78 342.73 9.78 342.73 .74 339.19 .74 339.19 23.44 342.73 23.44 342.73 13.07 355.95 13.07 355.95 23.44 359.49 23.44 359.49 .74 355.95 .74 355.95 9.78"/>
        <path class="cls-1" d="m376.49,0c-7.08,0-12.28,5.06-12.28,12.09s5.21,12.09,12.28,12.09,12.28-5.06,12.28-12.09-5.16-12.09-12.28-12.09Zm0,20.68c-4.91,0-8.55-3.39-8.55-8.6s3.64-8.6,8.55-8.6,8.55,3.39,8.55,8.6-3.63,8.6-8.55,8.6Z"/>
        <path class="cls-1" d="m418.8,20.73c-5.16,0-8.5-3.83-8.5-8.65s3.34-8.65,8.5-8.65c2.26,0,4.23.74,6.14,1.87l1.72-3.05c-2.41-1.47-4.86-2.26-7.76-2.26-7.27,0-12.33,4.86-12.33,12.09s5.06,12.09,12.33,12.09c2.9,0,5.36-.79,7.76-2.26l-1.72-3.05c-1.92,1.13-3.88,1.87-6.14,1.87Z"/>
      </g>
      <g>
        <g>
          <path class="cls-1" d="m25.24,64.96c13.77,0,24.91,10.09,24.91,23.86s-11.34,23.99-24.19,23.99c-6.03,0-11.87-1.7-16.26-6.69h-.52v34.74H0v-48.25c0-16.85,9.7-27.66,25.24-27.66Zm-.13,39.79c9.11,0,15.34-7.21,15.34-15.93s-6.1-15.8-15.34-15.8-15.6,7.08-15.6,15.73,6.42,16,15.6,16Z"/>
          <path class="cls-1" d="m58.67,88.89c0-13.77,11.54-23.93,25.11-23.93s25.11,10.16,25.11,23.93-11.54,23.93-25.11,23.93-25.11-10.16-25.11-23.93Zm25.11,15.86c9.18,0,15.41-7.08,15.41-15.86s-6.23-15.86-15.41-15.86-15.41,7.01-15.41,15.86,6.23,15.86,15.41,15.86Z"/>
          <path class="cls-1" d="m142.77,112.81c-14.42,0-25.37-10.09-25.37-23.93s10.69-23.93,25.04-23.93c11.01,0,21.3,5.97,23.93,17.31h-9.44c-2.29-6.1-7.8-9.24-14.23-9.24-9.7,0-15.6,7.21-15.6,16s6.1,15.73,15.8,15.73c6.29,0,12-2.88,14.23-9.51h9.51c-3.41,12.06-13.24,17.57-23.86,17.57Z"/>
          <path class="cls-1" d="m200.66,106.19l-15.08-31.53h-.26v37.17h-8.85v-45.89h14.09l14.95,31.4h.26l14.95-31.4h14.09v45.89h-8.85v-37.17h-.26l-15.08,31.53h-9.96Z"/>
          <path class="cls-1" d="m244.64,88.89c0-13.77,11.54-23.93,25.11-23.93s25.11,10.16,25.11,23.93-11.54,23.93-25.11,23.93-25.11-10.16-25.11-23.93Zm25.11,15.86c9.18,0,15.41-7.08,15.41-15.86s-6.23-15.86-15.41-15.86-15.41,7.01-15.41,15.86,6.23,15.86,15.41,15.86Z"/>
          <path class="cls-1" d="m299.51,112.22v-9.51h.2c1.77,0,3.93-.79,5.24-2.29,1.7-1.9,2.56-5.31,3.47-10.29l1.31-7.34c1.51-8.46,4.52-17.04,17.24-17.04h17.9v46.08h-9.18v-37.56h-7.15c-7.15,0-8.65,1.97-10.36,11.73l-1.18,6.88c-1.05,6.29-2.62,11.73-5.9,15.21-2.49,2.62-5.97,4.13-10.62,4.13h-.98Z"/>
          <path class="cls-1" d="m355.03,88.89c0-13.77,11.54-23.93,25.11-23.93s25.11,10.16,25.11,23.93-11.54,23.93-25.11,23.93-25.11-10.16-25.11-23.93Zm25.11,15.86c9.18,0,15.41-7.08,15.41-15.86s-6.23-15.86-15.41-15.86-15.41,7.01-15.41,15.86,6.23,15.86,15.41,15.86Z"/>
          <path class="cls-1" d="m415.87,122.97h-8.85v-19.67h5.97c2.62-2.95,4-7.34,5.24-12.65l1.97-8.52c1.9-8.19,5.44-16.39,16.78-16.39h17.83v37.56h6.62v19.67h-8.85v-11.14h-36.71v11.14Zm29.89-19.47v-29.37h-8.59c-5.57,0-7.47,4.46-8.59,9.18l-2.03,8.85c-1.11,4.92-2.82,8.98-4.52,10.69v.66h23.73Z"/>
          <path class="cls-1" d="m493.48,112.81c-14.62,0-25.24-10.09-25.24-23.93s10.69-23.93,24.91-23.93c11.01,0,24.25,7.21,24.25,24.65v1.9h-39.99c.98,7.67,6.95,13.24,15.99,13.24,5.38,0,11.8-1.97,13.57-6.62h9.44c-2.88,10.09-13.57,14.68-22.94,14.68Zm-15.93-63.65h9.51v9.51h-9.51v-9.51Zm30.29,35.33c-1.44-6.95-6.82-11.6-14.82-11.6s-13.5,4.98-15.21,11.6h30.02Zm-9.64-35.33h9.51v9.51h-9.51v-9.51Z"/>
          <path class="cls-1" d="m560.67,65.94v18.22h7.67l10.82-18.22h10.1l-13.44,21.9,14.55,23.99h-10.29l-11.6-19.34h-7.8v19.34h-8.65v-19.34h-7.8l-11.6,19.34h-10.29l14.55-23.99-13.44-21.9h10.09l10.82,18.22h7.67v-18.22h8.65Z"/>
          <path class="cls-1" d="m596.79,91.18l-.13-25.24h9.18l.07,13.04h.26c3.87-4.72,8.78-7.01,14.68-7.01,11.28,0,20.39,8.39,20.39,20.13s-9.31,20.71-22.09,20.71-22.29-9.11-22.35-21.63Zm22.16,13.57c7.28,0,12.59-5.11,12.59-12.26s-5.31-12.39-12.59-12.39-12.52,5.24-12.52,12.39,5.31,12.26,12.52,12.26Z"/>
        </g>
        <g>
          <path class="cls-1" d="m240.05,147.93h-15.29v26.9h-4.92v-31.54h20.21v4.64Z"/>
          <path class="cls-1" d="m244.31,143.28h4.92v5.6h.14c2.18-3.96,6.21-6.62,11.95-6.62,8.67,0,15.63,6.35,15.63,16.8s-6.96,16.79-15.63,16.79c-5.74,0-9.76-2.66-11.95-6.62h-.14v19.25h-4.92v-45.2Zm27.45,15.77c0-6.96-4.51-11.95-11.4-11.95s-11.4,4.98-11.4,11.95,4.51,11.95,11.4,11.95,11.4-4.98,11.4-11.95Z"/>
          <path class="cls-1" d="m281.08,159.06c0-10.45,6.96-16.8,15.63-16.8,5.74,0,9.76,2.66,11.95,6.62h.14v-5.6h4.92v31.54h-4.92v-5.6h-.14c-2.18,3.96-6.21,6.62-11.95,6.62-8.67,0-15.63-6.35-15.63-16.79Zm27.99,0c0-6.96-4.51-11.95-11.4-11.95s-11.4,4.98-11.4,11.95,4.51,11.95,11.4,11.95,11.4-4.98,11.4-11.95Z"/>
          <path class="cls-1" d="m349.78,143.28v31.54h-4.92v-14.41h-18.37v14.41h-4.92v-31.54h4.92v12.56h18.37v-12.56h4.92Z"/>
          <path class="cls-1" d="m383.24,147.79h-12.15v27.04h-4.92v-27.04h-12.08v-4.51h29.15v4.51Z"/>
          <path class="cls-1" d="m413.27,164.86c0,5.87-4.23,9.97-10.79,9.97h-14.95v-31.54h4.92v11.67h10.1c6.49,0,10.72,3.82,10.72,9.9Zm-5.19.07c0-3.55-1.98-5.53-6.08-5.53h-9.56v10.99h9.56c4.1,0,6.08-2.05,6.08-5.46Zm13.31-21.64v31.54h-4.92v-31.54h4.92Z"/>
        </g>
      </g>
    </g>
  </g>
</svg>