<svg width="112" height="83" viewBox="0 0 112 83" fill="none" xmlns="http://www.w3.org/2000/svg">
<g clip-path="url(#clip0_1_2)">
<path d="M5.19002 74.2L2.34002 81.68C2.29169 81.8303 2.1989 81.9623 2.07392 82.0588C1.94893 82.1552 1.79764 82.2114 1.64002 82.22H0.450024C0.0400237 82.22 -0.0899763 81.91 0.0600237 81.4L4.06002 71.31C4.22616 71.0657 4.45788 70.8732 4.72853 70.7547C4.99919 70.6361 5.29779 70.5964 5.59002 70.64C5.87724 70.6028 6.16904 70.6514 6.42879 70.7794C6.68853 70.9075 6.90466 71.1095 7.05002 71.36L11.17 81.45C11.31 81.93 11.17 82.18 10.77 82.19H9.59002C9.42983 82.1813 9.27609 82.124 9.14926 82.0257C9.02243 81.9275 8.92852 81.7929 8.88002 81.64L6.00002 74.2C5.72002 73.4 5.45002 73.4 5.19002 74.2Z" fill="white"/>
<path d="M30.2 78.65L33.09 71.18C33.1385 71.0271 33.2324 70.8926 33.3593 70.7943C33.4861 70.6961 33.6398 70.6387 33.8 70.63L35.02 70.68C35.4 70.68 35.51 70.9 35.33 71.35L31.23 81.47C31.03 81.96 30.55 82.2 29.8 82.21C29.05 82.22 28.57 81.98 28.39 81.5L25.23 73.67L22.09 81.47C21.89 81.96 21.42 82.2 20.67 82.21C19.92 82.22 19.44 81.98 19.25 81.5L15.19 71.35C15.01 70.9 15.12 70.66 15.54 70.63H16.72C16.8776 70.6386 17.0289 70.6948 17.1539 70.7913C17.2789 70.8877 17.3717 71.0197 17.42 71.17L20.27 78.65C20.54 79.48 20.8 79.48 21.06 78.65L23.83 71.53C24.2 70.93 24.58 70.63 24.95 70.63H25.69C26.02 70.63 26.36 70.91 26.69 71.47L29.4 78.65C29.67 79.48 29.93 79.48 30.2 78.65Z" fill="white"/>
<path d="M44.49 74.2L41.63 81.68C41.5848 81.8302 41.4942 81.9628 41.3707 82.0595C41.2471 82.1561 41.0967 82.2122 40.94 82.22H39.75C39.34 82.22 39.21 81.91 39.36 81.4L43.36 71.31C43.5254 71.0674 43.7555 70.876 44.0241 70.7575C44.2928 70.6391 44.5893 70.5984 44.88 70.64C45.1687 70.6021 45.4621 70.6502 45.7236 70.7783C45.9851 70.9064 46.203 71.1087 46.35 71.36L50.47 81.45C50.61 81.93 50.47 82.18 50.07 82.19H48.89C48.7294 82.1827 48.575 82.1259 48.4479 82.0275C48.3208 81.929 48.2272 81.7937 48.18 81.64L45.28 74.17C45 73.4 44.75 73.4 44.49 74.2Z" fill="white"/>
<path d="M59.74 81.09C59.74 81.84 59.39 82.21 58.58 82.19C57.77 82.17 57.41 81.83 57.43 81.06V73.79C57.43 73.22 57.18 72.94 56.7 72.94H54.91C54.09 72.94 53.68 72.59 53.68 71.82C53.68 71.05 54.09 70.65 54.91 70.62H63.38C64.04 70.62 64.38 70.99 64.38 71.76C64.38 72.53 64.05 72.91 63.38 72.9H60.53C60.4192 72.905 60.3105 72.9323 60.2104 72.98C60.1102 73.0278 60.0207 73.0952 59.9471 73.1781C59.8734 73.2611 59.8171 73.358 59.7816 73.4631C59.746 73.5682 59.7319 73.6793 59.74 73.79V81.08V81.09Z" fill="white"/>
<path d="M74.75 77.58H71.03V79C71.03 79.57 71.26 79.84 71.71 79.83H79.23C79.9 79.83 80.23 80.23 80.23 81.01C80.23 81.79 79.88 82.16 79.23 82.15H70C69.17 82.15 68.76 81.7 68.76 80.8V72C68.76 71.09 69.15 70.64 69.94 70.64H79.27C79.94 70.64 80.27 71.01 80.27 71.78C80.27 72.55 79.95 72.93 79.27 72.92H71.71C71.26 72.92 71.03 73.23 71.03 73.75V75.29H74.8C74.9614 75.2541 75.1293 75.2588 75.2884 75.3037C75.4476 75.3486 75.5932 75.4322 75.7121 75.5472C75.831 75.6621 75.9195 75.8048 75.9698 75.9623C76.02 76.1199 76.0304 76.2875 76 76.45C76 77.22 75.57 77.6 74.75 77.58Z" fill="white"/>
<path d="M88.89 76.45C88.8588 76.2887 88.8679 76.1223 88.9163 75.9653C88.9647 75.8083 89.0511 75.6657 89.1677 75.5501C89.2844 75.4344 89.4277 75.3493 89.5851 75.3022C89.7425 75.2551 89.909 75.2475 90.07 75.28H92.5C93.1667 75.28 93.5767 75.1 93.73 74.74C93.8142 74.5482 93.8519 74.3392 93.84 74.13C93.8574 73.9012 93.8088 73.6721 93.7 73.47C93.5457 73.3005 93.3434 73.1819 93.12 73.13C92.6011 73.0189 92.0701 72.9752 91.54 73H87.7C87.18 73 86.92 73.29 86.92 73.85V81.1C86.9474 81.2567 86.937 81.4176 86.8897 81.5694C86.8424 81.7212 86.7596 81.8596 86.6482 81.973C86.5367 82.0864 86.3998 82.1716 86.2488 82.2215C86.0978 82.2715 85.9371 82.2847 85.78 82.26C85.6126 82.2825 85.4423 82.2646 85.2832 82.2079C85.1241 82.1512 84.9809 82.0573 84.8654 81.934C84.75 81.8107 84.6657 81.6616 84.6195 81.4992C84.5733 81.3367 84.5667 81.1656 84.6 81V72.11C84.6 71.11 85.04 70.67 85.9 70.64H91.51C93.51 70.64 94.88 71.19 95.61 72.23C95.983 72.7956 96.1716 73.4629 96.15 74.14C96.2015 74.6769 96.0609 75.2147 95.7533 75.6578C95.4458 76.1009 94.9911 76.4205 94.47 76.56C94.9724 76.6484 95.422 76.9255 95.7268 77.3344C96.0317 77.7434 96.1688 78.2533 96.11 78.76V81C96.1278 81.1588 96.1093 81.3196 96.0562 81.4703C96.003 81.6211 95.9164 81.7578 95.8029 81.8703C95.6894 81.9828 95.552 82.0682 95.4008 82.1201C95.2496 82.172 95.0887 82.1891 94.93 82.17C94.7742 82.1898 94.6159 82.1726 94.468 82.1198C94.3201 82.0671 94.1867 81.9802 94.0786 81.8662C93.9705 81.7523 93.8908 81.6145 93.8458 81.464C93.8009 81.3135 93.7921 81.1546 93.82 81V78.7C93.8316 78.4876 93.794 78.2754 93.71 78.08C93.5367 77.72 93.1267 77.54 92.48 77.54H90.12C89.3 77.6 88.89 77.22 88.89 76.45Z" fill="white"/>
<path d="M105.82 74.2L103 81.68C102.954 81.8295 102.863 81.9612 102.739 82.0577C102.616 82.1542 102.466 82.2108 102.31 82.22H101.12C100.71 82.22 100.58 81.91 100.73 81.4L104.73 71.31C104.895 71.0674 105.125 70.876 105.394 70.7575C105.663 70.6391 105.959 70.5984 106.25 70.64C106.539 70.6034 106.832 70.6521 107.093 70.7801C107.354 70.908 107.572 71.1096 107.72 71.36L111.83 81.45C111.97 81.93 111.83 82.18 111.44 82.19H110.25C110.09 82.1813 109.936 82.124 109.809 82.0257C109.682 81.9275 109.589 81.7929 109.54 81.64L106.65 74.17C106.34 73.4 106.08 73.4 105.82 74.2Z" fill="white"/>
<path d="M86.8601 29.8L85.3801 28.32C84.9201 28.78 84.4401 29.21 83.9501 29.62C81.3737 27.844 78.4354 26.6617 75.347 26.1585C72.2585 25.6553 69.0969 25.8436 66.09 26.71C68.8307 25.1956 71.1995 23.0896 73.0244 20.5451C74.8493 18.0006 76.0844 15.0815 76.6401 12C77.2712 11.9333 77.9054 11.9 78.5401 11.9V9.85C77.9701 9.85 77.4601 9.91 76.9101 9.96C76.9101 9.41 77.0001 8.91 77.0001 8.34H74.9201C74.9201 8.91 74.9201 9.6 74.8201 10.23C71.7545 10.7903 68.851 12.0224 66.3181 13.8379C63.7851 15.6533 61.6856 18.007 60.1701 20.73C60.7144 18.8377 60.9937 16.879 61.0001 14.91C61.0078 10.622 59.7026 6.43435 57.26 2.91C57.66 2.42 58.1 1.91 58.55 1.48L57.0601 0C56.6701 0.39 56.2901 0.8 55.9301 1.22C55.5801 0.8 55.2001 0.39 54.8101 0L53.3301 1.48C53.7892 1.93255 54.2232 2.40994 54.6301 2.91C52.1816 6.43149 50.8759 10.621 50.8901 14.91C50.8899 16.8748 51.1625 18.8301 51.7001 20.72C50.1834 17.9988 48.0834 15.6471 45.5505 13.8334C43.0176 12.0198 40.1147 10.7892 37.0501 10.23C37.0001 9.60132 36.9834 8.97044 37.0001 8.34H34.8701C34.8701 8.91 34.9201 9.41 34.9701 9.96C34.4201 9.91 33.97 9.85 33.35 9.85V11.94C33.9815 11.9349 34.6127 11.9683 35.2401 12.04C35.8032 15.1137 37.0416 18.024 38.8661 20.5609C40.6905 23.0978 43.0554 25.198 45.7901 26.71C42.7832 25.8436 39.6216 25.6553 36.5331 26.1585C33.4447 26.6617 30.5064 27.844 27.9301 29.62C27.4401 29.21 26.9301 28.78 26.4901 28.32L25.0001 29.8C25.3901 30.19 25.7901 30.56 26.2101 30.92C25.7901 31.28 25.3901 31.65 24.9901 32.05L26.4701 33.52C26.9248 33.0663 27.402 32.6357 27.9001 32.23C30.4753 34.0042 33.4123 35.1846 36.4991 35.6861C39.5859 36.1876 42.7456 35.9977 45.7501 35.13C43.0204 36.6458 40.6615 38.7491 38.8439 41.2879C37.0263 43.8266 35.7954 46.7375 35.2401 49.81C34.6121 49.8731 33.9812 49.9032 33.35 49.9V52C33.92 52 34.4201 51.95 34.9701 51.91C34.9701 52.46 34.8701 52.98 34.8701 53.55H37.0001C37 52.912 37.0334 52.2745 37.1 51.64C40.1577 51.0686 43.0516 49.8295 45.5753 48.0111C48.099 46.1926 50.1903 43.8397 51.7001 41.12C51.1625 43.0133 50.8899 44.9719 50.8901 46.94C50.8759 51.229 52.1816 55.4185 54.6301 58.94C54.2201 59.44 53.7901 59.94 53.3301 60.38L54.8101 61.85C55.2001 61.46 55.5801 61.05 55.9301 60.64C56.2901 61.05 56.6701 61.46 57.0601 61.85L58.5301 60.38C58.0738 59.9242 57.6431 59.4434 57.2401 58.94C59.0149 56.365 60.1957 53.428 60.6972 50.3411C61.1987 47.2542 61.0084 44.0944 60.1401 41.09C61.6553 43.8231 63.7579 46.186 66.2964 48.0086C68.8349 49.8312 71.746 51.068 74.8201 51.63C74.8801 52.26 74.9201 52.97 74.9201 53.54H77.0001C77.0001 52.97 77.0001 52.45 76.9101 51.9C77.4601 51.9 77.9701 51.99 78.5401 51.99V49.9C77.9701 49.9 77.2701 49.9 76.6401 49.81C76.0765 46.7339 74.8369 43.8213 73.0107 41.2826C71.1845 38.7439 68.8173 36.6425 66.0801 35.13C69.0862 35.9978 72.2474 36.1878 75.3358 35.6863C78.4243 35.1848 81.3629 34.0044 83.9401 32.23C84.4435 32.6331 84.9242 33.0638 85.3801 33.52L86.8501 32.05C86.4601 31.65 86.0501 31.28 85.6401 30.92C86.0501 30.56 86.4601 30.19 86.8601 29.8ZM29.7301 30.92C32.7762 28.9941 36.3062 27.9719 39.9101 27.9719C43.5139 27.9719 47.0439 28.9941 50.0901 30.92C47.0439 32.8459 43.5139 33.8681 39.9101 33.8681C36.3062 33.8681 32.7762 32.8459 29.7301 30.92ZM37.4101 49.45C38.1956 45.9319 39.9657 42.7099 42.5137 40.1601C45.0617 37.6103 48.2825 35.838 51.8001 35.05C51.0145 38.5681 49.2444 41.7901 46.6964 44.3399C44.1484 46.8897 40.9276 48.662 37.4101 49.45ZM37.4101 12.39C40.9276 13.178 44.1484 14.9503 46.6964 17.5001C49.2444 20.0499 51.0145 23.2719 51.8001 26.79C48.2825 26.002 45.0617 24.2297 42.5137 21.6799C39.9657 19.1301 38.1956 15.9081 37.4101 12.39ZM55.9301 4.71C57.8657 7.75624 58.8937 11.2908 58.8937 14.9C58.8937 18.5092 57.8657 22.0438 55.9301 25.09C54.0025 22.0408 52.9793 18.5074 52.9793 14.9C52.9793 11.2926 54.0025 7.7592 55.9301 4.71ZM55.9301 57.12C54.0005 54.0771 52.9759 50.5482 52.9759 46.945C52.9759 43.3418 54.0005 39.8129 55.9301 36.77C57.8596 39.8129 58.8842 43.3418 58.8842 46.945C58.8842 50.5482 57.8596 54.0771 55.9301 57.12ZM56.0001 33.86C55.4067 33.86 54.8267 33.6841 54.3333 33.3544C53.84 33.0248 53.4555 32.5562 53.2284 32.008C53.0014 31.4599 52.9419 30.8567 53.0577 30.2747C53.1735 29.6928 53.4592 29.1582 53.8787 28.7387C54.2983 28.3191 54.8328 28.0334 55.4148 27.9176C55.9967 27.8019 56.5999 27.8613 57.1481 28.0884C57.6963 28.3154 58.1648 28.6999 58.4945 29.1933C58.8241 29.6866 59.0001 30.2667 59.0001 30.86C59.0001 31.6557 58.684 32.4187 58.1214 32.9813C57.5588 33.5439 56.7957 33.86 56.0001 33.86ZM74.4601 12.39C73.6745 15.9081 71.9044 19.1301 69.3564 21.6799C66.8084 24.2297 63.5876 26.002 60.0701 26.79C60.8556 23.2719 62.6257 20.0499 65.1737 17.5001C67.7217 14.9503 70.9425 13.178 74.4601 12.39ZM74.4601 49.45C70.9425 48.662 67.7217 46.8897 65.1737 44.3399C62.6257 41.7901 60.8556 38.5681 60.0701 35.05C63.5876 35.838 66.8084 37.6103 69.3564 40.1601C71.9044 42.7099 73.6745 45.9319 74.4601 49.45ZM61.7801 30.92C64.8262 28.9941 68.3562 27.9719 71.9601 27.9719C75.5639 27.9719 79.0939 28.9941 82.1401 30.92C79.0939 32.8459 75.5639 33.8681 71.9601 33.8681C68.3562 33.8681 64.8262 32.8459 61.7801 30.92Z" fill="white"/>
</g>
<defs>
<clipPath id="clip0_1_2">
<rect width="111.85" height="82.22" fill="white"/>
</clipPath>
</defs>
</svg>
