<svg width="159" height="46" viewBox="0 0 159 46" fill="none" xmlns="http://www.w3.org/2000/svg">
<path d="M14 8H0V22H14V8Z" fill="#E5E5E5"/>
<path d="M14 24.6666H0V38.6666H14V24.6666Z" fill="white"/>
<path d="M30.6666 24.6666H16.6666V38.6666H30.6666V24.6666Z" fill="#E5E5E5"/>
<path d="M46.4726 16.0974C45.347 16.0974 44.3296 15.8485 43.4204 15.3506C42.522 14.8527 41.8131 14.1654 41.2936 13.2887C40.7849 12.4012 40.5305 11.4108 40.5305 10.3176C40.5305 9.22449 40.7849 8.23955 41.2936 7.36284C41.8131 6.47531 42.5275 5.78261 43.4366 5.28473C44.3458 4.78684 45.3632 4.5379 46.4889 4.5379C47.3331 4.5379 48.1124 4.67861 48.8268 4.96002C49.5411 5.24143 50.1472 5.65273 50.6451 6.1939L49.882 6.95696C48.9945 6.05861 47.8743 5.60943 46.5213 5.60943C45.623 5.60943 44.8058 5.81508 44.0698 6.22637C43.3338 6.63767 42.7548 7.20049 42.3326 7.91484C41.9213 8.6292 41.7157 9.43014 41.7157 10.3176C41.7157 11.2052 41.9213 12.0061 42.3326 12.7205C42.7548 13.4348 43.3338 13.9976 44.0698 14.4089C44.8058 14.8202 45.623 15.0259 46.5213 15.0259C47.8851 15.0259 49.0053 14.5713 49.882 13.6621L50.6451 14.4252C50.1472 14.9664 49.5357 15.3831 48.8105 15.6753C48.0962 15.9567 47.3169 16.0974 46.4726 16.0974ZM57.3138 7.39531C58.3853 7.39531 59.2349 7.7092 59.8627 8.33696C60.5013 8.9539 60.8206 9.85767 60.8206 11.0482V16H59.6679V11.1619C59.6679 10.2744 59.446 9.5979 59.0022 9.13249C58.5585 8.66708 57.9253 8.43437 57.1027 8.43437C56.1827 8.43437 55.4521 8.71037 54.9109 9.26237C54.3806 9.80355 54.1154 10.5558 54.1154 11.5191V16H52.9627V3.95343H54.1154V8.9539C54.4293 8.45602 54.8622 8.07178 55.4142 7.8012C55.9662 7.53061 56.5994 7.39531 57.3138 7.39531ZM63.9501 7.46025H65.1028V16H63.9501V7.46025ZM64.5345 5.5932C64.2964 5.5932 64.0962 5.51202 63.9338 5.34967C63.7715 5.18731 63.6903 4.99249 63.6903 4.7652C63.6903 4.54873 63.7715 4.35931 63.9338 4.19696C64.0962 4.03461 64.2964 3.95343 64.5345 3.95343C64.7726 3.95343 64.9729 4.03461 65.1352 4.19696C65.2976 4.34849 65.3788 4.53249 65.3788 4.74896C65.3788 4.98708 65.2976 5.18731 65.1352 5.34967C64.9729 5.51202 64.7726 5.5932 64.5345 5.5932ZM72.6612 7.39531C73.7327 7.39531 74.5824 7.7092 75.2101 8.33696C75.8487 8.9539 76.168 9.85767 76.168 11.0482V16H75.0153V11.1619C75.0153 10.2744 74.7934 9.5979 74.3496 9.13249C73.9059 8.66708 73.2727 8.43437 72.4501 8.43437C71.5301 8.43437 70.7995 8.71037 70.2584 9.26237C69.728 9.80355 69.4628 10.5558 69.4628 11.5191V16H68.3101V7.46025H69.4141V9.03508C69.728 8.51555 70.1609 8.11508 70.7129 7.83367C71.2758 7.54143 71.9252 7.39531 72.6612 7.39531ZM82.2848 7.39531C83.3996 7.39531 84.2547 7.67673 84.85 8.23955C85.4452 8.79155 85.7429 9.61414 85.7429 10.7073V16H84.6389V14.6687C84.3791 15.1125 83.9949 15.4588 83.4862 15.7078C82.9883 15.9567 82.393 16.0812 81.7003 16.0812C80.7478 16.0812 79.9902 15.8539 79.4274 15.3993C78.8645 14.9447 78.5831 14.344 78.5831 13.5972C78.5831 12.872 78.8429 12.2875 79.3624 11.8438C79.8928 11.4 80.7316 11.1781 81.8789 11.1781H84.5902V10.6586C84.5902 9.92261 84.3845 9.3652 83.9732 8.98637C83.562 8.59673 82.9612 8.4019 82.1711 8.4019C81.63 8.4019 81.1104 8.4939 80.6125 8.6779C80.1147 8.85108 79.6871 9.09461 79.33 9.40849L78.8104 8.54802C79.2434 8.18002 79.7629 7.89861 80.369 7.70378C80.9751 7.49814 81.6137 7.39531 82.2848 7.39531ZM81.8789 15.172C82.5283 15.172 83.0857 15.0259 83.5511 14.7336C84.0165 14.4306 84.3629 13.9976 84.5902 13.4348V12.0386H81.9114C80.4502 12.0386 79.7196 12.5473 79.7196 13.5647C79.7196 14.0626 79.909 14.4576 80.2878 14.7499C80.6667 15.0313 81.197 15.172 81.8789 15.172ZM45.7908 24.6353C47.2411 24.6353 48.3776 24.9816 49.2002 25.6744C50.0228 26.3671 50.434 27.3195 50.434 28.5318C50.434 29.744 50.0228 30.6965 49.2002 31.3892C48.3776 32.0711 47.2411 32.412 45.7908 32.412H42.7385V36H41.5371V24.6353H45.7908ZM45.7583 31.3567C46.8839 31.3567 47.7444 31.1132 48.3397 30.6261C48.935 30.1282 49.2326 29.4301 49.2326 28.5318C49.2326 27.6118 48.935 26.9082 48.3397 26.4212C47.7444 25.9233 46.8839 25.6744 45.7583 25.6744H42.7385V31.3567H45.7583ZM53.6703 29.1325C53.9409 28.5588 54.3414 28.1259 54.8717 27.8336C55.4129 27.5414 56.0786 27.3953 56.8687 27.3953V28.5155L56.5927 28.4993C55.6943 28.4993 54.9908 28.7753 54.4821 29.3273C53.9734 29.8793 53.719 30.6532 53.719 31.6489V36H52.5663V27.4602H53.6703V29.1325ZM62.3671 36.0812C61.5445 36.0812 60.8031 35.8972 60.1429 35.5292C59.4826 35.1504 58.9631 34.6308 58.5843 33.9706C58.2055 33.3104 58.0161 32.5635 58.0161 31.7301C58.0161 30.8967 58.2055 30.1499 58.5843 29.4896C58.9631 28.8294 59.4826 28.3153 60.1429 27.9473C60.8031 27.5793 61.5445 27.3953 62.3671 27.3953C63.1897 27.3953 63.9311 27.5793 64.5913 27.9473C65.2516 28.3153 65.7657 28.8294 66.1337 29.4896C66.5125 30.1499 66.7019 30.8967 66.7019 31.7301C66.7019 32.5635 66.5125 33.3104 66.1337 33.9706C65.7657 34.6308 65.2516 35.1504 64.5913 35.5292C63.9311 35.8972 63.1897 36.0812 62.3671 36.0812ZM62.3671 35.0584C62.9732 35.0584 63.5144 34.9231 63.9906 34.6525C64.4777 34.3711 64.8565 33.976 65.1271 33.4673C65.3977 32.9586 65.533 32.3795 65.533 31.7301C65.533 31.0807 65.3977 30.5016 65.1271 29.9929C64.8565 29.4842 64.4777 29.0946 63.9906 28.824C63.5144 28.5426 62.9732 28.4019 62.3671 28.4019C61.761 28.4019 61.2144 28.5426 60.7273 28.824C60.2511 29.0946 59.8723 29.4842 59.5909 29.9929C59.3203 30.5016 59.185 31.0807 59.185 31.7301C59.185 32.3795 59.3203 32.9586 59.5909 33.4673C59.8723 33.976 60.2511 34.3711 60.7273 34.6525C61.2144 34.9231 61.761 35.0584 62.3671 35.0584ZM71.8802 24.8464C71.3824 24.8464 71.0035 24.9816 70.7438 25.2522C70.4948 25.5228 70.3704 25.9233 70.3704 26.4536V27.4602H73.0005V28.4344H70.4028V36H69.2501V28.4344H67.724V27.4602H69.2501V26.4049C69.2501 25.6256 69.472 25.0087 69.9158 24.5541C70.3704 24.0995 71.0089 23.8722 71.8315 23.8722C72.1562 23.8722 72.4701 23.9209 72.7732 24.0184C73.0762 24.1049 73.3306 24.2348 73.5362 24.408L73.1466 25.2685C72.8111 24.9871 72.3889 24.8464 71.8802 24.8464ZM81.85 32.0873H74.7064C74.7714 32.9748 75.1123 33.6946 75.7293 34.2466C76.3462 34.7878 77.1255 35.0584 78.0671 35.0584C78.5975 35.0584 79.0846 34.9664 79.5283 34.7824C79.9721 34.5875 80.3563 34.3061 80.681 33.9381L81.3304 34.6849C80.9516 35.1395 80.4754 35.4859 79.9017 35.724C79.3389 35.9621 78.7166 36.0812 78.0347 36.0812C77.158 36.0812 76.3787 35.8972 75.6968 35.5292C75.0257 35.1504 74.5008 34.6308 74.122 33.9706C73.7431 33.3104 73.5537 32.5635 73.5537 31.7301C73.5537 30.8967 73.7323 30.1499 74.0895 29.4896C74.4575 28.8294 74.9554 28.3153 75.5831 27.9473C76.2217 27.5793 76.9361 27.3953 77.7262 27.3953C78.5163 27.3953 79.2253 27.5793 79.853 27.9473C80.4808 28.3153 80.9733 28.8294 81.3304 29.4896C81.6876 30.1391 81.8662 30.8859 81.8662 31.7301L81.85 32.0873ZM77.7262 28.3856C76.9036 28.3856 76.2109 28.6508 75.6481 29.1812C75.0961 29.7007 74.7822 30.3826 74.7064 31.2268H80.7622C80.6864 30.3826 80.3671 29.7007 79.8043 29.1812C79.2523 28.6508 78.5596 28.3856 77.7262 28.3856ZM86.5016 36.0812C85.8089 36.0812 85.1433 35.9838 84.5047 35.7889C83.8769 35.5833 83.3845 35.3289 83.0273 35.0259L83.5468 34.1167C83.904 34.3981 84.3532 34.6308 84.8943 34.8148C85.4355 34.988 85.9983 35.0746 86.5828 35.0746C87.3621 35.0746 87.9358 34.9555 88.3038 34.7174C88.6826 34.4685 88.872 34.1221 88.872 33.6784C88.872 33.3645 88.7692 33.1209 88.5635 32.9478C88.3579 32.7638 88.0981 32.6285 87.7842 32.5419C87.4703 32.4445 87.0536 32.3525 86.5341 32.2659C85.8414 32.136 85.284 32.0061 84.8619 31.8762C84.4398 31.7355 84.0772 31.5028 83.7741 31.1781C83.4819 30.8534 83.3358 30.4042 83.3358 29.8306C83.3358 29.1162 83.6334 28.5318 84.2287 28.0772C84.824 27.6226 85.652 27.3953 86.7127 27.3953C87.2647 27.3953 87.8167 27.4711 88.3687 27.6226C88.9207 27.7633 89.3753 27.9527 89.7325 28.1908L89.2292 29.1162C88.5256 28.6292 87.6868 28.3856 86.7127 28.3856C85.9767 28.3856 85.4193 28.5155 85.0405 28.7753C84.6725 29.0351 84.4885 29.376 84.4885 29.7981C84.4885 30.1228 84.5913 30.3826 84.7969 30.5774C85.0134 30.7722 85.2786 30.9184 85.5925 31.0158C85.9063 31.1024 86.3393 31.1944 86.8913 31.2918C87.5732 31.4216 88.1198 31.5515 88.531 31.6814C88.9423 31.8113 89.2941 32.0332 89.5863 32.3471C89.8786 32.6609 90.0247 33.0939 90.0247 33.6459C90.0247 34.3927 89.7108 34.988 89.0831 35.4318C88.4661 35.8647 87.6056 36.0812 86.5016 36.0812ZM94.4449 36.0812C93.7522 36.0812 93.0865 35.9838 92.4479 35.7889C91.8202 35.5833 91.3277 35.3289 90.9705 35.0259L91.4901 34.1167C91.8472 34.3981 92.2964 34.6308 92.8376 34.8148C93.3788 34.988 93.9416 35.0746 94.5261 35.0746C95.3054 35.0746 95.879 34.9555 96.247 34.7174C96.6258 34.4685 96.8152 34.1221 96.8152 33.6784C96.8152 33.3645 96.7124 33.1209 96.5068 32.9478C96.3011 32.7638 96.0414 32.6285 95.7275 32.5419C95.4136 32.4445 94.9969 32.3525 94.4774 32.2659C93.7846 32.136 93.2272 32.0061 92.8051 31.8762C92.383 31.7355 92.0204 31.5028 91.7174 31.1781C91.4251 30.8534 91.279 30.4042 91.279 29.8306C91.279 29.1162 91.5766 28.5318 92.1719 28.0772C92.7672 27.6226 93.5952 27.3953 94.6559 27.3953C95.2079 27.3953 95.7599 27.4711 96.3119 27.6226C96.8639 27.7633 97.3185 27.9527 97.6757 28.1908L97.1724 29.1162C96.4689 28.6292 95.6301 28.3856 94.6559 28.3856C93.9199 28.3856 93.3625 28.5155 92.9837 28.7753C92.6157 29.0351 92.4317 29.376 92.4317 29.7981C92.4317 30.1228 92.5345 30.3826 92.7402 30.5774C92.9566 30.7722 93.2218 30.9184 93.5357 31.0158C93.8496 31.1024 94.2825 31.1944 94.8345 31.2918C95.5164 31.4216 96.063 31.5515 96.4743 31.6814C96.8856 31.8113 97.2374 32.0332 97.5296 32.3471C97.8218 32.6609 97.9679 33.0939 97.9679 33.6459C97.9679 34.3927 97.6541 34.988 97.0263 35.4318C96.4094 35.8647 95.5489 36.0812 94.4449 36.0812ZM100.099 27.4602H101.252V36H100.099V27.4602ZM100.683 25.5932C100.445 25.5932 100.245 25.512 100.083 25.3496C99.9204 25.1873 99.8392 24.9925 99.8392 24.7652C99.8392 24.5487 99.9204 24.3593 100.083 24.1969C100.245 24.0346 100.445 23.9534 100.683 23.9534C100.922 23.9534 101.122 24.0346 101.284 24.1969C101.446 24.3485 101.528 24.5325 101.528 24.7489C101.528 24.9871 101.446 25.1873 101.284 25.3496C101.122 25.512 100.922 25.5932 100.683 25.5932ZM107.95 36.0812C107.127 36.0812 106.386 35.8972 105.725 35.5292C105.065 35.1504 104.546 34.6308 104.167 33.9706C103.788 33.3104 103.599 32.5635 103.599 31.7301C103.599 30.8967 103.788 30.1499 104.167 29.4896C104.546 28.8294 105.065 28.3153 105.725 27.9473C106.386 27.5793 107.127 27.3953 107.95 27.3953C108.772 27.3953 109.514 27.5793 110.174 27.9473C110.834 28.3153 111.348 28.8294 111.716 29.4896C112.095 30.1499 112.284 30.8967 112.284 31.7301C112.284 32.5635 112.095 33.3104 111.716 33.9706C111.348 34.6308 110.834 35.1504 110.174 35.5292C109.514 35.8972 108.772 36.0812 107.95 36.0812ZM107.95 35.0584C108.556 35.0584 109.097 34.9231 109.573 34.6525C110.06 34.3711 110.439 33.976 110.71 33.4673C110.98 32.9586 111.115 32.3795 111.115 31.7301C111.115 31.0807 110.98 30.5016 110.71 29.9929C110.439 29.4842 110.06 29.0946 109.573 28.824C109.097 28.5426 108.556 28.4019 107.95 28.4019C107.343 28.4019 106.797 28.5426 106.31 28.824C105.834 29.0946 105.455 29.4842 105.173 29.9929C104.903 30.5016 104.767 31.0807 104.767 31.7301C104.767 32.3795 104.903 32.9586 105.173 33.4673C105.455 33.976 105.834 34.3711 106.31 34.6525C106.797 34.9231 107.343 35.0584 107.95 35.0584ZM118.989 27.3953C120.06 27.3953 120.91 27.7092 121.538 28.3369C122.176 28.9539 122.496 29.8576 122.496 31.0482V36H121.343V31.1619C121.343 30.2744 121.121 29.5979 120.677 29.1325C120.234 28.6671 119.6 28.4344 118.778 28.4344C117.858 28.4344 117.127 28.7104 116.586 29.2624C116.056 29.8035 115.79 30.5558 115.79 31.5191V36H114.638V27.4602H115.742V29.0351C116.056 28.5155 116.489 28.1151 117.041 27.8336C117.603 27.5414 118.253 27.3953 118.989 27.3953ZM128.612 27.3953C129.727 27.3953 130.582 27.6767 131.178 28.2395C131.773 28.7915 132.071 29.6141 132.071 30.7073V36H130.967V34.6687C130.707 35.1125 130.323 35.4588 129.814 35.7078C129.316 35.9567 128.721 36.0812 128.028 36.0812C127.076 36.0812 126.318 35.8539 125.755 35.3993C125.192 34.9447 124.911 34.344 124.911 33.5972C124.911 32.872 125.171 32.2875 125.69 31.8438C126.22 31.4 127.059 31.1781 128.207 31.1781H130.918V30.6586C130.918 29.9226 130.712 29.3652 130.301 28.9864C129.89 28.5967 129.289 28.4019 128.499 28.4019C127.958 28.4019 127.438 28.4939 126.94 28.6779C126.442 28.8511 126.015 29.0946 125.658 29.4085L125.138 28.548C125.571 28.18 126.091 27.8986 126.697 27.7038C127.303 27.4981 127.941 27.3953 128.612 27.3953ZM128.207 35.172C128.856 35.172 129.413 35.0259 129.879 34.7336C130.344 34.4306 130.691 33.9976 130.918 33.4348V32.0386H128.239C126.778 32.0386 126.047 32.5473 126.047 33.5647C126.047 34.0626 126.237 34.4576 126.616 34.7499C126.994 35.0313 127.525 35.172 128.207 35.172ZM135.201 23.9534H136.354V36H135.201V23.9534ZM141.851 36.0812C141.158 36.0812 140.492 35.9838 139.854 35.7889C139.226 35.5833 138.733 35.3289 138.376 35.0259L138.896 34.1167C139.253 34.3981 139.702 34.6308 140.243 34.8148C140.785 34.988 141.347 35.0746 141.932 35.0746C142.711 35.0746 143.285 34.9555 143.653 34.7174C144.032 34.4685 144.221 34.1221 144.221 33.6784C144.221 33.3645 144.118 33.1209 143.913 32.9478C143.707 32.7638 143.447 32.6285 143.133 32.5419C142.819 32.4445 142.403 32.3525 141.883 32.2659C141.19 32.136 140.633 32.0061 140.211 31.8762C139.789 31.7355 139.426 31.5028 139.123 31.1781C138.831 30.8534 138.685 30.4042 138.685 29.8306C138.685 29.1162 138.982 28.5318 139.578 28.0772C140.173 27.6226 141.001 27.3953 142.062 27.3953C142.614 27.3953 143.166 27.4711 143.718 27.6226C144.27 27.7633 144.724 27.9527 145.081 28.1908L144.578 29.1162C143.875 28.6292 143.036 28.3856 142.062 28.3856C141.326 28.3856 140.768 28.5155 140.389 28.7753C140.021 29.0351 139.837 29.376 139.837 29.7981C139.837 30.1228 139.94 30.3826 140.146 30.5774C140.362 30.7722 140.628 30.9184 140.941 31.0158C141.255 31.1024 141.688 31.1944 142.24 31.2918C142.922 31.4216 143.469 31.5515 143.88 31.6814C144.291 31.8113 144.643 32.0332 144.935 32.3471C145.228 32.6609 145.374 33.0939 145.374 33.6459C145.374 34.3927 145.06 34.988 144.432 35.4318C143.815 35.8647 142.955 36.0812 141.851 36.0812Z" fill="white"/>
</svg>
