<svg width="157" height="48" viewBox="0 0 157 48" fill="none" xmlns="http://www.w3.org/2000/svg">
<g clip-path="url(#clip0_1107_3588)">
<path d="M5.18537 33.8099H14.0422C13.5816 32.5107 12.6584 31.4228 11.4457 30.75C10.089 30.0189 8.56113 29.6568 7.01727 29.7001C6.16892 29.7044 5.32637 29.8385 4.51931 30.0976C3.6558 30.3721 2.84467 30.7879 2.11958 31.3274L0.151355 27.5027C1.09732 26.7184 2.17295 26.1018 3.33078 25.6802C4.91409 25.1124 6.59057 24.8428 8.27396 24.8852C9.82805 24.8687 11.3706 25.1514 12.8159 25.7178C14.1652 26.25 15.3912 27.0488 16.4192 28.0651C17.4571 29.103 18.2688 30.341 18.8037 31.7025C19.3912 33.214 19.6815 34.8228 19.6591 36.4423C19.6746 38.0831 19.3847 39.7128 18.8037 41.2495C18.2844 42.6262 17.4591 43.8694 16.3889 44.8869C15.2975 45.8877 14.0088 46.6538 12.6039 47.1369C10.9902 47.7156 9.28611 48.0076 7.56994 47.9993C6.77619 48.0029 5.98367 47.9402 5.20053 47.8118C4.48394 47.6744 3.77807 47.4865 3.08859 47.2493C2.47183 47.0521 1.87406 46.8012 1.30204 46.4994C0.83208 46.2721 0.394409 45.9846 0 45.6445L2.18774 41.3396C2.8713 41.8855 3.6378 42.3209 4.45867 42.6295C5.43643 43.0128 6.48075 43.2014 7.5321 43.1845C8.26902 43.1868 9.00349 43.1011 9.71984 42.9295C10.4134 42.7667 11.0755 42.4931 11.6804 42.1196C12.2856 41.7428 12.8187 41.2629 13.255 40.7021C13.7312 40.0755 14.0714 39.3579 14.2542 38.5946H5.17021L5.18537 33.8099Z" fill="white"/>
<path d="M21.8386 25.2676H26.9938V35.0172L34.3669 25.2676H40.5515L32.0732 35.5646L41.2176 47.5642H34.6848L26.9861 36.9746V47.5942H21.8386V25.2676Z" fill="white"/>
<path d="M38.758 36.427C38.7502 34.8853 39.0458 33.3568 39.6286 31.9273C40.1853 30.5409 41.0226 29.2821 42.0888 28.2284C43.155 27.1746 44.4277 26.3482 45.8283 25.7999C47.3822 25.1801 49.0434 24.8668 50.7185 24.8776C52.3406 24.8615 53.9528 25.1306 55.48 25.6725C56.8856 26.1755 58.1732 26.9563 59.265 27.9675C60.354 28.9891 61.2109 30.2291 61.7781 31.6047C62.3985 33.1344 62.7048 34.7712 62.6789 36.4195C62.698 38.021 62.3916 39.61 61.7781 41.0918C61.2031 42.4678 60.3475 43.7112 59.265 44.7443C58.1744 45.777 56.8879 46.585 55.48 47.1216C53.9623 47.7067 52.347 48.0044 50.7185 47.9991C49.0964 48.0153 47.4842 47.7462 45.957 47.2042C44.5512 46.7017 43.2633 45.9209 42.172 44.9092C41.0795 43.8816 40.2224 42.6335 39.6588 41.2493C39.0368 39.7175 38.7306 38.078 38.758 36.427ZM44.2311 36.427C44.2237 37.3443 44.3986 38.2541 44.7458 39.1044C45.0692 39.8984 45.539 40.6257 46.1311 41.2493C46.7125 41.8561 47.4133 42.3386 48.1901 42.6668C48.9933 43.0088 49.8593 43.1825 50.7337 43.1768C51.6988 43.1972 52.6579 43.0185 53.5496 42.6518C54.3192 42.3333 55.011 41.8551 55.5783 41.2493C56.1374 40.6243 56.5602 39.8915 56.8199 39.0969C57.1021 38.2426 57.2428 37.3485 57.2362 36.4495C57.2482 35.5016 57.0786 34.56 56.7365 33.6747C56.4287 32.864 55.9573 32.124 55.3513 31.4998C54.7635 30.9047 54.0572 30.4372 53.2771 30.1273C52.4625 29.8109 51.5933 29.6556 50.7185 29.6698C49.8247 29.6601 48.9376 29.8231 48.1069 30.1498C47.3377 30.4531 46.6413 30.9129 46.063 31.4998C45.47 32.1141 45.0091 32.8413 44.7079 33.6372C44.3758 34.5298 44.2141 35.4759 44.2311 36.427Z" fill="white"/>
<path d="M78.2653 38.5945H70.0595V47.5942H64.9043V25.2676H70.0595V33.8172H78.2728V25.2676H83.4203V47.5942H78.2728L78.2653 38.5945Z" fill="white"/>
<path d="M85.9946 47.5942V25.2676H91.1497V39.142L101.127 25.2676H105.668V47.5942H100.514V33.7497L90.5365 47.6242L85.9946 47.5942Z" fill="#215732"/>
<path d="M132.225 25.2676H136.82L146.176 47.5942H140.703L138.833 42.9069H129.893L128.023 47.5942H122.876L132.225 25.2676ZM131.831 38.1221H136.895L134.374 31.8073L131.831 38.1221Z" fill="white"/>
<path d="M21.8388 0.383789H38.9091V5.16855H26.9864V9.09086H37.9401V13.8756H26.9864V17.9255H39.227V22.7104H21.8162L21.8388 0.383789Z" fill="white"/>
<path d="M41.8845 0.383789H47.0397V10.1333L54.4128 0.383789H60.5595L52.1191 10.6883L61.2635 22.6879H54.7308L47.0322 12.0908V22.7104H41.8845V0.383789Z" fill="white"/>
<path d="M59.6203 11.5508C59.6125 10.0091 59.9081 8.48061 60.4909 7.05094C61.0442 5.65904 61.8799 4.39445 62.9463 3.33542C64.0127 2.27627 65.2871 1.44531 66.6906 0.893711C68.2537 0.281223 69.9228 -0.0220071 71.6036 0.00124254C73.2257 -0.0147493 74.8379 0.254407 76.3651 0.796285C77.7705 1.29929 79.0583 2.08006 80.1501 3.09111C81.2473 4.11791 82.1094 5.36589 82.6783 6.75103C83.2988 8.28059 83.6051 9.91742 83.5792 11.5658C83.5983 13.1673 83.2919 14.7563 82.6783 16.2381C82.1034 17.6139 81.2477 18.8574 80.1651 19.8904C79.0747 20.9233 77.7882 21.7313 76.3801 22.2678C74.8604 22.8428 73.2453 23.1301 71.6187 23.1154C69.9966 23.1315 68.3843 22.8623 66.8572 22.3203C65.4514 21.8179 64.1636 21.037 63.0723 20.0255C61.9798 18.9978 61.1227 17.7497 60.559 16.3656C59.925 14.8387 59.6059 13.2017 59.6203 11.5508ZM65.0934 11.5508C65.083 12.4756 65.2579 13.3933 65.6082 14.2507C65.9308 15.0472 66.4006 15.7772 66.9934 16.4031C67.5749 17.0099 68.2756 17.4923 69.0525 17.8206C69.8557 18.1626 70.7217 18.3361 71.5959 18.3305C72.5613 18.351 73.5203 18.1722 74.412 17.8056C75.192 17.4736 75.8895 16.9771 76.4559 16.3506C77.015 15.7255 77.4376 14.9927 77.6973 14.1982C77.9796 13.3439 78.1202 12.4498 78.1137 11.5508C78.1256 10.6029 77.9562 9.6613 77.6141 8.77585C77.3017 7.97859 76.8306 7.2517 76.2288 6.63847C75.6402 6.03706 74.9312 5.56444 74.147 5.251C73.3387 4.92895 72.4749 4.76583 71.6036 4.77112C70.7098 4.76128 69.8227 4.9244 68.992 5.251C68.2154 5.55903 67.5136 6.02685 66.9329 6.62347C66.34 7.2378 65.879 7.96494 65.5779 8.76084C65.2457 9.65355 65.084 10.5995 65.101 11.5508H65.0934Z" fill="white"/>
<path d="M101.512 22.7104L90.8393 9.31585V22.7104H85.9946V0.383789H90.0823L100.772 13.8457V0.383789H105.601V22.7104H101.512Z" fill="#215732"/>
<path d="M108.204 0.383789H113.351V22.7104H108.204V0.383789Z" fill="white"/>
<path d="M142.58 0.383789H147.175L156.531 22.7104H151.058L149.188 18.0005H140.248L138.378 22.6879H133.231L142.58 0.383789ZM142.186 13.2382H147.25L144.737 6.92347L142.186 13.2382Z" fill="white"/>
<path d="M133.549 0.383789L126.948 16.1406L120.346 0.383789H114.835L124.192 22.7104H129.703L139.06 0.383789H133.549Z" fill="white"/>
<path d="M108.204 25.3274L109.46 25.2675L111.164 25.2L113.094 25.155H115.025C116.192 25.1304 117.358 25.2744 118.484 25.5825C119.34 25.8166 120.14 26.2168 120.838 26.7599C121.424 27.22 121.885 27.8182 122.179 28.4999C122.457 29.1886 122.599 29.9249 122.594 30.6672C122.627 31.6889 122.402 32.7024 121.936 33.6147C121.475 34.4347 120.817 35.1301 120.021 35.6396V35.7071C120.447 35.8666 120.846 36.0864 121.209 36.3596C121.604 36.6555 121.952 37.0096 122.239 37.4095C122.571 37.866 122.826 38.3725 122.996 38.9094C123.187 39.5341 123.278 40.1844 123.268 40.8368C123.295 41.8843 123.077 42.9238 122.632 43.8743C122.213 44.7233 121.596 45.4612 120.83 46.0267C120.016 46.6205 119.094 47.0534 118.113 47.3016C117.003 47.5862 115.861 47.7249 114.715 47.7141H112.973H111.156L109.499 47.669C108.983 47.669 108.568 47.6166 108.241 47.5716L108.204 25.3274ZM114.964 29.9174C114.641 29.9174 114.368 29.9174 114.146 29.9174L113.39 30.0148V34.0646H115.062C115.662 34.0824 116.252 33.9146 116.751 33.5847C116.997 33.3818 117.189 33.1215 117.309 32.827C117.43 32.5325 117.474 32.213 117.44 31.8973C117.457 31.6034 117.397 31.3102 117.263 31.047C117.13 30.7837 116.931 30.5597 116.683 30.3974C116.17 30.0732 115.572 29.9063 114.964 29.9174ZM113.351 38.5645V42.7493C113.525 42.7942 113.73 42.8318 113.98 42.8768C114.348 42.9263 114.721 42.9464 115.093 42.9368C115.9 43.0022 116.705 42.7817 117.363 42.3144C117.616 42.1007 117.814 41.8329 117.946 41.5312C118.077 41.2297 118.137 40.9024 118.121 40.5744C118.136 40.2808 118.076 39.9882 117.943 39.7252C117.809 39.4621 117.61 39.2379 117.363 39.0744C116.758 38.7259 116.064 38.5592 115.365 38.5944L113.351 38.5645Z" fill="white"/>
</g>
<defs>
<clipPath id="clip0_1107_3588">
<rect width="157" height="48" fill="white"/>
</clipPath>
</defs>
</svg>
