<svg width="157" height="48" viewBox="0 0 157 48" fill="none" xmlns="http://www.w3.org/2000/svg">
<path d="M5.18537 33.8099H14.0422C13.5816 32.5107 12.6584 31.4228 11.4457 30.75C10.089 30.0189 8.56113 29.6568 7.01727 29.7001C6.16892 29.7044 5.32637 29.8385 4.51931 30.0976C3.6558 30.3721 2.84467 30.7879 2.11958 31.3274L0.151355 27.5027C1.09732 26.7184 2.17295 26.1018 3.33078 25.6802C4.91409 25.1124 6.59057 24.8428 8.27396 24.8852C9.82805 24.8687 11.3706 25.1514 12.8159 25.7178C14.1652 26.25 15.3912 27.0488 16.4192 28.0651C17.4571 29.103 18.2688 30.341 18.8037 31.7025C19.3912 33.214 19.6815 34.8228 19.6591 36.4423C19.6746 38.0831 19.3847 39.7128 18.8037 41.2495C18.2844 42.6262 17.4591 43.8694 16.3889 44.8869C15.2975 45.8877 14.0088 46.6538 12.6039 47.1369C10.9902 47.7156 9.28611 48.0076 7.56994 47.9993C6.77619 48.0029 5.98367 47.9402 5.20053 47.8118C4.48394 47.6744 3.77807 47.4865 3.08859 47.2493C2.47183 47.0521 1.87406 46.8012 1.30204 46.4994C0.83208 46.2721 0.394409 45.9846 0 45.6445L2.18774 41.3396C2.8713 41.8855 3.6378 42.3209 4.45867 42.6295C5.43643 43.0128 6.48075 43.2014 7.5321 43.1845C8.26902 43.1868 9.00349 43.1011 9.71984 42.9295C10.4134 42.7667 11.0755 42.4931 11.6804 42.1196C12.2856 41.7428 12.8187 41.2629 13.255 40.7021C13.7312 40.0755 14.0714 39.3579 14.2542 38.5946H5.17021L5.18537 33.8099Z" fill="#509E2F"/>
<path d="M21.8386 25.2678H26.9938V35.0174L34.3669 25.2678H40.5515L32.0732 35.5648L41.2176 47.5644H34.6848L26.9861 36.9748V47.5944H21.8386V25.2678Z" fill="#509E2F"/>
<path d="M38.758 36.4273C38.7502 34.8856 39.0458 33.3571 39.6286 31.9276C40.1853 30.5412 41.0226 29.2824 42.0888 28.2287C43.155 27.1749 44.4277 26.3485 45.8283 25.8002C47.3822 25.1804 49.0434 24.8671 50.7185 24.8779C52.3406 24.8618 53.9528 25.1309 55.48 25.6728C56.8856 26.1758 58.1732 26.9566 59.265 27.9678C60.354 28.9894 61.2109 30.2294 61.7781 31.605C62.3985 33.1347 62.7048 34.7715 62.6789 36.4198C62.698 38.0213 62.3916 39.6103 61.7781 41.0921C61.2031 42.4681 60.3475 43.7115 59.265 44.7446C58.1744 45.7773 56.8879 46.5853 55.48 47.1219C53.9623 47.707 52.347 48.0047 50.7185 47.9994C49.0964 48.0156 47.4842 47.7465 45.957 47.2045C44.5512 46.702 43.2633 45.9212 42.172 44.9095C41.0795 43.8819 40.2224 42.6338 39.6588 41.2496C39.0368 39.7178 38.7306 38.0783 38.758 36.4273ZM44.2311 36.4273C44.2237 37.3446 44.3986 38.2544 44.7458 39.1047C45.0692 39.8987 45.539 40.626 46.1311 41.2496C46.7125 41.8564 47.4133 42.3389 48.1901 42.6671C48.9933 43.0091 49.8593 43.1828 50.7337 43.1771C51.6988 43.1975 52.6579 43.0188 53.5496 42.6521C54.3192 42.3336 55.011 41.8554 55.5783 41.2496C56.1374 40.6246 56.5602 39.8918 56.8199 39.0972C57.1021 38.2429 57.2428 37.3488 57.2362 36.4498C57.2482 35.5019 57.0786 34.5603 56.7365 33.675C56.4287 32.8643 55.9573 32.1243 55.3513 31.5001C54.7635 30.905 54.0572 30.4375 53.2771 30.1276C52.4625 29.8112 51.5933 29.6559 50.7185 29.6701C49.8247 29.6604 48.9376 29.8234 48.1069 30.1501C47.3377 30.4534 46.6413 30.9132 46.063 31.5001C45.47 32.1144 45.0091 32.8416 44.7079 33.6375C44.3758 34.5301 44.2141 35.4762 44.2311 36.4273Z" fill="#509E2F"/>
<path d="M78.2653 38.5947H70.0595V47.5944H64.9043V25.2678H70.0595V33.8174H78.2728V25.2678H83.4203V47.5944H78.2728L78.2653 38.5947Z" fill="#509E2F"/>
<path d="M85.9946 47.5944V25.2678H91.1497V39.1422L101.127 25.2678H105.668V47.5944H100.514V33.7499L90.5365 47.6244L85.9946 47.5944Z" fill="#215732"/>
<path d="M132.225 25.2678H136.82L146.176 47.5944H140.703L138.833 42.9071H129.893L128.023 47.5944H122.876L132.225 25.2678ZM131.831 38.1223H136.895L134.374 31.8075L131.831 38.1223Z" fill="#509E2F"/>
<path d="M21.8388 0.383789H38.9091V5.16855H26.9864V9.09086H37.9401V13.8756H26.9864V17.9255H39.227V22.7104H21.8162L21.8388 0.383789Z" fill="#509E2F"/>
<path d="M41.8845 0.383789H47.0397V10.1333L54.4128 0.383789H60.5595L52.1191 10.6883L61.2635 22.6879H54.7308L47.0322 12.0908V22.7104H41.8845V0.383789Z" fill="#509E2F"/>
<path d="M59.6203 11.5508C59.6125 10.0091 59.9081 8.48061 60.4909 7.05094C61.0442 5.65904 61.8799 4.39445 62.9463 3.33542C64.0127 2.27627 65.2871 1.44531 66.6906 0.893711C68.2537 0.281223 69.9228 -0.0220071 71.6036 0.00124254C73.2257 -0.0147493 74.8379 0.254407 76.3651 0.796285C77.7705 1.29929 79.0583 2.08006 80.1501 3.09111C81.2473 4.11791 82.1094 5.36589 82.6783 6.75103C83.2988 8.28059 83.6051 9.91742 83.5792 11.5658C83.5983 13.1673 83.2919 14.7563 82.6783 16.2381C82.1034 17.6139 81.2477 18.8574 80.1651 19.8904C79.0747 20.9233 77.7882 21.7313 76.3801 22.2678C74.8604 22.8428 73.2453 23.1301 71.6187 23.1154C69.9966 23.1315 68.3843 22.8623 66.8572 22.3203C65.4514 21.8179 64.1636 21.037 63.0723 20.0255C61.9798 18.9978 61.1227 17.7497 60.559 16.3656C59.925 14.8387 59.6059 13.2017 59.6203 11.5508ZM65.0934 11.5508C65.083 12.4756 65.2579 13.3933 65.6082 14.2507C65.9308 15.0472 66.4006 15.7772 66.9934 16.4031C67.5749 17.0099 68.2756 17.4923 69.0525 17.8206C69.8557 18.1626 70.7217 18.3361 71.5959 18.3305C72.5613 18.351 73.5203 18.1722 74.412 17.8056C75.192 17.4736 75.8895 16.9771 76.4559 16.3506C77.015 15.7255 77.4376 14.9927 77.6973 14.1982C77.9796 13.3439 78.1202 12.4498 78.1137 11.5508C78.1256 10.6029 77.9562 9.6613 77.6141 8.77585C77.3017 7.97859 76.8306 7.2517 76.2288 6.63847C75.6402 6.03706 74.9312 5.56444 74.147 5.251C73.3387 4.92895 72.4749 4.76583 71.6036 4.77112C70.7098 4.76128 69.8227 4.9244 68.992 5.251C68.2154 5.55903 67.5136 6.02685 66.9329 6.62347C66.34 7.2378 65.879 7.96494 65.5779 8.76084C65.2457 9.65355 65.084 10.5995 65.101 11.5508H65.0934Z" fill="#509E2F"/>
<path d="M101.512 22.7104L90.8393 9.31585V22.7104H85.9946V0.383789H90.0823L100.772 13.8457V0.383789H105.601V22.7104H101.512Z" fill="#215732"/>
<path d="M108.204 0.383789H113.351V22.7104H108.204V0.383789Z" fill="#509E2F"/>
<path d="M142.58 0.383789H147.175L156.531 22.7104H151.058L149.188 18.0005H140.248L138.378 22.6879H133.231L142.58 0.383789ZM142.186 13.2382H147.25L144.737 6.92347L142.186 13.2382Z" fill="#509E2F"/>
<path d="M133.549 0.383789L126.948 16.1406L120.346 0.383789H114.835L124.192 22.7104H129.703L139.06 0.383789H133.549Z" fill="#509E2F"/>
<path d="M108.204 25.3277L109.46 25.2678L111.164 25.2003L113.094 25.1553H115.025C116.192 25.1307 117.358 25.2747 118.484 25.5828C119.34 25.8169 120.14 26.2171 120.838 26.7602C121.424 27.2203 121.885 27.8185 122.179 28.5002C122.457 29.1889 122.599 29.9252 122.594 30.6675C122.627 31.6892 122.402 32.7027 121.936 33.615C121.475 34.435 120.817 35.1304 120.021 35.6399V35.7074C120.447 35.8669 120.846 36.0867 121.209 36.3599C121.604 36.6558 121.952 37.0099 122.239 37.4098C122.571 37.8663 122.826 38.3728 122.996 38.9097C123.187 39.5344 123.278 40.1847 123.268 40.8371C123.295 41.8846 123.077 42.9241 122.632 43.8746C122.213 44.7236 121.596 45.4615 120.83 46.027C120.016 46.6208 119.094 47.0537 118.113 47.3019C117.003 47.5865 115.861 47.7252 114.715 47.7144H112.973H111.156L109.499 47.6693C108.983 47.6693 108.568 47.6169 108.241 47.5719L108.204 25.3277ZM114.964 29.9177C114.641 29.9177 114.368 29.9177 114.146 29.9177L113.39 30.0151V34.0649H115.062C115.662 34.0827 116.252 33.9149 116.751 33.585C116.997 33.3821 117.189 33.1218 117.309 32.8273C117.43 32.5328 117.474 32.2133 117.44 31.8976C117.457 31.6037 117.397 31.3105 117.263 31.0473C117.13 30.784 116.931 30.56 116.683 30.3977C116.17 30.0735 115.572 29.9066 114.964 29.9177ZM113.351 38.5648V42.7496C113.525 42.7945 113.73 42.8321 113.98 42.8771C114.348 42.9266 114.721 42.9467 115.093 42.9371C115.9 43.0025 116.705 42.782 117.363 42.3147C117.616 42.101 117.814 41.8332 117.946 41.5315C118.077 41.23 118.137 40.9027 118.121 40.5747C118.136 40.2811 118.076 39.9885 117.943 39.7255C117.809 39.4624 117.61 39.2382 117.363 39.0747C116.758 38.7262 116.064 38.5595 115.365 38.5947L113.351 38.5648Z" fill="#509E2F"/>
</svg>
