<svg width="139" height="60" viewBox="0 0 139 60" fill="none" xmlns="http://www.w3.org/2000/svg">
<g clip-path="url(#clip0_218_338)">
<mask id="mask0_218_338" style="mask-type:luminance" maskUnits="userSpaceOnUse" x="0" y="0" width="139" height="60">
<path d="M138.021 0H0V60H138.021V0Z" fill="white"/>
</mask>
<g mask="url(#mask0_218_338)">
<path d="M103.271 8.07227H106.956L111.439 16.1367L115.818 8.07227H119.528L120.325 25.258H116.435L115.946 14.0229L112.388 20.722H110.378L106.615 14.101L106.175 25.258H102.465L103.271 8.07227ZM99.4056 25.258H75.7757V8.07227H79.6661V21.7296H85.6455V8.07227H89.5358V21.7296H95.5153V8.07227H99.4056V25.258ZM66.2679 22.2683C66.5434 22.2683 66.8518 22.2477 67.1973 22.2025C67.5386 22.1614 67.8594 22.0627 68.1513 21.9064C68.4433 21.7501 68.6859 21.528 68.8875 21.2361C69.0848 20.9441 69.1835 20.5411 69.1835 20.0229C69.1835 19.5582 69.089 19.1799 68.8998 18.8879C68.7106 18.5959 68.468 18.3697 68.1801 18.2052C67.8881 18.0407 67.5715 17.9297 67.226 17.8721C66.8806 17.8104 66.5639 17.7816 66.272 17.7816H63.7428V22.2642H66.2679V22.2683ZM66.0334 14.9523C66.3254 14.9523 66.6133 14.9194 66.897 14.8495C67.1808 14.7796 67.4276 14.6727 67.6455 14.5287C67.8594 14.3848 68.0362 14.1833 68.176 13.9365C68.3117 13.6898 68.3816 13.3814 68.3816 13.0236C68.3816 12.6452 68.3117 12.3327 68.176 12.0818C68.0403 11.831 67.8594 11.6336 67.6332 11.4897C67.4111 11.3457 67.1561 11.2429 66.8724 11.1812C66.5886 11.1195 66.309 11.0908 66.0334 11.0908H63.7428V14.9564H66.0334V14.9523ZM59.9553 8.07227H66.3953C67.4604 8.07227 68.3611 8.19565 69.1013 8.4465C69.8415 8.69736 70.4419 9.02635 70.9066 9.43759C71.3713 9.84883 71.7045 10.3259 71.9101 10.8687C72.1157 11.4115 72.2185 11.9708 72.2185 12.5548C72.2185 13.1058 72.1198 13.5911 71.9224 14.0106C71.725 14.43 71.4947 14.7919 71.2274 15.0921C70.9601 15.3923 70.6805 15.6267 70.3885 15.7995C70.0965 15.9722 69.8456 16.0832 69.64 16.1326C69.9649 16.2189 70.3103 16.3464 70.6722 16.5191C71.3755 16.8276 71.9594 17.3087 72.4241 17.9626C72.8888 18.6165 73.1191 19.406 73.1191 20.3354C73.1191 21.2278 72.9587 21.9845 72.6421 22.6014C72.3254 23.2182 71.8772 23.7282 71.3014 24.123C70.7257 24.5178 70.0225 24.8056 69.1877 24.9866C68.3528 25.1675 67.4234 25.258 66.3912 25.258H59.9512V8.07227H59.9553Z" fill="#C31632"/>
<path d="M133.957 34.3052H138.02L131.407 47.761C130.753 49.0976 130.001 50.1298 129.145 50.8495C128.286 51.5691 127.241 51.931 126.007 51.931C125.234 51.931 124.572 51.8077 124.013 51.5568C123.454 51.3101 122.944 51.0222 122.483 50.6932L124.103 47.9913C124.379 48.1805 124.679 48.345 125.004 48.4807C125.329 48.6164 125.662 48.6863 126.007 48.6863C126.883 48.6863 127.619 48.1024 128.22 46.9386L121.866 34.3052H126.086L130.021 43.0277L133.957 34.3052ZM109.443 34.3052H120.966V37.8296H113.325V51.4622H109.443V34.3052ZM100.617 48.7891C101.44 48.7891 102.081 48.526 102.546 48.0037C103.007 47.4814 103.241 46.807 103.241 45.9845C103.241 45.162 103.011 44.4917 102.546 43.9776C102.081 43.4636 101.44 43.2045 100.617 43.2045C99.795 43.2045 99.1534 43.4718 98.7011 44.0023C98.2446 44.5328 98.0184 45.1949 98.0184 45.9845C98.0184 46.807 98.2446 47.4814 98.7011 48.0037C99.1534 48.526 99.795 48.7891 100.617 48.7891ZM105.811 37.2621L102.312 37.698C100.872 37.8872 99.7497 38.3231 98.9437 39.0098C98.1377 39.6966 97.6647 40.7329 97.529 42.1229C97.9937 41.5225 98.5859 41.0578 99.3056 40.7329C100.025 40.4081 100.807 40.2436 101.646 40.2436C102.452 40.2436 103.179 40.3916 103.833 40.6918C104.487 40.992 105.042 41.3992 105.507 41.9132C105.972 42.4273 106.325 43.0318 106.576 43.7268C106.823 44.4218 106.951 45.162 106.951 45.9516C106.951 46.8275 106.794 47.6294 106.486 48.3573C106.177 49.0852 105.75 49.7144 105.199 50.2367C104.648 50.759 103.994 51.162 103.229 51.4458C102.464 51.7295 101.637 51.8693 100.745 51.8693C99.8525 51.8693 99.0095 51.7172 98.2117 51.417C97.4139 51.1168 96.7148 50.6438 96.1144 50.0023C95.5139 49.3608 95.0369 48.5259 94.6873 47.5061C94.3337 46.4862 94.161 45.2648 94.161 43.8419C94.161 41.0619 94.8313 38.9235 96.1678 37.4225C97.5043 35.9214 99.4248 35.0085 101.929 34.6836L105.351 34.2477L105.811 37.2621ZM76.3296 34.3052H91.3563V51.4663H87.4701V37.8296H80.2158V51.4622H76.3296V34.3052ZM74.298 48.2998C73.9361 48.7974 73.5002 49.2662 72.9862 49.7021C72.4721 50.138 71.9005 50.5205 71.2754 50.8453C70.6503 51.1702 69.9718 51.4293 69.2439 51.6185C68.516 51.8076 67.7552 51.9022 66.9656 51.9022C65.662 51.9022 64.4694 51.6802 63.3919 51.2319C62.3104 50.7878 61.381 50.1627 60.5996 49.3649C59.8183 48.5671 59.2137 47.6253 58.786 46.5355C58.3584 45.4458 58.1445 44.249 58.1445 42.9454C58.1445 41.6747 58.3584 40.4903 58.786 39.3841C59.2137 38.2778 59.8183 37.3155 60.5996 36.5013C61.381 35.687 62.3145 35.0414 63.4043 34.5726C64.4941 34.0996 65.699 33.8652 67.0191 33.8652C68.6147 33.8652 70.0088 34.1572 71.2014 34.7412C72.394 35.3251 73.3851 36.1641 74.1747 37.2621L71.5263 39.8077C71.0122 39.088 70.4036 38.5081 69.7004 38.0722C68.9971 37.6363 68.1582 37.4142 67.1795 37.4142C66.4063 37.4142 65.7113 37.5541 65.0945 37.8378C64.4776 38.1216 63.9553 38.5122 63.5276 39.0098C63.1 39.5074 62.7669 40.0873 62.5366 40.7453C62.3063 41.4074 62.1911 42.1065 62.1911 42.8426C62.1911 43.5993 62.3063 44.2984 62.5366 44.9523C62.7669 45.602 63.1 46.1695 63.5276 46.6507C63.9553 47.1318 64.4694 47.5102 65.0698 47.7816C65.6702 48.0571 66.3446 48.1928 67.1013 48.1928C67.7182 48.1928 68.2569 48.127 68.7093 47.9996C69.1616 47.8721 69.5647 47.6994 69.9183 47.4855C70.2679 47.2717 70.5804 47.0208 70.856 46.7371C71.1315 46.4533 71.3947 46.1654 71.6538 45.8776L74.298 48.2998Z" fill="#C31632"/>
<path d="M24.4524 0C10.9472 0 0 12.7608 0 30C0 37.6696 2.17546 44.451 5.76971 49.6203C6.29198 50.2906 7.70254 52.2934 9.12954 53.5764C13.3242 57.6354 18.6498 60 24.4524 60C30.2426 60 35.56 57.9356 39.7505 54.0987L39.9109 53.9465L40.9513 52.9349L41.5189 52.3016C46.0754 47.1446 48.9088 39.5572 48.9088 30.0041C48.9047 11.2104 37.9575 0 24.4524 0Z" fill="white"/>
<path d="M20.2334 37.9899L19.2012 39.1454C19.3451 39.1043 19.5096 39.0632 19.6905 39.0221C20.1018 38.9234 20.5871 38.8041 20.9489 38.6355C21.282 38.4792 21.5041 38.2818 21.4424 38.0145C21.3972 37.8171 21.245 37.739 21.1258 37.7061C21.0682 37.6938 21.0065 37.6855 20.9489 37.6855C20.8461 37.6855 20.7433 37.7102 20.6364 37.7472C20.4884 37.7925 20.3444 37.8747 20.2334 37.9899Z" fill="#C31632"/>
<path d="M21.8291 8.22377C22.0018 8.19909 22.372 8.10862 22.5776 7.8372C22.6804 7.70149 22.7256 7.537 22.7462 7.38484C22.7626 7.25735 22.7544 7.1422 22.7462 7.05584C22.7462 7.03939 22.7421 7.02706 22.7421 7.01472C22.7338 6.95303 22.7256 6.91602 22.7256 6.91602C22.7256 6.91602 22.1581 6.94892 21.8826 7.31493C21.607 7.68093 21.7345 8.2361 21.7345 8.2361C21.7345 8.2361 21.7715 8.23199 21.8291 8.22377Z" fill="#C31632"/>
<path d="M19.6705 36.2593C19.5924 36.1031 19.4772 36.0044 19.358 35.9961H19.3374C19.3127 35.9961 19.2922 36.0044 19.2716 36.0085C19.1894 36.0208 19.1153 36.0496 19.0495 36.1154C18.6424 36.4896 18.5396 37.6247 18.5273 38.3567L18.6383 38.2374L19.5225 37.271C19.8021 36.9379 19.798 36.5225 19.6705 36.2593Z" fill="#C31632"/>
<path d="M40.0083 19.431C40.0042 19.7271 39.9219 19.9492 39.7739 20.1219C39.7286 20.9156 39.6217 22.4413 38.8239 22.9759C36.8705 24.4523 33.3133 28.1411 32.0425 28.1C32.0014 28.1 31.9521 28.0876 31.9068 28.0794L31.9027 28.1C30.5415 27.7998 29.1433 25.7066 28.1563 23.9053C30.1837 21.7381 27.4572 19.8217 29.0076 18.9088C30.1714 21.2734 31.5943 23.5064 32.4702 25.0321C33.8026 24.3083 35.0775 23.7408 36.4963 22.8197C36.8294 22.6058 36.595 21.0924 37.3352 20.4591C37.5203 20.2987 37.7588 20.0972 37.9932 19.9163L38.059 15.3474V15.2528C37.5737 14.5661 37.327 14.0972 37.327 14.0972C37.656 11.6545 38.351 8.90327 38.351 8.90327C38.351 8.90327 39.1529 11.7655 39.4325 14.0972C39.4325 14.0972 39.0665 14.7264 38.7046 15.2528L38.7704 19.1761C38.7704 19.1761 40.0124 18.8594 40.0124 19.4064C40.0124 19.4105 40.0083 19.4228 40.0083 19.431ZM37.804 49.4927L38.0137 24.8142L38.8609 24.0493V24.0863L39.1076 50.1507V50.2535C38.6471 50.2576 38.0713 50.0479 37.804 49.4927ZM26.4538 24.0575C26.3551 28.2028 26.4949 29.9999 26.4949 29.9999C25.9397 29.9094 25.5984 29.8642 25.5984 29.8642L25.5161 27.734C23.2338 27.7916 20.3304 27.8779 19.915 25.4146C19.9562 25.4269 19.9973 25.4351 20.0343 25.4475C20.2687 25.5133 20.4908 25.5544 20.7046 25.5709C21.6628 25.6408 22.3496 25.2419 22.5758 24.6785C22.5799 24.6661 22.5881 24.6579 22.5922 24.6456C22.1769 24.7401 21.8068 24.7689 21.4819 24.7401C18.2413 24.4482 18.9692 17.7573 15.6381 17.6956C17.2091 15.734 19.6724 16.3755 20.1124 16.6181C21.9507 17.6339 22.6621 19.8176 24.0521 20.2617C24.0891 20.2741 24.1303 20.2864 24.1714 20.2946C24.7595 19.4351 25.4668 17.2432 25.4832 15.6476C27.1858 15.4913 28.329 16.4907 28.5593 17.564C27.9096 17.9588 27.5148 18.5798 27.3914 19.3323C27.1734 20.5948 29.2872 22.3262 26.4538 24.0575ZM21.4079 31.7641C21.3667 32.2042 21.1118 33.3556 20.8403 34.0547C20.8074 34.1329 20.7499 34.1699 20.6758 34.1822C20.5278 34.2069 20.3263 34.1164 20.1988 33.9889C20.0384 33.8327 20.1207 33.8286 20.1371 33.5654C20.1289 33.5571 20.1207 33.553 20.1124 33.5448C20.1042 33.5407 20.1001 33.5366 20.096 33.5325C19.9562 33.5489 19.8575 33.5654 19.7012 33.5654C19.6272 33.5654 19.5449 33.5654 19.4339 33.5571C18.9898 33.5242 18.8911 33.368 18.7554 33.0225C18.488 32.3645 18.1673 31.575 18.0768 30.2096C16.7978 29.8889 14.4085 29.1857 13.1872 28.614C12.7266 28.4002 12.3194 28.1164 12.0192 27.7628C11.9863 27.7258 11.9534 27.6887 11.9246 27.6517C11.9123 27.6312 11.8917 27.6147 11.8794 27.5983H11.8835C11.5586 27.15 11.4147 26.5455 11.5792 25.7436C12.0809 23.2761 14.1001 20.0356 15.1817 18.5715C16.5552 18.2837 18.0686 20.7182 17.1967 22.026C16.6046 22.9101 15.0994 25.5462 14.5155 26.5249L14.4867 26.5414L19.327 29.1363C19.9891 29.4694 21.4531 31.3282 21.4079 31.7641ZM22.3619 37.2994C22.6251 37.5996 22.7197 37.941 22.6375 38.2864C22.5182 38.8046 22.0042 39.3063 21.1899 39.7093L21.4778 40.7127L21.5107 40.8279L18.9157 39.5407L18.8705 39.5201L16.329 42.3659L19.693 46.0095C19.8122 45.9684 19.9356 45.9437 20.0631 45.9437C20.388 45.9437 20.6923 46.0753 20.9226 46.3179C21.3791 46.7991 21.3832 47.5846 20.9349 48.0739C20.9308 48.078 20.9267 48.0863 20.9226 48.0904C20.6923 48.333 20.388 48.4646 20.0631 48.4646C19.7382 48.4646 19.4298 48.333 19.2036 48.0904C18.8746 47.7449 18.7841 47.2432 18.924 46.8073L15.5024 43.2501L15.4695 43.2131L12.4099 46.7045C12.4716 47.0911 12.3647 47.5023 12.085 47.7984C12.0357 47.8478 11.9822 47.893 11.9288 47.9341C11.7231 48.0904 11.4805 48.1726 11.2255 48.1726C10.9007 48.1726 10.5963 48.041 10.366 47.7984C9.90548 47.309 9.90548 46.5153 10.366 46.026C10.4853 45.8985 10.6251 45.8039 10.7814 45.7422C10.9212 45.6846 11.0734 45.6517 11.2255 45.6517C11.316 45.6517 11.4065 45.6641 11.4928 45.6846L11.5792 45.5942L14.6553 42.3824L10.6251 37.9903C10.5059 37.8587 10.3743 37.8176 10.2509 37.8258C10.1645 37.834 10.0823 37.8628 10.0165 37.9122C9.85613 38.0314 9.778 38.2535 9.96306 38.4715C10.4606 39.0719 10.9336 39.6147 11.497 40.2357L11.6532 40.4084L11.7314 40.4948L8.57718 40.0342L9.34208 39.3556C8.6841 38.6113 8.98019 37.6367 9.09945 37.2624L9.11179 37.2213C9.15291 37.0897 9.19815 36.9622 9.2475 36.8306C9.33386 36.6044 9.42022 36.3741 9.46545 36.1315L9.4819 36.0534L9.56415 36.0328C9.76155 35.9835 9.98362 35.8971 10.1974 35.8149C10.3331 35.7614 10.4689 35.7079 10.5963 35.6668C10.7156 35.6257 10.839 35.601 10.9623 35.5804C11.2009 35.5393 11.4476 35.5311 11.6861 35.564C12.1549 35.6216 12.5909 35.856 12.9774 36.259L13.0597 36.1891L13.656 35.7573L13.6642 35.819L13.9192 38.4262L13.9356 38.6072L13.6724 38.3604C13.6601 38.3481 12.4222 37.1966 11.9411 36.7278C11.8547 36.6456 11.7643 36.6168 11.6738 36.6168C11.5751 36.6209 11.4846 36.662 11.4106 36.7237C11.2543 36.8512 11.168 37.0691 11.3037 37.2254L15.5847 41.5517L15.671 41.4571L18.192 38.71L16.7937 36.222L16.9212 36.2138L17.8054 36.1603C17.8095 36.1521 17.8136 36.1438 17.8177 36.1356C18.2002 35.3954 18.6032 34.9718 19.0473 34.8402C19.072 34.832 19.1008 34.832 19.1296 34.8238C19.401 34.7662 19.6889 34.8155 19.985 34.9759C20.4949 35.2515 20.7787 36.078 20.7334 36.7114C21.2228 36.6743 21.8602 36.7237 22.3619 37.2994ZM16.255 49.4598C16.2427 49.4722 16.2262 49.4845 16.2098 49.4968C16.037 49.6572 15.8191 49.7477 15.5888 49.7477C15.3338 49.7477 15.0994 49.6449 14.9226 49.4598C14.5648 49.0856 14.5648 48.477 14.9226 48.1027C14.9719 48.0493 15.0295 48.0081 15.0871 47.967C15.0007 47.8272 14.9432 47.6298 14.9432 47.3296C14.9432 46.6757 15.1118 45.2158 15.1693 44.7347L15.1858 44.5907C15.2022 44.455 15.2927 44.3522 15.4202 44.3111C15.4572 44.2987 15.4942 44.2905 15.5353 44.2864C15.7245 44.2823 15.889 44.3974 15.9219 44.5743C15.963 44.784 16.2427 46.5852 16.2427 47.3049C16.2427 47.5969 16.1728 47.8025 16.0782 47.9506C16.144 47.9917 16.2098 48.041 16.2632 48.0986C16.6128 48.477 16.6128 49.0856 16.255 49.4598ZM13.6107 33.1171L13.656 32.9156L13.767 32.9979L13.8369 33.0472C14.1001 33.2364 14.3304 33.4338 14.5525 33.6229C14.5525 33.5859 14.5525 33.5448 14.5566 33.5037C14.5689 33.3844 14.6018 33.2528 14.6964 33.1582C14.7704 33.0801 14.8774 33.039 14.9966 33.039C15.0048 33.039 15.0172 33.039 15.0254 33.0431C15.0789 33.0472 15.1323 33.0554 15.1817 33.076C15.1776 33.0637 15.1776 33.0472 15.1734 33.0349C15.1652 33.0061 15.1529 32.9773 15.1529 32.9444C15.1529 32.7223 15.3421 32.5414 15.5806 32.5414C15.5929 32.5414 15.6011 32.5455 15.6094 32.5455C15.8314 32.5619 16.0042 32.7306 16.0042 32.9444C16.0042 32.9896 15.9918 33.0349 15.9754 33.076C16.0124 33.0595 16.0576 33.0513 16.0987 33.0472C16.1193 33.0431 16.1357 33.0431 16.1563 33.0431C16.1645 33.0431 16.1728 33.0472 16.181 33.0472C16.292 33.0513 16.3866 33.0883 16.4565 33.1624C16.584 33.294 16.6004 33.4955 16.6004 33.6312C16.6375 33.5983 16.6786 33.5695 16.7156 33.5366C16.9048 33.3762 17.1022 33.2117 17.3201 33.0554L17.497 32.9279L17.5093 32.9855L17.5422 33.1295C17.7478 34.026 17.6861 34.5976 17.3448 34.8813C17.279 34.9389 17.0981 35.2103 16.7115 35.3173C16.584 35.3502 16.4277 35.3625 16.2468 35.346C16.1974 35.3419 16.1481 35.3419 16.0946 35.3296C16.0946 35.3296 16.329 35.6216 16.329 35.819C16.329 35.9629 16.255 36.1233 15.9713 36.2014C16.0658 37.102 16.181 38.3234 16.181 38.9238C16.181 39.5983 16.0042 39.9807 15.7903 40.1164C15.7286 40.1534 15.6669 40.1781 15.6011 40.1781C15.194 40.1781 14.9884 39.7669 14.9884 38.9567C14.9884 38.3316 15.083 37.0979 15.1611 36.1932C14.8897 36.1109 14.8198 35.9547 14.8198 35.819C14.8198 35.7532 14.9144 35.4406 15.0213 35.3173C14.865 35.3584 14.244 35.2761 13.804 34.8855C13.4791 34.5811 13.4051 34.0136 13.6107 33.1171ZM17.7149 13.0691C20.3304 13.3693 21.523 12.2796 22.2509 10.9142C22.4442 11.1569 23.2749 13.2665 21.9137 14.4221C20.0837 15.9725 15.5641 14.6894 14.3798 18.1109C14.4003 18.0616 14.3633 18.1603 14.3798 18.1109C12.0809 15.2076 14.0261 12.6456 17.7149 13.0691ZM16.3907 7.08559C16.6704 5.41595 18.085 4.12877 19.0802 3.69697L19.1543 3.82445L19.8246 4.98004C17.4024 6.20965 16.5059 9.08011 18.1344 11.3543C18.1344 11.3543 18.1385 11.3625 18.1426 11.3666C16.9089 10.6634 16.0905 8.86626 16.3907 7.08559ZM22.2386 5.95057C23.4928 6.46051 24.6238 8.00677 26.2317 8.2165C26.2111 8.23706 26.1906 8.25351 26.1741 8.26996C25.072 9.35564 23.4188 10.2439 21.9466 10.3097C21.4819 10.9883 21.0007 11.6586 20.2687 12.1274L20.2646 12.1315L19.6848 11.7943C18.0891 10.8649 17.5915 8.77579 18.6361 7.2213C19.5902 5.79841 20.828 5.37894 22.2386 5.95057ZM26.3921 10.4002C26.6059 10.7168 26.8527 11.0541 26.9966 11.3214C27.1282 11.5681 26.4209 11.5804 26.4661 11.7984C26.5031 11.9711 26.6224 12.1397 26.6224 12.2796C26.6224 12.4975 26.4743 12.6168 26.536 12.8759C26.8033 14.0314 25.6889 13.6901 24.743 13.7847C24.743 13.7847 24.9116 15.7422 23.9822 18.6579C23.2708 18.6743 22.5593 17.0047 21.523 16.2809C23.1145 14.9403 23.9123 12.9046 23.0693 10.8155C23.7231 10.614 24.1303 10.4537 24.8088 10.1617C24.78 10.1987 24.7512 10.2521 24.7183 10.3097C24.6484 10.4454 24.5826 10.6305 24.5785 10.8279C24.6114 10.8361 24.6443 10.8443 24.6772 10.8484C24.9527 10.9142 25.2159 10.9225 25.4956 10.7826C25.7218 10.6716 25.878 10.5194 25.9973 10.3714C26.096 10.248 26.2811 10.2604 26.3798 10.3796C26.3839 10.392 26.388 10.392 26.3921 10.4002ZM24.451 1.36523C11.6697 1.36523 1.31055 13.5462 1.31055 29.9958C1.31055 37.3159 3.36676 43.7888 6.77183 48.7196C6.76772 48.662 6.7636 48.6003 6.7636 48.5386C6.7636 48.5345 6.7636 48.5304 6.7636 48.5304V28.8279H11.3448C11.3448 28.8279 12.7471 29.712 13.9356 29.967H7.89863V48.5304C7.89863 50.2083 9.25983 51.5695 10.9377 51.5695H13.7177C14.4003 51.66 15.0789 51.9848 15.6258 52.5277C15.6998 52.6017 15.7697 52.6716 15.8355 52.7497C15.8479 52.7333 15.8561 52.721 15.8684 52.7086L15.8726 52.7045C15.9137 52.6469 15.9589 52.5894 16.0042 52.5359C16.4935 51.9478 17.1227 51.6517 17.6985 51.5695H20.2893C21.9671 51.5695 23.3283 50.2083 23.3283 48.5304V29.967H21.5723C21.1611 29.4859 20.6758 29.1075 20.3592 28.8279H24.4634V48.5304C24.4634 50.8375 22.5963 52.7086 20.2852 52.7086H17.8671C17.9246 52.7168 17.974 52.721 18.0316 52.7292C17.3119 52.7292 16.4236 53.3172 15.8314 54.1809C15.1652 53.3872 14.2235 52.7292 13.3311 52.7292L10.9294 52.7086C10.7197 52.7086 10.5141 52.6757 10.3167 52.6223L10.3208 52.6264C10.3044 52.6223 10.292 52.614 10.2756 52.6099C10.1604 52.577 10.0494 52.54 9.94249 52.4989C13.9109 56.3728 18.9527 58.6305 24.4469 58.6305C29.9246 58.6305 34.9582 56.6606 38.9226 53.0006L39.0706 52.8567C37.804 52.906 35.7766 53.0006 34.9212 53.0006C33.6464 53.0006 34.3866 51.1747 34.3866 49.7312C33.1693 46.4619 32.3921 44.6894 30.998 41.0664C29.7972 42.0904 31.9932 44.8046 30.7841 46.2439C29.6697 47.5681 27.6258 50.5085 27.6258 50.5085C28.5963 51.0472 30.9651 51.8368 32.0137 52.0424C32.0343 52.5894 31.9027 52.9019 31.1008 52.9348C28.7403 53.0335 27.6669 53.0335 25.3928 53.0335C24.6443 53.0335 24.011 52.0712 24.5621 51.3926C25.0391 50.8046 25.4709 50.1301 25.8616 49.4064L30.4469 36.9129C29.6779 36.7278 28.9829 38.5085 28.5141 39.5489C27.7697 41.2021 26.3386 43.1308 25.5943 43.8217V30.662C27.1118 31.2542 27.6381 31.4187 29.0117 32.0685L27.6011 30.2302C29.6738 30.5592 31.0926 30.8224 32.6635 31.1678C33.4531 31.3899 36.2372 32.344 36.7348 33.8409C37.2488 35.3789 36.9692 36.5551 35.863 38.2453C35.4065 35.7532 34.6292 33.3433 32.0837 32.5948C33.7451 33.9643 34.4524 35.7532 34.8678 38.4961C35.4147 42.0986 36.1262 46.6881 36.4675 49.2912C36.6155 50.4221 38.0919 51.1829 38.7334 51.4543L40.0535 51.882L40.5881 51.2775C44.902 46.355 47.5833 39.113 47.5833 29.9958C47.5915 12.0657 37.2324 1.36523 24.451 1.36523Z" fill="#C31632"/>
</g>
</g>
<defs>
<clipPath id="clip0_218_338">
<rect width="139" height="60" fill="white"/>
</clipPath>
</defs>
</svg>
