<?xml version="1.0" encoding="UTF-8"?>
<svg id="Layer_2" data-name="Layer 2" xmlns="http://www.w3.org/2000/svg" viewBox="0 0 218.41 78.01">
  <defs>
    <style>
      .cls-1 {
        fill: #fff;
        fill-rule: evenodd;
      }
    </style>
  </defs>
  <g id="Layer_1-2" data-name="Layer 1">
    <g>
      <path class="cls-1" d="m14.87,0l-3.72,10.2h51.54l3.72-10.2H14.87Zm-5.58,15.3l-3.72,10.2h51.54l3.72-10.2H9.29Zm-5.57,15.3l-3.72,10.2h51.54l3.72-10.2H3.72Z"/>
      <path class="cls-1" d="m109.57,44.7v.22c2.36.87,4.61,2.38,5.78,3.35,3.64,3.03,5.25,7.03,5.25,12.22,0,8.55-4.5,14.71-11.89,16.66-2.25.65-4.6.87-9,.87h-22.39V15.5h19.82c4.07,0,6.86.22,9.32.86,7.18,1.95,11.89,6.92,11.89,14.82,0,4.22-1.5,7.79-3.96,10.17-1.07,1.08-2.57,2.38-4.82,3.35Zm-19.82,6.6v16.44h8.57c2.57,0,4.93-.22,6.64-1.84,1.71-1.62,2.46-3.68,2.46-6.38,0-2.05-.54-4-1.61-5.41-1.82-2.27-4.07-2.81-7.93-2.81h-8.14Zm-.11-10.81h6.96c2.14,0,3.21,0,4.28-.32,2.9-.87,4.72-3.46,4.72-7.03,0-4.22-1.93-6.06-4.72-6.92-1.18-.32-2.36-.43-4.71-.43h-6.53v14.71Zm49.6,37.53V25.99h-17.89v-10.49h49.71l-3.53,10.49h-15.86v52.02h-12.43Zm35.67,0V15.5h40.28l-3.53,10.49h-24.43v13.84h9.96c8.03,0,12.21,1.95,15.1,4.43,2.25,1.95,6.11,6.27,6.11,14.82s-3.96,13.08-7.29,15.46c-3.85,2.7-7.93,3.46-16.18,3.46h-20.03Zm12.32-10.49h9.32c3.53,0,5.68-.87,7.18-2.81.75-.97,1.82-2.7,1.82-5.95s-1.07-5.52-3.21-7.14c-1.28-.97-3-1.51-5.89-1.51h-9.21v17.41Z"/>
    </g>
  </g>
</svg>