<svg width="1021" height="113" viewBox="0 0 1021 113" fill="none" xmlns="http://www.w3.org/2000/svg">
<rect width="479" height="4" transform="matrix(-1 0 0 1 1020.5 87)" fill="#F6AC1B"/>
<rect x="0.5" y="87" width="479" height="4" fill="#F6AC1B"/>
<rect width="397" height="4" transform="matrix(-1 0 0 1 938.5 79)" fill="#F6AC1B"/>
<rect x="82.5" y="79" width="397" height="4" fill="#F6AC1B"/>
<rect width="320" height="4" transform="matrix(-1 0 0 1 861.5 71)" fill="#F6AC1B"/>
<rect x="159.5" y="71" width="320" height="4" fill="#F6AC1B"/>
<circle cx="511" cy="56.5" r="56.5" fill="#C31632"/>
<path d="M557.478 55.1478C557.456 54.2972 557.413 53.4683 557.347 52.6395C557.282 51.7889 557.173 50.9601 557.064 50.1313C556.867 48.7355 556.605 47.3614 556.3 46.0092C552.307 28.7789 538.756 15.2127 521.518 11.2432C520.165 10.9379 518.79 10.6543 517.393 10.4798C516.564 10.3708 515.735 10.2617 514.884 10.1963C514.055 10.1309 513.226 10.0872 512.375 10.0654C512.309 10.0654 512.266 10.0654 512.2 10.0654C511.807 10.0654 511.415 10 511.022 10C510.629 10 510.236 10.0436 509.844 10.0654C509.778 10.0654 509.734 10.0654 509.669 10.0654C508.818 10.0872 507.989 10.1309 507.16 10.1963C506.309 10.2617 505.479 10.3708 504.65 10.4798C503.254 10.6761 501.879 10.9379 500.526 11.2432C483.288 15.2345 469.715 28.7789 465.744 46.0092C465.438 47.3614 465.155 48.7355 464.98 50.1313C464.871 50.9601 464.762 51.7889 464.696 52.6395C464.631 53.4683 464.587 54.2972 464.565 55.1478C464.565 55.2132 464.565 55.2568 464.565 55.3222C464.565 55.7148 464.5 56.1074 464.5 56.5C464.5 56.8926 464.544 57.2852 464.565 57.6778C464.565 57.7432 464.565 57.7868 464.565 57.8523C464.958 57.8305 465.351 57.8087 465.744 57.7868C465.918 57.7868 466.071 57.765 466.224 57.765C466.508 57.765 466.769 57.8087 467.053 57.8087C467.904 57.8305 468.733 57.8741 469.584 57.9395C470.435 58.005 471.286 58.0922 472.115 58.223C491.405 60.8403 506.679 76.1077 509.298 95.3882C508.447 95.3445 507.574 95.3227 506.723 95.2355C504.083 77.4817 490.03 63.4358 472.268 60.7967C471.417 60.6658 470.566 60.5567 469.715 60.4695C468.886 60.4041 468.035 60.3605 467.184 60.3386C466.857 60.3386 466.551 60.295 466.224 60.295C466.049 60.295 465.897 60.3169 465.744 60.3169C465.395 60.3387 465.045 60.3605 464.675 60.3605C464.74 61.2111 464.849 62.0399 464.958 62.8687C465.155 64.2645 465.416 65.6386 465.722 66.9909C469.715 84.2212 483.266 97.7873 500.504 101.757C501.857 102.062 503.232 102.346 504.628 102.52C505.458 102.629 506.287 102.738 507.138 102.804C507.967 102.869 508.796 102.913 509.647 102.935C509.713 102.935 509.756 102.935 509.822 102.935C510.214 102.935 510.607 103 511 103C511.393 103 511.786 102.956 512.178 102.935C512.244 102.935 512.287 102.935 512.353 102.935C513.204 102.913 514.033 102.869 514.862 102.804C515.713 102.738 516.542 102.629 517.372 102.52C518.768 102.324 520.143 102.062 521.496 101.757C538.734 97.7655 552.307 84.2212 556.278 66.9909C556.584 65.6386 556.867 64.2645 557.042 62.8687C557.151 62.0399 557.26 61.2111 557.325 60.3605C556.976 60.3387 556.627 60.3169 556.256 60.3169C556.082 60.3169 555.929 60.295 555.776 60.295C555.449 60.295 555.143 60.3386 554.816 60.3386C553.965 60.3605 553.136 60.4041 552.285 60.4695C551.412 60.5349 550.583 60.6658 549.732 60.7967C531.97 63.4358 517.917 77.4817 515.277 95.2355C514.426 95.3227 513.575 95.3663 512.702 95.3882C515.321 76.1077 530.595 60.8403 549.885 58.223C550.714 58.114 551.565 58.005 552.416 57.9395C553.245 57.8741 554.096 57.8305 554.947 57.8087C555.231 57.8087 555.492 57.765 555.776 57.765C555.951 57.765 556.103 57.7868 556.256 57.7868C556.649 57.8087 557.042 57.8305 557.435 57.8523C557.435 57.7868 557.435 57.7432 557.435 57.6778C557.435 57.2852 557.5 56.8926 557.5 56.5C557.5 56.1074 557.456 55.7148 557.435 55.3222C557.478 55.2568 557.478 55.2132 557.478 55.1478ZM506.745 17.7864C507.596 17.6991 508.447 17.6555 509.32 17.6337C506.701 36.9142 491.427 52.1816 472.137 54.7988C472.181 53.9482 472.203 53.0757 472.29 52.2251C490.052 49.5861 504.105 35.5401 506.745 17.7864ZM472.683 49.6297C475.541 33.6426 488.154 21.0361 504.148 18.1789C501.421 34.2315 488.743 46.9034 472.683 49.6297ZM504.148 94.7993C488.154 91.9421 475.541 79.3356 472.683 63.3485C488.743 66.0748 501.421 78.7467 504.148 94.7993ZM549.361 63.3703C546.502 79.3574 533.89 91.9639 517.895 94.8211C520.601 78.7467 533.301 66.0748 549.361 63.3703ZM514.971 97.7655C515.822 97.6782 516.673 97.5474 517.503 97.4165C535.199 94.6248 549.164 80.6661 551.958 62.9778C552.809 62.8905 553.66 62.8687 554.511 62.8469C551.718 82.0183 536.552 97.1766 517.372 99.9684C516.542 100.099 515.691 100.208 514.84 100.296C514.011 100.361 513.16 100.405 512.309 100.426C512.287 100.426 512.244 100.426 512.222 100.426C511.807 100.448 511.415 100.492 511 100.492C510.585 100.492 510.193 100.448 509.778 100.426C509.756 100.426 509.713 100.426 509.691 100.426C508.84 100.405 508.011 100.361 507.16 100.296C506.309 100.23 505.458 100.099 504.628 99.9684C485.448 97.1766 470.282 82.0183 467.489 62.8469C468.34 62.8687 469.213 62.8905 470.042 62.9778C472.836 80.6443 486.801 94.6248 504.497 97.4165C505.348 97.5474 506.178 97.7001 507.029 97.7655C507.858 97.8527 508.709 97.8745 509.56 97.8963C509.669 97.8963 509.778 97.9182 509.909 97.9182C510.28 97.9182 510.629 97.9836 511 97.9836C511.371 97.9836 511.72 97.94 512.091 97.9182C512.2 97.9182 512.309 97.8963 512.44 97.8963C513.291 97.8745 514.142 97.8527 514.971 97.7655ZM511.022 90.7425C507.05 73.7957 493.696 60.4695 476.763 56.5C493.718 52.5305 507.05 39.1825 511.022 22.2575C514.993 39.2043 528.347 52.5305 545.28 56.5C528.347 60.4695 514.993 73.7957 511.022 90.7425ZM512.724 17.6118C513.575 17.6555 514.448 17.6773 515.299 17.7645C517.939 35.5183 531.992 49.5643 549.754 52.2034C549.841 53.054 549.885 53.9046 549.906 54.777C530.617 52.1597 515.342 36.8923 512.724 17.6118ZM517.895 18.1789C533.89 21.0361 546.502 33.6426 549.361 49.6297C533.301 46.9034 520.601 34.2315 517.895 18.1789ZM552.459 55.4095C552.459 55.3005 552.438 55.1914 552.438 55.0605C552.416 54.2099 552.394 53.3811 552.307 52.5305C552.219 51.6799 552.088 50.8293 551.958 50.0005C549.164 32.334 535.199 18.3534 517.503 15.5617C516.652 15.4308 515.822 15.2781 514.971 15.2127C514.142 15.1254 513.291 15.1036 512.44 15.0818C512.331 15.0818 512.222 15.0601 512.091 15.0601C511.72 15.0601 511.371 14.9946 511 14.9946C510.629 14.9946 510.28 15.0382 509.909 15.0601C509.8 15.0601 509.691 15.0818 509.56 15.0818C508.709 15.1036 507.88 15.1254 507.029 15.2127C506.178 15.2999 505.327 15.4308 504.497 15.5617C486.801 18.3534 472.836 32.3121 470.042 50.0005C469.912 50.8511 469.759 51.6799 469.693 52.5305C469.606 53.3593 469.584 54.2099 469.562 55.0605C469.562 55.1696 469.541 55.2786 469.541 55.4095C468.711 55.3441 467.882 55.3005 467.031 55.2787C467.031 55.2568 467.031 55.2132 467.031 55.1914C467.053 54.3408 467.097 53.512 467.162 52.6614C467.228 51.8108 467.359 50.9601 467.489 50.1313C470.282 30.9599 485.448 15.8016 504.628 13.0099C505.458 12.879 506.309 12.77 507.16 12.6827C507.989 12.6173 508.84 12.5737 509.691 12.5519C509.713 12.5519 509.756 12.5519 509.778 12.5519C510.193 12.53 510.585 12.4864 511 12.4864C511.415 12.4864 511.807 12.53 512.222 12.5519C512.244 12.5519 512.287 12.5519 512.309 12.5519C513.16 12.5737 513.989 12.6173 514.84 12.6827C515.691 12.7481 516.542 12.879 517.372 13.0099C536.552 15.8016 551.718 30.9599 554.511 50.1313C554.641 50.9601 554.751 51.8108 554.838 52.6614C554.903 53.4902 554.947 54.3408 554.969 55.1914C554.969 55.2132 554.969 55.2568 554.969 55.2787C554.118 55.3005 553.289 55.3441 552.459 55.4095Z" fill="#F6AC1B"/>
</svg>
