<svg width="356" height="358" viewBox="0 0 356 358" fill="none" xmlns="http://www.w3.org/2000/svg">
<path d="M356 251V254.965H249V341.162H356V345.127H249V354.035H356V358V332.254H249V328.289H356V319.356H249V315.391H356V306.482H249V302.518H356V293.609H249V289.644H356V280.736H249V276.771H356V267.838H249V263.873H356V251Z" fill="#C31632"/>
<path d="M356 251H249V254.965H356V251Z" fill="black"/>
<path d="M356 341.161H249V345.126H356V341.161Z" fill="black"/>
<path d="M356 354.034H249V357.999H356V354.034Z" fill="black"/>
<path d="M356 328.29H249V332.255H356V328.29Z" fill="black"/>
<path d="M356 315.392H249V319.356H356V315.392Z" fill="black"/>
<path d="M356 302.517H249V306.481H356V302.517Z" fill="black"/>
<path d="M356 289.646H249V293.61H356V289.646Z" fill="black"/>
<path d="M356 276.77H249V280.734H356V276.77Z" fill="black"/>
<path d="M356 263.873H249V267.838H356V263.873Z" fill="black"/>
<path d="M124.038 194.979L124.038 206.861C137.153 206.861 147.81 217.49 147.81 230.627L159.696 230.627C159.671 210.947 143.723 194.979 124.038 194.979Z" fill="#F3A41E"/>
<path d="M124.037 206.868L124.037 218.751C130.607 218.751 135.923 224.066 135.923 230.634L147.809 230.634C147.784 217.497 137.152 206.868 124.037 206.868Z" fill="#6BC8C5"/>
<path d="M124.037 218.749L124.037 230.632L135.922 230.632C135.922 224.064 130.606 218.749 124.037 218.749Z" fill="#C22034"/>
<path d="M80.1758 191.32C77.4411 193.226 74.1293 194.354 70.5415 194.354C67.0039 194.354 63.7423 193.276 61.0327 191.42C58.6743 213.542 39.9577 230.798 17.2018 230.798C17.2018 208.049 34.4381 189.338 56.5919 186.98C54.7353 184.272 53.6565 181.011 53.6565 177.474C53.6565 173.888 54.7855 170.577 56.6923 167.843C34.5134 165.535 17.2018 146.799 17.2018 124H17.0513L17.0513 230.949H124.032V230.798C101.226 230.798 82.484 213.492 80.1758 191.32Z" fill="#6BC8C5"/>
<path d="M61.0557 163.503C63.7653 161.672 67.0269 160.594 70.5394 160.594C74.1272 160.594 77.439 161.722 80.1486 163.629C82.3815 141.381 101.173 124.024 124.005 124.024H17.1997C40.0058 123.999 58.7726 141.306 61.0557 163.503Z" fill="#6BC8C5"/>
<path d="M84.395 167.868C86.3018 170.602 87.4308 173.913 87.4308 177.474C87.4308 180.986 86.352 184.246 84.5205 186.955C106.724 189.238 124.036 207.999 124.036 230.798V124C124.036 146.85 106.649 165.611 84.395 167.868Z" fill="#6BC8C5"/>
<path d="M84.5141 186.955C86.3456 184.246 87.4245 180.986 87.4245 177.474C87.4245 173.888 86.2955 170.577 84.3887 167.868C106.643 165.636 124.005 146.85 124.005 124.025C101.148 124.025 82.3815 141.382 80.1486 163.629C77.4139 161.723 74.1021 160.594 70.5394 160.594C67.0269 160.594 63.7653 161.673 61.0557 163.504C58.7726 141.306 40.0058 124 17.1997 124C17.1997 146.799 34.5113 165.535 56.6902 167.843C54.7834 170.577 53.6544 173.888 53.6544 177.474C53.6544 181.011 54.7332 184.272 56.5898 186.98C34.4611 189.338 17.1997 208.049 17.1997 230.798C39.9556 230.798 58.6722 213.567 61.0306 191.42C63.7402 193.276 67.0018 194.354 70.5394 194.354C74.1272 194.354 77.439 193.226 80.1737 191.32C82.4819 213.492 101.224 230.798 124.03 230.798C124.03 207.999 106.718 189.238 84.5141 186.955Z" fill="black"/>
<path d="M106.731 60.4585C103.781 55.5346 100.481 50.8357 96.8807 46.3867L21.375 109.723L106.731 60.4585Z" fill="black"/>
<path d="M115.959 79.3578C113.884 74.009 111.459 68.8352 108.684 63.8613L23.6523 112.95L115.959 79.3578Z" fill="black"/>
<path d="M94.3549 43.3396C90.6046 38.9656 86.5543 34.8665 82.229 31.0674L18.5742 106.9L94.3549 43.3396Z" fill="black"/>
<path d="M124.28 120.373C124.105 114.599 123.53 108.95 122.605 103.401L26.3477 120.373L124.28 120.373Z" fill="black"/>
<path d="M121.913 99.5254C120.763 93.8767 119.237 88.4029 117.362 83.0791L25.3555 116.572L121.913 99.5254Z" fill="black"/>
<path d="M79.229 28.4942C74.7786 24.8201 70.0533 21.4458 65.1279 18.3965L15.3242 104.652L79.229 28.4942Z" fill="black"/>
<path d="M21.549 1.87382C15.8235 0.874043 9.9481 0.274174 3.97266 0.0742188L3.97266 101.577L21.549 1.87382Z" fill="black"/>
<path d="M61.7303 16.3956C56.7049 13.5213 51.4545 10.9718 46.0041 8.82227L11.7266 102.976L61.7303 16.3956Z" fill="black"/>
<path d="M42.326 7.37416C36.8506 5.3996 31.2252 3.79992 25.4247 2.5752L7.89844 101.928L42.326 7.37416Z" fill="black"/>
<path d="M124.284 120.373L26.3519 120.373L122.609 103.402C122.384 102.102 122.184 100.802 121.909 99.5278L25.3269 116.549L117.334 83.0565C116.884 81.8067 116.434 80.582 115.959 79.3573L23.6518 112.95L108.683 63.8608C108.033 62.711 107.383 61.5613 106.708 60.4366L21.3516 109.701L96.8572 46.3647C96.0322 45.3399 95.1821 44.3402 94.332 43.3404L18.5514 106.901L82.2061 31.0681C81.231 30.1933 80.231 29.3185 79.2309 28.4937L15.3011 104.652L65.1048 18.3959C63.9798 17.6961 62.8547 17.0463 61.7046 16.3964L11.7009 102.977L45.9784 8.82302C44.7533 8.34813 43.5282 7.8483 42.3032 7.3984L7.87557 101.952L25.4019 2.59944C24.1268 2.3245 22.8267 2.12455 21.5266 1.8996L3.95028 101.602L3.95028 0.099999C2.62518 0.0500102 1.3251 0 0 0L0 106.576C9.80073 106.576 17.7763 114.524 17.7763 124.347L124.384 124.347C124.384 122.998 124.334 121.698 124.284 120.373Z" fill="white"/>
<path d="M142.003 251L142.003 269.34L160.337 251L142.003 251Z" fill="#C22034"/>
<path d="M248.803 251L230.468 251L248.803 269.34L248.803 251Z" fill="#C22034"/>
<path d="M248.803 339.816L230.794 357.831L248.803 357.831L248.803 339.816Z" fill="#C22034"/>
<path d="M142.001 357.831L160.01 357.831L142.001 339.816L142.001 357.831Z" fill="#C22034"/>
<path d="M248.803 269.34L230.468 251L213.211 251L248.803 286.628L248.803 269.34Z" fill="#6BC8C5"/>
<path d="M160.334 251L142 269.34L142 286.628L177.591 251L160.334 251Z" fill="#6BC8C5"/>
<path d="M248.803 322.23L213.211 357.833L230.794 357.833L248.803 339.819L248.803 322.23Z" fill="#6BC8C5"/>
<path d="M142 339.819L160.008 357.833L177.591 357.833L142 322.23L142 339.819Z" fill="#6BC8C5"/>
<path d="M248.803 286.628L213.211 251L195.403 251L248.803 304.417L248.803 286.628Z" fill="#C22034"/>
<path d="M177.594 251L142.002 286.628L142.002 304.417L195.402 251L177.594 251Z" fill="#C22034"/>
<path d="M248.803 304.414L195.403 357.831L213.211 357.831L248.803 322.228L248.803 304.414Z" fill="#C22034"/>
<path d="M142.003 322.228L177.594 357.831L195.403 357.831L142.003 304.414L142.003 322.228Z" fill="#C22034"/>
<path d="M195.403 251L142.003 304.417L195.403 357.833L248.803 304.417L195.403 251ZM159.811 304.417L195.403 268.814L230.994 304.417L195.403 340.019L159.811 304.417Z" fill="#6BC8C5"/>
<path d="M230.99 304.402L195.392 268.793L159.794 304.402L195.392 340.011L230.99 304.402Z" fill="#FCB912"/>
<path d="M141.98 294.713V287.213C110.942 287.213 85.7669 262.038 85.7669 231H78.2671C78.2671 266.14 106.84 294.713 141.98 294.713Z" fill="white"/>
<path d="M141.981 260.33V252.83C129.94 252.83 120.151 243.042 120.151 231H112.651C112.669 247.179 125.802 260.33 141.981 260.33Z" fill="white"/>
<path d="M141.979 271.791V264.291C123.617 264.291 108.688 249.38 108.688 231H101.188C101.206 253.499 119.48 271.791 141.979 271.791Z" fill="white"/>
<path d="M141.982 283.252V275.752C117.282 275.752 97.2297 255.7 97.2297 231H89.73C89.73 259.82 113.162 283.252 141.982 283.252Z" fill="white"/>
<path d="M141.978 306.174V298.674C104.62 298.674 74.304 268.358 74.304 231H66.8042C66.8042 272.46 100.518 306.174 141.978 306.174Z" fill="white"/>
<path d="M141.976 340.574V333.074C85.6044 333.074 39.9192 287.371 39.9192 231.018H32.4194C32.4194 291.421 81.5728 340.574 141.976 340.574Z" fill="white"/>
<path d="M141.978 352.035V344.535C79.2862 344.535 28.4426 293.709 28.4426 231H20.9429C20.9605 297.741 75.2546 352.035 141.978 352.035Z" fill="white"/>
<path d="M141.975 317.635V310.135C98.2796 310.135 62.8406 274.696 62.8406 231H55.3408C55.3408 278.78 94.1952 317.635 141.975 317.635Z" fill="white"/>
<path d="M141.978 329.096V321.596C91.9447 321.596 51.3826 281.034 51.3826 231H43.8828C43.8828 285.1 87.8779 329.096 141.978 329.096Z" fill="white"/>
<path d="M20.9611 231H17C17 235.313 17.2113 239.574 17.6514 243.781C18.2852 250.084 19.3943 256.246 20.9436 262.231C22.4928 268.217 24.4646 274.044 26.8236 279.643C29.2003 285.259 31.9644 290.646 35.0981 295.804C37.1931 299.237 39.4289 302.565 41.8408 305.769C64.6394 336.243 101.012 355.979 141.996 355.979V352.017C75.2553 352.035 20.9611 297.741 20.9611 231Z" fill="#88D0C8"/>
<path d="M32.4245 231H28.4634C28.4634 293.692 79.2893 344.535 141.999 344.535V340.574C81.5779 340.574 32.4245 291.421 32.4245 231Z" fill="#88D0C8"/>
<path d="M43.8825 231H39.9214C39.9214 287.372 85.6242 333.057 141.978 333.057V329.096C87.8777 329.096 43.8825 285.1 43.8825 231Z" fill="#88D0C8"/>
<path d="M55.3459 231H51.3848C51.3848 281.034 91.9469 321.596 141.981 321.596V317.635C94.2003 317.635 55.3459 278.78 55.3459 231Z" fill="#88D0C8"/>
<path d="M66.8088 231H62.8477C62.8477 274.696 98.2867 310.135 141.983 310.135V306.174C100.523 306.174 66.8088 272.46 66.8088 231Z" fill="#88D0C8"/>
<path d="M78.2624 231H74.3013C74.3013 268.358 104.617 298.674 141.975 298.674V294.713C106.835 294.713 78.2624 266.14 78.2624 231Z" fill="#88D0C8"/>
<path d="M89.7253 231H85.7642C85.7642 262.038 110.939 287.213 141.977 287.213V283.252C113.158 283.252 89.7253 259.82 89.7253 231Z" fill="#88D0C8"/>
<path d="M101.207 231H97.2461C97.2461 255.7 117.298 275.752 141.998 275.752V271.791C119.481 271.791 101.207 253.499 101.207 231Z" fill="#88D0C8"/>
<path d="M112.67 231H108.709C108.709 249.362 123.62 264.291 142 264.291V260.33C125.804 260.33 112.67 247.179 112.67 231Z" fill="#88D0C8"/>
<path d="M124.124 231H120.163C120.163 243.042 129.951 252.83 141.993 252.83V248.869C132.116 248.869 124.124 240.876 124.124 231Z" fill="#88D0C8"/>
</svg>
