<svg width="194" height="135" viewBox="0 0 194 135" fill="none" xmlns="http://www.w3.org/2000/svg">
<path d="M148.833 104.397L163.154 90.0799L179.347 73.8911L193.668 59.5734L193.668 104.397L148.833 104.397Z" fill="black"/>
<path d="M104.001 59.5723L104.001 14.7483L148.836 14.7483L104.001 59.5723Z" fill="black"/>
<path d="M148.836 104.397L104.001 104.397L104.001 59.5735L148.836 104.397Z" fill="black"/>
<path d="M148.833 14.7483L193.668 14.7483L193.668 59.5723L148.833 14.7483Z" fill="black"/>
<path d="M174.85 49.7742C170.371 54.2524 163.116 54.2524 158.658 49.7742C154.178 45.296 154.178 38.0426 158.658 33.5854L163.158 29.0862L179.35 45.275L174.85 49.7742Z" fill="#F3A41E"/>
<path d="M139.074 33.6283C143.553 38.1065 143.553 45.36 139.074 49.8171C134.594 54.2953 127.339 54.2953 122.881 49.8171L118.318 45.2548L134.51 29.0661L139.074 33.6283Z" fill="#F3A41E"/>
<path d="M158.677 69.4355C163.156 64.9573 170.411 64.9573 174.87 69.4355L179.349 73.9137L163.156 90.1025L158.677 85.6243C154.219 81.1461 154.219 73.8927 158.677 69.4355Z" fill="#F3A41E"/>
<path d="M122.902 69.306C127.381 64.8278 134.636 64.8278 139.095 69.306C143.574 73.7842 143.574 81.0377 139.095 85.4948L134.51 90.0781L118.318 73.8893L122.902 69.306Z" fill="#F3A41E"/>
<path d="M174.891 69.4334C170.412 64.9552 163.157 64.9552 158.699 69.4334C154.219 73.9115 154.219 81.165 158.699 85.6222L163.178 90.1004L148.857 104.418L134.536 90.1004L139.12 85.517C143.599 81.0388 143.599 73.7854 139.12 69.3283C134.641 64.8501 127.386 64.8501 122.928 69.3283L118.343 73.9116L104.001 59.5729L118.322 45.2553L122.886 49.8176C127.365 54.2958 134.62 54.2958 139.078 49.8176C143.557 45.3394 143.557 38.086 139.078 33.6288L134.515 29.0666L148.836 14.749L163.157 29.0666L158.656 33.5658C154.177 38.0439 154.177 45.2974 158.656 49.7546C163.136 54.2328 170.391 54.2328 174.849 49.7546L179.349 45.2553L193.67 59.5729L179.349 73.8905L174.891 69.4334Z" fill="white"/>
<path d="M51.1778 0.0171731L57.4427 0.0171723C57.4427 25.9444 78.4727 46.9744 104.4 46.9744L104.4 53.2393C75.0461 53.2393 51.1778 29.3709 51.1778 0.0171731Z" fill="white"/>
<path d="M79.8992 0.0159067L86.1641 0.0159059C86.1641 10.075 94.3408 18.2517 104.4 18.2517L104.4 24.5166C90.8848 24.5019 79.8992 13.531 79.8992 0.0159067Z" fill="white"/>
<path d="M70.3254 0.0173117L76.5903 0.0173109C76.5903 15.356 89.0465 27.8269 104.4 27.8269L104.4 34.0918C85.6053 34.0771 70.3254 18.812 70.3254 0.0173117Z" fill="white"/>
<path d="M60.7516 0.0148106L67.0165 0.0148097C67.0165 20.6477 83.767 37.3982 104.4 37.3982L104.4 43.6631C80.3257 43.6631 60.7516 24.089 60.7516 0.0148106Z" fill="white"/>
<path d="M41.604 0.0185744L47.8689 0.0185735C47.8689 31.2253 73.1931 56.5496 104.4 56.5496L104.4 62.8145C69.7666 62.8145 41.604 34.6519 41.604 0.0185744Z" fill="white"/>
<path d="M12.8679 0.0198408L19.1328 0.01984C19.1328 47.1094 57.3104 85.2722 104.385 85.2722L104.385 91.5371C53.9279 91.5371 12.8679 50.4772 12.8679 0.0198408Z" fill="white"/>
<path d="M3.2941 0.0192241L9.55899 0.0192233C9.559 52.3883 52.0161 94.8601 104.4 94.8601L104.4 101.125C48.6483 101.11 3.29411 55.7561 3.2941 0.0192241Z" fill="white"/>
<path d="M32.0302 0.0209598L38.2951 0.020959C38.2951 36.522 67.8989 66.1258 104.4 66.1258L104.4 72.3906C64.487 72.3906 32.0302 39.9338 32.0302 0.0209598Z" fill="white"/>
<path d="M22.4564 0.0184357L28.7213 0.0184349C28.7213 41.8137 62.6046 75.697 104.4 75.697L104.4 81.9619C59.2074 81.9619 22.4564 45.2109 22.4564 0.0184357Z" fill="white"/>
<path d="M104.4 101.109L104.4 104.418C100.797 104.418 97.238 104.241 93.7232 103.874C88.4583 103.344 83.3111 102.418 78.3109 101.124C73.3108 99.8296 68.443 98.1825 63.7664 96.2119C59.0751 94.2265 54.575 91.9176 50.266 89.2999C47.3983 87.5498 44.6188 85.6822 41.9423 83.6674C16.4857 64.6227 -0.000108385 34.2395 -0.000112874 0.00327144L3.3088 0.00327101C3.2941 55.7548 48.6483 101.109 104.4 101.109Z" fill="#C31632"/>
<path d="M104.4 91.5339L104.4 94.8428C52.0308 94.8428 9.559 52.3857 9.55899 0.00188927L12.8679 0.00188883C12.8679 50.4739 53.9279 91.5339 104.4 91.5339Z" fill="#C31632"/>
<path d="M104.4 81.9616L104.4 85.2705C57.3103 85.2705 19.1475 47.093 19.1475 0.0181157L22.4564 0.0181153C22.4565 45.2106 59.2075 81.9616 104.4 81.9616Z" fill="#C31632"/>
<path d="M104.4 72.3864L104.4 75.6953C62.6046 75.6953 28.7213 41.812 28.7213 0.0167336L32.0302 0.0167331C32.0302 39.9296 64.487 72.3864 104.4 72.3864Z" fill="#C31632"/>
<path d="M104.4 62.8112L104.4 66.1201C67.8989 66.1201 38.2951 36.5164 38.2951 0.0153209L41.604 0.0153204C41.604 34.6487 69.7666 62.8112 104.4 62.8112Z" fill="#C31632"/>
<path d="M104.4 53.2428L104.4 56.5518C73.1931 56.5518 47.8689 31.2275 47.8689 0.0207517L51.1778 0.0207513C51.1778 29.3745 75.0461 53.2428 104.4 53.2428Z" fill="#C31632"/>
<path d="M104.4 43.6676L104.4 46.9766C78.4727 46.9766 57.4427 25.9466 57.4427 0.0193734L60.7516 0.0193729C60.7516 24.0936 80.3257 43.6676 104.4 43.6676Z" fill="#C31632"/>
<path d="M104.4 34.0758L104.4 37.3848C83.767 37.3848 67.0165 20.6343 67.0165 0.00136293L70.3254 0.0013625C70.3254 18.8107 85.6053 34.0759 104.4 34.0758Z" fill="#C31632"/>
<path d="M104.4 24.5007L104.4 27.8096C89.0612 27.8096 76.5903 15.3534 76.5903 -1.73341e-05L79.8992 -1.7768e-05C79.8993 13.5298 90.8848 24.5007 104.4 24.5007Z" fill="#C31632"/>
<path d="M104.4 14.9333L104.4 18.2422C94.3408 18.2422 86.1641 10.0655 86.1641 0.0063901L89.473 0.00638967C89.473 8.25662 96.1497 14.9333 104.4 14.9333Z" fill="#C31632"/>
<path d="M130.928 134.271C128.404 134.018 126.006 133.429 123.693 132.588L130.928 113.194L130.928 134.271Z" fill="black"/>
<path d="M120.912 131.41C118.64 130.316 116.536 128.949 114.622 127.351L127.937 112.563L120.912 131.41Z" fill="black"/>
<path d="M112.351 125.185C110.542 123.291 108.943 121.167 107.681 118.832L125.413 110.671L112.351 125.185Z" fill="black"/>
<path d="M106.272 115.888C105.241 113.364 104.526 110.671 104.232 107.853L123.731 107.853L106.272 115.888Z" fill="black"/>
<path d="M130.925 134.271L130.925 113.215L123.69 132.609C122.743 132.251 121.796 131.873 120.892 131.431L127.917 112.563L114.603 127.35C113.803 126.677 113.046 125.941 112.31 125.184L125.372 110.67L107.64 118.831C107.114 117.885 106.652 116.896 106.252 115.887L123.69 107.851L104.191 107.851C104.064 106.758 104.001 105.664 104.001 104.528L133.891 104.528L133.891 134.418C132.924 134.418 131.914 134.376 130.925 134.271Z" fill="#F3A41E"/>
</svg>
