<svg width="125" height="463" viewBox="0 0 125 463" fill="none" xmlns="http://www.w3.org/2000/svg">
<path d="M103.108 102.909C99.4866 101.11 96.0397 99.387 90.4695 100.886C84.8994 102.384 82.7763 105.582 80.5282 108.954C78.2053 112.476 75.5576 116.447 68.8884 118.246C62.2193 120.019 57.923 117.896 54.1513 116.022C50.5045 114.224 47.0825 112.501 41.4874 113.999C35.8923 115.498 33.7692 118.695 31.5212 122.067C31.0466 122.767 30.547 123.491 30.0225 124.215L31.9708 124.215C34.3687 122.092 37.416 120.269 42.2368 119.844C48.781 119.27 52.5777 121.817 55.8499 124.215L78.0304 124.215C78.5799 123.666 79.1295 123.116 79.654 122.542C82.5764 119.469 85.8736 116.022 92.7425 115.423C99.6115 114.823 103.458 117.671 106.855 120.169C109.253 121.942 111.576 123.641 114.948 124.215L119.944 124.215C121.592 123.99 122.991 123.566 124.19 122.991C124.115 116.247 123.516 109.653 122.417 103.209C121.118 103.958 119.619 104.632 117.821 105.107C111.176 106.905 106.905 104.782 103.108 102.909Z" fill="#F3A41E"/>
<path d="M42.5128 122.819C40.3397 123.018 38.6162 123.518 37.1675 124.242L50.3809 124.242C48.2827 123.193 45.8599 122.519 42.5128 122.819Z" fill="#F3A41E"/>
<path d="M93.0187 118.395C87.5235 118.869 84.8509 121.442 82.1782 124.24L107.456 124.24C106.632 123.69 105.857 123.141 105.108 122.566C101.886 120.168 98.7887 117.895 93.0187 118.395Z" fill="#F3A41E"/>
<path d="M28.8753 17.111C25.5032 19.3591 22.306 21.4822 20.8074 27.0524C19.3087 32.6225 21.0322 36.0695 22.8306 39.6913C24.704 43.463 26.8271 47.7592 25.0536 54.4284C23.2552 61.0975 19.2837 63.7452 15.7618 66.0682C12.3897 68.3162 9.19254 70.4393 7.69385 76.0345C6.19516 81.6296 7.89368 85.0516 9.71708 88.6984C11.5904 92.4951 13.7136 96.7663 11.9401 103.435C11.3157 105.808 10.3915 107.657 9.31744 109.18C9.61717 109.355 9.91691 109.53 10.1917 109.73C11.0659 108.731 11.8652 107.532 12.5646 106.008C15.0124 100.763 13.9134 97.0911 12.7894 93.1945C11.5904 89.148 10.2416 84.5521 13.1641 78.2825C16.0865 72.038 20.4577 70.1147 24.3293 68.4161C28.051 66.7926 31.5729 65.2439 33.9958 60.0235C36.4437 54.778 35.3696 51.1063 34.1956 47.2097C32.9967 43.1633 31.6479 38.5673 34.5703 32.3227C37.4928 26.0782 41.8639 24.1549 45.7355 22.4564C49.4573 20.8328 52.9792 19.3091 55.4021 14.0637C55.5519 13.764 55.6269 13.4892 55.7518 13.1895C50.0567 10.317 44.1369 7.89416 37.9923 5.92089C36.1689 12.2404 32.3223 14.838 28.8753 17.111Z" fill="#F3A41E"/>
<path d="M0.874235 87.8748C0.599475 87.4751 0.299738 87.0754 0 86.6758L3.46328e-06 106.483C0.949172 106.483 1.87336 106.608 2.79755 106.758C3.94655 105.01 4.7958 102.887 5.04558 99.9642C5.54515 94.2192 3.27214 91.1469 0.874235 87.8748Z" fill="#F3A41E"/>
<path d="M9.7165 12.2891C6.76908 15.0867 3.9965 17.7344 3.49694 23.4794C3.02236 29.2243 5.27039 32.3216 7.66829 35.5688C10.1661 38.9658 13.0136 42.8374 12.4141 49.6814C11.8147 56.5504 8.34271 59.8475 5.29537 62.7699C3.17223 64.7931 1.17398 66.7414 1.1997e-05 69.7888L1.39186e-05 80.7792C0.799314 82.7525 1.99827 84.401 3.24717 86.0995C5.74499 89.4965 8.59249 93.3681 7.99302 100.237C7.71826 103.284 6.869 105.607 5.74499 107.531C6.04473 107.631 6.34446 107.681 6.61922 107.805C7.61835 106.482 8.4676 104.858 9.0421 102.685C10.5408 97.0899 8.84227 93.6679 7.04385 90.0211C5.17049 86.2494 3.04735 81.9531 4.82079 75.284C6.61922 68.6148 10.5907 65.9671 14.1127 63.6442C17.4847 61.3961 20.6819 59.273 22.1806 53.7028C23.6793 48.1327 21.9558 44.6857 20.1574 41.0639C18.284 37.2922 16.1609 32.996 17.9343 26.3268C19.7077 19.6577 23.7042 17.01 27.2262 14.687C30.5233 12.4889 33.6455 10.3908 35.1692 5.12041C29.1245 3.34696 22.9049 2.02308 16.5355 1.17383C15.5364 6.69399 12.4641 9.66642 9.7165 12.2891Z" fill="#F3A41E"/>
<path d="M3.24717 60.6469C6.19459 57.8493 8.96716 55.2017 9.46672 49.4317C9.96628 43.6618 7.69327 40.5895 5.29537 37.3423C2.79756 33.9453 -0.049951 30.0987 0.549523 23.2297C1.149 16.3607 4.62096 13.0636 7.66829 10.1412C10.291 7.64338 12.7638 5.27043 13.6381 0.749387C9.16697 0.249825 4.62095 -8.07953e-07 0 0L1.11978e-05 64.044C1.04909 62.7701 2.17311 61.671 3.24717 60.6469Z" fill="#F3A41E"/>
<path d="M46.9326 25.2022C43.2109 26.8258 39.689 28.3494 37.2661 33.5948C34.8182 38.8153 35.9173 42.5121 37.0663 46.4086C38.2652 50.4551 39.614 55.0511 36.6916 61.2956C33.7692 67.5401 29.398 69.4635 25.5264 71.162C21.8046 72.7856 18.2827 74.3342 15.8599 79.5546C13.412 84.8 14.4861 88.4718 15.6351 92.3684C16.809 96.4148 18.1828 101.011 15.2604 107.28C14.4361 109.054 13.4869 110.453 12.4878 111.627C12.7626 111.901 12.9874 112.201 13.2372 112.501C13.9865 111.801 14.7358 110.952 15.4352 109.928C18.7573 105.182 18.3327 101.385 17.8831 97.339C17.4085 93.1177 16.884 88.3719 20.8305 82.7269C24.777 77.0818 29.448 75.9578 33.5444 74.9586C37.4909 74.0095 41.2126 73.1103 44.5347 68.3644C47.8568 63.6436 47.4072 59.8219 46.9576 55.8004C46.483 51.6041 45.9585 46.8583 49.905 41.1882C53.8516 35.5432 58.5225 34.4191 62.6189 33.42C66.5654 32.4708 70.2872 31.5716 73.6093 26.8258C74.0589 26.2013 74.4335 25.5768 74.7333 24.9774C69.5878 21.1057 64.1426 17.6338 58.4226 14.5615C58.3227 14.8113 58.2477 15.0611 58.1228 15.3358C55.2004 21.5804 50.8042 23.5037 46.9326 25.2022Z" fill="#F3A41E"/>
<path d="M77.5074 50.0553C73.461 50.305 69.6393 50.5549 65.5429 54.6263C61.4465 58.7227 61.2217 62.5443 60.9719 66.5908C60.7221 70.8121 60.3974 75.5829 55.5267 80.4537C50.6559 85.3244 45.8601 85.6241 41.6638 85.8989C37.6173 86.1487 33.7957 86.3984 29.6993 90.4699C25.6029 94.5663 25.3531 98.3879 25.1033 102.434C24.8285 106.656 24.5288 111.427 19.6581 116.322C18.7089 117.271 17.7597 118.071 16.8106 118.695C16.9355 119.095 17.0853 119.494 17.1852 119.919C17.7597 119.619 18.3342 119.27 18.9087 118.87C23.6546 115.548 24.5538 111.826 25.5029 107.88C26.5021 103.783 27.6261 99.1123 33.2711 95.1658C38.9162 91.2192 43.687 91.7438 47.8833 92.2184C51.9298 92.668 55.7265 93.0926 60.4723 89.7955C65.1932 86.4734 66.0924 82.7517 67.0666 78.8051C68.0657 74.7087 69.1897 70.0378 74.8347 66.0913C80.4798 62.1447 85.2506 62.6692 89.447 63.1438C93.4934 63.5934 97.2901 64.0181 102.036 60.721C103.31 59.8218 104.309 58.8975 105.108 57.9234C101.611 52.4032 97.6897 47.1578 93.3935 42.2871C92.819 43.0614 92.1945 43.8357 91.4202 44.635C86.4995 49.5058 81.7037 49.8055 77.5074 50.0553Z" fill="#F3A41E"/>
<path d="M103.684 63.1468C98.0394 67.0934 93.2686 66.5689 89.0723 66.0943C85.0508 65.6447 81.2292 65.2201 76.5083 68.5172C71.7874 71.8393 70.8632 75.561 69.9141 79.5075C68.9149 83.6039 67.7909 88.2748 62.1459 92.2214C56.5008 96.1679 51.73 95.6434 47.5337 95.1688C43.4872 94.7192 39.6905 94.2946 34.9447 97.5917C30.1988 100.914 29.2996 104.635 28.3505 108.582C27.3513 112.678 26.2273 117.349 20.5823 121.296C19.5582 122.02 18.584 122.57 17.6099 123.019C17.6349 123.419 17.7348 123.819 17.7348 124.218L17.9096 124.218C18.4092 124.044 18.8838 123.919 19.4083 123.669C24.6537 121.221 26.1774 117.699 27.8259 113.977C29.5244 110.106 31.4478 105.71 37.6923 102.787C43.9368 99.8647 48.5328 101.213 52.5793 102.412C56.4758 103.561 60.1476 104.635 65.393 102.188C70.6135 99.7398 72.1621 96.2429 73.7857 92.5211C75.4842 88.6495 77.3825 84.2534 83.652 81.3559C89.8966 78.4334 94.4926 79.7823 98.539 80.9812C102.436 82.1302 106.107 83.2043 111.353 80.7564C113.051 79.9571 114.325 79.0579 115.374 78.0588C112.926 71.9391 110.029 66.0443 106.682 60.4492C105.858 61.4234 104.883 62.2976 103.684 63.1468Z" fill="#F3A41E"/>
<path d="M63.2935 36.2928C59.347 37.242 55.6253 38.1412 52.3032 42.8871C48.9811 47.608 49.4307 51.4296 49.8803 55.4511C50.3799 59.6474 50.8794 64.3933 46.9329 70.0633C42.9863 75.7084 38.3154 76.8323 34.219 77.8315C30.2725 78.7806 26.5507 79.6799 23.2286 84.4257C19.9065 89.1716 20.3312 92.9683 20.7808 97.0147C21.2554 101.211 21.7799 105.982 17.8334 111.627C16.9092 112.926 15.96 113.975 14.9859 114.849C15.2107 115.199 15.3855 115.573 15.5853 115.948C16.2348 115.474 16.8842 114.949 17.5336 114.275C21.63 110.178 21.8798 106.357 22.1296 102.31C22.4044 98.0888 22.7041 93.318 27.5748 88.4223C32.4456 83.5515 37.2414 83.2517 41.4377 82.977C45.4841 82.7272 49.3058 82.4774 53.4022 78.381C57.4736 74.3096 57.7234 70.463 57.9732 66.4165C58.248 62.1952 58.5477 57.4243 63.4184 52.5536C68.2892 47.6829 73.085 47.3832 77.2813 47.1084C81.3278 46.8586 85.1494 46.6088 89.2458 42.5373C90.0951 41.6881 90.7445 40.8639 91.294 40.0146C86.8979 35.2438 82.1271 30.8476 77.0315 26.8262C76.7068 27.4007 76.3821 27.9502 75.9824 28.5497C72.0609 34.1697 67.4149 35.2937 63.2935 36.2928Z" fill="#F3A41E"/>
<path d="M97.7129 83.8751C93.8163 82.7261 90.1445 81.6521 84.8991 84.0999C79.6537 86.5478 78.13 90.0447 76.5064 93.7665C74.8079 97.6381 72.9096 102.034 66.6651 104.932C60.4205 107.854 55.8245 106.505 51.7531 105.306C47.8565 104.157 44.1847 103.083 38.9393 105.531C33.6939 107.979 32.1703 111.501 30.5217 115.223C29.1979 118.245 27.7241 121.567 24.1773 124.265L26.2255 124.265C27.2745 123.091 28.1488 121.792 29.023 120.468C31.371 116.946 34.0186 112.95 40.6878 111.176C47.357 109.403 51.6532 111.526 55.4249 113.399C59.0717 115.198 62.4937 116.921 68.0888 115.423C73.6589 113.924 75.7821 110.727 78.0301 107.355C80.3531 103.833 83.0007 99.8361 89.6699 98.0627C96.3391 96.2892 100.61 98.4124 104.407 100.286C108.029 102.084 111.476 103.808 117.046 102.309C119.044 101.784 120.568 101.01 121.842 100.111C120.543 93.5916 118.769 87.2222 116.496 81.1025C115.422 81.9768 114.123 82.801 112.55 83.5254C106.355 86.4229 101.759 85.0741 97.7129 83.8751Z" fill="#F3A41E"/>
<path d="M124.266 124.242C124.266 123.842 124.241 123.417 124.241 123.018C123.042 123.592 121.643 124.017 119.995 124.242L124.266 124.242Z" fill="#C31632"/>
<path d="M106.905 120.195C103.508 117.697 99.6617 114.85 92.7927 115.449C85.9237 116.049 82.6266 119.52 79.7041 122.568C79.1546 123.142 78.6301 123.692 78.0806 124.241L82.2269 124.241C84.8996 121.444 87.5473 118.871 93.0674 118.397C98.8124 117.897 101.91 120.17 105.182 122.568C105.931 123.117 106.706 123.692 107.53 124.241L115.023 124.241C111.626 123.667 109.303 121.968 106.905 120.195Z" fill="#C31632"/>
<path d="M98.5391 81.0518C94.4926 79.8528 89.8966 78.504 83.6521 81.4264C77.4076 84.3489 75.4843 88.72 73.7858 92.5916C72.1622 96.3134 70.6385 99.8103 65.3931 102.258C60.1477 104.706 56.4759 103.607 52.5793 102.483C48.5329 101.284 43.9369 99.9353 37.6924 102.858C31.4478 105.78 29.5245 110.176 27.826 114.048C26.2024 117.77 24.6538 121.292 19.4084 123.739C18.8838 123.989 18.4092 124.089 17.9097 124.289L24.2042 124.289C27.7261 121.591 29.2248 118.269 30.5486 115.247C32.1722 111.525 33.7208 108.003 38.9662 105.555C44.2116 103.107 47.8834 104.206 51.78 105.331C55.8265 106.529 60.4225 107.878 66.692 104.956C72.9365 102.033 74.8598 97.6622 76.5333 93.7906C78.1569 90.0689 79.6806 86.547 84.926 84.1241C90.1714 81.6762 93.8432 82.7753 97.7398 83.8993C101.786 85.0982 106.382 86.447 112.627 83.5246C114.2 82.8002 115.474 81.9759 116.573 81.1017C116.199 80.1026 115.799 79.1284 115.424 78.1543C114.375 79.1534 113.101 80.0527 111.403 80.852C106.132 83.2748 102.436 82.2007 98.5391 81.0518Z" fill="#C31632"/>
<path d="M45.7587 22.4788C41.8871 24.1773 37.491 26.0757 34.5935 32.3452C31.6711 38.5897 33.0449 43.1857 34.2188 47.2321C35.3678 51.1287 36.4419 54.8005 34.019 60.0459C31.5712 65.2913 28.0742 66.815 24.3525 68.4386C20.4809 70.1371 16.0847 72.0354 13.1873 78.3049C10.2648 84.5494 11.6136 89.1704 12.8126 93.2169C13.9616 97.1134 15.0356 100.785 12.5878 106.031C11.8884 107.554 11.0641 108.753 10.2149 109.752C11.0142 110.327 11.7885 110.951 12.4879 111.626C13.512 110.452 14.4362 109.053 15.2604 107.28C18.1829 101.035 16.8091 96.439 15.6351 92.3676C14.4861 88.471 13.4121 84.7992 15.8599 79.5538C18.3078 74.3084 21.8047 72.7848 25.5264 71.1612C29.3981 69.4627 33.7942 67.5643 36.6917 61.2948C39.5891 55.0503 38.2403 50.4543 37.0663 46.4079C35.9173 42.5113 34.8433 38.8395 37.2662 33.5941C39.714 28.3487 43.211 26.825 46.9327 25.2015C50.8043 23.5029 55.2005 21.6046 58.0979 15.3351C58.2228 15.0603 58.2977 14.8355 58.3977 14.5607C57.5234 14.0862 56.6492 13.6615 55.75 13.2119C55.6251 13.5116 55.5501 13.7864 55.4003 14.0862C52.9774 19.3316 49.4805 20.8552 45.7587 22.4788Z" fill="#C31632"/>
<path d="M5.29537 62.7931C8.36768 59.8707 11.8147 56.5736 12.4141 49.7046C13.0136 42.8606 10.1661 38.9889 7.66829 35.5919C5.24541 32.3198 2.99738 29.2475 3.49694 23.5025C3.9965 17.7325 6.76908 15.1099 9.71649 12.3123C12.4641 9.68964 15.5364 6.71724 16.5605 1.14711C15.5864 1.02222 14.6122 0.872371 13.6381 0.772459C12.7638 5.2935 10.291 7.66637 7.66829 10.1642C4.62096 13.0866 1.149 16.3838 0.549523 23.2528C-0.0499511 30.1218 2.79756 33.9684 5.29537 37.3654C7.71825 40.6375 9.99126 43.7098 9.46672 49.4548C8.96716 55.2248 6.19459 57.8474 3.24717 60.67C2.17311 61.6941 1.04909 62.7931 1.10668e-05 64.067L1.208e-05 69.8619C1.14901 66.7396 3.17223 64.7914 5.29537 62.7931Z" fill="#C31632"/>
<path d="M104.433 100.261C100.661 98.3879 96.3651 96.2647 89.6959 98.0382C83.0268 99.8116 80.3791 103.808 78.0561 107.33C75.8081 110.702 73.6849 113.899 68.1148 115.398C62.5197 116.897 59.0977 115.198 55.4509 113.375C51.6792 111.501 47.383 109.378 40.7138 111.152C34.0446 112.95 31.397 116.922 29.049 120.444C28.1748 121.767 27.3006 123.066 26.2515 124.24L30.0232 124.24C30.5477 123.516 31.0473 122.792 31.5219 122.092C33.7699 118.72 35.893 115.523 41.4881 114.024C47.0832 112.526 50.5052 114.224 54.152 116.047C57.9237 117.921 62.22 120.044 68.8891 118.27C75.5583 116.497 78.206 112.501 80.529 108.979C82.777 105.607 84.9001 102.409 90.4702 100.911C96.0404 99.412 99.4873 101.111 103.109 102.934C106.881 104.807 111.177 106.93 117.846 105.157C119.67 104.682 121.143 104.008 122.442 103.259C122.267 102.21 122.093 101.16 121.893 100.111C120.619 101.011 119.07 101.76 117.097 102.31C111.502 103.758 108.08 102.06 104.433 100.261Z" fill="#C31632"/>
<path d="M27.2497 14.6346C23.7278 16.9825 19.7313 19.6302 17.9579 26.2744C16.1844 32.9435 18.3076 37.2148 20.1809 41.0115C21.9794 44.6333 23.7029 48.0803 22.2042 53.6504C20.7055 59.2455 17.5083 61.3437 14.1362 63.5917C10.6143 65.9397 6.61782 68.5873 4.84437 75.2315C3.07093 81.9007 5.19407 86.1969 7.06743 89.9686C8.86586 93.6154 10.5644 97.0374 9.06568 102.633C8.49119 104.806 7.64193 106.429 6.64281 107.753C7.567 108.128 8.46621 108.602 9.29049 109.127C10.3645 107.603 11.2887 105.755 11.9132 103.382C13.7116 96.7127 11.5635 92.4165 9.69013 88.6448C7.89171 84.998 6.16822 81.5759 7.6669 75.9808C9.16559 70.3857 12.3628 68.2626 15.7348 66.0146C19.2568 63.6666 23.2533 61.0189 25.0267 54.3748C26.8001 47.7056 24.677 43.4344 22.8036 39.6377C21.0052 35.9909 19.3067 32.5689 20.7804 26.9988C22.2791 21.4037 25.4763 19.3055 28.8483 17.0574C32.2703 14.7844 36.142 12.1867 37.9903 5.89221C37.0662 5.59247 36.117 5.31772 35.1678 5.04296C33.6441 10.3633 30.5469 12.4615 27.2497 14.6346Z" fill="#C31632"/>
<path d="M77.3083 47.1089C73.087 47.3836 68.3162 47.6834 63.4454 52.5541C58.5747 57.4248 58.2749 62.1957 58.0002 66.417C57.7504 70.4635 57.5006 74.2851 53.4292 78.3815C49.3328 82.4779 45.5111 82.7027 41.4647 82.9775C37.2434 83.2522 32.4725 83.552 27.6018 88.4227C22.7311 93.2935 22.4313 98.0893 22.1566 102.311C21.9068 106.357 21.657 110.204 17.5606 114.275C16.9112 114.924 16.2617 115.474 15.6123 115.949C16.0869 116.848 16.4866 117.772 16.8113 118.746C17.7604 118.097 18.7096 117.322 19.6588 116.373C24.5295 111.503 24.8542 106.707 25.104 102.485C25.3538 98.4389 25.6036 94.5923 29.7 90.5209C33.7964 86.4245 37.618 86.1996 41.6645 85.9499C45.8858 85.6751 50.6566 85.3754 55.5274 80.5046C60.3981 75.6339 60.6978 70.8631 60.9726 66.6418C61.2224 62.5953 61.4721 58.7737 65.5436 54.6773C69.64 50.5808 73.4617 50.3561 77.5081 50.1063C81.7294 49.8315 86.5002 49.5317 91.371 44.661C92.1453 43.8867 92.7947 43.0874 93.3442 42.313C92.6698 41.5637 92.0204 40.7894 91.321 40.04C90.7715 40.8643 90.1221 41.7136 89.2728 42.5628C85.2014 46.6093 81.3547 46.8591 77.3083 47.1089Z" fill="#C31632"/>
<path d="M7.993 100.235C8.61746 93.3663 5.74497 89.4946 3.24716 86.0976C1.99825 84.3991 0.7993 82.7756 0 80.7773L1.02631e-06 86.6471C0.299739 87.0468 0.574498 87.4465 0.874236 87.8461C3.27214 91.1183 5.57013 94.1906 5.04559 99.9605C4.7958 102.883 3.94655 105.006 2.79755 106.755C3.82166 106.929 4.79581 107.179 5.74497 107.504C6.86899 105.606 7.71825 103.308 7.993 100.235Z" fill="#C31632"/>
<path d="M62.62 33.4168C58.5236 34.4159 53.8527 35.5399 49.9062 41.185C45.9596 46.8301 46.4842 51.5759 46.9588 55.7972C47.4084 59.8187 47.833 63.6403 44.5359 68.3612C41.2138 73.1071 37.4921 74.0062 33.5455 74.9554C29.4491 75.9545 24.7782 77.0786 20.8316 82.7236C16.8601 88.3687 17.4096 93.1145 17.8842 97.3358C18.3338 101.357 18.7585 105.179 15.4364 109.925C14.712 110.949 13.9876 111.773 13.2383 112.498C13.8877 113.247 14.5122 114.021 15.0367 114.845C16.0109 113.971 16.96 112.922 17.8842 111.623C21.8557 105.978 21.3062 101.207 20.8316 97.0111C20.382 92.9647 19.9574 89.168 23.2795 84.4221C26.6016 79.6763 30.3233 78.777 34.2699 77.8279C38.3663 76.8287 43.0372 75.7048 46.9837 70.0597C50.9303 64.4147 50.4307 59.6688 49.9312 55.4475C49.4816 51.426 49.0569 47.6044 52.354 42.8835C55.6761 38.1376 59.3979 37.2384 63.3444 36.2892C67.4408 35.2901 72.1117 34.1661 76.0583 28.5211C76.4579 27.9466 76.8076 27.3721 77.1074 26.7976C76.333 26.1731 75.5587 25.5487 74.7594 24.9492C74.4347 25.5487 74.085 26.1731 73.6354 26.7976C70.2883 31.5434 66.5666 32.4676 62.62 33.4168Z" fill="#C31632"/>
<path d="M101.986 60.7195C97.2651 64.0416 93.4434 63.6169 89.397 63.1423C85.2007 62.6677 80.4298 62.1432 74.7848 66.0898C69.1397 70.0363 68.0157 74.7072 67.0166 78.8036C66.0674 82.7502 65.1682 86.4719 60.4224 89.794C55.6765 93.1161 51.8798 92.6915 47.8334 92.2169C43.6371 91.7423 38.8912 91.2177 33.2212 95.1643C27.5761 99.1358 26.4271 103.782 25.453 107.878C24.5038 111.825 23.5796 115.546 18.8588 118.869C18.2593 119.293 17.6848 119.618 17.1353 119.918C17.385 120.917 17.5099 121.941 17.5849 122.99C18.559 122.54 19.5332 121.991 20.5573 121.266C26.2023 117.295 27.3263 112.649 28.3255 108.553C29.2746 104.606 30.1988 100.884 34.9197 97.5622C39.6655 94.2401 43.4622 94.6648 47.5087 95.1393C51.705 95.6139 56.4758 96.1384 62.1209 92.1919C67.7659 88.2453 68.8899 83.5994 69.8891 79.478C70.8382 75.5315 71.7374 71.8097 76.4833 68.4876C81.2042 65.1655 85.0258 65.5902 89.0473 66.0648C93.2436 66.5393 98.0144 67.0639 103.659 63.1174C104.858 62.2681 105.808 61.3938 106.657 60.5196C106.132 59.6454 105.583 58.7711 105.033 57.9219C104.259 58.871 103.285 59.8203 101.986 60.7195Z" fill="#C31632"/>
<path d="M42.2616 119.87C37.4408 120.295 34.3935 122.118 31.9956 124.241L37.1661 124.241C38.6148 123.517 40.3633 123.017 42.5114 122.818C45.8585 122.518 48.2813 123.192 50.3795 124.241L55.8747 124.241C52.6026 121.843 48.7809 119.296 42.2616 119.87Z" fill="#C31632"/>
<path d="M63.8451 444.63C68.7658 441.682 73.4616 438.385 77.9077 434.788L14.6131 359.354L63.8451 444.63Z" fill="black"/>
<path d="M44.9614 453.849C50.3067 451.776 55.4771 449.353 60.4478 446.58L11.3907 361.63L44.9614 453.849Z" fill="black"/>
<path d="M80.9559 432.267C85.3271 428.521 89.4235 424.474 93.2202 420.153L17.4366 356.559L80.9559 432.267Z" fill="black"/>
<path d="M3.97155 462.166C9.74149 461.991 15.3865 461.416 20.9316 460.492L3.97154 364.326L3.97155 462.166Z" fill="black"/>
<path d="M24.8056 459.792C30.4507 458.643 35.9209 457.119 41.2412 455.246L7.77053 363.326L24.8056 459.792Z" fill="black"/>
<path d="M95.7897 417.155C99.4615 412.709 102.834 407.988 105.881 403.067L19.6813 353.311L95.7897 417.155Z" fill="black"/>
<path d="M122.393 359.531C123.392 353.811 123.992 347.941 124.191 341.972L22.7552 341.972L122.393 359.531Z" fill="black"/>
<path d="M107.88 399.672C110.753 394.651 113.301 389.406 115.449 383.961L21.3561 349.716L107.88 399.672Z" fill="black"/>
<path d="M116.897 380.286C118.87 374.816 120.469 369.196 121.693 363.401L22.4048 345.892L116.897 380.286Z" fill="black"/>
<path d="M3.97142 462.166L3.97142 364.327L20.9315 460.493C22.2304 460.268 23.5293 460.068 24.8032 459.793L7.79307 363.303L41.2638 455.222C42.5127 454.773 43.7366 454.323 44.9605 453.849L11.3899 361.629L60.4469 446.58C61.5959 445.93 62.7449 445.281 63.8689 444.607L14.6371 359.331L77.9316 434.765C78.9557 433.941 79.9548 433.092 80.954 432.242L17.4346 356.534L93.2182 420.128C94.0925 419.154 94.9667 418.155 95.791 417.156L19.6826 353.287L105.882 403.043C106.582 401.919 107.231 400.795 107.88 399.646L21.3562 349.69L115.449 383.935C115.923 382.711 116.423 381.487 116.873 380.263L22.3803 345.868L121.668 363.378C121.943 362.104 122.143 360.805 122.368 359.506L22.7299 341.947L124.166 341.947C124.216 340.623 124.266 339.324 124.266 338L17.7593 338C17.7593 347.791 9.81631 355.759 -9.1341e-05 355.759L-9.00709e-05 462.266C1.34873 462.266 2.64758 462.216 3.97142 462.166Z" fill="white"/>
<path d="M71.2533 177.253C71.2533 147.854 47.3993 124 18 124C18 153.424 41.8291 177.253 71.2533 177.253Z" fill="white"/>
<path d="M71.2544 177.253C100.654 177.253 124.508 153.399 124.508 124C95.0835 124 71.2544 147.854 71.2544 177.253Z" fill="white"/>
<path d="M18 177.255C18 206.654 41.8541 230.508 71.2533 230.508C71.2533 201.109 47.3993 177.255 18 177.255Z" fill="white"/>
<path d="M71.2544 230.508C100.654 230.508 124.508 206.654 124.508 177.255C95.0835 177.255 71.2544 201.109 71.2544 230.508Z" fill="white"/>
<path d="M120 238.5L18 231V337.67H124.67L120 238.5Z" fill="#C22034"/>
<path d="M106.686 280.982C106.385 278.23 105.735 275.503 104.709 272.851C103.909 269.824 102.683 266.972 101.082 264.371C97.2043 256.941 97.5796 247.635 102.858 240.38C97.4045 247.86 88.2735 251.087 79.7679 249.336C77.0662 248.76 74.2643 248.535 71.4125 248.685C68.2854 248.51 65.1833 248.785 62.2314 249.511C53.976 250.912 45.2453 247.66 39.9668 240.43C45.4204 247.91 45.6456 257.591 41.3428 265.146C39.9669 267.548 38.8911 270.149 38.1656 272.876C37.0399 275.803 36.3394 278.83 36.1143 281.857C34.8885 290.138 29.1097 297.442 20.5791 300.219C29.3849 297.367 38.666 300.144 44.5198 306.548C46.5461 308.8 48.8977 310.751 51.5745 312.377C53.851 314.128 56.2525 315.629 58.8292 316.705C66.3341 320.432 71.4875 328.188 71.4875 337.143C71.4875 327.887 76.9911 319.932 84.9213 316.33C87.1728 315.329 89.2742 313.953 91.2755 312.427C94.2274 310.626 96.8291 308.425 98.9805 305.873C104.859 299.894 113.815 297.367 122.346 300.144C113.54 297.317 107.661 289.637 106.686 280.982ZM71.4875 283.708H71.4375V283.683H71.4625L71.4875 283.708Z" fill="#F3A41E"/>
<path d="M43.4174 321.712C42.5168 308.253 49.6715 295.495 61.9046 289.291L68.759 285.814L66.9829 289.266L69.7346 286.514L68.5339 294.119C66.4075 307.678 56.501 318.41 43.4174 321.712ZM99.5042 321.712C86.4206 318.41 76.5141 307.653 74.3877 294.119L73.1869 286.514L75.9387 289.266L74.1626 285.789L81.0171 289.266C93.2501 295.495 100.405 308.253 99.5042 321.712ZM88.1718 284.163C86.3956 284.163 84.5944 284.012 82.8433 283.737L75.2383 282.511L78.7155 280.735L74.863 281.361L80.2916 275.907C86.5957 269.578 95.3765 265.951 104.332 265.951C108.66 265.951 112.863 266.751 116.841 268.352C110.687 278.184 99.9545 284.163 88.1718 284.163ZM54.7498 284.163C42.9671 284.163 32.2351 278.184 26.0811 268.377C30.0587 266.776 34.2614 265.976 38.5893 265.976C47.5451 265.976 56.3008 269.603 62.63 275.932L68.0586 281.386L64.206 280.76L67.6834 282.536L60.0783 283.762C58.3272 284.012 56.526 284.163 54.7498 284.163ZM71.4608 275.457L70.8604 279.309L67.3581 272.455C61.104 260.247 62.8301 245.737 71.4608 235.355C80.0914 245.712 81.8176 260.247 75.5635 272.455L72.0612 279.309L71.4608 275.457Z" fill="#88D0C8"/>
<path d="M71.4587 294.366C77.6345 294.366 82.641 289.359 82.641 283.183C82.641 277.007 77.6345 272.001 71.4587 272.001C65.2829 272.001 60.2764 277.007 60.2764 283.183C60.2764 289.359 65.2829 294.366 71.4587 294.366Z" fill="#F3A41E"/>
</svg>
