<svg width="231" height="248" viewBox="0 0 231 248" fill="none" xmlns="http://www.w3.org/2000/svg">
<path d="M177.272 0.0254908C180.294 0.0254908 183.117 1.72401 185.165 4.79632C186.639 7.01938 189.836 13.4388 188.562 26.1027C196.106 16.8608 203.349 13.164 208.52 13.164C212.966 13.164 216.388 15.8366 217.212 19.983C218.386 25.8778 214.564 33.8958 204.523 42.0137C206.546 41.8139 208.47 41.689 210.318 41.689C224.281 41.689 230.525 47.5089 230.525 53.2789C230.525 59.0488 224.281 64.8438 210.318 64.8438C208.47 64.8438 206.521 64.7438 204.498 64.519C214.514 72.6369 218.361 80.6549 217.187 86.5497C216.363 90.6961 212.941 93.3688 208.495 93.3688C203.299 93.3688 196.056 89.672 188.537 80.4301C189.811 93.094 186.614 99.5134 185.14 101.736C183.092 104.809 180.294 106.507 177.247 106.507H230.5V0.000488281H177.272V0.0254908Z" fill="#F3A41E"/>
<path d="M169.379 101.762C167.905 99.5392 164.708 93.1198 165.982 80.4559C158.439 89.6978 151.195 93.3945 146.024 93.3945C141.578 93.3945 138.156 90.7218 137.332 86.5755C136.158 80.6806 139.98 72.6626 150.021 64.5447C147.998 64.7446 146.074 64.8695 144.201 64.8695C134.809 64.8695 127.865 62.1718 125.143 57.451C123.619 54.8033 123.619 51.781 125.143 49.1333C127.865 44.4124 134.809 41.7148 144.201 41.7148C146.049 41.7148 147.998 41.8147 150.021 42.0395C140.005 33.9216 136.158 25.9036 137.332 20.0088C138.156 15.8624 141.553 13.1897 146.024 13.1897C151.22 13.1897 158.464 16.8865 165.982 26.1284C164.708 13.4645 167.905 7.04516 169.379 4.8221C171.427 1.74979 174.225 0.0512695 177.272 0.0512695H124.019V106.558H177.272C174.225 106.533 171.427 104.835 169.379 101.762Z" fill="#F3A41E"/>
<path d="M175.324 57.7737C174.2 57.2741 173.301 56.3999 172.802 55.2759C138.007 71.137 136.159 89.7457 146.025 89.7457C152.694 89.7208 164.634 81.2531 175.324 57.7737ZM152.37 85.1248C150.446 87.0481 147.349 87.0481 145.426 85.1248C143.502 83.2015 143.502 80.1042 145.426 78.1809C147.349 76.2575 150.446 76.2575 152.37 78.1809C154.268 80.1042 154.268 83.2015 152.37 85.1248Z" fill="white"/>
<path d="M175.324 48.784C164.633 25.3045 152.694 16.837 146.025 16.812C136.133 16.812 138.007 35.4207 172.801 51.2818C173.301 50.1578 174.2 49.2586 175.324 48.784ZM152.369 28.3519C150.446 30.2752 147.349 30.2752 145.425 28.3519C143.502 26.4286 143.502 23.3313 145.425 21.408C147.349 19.4847 150.446 19.4847 152.369 21.408C154.268 23.3313 154.268 26.4536 152.369 28.3519Z" fill="white"/>
<path d="M144.225 61.1729C151.394 61.1729 160.91 59.4744 172.725 55.0533C172.5 54.5038 172.375 53.9043 172.375 53.2798C172.375 52.6554 172.525 52.0559 172.725 51.5063C160.91 47.0852 151.394 45.3867 144.225 45.3867C122.169 45.3618 122.194 61.1729 144.225 61.1729ZM137.131 48.3592C139.854 48.3592 142.052 50.5572 142.052 53.2798C142.052 56.0025 139.854 58.2005 137.131 58.2005C134.409 58.2005 132.211 56.0025 132.211 53.2798C132.211 50.5572 134.409 48.3592 137.131 48.3592Z" fill="white"/>
<path d="M179.048 57.8257C178.499 58.0505 177.899 58.1754 177.275 58.1754C176.65 58.1754 176.051 58.0255 175.501 57.8257C164.261 87.8244 170.755 102.861 177.275 102.861C183.794 102.861 190.263 87.8244 179.048 57.8257ZM177.275 98.3153C174.552 98.3153 172.354 96.1172 172.354 93.3946C172.354 90.672 174.552 88.4739 177.275 88.4739C179.997 88.4739 182.195 90.672 182.195 93.3946C182.195 96.1172 179.997 98.3153 177.275 98.3153Z" fill="white"/>
<path d="M179.222 57.7737C189.912 81.2531 201.852 89.7457 208.521 89.7457C218.412 89.7457 216.539 71.137 181.744 55.2759C181.245 56.3749 180.346 57.2741 179.222 57.7737ZM202.177 78.1809C204.1 76.2575 207.197 76.2575 209.121 78.1809C211.044 80.1042 211.044 83.2015 209.121 85.1248C207.197 87.0481 204.1 87.0481 202.177 85.1248C200.278 83.2015 200.278 80.1042 202.177 78.1809Z" fill="white"/>
<path d="M210.317 45.3608C203.148 45.3608 193.632 47.0594 181.817 51.4805C182.042 52.03 182.167 52.6295 182.167 53.2539C182.167 53.8784 182.017 54.4778 181.817 55.0274C193.632 59.4485 203.148 61.147 210.317 61.147C232.373 61.172 232.348 45.3608 210.317 45.3608ZM217.411 58.1746C214.688 58.1746 212.49 55.9766 212.49 53.2539C212.49 50.5313 214.688 48.3332 217.411 48.3332C220.134 48.3332 222.332 50.5313 222.332 53.2539C222.332 55.9766 220.134 58.1746 217.411 58.1746Z" fill="white"/>
<path d="M175.5 48.707C176.049 48.4821 176.649 48.3573 177.273 48.3573C177.898 48.3573 178.497 48.5071 179.047 48.707C190.287 18.7082 183.793 3.67139 177.273 3.67139C170.754 3.67139 164.285 18.7332 175.5 48.707ZM177.273 8.21742C179.996 8.21742 182.194 10.4155 182.194 13.1381C182.194 15.8607 179.996 18.0588 177.273 18.0588C174.551 18.0588 172.352 15.8607 172.352 13.1381C172.352 10.4155 174.551 8.21742 177.273 8.21742Z" fill="white"/>
<path d="M179.222 48.784C180.346 49.2836 181.245 50.1578 181.744 51.2818C216.539 35.4207 218.387 16.812 208.521 16.812C201.852 16.812 189.912 25.3045 179.222 48.784ZM202.177 21.408C204.1 19.4847 207.197 19.4847 209.121 21.408C211.044 23.3313 211.044 26.4286 209.121 28.3519C207.197 30.2752 204.1 30.2752 202.177 28.3519C200.278 26.4536 200.278 23.3313 202.177 21.408Z" fill="white"/>
<path d="M185.165 101.762C186.638 99.5392 189.836 93.1198 188.562 80.4559C196.105 89.6978 203.349 93.3945 208.519 93.3945C212.965 93.3945 216.387 90.7218 217.212 86.5755C218.385 80.6806 214.539 72.6626 204.523 64.5447C206.546 64.7446 208.469 64.8695 210.343 64.8695C224.305 64.8695 230.55 59.0496 230.55 53.3046C230.55 47.5346 224.305 41.7148 210.343 41.7148C208.494 41.7148 206.546 41.8147 204.548 42.0395C214.564 33.9216 218.41 25.9036 217.237 20.0088C216.412 15.8624 213.015 13.1897 208.544 13.1897C203.349 13.1897 196.105 16.8865 188.587 26.1284C189.86 13.4645 186.663 7.04516 185.19 4.8221C183.141 1.74979 180.344 0.0512695 177.297 0.0512695C174.274 0.0512695 171.452 1.74979 169.403 4.8221C167.93 7.04516 164.732 13.4645 166.006 26.1284C158.463 16.8865 151.219 13.1897 146.049 13.1897C141.603 13.1897 138.181 15.8624 137.357 20.0088C136.183 25.9036 140.029 33.9216 150.045 42.0395C148.022 41.8397 146.099 41.7148 144.225 41.7148C134.834 41.7148 127.89 44.4124 125.167 49.1333C123.643 51.781 123.643 54.8033 125.167 57.451C127.89 62.1718 134.834 64.8695 144.225 64.8695C146.074 64.8695 148.022 64.7696 150.045 64.5447C140.029 72.6626 136.183 80.6806 137.357 86.5755C138.181 90.7218 141.578 93.3945 146.049 93.3945C151.244 93.3945 158.488 89.6978 166.006 80.4559C164.732 93.1198 167.93 99.5392 169.403 101.762C171.452 104.835 174.249 106.533 177.297 106.533C180.294 106.533 183.116 104.835 185.165 101.762ZM177.272 102.861C170.752 102.861 164.283 87.8244 175.498 57.8256C176.048 58.0504 176.647 58.1754 177.272 58.1754C177.896 58.1754 178.495 58.0255 179.045 57.8256C190.26 87.8244 183.791 102.861 177.272 102.861ZM172.8 55.2529C173.3 56.3769 174.199 57.2761 175.323 57.7507C164.632 81.2301 152.693 89.7227 146.024 89.7227C136.157 89.7227 138.006 71.114 172.8 55.2529ZM144.225 45.3616C151.394 45.3616 160.911 47.0601 172.725 51.4812C172.501 52.0308 172.376 52.6302 172.376 53.2547C172.376 53.8791 172.526 54.4786 172.725 55.0281C160.886 59.4492 151.394 61.1478 144.225 61.1478C122.195 61.1727 122.17 45.3616 144.225 45.3616ZM146.024 16.8116C152.693 16.8116 164.632 25.3041 175.323 48.7836C174.199 49.2831 173.3 50.1574 172.8 51.2814C138.006 35.4203 136.157 16.8116 146.024 16.8116ZM177.272 3.69806C183.791 3.69806 190.26 18.7349 179.045 48.7336C178.495 48.5088 177.896 48.3839 177.272 48.3839C176.647 48.3839 176.048 48.5338 175.498 48.7336C164.283 18.7349 170.752 3.69806 177.272 3.69806ZM181.743 51.2814C181.243 50.1574 180.344 49.2581 179.22 48.7836C189.91 25.3041 201.85 16.8116 208.519 16.8116C218.386 16.8116 216.537 35.4203 181.743 51.2814ZM210.318 61.1728C203.149 61.1728 193.632 59.4742 181.818 55.0531C182.042 54.5036 182.167 53.9041 182.167 53.2797C182.167 52.6552 182.017 52.0557 181.818 51.5062C193.657 47.085 203.149 45.3866 210.318 45.3866C232.348 45.3616 232.373 61.1728 210.318 61.1728ZM208.519 89.7227C201.85 89.7227 189.91 81.2301 179.22 57.7507C180.344 57.2511 181.243 56.3769 181.743 55.2529C216.537 71.114 218.386 89.7227 208.519 89.7227Z" fill="#C31632"/>
<path d="M177.271 98.3384C179.989 98.3384 182.192 96.1353 182.192 93.4177C182.192 90.7001 179.989 88.4971 177.271 88.4971C174.553 88.4971 172.35 90.7001 172.35 93.4177C172.35 96.1353 174.553 98.3384 177.271 98.3384Z" fill="#C31632"/>
<path d="M177.271 18.0597C179.989 18.0597 182.192 15.8566 182.192 13.139C182.192 10.4213 179.989 8.21826 177.271 8.21826C174.553 8.21826 172.35 10.4213 172.35 13.139C172.35 15.8566 174.553 18.0597 177.271 18.0597Z" fill="#C31632"/>
<path d="M217.413 48.3579C214.691 48.3579 212.492 50.556 212.492 53.2786C212.492 56.0012 214.691 58.1993 217.413 58.1993C220.136 58.1993 222.334 56.0012 222.334 53.2786C222.334 50.556 220.136 48.3579 217.413 48.3579Z" fill="#C31632"/>
<path d="M137.131 58.172C139.854 58.172 142.052 55.9739 142.052 53.2513C142.052 50.5286 139.854 48.3306 137.131 48.3306C134.408 48.3306 132.21 50.5286 132.21 53.2513C132.21 55.9739 134.408 58.172 137.131 58.172Z" fill="#C31632"/>
<path d="M205.649 29.7989C208.367 29.7989 210.57 27.5958 210.57 24.8782C210.57 22.1606 208.367 19.9575 205.649 19.9575C202.932 19.9575 200.729 22.1606 200.729 24.8782C200.729 27.5958 202.932 29.7989 205.649 29.7989Z" fill="#C31632"/>
<path d="M145.424 78.1822C143.501 80.1055 143.501 83.2028 145.424 85.1262C147.348 87.0495 150.445 87.0495 152.368 85.1262C154.292 83.2028 154.292 80.1055 152.368 78.1822C150.445 76.2589 147.323 76.2589 145.424 78.1822Z" fill="#C31632"/>
<path d="M209.119 85.1262C211.042 83.2028 211.042 80.1055 209.119 78.1822C207.195 76.2589 204.098 76.2589 202.175 78.1822C200.251 80.1055 200.251 83.2028 202.175 85.1262C204.098 87.0495 207.22 87.0495 209.119 85.1262Z" fill="#C31632"/>
<path d="M145.424 21.4067C143.501 23.33 143.501 26.4273 145.424 28.3506C147.348 30.2739 150.445 30.2739 152.368 28.3506C154.292 26.4273 154.292 23.33 152.368 21.4067C150.445 19.5083 147.323 19.5083 145.424 21.4067Z" fill="#C31632"/>
<path d="M122 245.983C56.2253 244.925 3.09999 191.777 2.01854 126L104.379 126C105.316 135.302 112.718 142.686 122 143.623L122 245.983Z" fill="#F3A41E" stroke="#F3A41E" stroke-width="4"/>
<path d="M102.909 21.1576C101.11 24.7795 99.387 28.2265 100.886 33.7966C102.384 39.3667 105.582 41.4898 108.954 43.7379C112.476 46.0608 116.447 48.7085 118.246 55.3777C120.019 62.0468 117.896 66.3431 116.022 70.1148C114.224 73.7616 112.501 77.1836 113.999 82.7787C115.498 88.3738 118.695 90.4969 122.067 92.745C122.767 93.2195 123.491 93.7191 124.215 94.2437L124.215 92.2954C122.092 89.8975 120.269 86.8501 119.844 82.0293C119.27 75.4851 121.817 71.6884 124.215 68.4163L124.215 46.2357C123.666 45.6862 123.116 45.1366 122.542 44.6121C119.469 41.6897 116.022 38.3926 115.423 31.5236C114.824 24.6546 117.671 20.808 120.169 17.4109C121.942 15.013 123.641 12.6901 124.215 9.31801L124.215 4.32239C123.99 2.67383 123.566 1.27505 122.991 0.0761022C116.247 0.151031 109.653 0.750518 103.209 1.84956C103.958 3.14841 104.632 4.6471 105.107 6.44553C106.905 13.0897 104.782 17.361 102.909 21.1576Z" fill="#C31632"/>
<path d="M122.818 81.7533C123.018 83.9264 123.518 85.6499 124.242 87.0986L124.242 73.8852C123.193 75.9834 122.518 78.4062 122.818 81.7533Z" fill="#C31632"/>
<path d="M118.395 31.2474C118.869 36.7426 121.442 39.4152 124.24 42.0879L124.24 16.81C123.69 17.6343 123.141 18.4086 122.566 19.158C120.168 22.3801 117.895 25.4774 118.395 31.2474Z" fill="#C31632"/>
<path d="M17.1108 95.3908C19.3588 98.7629 21.482 101.96 27.0521 103.459C32.6223 104.957 36.0692 103.234 39.6911 101.436C43.4628 99.5622 47.759 97.439 54.4281 99.2125C61.0973 101.011 63.745 104.982 66.068 108.504C68.316 111.876 70.4391 115.074 76.0342 116.572C81.6293 118.071 85.0513 116.372 88.6981 114.549C92.4948 112.676 96.7661 110.553 103.435 112.326C105.808 112.95 107.657 113.875 109.18 114.949C109.355 114.649 109.53 114.349 109.73 114.074C108.731 113.2 107.532 112.401 106.008 111.702C100.763 109.254 97.0908 110.353 93.1942 111.477C89.1478 112.676 84.5518 114.025 78.2823 111.102C72.0378 108.18 70.1144 103.808 68.4159 99.9368C66.7923 96.2151 65.2436 92.6932 60.0232 90.2703C54.7778 87.8224 51.1061 88.8965 47.2095 90.0705C43.163 91.2694 38.567 92.6182 32.3225 89.6958C26.0779 86.7734 24.1547 82.4022 22.4562 78.5306C20.8326 74.8088 19.3089 71.2869 14.0635 68.864C13.7637 68.7142 13.489 68.6392 13.1892 68.5144C10.3167 74.2094 7.89393 80.1292 5.92065 86.2738C12.2401 88.0972 14.8378 91.9438 17.1108 95.3908Z" fill="#C31632"/>
<path d="M87.8748 123.392C87.4751 123.667 87.0754 123.966 86.6758 124.266L106.483 124.266C106.483 123.317 106.608 122.393 106.758 121.469C105.01 120.32 102.887 119.47 99.9642 119.221C94.2192 118.721 91.1469 120.994 87.8748 123.392Z" fill="#C31632"/>
<path d="M12.2891 114.55C15.0867 117.497 17.7344 120.27 23.4794 120.769C29.2243 121.244 32.3216 118.996 35.5688 116.598C38.9658 114.1 42.8374 111.253 49.6814 111.852C56.5504 112.451 59.8475 115.923 62.7699 118.971C64.7931 121.094 66.7414 123.092 69.7888 124.266L80.7792 124.266C82.7525 123.467 84.401 122.268 86.0995 121.019C89.4965 118.521 93.3681 115.674 100.237 116.273C103.284 116.548 105.607 117.397 107.531 118.521C107.631 118.221 107.681 117.922 107.805 117.647C106.482 116.648 104.858 115.799 102.685 115.224C97.0899 113.725 93.6679 115.424 90.0211 117.222C86.2494 119.096 81.9531 121.219 75.284 119.445C68.6148 117.647 65.9671 113.675 63.6442 110.153C61.3961 106.781 59.273 103.584 53.7028 102.086C48.1327 100.587 44.6857 102.31 41.0639 104.109C37.2922 105.982 32.996 108.105 26.3268 106.332C19.6577 104.558 17.01 100.562 14.687 97.0399C12.4889 93.7428 10.3908 90.6206 5.12041 89.0969C3.34697 95.1416 2.02308 101.361 1.17383 107.731C6.69399 108.73 9.66642 111.802 12.2891 114.55Z" fill="#C31632"/>
<path d="M60.6469 121.019C57.8493 118.072 55.2017 115.299 49.4317 114.799C43.6618 114.3 40.5895 116.573 37.3423 118.971C33.9453 121.469 30.0987 124.316 23.2297 123.717C16.3607 123.117 13.0636 119.645 10.1412 116.598C7.64338 113.975 5.27043 111.502 0.749389 110.628C0.249827 115.099 -2.01988e-07 119.645 0 124.266L64.044 124.266C62.7701 123.217 61.671 122.093 60.6469 121.019Z" fill="#C31632"/>
<path d="M25.2025 77.3335C26.8261 81.0552 28.3497 84.5771 33.5951 87C38.8155 89.4479 42.5123 88.3488 46.4089 87.1998C50.4553 86.0009 55.0513 84.6521 61.2958 87.5745C67.5404 90.497 69.4637 94.8681 71.1622 98.7397C72.7858 102.461 74.3344 105.983 79.5548 108.406C84.8002 110.854 88.472 109.78 92.3686 108.631C96.4151 107.457 101.011 106.083 107.281 109.006C109.054 109.83 110.453 110.779 111.627 111.778C111.902 111.504 112.201 111.279 112.501 111.029C111.802 110.28 110.952 109.53 109.928 108.831C105.182 105.509 101.386 105.933 97.3393 106.383C93.118 106.858 88.3722 107.382 82.7271 103.436C77.0821 99.4891 75.958 94.8182 74.9589 90.7218C74.0097 86.7752 73.1105 83.0535 68.3647 79.7314C63.6438 76.4093 59.8222 76.8589 55.8007 77.3085C51.6044 77.7831 46.8585 78.3076 41.1885 74.3611C35.5434 70.4145 34.4193 65.7436 33.4202 61.6472C32.4711 57.7007 31.5719 53.9789 26.826 50.6568C26.2016 50.2072 25.5771 49.8326 24.9776 49.5328C21.106 54.6783 17.6341 60.1236 14.5618 65.8435C14.8115 65.9435 15.0613 66.0184 15.3361 66.1433C21.5806 69.0657 23.504 73.4619 25.2025 77.3335Z" fill="#C31632"/>
<path d="M50.0558 46.7587C50.3055 50.8052 50.5554 54.6268 54.6268 58.7232C58.7232 62.8196 62.5448 63.0444 66.5913 63.2942C70.8126 63.544 75.5834 63.8687 80.4542 68.7395C85.3249 73.6102 85.6246 78.406 85.8994 82.6023C86.1492 86.6488 86.3989 90.4704 90.4704 94.5668C94.5668 98.6633 98.3884 98.913 102.435 99.1628C106.656 99.4376 111.427 99.7373 116.323 104.608C117.272 105.557 118.071 106.506 118.696 107.456C119.095 107.331 119.495 107.181 119.92 107.081C119.62 106.506 119.27 105.932 118.871 105.357C115.548 100.612 111.827 99.7123 107.88 98.7632C103.784 97.764 99.1128 96.64 95.1663 90.995C91.2197 85.3499 91.7443 80.5791 92.2188 76.3828C92.6685 72.3363 93.0931 68.5396 89.796 63.7938C86.4739 59.0729 82.7521 58.1737 78.8056 57.1996C74.7092 56.2004 70.0383 55.0764 66.0917 49.4314C62.1452 43.7863 62.6697 39.0155 63.1443 34.8192C63.5939 30.7727 64.0186 26.976 60.7215 22.2302C59.8223 20.9563 58.898 19.9572 57.9239 19.1579C52.4037 22.6548 47.1583 26.5764 42.2876 30.8726C43.0619 31.4471 43.8362 32.0716 44.6355 32.8459C49.5063 37.7666 49.806 42.5624 50.0558 46.7587Z" fill="#C31632"/>
<path d="M63.1468 20.5821C67.0934 26.2272 66.5689 30.998 66.0943 35.1943C65.6447 39.2158 65.2201 43.0374 68.5172 47.7583C71.8393 52.4792 75.561 53.4034 79.5075 54.3525C83.604 55.3517 88.2749 56.4757 92.2214 62.1207C96.1679 67.7658 95.6434 72.5366 95.1688 76.7329C94.7192 80.7794 94.2946 84.5761 97.5917 89.3219C100.914 94.0678 104.635 94.967 108.582 95.9161C112.678 96.9153 117.349 98.0393 121.296 103.684C122.02 104.708 122.57 105.683 123.019 106.657C123.419 106.632 123.819 106.532 124.218 106.532L124.218 106.357C124.044 105.857 123.919 105.383 123.669 104.858C121.221 99.6129 117.699 98.0892 113.977 96.4407C110.106 94.7422 105.71 92.8189 102.787 86.5743C99.8647 80.3298 101.213 75.7338 102.412 71.6874C103.561 67.7908 104.636 64.119 102.188 58.8736C99.7398 53.6531 96.2429 52.1045 92.5211 50.4809C88.6495 48.7824 84.2534 46.8841 81.3559 40.6146C78.4335 34.37 79.7823 29.774 80.9812 25.7276C82.1302 21.831 83.2043 18.1592 80.7564 12.9138C79.9571 11.2153 79.0579 9.94142 78.0588 8.89234C71.9391 11.3402 66.0443 14.2377 60.4492 17.5847C61.4234 18.409 62.2976 19.3832 63.1468 20.5821Z" fill="#C31632"/>
<path d="M36.2931 60.9726C37.2422 64.9191 38.1415 68.6409 42.8873 71.9629C47.6082 75.285 51.4299 74.8354 55.4513 74.3858C59.6477 73.8863 64.3935 73.3867 70.0636 77.3332C75.7086 81.2798 76.8326 85.9507 77.8317 90.0471C78.7809 93.9937 79.6801 97.7154 84.426 101.037C89.1718 104.36 92.9685 103.935 97.015 103.485C101.211 103.011 105.982 102.486 111.627 106.433C112.926 107.357 113.975 108.306 114.849 109.28C115.199 109.055 115.574 108.881 115.948 108.681C115.474 108.031 114.949 107.382 114.275 106.733C110.178 102.636 106.357 102.386 102.31 102.137C98.089 101.862 93.3182 101.562 88.4225 96.6913C83.5518 91.8206 83.252 87.0248 82.9772 82.8284C82.7274 78.782 82.4777 74.9603 78.3812 70.8639C74.3098 66.7925 70.4632 66.5427 66.4168 66.2929C62.1955 66.0182 57.4246 65.7184 52.5539 60.8477C47.6831 55.9769 47.3834 51.1811 47.1086 46.9848C46.8589 42.9384 46.609 39.1167 42.5376 35.0203C41.6883 34.171 40.8641 33.5216 40.0149 32.9721C35.244 37.3682 30.8479 42.1391 26.8264 47.2346C27.4009 47.5593 27.9504 47.884 28.5499 48.2837C34.17 52.2052 35.2939 56.8512 36.2931 60.9726Z" fill="#C31632"/>
<path d="M83.8749 26.5533C82.7259 30.4498 81.6518 34.1216 84.0997 39.367C86.5476 44.6124 90.0445 46.1361 93.7662 47.7597C97.6378 49.4582 102.034 51.3565 104.931 57.6011C107.854 63.8456 106.505 68.4416 105.306 72.513C104.157 76.4096 103.083 80.0814 105.531 85.3268C107.979 90.5722 111.501 92.0959 115.222 93.7444C118.245 95.0683 121.567 96.542 124.264 100.089L124.264 98.0407C123.091 96.9916 121.792 96.1173 120.468 95.2431C116.946 92.8952 112.949 90.2475 111.176 83.5783C109.403 76.9092 111.526 72.6129 113.399 68.8412C115.197 65.1944 116.921 61.7724 115.422 56.1773C113.924 50.6072 110.726 48.484 107.354 46.236C103.832 43.9131 99.8359 41.2654 98.0625 34.5962C96.289 27.927 98.4122 23.6558 100.286 19.8591C102.084 16.2373 103.807 12.7903 102.309 7.22018C101.784 5.22193 101.01 3.69826 100.111 2.42438C93.5914 3.72324 87.2219 5.49669 81.1023 7.7697C81.9765 8.84376 82.8008 10.1426 83.5252 11.7162C86.4226 17.9108 85.0739 22.5068 83.8749 26.5533Z" fill="#C31632"/>
<path d="M124.241 0.000225967C123.842 0.000225985 123.417 0.0251999 123.017 0.0251999C123.592 1.22415 124.017 2.62293 124.241 4.27148L124.241 0.000225967Z" fill="black"/>
<path d="M120.195 17.3608C117.697 20.7578 114.85 24.6044 115.449 31.4734C116.049 38.3424 119.521 41.6395 122.568 44.562C123.143 45.1115 123.692 45.636 124.242 46.1855L124.242 42.0392C121.444 39.3665 118.871 36.7188 118.397 31.1987C117.897 25.4537 120.17 22.3564 122.568 19.0843C123.118 18.3349 123.692 17.5606 124.242 16.7363L124.242 9.24289C123.667 12.6399 121.969 14.9629 120.195 17.3608Z" fill="black"/>
<path d="M81.052 25.727C79.8531 29.7735 78.5042 34.3695 81.4267 40.614C84.3491 46.8585 88.7203 48.7819 92.5919 50.4804C96.3136 52.1039 99.8106 53.6276 102.258 58.873C104.706 64.1184 103.607 67.7902 102.483 71.6868C101.284 75.7333 99.9355 80.3292 102.858 86.5738C105.78 92.8183 110.176 94.7416 114.048 96.4401C117.77 98.0637 121.292 99.6123 123.74 104.858C123.989 105.382 124.089 105.857 124.289 106.356L124.289 100.062C121.592 96.54 118.269 95.0414 115.247 93.7175C111.525 92.0939 108.003 90.5453 105.556 85.2999C103.108 80.0545 104.207 76.3827 105.331 72.4861C106.53 68.4396 107.879 63.8437 104.956 57.5742C102.034 51.3296 97.6625 49.4063 93.7909 47.7328C90.0691 46.1092 86.5472 44.5855 84.1243 39.3401C81.6765 34.0947 82.7755 30.4229 83.8996 26.5263C85.0985 22.4799 86.4473 17.8839 83.5248 11.6394C82.8005 10.0658 81.9762 8.79187 81.1019 7.69283C80.1028 8.0675 79.1287 8.46716 78.1545 8.84183C79.1537 9.89091 80.0529 11.1648 80.8522 12.8633C83.2751 18.1337 82.201 21.8305 81.052 25.727Z" fill="black"/>
<path d="M22.478 78.5074C24.1766 82.379 26.0749 86.7751 32.3444 89.6726C38.589 92.5951 43.1849 91.2213 47.2314 90.0473C51.128 88.8983 54.7998 87.8242 60.0452 90.2471C65.2906 92.695 66.8143 96.1919 68.4379 99.9136C70.1364 103.785 72.0347 108.181 78.3042 111.079C84.5487 114.001 89.1697 112.652 93.2161 111.454C97.1127 110.305 100.785 109.23 106.03 111.678C107.554 112.378 108.753 113.202 109.752 114.051C110.326 113.252 110.951 112.478 111.625 111.778C110.451 110.754 109.052 109.83 107.279 109.006C101.034 106.083 96.4383 107.457 92.3669 108.631C88.4703 109.78 84.7985 110.854 79.5531 108.406C74.3077 105.958 72.784 102.461 71.1605 98.7397C69.462 94.8681 67.5636 90.4719 61.2941 87.5745C55.0495 84.677 50.4536 86.0258 46.4071 87.1998C42.5105 88.3488 38.8387 89.4228 33.5933 87C28.3479 84.5521 26.8243 81.0552 25.2007 77.3334C23.5022 73.4618 21.6038 69.0657 15.3343 66.1682C15.0596 66.0433 14.8348 65.9684 14.56 65.8685C14.0854 66.7427 13.6608 67.6169 13.2112 68.5161C13.5109 68.641 13.7857 68.716 14.0854 68.8658C19.3308 71.2887 20.8545 74.7857 22.478 78.5074Z" fill="black"/>
<path d="M62.7929 118.971C59.8704 115.898 56.5733 112.451 49.7044 111.852C42.8604 111.253 38.9887 114.1 35.5917 116.598C32.3195 119.021 29.2472 121.269 23.5023 120.769C17.7323 120.27 15.1097 117.497 12.3121 114.55C9.6894 111.802 6.717 108.73 1.14687 107.706C1.02198 108.68 0.872129 109.654 0.772216 110.628C5.29326 111.502 7.66613 113.975 10.1639 116.598C13.0864 119.645 16.3835 123.117 23.2525 123.717C30.1215 124.316 33.9681 121.469 37.3652 118.971C40.6373 116.548 43.7096 114.275 49.4546 114.799C55.2245 115.299 57.8472 118.072 60.6697 121.019C61.6938 122.093 62.7929 123.217 64.0668 124.266L69.8617 124.266C66.7394 123.117 64.7911 121.094 62.7929 118.971Z" fill="black"/>
<path d="M100.261 19.8331C98.3879 23.6048 96.2648 27.901 98.0382 34.5702C99.8116 41.2394 103.808 43.887 107.33 46.21C110.702 48.458 113.899 50.5812 115.398 56.1513C116.897 61.7464 115.198 65.1684 113.375 68.8152C111.501 72.5869 109.378 76.8831 111.152 83.5523C112.95 90.2215 116.922 92.8692 120.444 95.2171C121.767 96.0913 123.066 96.9656 124.24 98.0146L124.24 94.2429C123.516 93.7184 122.792 93.2188 122.092 92.7443C118.72 90.4962 115.523 88.3731 114.024 82.778C112.526 77.1829 114.224 73.7609 116.047 70.1141C117.921 66.3424 120.044 62.0461 118.271 55.377C116.497 48.7078 112.501 46.0601 108.979 43.7372C105.607 41.4891 102.409 39.366 100.911 33.7959C99.4121 28.2257 101.111 24.7788 102.934 21.1569C104.807 17.3852 106.93 13.089 105.157 6.41985C104.682 4.59644 104.008 3.12272 103.259 1.82385C102.21 1.9987 101.161 2.17355 100.111 2.37337C101.011 3.64726 101.76 5.1959 102.31 7.16917C103.758 12.7643 102.06 16.1863 100.261 19.8331Z" fill="black"/>
<path d="M14.6343 97.0164C16.9823 100.538 19.6299 104.535 26.2741 106.308C32.9433 108.082 37.2145 105.959 41.0112 104.085C44.633 102.287 48.08 100.563 53.6501 102.062C59.2452 103.561 61.3434 106.758 63.5915 110.13C65.9394 113.652 68.5871 117.648 75.2313 119.422C81.9004 121.195 86.1967 119.072 89.9684 117.199C93.6152 115.4 97.0372 113.702 102.632 115.2C104.805 115.775 106.429 116.624 107.753 117.623C108.127 116.699 108.602 115.8 109.127 114.976C107.603 113.902 105.755 112.977 103.382 112.353C96.7124 110.555 92.4162 112.703 88.6445 114.576C84.9977 116.374 81.5757 118.098 75.9806 116.599C70.3855 115.101 68.2624 111.903 66.0143 108.531C63.6664 105.009 61.0187 101.013 54.3745 99.2394C47.7054 97.466 43.4341 99.5891 39.6374 101.462C35.9906 103.261 32.5686 104.959 26.9985 103.486C21.4034 101.987 19.3052 98.7898 17.0572 95.4178C14.7842 91.9958 12.1865 88.1242 5.89197 86.2758C5.59223 87.2 5.31748 88.1491 5.04272 89.0983C10.3631 90.622 12.4612 93.7193 14.6343 97.0164Z" fill="black"/>
<path d="M47.1082 46.9578C47.3829 51.1791 47.6826 55.95 52.5534 60.8207C57.4241 65.6914 62.195 65.9912 66.4163 66.2659C70.4627 66.5157 74.2843 66.7655 78.3808 70.8369C82.4772 74.9333 82.702 78.755 82.9767 82.8014C83.2515 87.0227 83.5513 91.7936 88.422 96.6643C93.2927 101.535 98.0885 101.835 102.31 102.11C106.356 102.359 110.203 102.609 114.274 106.706C114.924 107.355 115.473 108.004 115.948 108.654C116.847 108.179 117.771 107.78 118.745 107.455C118.096 106.506 117.322 105.557 116.373 104.607C111.502 99.7366 106.706 99.4119 102.485 99.1621C98.4382 98.9123 94.5916 98.6626 90.5202 94.5661C86.4238 90.4697 86.1989 86.6481 85.9491 82.6016C85.6744 78.3803 85.3746 73.6095 80.5039 68.7388C75.6332 63.868 70.8624 63.5683 66.6411 63.2935C62.5946 63.0437 58.7729 62.794 54.6765 58.7225C50.5801 54.6261 50.3553 50.8045 50.1056 46.758C49.8308 42.5367 49.531 37.7659 44.6603 32.8951C43.886 32.1208 43.0866 31.4714 42.3123 30.9219C41.563 31.5963 40.7886 32.2457 40.0393 32.9451C40.8636 33.4946 41.7129 34.1441 42.5621 34.9933C46.6086 39.0647 46.8584 42.9114 47.1082 46.9578Z" fill="black"/>
<path d="M100.235 116.273C93.3658 115.649 89.4942 118.521 86.0971 121.019C84.3986 122.268 82.7751 123.467 80.7769 124.266L86.6467 124.266C87.0463 123.966 87.446 123.692 87.8456 123.392C91.1178 120.994 94.1901 118.696 99.96 119.221C102.882 119.47 105.006 120.32 106.754 121.469C106.929 120.444 107.179 119.47 107.503 118.521C105.605 117.397 103.307 116.548 100.235 116.273Z" fill="black"/>
<path d="M33.4165 61.6461C34.4156 65.7425 35.5397 70.4134 41.1848 74.3599C46.8298 78.3065 51.5757 77.7819 55.797 77.3074C59.8185 76.8578 63.6401 76.4331 68.361 79.7302C73.1068 83.0523 74.006 86.7741 74.9552 90.7206C75.9543 94.817 77.0783 99.4879 82.7234 103.434C88.3685 107.406 93.1142 106.856 97.3355 106.382C101.357 105.932 105.179 105.508 109.925 108.83C110.949 109.554 111.773 110.278 112.497 111.028C113.247 110.378 114.021 109.754 114.845 109.229C113.971 108.255 112.922 107.306 111.623 106.382C105.978 102.41 101.207 102.96 97.0109 103.434C92.9644 103.884 89.1677 104.309 84.4219 100.987C79.6761 97.6645 78.7768 93.9428 77.8276 89.9962C76.8285 85.8998 75.7045 81.2289 70.0595 77.2824C64.4144 73.3358 59.6686 73.8354 55.4472 74.335C51.4258 74.7846 47.6041 75.2092 42.8833 71.9121C38.1374 68.59 37.2382 64.8682 36.289 60.9217C35.2899 56.8253 34.1659 52.1544 28.5208 48.2078C27.9463 47.8082 27.3718 47.4585 26.7973 47.1588C26.1729 47.9331 25.5484 48.7074 24.949 49.5067C25.5484 49.8314 26.1729 50.1811 26.7973 50.6307C31.5432 53.9778 32.4673 57.6995 33.4165 61.6461Z" fill="black"/>
<path d="M60.7188 22.2802C64.0408 27.001 63.6161 30.8227 63.1416 34.8691C62.667 39.0655 62.1425 43.8363 66.089 49.4813C70.0356 55.1264 74.7065 56.2504 78.8029 57.2495C82.7494 58.1987 86.4712 59.0979 89.7933 63.8438C93.1154 68.5896 92.6907 72.3863 92.2161 76.4327C91.7416 80.6291 91.217 85.3749 95.1635 91.0449C99.1351 96.69 103.781 97.839 107.877 98.8131C111.824 99.7623 115.546 100.686 118.868 105.407C119.292 106.007 119.617 106.581 119.917 107.131C120.916 106.881 121.94 106.756 122.989 106.681C122.54 105.707 121.99 104.733 121.266 103.709C117.294 98.0638 112.648 96.9398 108.552 95.9407C104.605 94.9915 100.884 94.0673 97.5615 89.3464C94.2394 84.6006 94.664 80.8039 95.1386 76.7575C95.6132 72.5611 96.1377 67.7903 92.1911 62.1452C88.2446 56.5002 83.5987 55.3762 79.4773 54.3771C75.5307 53.4279 71.809 52.5287 68.4869 47.7828C65.1648 43.062 65.5894 39.2403 66.064 35.2188C66.5386 31.0225 67.0632 26.2517 63.1166 20.6066C62.2674 19.4077 61.3931 18.4585 60.5189 17.6092C59.6447 18.1338 58.7704 18.6833 57.9211 19.2328C58.8703 20.0071 59.8195 20.9813 60.7188 22.2802Z" fill="black"/>
<path d="M119.87 82.0045C120.295 86.8253 122.118 89.8726 124.241 92.2705L124.241 87.1C123.517 85.6513 123.017 83.9028 122.817 81.7547C122.518 78.4076 123.192 75.9848 124.241 73.8866L124.241 68.3914C121.843 71.6635 119.295 75.4852 119.87 82.0045Z" fill="black"/>
<path d="M177.253 247.507C206.664 247.507 230.507 223.665 230.507 194.254C230.507 164.843 206.664 141 177.253 141C147.842 141 124 164.843 124 194.254C124 223.665 147.842 247.507 177.253 247.507Z" fill="#88D0C8"/>
<path d="M177.253 141H124V194.254C160.443 194.254 177.253 177.444 177.253 141Z" fill="#C31632"/>
<path d="M177.255 247.509H230.508V194.255C194.065 194.255 177.255 211.066 177.255 247.509Z" fill="#C31632"/>
<path d="M124 194.255V247.509H177.253C177.253 211.066 160.443 194.255 124 194.255Z" fill="#C31632"/>
<path d="M177.255 141C177.255 177.444 194.065 194.254 230.508 194.254V141H177.255Z" fill="#C31632"/>
</svg>
