<svg width="350" height="368" viewBox="0 0 350 368" fill="none" xmlns="http://www.w3.org/2000/svg">
<path d="M302.466 288.25L97.8409 288.466L98.035 259.018L302.725 258.801C301.664 268.595 301.566 278.459 302.466 288.25Z" fill="black"/>
<path d="M95.7208 261.328L95.5571 286.035C91.4067 285.642 87.4111 284.278 83.8839 282.027C82.0823 280.948 80.4714 279.671 79.0054 278.189C74.4351 273.564 71.7706 267.563 71.357 261.15L95.7208 261.328Z" fill="#88D0C8"/>
<path d="M69.0073 258.829L69.1984 230.167L51.9178 212.643L31.6584 232.643C32.6659 234.245 33.886 235.771 35.2526 237.157L77.356 279.846C78.9213 281.423 80.7103 282.834 82.6306 284.001C87.0331 286.811 92.2809 288.447 97.8523 288.486L98.0545 259.428L97.6694 259.02L69.0073 258.829ZM79.0162 278.208C74.4458 273.583 71.7814 267.582 71.3677 261.169L95.7246 261.327L95.561 286.035C91.4105 285.641 87.4149 284.277 83.8878 282.027C82.0862 280.948 80.4559 279.677 79.0162 278.208Z" fill="#F3A41E"/>
<path d="M122.945 163.172L142.918 183.419C141.893 185.005 140.678 186.485 139.291 187.851L98.2822 228.309L98.5502 187.219L122.945 163.172Z" fill="black"/>
<path d="M69.786 145.876L70.1505 145.92C84.088 146.134 95.6033 156.235 98.1523 169.427L69.62 169.233L69.786 145.876Z" fill="#88D0C8"/>
<path d="M47.8899 169.051C41.468 169.01 35.6143 166.348 31.4553 162.144C27.2231 157.856 24.7243 152.013 24.7387 145.579L69.81 145.887L69.644 169.244L47.8899 169.051Z" fill="black"/>
<path d="M124.381 163.186L139.533 148.234C147.958 157.433 149.273 171.195 142.749 181.805L124.381 163.186Z" fill="#C31632"/>
<path d="M139.479 149.735C146.676 158.239 147.879 170.406 142.526 180.141L125.829 163.214L139.479 149.735ZM139.56 146.786L122.927 163.203L142.9 183.45C150.546 172.201 149.484 156.823 139.56 146.786Z" fill="black"/>
<path d="M103.02 113.01L136.307 146.749L122.974 159.897L104.36 141.017C100.4 137.003 98.2571 131.731 98.3347 126.146C98.3113 121.316 99.9683 116.736 103.02 113.01Z" fill="#F3A41E"/>
<path d="M122.945 163.175L139.579 146.757L102.956 109.654C98.3758 114.165 96.0211 120.149 95.9972 126.129C95.9277 132.103 98.1696 138.081 102.681 142.661L122.945 163.175ZM104.348 141.042C100.387 137.029 98.2447 131.756 98.3224 126.171C98.3377 121.327 99.9753 116.754 103.027 113.029L136.314 146.767L122.981 159.915L104.348 141.042Z" fill="#C31632"/>
<path d="M69.0046 258.829L69.1957 230.167L69.6382 169.225L98.1706 169.419C98.5083 171.282 98.6706 173.142 98.6535 175.109L98.5697 187.213L98.3016 228.304L98.063 259.031L69.0046 258.829Z" fill="#C31632"/>
<path d="M35.5349 196.061L51.9196 212.663L31.6534 232.644C24.1965 221.334 25.4909 205.965 35.5349 196.061Z" fill="black"/>
<path d="M56.509 175.372C61.0531 179.984 63.2826 185.988 63.2255 191.937C63.1947 197.898 60.8649 203.829 56.2531 208.373L51.9023 212.671L35.5176 196.069L56.509 175.372Z" fill="#88D0C8"/>
<path d="M349.506 294.091L349.506 286.635C318.649 286.635 293.62 261.606 293.62 230.748L286.163 230.748C286.163 265.684 314.57 294.091 349.506 294.091Z" fill="black"/>
<path d="M349.506 259.908L349.506 252.452C337.534 252.452 327.802 242.72 327.802 230.748L320.346 230.748C320.364 246.833 333.421 259.908 349.506 259.908Z" fill="black"/>
<path d="M349.506 271.302L349.506 263.846C331.25 263.846 316.408 249.021 316.408 230.748L308.952 230.748C308.969 253.117 327.137 271.302 349.506 271.302Z" fill="black"/>
<path d="M349.506 282.696V275.24C324.95 275.24 305.014 255.304 305.014 230.748L297.558 230.748C297.558 259.4 320.854 282.696 349.506 282.696Z" fill="black"/>
<path d="M349.506 305.485L349.506 298.029C312.365 298.029 282.225 267.889 282.225 230.748L274.769 230.748C274.769 271.967 308.287 305.485 349.506 305.485Z" fill="black"/>
<path d="M349.506 339.685L349.506 332.229C293.462 332.229 248.042 286.792 248.042 230.765L240.586 230.765C240.586 290.817 289.454 339.685 349.506 339.685Z" fill="black"/>
<path d="M349.506 351.08L349.506 343.624C287.178 343.624 236.63 293.093 236.63 230.748L229.174 230.748C229.192 297.101 283.17 351.08 349.506 351.08Z" fill="black"/>
<path d="M349.506 316.879L349.506 309.423C306.064 309.423 270.831 274.19 270.831 230.748L263.375 230.748C263.375 278.251 302.003 316.879 349.506 316.879Z" fill="black"/>
<path d="M349.506 328.274L349.506 320.818C299.763 320.818 259.436 280.491 259.436 230.748L251.98 230.748C251.98 284.534 295.72 328.274 349.506 328.274Z" fill="black"/>
<path d="M229.192 230.748L225.253 230.748C225.253 235.036 225.463 239.272 225.901 243.455C226.531 249.721 227.634 255.847 229.174 261.798C230.714 267.749 232.675 273.542 235.02 279.108C237.383 284.692 240.131 290.048 243.246 295.176C245.329 298.589 247.552 301.897 249.95 305.082C272.616 335.38 308.777 355.001 349.523 355.001L349.523 351.062C283.17 351.08 229.192 297.101 229.192 230.748Z" fill="#C31632"/>
<path d="M240.586 230.748L236.648 230.748C236.648 293.076 287.178 343.624 349.523 343.624V339.686C289.454 339.686 240.586 290.818 240.586 230.748Z" fill="#C31632"/>
<path d="M251.98 230.748L248.042 230.748C248.042 286.792 293.48 332.212 349.506 332.212L349.506 328.274C295.72 328.274 251.98 284.534 251.98 230.748Z" fill="#C31632"/>
<path d="M263.375 230.748L259.437 230.748C259.437 280.491 299.763 320.818 349.506 320.818V316.879C302.003 316.879 263.375 278.251 263.375 230.748Z" fill="#C31632"/>
<path d="M274.769 230.748L270.831 230.748C270.831 274.19 306.064 309.423 349.506 309.423L349.506 305.485C308.287 305.485 274.769 271.967 274.769 230.748Z" fill="#C31632"/>
<path d="M286.163 230.748L282.225 230.748C282.225 267.889 312.365 298.029 349.506 298.029V294.091C314.57 294.091 286.163 265.684 286.163 230.748Z" fill="#C31632"/>
<path d="M297.558 230.748L293.62 230.748C293.62 261.606 318.649 286.635 349.506 286.635L349.506 282.696C320.854 282.696 297.558 259.4 297.558 230.748Z" fill="#C31632"/>
<path d="M308.969 230.748L305.031 230.748C305.031 255.304 324.967 275.24 349.523 275.24L349.523 271.302C327.137 271.302 308.969 253.117 308.969 230.748Z" fill="#C31632"/>
<path d="M320.364 230.748L316.426 230.748C316.426 249.003 331.25 263.846 349.523 263.846V259.908C333.421 259.908 320.364 246.833 320.364 230.748Z" fill="#C31632"/>
<path d="M331.758 230.748L327.82 230.748C327.82 242.72 337.551 252.452 349.523 252.452L349.523 248.513C339.704 248.513 331.758 240.567 331.758 230.748Z" fill="#C31632"/>
<path d="M278.269 231L331.523 231L331.523 177.747L278.269 177.747L278.269 231ZM296.029 195.506L313.788 195.506L313.788 213.266L296.029 213.266L296.029 195.506Z" fill="#88D0C8"/>
<path d="M278.268 124.492L225.015 124.492L225.015 177.745L278.268 177.745L278.268 124.492ZM260.534 159.986L242.774 159.986L242.774 142.226L260.534 142.226L260.534 159.986Z" fill="#88D0C8"/>
<path d="M278.268 231L278.268 177.747L225.015 177.747L225.015 231L278.268 231ZM242.774 195.506L260.534 195.506L260.534 213.266L242.774 213.266L242.774 195.506Z" fill="#C31632"/>
<path d="M296.03 213.24L313.789 213.24L313.789 195.48L296.03 195.48L296.03 213.24Z" fill="#C31632"/>
<path d="M242.775 159.985L260.535 159.985L260.535 142.226L242.775 142.226L242.775 159.985Z" fill="#C31632"/>
<path d="M331.523 177.745L331.523 124.492L278.269 124.492L278.269 177.745L331.523 177.745ZM296.029 142.251L313.788 142.251L313.788 160.011L296.029 160.011L296.029 142.251Z" fill="#C31632"/>
<path d="M242.775 213.24L260.535 213.24L260.535 195.48L242.775 195.48L242.775 213.24Z" fill="#88D0C8"/>
<path d="M296.03 159.985L313.789 159.985L313.789 142.226L296.03 142.226L296.03 159.985Z" fill="#88D0C8"/>
<path d="M225.523 124L331.802 124C331.802 114.23 339.728 106.279 349.523 106.279L349.523 8.63124e-06C281.055 0.0249249 225.523 55.5321 225.523 124Z" fill="#F3A41E"/>
</svg>
