<svg width="319" height="337" viewBox="0 0 319 337" fill="none" xmlns="http://www.w3.org/2000/svg">
<path d="M174.6 325.659C170.054 327.183 161.536 328.957 151.92 330.555C157.74 328.982 163.16 327.258 167.656 325.46C203.524 309.648 227.603 273.855 229.052 234.24L229.077 233.465C229.102 232.516 229.152 231.067 229.152 230.293H242.39C242.39 231.442 242.315 233.665 242.29 234.439C240.642 276.128 213.441 312.796 174.6 325.659Z" fill="black"/>
<path d="M182.293 327.683C178.821 328.782 169.454 330.131 158.363 331.429C165.507 330.106 171.627 328.757 175.224 327.533C214.839 314.394 242.59 277.002 244.263 234.489C244.288 233.715 244.363 231.467 244.363 230.293H257.602C257.602 231.592 257.527 233.715 257.502 234.664C255.628 279.175 224.705 317.442 182.293 327.683Z" fill="black"/>
<path d="M227.101 234.188C225.677 273.029 202.048 308.148 166.904 323.66C159.735 326.507 149.968 329.23 139.977 331.378C141.276 330.953 142.55 330.479 143.799 330.004C144.473 329.754 145.148 329.505 145.822 329.23C146.896 328.805 147.97 328.356 149.019 327.881C150.018 327.456 150.992 327.007 151.942 326.532C152.741 326.157 153.54 325.783 154.34 325.383C156.138 324.484 157.936 323.51 159.66 322.511C190.508 304.726 211.564 271.83 212.838 233.963C212.838 233.614 212.838 233.289 212.888 232.989C212.938 232.09 212.938 231.216 212.938 230.316H227.176C227.176 231.066 227.126 232.49 227.101 233.439V234.188Z" fill="black"/>
<path d="M305.085 235.512C305.16 233.913 305.209 232.015 305.209 230.316H319.447C319.447 289.14 271.764 336.823 212.94 336.823H156.864C180.768 336.324 204.373 335.824 205.397 335.774C259.599 333.151 302.462 290.064 305.085 235.512Z" fill="black"/>
<path d="M205.295 333.776C204.82 333.801 199.724 333.926 192.106 334.076C195.079 333.901 197.127 333.776 197.851 333.701C247.957 328.555 287.523 286.242 289.895 235.262C289.97 233.863 290.02 231.865 290.02 230.316H303.259C303.259 231.99 303.209 233.863 303.134 235.437C300.536 288.94 258.473 331.228 205.295 333.776Z" fill="black"/>
<path d="M189.962 329.704C187.939 330.029 182.269 330.579 174.8 331.203C178.422 330.629 181.245 330.079 182.818 329.58C226.005 319.139 257.578 280.148 259.476 234.763C259.526 233.788 259.576 231.615 259.576 230.316H272.814C272.814 231.74 272.764 233.763 272.715 234.937C270.616 282.196 235.822 322.086 189.962 329.704Z" fill="black"/>
<path d="M197.628 331.728C196.154 331.902 189.435 332.252 180.293 332.702C185.164 332.277 188.761 331.902 190.284 331.653C237.043 323.86 272.537 283.22 274.685 235.012C274.735 233.813 274.785 231.74 274.785 230.316H288.024C288.024 231.865 287.974 233.813 287.899 235.187C285.601 285.168 246.785 326.707 197.628 331.728Z" fill="black"/>
<path d="M116.699 336.251C118.722 336.051 120.745 335.826 122.718 335.501C123.418 335.401 124.092 335.276 124.767 335.151C126.89 334.777 128.963 334.352 131.036 333.878C131.511 333.753 131.985 333.653 132.46 333.553C135.008 332.903 137.506 332.204 139.953 331.38C149.945 329.232 159.711 326.509 166.88 323.662C202.024 308.175 225.653 273.031 227.077 234.19L227.102 233.416C227.127 232.491 227.177 231.043 227.177 230.293H229.15C229.15 231.068 229.1 232.516 229.075 233.466L229.05 234.24C227.602 273.855 203.523 309.649 167.654 325.46C163.158 327.258 157.738 328.982 151.918 330.556C161.534 328.932 170.052 327.183 174.598 325.66C213.439 312.771 240.64 276.128 242.289 234.44C242.314 233.665 242.389 231.467 242.389 230.293H244.362C244.362 231.467 244.287 233.715 244.262 234.49C242.588 277.002 214.838 314.395 175.222 327.533C171.626 328.732 165.506 330.106 158.362 331.43C169.453 330.131 178.819 328.782 182.291 327.683C224.704 317.442 255.627 279.175 257.5 234.664C257.55 233.69 257.6 231.567 257.6 230.293H259.574C259.574 231.592 259.499 233.765 259.474 234.739C257.55 280.125 226.003 319.14 182.816 329.556C181.242 330.056 178.42 330.605 174.798 331.18C182.266 330.556 187.936 330.006 189.96 329.681C235.794 322.038 270.614 282.173 272.712 234.889C272.762 233.715 272.812 231.692 272.812 230.268H274.785C274.785 231.717 274.735 233.79 274.685 234.964C272.537 283.172 237.043 323.836 190.284 331.605C188.761 331.854 185.164 332.229 180.293 332.654C189.46 332.204 196.179 331.854 197.628 331.68C246.785 326.634 285.601 285.12 287.924 235.089C287.974 233.715 288.049 231.767 288.049 230.218H290.022C290.022 231.792 289.972 233.79 289.897 235.164C287.524 286.144 247.959 328.482 197.853 333.603C197.128 333.678 195.08 333.828 192.108 333.977C199.726 333.803 204.847 333.703 205.296 333.678C258.475 331.13 300.538 288.842 303.135 235.314C303.21 233.74 303.26 231.867 303.26 230.193H305.234C305.234 231.892 305.184 233.79 305.109 235.389C302.461 289.941 259.599 333.053 205.396 335.626C204.372 335.676 180.768 336.176 156.864 336.675H106.433C109.18 336.675 111.878 336.55 114.551 336.35C115.275 336.425 115.974 336.325 116.699 336.251Z" fill="#C31632"/>
<path d="M147.821 132.102C109.804 132.452 78.9559 162.675 77.5322 200.417C77.4822 201.316 77.4822 202.191 77.4822 203.09C77.4822 226.569 88.8722 247.376 106.432 260.315C108.155 261.614 110.029 262.838 111.927 263.937C122.568 270.356 135.132 274.078 148.495 274.078C177.02 274.078 201.623 257.242 212.914 232.939C212.864 233.263 212.864 233.563 212.864 233.913C211.59 271.78 190.533 304.676 159.685 322.46C157.937 323.484 156.163 324.409 154.365 325.333C153.591 325.732 152.766 326.107 151.967 326.482C150.993 326.931 150.019 327.381 149.044 327.831C147.995 328.305 146.921 328.73 145.847 329.18C145.173 329.454 144.498 329.704 143.824 329.954C142.55 330.428 141.276 330.903 140.002 331.328C137.555 332.152 135.032 332.851 132.509 333.501C132.034 333.626 131.56 333.726 131.085 333.825C129.012 334.325 126.939 334.75 124.816 335.099C124.141 335.224 123.442 335.349 122.768 335.449C120.769 335.749 118.771 335.999 116.748 336.198C116.023 336.273 115.324 336.348 114.625 336.423C111.952 336.623 109.229 336.748 106.507 336.748C47.6832 336.748 1.52588e-05 289.065 1.52588e-05 230.241C1.52588e-05 171.418 47.6832 123.734 106.507 123.734C121.119 123.784 135.082 126.757 147.821 132.102Z" fill="white"/>
<path d="M77.4841 203.117C77.4841 202.217 77.4842 201.343 77.5341 200.444C87.6003 178.713 108.382 162.927 133.085 159.854C116.525 178.588 106.459 203.291 106.459 230.318C106.459 242.107 108.382 253.423 111.954 264.013C110.056 262.914 108.207 261.69 106.459 260.391C88.8991 247.428 77.4841 226.596 77.4841 203.117Z" fill="#F3A41E"/>
<path d="M267.053 123.734H213V177.787H267.053V123.734ZM249.027 159.761H231.001V141.735H249.027V159.761Z" fill="#F3A41E"/>
<path d="M267.054 231.841H321.107V177.788H267.054V231.841ZM285.055 195.814H303.081V213.84H285.055V195.814Z" fill="#F3A41E"/>
<path d="M267.054 123.734V177.787H321.107V123.734H267.054ZM303.081 159.761H285.055V141.735H303.081V159.761Z" fill="black"/>
<path d="M249.026 141.76H231V159.786H249.026V141.76Z" fill="black"/>
<path d="M303.08 195.813H285.054V213.839H303.08V195.813Z" fill="black"/>
<path d="M213 177.788V231.841H267.053V177.788H213ZM249.027 213.815H231.001V195.789H249.027V213.815Z" fill="black"/>
<path d="M303.08 141.76H285.054V159.786H303.08V141.76Z" fill="#F3A41E"/>
<path d="M249.026 195.813H231V213.839H249.026V195.813Z" fill="#F3A41E"/>
<path d="M273.292 17.5987C268.382 20.5398 263.696 23.8299 259.259 27.419L322.418 102.691L273.292 17.5987Z" fill="#88D0C8"/>
<path d="M292.135 8.39919C286.801 10.4679 281.642 12.8856 276.682 15.6523L325.634 100.421L292.135 8.39919Z" fill="#88D0C8"/>
<path d="M256.218 29.9349C251.856 33.6736 247.768 37.7114 243.98 42.0234L319.601 105.481L256.218 29.9349Z" fill="#88D0C8"/>
<path d="M333.037 0.100707C327.279 0.275184 321.647 0.848465 316.113 1.77068L333.037 97.7305L333.037 0.100707Z" fill="#88D0C8"/>
<path d="M312.248 2.46963C306.615 3.61616 301.156 5.13657 295.847 7.00591L329.246 98.7285L312.248 2.46963Z" fill="#88D0C8"/>
<path d="M241.416 45.0153C237.752 49.4519 234.387 54.1627 231.346 59.0728L317.361 108.723L241.416 45.0153Z" fill="#88D0C8"/>
<path d="M214.869 102.515C213.872 108.223 213.274 114.08 213.075 120.037L314.294 120.037L214.869 102.515Z" fill="#88D0C8"/>
<path d="M229.351 62.4603C226.485 67.4702 223.942 72.7043 221.799 78.1379L315.69 112.31L229.351 62.4603Z" fill="#88D0C8"/>
<path d="M220.353 81.8038C218.384 87.2623 216.789 92.8703 215.568 98.6528L314.643 116.125L220.353 81.8038Z" fill="#88D0C8"/>
<path d="M333.037 0.0996881L333.037 97.7295L316.113 1.76966C314.817 1.99398 313.521 2.19337 312.25 2.46754L329.224 98.7514L295.825 7.02874C294.579 7.47738 293.357 7.92603 292.136 8.39959L325.635 100.421L276.683 15.6527C275.536 16.3007 274.39 16.9487 273.268 17.6217L322.394 102.714L259.235 27.442C258.214 28.2645 257.217 29.112 256.22 29.9594L319.603 105.506L243.982 42.0478C243.109 43.0199 242.237 44.0169 241.414 45.0139L317.36 108.746L231.345 59.0963C230.647 60.2179 229.999 61.3395 229.351 62.486L315.69 112.335L221.799 78.1636C221.325 79.3849 220.827 80.6062 220.378 81.8275L314.668 116.149L215.592 98.6766C215.318 99.9477 215.119 101.244 214.895 102.54L314.319 120.062L213.1 120.062C213.05 121.383 213 122.679 213 124L319.279 124C319.279 114.23 327.205 106.279 337 106.279L337 -1.30496e-05C335.654 -1.29908e-05 334.358 0.0498452 333.037 0.0996881Z" fill="#88D0C8"/>
</svg>
