<svg width="350" height="781" viewBox="0 0 350 781" fill="none" xmlns="http://www.w3.org/2000/svg">
<path d="M273.261 199.869L22 199.869V230.364L273.261 230.365V199.869Z" fill="#6BC9C6"/>
<path d="M303.331 199.866H273.655L273.26 200.261V230.362C279.026 230.362 284.487 228.693 289.039 225.81C291.042 224.627 292.893 223.17 294.531 221.532C299.993 216.07 303.331 208.514 303.331 200.261V199.866Z" fill="#C31632"/>
<path d="M248.137 100.432L227.291 121.278C228.353 122.947 229.597 124.464 231.023 125.89L273.201 168.068V125.495L248.137 100.432Z" fill="black"/>
<path d="M303.302 82.8662L302.938 82.8966C288.494 83.0179 276.508 93.3954 273.777 107.05H303.332V82.8662H303.302Z" fill="#6BC9C6"/>
<path d="M325.847 107.02C332.492 107.02 338.591 104.319 342.93 99.98C347.33 95.5802 349.97 89.5418 350 82.8662H303.301V107.05L325.847 107.02Z" fill="black"/>
<path d="M231.024 83.3179C220.677 93.665 219.463 109.565 227.292 121.278L248.138 100.432L231.024 83.3179Z" fill="#6BC9C6"/>
<path d="M269.258 79.313C273.962 74.6097 276.328 68.45 276.298 62.2295C276.328 56.0394 273.931 49.819 269.228 45.1157L231.025 83.3183L248.139 100.432L269.258 79.313Z" fill="#F6AC1B"/>
<path d="M303.332 199.867V170.191L303.302 107.077H273.747C273.383 109.019 273.201 110.93 273.201 112.963V168.067L273.231 199.898H303.332V199.867Z" fill="#FCB912"/>
<path d="M303.334 170.194V200.295C303.334 208.548 299.966 216.134 294.534 221.566L338.441 177.659C339.868 176.232 341.142 174.685 342.204 173.016L321.358 152.17L303.334 170.194Z" fill="#6BC9C6"/>
<path d="M321.355 152.17L342.202 173.016C350 161.364 348.786 145.434 338.439 135.086L321.355 152.17Z" fill="black"/>
<path d="M316.866 113.512C312.132 118.246 309.796 124.466 309.796 130.626C309.796 136.786 312.163 142.946 316.927 147.709L321.387 152.17L338.471 135.087L316.866 113.512Z" fill="#C31632"/>
<path d="M126.003 265L126.003 276.84C139.067 276.84 149.682 287.43 149.682 300.519L161.522 300.519C161.497 280.911 145.611 265 126.003 265Z" fill="black"/>
<path d="M126.002 276.841L126.002 288.681C132.546 288.681 137.842 293.976 137.842 300.521L149.681 300.521C149.656 287.432 139.065 276.841 126.002 276.841Z" fill="#6BC9C6"/>
<path d="M126.002 288.68L126.002 300.52L137.841 300.52C137.841 293.976 132.546 288.68 126.002 288.68Z" fill="#F6AC1B"/>
<path d="M126.026 195L126.026 203.093L148.582 203.093C142.437 198.023 134.594 195 126.026 195Z" fill="white"/>
<path d="M159.445 218.63L126.024 218.63L126.024 226.848L161.343 226.848C161.044 223.975 160.369 221.228 159.445 218.63Z" fill="white"/>
<path d="M152.353 206.738L126.026 206.738L126.026 214.956L157.923 214.956C156.45 211.959 154.576 209.186 152.353 206.738Z" fill="white"/>
<path d="M161.52 230.495C161.52 229.271 161.445 228.047 161.345 226.848L126.026 226.848L126.026 230.495L161.52 230.495Z" fill="#C31632"/>
<path d="M157.898 214.958L126.001 214.958L126.001 218.605L159.421 218.605C158.997 217.356 158.497 216.157 157.898 214.958Z" fill="#C31632"/>
<path d="M148.582 203.095L126.027 203.095L126.027 206.742L152.354 206.742C151.18 205.443 149.931 204.194 148.582 203.095Z" fill="#C31632"/>
<path d="M78.1246 132.919C77.1505 132.819 76.1764 132.769 75.1772 132.744C78.1746 154.824 95.6593 172.309 117.74 175.306C117.69 174.332 117.665 173.333 117.565 172.359C97.2579 169.337 81.172 153.251 78.1246 132.919Z" fill="#C31632"/>
<path d="M117.141 169.386C113.869 151.077 99.4315 136.639 81.1226 133.367C84.2198 151.751 98.7571 166.263 117.141 169.386Z" fill="#C31632"/>
<path d="M20.0754 175.706C20.1004 174.732 20.1503 173.782 20.2253 172.833C20.3002 171.859 20.4251 170.91 20.55 169.961C20.7748 168.362 21.0746 166.789 21.4243 165.24C25.9953 145.507 41.5067 129.971 61.2394 125.425C62.788 125.075 64.3616 124.75 65.9602 124.55C66.9094 124.426 67.8586 124.301 68.8327 124.226C69.7819 124.151 70.731 124.101 71.7052 124.076C71.7801 124.076 71.8301 124.076 71.905 124.076C72.3546 124.076 72.8043 124.001 73.2539 124.001H20.0005V177.254C20.0005 176.805 20.0504 176.355 20.0754 175.906C20.0754 175.831 20.0754 175.781 20.0754 175.706Z" fill="#C31632"/>
<path d="M71.7046 230.434C70.7304 230.409 69.7813 230.359 68.8321 230.284C67.858 230.209 66.9088 230.085 65.9596 229.96C64.361 229.735 62.7875 229.435 61.2388 229.085C41.5061 224.514 25.9697 209.003 21.4237 189.27C21.074 187.722 20.7492 186.148 20.5494 184.549C20.4245 183.6 20.2996 182.651 20.2247 181.677C20.6243 181.652 21.024 181.627 21.4486 181.627C21.6484 181.627 21.8233 181.602 21.9981 181.602C22.3728 181.602 22.7225 181.652 23.0972 181.652C24.0713 181.677 25.0205 181.727 25.9946 181.802C26.9938 181.877 27.943 182.027 28.9171 182.177C49.2493 185.199 65.3352 201.285 68.3575 221.617C69.3317 221.717 70.3059 221.767 71.305 221.792C68.3076 199.711 50.8229 182.226 28.7422 179.229C27.7931 179.104 26.8189 178.979 25.8448 178.904C24.8956 178.829 23.9214 178.78 22.9473 178.755C22.6226 178.755 22.3228 178.705 21.9981 178.705C21.7983 178.705 21.6234 178.73 21.4486 178.73C20.999 178.755 20.5494 178.78 20.0998 178.804C20.0998 178.73 20.0998 178.68 20.0998 178.605C20.0998 178.155 20.0249 177.705 20.0249 177.256V230.509H73.2782C72.8286 230.509 72.3791 230.459 71.9295 230.434C71.8545 230.434 71.7795 230.434 71.7046 230.434Z" fill="#C31632"/>
<path d="M123.412 172.884C123.337 171.91 123.187 170.935 123.037 169.986C119.84 148.031 102.48 130.671 80.5245 127.473C79.5753 127.324 78.6011 127.199 77.627 127.099C76.6778 127.024 75.7037 126.974 74.7295 126.949C74.7045 126.949 74.6546 126.949 74.6296 126.949C74.155 126.924 73.7054 126.874 73.2308 126.874C72.7562 126.874 72.3066 126.924 71.832 126.949C71.8071 126.949 71.7571 126.949 71.7321 126.949C70.758 126.974 69.8088 127.024 68.8346 127.099C67.8605 127.174 66.8863 127.324 65.9372 127.473C43.9814 130.671 26.6216 148.031 23.4244 169.986C23.2746 170.935 23.1497 171.91 23.0498 172.884C22.9748 173.833 22.9249 174.807 22.8999 175.781C22.8999 175.806 22.8999 175.856 22.8999 175.881C23.874 175.906 24.8232 175.956 25.7724 176.031C25.7724 175.906 25.7974 175.781 25.7974 175.631C25.8224 174.657 25.8473 173.708 25.9472 172.734C26.0471 171.76 26.197 170.786 26.3469 169.836C29.5441 149.604 45.53 133.593 65.7873 130.396C66.7615 130.246 67.7106 130.071 68.6848 129.996C69.6339 129.896 70.6081 129.871 71.5823 129.846C71.7071 129.846 71.832 129.821 71.9819 129.821C72.4065 129.821 72.8062 129.746 73.2308 129.746C73.6554 129.746 74.0551 129.796 74.4797 129.821C74.6046 129.821 74.7295 129.846 74.8794 129.846C75.8535 129.871 76.8027 129.896 77.7769 129.996C78.751 130.096 79.7252 130.246 80.6743 130.396C100.932 133.593 116.918 149.579 120.115 169.836C120.265 170.811 120.439 171.76 120.514 172.734C120.614 173.683 120.639 174.657 120.664 175.631C120.664 175.756 120.689 175.881 120.689 176.031C121.638 175.956 122.588 175.906 123.562 175.881C123.562 175.856 123.562 175.806 123.562 175.781C123.512 174.782 123.487 173.833 123.412 172.884Z" fill="#C31632"/>
<path d="M73.2554 124.001C73.705 124.001 74.1545 124.051 74.6041 124.076C74.6791 124.076 74.7291 124.076 74.804 124.076C75.7781 124.101 76.7273 124.151 77.6765 124.226C78.6506 124.301 79.5998 124.426 80.5489 124.55C82.1475 124.775 83.7212 125.075 85.2698 125.425C105.003 129.996 120.539 145.507 125.085 165.24C125.435 166.789 125.759 168.362 125.959 169.961C126.084 170.91 126.209 171.859 126.284 172.833C126.359 173.782 126.409 174.732 126.434 175.706C126.434 175.781 126.434 175.831 126.434 175.906C126.434 176.355 126.509 176.805 126.509 177.254V124.001H73.2554Z" fill="#C31632"/>
<path d="M65.3841 221.117C62.2619 202.733 47.7496 188.221 29.3657 185.099C32.6379 203.408 47.0752 217.845 65.3841 221.117Z" fill="#C31632"/>
<path d="M117.141 185.123C98.7571 188.245 84.2448 202.757 81.1226 221.141C99.4066 217.844 113.869 203.407 117.141 185.123Z" fill="#C31632"/>
<path d="M74.5011 224.689C74.0765 224.689 73.6768 224.764 73.2522 224.764C72.8276 224.764 72.4279 224.714 72.0033 224.689C71.8784 224.689 71.7535 224.664 71.6036 224.664C70.6295 224.639 69.6803 224.614 68.7062 224.514C67.732 224.414 66.7579 224.265 65.8087 224.115C45.5514 220.917 29.5654 204.932 26.3682 184.674C25.3941 184.574 24.4199 184.549 23.4458 184.524C26.643 206.48 44.0028 223.84 65.9586 227.037C66.9077 227.187 67.8819 227.312 68.856 227.412C69.8052 227.487 70.7793 227.537 71.7535 227.562C71.7785 227.562 71.8285 227.562 71.8534 227.562C72.328 227.587 72.7776 227.637 73.2522 227.637C73.7268 227.637 74.1764 227.587 74.651 227.562C74.6759 227.562 74.7258 227.562 74.7508 227.562C75.725 227.537 76.6741 227.487 77.6483 227.412C78.6224 227.337 79.5966 227.187 80.5458 227.037C102.502 223.84 119.861 206.48 123.059 184.524C122.084 184.549 121.085 184.574 120.136 184.674C116.939 204.907 100.953 220.917 80.6956 224.115C79.7215 224.265 78.7723 224.439 77.7982 224.514C76.849 224.614 75.8749 224.639 74.9008 224.664C74.7509 224.664 74.626 224.689 74.5011 224.689Z" fill="#C31632"/>
<path d="M126.433 178.777C125.984 178.752 125.534 178.727 125.084 178.702C124.885 178.702 124.71 178.677 124.535 178.677C124.21 178.677 123.91 178.727 123.586 178.727C122.612 178.752 121.662 178.802 120.688 178.877C119.714 178.952 118.74 179.052 117.791 179.202C95.7102 182.199 78.2255 199.684 75.2281 221.764C76.2022 221.715 77.2014 221.69 78.1756 221.59C81.1979 201.258 97.2838 185.172 117.616 182.149C118.59 181.999 119.564 181.874 120.538 181.775C121.488 181.7 122.462 181.65 123.436 181.625C123.811 181.625 124.16 181.575 124.535 181.575C124.735 181.575 124.91 181.6 125.084 181.6C125.484 181.625 125.884 181.65 126.308 181.65C126.233 182.624 126.109 183.573 125.984 184.522C125.759 186.121 125.459 187.694 125.109 189.243C120.538 208.976 105.027 224.512 85.2943 229.058C83.7456 229.408 82.172 229.733 80.5734 229.932C79.6243 230.057 78.6751 230.182 77.701 230.257C76.7518 230.332 75.8026 230.382 74.8284 230.407C74.7535 230.407 74.7036 230.407 74.6286 230.407C74.179 230.407 73.7294 230.482 73.2798 230.482H126.533V177.229C126.533 177.678 126.483 178.128 126.458 178.577C126.433 178.652 126.433 178.727 126.433 178.777Z" fill="#C31632"/>
<path d="M28.7437 175.306C50.8243 172.309 68.309 154.824 71.3064 132.744C70.3323 132.794 69.3331 132.819 68.3589 132.919C65.3366 153.251 49.2507 169.337 28.9185 172.359C28.8186 173.333 28.7686 174.307 28.7437 175.306Z" fill="#C31632"/>
<path d="M29.3657 169.386C47.7496 166.263 62.2619 151.751 65.3841 133.367C47.0752 136.639 32.6379 151.077 29.3657 169.386Z" fill="#C31632"/>
<path d="M73.2533 216.469C94.9115 216.469 112.469 198.912 112.469 177.253C112.469 155.595 94.9115 138.038 73.2533 138.038C51.5951 138.038 34.0376 155.595 34.0376 177.253C34.0376 198.912 51.5951 216.469 73.2533 216.469Z" fill="#C31632"/>
<path d="M126.432 175.706C126.407 174.732 126.357 173.782 126.282 172.833C126.207 171.859 126.083 170.91 125.958 169.961C125.733 168.362 125.433 166.789 125.083 165.24C120.513 145.507 105.001 129.971 85.2684 125.425C83.7197 125.075 82.1461 124.75 80.5475 124.55C79.5983 124.426 78.6491 124.301 77.675 124.226C76.7258 124.151 75.7767 124.101 74.8025 124.076C74.7276 124.076 74.6776 124.076 74.6026 124.076C74.153 124.076 73.7035 124.001 73.2539 124.001C72.8043 124.001 72.3546 124.051 71.905 124.076C71.8301 124.076 71.7801 124.076 71.7052 124.076C70.731 124.101 69.7819 124.151 68.8327 124.226C67.8586 124.301 66.9094 124.426 65.9602 124.55C64.3616 124.775 62.788 125.075 61.2394 125.425C41.5067 129.996 25.9703 145.507 21.4243 165.24C21.0746 166.789 20.7498 168.362 20.55 169.961C20.4251 170.91 20.3002 171.859 20.2253 172.833C20.1503 173.782 20.1004 174.732 20.0754 175.706C20.0754 175.781 20.0754 175.831 20.0754 175.906C20.0754 176.355 20.0005 176.805 20.0005 177.254C20.0005 177.704 20.0504 178.154 20.0754 178.603C20.0754 178.678 20.0754 178.728 20.0754 178.803C20.525 178.778 20.9747 178.753 21.4243 178.728C21.6241 178.728 21.7989 178.703 21.9738 178.703C22.2985 178.703 22.5982 178.753 22.9229 178.753C23.897 178.778 24.8462 178.828 25.8204 178.903C26.7945 178.978 27.7687 179.078 28.7178 179.228C50.7985 182.225 68.2832 199.71 71.2806 221.79C70.3064 221.74 69.3073 221.715 68.3332 221.615C65.3108 201.283 49.2249 185.197 28.8927 182.175C27.9185 182.025 26.9444 181.9 25.9702 181.8C25.0211 181.725 24.047 181.675 23.0728 181.65C22.6982 181.65 22.3485 181.601 21.9738 181.601C21.774 181.601 21.5991 181.626 21.4243 181.626C21.0246 181.651 20.6249 181.675 20.2003 181.675C20.2752 182.65 20.4001 183.599 20.525 184.548C20.7498 186.147 21.0496 187.72 21.3993 189.269C25.9703 209.002 41.4817 224.538 61.2144 229.084C62.763 229.434 64.3366 229.758 65.9352 229.958C66.8844 230.083 67.8336 230.208 68.8078 230.283C69.7569 230.358 70.7061 230.408 71.6802 230.433C71.7552 230.433 71.8051 230.433 71.88 230.433C72.3296 230.433 72.7793 230.508 73.2289 230.508C73.6785 230.508 74.1281 230.458 74.5777 230.433C74.6527 230.433 74.7026 230.433 74.7775 230.433C75.7517 230.408 76.7008 230.358 77.65 230.283C78.6241 230.208 79.5734 230.083 80.5225 229.958C82.1211 229.733 83.6947 229.434 85.2434 229.084C104.976 224.513 120.512 209.002 125.058 189.269C125.408 187.72 125.733 186.147 125.933 184.548C126.058 183.599 126.183 182.65 126.257 181.675C125.858 181.65 125.458 181.626 125.033 181.626C124.834 181.626 124.659 181.601 124.484 181.601C124.109 181.601 123.76 181.65 123.385 181.65C122.411 181.675 121.462 181.725 120.488 181.8C119.488 181.875 118.539 182.025 117.565 182.175C97.2329 185.197 81.1469 201.283 78.1246 221.615C77.1504 221.715 76.1763 221.765 75.1772 221.79C78.1745 199.71 95.6593 182.225 117.74 179.228C118.689 179.103 119.663 178.978 120.637 178.903C121.587 178.828 122.561 178.778 123.535 178.753C123.86 178.753 124.159 178.703 124.484 178.703C124.684 178.703 124.859 178.728 125.033 178.728C125.483 178.753 125.933 178.778 126.382 178.803C126.382 178.728 126.382 178.678 126.382 178.603C126.382 178.154 126.457 177.704 126.457 177.254C126.457 176.805 126.407 176.355 126.382 175.906C126.432 175.831 126.432 175.781 126.432 175.706ZM68.3581 132.918C69.3323 132.818 70.3065 132.768 71.3056 132.743C68.3082 154.824 50.8235 172.309 28.7428 175.306C28.7928 174.332 28.8178 173.333 28.9177 172.359C49.2499 169.336 65.3358 153.25 68.3581 132.918ZM29.3673 169.386C32.6394 151.077 47.0767 136.64 65.3857 133.368C62.2634 151.752 47.7512 166.264 29.3673 169.386ZM65.3857 221.116C47.0767 217.844 32.6394 203.406 29.3673 185.097C47.7512 188.22 62.2634 202.732 65.3857 221.116ZM117.14 185.122C113.868 203.431 99.4309 217.869 81.122 221.141C84.2193 202.732 98.7565 188.22 117.14 185.122ZM77.7749 224.513C78.7491 224.413 79.7232 224.263 80.6724 224.113C100.93 220.916 116.916 204.93 120.113 184.673C121.087 184.573 122.061 184.548 123.035 184.523C119.838 206.479 102.478 223.839 80.5225 227.036C79.5734 227.186 78.5992 227.31 77.6251 227.41C76.6759 227.485 75.7017 227.535 74.7276 227.56C74.7026 227.56 74.6526 227.56 74.6276 227.56C74.1531 227.585 73.7035 227.635 73.2289 227.635C72.7543 227.635 72.3047 227.585 71.8301 227.56C71.8051 227.56 71.7552 227.56 71.7302 227.56C70.756 227.535 69.8068 227.485 68.8327 227.41C67.8586 227.335 66.8844 227.186 65.9352 227.036C43.9795 223.839 26.6197 206.479 23.4225 184.523C24.3966 184.548 25.3958 184.573 26.345 184.673C29.5422 204.905 45.5281 220.916 65.7854 224.113C66.7595 224.263 67.7087 224.438 68.6828 224.513C69.632 224.613 70.6062 224.638 71.5803 224.663C71.7052 224.663 71.8301 224.688 71.98 224.688C72.4046 224.688 72.8042 224.763 73.2289 224.763C73.6535 224.763 74.0532 224.713 74.4778 224.688C74.6027 224.688 74.7276 224.663 74.8774 224.663C75.8516 224.638 76.8257 224.613 77.7749 224.513ZM73.2539 216.47C68.7079 197.062 53.4212 181.8 34.0382 177.254C53.4462 172.708 68.7079 157.422 73.2539 138.039C77.7999 157.447 93.0865 172.708 112.469 177.254C93.0865 181.8 77.7999 197.062 73.2539 216.47ZM75.2022 132.718C76.1763 132.768 77.1754 132.793 78.1496 132.893C81.1719 153.225 97.2579 169.311 117.59 172.334C117.69 173.308 117.74 174.282 117.765 175.281C95.6842 172.284 78.1995 154.799 75.2022 132.718ZM81.122 133.368C99.4309 136.64 113.868 151.077 117.14 169.386C98.7565 166.264 84.2193 151.752 81.122 133.368ZM120.687 176.005C120.687 175.881 120.662 175.756 120.662 175.606C120.637 174.632 120.612 173.682 120.512 172.708C120.413 171.734 120.263 170.76 120.113 169.811C116.916 149.579 100.93 133.568 80.6724 130.37C79.6982 130.22 78.7491 130.046 77.7749 129.971C76.8257 129.871 75.8516 129.846 74.8774 129.821C74.7526 129.821 74.6277 129.796 74.4778 129.796C74.0532 129.796 73.6535 129.721 73.2289 129.721C72.8042 129.721 72.4046 129.771 71.98 129.796C71.8551 129.796 71.7302 129.821 71.5803 129.821C70.6062 129.846 69.657 129.871 68.6828 129.971C67.7087 130.071 66.7345 130.22 65.7854 130.37C45.5281 133.568 29.5422 149.554 26.345 169.811C26.1951 170.785 26.0202 171.734 25.9453 172.708C25.8454 173.657 25.8204 174.632 25.7954 175.606C25.7954 175.731 25.7704 175.856 25.7704 176.005C24.8213 175.931 23.8721 175.881 22.898 175.856C22.898 175.831 22.898 175.781 22.898 175.756C22.9229 174.782 22.9729 173.832 23.0478 172.858C23.1228 171.884 23.2726 170.91 23.4225 169.961C26.6197 148.005 43.9795 130.645 65.9352 127.448C66.8844 127.298 67.8586 127.173 68.8327 127.073C69.7819 126.998 70.756 126.948 71.7302 126.923C71.7552 126.923 71.8051 126.923 71.8301 126.923C72.3047 126.898 72.7543 126.848 73.2289 126.848C73.7035 126.848 74.1531 126.898 74.6276 126.923C74.6526 126.923 74.7026 126.923 74.7276 126.923C75.7017 126.948 76.6509 126.998 77.6251 127.073C78.5992 127.148 79.5734 127.298 80.5225 127.448C102.478 130.645 119.838 148.005 123.035 169.961C123.185 170.91 123.31 171.884 123.41 172.858C123.485 173.807 123.535 174.782 123.56 175.756C123.56 175.781 123.56 175.831 123.56 175.856C122.586 175.881 121.636 175.931 120.687 176.005Z" fill="#6BC9C6"/>
<path d="M73.2538 336.507C102.665 336.507 126.507 312.665 126.507 283.254C126.507 253.843 102.665 230 73.2538 230C43.8428 230 20.0005 253.843 20.0005 283.254C20.0005 312.665 43.8428 336.507 73.2538 336.507Z" fill="#C31632"/>
<path d="M73.2538 230H20.0005V283.254C56.4436 283.254 73.2538 266.444 73.2538 230Z" fill="#F6AC1B"/>
<path d="M73.2554 336.509H126.509V283.255C90.0657 283.255 73.2554 300.066 73.2554 336.509Z" fill="#F6AC1B"/>
<path d="M20.0005 283.255V336.509H73.2538C73.2538 300.066 56.4436 283.255 20.0005 283.255Z" fill="#F6AC1B"/>
<path d="M73.2554 230C73.2554 266.444 90.0657 283.254 126.509 283.254V230H73.2554Z" fill="#F6AC1B"/>
<path d="M0.0171591 60.9098L0.0171597 68.366C30.8746 68.366 55.9036 93.395 55.9036 124.252L63.3599 124.252C63.3599 89.3168 34.9528 60.9098 0.0171591 60.9098Z" fill="#6BC9C6"/>
<path d="M0.0175442 95.0928L0.0175448 102.549C11.9895 102.549 21.721 112.281 21.721 124.252L29.1772 124.252C29.1597 108.167 16.1026 95.0928 0.0175442 95.0928Z" fill="#6BC9C6"/>
<path d="M0.0177502 83.6984L0.0177509 91.1547C18.2732 91.1547 33.1156 105.98 33.1156 124.252L40.5718 124.252C40.5543 101.884 22.3863 83.6984 0.0177502 83.6984Z" fill="#6BC9C6"/>
<path d="M0.0169832 72.3041L0.0169839 79.7603C24.5734 79.7603 44.5091 99.696 44.5091 124.252L51.9653 124.252C51.9653 95.6003 28.6691 72.3041 0.0169832 72.3041Z" fill="#6BC9C6"/>
<path d="M0.0173651 49.5154L0.0173658 56.9717C37.1583 56.9717 67.2982 87.1115 67.2982 124.252L74.7544 124.252C74.7544 83.0333 41.2365 49.5154 0.0173651 49.5154Z" fill="#6BC9C6"/>
<path d="M0.0179566 15.3153L0.0179572 22.7715C56.062 22.7715 101.482 68.2088 101.482 124.235L108.938 124.235C108.938 64.1832 60.0701 15.3153 0.0179566 15.3153Z" fill="#6BC9C6"/>
<path d="M0.0172443 3.92059L0.0172449 11.3768C62.3448 11.3768 112.893 61.9074 112.893 124.252L120.349 124.252C120.332 57.8993 66.3529 3.92058 0.0172443 3.92059Z" fill="#6BC9C6"/>
<path d="M0.0175712 38.1211L0.0175718 45.5773C43.4596 45.5773 78.6927 80.8105 78.6927 124.252L86.1489 124.252C86.1489 76.7498 47.5202 38.1211 0.0175712 38.1211Z" fill="#6BC9C6"/>
<path d="M0.0177505 26.7268L0.0177512 34.183C49.7608 34.183 90.0872 74.5094 90.0872 124.252L97.5435 124.252C97.5435 70.4663 53.8039 26.7268 0.0177505 26.7268Z" fill="#6BC9C6"/>
<path d="M120.332 124.252L124.27 124.252C124.27 119.964 124.06 115.729 123.622 111.545C122.992 105.279 121.89 99.1534 120.349 93.2025C118.809 87.2515 116.849 81.4581 114.503 75.8922C112.141 70.3088 109.393 64.9529 106.277 59.8246C104.194 56.4115 101.971 53.1035 99.5735 49.918C76.9074 19.6207 40.7466 -3.14825e-05 8.56862e-06 -2.79203e-05L8.9129e-06 3.93811C66.3532 3.9206 120.332 57.8993 120.332 124.252Z" fill="black"/>
<path d="M108.937 124.252L112.875 124.252C112.875 61.9249 62.3449 11.3768 -0.000170782 11.3768L-0.000170438 15.3149C60.0695 15.3149 108.937 64.1828 108.937 124.252Z" fill="black"/>
<path d="M97.5428 124.252L101.481 124.252C101.481 68.2084 56.0436 22.7887 0.0171164 22.7887L0.0171167 26.7268C53.8033 26.7268 97.5428 70.4663 97.5428 124.252Z" fill="black"/>
<path d="M86.1493 124.252L90.0874 124.252C90.0874 74.5094 49.7609 34.183 0.0179136 34.183L0.0179139 38.1211C47.5206 38.1211 86.1493 76.7498 86.1493 124.252Z" fill="black"/>
<path d="M74.7547 124.252L78.6929 124.252C78.6929 80.8104 43.4597 45.5773 0.0177075 45.5773L0.0177079 49.5154C41.2368 49.5154 74.7547 83.0333 74.7547 124.252Z" fill="black"/>
<path d="M63.3602 124.252L67.2983 124.252C67.2983 87.1115 37.1585 56.9717 0.0175015 56.9717L0.0175018 60.9098C34.9531 60.9098 63.3602 89.3168 63.3602 124.252Z" fill="black"/>
<path d="M51.9657 124.252L55.9038 124.252C55.9038 93.395 30.8748 68.366 0.0173259 68.366L0.0173263 72.3041C28.6694 72.3041 51.9657 95.6003 51.9657 124.252Z" fill="black"/>
<path d="M40.5545 124.252L44.4927 124.252C44.4927 99.696 24.557 79.7603 0.000514497 79.7603L0.000514842 83.6984C22.3866 83.6984 40.5545 101.884 40.5545 124.252Z" fill="black"/>
<path d="M29.16 124.252L33.0981 124.252C33.0981 105.997 18.2733 91.1547 0.000337402 91.1547L0.000337747 95.0928C16.1029 95.0928 29.16 108.167 29.16 124.252Z" fill="black"/>
<path d="M17.7655 124.252L21.7036 124.252C21.7036 112.281 11.9721 102.549 0.000129092 102.549L0.000129436 106.487C9.81921 106.487 17.7655 114.433 17.7655 124.252Z" fill="black"/>
<path d="M73.2516 605.875C74.7001 605.875 75.8743 604.701 75.8743 603.252C75.8743 601.804 74.7001 600.629 73.2516 600.629C71.8031 600.629 70.6289 601.804 70.6289 603.252C70.6289 604.701 71.8031 605.875 73.2516 605.875Z" fill="#C31632"/>
<path d="M20 550V656.507H126.507V550H20ZM70.6307 647.965H34.4373V642.095H28.5675V564.438H34.4373V558.568H70.6307V588.792H52.2217V573.68H58.791V582.222H64.0615V565.137H41.0065V571.007H35.1367V635.526H41.0065V641.395H64.0615V624.31H58.791V632.853H52.2217V617.741H70.6307V647.965ZM64.0365 603.254C64.0365 598.183 68.1579 594.037 73.2534 594.037C78.324 594.037 82.4703 598.158 82.4703 603.254C82.4703 608.324 78.3489 612.471 73.2534 612.471C68.1828 612.446 64.0365 608.324 64.0365 603.254ZM117.964 642.07H112.094V647.94H75.9011V617.691H94.3099V632.803H87.7407V624.26H82.4703V641.346H105.525V635.476H111.395V570.957H105.525V565.087H82.4703V582.172H87.7407V573.63H94.3099V588.792H75.9011V558.543H112.094V564.413H117.964V642.07Z" fill="black"/>
<path d="M52.2202 632.826H58.7895V624.284H64.035V641.369H40.9801V635.499H35.1103V570.981H40.9801V565.111H64.035V582.196H58.7895V573.653H52.2202V588.79H70.6293V558.542H34.411V564.411H28.541V642.068H34.411V647.963H70.6293V617.715H52.2202V632.826Z" fill="#6BC9C6"/>
<path d="M112.07 558.542H75.877V588.79H94.2858V573.653H87.7166V582.196H82.4462V565.111H105.501V570.981H111.371V635.499H105.501V641.369H82.4462V624.284H87.7166V632.826H94.2858V617.715H75.877V647.963H112.07V642.068H117.965V564.411H112.07V558.542Z" fill="#6BC9C6"/>
<path d="M82.4456 603.255C82.4456 598.184 78.3242 594.038 73.2287 594.038C68.1581 594.038 64.0117 598.159 64.0117 603.255C64.0117 608.325 68.1331 612.471 73.2287 612.471C78.3242 612.446 82.4456 608.325 82.4456 603.255ZM73.2537 605.877C71.8049 605.877 70.631 604.703 70.631 603.255C70.631 601.806 71.8049 600.632 73.2537 600.632C74.7024 600.632 75.8763 601.806 75.8763 603.255C75.8763 604.703 74.7024 605.877 73.2537 605.877Z" fill="#6BC9C6"/>
<path d="M126 657L19.7214 657C19.7214 666.771 11.7954 674.722 1.99999 674.722L1.99999 781C70.4679 780.976 126 725.468 126 657Z" fill="#F6AC1B"/>
<path d="M116.116 336.013H101.454L101.479 346.304L91.0628 346.279L80.7968 336.013H80.7468L91.0378 346.304V361.041L80.6219 371.457H65.8848L55.4689 361.041V346.304L65.7599 336.013H65.71L55.444 346.279L45.0281 346.304L45.0531 336.013H30.4408L30.6906 336.263L30.7156 346.679L20.2997 346.654L20 346.354V361.041L30.3659 361.016L30.3409 371.432H45.078L55.4939 381.848V396.585L45.078 407.001H30.3659L30.3909 417.417L20.025 417.392V432.204L30.291 432.179L30.266 442.495H45.2279L45.2029 442.47L45.178 432.054L55.4939 432.079V417.392L65.9098 406.976H80.6469L91.0628 417.392V432.129L80.6969 442.495H80.7718L91.1877 432.079L101.604 432.054L101.579 442.47L101.554 442.495H116.191L116.141 442.445L116.116 432.029L126.482 432.054V417.367L116.141 417.392L116.166 406.976H101.454L101.479 417.392L91.0628 417.367L80.6219 406.926L80.5969 396.51L91.0128 396.535V381.798L101.429 371.382H116.166L126.482 381.698V381.673L116.166 371.357L116.141 360.941L126.457 360.966V346.279L116.066 346.304L116.116 336.013ZM65.8848 406.976L55.444 417.417L45.0281 417.442L45.0531 407.026L55.4939 396.585L65.9098 396.56L65.8848 406.976ZM55.4939 381.873L45.0531 371.432L45.0281 361.016L55.444 361.041L65.8848 371.482L65.9098 381.898L55.4939 381.873ZM101.454 371.432L91.0128 381.873L80.5969 381.898L80.6219 371.482L91.0628 361.041L101.479 361.016L101.454 371.432Z" fill="black"/>
<path d="M55.4688 361.016L65.8846 371.432H80.6217L91.0376 361.016V346.304L80.7466 336.013H65.7597L55.4688 346.304V361.016Z" fill="#6BC9C6"/>
<path d="M91.0376 417.417L80.6217 407.001H65.8846L55.4688 417.417V432.104H55.5686L65.9846 442.52H80.6467L91.0376 432.154V417.417Z" fill="#6BC9C6"/>
<path d="M55.4689 396.583V381.846L45.0531 371.43H30.3409L20 381.771V396.658L30.3409 406.999H45.0531L55.4689 396.583Z" fill="#6BC9C6"/>
<path d="M101.456 371.43L91.04 381.846V396.583L101.456 406.999H116.168L126.484 396.683V381.746L116.168 371.43H101.456Z" fill="#6BC9C6"/>
<path d="M91.037 396.584L80.6211 396.559L80.6461 406.975L91.0619 417.416H101.478L101.453 407L91.037 396.584Z" fill="white"/>
<path d="M65.834 442.518L65.884 442.568H80.6211L80.646 442.518H65.834Z" fill="white"/>
<path d="M55.4686 361.04L45.0527 361.015L45.0777 371.431L55.4936 381.872H65.9094L65.8845 371.456L55.4686 361.04Z" fill="white"/>
<path d="M30.6906 346.679V336.263L30.4408 336.013H20V346.354L20.2997 346.654L30.6906 346.679Z" fill="white"/>
<path d="M45.0494 407L45.0244 417.416H55.4403L65.8811 406.975V396.559L55.4653 396.584L45.0494 407Z" fill="white"/>
<path d="M30.241 432.226H20V442.517H30.241V432.226Z" fill="white"/>
<path d="M80.6217 371.456L80.5967 381.872H91.0126L101.453 371.431V361.015L91.0625 361.04L80.6217 371.456Z" fill="white"/>
<path d="M116.136 336L116.119 346.366L126.51 346.384L126.527 336.018L116.136 336Z" fill="white"/>
<path d="M116.142 442.466L116.192 442.516H126.483V432.075L116.117 432.05L116.142 442.466Z" fill="white"/>
<path d="M116.191 371.431L126.482 381.747V361.04L116.166 361.015L116.191 371.431Z" fill="white"/>
<path d="M116.141 417.414H126.482V396.683L116.166 406.999L116.141 417.414Z" fill="white"/>
<path d="M55.4403 346.279L65.7063 336.013H45.0494L45.0244 346.304L55.4403 346.279Z" fill="white"/>
<path d="M101.477 346.304L101.452 336.013H80.7949L91.0609 346.279L101.477 346.304Z" fill="white"/>
<path d="M30.3409 361.015L20 361.04V381.772L30.3159 371.431L30.3409 361.015Z" fill="white"/>
<path d="M30.3409 406.996L20 396.655V417.412H30.3659L30.3409 406.996Z" fill="white"/>
<path d="M55.4703 432.104L45.1543 432.079L45.1793 442.495V442.52H65.8362L55.4703 432.154V432.104Z" fill="white"/>
<path d="M101.555 432.079L91.1639 432.104L80.748 442.52H101.53L101.555 442.495V432.079Z" fill="white"/>
<path d="M162.317 438.975C162.018 435.977 161.318 433.13 160.319 430.382L137.289 438.975L162.317 438.975Z" fill="black"/>
<path d="M158.922 427.083C157.623 424.385 155.999 421.887 154.101 419.614L136.541 435.425L158.922 427.083Z" fill="black"/>
<path d="M151.529 416.917C149.281 414.769 146.759 412.87 143.986 411.372L134.294 432.428L151.529 416.917Z" fill="black"/>
<path d="M140.491 409.697C137.494 408.473 134.297 407.624 130.95 407.274L130.95 430.429L140.491 409.697Z" fill="black"/>
<path d="M162.319 438.972L137.316 438.972L160.346 430.38C159.921 429.256 159.472 428.132 158.947 427.058L136.542 435.401L154.101 419.589C153.302 418.64 152.428 417.741 151.529 416.867L134.294 432.378L143.985 411.322C142.861 410.697 141.687 410.148 140.488 409.673L130.947 430.38L130.947 407.225C129.648 407.075 128.349 407 127 407L127 442.494L162.494 442.494C162.494 441.345 162.444 440.146 162.319 438.972Z" fill="#F6AC1B"/>
<path d="M126.509 622.998L126.509 629.891C141.221 629.891 153.135 641.806 153.135 656.518L160.029 656.518C160.029 638.034 144.992 622.998 126.509 622.998Z" fill="#C31632"/>
<path d="M126.508 649.625L126.508 656.518L133.402 656.518C133.402 652.722 130.305 649.625 126.508 649.625Z" fill="#C31632"/>
<path d="M126.509 631.865L126.509 638.759C136.3 638.759 144.268 646.702 144.268 656.518L151.162 656.518C151.162 642.93 140.097 631.865 126.509 631.865Z" fill="#C31632"/>
<path d="M126.508 640.733L126.508 647.627C131.404 647.627 135.376 651.598 135.376 656.494L142.269 656.494C142.294 647.827 135.201 640.733 126.508 640.733Z" fill="#C31632"/>
<path d="M126.51 638.76L126.51 640.733C135.202 640.733 142.296 647.802 142.296 656.52L144.27 656.52C144.27 646.728 136.301 638.76 126.51 638.76Z" fill="black"/>
<path d="M126.506 647.653L126.506 649.626C130.302 649.626 133.4 652.723 133.4 656.52L135.373 656.52C135.373 651.624 131.401 647.653 126.506 647.653Z" fill="black"/>
<path d="M126.508 629.892L126.508 631.865C140.096 631.865 151.161 642.931 151.161 656.519L153.135 656.519C153.135 641.807 141.22 629.892 126.508 629.892Z" fill="black"/>
<path d="M161.827 652.898C161.702 651.699 161.527 650.525 161.278 649.376C161.053 648.227 160.753 647.078 160.403 645.979C159.879 644.305 159.254 642.706 158.505 641.133C158.005 640.109 157.456 639.085 156.856 638.111C155.957 636.637 154.983 635.263 153.884 633.939C153.16 633.065 152.385 632.216 151.586 631.416C150.787 630.617 149.937 629.843 149.063 629.118C145.566 626.221 141.495 623.998 137.049 622.599C135.925 622.249 134.801 621.95 133.652 621.725C132.503 621.5 131.329 621.3 130.13 621.175C128.931 621.05 127.732 621 126.508 621L126.508 622.974C144.992 622.974 160.029 638.011 160.029 656.494L162.002 656.494C162.002 655.296 161.952 654.097 161.827 652.898Z" fill="black"/>
<path d="M20 549.507H38.284L20 531.223V549.507Z" fill="#C31632"/>
<path d="M20 443V461.284L38.284 443H20Z" fill="#C31632"/>
<path d="M108.549 443L126.508 460.96V443H108.549Z" fill="#C31632"/>
<path d="M126.508 549.509V531.55L108.549 549.509H126.508Z" fill="#C31632"/>
<path d="M38.284 443L20 461.284V478.494L55.5188 443H38.284Z" fill="#6BC9C6"/>
<path d="M20 531.225L38.284 549.509H55.5188L20 514.015V531.225Z" fill="#6BC9C6"/>
<path d="M91.0137 443L126.508 478.494V460.96L108.548 443H91.0137Z" fill="#6BC9C6"/>
<path d="M108.548 549.509L126.508 531.55V514.015L91.0137 549.509H108.548Z" fill="#6BC9C6"/>
<path d="M55.5188 443L20 478.494V496.254L73.2534 443H55.5188Z" fill="#C31632"/>
<path d="M20 514.015L55.5188 549.509H73.2534L20 496.255V514.015Z" fill="#C31632"/>
<path d="M73.2549 443L126.508 496.254V478.494L91.0143 443H73.2549Z" fill="#C31632"/>
<path d="M91.0143 549.508L126.508 514.014V496.255L73.2549 549.508H91.0143Z" fill="#C31632"/>
<path d="M20 496.254L73.2534 549.507L126.507 496.254L73.2534 443L20 496.254ZM73.2534 531.748L37.7594 496.254L73.2534 460.76L108.747 496.254L73.2534 531.748Z" fill="#6BC9C6"/>
<path d="M73.242 460.763L37.7412 496.264L73.2419 531.765L108.743 496.264L73.242 460.763Z" fill="#F6AC1B"/>
</svg>
