<svg width="429" height="437" viewBox="0 0 429 437" fill="none" xmlns="http://www.w3.org/2000/svg">
<path d="M13.1493 292.321L245.743 335.185L253.39 291.759L20.7005 248.875C19.6247 263.585 17.1124 278.141 13.1493 292.321Z" fill="black"/>
<path d="M256.177 295.782L249.763 332.219C255.982 332.757 262.235 331.824 268.036 329.46C270.98 328.356 273.697 326.908 276.256 325.12C284.233 319.54 289.774 311.418 292.111 302.084L256.177 295.782Z" fill="#6BC9C6"/>
<path d="M296.197 299.299L303.636 257.03L333.81 235.873L358.263 270.788C356.348 272.876 354.139 274.795 351.753 276.47L278.239 328.006C275.509 329.907 272.494 331.503 269.351 332.705C262.109 335.657 253.939 336.654 245.722 335.211L253.252 292.356L253.929 291.859L296.197 299.299ZM276.235 325.145C284.212 319.565 289.754 311.443 292.09 302.109L256.172 295.781L249.757 332.217C255.977 332.756 262.229 331.823 268.031 329.458C270.975 328.354 273.719 326.922 276.235 325.145Z" fill="white"/>
<path d="M242.518 143.874L207.644 168.316C208.727 170.929 210.118 173.436 211.793 175.822L261.298 246.46L271.972 185.865L242.518 143.874Z" fill="black"/>
<path d="M325.476 132.717L324.928 132.684C304.341 129.245 284.659 141.021 277.351 159.765L319.429 167.165L325.476 132.717Z" fill="#6BC9C6"/>
<path d="M351.484 172.751C360.954 174.421 370.294 172.076 377.552 167.004C384.941 161.829 390.195 153.896 391.907 144.415L325.438 132.728L319.39 167.176L351.484 172.751Z" fill="black"/>
<path d="M240.398 143.508L222.108 117.403C207.22 128.683 201.577 148.6 208.327 165.984L240.398 143.508Z" fill="#C31632"/>
<path d="M221.784 119.627C208.893 130.214 203.843 147.812 209.107 163.592L238.259 143.158L221.784 119.627ZM222.459 115.261L242.537 143.924L207.663 168.366C199.432 149.737 205.139 127.372 222.459 115.261Z" fill="black"/>
<path d="M285.379 75.3565L227.262 116.084L243.358 139.041L275.861 116.247C282.775 111.402 287.351 104.213 288.741 95.9657C290.077 88.8578 288.87 81.6662 285.379 75.3565Z" fill="white"/>
<path d="M242.517 143.878L222.439 115.215L286.377 70.4304C291.908 78.3084 293.765 87.756 292.189 96.5707C290.682 105.39 285.77 113.591 277.891 119.122L242.517 143.878ZM275.872 116.288C282.786 111.443 287.363 104.254 288.753 96.0064C290.035 88.8678 288.855 81.6916 285.364 75.3819L227.247 116.109L243.343 139.067L275.872 116.288Z" fill="white"/>
<path d="M296.202 299.299L303.641 257.03L319.405 167.148L277.327 159.748C276.328 162.401 275.588 165.097 275.083 167.999L271.946 185.85L261.272 246.445L253.347 291.769L296.202 299.299Z" fill="#F6AC1B"/>
<path d="M362.407 215.863L333.802 235.903L358.27 270.791C372.3 256.142 374.533 233.156 362.407 215.863Z" fill="black"/>
<path d="M337.087 179.74C329.151 185.309 324.25 193.552 322.732 202.329C321.172 211.117 323.006 220.481 328.574 228.416L333.825 235.919L362.43 215.879L337.087 179.74Z" fill="#6BC9C6"/>
</svg>
