<svg width="429" height="437" viewBox="0 0 429 437" fill="none" xmlns="http://www.w3.org/2000/svg">
<path d="M415.293 292.321L182.699 335.186L175.052 291.759L407.741 248.875C408.817 263.586 411.329 278.142 415.293 292.321Z" fill="black"/>
<path d="M172.264 295.783L178.679 332.219C172.459 332.758 166.207 331.825 160.405 329.46C157.461 328.356 154.744 326.908 152.186 325.12C144.208 319.54 138.667 311.418 136.331 302.084L172.264 295.783Z" fill="#6BC9C6"/>
<path d="M132.245 299.299L124.805 257.031L94.6318 235.873L70.1786 270.789C72.0941 272.877 74.3024 274.796 76.6887 276.47L150.203 328.006C152.933 329.908 155.948 331.503 159.091 332.705C166.332 335.658 174.503 336.655 182.72 335.211L175.19 292.356L174.513 291.86L132.245 299.299ZM152.207 325.145C144.229 319.565 138.688 311.443 136.352 302.11L172.27 295.781L178.684 332.218C172.465 332.756 166.212 331.823 160.411 329.459C157.467 328.355 154.723 326.922 152.207 325.145Z" fill="white"/>
<path d="M185.924 143.875L220.798 168.317C219.715 170.929 218.323 173.436 216.649 175.823L167.144 246.461L156.47 185.865L185.924 143.875Z" fill="black"/>
<path d="M102.965 132.717L103.514 132.685C124.101 129.246 143.783 141.022 151.091 159.765L109.013 167.165L102.965 132.717Z" fill="#6BC9C6"/>
<path d="M76.9573 172.752C67.4873 174.422 58.1481 172.077 50.8897 167.004C43.5012 161.83 38.2468 153.897 36.5348 144.415L103.004 132.728L109.051 167.176L76.9573 172.752Z" fill="black"/>
<path d="M188.044 143.508L206.334 117.404C221.222 128.683 226.865 148.6 220.115 165.984L188.044 143.508Z" fill="#C31632"/>
<path d="M206.658 119.628C219.549 130.215 224.598 147.813 219.335 163.592L190.183 143.159L206.658 119.628ZM205.983 115.262L185.905 143.925L220.779 168.367C229.01 149.737 223.303 127.373 205.983 115.262Z" fill="black"/>
<path d="M143.063 75.357L201.18 116.085L185.084 139.042L152.581 116.248C145.667 111.402 141.091 104.214 139.7 95.9662C138.365 88.8583 139.572 81.6667 143.063 75.357Z" fill="white"/>
<path d="M185.925 143.878L206.002 115.216L142.064 70.4308C136.534 78.3089 134.677 87.7565 136.253 96.5712C137.76 105.39 142.672 113.591 150.55 119.122L185.925 143.878ZM152.57 116.288C145.655 111.443 141.079 104.254 139.689 96.0069C138.407 88.8683 139.587 81.6921 143.078 75.3824L201.195 116.11L185.099 139.067L152.57 116.288Z" fill="white"/>
<path d="M132.24 299.299L124.8 257.031L109.036 167.149L151.115 159.749C152.114 162.401 152.854 165.097 153.359 168L156.496 185.851L167.169 246.446L175.095 291.77L132.24 299.299Z" fill="#F6AC1B"/>
<path d="M66.0347 215.863L94.6401 235.903L70.1716 270.792C56.1418 256.143 53.9084 233.157 66.0347 215.863Z" fill="black"/>
<path d="M91.3549 179.741C99.2903 185.309 104.191 193.553 105.71 202.33C107.27 211.118 105.436 220.481 99.8672 228.417L94.6168 235.92L66.0113 215.88L91.3549 179.741Z" fill="#6BC9C6"/>
</svg>
