<svg width="962" height="678" viewBox="0 0 962 678" fill="none" xmlns="http://www.w3.org/2000/svg">
<path d="M204.943 340.216L200.833 416.976C207.786 417.349 213.138 423.376 212.759 430.451L288.391 434.5C291.021 385.048 253.667 342.824 204.943 340.216Z" fill="#6BC8C5"/>
<path d="M132.897 339.809C135.375 341.249 137.733 342.628 141.742 341.826C145.751 341.024 147.401 338.862 149.147 336.581C150.953 334.198 153.01 331.512 157.81 330.549C162.609 329.604 165.549 331.305 168.13 332.804C170.626 334.245 172.966 335.623 176.993 334.822C181.02 334.022 182.67 331.859 184.416 329.578C184.784 329.106 185.171 328.617 185.575 328.129L184.197 328.038C182.403 329.429 180.163 330.577 176.734 330.654C172.079 330.757 169.512 328.779 167.309 326.931L151.621 325.903C151.207 326.266 150.793 326.629 150.395 327.011C148.186 329.048 145.694 331.334 140.808 331.439C135.922 331.545 133.334 329.352 131.047 327.428C129.433 326.063 127.869 324.754 125.511 324.191L121.978 323.959C120.801 324.042 119.792 324.277 118.918 324.628C118.658 329.401 118.776 334.093 119.255 338.702C120.208 338.232 121.299 337.825 122.593 337.572C127.376 336.608 130.298 338.308 132.897 339.809Z" fill="#F6AC1B"/>
<path d="M176.676 328.538C178.223 328.498 179.465 328.224 180.523 327.779L171.178 327.167C172.613 328.006 174.295 328.595 176.676 328.538Z" fill="#F6AC1B"/>
<path d="M140.751 329.324C144.659 329.243 146.669 327.548 148.689 325.693L130.811 324.521C131.368 324.948 131.89 325.372 132.394 325.813C134.561 327.659 136.647 329.41 140.751 329.324Z" fill="#F6AC1B"/>
<path d="M181.42 403.933C183.909 402.499 186.269 401.146 187.587 397.276C188.906 393.406 187.846 390.888 186.742 388.243C185.592 385.489 184.29 382.352 185.853 377.717C187.435 373.084 190.366 371.395 192.965 369.915C195.454 368.482 197.814 367.128 199.133 363.241C200.452 359.353 199.41 356.854 198.289 354.19C197.14 351.418 195.837 348.299 197.4 343.664C197.952 342.015 198.691 340.75 199.522 339.723C199.318 339.585 199.114 339.447 198.929 339.293C198.264 339.96 197.643 340.77 197.078 341.816C195.103 345.412 195.711 348.06 196.325 350.868C196.985 353.785 197.726 357.098 195.368 361.397C193.012 365.678 189.831 366.836 187.014 367.858C184.307 368.833 181.744 369.765 179.788 373.345C177.814 376.942 178.403 379.588 179.053 382.399C179.713 385.316 180.454 388.629 178.098 392.91C175.741 397.191 172.561 398.349 169.744 399.371C167.036 400.346 164.474 401.261 162.518 404.858C162.398 405.063 162.332 405.254 162.23 405.46C166.124 407.756 170.199 409.744 174.453 411.424C176.036 407.04 178.877 405.381 181.42 403.933Z" fill="#F6AC1B"/>
<path d="M204.505 355.183C204.681 355.479 204.874 355.775 205.068 356.072L205.986 342.063C205.315 342.019 204.667 341.887 204.02 341.739C203.127 342.922 202.428 344.384 202.115 346.439C201.496 350.48 202.961 352.758 204.505 355.183Z" fill="#F6AC1B"/>
<path d="M194.748 408.232C196.962 406.39 199.046 404.646 199.665 400.606C200.267 396.564 198.821 394.27 197.276 391.862C195.667 389.343 193.832 386.473 194.574 381.66C195.316 376.83 197.924 374.659 200.215 372.733C201.811 371.401 203.314 370.116 204.286 368.015L204.795 360.242C204.322 358.809 203.55 357.588 202.745 356.328C201.136 353.81 199.302 350.94 200.044 346.109C200.38 343.967 201.088 342.363 201.973 341.055C201.765 340.971 201.556 340.921 201.367 340.82C200.599 341.71 199.923 342.819 199.416 344.329C198.097 348.217 199.139 350.716 200.242 353.379C201.392 356.133 202.695 359.27 201.131 363.905C199.55 368.538 196.618 370.227 194.02 371.706C191.53 373.14 189.171 374.493 187.853 378.363C186.534 382.233 187.593 384.751 188.698 387.396C189.848 390.151 191.15 393.288 189.586 397.922C188.023 402.557 185.074 404.244 182.475 405.724C180.041 407.126 177.736 408.465 176.414 412.122C180.607 413.656 184.944 414.881 189.41 415.777C190.372 411.919 192.683 409.959 194.748 408.232Z" fill="#F6AC1B"/>
<path d="M201.566 374.33C199.351 376.172 197.268 377.916 196.647 381.974C196.026 386.031 197.491 388.31 199.036 390.717C200.646 393.236 202.481 396.088 201.739 400.919C200.996 405.749 198.388 407.92 196.097 409.846C194.126 411.491 192.267 413.054 191.439 416.211C194.578 416.772 197.782 417.159 201.05 417.374L204.02 372.078C203.219 372.93 202.373 373.655 201.566 374.33Z" fill="#F6AC1B"/>
<path d="M169.024 397.372C171.732 396.397 174.294 395.482 176.25 391.885C178.224 388.306 177.618 385.641 176.986 382.831C176.325 379.914 175.585 376.601 177.941 372.32C180.297 368.039 183.478 366.881 186.295 365.859C189.003 364.884 191.565 363.952 193.521 360.372C195.496 356.775 194.906 354.129 194.274 351.319C193.631 348.403 192.873 345.089 195.231 340.79C195.896 339.574 196.632 338.629 197.393 337.845C197.211 337.638 197.066 337.415 196.904 337.192C196.341 337.652 195.772 338.218 195.23 338.91C192.66 342.112 192.784 344.817 192.915 347.7C193.055 350.707 193.206 354.088 190.153 357.898C187.1 361.707 183.744 362.286 180.8 362.802C177.965 363.291 175.291 363.754 172.722 366.957C170.153 370.141 170.294 372.865 170.425 375.73C170.567 378.72 170.718 382.101 167.663 385.928C164.61 389.738 161.255 390.316 158.311 390.833C155.476 391.321 152.802 391.785 150.232 394.987C149.885 395.408 149.592 395.832 149.352 396.242C152.811 399.219 156.502 401.927 160.405 404.365C160.487 404.193 160.552 404.02 160.653 403.832C163.009 399.551 166.207 398.394 169.024 397.372Z" fill="#F6AC1B"/>
<path d="M148.552 378.378C151.425 378.389 154.14 378.389 157.226 375.7C160.313 372.992 160.649 370.3 161.013 367.449C161.386 364.475 161.837 361.116 165.507 357.897C169.178 354.678 172.584 354.689 175.564 354.689C178.438 354.7 181.152 354.7 184.238 352.011C187.326 349.303 187.679 346.612 188.044 343.762C188.434 340.789 188.867 337.429 192.539 334.192C193.254 333.565 193.963 333.043 194.663 332.646C194.593 332.357 194.506 332.068 194.455 331.763C194.034 331.948 193.612 332.169 193.187 332.425C189.676 334.554 188.868 337.145 188.014 339.892C187.117 342.743 186.105 345.994 181.93 348.524C177.754 351.053 174.405 350.461 171.459 349.931C168.618 349.425 165.952 348.949 162.443 351.061C158.95 353.192 158.141 355.782 157.269 358.528C156.373 361.379 155.361 364.631 151.186 367.16C147.01 369.69 143.66 369.097 140.714 368.567C137.873 368.062 135.208 367.585 131.698 369.697C130.756 370.274 130.006 370.881 129.396 371.533C131.613 375.6 134.143 379.491 136.956 383.135C137.398 382.614 137.876 382.096 138.461 381.566C142.167 378.349 145.572 378.36 148.552 378.378Z" fill="#F6AC1B"/>
<path d="M130.646 367.905C134.821 365.376 138.171 365.968 141.117 366.498C143.941 367.003 146.624 367.48 150.116 365.367C153.608 363.237 154.435 360.647 155.289 357.9C156.185 355.049 157.197 351.798 161.373 349.268C165.548 346.739 168.898 347.331 171.844 347.861C174.685 348.367 177.35 348.843 180.86 346.731C184.37 344.602 185.179 342.011 186.033 339.264C186.93 336.413 187.941 333.161 192.117 330.632C192.875 330.167 193.589 329.824 194.299 329.551C194.3 329.267 194.248 328.98 194.266 328.697L194.143 328.689C193.781 328.789 193.44 328.856 193.057 329.008C189.234 330.496 187.993 332.916 186.654 335.472C185.274 338.132 183.709 341.152 179.157 342.929C174.605 344.707 171.417 343.54 168.611 342.504C165.908 341.511 163.361 340.581 159.538 342.069C155.732 343.558 154.475 345.959 153.154 348.516C151.773 351.176 150.227 354.197 145.658 355.956C141.106 357.733 137.918 356.566 135.112 355.53C132.409 354.537 129.862 353.607 126.039 355.095C124.801 355.582 123.858 356.159 123.07 356.817C124.517 361.258 126.293 365.562 128.401 369.674C129.029 369.024 129.759 368.45 130.646 367.905Z" fill="#F6AC1B"/>
<path d="M157.968 388.77C160.803 388.282 163.477 387.818 166.046 384.616C168.615 381.431 168.474 378.707 168.343 375.842C168.184 372.851 168.051 369.471 171.105 365.644C174.158 361.834 177.513 361.256 180.457 360.739C183.292 360.251 185.966 359.788 188.536 356.585C191.105 353.382 190.981 350.678 190.851 347.795C190.71 344.805 190.56 341.406 193.613 337.597C194.327 336.721 195.046 336.023 195.776 335.45C195.633 335.192 195.527 334.919 195.403 334.645C194.922 334.95 194.438 335.291 193.947 335.738C190.86 338.445 190.506 341.137 190.142 343.987C189.752 346.96 189.319 350.32 185.647 353.557C181.976 356.776 178.571 356.766 175.59 356.765C172.716 356.754 170.002 356.754 166.915 359.461C163.846 362.152 163.491 364.861 163.127 367.711C162.737 370.684 162.304 374.044 158.633 377.264C154.963 380.483 151.557 380.472 148.576 380.472C145.703 380.461 142.988 380.46 139.902 383.15C139.262 383.711 138.765 384.264 138.337 384.839C141.225 388.417 144.395 391.748 147.812 394.828C148.069 394.437 148.324 394.063 148.634 393.658C151.668 389.865 155.006 389.285 157.968 388.77Z" fill="#F6AC1B"/>
<path d="M135.829 353.522C138.531 354.515 141.078 355.445 144.902 353.957C148.725 352.469 149.965 350.067 151.286 347.51C152.667 344.85 154.213 341.829 158.764 340.069C163.316 338.292 166.504 339.459 169.328 340.496C172.031 341.489 174.578 342.419 178.401 340.931C182.224 339.443 183.465 337.022 184.804 334.467C185.88 332.39 187.077 330.109 189.71 328.366L188.262 328.271C187.465 329.052 186.787 329.93 186.107 330.826C184.283 333.208 182.225 335.912 177.426 336.857C172.627 337.802 169.687 336.101 167.106 334.602C164.61 333.161 162.27 331.783 158.243 332.583C154.234 333.385 152.584 335.548 150.838 337.829C149.032 340.212 146.974 342.916 142.175 343.861C137.376 344.806 134.453 343.106 131.855 341.605C129.377 340.165 127.019 338.787 123.01 339.588C121.572 339.867 120.459 340.344 119.516 340.92C120.132 345.592 121.091 350.179 122.415 354.612C123.215 354.044 124.172 353.521 125.319 353.082C129.834 351.32 133.022 352.487 135.829 353.522Z" fill="#F6AC1B"/>
<path d="M118.921 323.74C118.903 324.023 118.901 324.325 118.882 324.607C119.757 324.257 120.766 324.021 121.942 323.939L118.921 323.74Z" fill="black"/>
<path d="M131.013 327.407C133.3 329.332 135.888 331.524 140.774 331.418C145.66 331.313 148.153 329.01 150.361 326.99C150.777 326.61 151.173 326.245 151.587 325.882L148.655 325.69C146.635 327.544 144.643 329.241 140.717 329.321C136.63 329.408 134.545 327.657 132.342 325.809C131.837 325.386 131.316 324.943 130.759 324.517L125.459 324.169C127.835 324.733 129.399 326.042 131.013 327.407Z" fill="black"/>
<path d="M135.116 355.479C137.922 356.515 141.111 357.682 145.663 355.904C150.215 354.127 151.777 351.124 153.158 348.465C154.479 345.908 155.719 343.505 159.542 342.017C163.366 340.529 165.912 341.477 168.615 342.452C171.422 343.488 174.61 344.655 179.162 342.878C183.714 341.1 185.278 338.08 186.659 335.421C187.979 332.864 189.238 330.445 193.061 328.957C193.444 328.804 193.784 328.756 194.147 328.637L189.695 328.346C187.079 330.09 185.865 332.37 184.789 334.447C183.468 337.003 182.209 339.423 178.386 340.911C174.562 342.399 172.016 341.451 169.313 340.476C166.506 339.44 163.318 338.273 158.749 340.049C154.197 341.827 152.634 344.829 151.271 347.49C149.95 350.047 148.709 352.467 144.887 353.937C141.063 355.425 138.517 354.478 135.814 353.502C133.007 352.466 129.819 351.299 125.267 353.077C124.121 353.516 123.181 354.04 122.364 354.607C122.582 355.331 122.82 356.039 123.04 356.745C123.828 356.087 124.771 355.51 126.009 355.024C129.849 353.555 132.414 354.486 135.116 355.479Z" fill="black"/>
<path d="M169.729 399.354C172.546 398.332 175.743 397.193 178.083 392.893C180.44 388.612 179.681 385.298 179.038 382.382C178.406 379.572 177.817 376.926 179.774 373.328C181.748 369.732 184.292 368.816 187 367.841C189.817 366.819 193.014 365.68 195.354 361.38C197.71 357.099 196.971 353.768 196.31 350.851C195.678 348.042 195.089 345.395 197.063 341.799C197.629 340.753 198.267 339.944 198.914 339.276C198.375 338.833 197.857 338.356 197.393 337.846C196.615 338.629 195.896 339.575 195.231 340.791C192.874 345.072 193.633 348.387 194.275 351.321C194.906 354.13 195.496 356.777 193.521 360.373C191.547 363.969 189.003 364.885 186.296 365.861C183.479 366.882 180.281 368.021 177.941 372.321C175.603 376.603 176.343 379.916 176.986 382.833C177.618 385.642 178.207 388.288 176.251 391.886C174.276 395.482 171.732 396.398 169.025 397.374C166.208 398.395 163.011 399.534 160.671 403.834C160.57 404.022 160.506 404.178 160.423 404.368C161.019 404.744 161.618 405.085 162.233 405.444C162.335 405.238 162.401 405.047 162.521 404.842C164.477 401.245 167.021 400.329 169.729 399.354Z" fill="black"/>
<path d="M200.217 372.717C197.908 374.641 195.318 376.813 194.575 381.644C193.834 386.457 195.668 389.327 197.277 391.845C198.839 394.272 200.287 396.549 199.667 400.589C199.046 404.647 196.964 406.373 194.749 408.215C192.685 409.942 190.374 411.902 189.391 415.794C190.074 415.928 190.756 416.079 191.441 416.195C192.269 413.038 194.128 411.474 196.098 409.829C198.389 407.904 200.998 405.733 201.74 400.902C202.483 396.072 200.647 393.219 199.038 390.701C197.476 388.274 196.011 385.996 196.648 381.957C197.269 377.899 199.352 376.173 201.567 374.313C202.374 373.639 203.22 372.914 204.021 372.061L204.29 367.963C203.332 370.118 201.811 371.402 200.217 372.717Z" fill="black"/>
<path d="M131.838 341.62C134.419 343.12 137.359 344.821 142.158 343.876C146.957 342.931 149.015 340.227 150.821 337.844C152.567 335.563 154.217 333.4 158.226 332.599C162.253 331.798 164.594 333.158 167.089 334.617C169.67 336.116 172.61 337.817 177.409 336.872C182.209 335.909 184.266 333.223 186.09 330.841C186.769 329.946 187.448 329.067 188.244 328.286L185.577 328.111C185.172 328.599 184.785 329.088 184.417 329.561C182.671 331.841 181.021 334.004 176.994 334.805C172.968 335.605 170.626 334.245 168.131 332.787C165.551 331.287 162.611 329.586 157.812 330.531C153.013 331.476 150.955 334.18 149.148 336.563C147.402 338.844 145.752 341.007 141.743 341.808C137.734 342.61 135.375 341.249 132.898 339.791C130.317 338.292 127.377 336.591 122.578 337.536C121.266 337.787 120.193 338.196 119.24 338.665C119.315 339.415 119.39 340.165 119.482 340.917C120.425 340.34 121.555 339.882 122.976 339.584C127 338.819 129.342 340.179 131.838 341.62Z" fill="black"/>
<path d="M182.456 405.759C185.056 404.262 188.005 402.575 189.567 397.958C191.131 393.323 189.827 390.204 188.678 387.432C187.574 384.787 186.515 382.269 187.833 378.399C189.153 374.511 191.511 373.175 194 371.742C196.6 370.245 199.549 368.557 201.112 363.94C202.675 359.306 201.373 356.169 200.223 353.414C199.12 350.752 198.077 348.253 199.397 344.365C199.904 342.855 200.58 341.746 201.348 340.856C200.711 340.548 200.097 340.171 199.539 339.761C198.708 340.789 197.969 342.054 197.417 343.703C195.836 348.336 197.156 351.475 198.306 354.229C199.409 356.892 200.47 359.392 199.15 363.28C197.831 367.167 195.471 368.521 192.982 369.954C190.382 371.451 187.433 373.139 185.871 377.756C184.307 382.39 185.611 385.51 186.76 388.282C187.862 390.944 188.905 393.443 187.605 397.315C186.285 401.202 183.927 402.538 181.437 403.972C178.912 405.421 176.053 407.078 174.454 411.444C175.094 411.699 175.752 411.938 176.411 412.176C177.735 408.484 180.023 407.143 182.456 405.759Z" fill="black"/>
<path d="M148.558 380.471C151.556 380.473 154.944 380.482 158.615 377.263C162.286 374.044 162.719 370.684 163.109 367.711C163.473 364.861 163.827 362.169 166.897 359.461C169.984 356.753 172.697 356.772 175.572 356.765C178.57 356.766 181.958 356.776 185.629 353.556C189.3 350.337 189.734 346.959 190.124 343.987C190.488 341.136 190.843 338.427 193.929 335.738C194.419 335.309 194.903 334.95 195.385 334.644C195.091 333.986 194.851 333.314 194.666 332.61C193.965 333.026 193.258 333.529 192.543 334.156C188.872 337.376 188.42 340.752 188.047 343.726C187.683 346.577 187.328 349.286 184.242 351.975C181.155 354.683 178.442 354.664 175.568 354.653C172.57 354.652 169.182 354.643 165.511 357.862C161.84 361.081 161.407 364.441 161.017 367.414C160.653 370.264 160.299 372.956 157.229 375.664C154.142 378.371 151.429 378.353 148.556 378.342C145.557 378.341 142.169 378.332 138.498 381.551C137.915 382.063 137.418 382.598 136.994 383.12C137.436 383.681 137.86 384.259 138.319 384.821C138.746 384.264 139.245 383.693 139.885 383.132C142.952 380.459 145.684 380.461 148.558 380.471Z" fill="black"/>
<path d="M200.045 346.11C199.285 350.939 201.137 353.81 202.746 356.329C203.551 357.588 204.324 358.792 204.796 360.242L205.069 356.091C204.875 355.794 204.699 355.499 204.506 355.202C202.962 352.777 201.479 350.497 202.117 346.441C202.429 344.385 203.129 342.923 204.022 341.74C203.306 341.569 202.629 341.347 201.972 341.073C201.089 342.364 200.382 343.95 200.045 346.11Z" fill="black"/>
<path d="M158.311 390.835C161.254 390.318 164.61 389.74 167.663 385.93C170.716 382.121 170.565 378.74 170.425 375.732C170.293 372.867 170.17 370.145 172.721 366.959C175.291 363.756 177.965 363.293 180.8 362.804C183.743 362.288 187.099 361.709 190.152 357.9C193.223 354.091 193.054 350.709 192.914 347.702C192.783 344.837 192.659 342.114 195.229 338.912C195.789 338.221 196.339 337.671 196.903 337.194C196.478 336.634 196.073 336.057 195.74 335.45C195.01 336.023 194.29 336.721 193.577 337.597C190.506 341.405 190.673 344.805 190.814 347.795C190.945 350.677 191.069 353.382 188.499 356.585C185.93 359.787 183.256 360.251 180.421 360.739C177.477 361.256 174.121 361.834 171.068 365.644C168.016 369.453 168.149 372.833 168.306 375.842C168.438 378.707 168.561 381.429 166.01 384.615C163.441 387.818 160.767 388.281 157.931 388.77C154.988 389.286 151.632 389.865 148.579 393.674C148.27 394.062 147.996 394.452 147.757 394.845C148.276 395.322 148.795 395.8 149.332 396.261C149.59 395.852 149.866 395.427 150.213 395.006C152.8 391.804 155.475 391.323 158.311 390.835Z" fill="black"/>
<path d="M131.735 369.7C135.228 367.569 137.911 368.046 140.751 368.57C143.697 369.1 147.047 369.692 151.223 367.163C155.398 364.633 156.41 361.382 157.306 358.531C158.161 355.783 158.969 353.193 162.48 351.063C165.99 348.934 168.656 349.41 171.496 349.933C174.442 350.464 177.774 351.055 181.967 348.526C186.144 345.979 187.172 342.747 188.051 339.895C188.905 337.147 189.731 334.558 193.224 332.427C193.668 332.155 194.089 331.952 194.492 331.765C194.361 331.047 194.32 330.317 194.316 329.571C193.606 329.844 192.892 330.188 192.134 330.653C187.957 333.2 186.947 336.433 186.05 339.284C185.196 342.032 184.37 344.621 180.877 346.752C177.366 348.881 174.701 348.405 171.861 347.882C168.915 347.351 165.565 346.759 161.39 349.289C157.214 351.818 156.204 355.052 155.306 357.921C154.452 360.668 153.643 363.258 150.133 365.388C146.64 367.519 143.956 367.041 141.134 366.519C138.188 365.989 134.838 365.397 130.663 367.926C129.776 368.471 129.064 369.045 128.423 369.624C128.753 370.267 129.101 370.911 129.45 371.537C130.042 370.902 130.775 370.275 131.735 369.7Z" fill="black"/>
<path d="M176.718 330.634C180.147 330.557 182.387 329.409 184.181 328.018L180.524 327.779C179.466 328.224 178.206 328.496 176.678 328.538C174.297 328.595 172.614 328.005 171.179 327.166L167.292 326.911C169.495 328.759 172.08 330.738 176.718 330.634Z" fill="black"/>
<path d="M70.6072 265.675C107.848 258.439 149.294 274.414 163.637 322.704C163.69 322.887 163.762 323.065 163.82 323.266L137.241 330.997C127.221 296.546 96.4511 286.723 70.5384 294.081L62.9266 267.909L70.6072 265.675Z" fill="#C31632"/>
<path d="M160.405 299.161C160.425 299.161 160.425 299.161 160.444 299.161L163.426 311.539C163.345 311.349 163.265 311.159 163.184 310.969L160.405 299.161Z" fill="black"/>
<path d="M158.794 294.614C158.817 294.805 158.821 294.996 158.844 295.187C158.821 294.977 158.816 294.767 158.792 294.538C158.793 294.576 158.794 294.595 158.794 294.614Z" fill="black"/>
<path d="M162.861 268.073C162.843 268.111 162.825 268.148 162.808 268.185C162.808 268.185 162.808 268.185 162.789 268.167L162.807 268.167C162.825 268.148 162.843 268.111 162.861 268.073Z" fill="black"/>
<path d="M165.403 263.054C165.384 263.054 165.384 263.054 165.403 263.054C165.126 263.558 164.887 264.062 164.61 264.566C164.591 264.586 164.592 264.624 164.573 264.644C164.849 264.101 165.107 263.559 165.403 263.054Z" fill="black"/>
<path d="M110.855 310.849C110.049 310.828 109.224 310.827 108.419 310.844C106.329 310.889 104.299 311.048 102.291 311.322C93.1487 312.554 84.7245 316.034 77.6401 321.21C78.4289 309.401 83.017 298.584 90.2222 290.012C95.9297 283.197 103.297 277.785 111.724 274.439L111.743 274.439C117.62 272.088 123.104 270.148 126.373 269.637C127.1 269.525 128.17 269.349 128.899 269.372C121.141 262.502 118.317 255.871 112.498 247.254C106.836 238.805 102.174 229.587 98.7461 219.768C115.751 226.725 134.433 230.387 153.988 229.966C157.477 229.891 160.925 229.682 164.333 229.36C164.469 229.452 164.605 229.526 164.722 229.62C167.214 231.387 169.762 233.096 172.385 234.708C177.3 237.708 182.439 240.397 187.763 242.717C184.789 243.586 181.674 244.171 178.497 244.47C177.195 244.613 175.893 244.679 174.551 244.708C170.755 244.79 167.084 244.466 163.502 243.777C162.405 243.57 161.306 243.326 160.246 243.042C153.341 241.235 146.984 238.055 141.504 233.782C140.881 233.297 140.256 232.774 139.651 232.269C139.742 232.976 139.853 233.664 140.002 234.371C141.056 239.87 142.968 245.044 145.598 249.781C147.831 253.816 150.593 257.496 153.807 260.763C153.925 260.913 154.062 261.045 154.199 261.176C156.805 263.804 159.693 266.158 162.823 268.161C162.117 268.349 161.431 268.536 160.724 268.686C157.517 269.426 154.303 269.821 151.083 269.929C146.963 270.094 142.889 269.722 138.94 268.925C135.974 268.318 133.079 267.479 130.294 266.37C131.473 268.626 132.803 270.783 134.284 272.803C136.693 276.125 139.48 279.114 142.546 281.732C143.249 282.33 143.951 282.89 144.672 283.45C146.115 284.589 147.613 285.592 149.168 286.555C149.381 286.685 149.596 286.834 149.809 286.944C152.586 288.61 155.531 289.984 158.545 291.07C158.526 291.07 158.507 291.051 158.507 291.051L158.527 291.108C156.13 292.943 153.613 294.57 150.995 295.949C147.011 298.048 142.823 299.596 138.509 300.59C135.913 301.183 133.275 301.604 130.613 301.795C131.938 302.783 133.28 303.694 134.659 304.508C135.203 304.841 135.747 305.155 136.31 305.469C141.181 308.202 146.399 310.064 151.733 311.08C151.733 311.08 151.733 311.08 151.752 311.08C153.331 311.391 154.909 311.626 156.504 311.764C158.811 312.002 161.133 312.067 163.471 311.978C163.509 311.977 163.548 311.976 163.586 311.975L163.608 312.09C162.261 313.749 160.856 315.332 159.352 316.783C152.942 323.019 145.169 327.366 136.854 329.654C148.595 335.288 161.674 336.118 173.609 332.697C175.364 332.199 177.097 331.605 178.808 330.917C178.225 332.348 177.563 333.743 176.863 335.119C173.858 340.898 169.822 346.008 165 350.254C173.745 350.199 182.06 347.93 189.381 343.957C190.388 346.274 191.586 348.492 192.877 350.611C191.997 353.487 190.886 356.291 189.542 358.985C191.919 358.014 194.139 356.835 196.298 355.561C198.308 358.125 200.525 360.494 202.948 362.627C203.848 363.451 204.785 364.217 205.74 364.944C204.479 365.221 203.238 365.459 201.995 365.639L201.976 365.639C198.4 366.157 194.817 366.33 191.321 366.118L191.302 366.118C185.407 365.805 179.665 364.529 174.307 362.401C174.185 371.204 176.222 379.673 179.967 387.224C173.394 385.659 167.371 382.932 162.059 379.307C159.685 377.671 157.442 375.879 155.368 373.911C151.631 370.406 148.439 366.371 145.815 361.96C141.744 367.206 138.796 372.983 136.927 379.006C135.742 382.866 134.981 386.832 134.661 390.808C130.999 387.205 127.923 383.188 125.474 378.888C119.699 368.716 117.42 356.974 118.792 345.517C110.388 349.954 103.579 356.39 98.693 363.973C97.2336 359.307 96.444 354.569 96.2879 349.856C95.8333 337.288 99.7962 325.008 107.262 315.126C108.381 313.645 109.56 312.22 110.855 310.849Z" fill="black"/>
<path d="M187.766 242.746C184.589 244.003 181.555 245.698 178.721 247.754C178.607 247.833 178.475 247.932 178.362 248.03C176.02 249.768 173.837 251.79 171.813 254.058C171.101 254.878 170.428 255.698 169.755 256.537C169.156 257.279 168.616 258.038 168.076 258.817C167.107 260.199 166.236 261.637 165.403 263.074C165.107 263.598 164.849 264.121 164.573 264.645C163.983 265.789 163.374 266.934 162.861 268.095C162.842 268.134 162.824 268.173 162.806 268.211L162.787 268.212C159.675 266.189 156.768 263.855 154.162 261.226C154.025 261.076 153.888 260.944 153.77 260.813C150.575 257.545 147.793 253.847 145.561 249.83C142.93 245.112 141.018 239.919 139.963 234.419C139.833 233.712 139.723 233.024 139.612 232.317C140.218 232.841 140.842 233.345 141.466 233.83C146.945 238.084 153.304 241.284 160.209 243.091C161.289 243.374 162.368 243.619 163.466 243.826C167.048 244.516 170.719 244.839 174.515 244.757C175.838 244.729 177.159 244.643 178.461 244.519C181.658 244.181 184.753 243.597 187.766 242.746C187.784 242.726 187.784 242.726 187.823 242.725C187.784 242.726 187.765 242.727 187.766 242.746Z" fill="#6BC9C6"/>
<path d="M162.163 269.772C162.017 270.12 161.89 270.468 161.763 270.816C160.784 273.502 160.016 276.242 159.48 279.014C159.028 281.267 158.73 283.537 158.605 285.802C158.488 287.568 158.467 289.314 158.542 291.057C155.527 289.952 152.582 288.578 149.805 286.931C149.592 286.821 149.377 286.672 149.164 286.542C147.609 285.598 146.13 284.575 144.668 283.437C143.947 282.896 143.245 282.336 142.541 281.719C139.494 279.119 136.708 276.13 134.279 272.789C132.817 270.769 131.487 268.611 130.289 266.355C133.093 267.465 135.969 268.304 138.936 268.911C142.904 269.727 146.978 270.08 151.079 269.915C154.281 269.807 157.514 269.393 160.721 268.671C161.428 268.522 162.115 268.354 162.82 268.147C162.84 268.166 162.84 268.166 162.84 268.166C162.582 268.708 162.363 269.23 162.163 269.772Z" fill="#6BC9C6"/>
<path d="M158.66 292.871C158.691 293.426 158.722 294.001 158.791 294.555C158.815 294.766 158.819 294.976 158.843 295.206C158.986 296.526 159.186 297.845 159.424 299.144C159.985 302.104 160.813 305.02 161.87 307.854C162.277 308.958 162.74 310.021 163.223 311.085L163.434 312.001C161.095 312.089 158.773 312.005 156.466 311.786C154.871 311.648 153.293 311.414 151.714 311.103C151.695 311.103 151.695 311.103 151.695 311.103C146.36 310.087 141.141 308.205 136.27 305.491C135.727 305.196 135.164 304.882 134.619 304.53C133.24 303.697 131.898 302.805 130.573 301.817C133.216 301.626 135.855 301.224 138.47 300.612C142.765 299.618 146.971 298.051 150.956 295.97C153.574 294.591 156.092 292.964 158.489 291.129L158.532 291.32C158.561 291.818 158.63 292.334 158.66 292.871Z" fill="#6BC9C6"/>
<path d="M163.429 311.521L163.449 311.578C163.369 311.407 163.308 311.236 163.229 311.085L163.207 310.971C163.287 311.141 163.348 311.331 163.429 311.521Z" fill="#6BC9C6"/>
<path d="M163.65 312.029C166.639 318.312 170.903 324.087 176.453 328.973C177.216 329.647 177.997 330.301 178.777 330.936C177.065 331.625 175.351 332.218 173.578 332.717C161.66 336.137 148.56 335.307 136.818 329.674C145.134 327.385 152.908 323.037 159.318 316.801C160.803 315.35 162.228 313.766 163.575 312.107L163.65 312.029Z" fill="#6BC9C6"/>
<path d="M233.405 343.011C231.369 348.347 228.464 353.433 224.607 357.964C224.559 353.824 223.992 349.656 222.93 345.615C222.91 345.577 222.909 345.557 222.909 345.519C222.909 345.519 222.928 345.519 222.927 345.5C226.463 344.886 229.974 344.044 233.405 343.011Z" fill="#6BC9C6"/>
<path d="M209.386 344.659C213.813 345.407 218.288 345.675 222.734 345.521C222.791 345.501 222.83 345.5 222.906 345.498L222.907 345.518C222.888 345.556 222.87 345.595 222.852 345.634C219.396 351.901 214.603 357.527 208.617 362.027C209.699 356.904 210.049 351.624 209.555 346.342C209.506 345.845 209.458 345.366 209.39 344.869L209.391 344.889C209.408 344.812 209.387 344.735 209.386 344.659Z" fill="#6BC9C6"/>
<path d="M192.852 350.613C193.534 348.354 194.1 346.041 194.492 343.693C194.662 342.654 194.793 341.597 194.905 340.52C193.828 341.292 192.711 342.025 191.574 342.702C190.855 343.139 190.115 343.538 189.375 343.938C182.054 347.912 173.719 350.181 164.992 350.235C169.814 346.008 173.851 340.898 176.856 335.099C177.556 333.723 178.218 332.328 178.802 330.896C183.816 334.93 189.254 338.13 194.924 340.501C199.606 342.433 204.45 343.824 209.34 344.658C208.89 345.185 208.44 345.694 207.971 346.183C204.614 349.822 200.67 352.937 196.312 355.504C194.151 356.778 191.932 357.957 189.554 358.929C190.88 356.293 191.973 353.489 192.852 350.613Z" fill="#6BC9C6"/>
<path d="M309.488 328.386C306.133 327.557 302.616 326.367 299.073 324.794C292.258 321.777 286.499 317.894 282.445 313.897C282.721 311.494 282.785 309.077 282.696 306.662L288.147 306.794L288.166 306.813C295.832 314.74 305.96 320.236 317.28 322.178C314.95 324.491 312.326 326.541 309.488 328.386Z" fill="#6BC9C6"/>
<path d="M323.657 329.639C322.605 329.776 321.455 329.801 320.265 329.808C321.177 327.525 321.934 325.208 322.498 322.818C324.131 322.936 325.763 323.016 327.431 322.98C339.76 322.714 351.023 318.253 359.868 311.024C351.564 321.194 339.549 328.242 325.853 330.071C325.367 329.774 324.826 329.575 324.232 329.588C324.039 329.573 323.848 329.596 323.657 329.639Z" fill="#6BC9C6"/>
<path d="M268.39 313.566L254.225 313.238L233.919 312.773C237.023 310.769 239.716 308.371 242.04 305.732L260.081 306.149L274.246 306.478L274.322 306.476L278.756 306.592C277.389 309.076 275.808 311.469 273.975 313.714L268.39 313.566Z" fill="#6BC9C6"/>
<path d="M230.042 301.712C230.101 301.807 230.18 301.882 230.239 301.957C228.546 304.448 226.561 306.772 224.187 308.798C223.452 307.587 223.02 306.178 222.988 304.664C222.908 300.85 225.429 297.594 228.917 296.541C228.886 296.886 228.835 297.214 228.843 297.578C228.875 299.092 229.307 300.52 230.042 301.712Z" fill="#6BC9C6"/>
<path d="M309.493 328.383C312.332 326.558 314.954 324.488 317.265 322.176C319.708 319.745 321.878 317.11 323.698 314.271C323.547 317.151 323.147 320.016 322.496 322.811C321.932 325.2 321.175 327.537 320.263 329.8C317.022 329.812 313.368 329.335 309.493 328.383Z" fill="white"/>
<path d="M282.441 313.895L273.998 313.674C275.83 311.43 277.411 309.038 278.778 306.554C280.034 304.264 281.116 301.883 281.967 299.449C282.419 301.835 282.623 304.247 282.692 306.642C282.782 309.075 282.717 311.492 282.441 313.895Z" fill="white"/>
<path d="M305.155 284.496C305.193 284.476 305.231 284.437 305.269 284.417C305.289 284.474 305.329 284.531 305.368 284.587C310.557 286.892 316.338 288.11 322.397 287.979C325.292 287.917 328.104 287.549 330.796 286.897C336.389 285.587 341.497 283.099 345.895 279.706C345.945 280.223 345.993 280.721 346.004 281.238C346.019 281.928 346.014 282.599 345.951 283.272C345.603 289.55 342.959 295.226 338.828 299.477C338.905 298.574 338.944 297.671 338.924 296.751C338.865 293.934 338.349 291.241 337.452 288.729C332.153 291.278 326.219 292.787 319.949 292.922C316.363 292.999 312.864 292.634 309.549 291.861C309.567 291.803 309.604 291.764 309.622 291.706C309.546 291.746 309.451 291.787 309.375 291.827C309.433 291.844 309.491 291.862 309.549 291.88C308.045 295.173 305.899 298.057 303.32 300.395C301.871 301.711 300.283 302.838 298.596 303.795C298.942 302.944 299.231 302.056 299.481 301.168C299.854 299.76 300.113 298.374 300.257 296.99C300.337 296.259 300.38 295.549 300.384 294.82C299.906 294.926 299.448 295.013 298.97 295.1C296.867 295.452 294.723 295.671 292.538 295.718C291.08 295.749 289.641 295.704 288.219 295.6C287.009 295.511 285.816 295.345 284.622 295.14C285.708 294.772 286.813 294.403 287.878 293.996C294.31 291.518 300.17 288.285 305.155 284.496Z" fill="white"/>
<path d="M212.997 252.927C213.035 252.888 213.053 252.83 213.09 252.791C213.164 252.674 213.277 252.576 213.351 252.46C213.24 252.615 213.109 252.771 212.997 252.927Z" fill="#F6AC1B"/>
<path d="M209.376 260.385C209.215 260.906 209.092 261.465 208.969 262.004C209.092 261.465 209.215 260.926 209.376 260.385Z" fill="#F6AC1B"/>
<path d="M220.275 245.964C220.446 245.865 220.617 245.765 220.787 245.666C219.897 246.202 219.046 246.777 218.234 247.408C218.914 246.895 219.594 246.42 220.275 245.964Z" fill="#F6AC1B"/>
<path d="M210.229 258.029C210.046 258.474 209.883 258.938 209.739 259.382C209.883 258.919 210.046 258.474 210.229 258.029Z" fill="#F6AC1B"/>
<path d="M212.18 254.172C212.328 253.919 212.515 253.666 212.682 253.413C212.403 253.841 212.144 254.268 211.885 254.715C211.977 254.54 212.069 254.347 212.18 254.172Z" fill="#F6AC1B"/>
<path d="M211.033 256.19C211.107 256.054 211.181 255.919 211.254 255.783C211.07 256.151 210.886 256.519 210.703 256.907C210.832 256.674 210.923 256.423 211.033 256.19Z" fill="#F6AC1B"/>
<path d="M208.405 265.448C208.483 264.584 208.618 263.718 208.773 262.871C208.599 263.718 208.483 264.584 208.405 265.448Z" fill="#F6AC1B"/>
<path d="M217.649 247.9C217.857 247.723 218.045 247.566 218.253 247.408C217.932 247.664 217.631 247.958 217.311 248.233C217.424 248.116 217.517 247.999 217.649 247.9Z" fill="#F6AC1B"/>
<path d="M215.599 249.843C215.373 250.059 215.167 250.293 214.961 250.528C215.148 250.293 215.373 250.059 215.599 249.843Z" fill="#F6AC1B"/>
<path d="M178.783 330.942C178.002 330.307 177.221 329.652 176.459 328.979C170.929 324.093 166.646 318.318 163.656 312.036L163.581 312.114L163.56 312C163.521 312.001 163.483 312.001 163.445 312.002L163.234 311.086C163.314 311.257 163.375 311.429 163.455 311.58L163.435 311.523L160.452 299.143L158.73 291.99L160.414 299.144L163.193 310.953L163.214 311.068C162.732 310.004 162.268 308.921 161.861 307.837C160.805 305.003 159.976 302.087 159.416 299.127C159.178 297.829 158.978 296.51 158.835 295.19C158.812 294.999 158.808 294.807 158.784 294.616C158.734 294.022 158.683 293.448 158.652 292.855C158.622 292.338 158.553 291.802 158.542 291.285L158.5 291.094L158.479 291.037C158.499 291.036 158.518 291.055 158.518 291.055C158.443 289.293 158.464 287.547 158.581 285.8C158.706 283.516 159.004 281.247 159.456 279.013C159.992 276.24 160.76 273.501 161.739 270.814C161.866 270.466 162.013 270.118 162.14 269.77C162.34 269.248 162.559 268.726 162.778 268.203C163.308 266.965 163.935 265.763 164.582 264.56C164.84 264.056 165.078 263.552 165.356 263.067C166.17 261.611 167.061 260.192 168.029 258.791C168.569 258.012 169.129 257.271 169.707 256.511C170.361 255.673 171.054 254.852 171.765 254.032C173.79 251.764 175.972 249.742 178.314 248.004C178.427 247.906 178.56 247.826 178.673 247.728C181.508 245.692 184.541 243.997 187.718 242.72C187.737 242.701 187.756 242.7 187.775 242.7C187.756 242.7 187.737 242.72 187.718 242.72C182.414 240.399 177.255 237.711 172.34 234.711C169.717 233.118 167.168 231.409 164.676 229.622C132.005 206.416 110.345 168.611 109.443 125.469C109.401 123.457 109.416 121.443 109.47 119.448C115.168 167.184 146.418 206.834 188.952 224.67C195.418 222.018 202.442 220.391 209.801 220.04C210.375 220.009 210.97 219.996 211.545 219.983C216.932 219.867 222.162 220.445 227.192 221.602C224.575 222.119 222.08 222.978 219.784 224.139C217.032 225.541 214.557 227.339 212.415 229.494L212.396 229.514L212.377 229.514C212.358 229.515 212.358 229.534 212.358 229.534C210.705 231.18 209.228 233.034 208.024 235.054C208.024 235.054 208.005 235.054 208.005 235.073C207.078 236.589 206.305 238.178 205.669 239.86C205.65 239.879 205.65 239.879 205.65 239.879C204.45 243.031 203.812 246.457 203.79 250.005L203.81 250.005C203.79 250.005 203.79 250.005 203.791 250.024C203.777 250.255 203.782 250.504 203.787 250.734C203.797 251.213 203.825 251.672 203.855 252.151C204.188 257.072 205.761 261.678 208.241 265.613C208.259 265.555 208.277 265.516 208.295 265.458C208.295 265.439 208.314 265.439 208.314 265.439C210.013 260.455 214.675 256.827 220.254 256.706C220.925 256.692 221.559 256.736 222.213 256.817C224.924 257.162 227.405 258.374 229.322 260.154L229.478 260.304C229.635 260.454 229.772 260.585 229.909 260.736C229.929 260.754 229.949 260.773 229.968 260.792C230.831 261.694 231.543 262.714 232.104 263.852C234.325 264.609 236.712 264.98 239.185 264.927C242.425 264.857 245.477 264.043 248.172 262.681C249.314 262.254 250.355 261.599 251.22 260.736C253.316 259.157 255.136 257.239 256.509 255.004C257.195 253.897 257.785 252.733 258.258 251.515C259.185 249.079 259.686 246.422 259.628 243.643C259.604 242.474 259.465 241.327 259.249 240.2C262.33 243.509 265.072 247.131 267.379 251.069C267.975 252.073 268.534 253.096 269.074 254.139C269.617 254.453 270.18 254.748 270.761 255.042C274.522 256.955 278.655 258.266 282.984 258.901C285.139 259.219 287.347 259.344 289.609 259.295C297.393 259.128 304.595 256.767 310.649 252.783C310.668 252.763 310.687 252.763 310.706 252.762C310.725 252.743 310.744 252.742 310.763 252.723C311.557 252.188 312.333 251.653 313.069 251.082C314.943 249.891 316.996 249.003 319.15 248.381C319.646 248.236 320.141 248.072 320.638 247.966C321.497 247.774 322.357 247.622 323.237 247.526C323.964 247.434 324.73 247.379 325.478 247.363C326.168 247.348 326.859 247.371 327.531 247.414C328.319 247.455 329.088 247.553 329.858 247.671C330.127 247.723 330.397 247.755 330.666 247.807C331.475 247.962 332.266 248.156 333.038 248.389C333.385 248.496 333.714 248.623 334.061 248.731C334.622 248.93 335.163 249.148 335.705 249.366C336.015 249.494 336.325 249.641 336.635 249.787C337.332 250.137 338.011 250.506 338.672 250.894C339.507 251.394 340.305 251.933 341.066 252.549C341.124 252.586 341.183 252.642 341.241 252.698C341.768 253.128 342.296 253.577 342.785 254.046C342.961 254.234 343.099 254.403 343.256 254.553C343.647 254.928 344.02 255.323 344.374 255.737C344.551 255.944 344.728 256.171 344.906 256.397C345.201 256.774 345.516 257.131 345.792 257.528C345.99 257.792 346.149 258.057 346.327 258.341C346.565 258.7 346.803 259.06 347.022 259.438C347.201 259.76 347.38 260.082 347.54 260.405C347.72 260.746 347.9 261.107 348.08 261.448C348.261 261.828 348.403 262.208 348.565 262.607C348.686 262.911 348.827 263.234 348.93 263.558C349.093 264.015 349.237 264.491 349.362 264.968C349.941 266.949 350.291 269.032 350.336 271.197C350.372 272.884 350.234 274.536 349.922 276.134C348.645 277.427 347.288 278.607 345.853 279.711C341.455 283.085 336.347 285.592 330.755 286.901C328.064 287.554 325.252 287.921 322.357 287.984C316.298 288.114 310.519 286.897 305.33 284.592C305.29 284.536 305.251 284.479 305.23 284.422C305.192 284.442 305.155 284.481 305.117 284.501C300.132 288.29 294.273 291.523 287.803 293.982C286.737 294.389 285.652 294.757 284.547 295.126C282.566 295.802 280.546 296.42 278.447 296.945C277.13 297.28 275.794 297.577 274.419 297.856C269.357 298.867 264.075 299.46 258.611 299.578C257.288 299.606 255.946 299.616 254.641 299.586C251.973 299.529 249.342 299.356 246.766 299.085C246.651 299.068 246.554 299.051 246.439 299.035C242.286 298.568 238.262 297.83 234.385 296.821C234.037 296.675 233.67 296.568 233.284 296.461C233.034 296.409 232.803 296.357 232.553 296.324C232.071 296.238 231.591 296.191 231.073 296.202C230.306 296.219 229.561 296.369 228.856 296.595C225.368 297.648 222.847 300.905 222.927 304.719C222.958 306.233 223.39 307.642 224.125 308.853C222.674 310.093 221.106 311.219 219.42 312.234C213.661 315.675 207.287 317.25 201.012 317.098C211.305 320.404 222.87 319.446 232.816 313.498C233.176 313.279 233.516 313.042 233.856 312.805L254.16 313.268L268.322 313.596L273.926 313.724L282.35 313.926L282.37 313.945C286.424 317.941 292.183 321.825 298.998 324.842C302.541 326.414 306.057 327.604 309.411 328.433C313.287 329.404 316.941 329.862 320.183 329.849C321.372 329.843 322.502 329.8 323.574 329.681C323.765 329.638 323.956 329.615 324.148 329.611C324.762 329.597 325.303 329.816 325.769 330.093C326.624 330.612 327.218 331.481 327.24 332.554C327.255 333.263 327.019 333.901 326.646 334.427C326.572 334.544 326.497 334.641 326.403 334.72C319.026 343.316 308.15 348.842 295.957 349.105C286.696 349.305 278.082 346.442 271.072 341.435C271.013 341.379 270.955 341.341 270.897 341.324C270.643 341.118 270.37 340.913 270.117 340.727C265.678 337.601 260.251 335.801 254.422 335.926C250.434 336.012 246.657 336.976 243.316 338.658C242.803 338.9 242.31 339.16 241.817 339.458C239.104 340.858 236.271 342.07 233.338 343.073C229.907 344.105 226.415 344.948 222.86 345.561C222.86 345.561 222.86 345.561 222.841 345.562C222.784 345.582 222.726 345.583 222.669 345.584C218.203 345.738 213.728 345.47 209.32 344.722C209.321 344.798 209.342 344.855 209.343 344.932L209.343 344.913L209.262 344.742C204.373 343.889 199.529 342.517 194.847 340.585C189.234 338.175 183.797 334.995 178.783 330.942ZM319.605 255.447C312.777 254.578 306.695 258.141 306.018 263.39C305.853 264.659 306.033 265.921 306.479 267.1C308.812 264.001 312.558 261.504 317.099 260.352C321.564 259.22 325.964 259.605 329.449 261.14C327.585 258.227 323.971 256.004 319.605 255.447Z" fill="#F6AC1B"/>
<path d="M233.917 312.752C233.558 312.99 233.236 313.227 232.877 313.445C222.93 319.393 211.364 320.371 201.07 317.045C207.346 317.198 213.721 315.642 219.48 312.181C221.166 311.166 222.734 310.04 224.186 308.8C226.541 306.774 228.545 304.449 230.238 301.958C231.429 300.187 232.503 298.362 233.345 296.426C233.712 296.514 234.078 296.621 234.446 296.767C238.304 297.776 242.328 298.514 246.5 298.981C246.616 298.997 246.712 299.014 246.828 299.031C245.516 301.418 243.893 303.639 242.057 305.711C239.714 308.37 237.022 310.767 233.917 312.752Z" fill="white"/>
<path d="M248.195 262.716C247.661 262.862 247.107 262.97 246.553 263.077C246.018 263.166 245.5 263.196 244.965 263.265C240.359 263.153 236.618 259.457 236.521 254.819C236.421 250.027 240.213 246.072 245.006 245.969C246.77 245.931 248.43 246.432 249.829 247.303C250.375 247.713 250.882 248.143 251.391 248.592C252.861 250.114 253.805 252.145 253.853 254.445C253.905 256.917 252.897 259.163 251.281 260.77C250.416 261.614 249.394 262.268 248.233 262.715C248.233 262.715 248.214 262.716 248.195 262.716ZM252.252 253.118C252.769 250.308 250.313 247.523 246.751 246.852C243.208 246.2 239.907 247.939 239.39 250.749C238.873 253.56 241.329 256.345 244.892 257.016C248.435 257.668 251.736 255.929 252.252 253.118Z" fill="white"/>
<path d="M244.873 257.018C241.33 256.366 238.854 253.562 239.371 250.752C239.888 247.941 243.189 246.201 246.732 246.854C250.275 247.506 252.751 250.31 252.234 253.12C251.736 255.931 248.435 257.67 244.873 257.018Z" fill="black"/>
<path d="M258.317 251.551C257.843 252.769 257.254 253.951 256.568 255.039C255.195 257.274 253.375 259.192 251.279 260.771C252.914 259.164 253.902 256.918 253.851 254.446C253.803 252.166 252.859 250.115 251.388 248.594C250.88 248.145 250.353 247.715 249.827 247.304C248.427 246.414 246.787 245.932 245.004 245.97C240.211 246.074 236.419 250.028 236.52 254.82C236.617 259.458 240.357 263.154 244.963 263.266C238.207 263.967 232.359 261.332 231.578 256.978C230.75 252.26 236.076 247.352 243.49 246.022C244.866 245.782 246.206 245.676 247.491 245.687C246.986 245.372 246.443 245.077 245.9 244.782C248.064 241.897 249.332 238.323 249.251 234.432C249.163 230.216 247.51 226.398 244.861 223.521C246.738 224.344 248.486 225.38 250.122 226.572C250.141 226.571 250.18 226.589 250.2 226.627C252.362 228.191 254.3 230.067 255.956 232.198C255.975 232.217 255.975 232.217 255.976 232.236C257.616 234.578 258.747 237.295 259.288 240.217C259.503 241.344 259.642 242.472 259.667 243.66C259.725 246.439 259.244 249.096 258.317 251.551Z" fill="black"/>
<path d="M246.252 240.671C246.282 242.09 246.157 243.454 245.898 244.801C245.529 244.618 245.162 244.472 244.794 244.308C244.542 244.198 244.29 244.069 244.039 243.96C243.052 243.54 242.047 243.178 240.986 242.894C240.87 242.858 240.755 242.842 240.639 242.825C239.713 242.576 238.77 242.405 237.808 242.272C237.443 242.223 237.097 242.192 236.731 242.142C236.404 242.111 236.097 242.06 235.77 242.029C236.122 240.526 236.281 238.969 236.248 237.378C236.109 230.747 232.651 224.955 227.479 221.596C227.479 221.596 227.478 221.577 227.497 221.576C227.516 221.576 227.516 221.576 227.516 221.576C237.747 221.95 246.035 230.265 246.252 240.671Z" fill="black"/>
<path d="M235.747 242.009C235.017 241.967 234.288 241.945 233.559 241.96C232.792 241.977 232.045 242.031 231.299 242.105C231.261 242.106 231.241 242.106 231.203 242.126C229.079 242.364 227.018 242.849 225.096 243.581L225.076 243.581C224.734 243.704 224.411 243.845 224.068 243.987C223.117 244.371 222.226 244.851 221.334 245.349C221.145 245.449 220.955 245.568 220.766 245.668C220.595 245.768 220.405 245.868 220.254 245.967C219.554 246.423 218.873 246.898 218.232 247.41C218.024 247.568 217.836 247.726 217.628 247.903L217.609 247.903C215.075 244.142 211.318 241.5 207.129 240.267L207.129 240.248C206.666 240.105 206.183 239.981 205.721 239.895C205.721 239.876 205.721 239.876 205.74 239.875C206.216 239.712 206.692 239.548 207.189 239.441C210.317 238.607 213.52 238.576 216.546 239.259C219.687 239.958 222.615 241.448 225.076 243.581C225.033 243.333 224.97 243.085 224.908 242.856C223.576 237.88 220.404 233.883 216.324 231.402C215.1 230.642 213.783 230.038 212.43 229.568C212.43 229.568 212.43 229.549 212.449 229.549L212.468 229.548L212.487 229.529C214.013 229.131 215.562 228.925 217.078 228.912C225.305 228.811 232.951 233.977 235.747 242.009Z" fill="black"/>
<path d="M215.6 249.842C215.374 250.077 215.168 250.293 214.962 250.527C214.399 251.153 213.876 251.797 213.372 252.479C213.298 252.596 213.185 252.694 213.11 252.811C212.139 252.218 211.112 251.723 210.048 251.304C208.095 250.56 206.033 250.125 203.96 250.036C205.419 249.199 206.941 248.572 208.505 248.154C211.538 247.322 214.701 247.254 217.688 247.899C217.575 247.997 217.463 248.115 217.35 248.213C216.708 248.726 216.144 249.275 215.6 249.842Z" fill="black"/>
<path d="M249.231 234.455C249.312 238.345 248.063 241.919 245.879 244.804C246.139 243.476 246.264 242.092 246.234 240.674C246.016 230.267 237.729 221.952 227.478 221.559C229.064 221.238 230.71 221.068 232.378 221.032C236.826 220.936 241.045 221.842 244.84 223.543C247.49 226.42 249.142 230.238 249.231 234.455Z" fill="#6BC9C6"/>
<path d="M236.227 237.359C236.26 238.95 236.101 240.525 235.749 242.009C232.953 233.978 225.307 228.812 217.061 228.913C215.546 228.927 213.996 229.133 212.47 229.53C214.612 227.375 217.087 225.576 219.839 224.175C222.135 223.013 224.63 222.135 227.247 221.637C227.324 221.617 227.381 221.596 227.438 221.576C227.438 221.576 227.438 221.576 227.457 221.575C232.63 224.934 236.088 230.708 236.227 237.359Z" fill="#6BC9C6"/>
<path d="M224.928 242.837C224.991 243.085 225.054 243.333 225.097 243.562C222.635 241.429 219.708 239.939 216.566 239.24C213.56 238.557 210.338 238.588 207.21 239.423C206.713 239.548 206.237 239.693 205.761 239.856C206.397 238.174 207.169 236.585 208.097 235.07C208.096 235.051 208.116 235.05 208.116 235.05C209.321 233.049 210.778 231.177 212.45 229.53C213.822 229.98 215.12 230.604 216.344 231.364C220.406 233.865 223.577 237.862 224.928 242.837Z" fill="#6BC9C6"/>
<path d="M207.17 240.264C211.377 241.496 215.114 244.138 217.648 247.899C214.662 247.254 211.498 247.303 208.466 248.154C206.922 248.571 205.381 249.179 203.922 250.035C206.014 250.124 208.056 250.56 210.009 251.304C211.073 251.722 212.1 252.217 213.071 252.81C213.033 252.849 213.015 252.907 212.978 252.946C212.866 253.102 212.755 253.277 212.662 253.432C212.495 253.685 212.308 253.938 212.16 254.191C212.049 254.366 211.957 254.559 211.865 254.734C211.661 255.083 211.458 255.452 211.254 255.821C211.181 255.957 211.106 256.073 211.033 256.228C210.923 256.461 210.813 256.712 210.703 256.945C210.538 257.313 210.354 257.681 210.208 258.067C210.026 258.512 209.863 258.976 209.719 259.42C209.61 259.748 209.483 260.096 209.375 260.424C209.213 260.946 209.091 261.504 208.968 262.044C208.897 262.333 208.827 262.622 208.756 262.911C208.601 263.758 208.465 264.605 208.388 265.488C208.388 265.488 208.369 265.489 208.369 265.508C208.351 265.566 208.333 265.604 208.315 265.662C205.835 261.728 204.262 257.141 203.929 252.202C203.9 251.723 203.871 251.263 203.861 250.784C203.856 250.554 203.851 250.305 203.865 250.075C203.884 250.055 203.884 250.055 203.884 250.055C203.865 250.056 203.865 250.056 203.865 250.056C203.867 246.489 204.524 243.082 205.724 239.93C206.224 239.996 206.707 240.12 207.17 240.264Z" fill="#6BC9C6"/>
<path d="M208.968 262.007C209.091 261.468 209.214 260.928 209.375 260.388C209.483 260.04 209.611 259.711 209.719 259.383C209.882 258.919 210.026 258.475 210.208 258.03C210.354 257.644 210.538 257.275 210.703 256.907C210.887 256.539 211.052 256.152 211.255 255.783C211.439 255.415 211.643 255.065 211.865 254.696C212.124 254.25 212.384 253.822 212.663 253.394C212.775 253.238 212.867 253.064 212.979 252.908C213.09 252.752 213.221 252.596 213.333 252.44C213.837 251.758 214.361 251.114 214.923 250.488C215.129 250.254 215.355 250.038 215.561 249.803C216.105 249.236 216.689 248.705 217.273 248.194C217.593 247.919 217.894 247.625 218.215 247.368C219.026 246.737 219.877 246.163 220.768 245.626C220.957 245.507 221.147 245.407 221.337 245.307C222.209 244.809 223.119 244.329 224.07 243.944C224.356 243.823 224.622 243.721 224.908 243.619C224.737 244.639 224.663 245.676 224.685 246.75C224.887 256.372 232.853 263.985 242.478 263.778C244.492 263.735 246.421 263.348 248.191 262.696C248.21 262.696 248.229 262.676 248.248 262.676C245.553 264.038 242.501 264.851 239.26 264.921C236.787 264.974 234.4 264.585 232.179 263.846C231.618 262.727 230.906 261.688 230.043 260.786C230.024 260.767 230.023 260.748 229.984 260.73C229.847 260.579 229.69 260.429 229.553 260.298L229.397 260.148C227.48 258.368 225.018 257.174 222.287 256.811C221.652 256.729 220.999 256.685 220.328 256.7C214.749 256.82 210.086 260.449 208.388 265.433C208.465 264.568 208.601 263.703 208.756 262.856C208.827 262.586 208.917 262.296 208.968 262.007Z" fill="#C31632"/>
<path d="M248.195 262.717C246.425 263.388 244.495 263.756 242.482 263.799C232.858 264.006 224.892 256.393 224.69 246.772C224.668 245.699 224.742 244.662 224.913 243.642C224.627 243.744 224.361 243.865 224.075 243.967C224.418 243.825 224.741 243.684 225.084 243.562L225.103 243.561C227.025 242.829 229.086 242.344 231.21 242.106C231.249 242.106 231.268 242.105 231.306 242.085C232.052 242.012 232.799 241.957 233.566 241.941C234.295 241.925 235.024 241.948 235.754 241.989C236.08 242.001 236.389 242.072 236.715 242.103C237.08 242.133 237.427 242.183 237.792 242.233C238.754 242.366 239.698 242.556 240.623 242.786C240.739 242.821 240.855 242.838 240.97 242.855C242.012 243.139 243.036 243.501 244.023 243.92C244.275 244.03 244.526 244.139 244.778 244.268C245.146 244.433 245.533 244.578 245.882 244.762C246.425 245.038 246.968 245.352 247.474 245.667C246.188 245.638 244.848 245.743 243.472 246.003C236.057 247.332 230.732 252.241 231.559 256.959C232.341 261.333 238.189 263.949 244.945 263.247C245.481 263.197 245.998 263.167 246.533 263.06C247.107 262.971 247.661 262.863 248.195 262.717Z" fill="#F6AC1B"/>
<path d="M317.134 260.373C312.593 261.525 308.828 264.023 306.514 267.122C306.067 265.942 305.888 264.681 306.053 263.411C306.729 258.162 312.813 254.598 319.64 255.467C324.007 256.025 327.621 258.248 329.485 261.161C325.981 259.626 321.599 259.241 317.134 260.373Z" fill="#C31632"/>
<path d="M348.584 262.613C348.422 262.233 348.28 261.834 348.099 261.454C347.938 261.093 347.758 260.752 347.559 260.411C347.38 260.089 347.22 259.767 347.04 259.445C346.822 259.066 346.584 258.707 346.346 258.348C346.168 258.083 345.989 257.799 345.811 257.535C345.535 257.138 345.22 256.78 344.925 256.403C344.747 256.177 344.589 255.95 344.393 255.744C344.039 255.33 343.648 254.955 343.275 254.56C343.118 254.41 342.981 254.24 342.824 254.09C342.335 253.622 341.807 253.173 341.281 252.743C341.222 252.706 341.164 252.65 341.105 252.594C340.481 252.108 339.838 251.643 339.177 251.197C338.57 248.775 337.734 246.377 336.63 244.043C336.289 243.341 335.93 242.658 335.551 241.976C340.052 245.369 343.829 249.87 346.417 255.298C348.001 258.599 349.031 262.009 349.563 265.449C349.522 265.277 349.46 265.106 349.399 264.935C349.255 264.459 349.13 263.982 348.967 263.525C348.846 263.24 348.705 262.917 348.584 262.613Z" fill="#6BC9C6"/>
<path d="M335.743 249.412C335.201 249.174 334.66 248.956 334.1 248.776C333.752 248.65 333.423 248.522 333.076 248.434C332.304 248.201 331.513 248.007 330.704 247.852C330.434 247.8 330.165 247.768 329.896 247.716C329.126 247.599 328.356 247.5 327.569 247.459C327.454 247.443 327.338 247.426 327.223 247.429L327.204 247.429C327.185 247.429 327.185 247.429 327.185 247.429C326.628 247.403 326.071 247.396 325.515 247.408C324.748 247.424 324.001 247.479 323.274 247.571C322.394 247.667 321.534 247.82 320.675 248.011C320.178 248.117 319.683 248.281 319.187 248.426C318.94 248.508 318.691 248.552 318.443 248.634C316.092 246.268 313.344 244.199 310.277 242.501C309.617 242.131 308.92 241.782 308.241 241.452C313.865 241.599 319.535 243.068 324.795 245.966C325.61 246.428 326.406 246.89 327.184 247.41C325.448 245.089 323.408 242.966 321.066 241.041C320.461 240.555 319.857 240.089 319.234 239.661C324.744 240.808 330.071 243.263 334.716 247.056C336.257 248.308 337.667 249.658 338.944 251.107C338.866 251.052 338.77 251.015 338.692 250.959C338.031 250.552 337.352 250.183 336.654 249.853C336.363 249.686 336.053 249.559 335.743 249.412Z" fill="#6BC9C6"/>
<path d="M278.654 565.426L356.65 594.534L347.773 613.82L238.595 573.119C251.036 573.721 263.955 571.578 276.399 566.444C277.167 566.127 277.916 565.818 278.654 565.426Z" fill="#6BC8C5"/>
<path d="M721.453 265.845L720.524 271.755C744.972 275.6 761.675 298.562 757.832 322.991L763.742 323.92C768.114 296.253 749.143 270.201 721.453 265.845Z" fill="#6BC8C5"/>
<path d="M717.191 292.941L716.261 298.851C725.748 300.343 732.244 309.264 730.752 318.751L736.661 319.68C738.667 306.932 729.939 294.947 717.191 292.941Z" fill="#6BC8C5"/>
<path d="M718.611 283.909L717.682 289.818C732.149 292.094 742.059 305.703 739.784 320.171L745.693 321.1C748.482 303.372 736.34 286.697 718.611 283.909Z" fill="#6BC8C5"/>
<path d="M720.033 274.877L719.103 280.787C738.551 283.846 751.879 302.125 748.817 321.593L754.726 322.522C758.298 299.813 742.742 278.449 720.033 274.877Z" fill="#6BC8C5"/>
<path d="M722.875 256.812L721.945 262.722C751.374 267.351 771.494 294.982 766.865 324.411L772.775 325.341C777.91 292.69 755.545 261.951 722.875 256.812Z" fill="#6BC8C5"/>
<path d="M727.132 229.738L726.202 235.647C770.593 242.63 800.943 284.285 793.957 328.695L799.867 329.625C807.353 282.032 774.725 237.224 727.132 229.738Z" fill="#6BC8C5"/>
<path d="M728.553 220.705L727.624 226.614C777.015 234.383 810.759 280.724 802.99 330.115L808.9 331.045C817.169 278.472 781.127 228.974 728.553 220.705Z" fill="#6BC8C5"/>
<path d="M724.292 247.802L723.362 253.711C757.792 259.127 781.31 291.424 775.894 325.853L781.804 326.783C787.726 289.132 761.943 253.724 724.292 247.802Z" fill="#6BC8C5"/>
<path d="M725.712 238.769L724.783 244.678C764.193 250.877 791.125 287.863 784.926 327.273L790.836 328.203C797.542 285.571 768.324 245.471 725.712 238.769Z" fill="#6BC8C5"/>
<path d="M808.902 331.025L812.025 331.516C812.56 328.117 812.91 324.729 813.093 321.375C813.36 316.333 813.255 311.335 812.792 306.421C812.33 301.508 811.49 296.677 810.305 291.974C809.121 287.271 807.618 282.66 805.785 278.22C804.57 275.254 803.205 272.346 801.722 269.54C787.553 242.704 761.338 222.661 729.043 217.582L728.552 220.704C781.126 228.974 817.168 278.471 808.902 331.025Z" fill="white"/>
<path d="M799.871 329.603L802.994 330.094C810.763 280.703 777.019 234.362 727.627 226.593L727.136 229.716C774.726 237.221 807.354 282.03 799.871 329.603Z" fill="white"/>
<path d="M790.838 328.183L793.961 328.675C800.943 284.284 770.617 242.612 726.206 235.626L725.715 238.749C768.324 245.472 797.541 285.571 790.838 328.183Z" fill="white"/>
<path d="M781.807 326.762L784.93 327.253C791.129 287.843 764.197 250.857 724.787 244.658L724.295 247.781C761.944 253.723 787.726 289.13 781.807 326.762Z" fill="white"/>
<path d="M772.774 325.341L775.897 325.833C781.313 291.403 757.775 259.103 723.365 253.69L722.874 256.813C755.545 261.952 777.91 292.691 772.774 325.341Z" fill="white"/>
<path d="M763.76 323.923L766.883 324.415C771.512 294.985 751.392 267.355 721.963 262.726L721.472 265.848C749.142 270.201 768.113 296.253 763.76 323.923Z" fill="white"/>
<path d="M754.728 322.504L757.851 322.995C761.697 298.546 744.971 275.601 720.542 271.759L720.051 274.882C742.741 278.45 758.297 299.814 754.728 322.504Z" fill="white"/>
<path d="M745.697 321.081L748.82 321.572C751.879 302.124 738.574 283.828 719.106 280.766L718.615 283.889C736.34 286.697 748.482 303.372 745.697 321.081Z" fill="white"/>
<path d="M736.664 319.661L739.787 320.153C742.062 305.685 732.152 292.075 717.685 289.8L717.193 292.923C729.938 294.948 738.666 306.933 736.664 319.661Z" fill="white"/>
<path d="M727.633 318.241L730.756 318.732C732.248 309.245 725.752 300.324 716.265 298.832L715.774 301.955C723.558 303.199 728.855 310.473 727.633 318.241Z" fill="white"/>
<path d="M613.401 300.485L699.614 314.046C700.836 306.273 708.261 300.958 716.207 302.208L729.507 217.653C673.963 208.937 621.969 246.012 613.401 300.485Z" fill="#6BC8C5"/>
<path d="M573.333 342.572L509.4 289.251L497.047 306.518L586.501 381.18C579.813 370.671 575.273 358.388 573.566 345.036C573.46 344.211 573.358 343.408 573.333 342.572Z" fill="white"/>
<path d="M852.718 488.678C855.517 488.899 860.607 488.699 866.296 488.243C862.767 488.174 859.443 487.964 856.634 487.58C834.017 483.685 815.263 466.768 808.822 444.47L808.698 444.034C808.549 443.498 808.315 442.682 808.206 442.242L800.686 444.12C800.848 444.772 801.206 446.024 801.33 446.461C808.179 469.908 828.831 486.88 852.718 488.678Z" fill="black"/>
<path d="M848.635 490.919C850.763 491.051 856.276 490.488 862.76 489.653C858.514 489.915 854.846 490.016 852.63 489.831C828.263 487.986 807.196 470.681 800.217 446.769C800.093 446.333 799.731 445.066 799.565 444.399L792.045 446.277C792.229 447.015 792.573 448.21 792.722 448.746C800.098 473.764 823.091 491.116 848.635 490.919Z" fill="black"/>
<path d="M809.923 444.164C816.24 466.026 834.643 482.624 856.806 486.451C861.282 487.052 867.216 487.214 873.196 487.017C872.398 486.96 871.607 486.871 870.831 486.779C870.412 486.732 869.994 486.686 869.572 486.626C868.901 486.537 868.227 486.434 867.564 486.313C866.936 486.213 866.319 486.096 865.713 485.961C865.206 485.862 864.698 485.762 864.188 485.649C863.039 485.393 861.879 485.095 860.758 484.771C840.713 479.044 824.087 463.343 817.993 442.014C817.943 441.815 817.897 441.631 817.826 441.468C817.67 440.964 817.546 440.467 817.419 439.956L809.331 441.976C809.438 442.401 809.668 443.203 809.817 443.739L809.923 444.164Z" fill="black"/>
<path d="M765.812 455.976C765.543 455.079 765.245 454.007 765.005 453.042L756.917 455.062C765.259 488.476 799.108 508.8 832.522 500.458L864.376 492.505C850.726 495.612 837.247 498.675 836.658 498.792C805.497 504.989 775.039 486.592 765.812 455.976Z" fill="black"/>
<path d="M836.433 497.642C836.706 497.589 839.619 496.938 843.967 495.942C842.254 496.265 841.073 496.484 840.651 496.544C811.459 500.727 782.983 482.303 774.405 453.68C774.164 452.896 773.852 451.768 773.633 450.888L766.113 452.766C766.35 453.716 766.644 454.773 766.91 455.657C775.973 485.68 805.864 503.737 836.433 497.642Z" fill="black"/>
<path d="M844.565 493.155C845.761 493.053 849.059 492.561 853.39 491.857C851.252 492.044 849.57 492.132 848.606 492.071C822.593 492.265 799.129 474.594 791.614 449.082C791.447 448.536 791.111 447.309 790.927 446.571L783.406 448.448C783.608 449.257 783.924 450.399 784.119 451.059C792.012 477.607 817.434 495.332 844.565 493.155Z" fill="black"/>
<path d="M840.498 495.392C841.36 495.282 845.226 494.528 850.483 493.487C847.656 493.936 845.56 494.233 844.659 494.308C816.992 496.512 791.067 478.461 783.01 451.381C782.811 450.707 782.489 449.536 782.287 448.728L774.767 450.605C774.987 451.485 775.291 452.584 775.529 453.354C783.922 481.42 811.862 499.511 840.498 495.392Z" fill="black"/>
<path d="M887.11 486.483C885.933 486.657 884.752 486.816 883.585 486.911C883.173 486.954 882.772 486.978 882.372 487.003C881.112 487.091 879.875 487.144 878.63 487.169C878.342 487.165 878.058 487.175 877.775 487.186C876.235 487.178 874.717 487.135 873.21 487.014C867.23 487.211 861.296 487.049 856.82 486.449C834.66 482.636 816.254 466.023 809.936 444.161L809.812 443.725C809.667 443.204 809.433 442.388 809.327 441.962L808.206 442.242C808.316 442.682 808.55 443.498 808.699 444.033L808.823 444.47C815.264 466.768 834.018 483.685 856.635 487.58C859.444 487.964 862.767 488.174 866.297 488.243C860.604 488.684 855.517 488.899 852.719 488.678C828.828 486.865 808.18 469.908 801.331 446.461C801.207 446.024 800.853 444.786 800.686 444.119L799.565 444.399C799.732 445.066 800.093 446.332 800.217 446.769C807.197 470.681 828.263 487.986 852.63 489.831C854.843 490.002 858.514 489.914 862.76 489.653C856.276 490.488 850.764 491.05 848.636 490.919C823.091 491.116 800.098 473.764 792.722 448.746C792.555 448.199 792.226 447 792.045 446.277L790.924 446.557C791.109 447.294 791.459 448.518 791.612 449.068C799.141 474.576 822.594 492.265 848.603 492.057C849.568 492.118 851.249 492.03 853.388 491.842C849.057 492.547 845.759 493.039 844.563 493.141C817.443 495.299 792.01 477.592 784.113 451.031C783.918 450.371 783.603 449.229 783.401 448.42L782.28 448.7C782.485 449.523 782.808 450.693 783.003 451.353C791.059 478.433 816.989 496.498 844.651 494.28C845.552 494.206 847.649 493.908 850.476 493.459C845.205 494.503 841.338 495.258 840.491 495.364C811.852 499.469 783.915 481.392 775.5 453.301C775.277 452.528 774.958 451.432 774.739 450.552L773.618 450.832C773.841 451.726 774.153 452.854 774.39 453.624C782.968 482.246 811.447 500.685 840.636 496.488C841.058 496.428 842.243 496.223 843.952 495.886C839.6 496.867 836.677 497.537 836.418 497.586C805.849 503.681 775.958 485.624 766.891 455.586C766.625 454.703 766.331 453.646 766.094 452.695L764.973 452.975C765.214 453.94 765.512 455.011 765.781 455.909C775.021 486.521 805.483 504.933 836.638 498.707C837.226 498.59 850.706 495.527 864.355 492.42L893.002 485.269C891.441 485.658 889.891 485.97 888.345 486.235C887.944 486.381 887.532 486.423 887.11 486.483Z" fill="white"/>
<path d="M840.48 374.931C862.125 369.738 883.934 382.532 890.095 403.769C890.251 404.273 890.375 404.77 890.503 405.28C893.833 418.618 890.313 432.052 882.174 441.892C881.379 442.875 880.488 443.836 879.566 444.729C874.432 449.885 867.823 453.78 860.232 455.676C844.028 459.721 827.665 453.647 817.805 441.442C817.879 441.62 817.921 441.79 817.971 441.989C824.065 463.318 840.691 479.019 860.736 484.746C861.875 485.08 863.013 485.353 864.166 485.623C864.663 485.741 865.184 485.836 865.691 485.936C866.308 486.053 866.925 486.17 867.542 486.288C868.206 486.409 868.876 486.497 869.55 486.6C869.972 486.661 870.39 486.707 870.809 486.753C871.6 486.842 872.391 486.931 873.175 486.992C874.682 487.113 876.214 487.152 877.739 487.164C878.027 487.167 878.31 487.157 878.594 487.146C879.843 487.136 881.081 487.083 882.336 486.981C882.737 486.956 883.152 486.928 883.549 486.889C884.727 486.776 885.897 486.634 887.075 486.461C887.497 486.401 887.905 486.344 888.313 486.287C889.86 486.022 891.424 485.707 892.97 485.321C926.385 476.978 946.709 443.13 938.367 409.715C930.025 376.301 896.176 355.977 862.762 364.319C854.468 366.42 846.958 370.088 840.48 374.931Z" fill="#6BC8C5"/>
<path d="M890.506 405.296C890.378 404.785 890.254 404.288 890.098 403.785C881.298 392.868 867.255 386.848 852.786 388.606C864.85 396.899 874.071 409.504 877.904 424.856C879.576 431.553 880.088 438.254 879.561 444.776C880.484 443.883 881.36 442.925 882.169 441.94C890.305 432.085 893.835 418.633 890.506 405.296Z" fill="white"/>
<rect x="183.578" y="383.759" width="624.38" height="207.934" transform="rotate(-11.2493 183.578 383.759)" fill="#F6AC1B"/>
<path d="M300.533 400.415H312.387V448.527H300.533V434.233H296.838C284.635 434.233 277.174 427.26 277.174 414.36V400.415H289.028V413.663C289.028 419.939 290.562 422.728 296.838 422.728H300.533V400.415ZM347.959 400.415V411.92H337.151V448.527H325.298V411.92H314.49V400.415H347.959ZM371.037 449.573C357.021 449.573 345.935 438.417 345.935 424.401C345.935 410.456 357.021 399.369 371.037 399.369C385.122 399.369 396.278 410.456 396.278 424.401C396.278 438.417 385.122 449.573 371.037 449.573ZM371.106 437.998C378.358 437.998 384.425 431.932 384.425 424.541C384.425 417.219 378.358 410.944 371.106 410.944C363.715 410.944 357.788 417.219 357.788 424.541C357.788 431.932 363.715 437.998 371.106 437.998ZM443.495 400.415V411.92H432.688V448.527H420.834V411.92H410.026V400.415H443.495ZM439.097 433.605C439.097 410.665 453.391 400.415 473.264 400.415V448.527H461.41V441.555H450.951V448.527H439.097V433.605ZM451.09 430.049H461.41V414.291C454.995 416.801 451.788 422.309 451.09 430.049ZM475.328 448.527V400.415H487.182V419.939L497.292 400.415H509.844L498.269 422.867C506.078 426.005 509.146 434.024 509.146 442.6V448.527H497.292V442.6C497.292 435.628 494.155 431.095 487.182 431.095V448.527H475.328ZM532.896 449.573C518.881 449.573 507.794 438.417 507.794 424.401C507.794 410.456 518.881 399.369 532.896 399.369C546.982 399.369 558.138 410.456 558.138 424.401C558.138 438.417 546.982 449.573 532.896 449.573ZM532.966 437.998C540.218 437.998 546.284 431.932 546.284 424.541C546.284 417.219 540.218 410.944 532.966 410.944C525.575 410.944 519.648 417.219 519.648 424.541C519.648 431.932 525.575 437.998 532.966 437.998ZM589.96 411.92H571.482V418.893H584.033V430.049H571.482V437.022H589.96V448.527H559.629V400.415H589.96V411.92ZM606.001 448.527V400.415H617.854V419.939L627.965 400.415H640.516L628.941 422.867C636.751 426.005 639.819 434.024 639.819 442.6V448.527H627.965V442.6C627.965 435.628 624.827 431.095 617.854 431.095V448.527H606.001ZM661.131 417.498C670.893 417.498 676.681 425.378 676.681 433.048C676.681 440.718 670.893 448.527 661.131 448.527H641.886V400.415H674.937V411.571H653.74V417.498H661.131ZM661.131 437.371C663.293 437.371 664.897 435.488 664.897 433.048C664.897 430.607 663.293 428.655 661.131 428.655H653.74V437.371H661.131ZM678.112 448.527V400.415H689.966V419.939L700.077 400.415H712.628L701.053 422.867C708.863 426.005 711.931 434.024 711.931 442.6V448.527H700.077V442.6C700.077 435.628 696.939 431.095 689.966 431.095V448.527H678.112ZM746.173 418.195C746.173 427.888 738.642 435.767 729.159 436.464C732.018 437.231 734.11 439.881 734.11 442.949C734.11 446.575 731.111 449.504 727.485 449.504C723.86 449.504 720.861 446.575 720.861 442.949C720.861 439.951 722.883 437.371 725.603 436.534H721.628V425.029H723.511C729.159 425.029 730.344 424.68 731.599 423.704C733.273 422.449 734.319 420.427 734.319 418.195C734.319 414.5 731.39 411.362 727.695 411.362C723.999 411.362 721.07 414.5 721.07 418.195H709.217C709.217 408.015 717.514 399.717 727.695 399.717C737.875 399.717 746.173 408.015 746.173 418.195Z" fill="black"/>
<path d="M352.03 593.239L371.392 600.457L371.28 600.701C368.87 605.936 364.49 609.897 359.351 612.017C357.813 612.652 356.186 613.125 354.541 613.386C350.719 614.106 346.671 613.821 342.921 612.423L351.673 593.408L352.038 593.258L352.03 593.239Z" fill="#6BC8C5"/>
<path d="M345.768 536.117C345.257 534.878 344.875 533.607 344.69 532.299L364.336 524.193L373.393 546.145L361.007 573.054L345.768 536.117Z" fill="#C31632"/>
<path d="M405.153 526.428L405.397 526.503L398.356 541.802L379.077 534.615C384.859 526.649 395.694 523.013 405.153 526.428Z" fill="white"/>
<path d="M435.84 537.852C433.885 542.065 430.41 545.234 426.242 546.954C422.155 548.64 417.395 548.868 413.058 547.251L398.356 541.802L405.398 526.503L435.84 537.852Z" fill="#F6AC1B"/>
<path d="M358.154 509.209L364.337 524.195L344.691 532.3C342.959 522.994 348.402 513.233 358.154 509.209Z" fill="black"/>
<path d="M394.148 494.359C395.853 498.49 395.622 502.98 393.784 506.903C391.993 510.828 388.657 514.16 384.226 515.989L364.317 524.202L358.134 509.217L394.148 494.359Z" fill="#6BC8C5"/>
<path d="M351.758 593.155L361.002 573.036L373.387 546.127L377.033 538.207C377.62 536.932 378.293 535.753 379.099 534.607L398.378 541.794L380.04 581.707L371.4 600.478L351.758 593.155Z" fill="black"/>
<path d="M380.011 581.695L397.006 574.683L404.529 592.917C403.362 593.706 402.081 594.388 400.726 594.947L359.31 612.035C364.449 609.914 368.849 605.945 371.238 600.718L380.011 581.695Z" fill="white"/>
<path d="M413.11 568.039C416.845 577.09 412.996 587.445 404.528 592.917L397.005 574.683L413.11 568.039Z" fill="#F6AC1B"/>
<path d="M395.394 570.779C393.682 566.629 393.921 562.157 395.719 558.251C397.516 554.345 400.845 550.994 405.317 549.149L413.111 568.04L397.006 574.684L395.394 570.779Z" fill="#6BC8C5"/>
<path d="M467.628 347.131L503.262 297.915L519.532 309.695L483.898 358.912L467.628 347.131Z" fill="#6BC8C5"/>
<path d="M456.009 363.175L467.473 347.342L467.836 347.284L483.896 358.912C481.669 361.988 478.669 364.257 475.372 365.572C473.967 366.183 472.475 366.608 470.968 366.85C465.944 367.654 460.623 366.516 456.22 363.328L456.009 363.175Z" fill="black"/>
<path d="M424.279 295.314L443.454 292.244C443.934 293.456 444.263 294.705 444.473 296.017L450.684 334.814L427.97 318.368L424.279 295.314Z" fill="black"/>
<path d="M393.597 317.961L393.754 317.778C399.398 310.119 409.565 307.733 417.905 311.551L406.488 327.319L393.585 317.977L393.597 317.961Z" fill="#6BC8C5"/>
<path d="M397.775 339.319C395.208 342.865 391.411 345.076 387.42 345.715C383.372 346.362 379.131 345.438 375.557 342.876L393.597 317.96L406.5 327.302L397.775 339.319Z" fill="white"/>
<path d="M421.759 279.572C431.277 278.049 440.229 283.543 443.454 292.245L424.279 295.314L421.759 279.572Z" fill="white"/>
<path d="M404.852 298.425C400.526 299.117 396.325 298 393.018 295.581C389.704 293.206 387.311 289.524 386.618 285.198L421.759 279.573L424.279 295.315L404.852 298.425Z" fill="#F5AB1B"/>
<path d="M456.009 363.175L440.175 351.711L406.513 327.313L417.93 311.545C419.106 312.101 420.197 312.742 421.281 313.527L450.682 334.814L467.653 347.126L456.025 363.186L456.009 363.175Z" fill="#C22034"/>
<path d="M440.177 351.713L456.237 363.341C460.641 366.529 465.989 367.663 470.986 366.863L430.598 373.328C429.286 373.538 427.968 373.62 426.667 373.542L423.598 354.367L440.177 351.713Z" fill="white"/>
<path d="M423.6 354.364L426.669 373.54C417.44 373.199 409.409 366.398 407.886 356.88L423.6 354.364Z" fill="black"/>
<path d="M404.708 337.036C409.062 336.339 413.284 337.496 416.57 339.875C419.857 342.255 422.229 345.897 422.931 350.279L423.587 354.382L407.873 356.897L404.708 337.036Z" fill="#6BC8C5"/>
</svg>
