<svg width="308" height="308" viewBox="0 0 308 308" fill="none" xmlns="http://www.w3.org/2000/svg">
<path d="M102.651 35.1918C104.16 39.6762 105.586 43.954 111.434 47.3225C117.282 50.691 121.684 49.8024 126.334 48.8724C131.17 47.8805 136.646 46.7852 143.652 50.815C150.637 54.8655 152.435 60.1766 154.005 64.8471C155.535 69.3522 156.94 73.6093 162.809 76.9985C168.678 80.3877 173.08 79.499 177.73 78.5691C178.701 78.3831 179.714 78.1971 180.747 78.0318L179.135 76.4198C175.394 76.1925 171.365 75.1799 167.025 71.5427C161.135 66.6036 160.102 61.3545 159.378 56.6634L141.027 38.3123C140.118 38.3123 139.209 38.3123 138.299 38.3536C133.34 38.4776 127.76 38.6016 121.581 33.4145C115.402 28.2274 114.575 22.689 113.831 17.8119C113.315 14.3607 112.798 11.0336 110.483 7.76838L106.35 3.63524C104.8 2.45729 103.292 1.65131 101.824 1.13467C96.3067 6.77641 91.3469 12.7282 86.9245 18.9692C88.6191 19.4239 90.417 20.1058 92.2976 21.2011C99.2826 25.2102 101.06 30.5007 102.651 35.1918Z" fill="#F3A41E"/>
<path d="M169.253 68.8563C171.216 70.4888 173.056 71.5015 174.854 72.1008L163.921 61.1686C164.789 63.7725 166.236 66.335 169.253 68.8563Z" fill="#F3A41E"/>
<path d="M123.813 30.725C128.752 34.8788 133.091 34.9615 137.617 34.8581L116.704 13.9444C116.931 15.081 117.117 16.1764 117.261 17.2716C117.943 21.9214 118.625 26.3645 123.813 30.725Z" fill="#F3A41E"/>
<path d="M93.0813 167.595C97.7311 168.525 102.133 169.413 107.981 166.045C113.83 162.676 115.256 158.399 116.764 153.914C118.335 149.244 120.133 143.933 127.118 139.882C134.123 135.852 139.6 136.948 144.436 137.94C149.085 138.87 153.487 139.758 159.356 136.369C165.225 132.98 166.651 128.743 168.16 124.218C169.751 119.526 171.528 114.236 178.513 110.186C180.993 108.739 183.287 107.974 185.436 107.602C185.333 107.21 185.23 106.817 185.168 106.424C183.618 106.528 181.964 106.858 180.125 107.54C173.76 109.855 171.632 113.802 169.338 117.956C166.982 122.296 164.295 127.214 156.69 129.983C149.106 132.732 143.898 130.707 139.29 128.909C134.867 127.173 130.672 125.54 124.348 127.855C117.983 130.169 115.834 134.096 113.582 138.291C111.226 142.631 108.539 147.549 100.955 150.298C93.3706 153.046 88.1629 151.021 83.5544 149.223C79.132 147.487 74.9574 145.834 68.6131 148.169C68.2411 148.293 67.9518 148.458 67.6004 148.603C69.9357 155.691 72.8289 162.594 76.2801 169.31C83.0171 165.59 88.3488 166.624 93.0813 167.595Z" fill="#F3A41E"/>
<path d="M174.792 132.218C174.689 132.776 174.606 133.355 174.523 133.934L190.911 117.546C190.126 116.76 189.465 115.892 188.824 115.004C186.427 115.5 183.967 116.554 181.343 118.765C176.176 123.105 175.515 127.527 174.792 132.218Z" fill="#F3A41E"/>
<path d="M104.939 187.441C109.692 187.565 114.176 187.668 119.343 183.328C124.489 178.968 125.191 174.545 125.894 169.875C126.638 164.998 127.485 159.439 133.643 154.272C139.823 149.085 145.423 149.23 150.362 149.333C153.793 149.416 157.058 149.457 160.55 147.907L169.643 138.814C170.614 136.52 170.986 134.164 171.358 131.726C172.102 126.849 172.95 121.29 179.129 116.103C181.877 113.809 184.502 112.589 187.023 111.928C186.858 111.597 186.651 111.308 186.527 110.977C184.605 111.246 182.559 111.887 180.286 113.209C174.417 116.599 172.991 120.835 171.462 125.34C169.891 130.011 168.093 135.322 161.108 139.372C154.103 143.402 148.626 142.307 143.79 141.315C139.141 140.385 134.739 139.496 128.89 142.865C123.042 146.233 121.616 150.511 120.107 154.995C118.537 159.666 116.739 164.977 109.754 169.027C102.769 173.078 97.2718 171.962 92.436 170.97C87.8896 170.061 83.5705 169.213 77.9494 172.313C81.4832 178.782 85.5337 185.023 90.1008 190.995C95.4945 187.255 100.496 187.337 104.939 187.441Z" fill="#F3A41E"/>
<path d="M150.303 152.781C145.55 152.657 141.065 152.554 135.878 156.914C130.691 161.275 130.03 165.697 129.327 170.368C128.583 175.245 127.757 180.783 121.578 185.97C115.399 191.157 109.798 191.013 104.859 190.909C100.623 190.806 96.6136 190.723 92.1498 193.741C95.4356 197.853 98.9901 201.821 102.813 205.644L155.8 152.657C153.878 152.843 152.039 152.823 150.303 152.781Z" fill="#F3A41E"/>
<path d="M84.8339 145.963C89.2564 147.698 93.4308 149.352 99.7752 147.017C106.12 144.723 108.269 140.755 110.542 136.58C112.898 132.241 115.584 127.322 123.169 124.574C130.753 121.825 135.961 123.85 140.569 125.648C144.992 127.384 149.187 129.017 155.511 126.702C161.876 124.388 164.025 120.461 166.298 116.287C168.675 111.967 171.341 107.028 178.946 104.259C181.095 103.474 183.037 103.102 184.835 102.957C184.835 102.503 184.897 102.069 184.939 101.614C183.74 101.573 182.417 101.655 180.991 101.924C174.316 103.102 171.527 106.594 168.551 110.314C165.451 114.199 161.958 118.56 154.023 119.965C146.087 121.37 141.293 118.436 137.077 115.873C133.026 113.393 129.203 111.058 122.528 112.236C115.874 113.393 113.084 116.927 110.129 120.626C107.05 124.491 103.557 128.851 95.6007 130.277C87.6651 131.683 82.8706 128.748 78.6548 126.186C74.6044 123.706 70.7812 121.37 64.1062 122.548C63.2176 122.693 62.3909 122.9 61.6469 123.148C62.7009 130.608 64.3335 137.986 66.5241 145.26C66.8134 145.136 67.0821 144.991 67.4127 144.867C74.997 142.119 80.2255 144.165 84.8339 145.963Z" fill="#F3A41E"/>
<path d="M80.0985 100.106C83.653 103.247 87.0215 106.202 93.7792 106.223C100.558 106.223 103.905 103.247 107.46 100.106C111.159 96.82 115.375 93.1415 123.435 93.1415C131.494 93.1415 135.71 96.8613 139.409 100.106C142.964 103.247 146.332 106.202 153.09 106.223C159.868 106.223 163.237 103.268 166.791 100.126C170.511 96.8613 174.706 93.1621 182.786 93.1415C184.357 93.1415 185.804 93.2654 187.106 93.5341C187.333 93.1001 187.539 92.6455 187.808 92.2115C187.085 91.9842 186.32 91.7982 185.514 91.6535C178.839 90.4756 175.016 92.8108 170.966 95.2907C166.75 97.8533 161.955 100.788 154.02 99.3825C146.084 97.9773 142.571 93.5961 139.492 89.7316C136.516 86.0118 133.726 82.5193 127.072 81.3207C120.417 80.1634 116.594 82.4986 112.523 84.9578C108.307 87.5204 103.513 90.4549 95.5771 89.0496C87.6415 87.6444 84.1283 83.2633 81.0491 79.3988C78.0732 75.679 75.2834 72.1864 68.6291 70.9878C66.8312 70.6778 65.2398 70.6159 63.7726 70.7605C62.0987 78.2209 61.0034 85.8051 60.5281 93.3894C61.6441 93.2241 62.8013 93.1001 64.1033 93.0795C72.2042 93.1208 76.42 96.8406 80.0985 100.106Z" fill="#F3A41E"/>
<path d="M69.2752 67.6147C77.2108 69.0199 80.724 73.401 83.8032 77.2655C86.7584 80.9647 89.569 84.4778 96.2026 85.6558C102.857 86.8131 106.701 84.4985 110.751 82.0186C114.967 79.4561 119.762 76.5216 127.697 77.9268C135.633 79.3321 139.146 83.7132 142.225 87.5777C145.201 91.2975 147.991 94.79 154.645 95.9887C161.32 97.1666 165.143 94.8314 169.194 92.3515C173.41 89.789 178.204 86.8544 186.14 88.2596C187.586 88.5076 188.847 88.859 190.025 89.293C190.335 88.9417 190.583 88.5283 190.914 88.1977L190.769 88.053C190.211 87.7844 189.715 87.495 189.074 87.2677C182.709 84.9532 178.535 86.6064 174.092 88.3217C169.483 90.1196 164.255 92.1655 156.67 89.4169C149.086 86.6684 146.4 81.75 144.044 77.4102C141.77 73.2357 139.621 69.3092 133.256 66.9947C126.912 64.7008 122.737 66.3127 118.315 68.0486C113.706 69.8465 108.499 71.9131 100.914 69.1232C93.3301 66.3747 90.6435 61.4563 88.2876 57.1165C86.0144 52.942 83.8652 49.0155 77.5002 46.7009C75.4336 45.957 73.6356 45.647 71.941 45.6057C68.9032 52.694 66.4233 59.9683 64.5634 67.3667C66.0514 67.2427 67.5806 67.3253 69.2752 67.6147Z" fill="#F3A41E"/>
<path d="M80.4739 123.251C84.5244 125.731 88.3476 128.066 95.0226 126.888C101.677 125.731 104.467 122.197 107.422 118.498C110.481 114.613 113.994 110.273 121.95 108.847C129.886 107.442 134.68 110.376 138.896 112.939C142.946 115.419 146.77 117.754 153.445 116.576C160.12 115.398 162.909 111.906 165.885 108.186C168.965 104.321 172.478 99.9401 180.413 98.5349C182.253 98.2249 183.906 98.1422 185.435 98.2248C185.538 97.7495 185.704 97.2949 185.848 96.8196C184.918 96.6749 183.947 96.5716 182.852 96.5923C176.073 96.5923 172.705 99.5474 169.151 102.689C165.431 105.954 161.236 109.653 153.155 109.674C145.096 109.674 140.88 105.954 137.181 102.709C133.626 99.5681 130.258 96.6129 123.479 96.6129C116.742 96.6129 113.353 99.5888 109.799 102.73C106.079 105.995 101.884 109.694 93.824 109.694C85.7644 109.694 81.5486 105.974 77.8494 102.73C74.2949 99.5888 70.9264 96.6336 64.1687 96.613C62.7634 96.613 61.5442 96.7576 60.3869 97.0056C60.0769 104.59 60.3869 112.174 61.2755 119.717C62.0195 119.511 62.7428 119.325 63.5694 119.159C71.4637 117.754 76.2374 120.668 80.4739 123.251Z" fill="#F3A41E"/>
<path d="M91.3613 55.4082C93.6345 59.5827 95.7838 63.5092 102.149 65.8238C108.514 68.1383 112.668 66.5057 117.09 64.7698C121.699 62.9719 126.906 60.9053 134.47 63.6745C142.054 66.4231 144.741 71.3415 147.117 75.702C149.391 79.8765 151.54 83.8029 157.905 86.1175C164.27 88.4321 168.444 86.7788 172.887 85.0635C176.483 83.6583 180.451 82.129 185.618 82.8317L183.923 81.1371C182.084 81.2404 180.286 81.5917 178.467 81.9637C173.611 82.935 168.114 84.0509 161.129 80.0004C154.144 75.95 152.346 70.6388 150.775 65.9684C149.246 61.4633 147.841 57.2061 141.972 53.817C136.123 50.4485 131.721 51.3371 127.072 52.2671C122.236 53.259 116.739 54.375 109.754 50.3245C102.769 46.274 100.992 40.9836 99.4003 36.2924C97.8917 31.808 96.4657 27.5302 90.6174 24.1617C88.5301 22.9424 86.6289 22.3225 84.831 22.0125C80.5118 28.4808 76.7093 35.2179 73.5268 42.1616C75.1387 42.3269 76.8953 42.7195 78.7965 43.4222C86.3189 46.15 89.0054 51.0684 91.3613 55.4082Z" fill="#F3A41E"/>
<path d="M102.793 0.0389529C102.462 0.369604 102.131 0.741626 101.801 1.07228C103.268 1.58892 104.777 2.39484 106.327 3.57279L102.793 0.0389529Z" fill="black"/>
<path d="M113.809 17.7496C114.553 22.6267 115.379 28.1652 121.558 33.3523C127.737 38.5394 133.338 38.3947 138.277 38.2914C139.207 38.2707 140.096 38.25 141.005 38.25L137.574 34.8195C133.049 34.9228 128.729 34.8608 123.77 30.6864C118.603 26.3466 117.921 21.9035 117.198 17.2124C117.033 16.1377 116.867 15.0218 116.64 13.8852L110.44 7.68544C112.776 10.9713 113.292 14.2985 113.809 17.7496Z" fill="black"/>
<path d="M88.3446 57.0584C90.7005 61.3982 93.387 66.3167 100.971 69.0652C108.556 71.8138 113.763 69.7885 118.372 67.9906C122.794 66.2547 126.948 64.6221 133.313 66.9366C139.678 69.2512 141.807 73.1984 144.101 77.3522C146.457 81.692 149.143 86.6104 156.727 89.3589C164.312 92.1074 169.54 90.0616 174.149 88.2637C178.571 86.5277 182.766 84.8951 189.131 87.2097C189.772 87.437 190.247 87.747 190.826 87.995L185.618 82.7872C180.472 82.1053 176.484 83.6138 172.888 85.0191C168.466 86.755 164.27 88.3876 157.905 86.0731C151.54 83.7585 149.412 79.8114 147.118 75.6576C144.762 71.3178 142.075 66.3993 134.47 63.6301C126.886 60.8816 121.678 62.9068 117.091 64.7254C112.668 66.4613 108.494 68.1146 102.149 65.7793C95.7843 63.4648 93.6557 59.5176 91.3618 55.3638C89.0059 51.024 86.3193 46.1056 78.735 43.3571C76.8338 42.6545 75.0978 42.2825 73.4652 42.0965C72.9486 43.2331 72.4733 44.3697 71.9773 45.4856C73.6719 45.527 75.4699 45.8369 77.5364 46.5809C83.9015 48.9368 86.0714 52.884 88.3446 57.0584Z" fill="black"/>
<path d="M83.5482 149.19C88.1567 150.988 93.3645 153.054 100.949 150.264C108.533 147.516 111.199 142.577 113.576 138.258C115.849 134.083 117.998 130.157 124.342 127.822C130.707 125.507 134.861 127.14 139.284 128.875C143.892 130.673 149.1 132.74 156.684 129.95C164.268 127.202 166.976 122.262 169.332 117.923C171.605 113.748 173.754 109.822 180.119 107.507C181.958 106.825 183.632 106.515 185.162 106.391C184.976 105.255 184.852 104.097 184.831 102.961C183.012 103.085 181.09 103.477 178.941 104.263C171.357 107.011 168.691 111.95 166.294 116.29C164.021 120.465 161.871 124.391 155.506 126.706C149.141 129.02 144.987 127.388 140.565 125.652C135.957 123.854 130.749 121.787 123.164 124.577C115.601 127.346 112.914 132.265 110.538 136.584C108.264 140.758 106.115 144.685 99.7708 147.02C93.4058 149.335 89.252 147.702 84.8296 145.966C80.2211 144.168 75.0133 142.102 67.429 144.891C67.0984 145.015 66.8504 145.139 66.5404 145.284C66.871 146.4 67.243 147.475 67.615 148.591C67.9663 148.446 68.2556 148.281 68.6276 148.157C74.972 145.821 79.1258 147.454 83.5482 149.19Z" fill="black"/>
<path d="M150.381 149.311C145.421 149.187 139.841 149.063 133.662 154.25C127.504 159.417 126.656 164.976 125.912 169.853C125.21 174.565 124.528 178.967 119.361 183.306C114.174 187.667 109.71 187.543 104.957 187.419C100.514 187.316 95.5131 187.233 90.0573 190.994C90.76 191.903 91.442 192.833 92.1653 193.722C96.629 190.705 100.638 190.787 104.875 190.891C109.814 190.994 115.414 191.139 121.593 185.952C127.772 180.764 128.599 175.226 129.343 170.349C130.045 165.637 130.707 161.215 135.894 156.896C141.081 152.535 145.545 152.659 150.319 152.763C152.054 152.804 153.894 152.824 155.816 152.638L160.61 147.844C157.076 149.477 153.79 149.415 150.381 149.311Z" fill="black"/>
<path d="M99.3579 36.2907C100.928 40.9611 102.726 46.2722 109.711 50.3227C116.696 54.3732 122.193 53.2573 127.029 52.2653C131.679 51.3353 136.081 50.4467 141.929 53.8152C147.798 57.2044 149.224 61.4408 150.733 65.9666C152.303 70.6371 154.101 75.9482 161.086 79.9987C168.092 84.0285 173.568 82.9332 178.425 81.9619C180.243 81.5899 182.041 81.2386 183.881 81.1353L180.76 78.0147C179.727 78.1801 178.714 78.3661 177.743 78.5521C173.093 79.482 168.691 80.3706 162.822 76.9814C156.953 73.5923 155.527 69.3558 154.019 64.83C152.448 60.1596 150.65 54.8485 143.665 50.798C136.68 46.7475 131.183 47.8635 126.347 48.8554C121.697 49.7854 117.296 50.674 111.447 47.3055C105.599 43.937 104.152 39.6798 102.664 35.1747C101.094 30.5043 99.2958 25.1932 92.3108 21.1427C90.4096 20.0268 88.6324 19.3654 86.9378 18.9108C86.2145 19.9234 85.4912 20.9361 84.7885 21.9693C86.5864 22.2793 88.4877 22.9406 90.5749 24.1186C96.4027 27.5491 97.8286 31.7856 99.3579 36.2907Z" fill="black"/>
<path d="M92.3723 170.994C97.2287 171.965 102.726 173.081 109.69 169.052C116.675 165.001 118.452 159.711 120.044 155.02C121.552 150.535 122.978 146.257 128.827 142.889C134.696 139.5 139.077 140.409 143.727 141.339C148.583 142.31 154.08 143.426 161.044 139.396C168.029 135.346 169.827 130.035 171.398 125.364C172.927 120.859 174.353 116.623 180.222 113.234C182.495 111.911 184.541 111.27 186.463 111.002C186.009 109.927 185.657 108.79 185.409 107.674C183.26 108.046 180.966 108.811 178.486 110.258C171.481 114.287 169.703 119.619 168.133 124.29C166.603 128.795 165.198 133.052 159.329 136.441C153.46 139.83 149.058 138.942 144.409 138.012C139.552 137.04 134.055 135.924 127.091 139.954C120.106 144.005 118.328 149.295 116.737 153.986C115.208 158.491 113.782 162.728 107.954 166.117C102.085 169.506 97.704 168.597 93.0542 167.667C88.3424 166.716 82.99 165.662 76.253 169.341C76.7696 170.354 77.3276 171.366 77.8856 172.379C83.548 169.238 87.8465 170.064 92.3723 170.994Z" fill="black"/>
<path d="M77.8285 102.705C81.5484 105.97 85.7435 109.669 93.8031 109.669C101.863 109.669 106.058 105.97 109.778 102.705C113.332 99.5637 116.701 96.6086 123.458 96.5879C130.237 96.5879 133.585 99.5638 137.16 102.684C140.88 105.949 145.075 109.649 153.134 109.649C161.194 109.649 165.41 105.929 169.13 102.664C172.684 99.5224 176.073 96.5466 182.831 96.5672C183.906 96.5672 184.898 96.6499 185.828 96.7945C186.179 95.6579 186.613 94.5626 187.15 93.488C185.828 93.24 184.402 93.0953 182.831 93.0953C174.771 93.0953 170.535 96.7946 166.836 100.08C163.281 103.222 159.892 106.197 153.134 106.177C146.356 106.177 143.008 103.201 139.454 100.06C135.734 96.7946 131.539 93.0954 123.479 93.0954C115.419 93.0954 111.224 96.7945 107.505 100.06C103.95 103.201 100.581 106.156 93.8238 106.177C87.0455 106.177 83.6976 103.201 80.1431 100.06C76.4233 96.7945 72.2281 93.0954 64.1685 93.0954C62.8872 93.0954 61.6886 93.2194 60.5933 93.4054C60.5313 94.5833 60.428 95.7613 60.3867 96.9599C61.5233 96.7326 62.7632 96.5672 64.1685 96.5672C70.8849 96.5879 74.274 99.5637 77.8285 102.705Z" fill="black"/>
<path d="M179.126 116.102C172.926 121.268 172.1 126.848 171.356 131.725C170.984 134.164 170.632 136.499 169.64 138.813L174.497 133.957C174.579 133.378 174.683 132.82 174.765 132.242C175.489 127.551 176.129 123.108 181.337 118.768C183.962 116.557 186.421 115.503 188.818 115.007C188.116 114.015 187.516 113.002 187 111.948C184.499 112.589 181.895 113.787 179.126 116.102Z" fill="black"/>
<path d="M78.6517 126.186C82.8675 128.749 87.662 131.683 95.5976 130.278C103.533 128.873 107.026 124.512 110.126 120.627C113.081 116.928 115.891 113.415 122.525 112.237C129.2 111.059 133.023 113.394 137.074 115.874C141.289 118.436 146.084 121.371 154.02 119.966C161.976 118.581 165.448 114.2 168.548 110.315C171.503 106.616 174.313 103.103 180.988 101.925C182.435 101.677 183.716 101.594 184.935 101.615C185.018 100.457 185.142 99.3 185.39 98.1841C183.861 98.1014 182.208 98.1841 180.368 98.4941C172.412 99.8787 168.92 104.28 165.84 108.145C162.865 111.865 160.075 115.357 153.4 116.535C146.725 117.713 142.901 115.378 138.851 112.898C134.635 110.336 129.841 107.401 121.905 108.806C113.969 110.211 110.456 114.551 107.377 118.457C104.422 122.156 101.611 125.669 94.9777 126.847C88.3026 128.025 84.4794 125.69 80.429 123.21C76.2132 120.648 71.4187 117.713 63.4831 119.118C62.6772 119.263 61.9125 119.449 61.1892 119.676C61.3132 120.834 61.4372 121.991 61.6026 123.148C62.3672 122.921 63.1731 122.694 64.0617 122.549C70.7574 121.392 74.6012 123.706 78.6517 126.186Z" fill="black"/>
<path d="M68.6642 71.0338C75.3186 72.1911 78.1291 75.7043 81.0843 79.4448C84.1634 83.3093 87.6767 87.6904 95.6123 89.0956C103.548 90.5009 108.342 87.5664 112.558 85.0038C116.609 82.5239 120.432 80.1887 127.107 81.3667C133.782 82.5446 136.572 86.0371 139.527 89.7776C142.606 93.6421 146.099 98.0026 154.055 99.4285C162.011 100.813 166.806 97.9199 171.001 95.3367C175.051 92.8568 178.895 90.5422 185.549 91.6995C186.397 91.8442 187.141 92.0508 187.843 92.2575C188.463 91.2242 189.207 90.2736 190.013 89.3436C188.835 88.9096 187.575 88.5583 186.128 88.3103C178.172 86.9257 173.398 89.8396 169.182 92.4021C165.132 94.882 161.288 97.1966 154.634 96.0393C147.959 94.8613 145.169 91.3688 142.213 87.6284C139.134 83.7639 135.621 79.3828 127.685 77.9775C119.75 76.5723 114.976 79.4861 110.74 82.0693C106.689 84.5492 102.866 86.8844 96.1909 85.7065C89.5366 84.5492 86.726 81.036 83.7915 77.3162C80.7123 73.4517 77.1992 69.0706 69.2635 67.6653C67.5689 67.376 66.0603 67.314 64.6344 67.3347C64.3451 68.4919 64.0764 69.6699 63.8284 70.8272C65.2543 70.6825 66.8456 70.7031 68.6642 71.0338Z" fill="black"/>
<path d="M167.021 71.5044C171.36 75.1416 175.39 76.1542 179.131 76.3815L174.853 72.1037C173.055 71.5044 171.195 70.4712 169.252 68.8592C166.235 66.338 164.789 63.7755 163.921 61.1716L159.374 56.6251C160.098 61.3162 161.151 66.586 167.021 71.5044Z" fill="black"/>
<path d="M169.551 243.194C176.062 244.827 182.676 245.984 189.331 246.687L199.377 131.89L169.551 243.194Z" fill="#6BC8C5"/>
<path d="M146.296 235.196C152.435 237.903 158.718 240.177 165.126 241.996L194.828 131.105L146.296 235.196Z" fill="#6BC8C5"/>
<path d="M193.938 247.121C200.655 247.638 207.393 247.679 214.111 247.245L204.024 131.911L193.938 247.121Z" fill="#6BC8C5"/>
<path d="M105.497 208.159C110.416 212.789 115.562 216.985 120.916 220.809L186.458 127.198L105.497 208.159Z" fill="#6BC8C5"/>
<path d="M124.698 223.432C130.32 227.153 136.107 230.418 142.06 233.271L190.426 129.511L124.698 223.432Z" fill="#6BC8C5"/>
<path d="M218.72 246.89C225.437 246.249 232.134 245.133 238.727 243.583L208.571 131.08L218.72 246.89Z" fill="#6BC8C5"/>
<path d="M288.416 221.222C293.976 217.315 299.329 212.954 304.434 208.18L220.497 124.242L288.416 221.222Z" fill="#6BC8C5"/>
<path d="M243.194 242.431C249.725 240.653 256.174 238.421 262.457 235.692L212.934 129.494L243.194 242.431Z" fill="#6BC8C5"/>
<path d="M266.694 233.849C272.854 230.955 278.827 227.628 284.635 223.845L216.964 127.196L266.694 233.849Z" fill="#6BC8C5"/>
<path d="M105.494 208.159L186.455 127.197L120.913 220.808C122.174 221.697 123.414 222.607 124.696 223.433L190.465 129.512L142.099 233.272C143.504 233.933 144.889 234.574 146.295 235.194L194.826 131.104L165.124 241.994C166.613 242.408 168.101 242.821 169.589 243.193L199.415 131.889L189.369 246.686C190.899 246.852 192.429 246.976 193.958 247.1L204.045 131.889L214.131 247.224C215.661 247.141 217.211 247.038 218.72 246.893L208.592 131.063L238.748 243.565C240.257 243.214 241.725 242.821 243.213 242.408L212.953 129.471L262.477 235.67C263.882 235.049 265.308 234.45 266.693 233.809L216.963 127.156L284.634 223.805C285.915 222.979 287.156 222.069 288.416 221.18L220.497 124.2L304.435 208.138C305.572 207.084 306.688 206.051 307.783 204.955L219.65 116.822C211.548 124.924 198.381 124.945 190.258 116.822L102.125 204.955C103.241 206.071 104.357 207.105 105.494 208.159Z" fill="#C22034"/>
</svg>
