<svg width="219" height="284" viewBox="0 0 219 284" fill="none" xmlns="http://www.w3.org/2000/svg">
<path d="M146.193 199L20.8932 153.74C25.0541 142.221 19.0955 129.472 7.54695 125.3L52.8073 -0.000162317C133.519 29.1873 175.351 118.278 146.193 199Z" fill="#88D0C8"/>
<path d="M55.0254 200.38V210.219C95.7465 210.219 128.776 243.249 128.776 283.97H138.616C138.616 237.867 101.128 200.38 55.0254 200.38Z" fill="#C31632"/>
<path d="M55.032 245.49L55.032 255.329C70.8308 255.329 83.6731 268.171 83.6731 283.97H93.5127C93.4896 262.743 76.2588 245.49 55.032 245.49Z" fill="#C31632"/>
<path d="M55.0277 230.453V240.293C79.1185 240.293 98.7053 259.856 98.7053 283.97H108.545C108.522 254.451 84.5465 230.453 55.0277 230.453Z" fill="#C31632"/>
<path d="M55.0302 215.416L55.0302 225.256C87.4362 225.256 113.744 251.564 113.744 283.97H123.584C123.584 246.159 92.8411 215.416 55.0302 215.416Z" fill="#C31632"/>
<path d="M55.0284 185.343V195.183C104.042 195.183 143.816 234.957 143.816 283.97H153.655C153.655 229.575 109.423 185.343 55.0284 185.343Z" fill="#C31632"/>
<path d="M55.031 140.211V150.051C128.99 150.051 188.928 210.012 188.928 283.948H198.768C198.768 204.7 134.279 140.211 55.031 140.211Z" fill="#C31632"/>
<path d="M55.0309 125.174V135.014C137.282 135.014 203.988 201.696 203.988 283.97H213.827C213.804 196.407 142.571 125.174 55.0309 125.174Z" fill="#C31632"/>
<path d="M55.0329 170.307V180.146C112.361 180.146 158.857 226.642 158.857 283.97H168.696C168.696 221.283 117.72 170.307 55.0329 170.307Z" fill="#C31632"/>
<path d="M55.0373 155.27L55.0373 165.11C120.681 165.11 173.898 218.327 173.898 283.97H183.737C183.737 212.991 126.016 155.27 55.0373 155.27Z" fill="#C31632"/>
<path d="M213.803 283.97H219C219 278.311 218.723 272.722 218.145 267.201C217.314 258.932 215.859 250.848 213.826 242.995C211.794 235.142 209.207 227.497 206.112 220.152C202.993 212.783 199.367 205.715 195.256 198.948C192.507 194.444 189.574 190.078 186.409 185.875C156.498 145.893 108.778 120 55.0068 120V125.197C142.57 125.174 213.803 196.407 213.803 283.97Z" fill="#F3A41E"/>
<path d="M198.763 283.97H203.96C203.96 201.72 137.277 135.014 55.0033 135.014V140.211C134.274 140.211 198.763 204.699 198.763 283.97Z" fill="#F3A41E"/>
<path d="M183.732 283.97H188.929C188.929 210.012 128.967 150.073 55.0317 150.073V155.27C126.011 155.27 183.732 212.991 183.732 283.97Z" fill="#F3A41E"/>
<path d="M168.691 283.97H173.888C173.888 218.327 120.671 165.11 55.0278 165.11V170.307C117.715 170.307 168.691 221.283 168.691 283.97Z" fill="#F3A41E"/>
<path d="M153.651 283.97H158.848C158.848 226.642 112.353 180.146 55.0243 180.146V185.343C109.419 185.343 153.651 229.575 153.651 283.97Z" fill="#F3A41E"/>
<path d="M138.619 283.97H143.816C143.816 234.957 104.042 195.183 55.0286 195.183V200.38C101.131 200.38 138.619 237.867 138.619 283.97Z" fill="#F3A41E"/>
<path d="M123.58 283.97H128.777C128.777 243.249 95.7473 210.219 55.0261 210.219V215.416C92.837 215.416 123.58 246.159 123.58 283.97Z" fill="#F3A41E"/>
<path d="M108.521 283.97H113.718C113.718 251.564 87.4096 225.256 55.0036 225.256V230.453C84.5455 230.453 108.521 254.451 108.521 283.97Z" fill="#F3A41E"/>
<path d="M93.4808 283.97H98.6777C98.6777 259.879 79.1141 240.293 55.0001 240.293V245.49C76.25 245.49 93.4808 262.743 93.4808 283.97Z" fill="#F3A41E"/>
<path d="M78.4495 283.97H83.6465C83.6465 268.171 70.8042 255.329 55.0054 255.329V260.526C67.9632 260.526 78.4495 271.012 78.4495 283.97Z" fill="#F3A41E"/>
</svg>
