<svg width="419" height="408" viewBox="0 0 419 408" fill="none" xmlns="http://www.w3.org/2000/svg">
<path d="M274.67 273.018C274.645 273.014 274.645 273.014 274.62 273.01L268.597 288.473C268.735 288.241 268.872 288.01 269.01 287.779L274.67 273.018Z" fill="black"/>
<path d="M277.546 267.427C277.482 267.669 277.444 267.915 277.38 268.158C277.448 267.891 277.49 267.62 277.561 267.328C277.553 267.378 277.55 267.402 277.546 267.427Z" fill="black"/>
<path d="M276.955 232.442C276.971 232.493 276.988 232.545 277.004 232.596C277.004 232.596 277.004 232.596 277.031 232.576L277.008 232.572C276.988 232.545 276.971 232.493 276.955 232.442Z" fill="black"/>
<path d="M274.555 225.516C274.58 225.52 274.58 225.52 274.555 225.516C274.825 226.215 275.044 226.907 275.314 227.607C275.334 227.636 275.327 227.685 275.348 227.714C275.086 226.965 274.849 226.219 274.555 225.516Z" fill="black"/>
<path d="M336.571 296.766C337.615 296.879 338.68 297.022 339.717 297.185C342.406 297.608 344.998 298.167 347.543 298.871C359.127 302.059 369.391 308.023 377.626 315.944C378.682 300.559 374.658 285.792 366.863 273.465C360.692 263.669 352.133 255.394 341.842 249.603L341.818 249.599C334.644 245.538 327.906 242.075 323.776 240.844C322.858 240.573 321.507 240.158 320.562 240.06C331.782 232.546 336.592 224.478 345.616 214.368C354.408 204.448 362.044 193.361 368.193 181.281C345.021 187.294 320.264 188.76 295.096 184.8C290.605 184.093 286.191 183.222 281.849 182.21C281.657 182.306 281.469 182.378 281.301 182.478C277.774 184.325 274.184 186.086 270.516 187.709C263.644 190.724 256.538 193.298 249.26 195.364C252.946 197.006 256.863 198.305 260.913 199.245C262.567 199.658 264.237 199.971 265.964 200.243C270.85 201.011 275.644 201.235 280.389 200.97C281.842 200.895 283.303 200.771 284.722 200.589C293.952 199.462 302.717 196.467 310.539 191.908C311.43 191.39 312.328 190.824 313.198 190.278C312.955 191.175 312.692 192.044 312.376 192.93C310.049 199.846 306.673 206.192 302.446 211.849C298.855 216.669 294.644 220.938 289.922 224.594C289.743 224.768 289.543 224.914 289.343 225.059C285.518 227.998 281.377 230.532 276.985 232.572C277.863 232.938 278.716 233.299 279.602 233.616C283.611 235.132 287.691 236.203 291.828 236.905C297.118 237.838 302.442 238.069 307.679 237.73C311.615 237.464 315.498 236.887 319.288 235.941C317.37 238.648 315.275 241.201 313.009 243.55C309.315 247.419 305.194 250.791 300.777 253.636C299.764 254.285 298.759 254.886 297.73 255.483C295.667 256.7 293.558 257.734 291.382 258.706C291.083 258.836 290.781 258.991 290.486 259.096C286.608 260.762 282.566 262.022 278.484 262.897C278.509 262.901 278.537 262.88 278.537 262.88L278.501 262.951C281.274 265.738 284.237 268.278 287.374 270.516C292.148 273.922 297.282 276.652 302.676 278.689C305.923 279.908 309.254 280.912 312.657 281.625C310.773 282.668 308.88 283.61 306.958 284.42C306.197 284.755 305.44 285.066 304.658 285.373C297.891 288.05 290.829 289.543 283.765 289.924C283.765 289.924 283.765 289.924 283.74 289.92C281.647 290.046 279.569 290.073 277.486 289.973C274.467 289.877 271.458 289.555 268.456 289.032C268.406 289.025 268.357 289.017 268.307 289.009L268.259 289.153C269.706 291.53 271.242 293.82 272.929 295.956C280.108 305.127 289.379 312.097 299.71 316.504C283.565 321.727 266.537 320.514 251.731 314.013C249.554 313.063 247.421 311.994 245.332 310.806C245.835 312.756 246.443 314.673 247.105 316.572C249.971 324.558 254.283 331.861 259.761 338.185C248.482 336.587 238.148 332.205 229.396 325.796C227.688 328.612 225.754 331.266 223.715 333.778C224.346 337.644 225.288 341.459 226.549 345.172C223.651 343.502 220.994 341.592 218.429 339.571C215.384 342.53 212.107 345.201 208.605 347.532C207.299 348.439 205.955 349.265 204.595 350.037C206.173 350.614 207.734 351.137 209.307 351.587L209.332 351.591C213.856 352.885 218.451 353.734 223 354.07L223.025 354.074C230.689 354.699 238.326 354.054 245.615 352.243C244.228 363.63 240.11 374.209 233.951 383.304C242.711 382.432 250.963 379.962 258.456 376.211C261.808 374.513 265.018 372.591 268.042 370.411C273.48 366.539 278.308 361.887 282.47 356.651C286.805 364.134 289.596 372.109 290.951 380.211C291.803 385.402 292.089 390.656 291.803 395.845C297.163 391.833 301.839 387.183 305.755 382.06C314.996 369.935 319.999 355.172 320.24 340.14C330.309 347.337 337.968 356.836 342.943 367.48C345.646 361.71 347.497 355.731 348.526 349.672C351.32 333.525 348.36 316.978 340.459 302.915C339.273 300.807 338.002 298.761 336.571 296.766Z" fill="black"/>
<path d="M249.255 195.388C253.135 197.566 256.753 200.284 260.05 203.433C260.183 203.555 260.336 203.705 260.465 203.852C263.183 206.505 265.645 209.497 267.86 212.778C268.634 213.962 269.36 215.138 270.081 216.339C270.723 217.401 271.287 218.476 271.847 219.575C272.855 221.529 273.727 223.537 274.55 225.538C274.84 226.266 275.081 226.987 275.346 227.711C275.907 229.291 276.492 230.875 276.95 232.464C276.967 232.518 276.984 232.571 277.001 232.624L277.025 232.628C281.396 230.56 285.558 228.054 289.384 225.116C289.587 224.945 289.787 224.8 289.962 224.65C294.66 220.99 298.9 216.701 302.486 211.905C306.71 206.273 310.089 199.902 312.417 192.986C312.708 192.096 312.971 191.227 313.238 190.334C312.365 190.904 311.47 191.446 310.58 191.964C302.761 196.499 293.992 199.519 284.763 200.646C283.319 200.823 281.883 200.951 280.43 201.026C275.685 201.291 270.891 201.067 266.005 200.299C264.303 200.031 262.612 199.689 260.953 199.302C256.887 198.308 252.994 197.013 249.255 195.388C249.234 195.359 249.234 195.359 249.185 195.351C249.234 195.359 249.259 195.363 249.255 195.388Z" fill="#6BC9C6"/>
<path d="M277.554 234.761C277.682 235.237 277.785 235.708 277.887 236.179C278.68 239.819 279.19 243.489 279.396 247.163C279.583 250.151 279.569 253.132 279.333 256.079C279.173 258.38 278.894 260.637 278.491 262.875C282.578 261.975 286.619 260.715 290.493 259.074C290.788 258.968 291.09 258.814 291.389 258.684C293.561 257.736 295.65 256.674 297.737 255.46C298.763 254.888 299.767 254.287 300.784 253.613C305.173 250.789 309.294 247.417 313.016 243.527C315.257 241.174 317.353 238.621 319.295 235.918C315.481 236.86 311.622 237.441 307.686 237.707C302.421 238.067 297.1 237.811 291.835 236.882C287.723 236.184 283.622 235.084 279.609 233.593C278.723 233.277 277.866 232.939 276.992 232.549C276.963 232.57 276.963 232.57 276.963 232.57C277.2 233.315 277.391 234.028 277.554 234.761Z" fill="#6BC9C6"/>
<path d="M278.023 265.202C277.886 265.914 277.745 266.65 277.558 267.354C277.491 267.622 277.448 267.893 277.377 268.185C276.961 269.865 276.471 271.532 275.936 273.167C274.692 276.891 273.111 280.511 271.25 283.986C270.531 285.339 269.746 286.632 268.937 287.92L268.504 289.066C271.506 289.589 274.519 289.886 277.534 290.006C279.617 290.106 281.695 290.079 283.788 289.953C283.813 289.957 283.813 289.957 283.813 289.957C290.877 289.577 297.943 288.059 304.707 285.406C305.46 285.12 306.241 284.813 307.006 284.453C308.932 283.618 310.821 282.702 312.705 281.658C309.327 280.95 305.992 279.97 302.724 278.722C297.355 276.689 292.2 273.931 287.423 270.55C284.285 268.312 281.322 265.772 278.549 262.984L278.461 263.223C278.336 263.861 278.157 264.515 278.023 265.202Z" fill="#6BC9C6"/>
<path d="M268.597 288.449L268.561 288.519C268.695 288.313 268.803 288.103 268.933 287.922L268.981 287.778C268.847 287.984 268.735 288.218 268.597 288.449Z" fill="#6BC9C6"/>
<path d="M268.224 289.071C263.262 296.66 256.745 303.372 248.724 308.71C247.622 309.446 246.499 310.155 245.38 310.838C247.469 312.027 249.577 313.092 251.778 314.045C266.559 320.543 283.613 321.759 299.757 316.537C289.426 312.13 280.156 305.159 272.976 295.989C271.314 293.856 269.754 291.562 268.307 289.186L268.224 289.071Z" fill="#6BC9C6"/>
<path d="M172.766 316.888C174.458 324.133 177.315 331.207 181.498 337.731C182.287 332.394 183.75 327.112 185.831 322.079C185.864 322.033 185.868 322.009 185.875 321.959C185.875 321.959 185.851 321.956 185.855 321.931C181.399 320.522 177.014 318.82 172.766 316.888Z" fill="#6BC9C6"/>
<path d="M203.478 323.212C197.632 323.405 191.809 322.969 186.097 321.994C186.026 321.958 185.977 321.95 185.878 321.935L185.875 321.959C185.891 322.012 185.908 322.066 185.925 322.119C189.285 330.815 194.484 338.915 201.421 345.771C200.924 338.967 201.399 332.089 202.964 325.356C203.114 324.722 203.261 324.113 203.436 323.483L203.432 323.508C203.423 323.405 203.463 323.311 203.478 323.212Z" fill="#6BC9C6"/>
<path d="M223.765 333.788C223.282 330.753 222.958 327.668 222.864 324.568C222.827 323.197 222.843 321.809 222.888 320.4C224.143 321.584 225.455 322.726 226.804 323.797C227.656 324.488 228.541 325.133 229.425 325.778C238.177 332.186 248.537 336.572 259.791 338.166C254.309 331.867 249.996 324.564 247.135 316.553C246.473 314.654 245.864 312.738 245.362 310.787C238.182 315.119 230.602 318.301 222.867 320.371C216.484 322.047 209.988 322.998 203.531 323.221C204.018 323.98 204.509 324.715 205.029 325.429C208.724 330.713 213.267 335.423 218.442 339.499C221.006 341.521 223.664 343.431 226.562 345.1C225.314 341.465 224.396 337.654 223.765 333.788Z" fill="#6BC9C6"/>
<path d="M77.1471 284.701C81.6229 284.217 86.3699 283.295 91.2193 281.883C100.545 279.178 108.66 275.171 114.595 270.719C114.661 267.568 115.002 264.436 115.54 261.335L108.482 260.553L108.454 260.574C97.1676 269.468 83.1306 274.795 68.1794 275.325C70.7809 278.718 73.8069 281.824 77.1471 284.701Z" fill="#6BC9C6"/>
<path d="M58.6459 283.84C59.9798 284.202 61.4602 284.435 62.9939 284.651C62.2183 281.545 61.6478 278.421 61.3396 275.237C59.2112 275.105 57.0906 274.923 54.9439 274.585C39.0781 272.089 25.3249 264.362 15.1772 253.486C24.1101 268.065 38.3795 279.261 55.736 284.014C56.415 283.717 57.1486 283.554 57.9135 283.674C58.1641 283.689 58.407 283.752 58.6459 283.84Z" fill="#6BC9C6"/>
<path d="M132.786 272.746L151.124 274.797L177.412 277.745C173.758 274.616 170.703 271.05 168.167 267.238L144.81 264.625L126.472 262.574L126.373 262.559L120.631 261.933C121.96 265.379 123.58 268.744 125.551 271.962L132.786 272.746Z" fill="#6BC9C6"/>
<path d="M184.354 264.142C184.26 264.254 184.146 264.337 184.056 264.424C185.805 267.936 187.958 271.284 190.668 274.314C191.829 272.879 192.634 271.134 192.941 269.185C193.714 264.275 191.031 259.63 186.713 257.661C186.693 258.113 186.701 258.544 186.627 259.013C186.32 260.962 185.511 262.732 184.354 264.142Z" fill="#6BC9C6"/>
<path d="M77.1449 284.697C73.8009 281.845 70.7787 278.714 68.2018 275.325C65.4755 271.761 63.1374 267.979 61.2861 263.996C60.9752 267.74 60.9889 271.51 61.339 275.231C61.6472 278.415 62.2137 281.564 62.9933 284.645C67.1749 285.227 71.9757 285.249 77.1449 284.697Z" fill="white"/>
<path d="M114.593 270.716L125.532 271.906C123.56 268.688 121.94 265.323 120.611 261.878C119.391 258.702 118.413 255.438 117.743 252.146C116.739 255.149 116.053 258.227 115.543 261.308C115 264.434 114.659 267.566 114.593 270.716Z" fill="white"/>
<path d="M90.4437 228.786C90.3983 228.753 90.3567 228.696 90.3112 228.664C90.2749 228.734 90.2139 228.8 90.1529 228.866C83.0509 230.935 75.3768 231.498 67.5796 230.271C63.8538 229.685 60.2887 228.719 56.93 227.407C49.941 224.739 43.7849 220.636 38.7035 215.487C38.5493 216.145 38.399 216.779 38.2942 217.445C38.1545 218.334 38.0432 219.201 38.0061 220.08C37.3535 228.246 39.7691 236.035 44.3551 242.243C44.4142 241.064 44.5226 239.893 44.709 238.708C45.2797 235.081 46.4192 231.695 48.0174 228.609C54.4085 232.826 61.8028 235.81 69.8714 237.079C74.4856 237.805 79.0656 237.944 83.4805 237.526C83.4674 237.448 83.4259 237.391 83.4128 237.313C83.5038 237.378 83.6194 237.447 83.7103 237.512C83.6324 237.525 83.5545 237.538 83.4766 237.551C84.8399 242.064 87.103 246.162 90.0214 249.63C91.6612 251.582 93.5126 253.315 95.5223 254.845C95.2243 253.685 95.0081 252.488 94.8412 251.299C94.6065 249.416 94.5159 247.581 94.5733 245.77C94.5974 244.813 94.6671 243.888 94.7899 242.947C95.3874 243.167 95.964 243.359 96.5654 243.555C99.2175 244.377 101.946 245.033 104.759 245.476C106.634 245.771 108.5 245.964 110.353 246.078C111.931 246.175 113.5 246.169 115.076 246.113C113.74 245.448 112.378 244.778 111.074 244.068C103.208 239.745 96.2124 234.548 90.4437 228.786Z" fill="white"/>
<path d="M214.912 204.121C214.87 204.064 214.857 203.986 214.816 203.929C214.741 203.766 214.612 203.62 214.537 203.457C214.654 203.677 214.795 203.901 214.912 204.121Z" fill="#F6AC1B"/>
<path d="M218.276 214.385C218.393 215.086 218.453 215.829 218.517 216.547C218.453 215.829 218.389 215.111 218.276 214.385Z" fill="#F6AC1B"/>
<path d="M206.741 193.858C206.538 193.7 206.335 193.542 206.133 193.383C207.187 194.232 208.185 195.122 209.122 196.079C208.335 195.297 207.54 194.566 206.741 193.858Z" fill="#F6AC1B"/>
<path d="M217.589 211.194C217.747 211.8 217.876 212.428 217.984 213.026C217.88 212.403 217.747 211.8 217.589 211.194Z" fill="#F6AC1B"/>
<path d="M215.747 205.871C215.601 205.519 215.404 205.16 215.233 204.804C215.517 205.405 215.777 206.002 216.034 206.624C215.945 206.383 215.861 206.116 215.747 205.871Z" fill="#F6AC1B"/>
<path d="M216.874 208.678C216.803 208.49 216.731 208.302 216.66 208.114C216.833 208.621 217.006 209.129 217.175 209.661C217.049 209.338 216.976 208.998 216.874 208.678Z" fill="#F6AC1B"/>
<path d="M218.64 221.092C218.692 219.963 218.669 218.821 218.618 217.701C218.694 218.825 218.692 219.963 218.64 221.092Z" fill="#F6AC1B"/>
<path d="M209.79 196.817C209.554 196.552 209.338 196.316 209.098 196.076C209.467 196.462 209.803 196.895 210.168 197.306C210.044 197.135 209.943 196.967 209.79 196.817Z" fill="#F6AC1B"/>
<path d="M212.095 199.684C212.349 200.002 212.573 200.341 212.798 200.679C212.598 200.345 212.349 200.002 212.095 199.684Z" fill="#F6AC1B"/>
<path d="M245.38 310.814C246.499 310.131 247.622 309.422 248.724 308.685C256.72 303.344 263.263 296.636 268.224 289.047L268.307 289.162L268.355 289.017C268.405 289.025 268.454 289.033 268.503 289.041L268.936 287.895C268.803 288.102 268.694 288.312 268.564 288.494L268.6 288.424L274.624 272.961L278.103 264.027L274.673 272.969L269.013 287.73L268.965 287.874C269.775 286.586 270.563 285.269 271.278 283.94C273.14 280.465 274.721 276.845 275.964 273.122C276.499 271.486 276.989 269.819 277.405 268.139C277.469 267.897 277.507 267.65 277.571 267.407C277.741 266.65 277.906 265.917 278.052 265.156C278.181 264.494 278.364 263.815 278.469 263.149L278.557 262.91L278.593 262.839C278.568 262.836 278.54 262.856 278.54 262.856C278.946 260.594 279.226 258.337 279.381 256.061C279.621 253.089 279.635 250.108 279.444 247.145C279.238 243.471 278.729 239.8 277.936 236.161C277.833 235.69 277.705 235.215 277.602 234.743C277.436 234.034 277.245 233.322 277.053 232.609C276.586 230.917 275.988 229.255 275.365 227.589C275.121 226.894 274.901 226.202 274.628 225.526C273.833 223.505 272.932 221.517 271.929 219.539C271.368 218.439 270.776 217.385 270.162 216.303C269.465 215.106 268.716 213.926 267.941 212.742C265.726 209.46 263.264 206.469 260.546 203.816C260.417 203.669 260.26 203.543 260.132 203.397C256.83 200.273 253.212 197.554 249.336 195.352C249.315 195.323 249.291 195.319 249.266 195.315C249.291 195.319 249.312 195.348 249.336 195.352C256.59 193.282 263.72 190.712 270.592 187.697C274.257 186.099 277.846 184.337 281.377 182.465C327.622 158.21 362.217 113.184 370.956 57.6413C371.364 55.0505 371.697 52.448 371.978 49.8624C356.242 110.499 308.944 156.233 250.913 171.831C243.032 167.279 234.251 163.95 224.814 162.213C224.078 162.072 223.313 161.951 222.573 161.835C215.639 160.744 208.788 160.576 202.092 161.192C205.379 162.316 208.448 163.861 211.209 165.761C214.515 168.052 217.394 170.806 219.78 173.962L219.801 173.991L219.825 173.995C219.85 173.999 219.846 174.023 219.846 174.023C221.691 176.438 223.272 179.088 224.472 181.907C224.472 181.907 224.497 181.911 224.493 181.935C225.424 184.054 226.142 186.241 226.668 188.523C226.688 188.552 226.688 188.552 226.688 188.552C227.684 192.83 227.906 197.366 227.311 201.95L227.287 201.946C227.311 201.95 227.311 201.95 227.307 201.974C227.285 202.274 227.235 202.595 227.188 202.891C227.091 203.508 226.973 204.097 226.852 204.709C225.558 211.004 222.718 216.677 218.827 221.324C218.814 221.246 218.797 221.192 218.784 221.115C218.788 221.09 218.763 221.086 218.763 221.086C217.445 214.355 212.065 208.856 204.884 207.726C204.021 207.59 203.195 207.536 202.337 207.528C198.776 207.499 195.361 208.63 192.574 210.594L192.346 210.76C192.118 210.926 191.918 211.072 191.714 211.242C191.685 211.263 191.657 211.284 191.628 211.305C190.356 212.318 189.258 213.511 188.334 214.883C185.334 215.472 182.189 215.534 179.006 215.033C174.836 214.377 171.039 212.794 167.799 210.564C166.4 209.813 165.171 208.786 164.207 207.521C161.779 205.116 159.766 202.322 158.386 199.197C157.695 197.647 157.138 196.042 156.741 194.387C155.972 191.08 155.792 187.562 156.355 183.984C156.592 182.479 156.973 181.022 157.449 179.605C152.891 183.338 148.716 187.536 145.047 192.218C144.101 193.409 143.2 194.633 142.32 195.885C141.563 196.196 140.786 196.478 139.983 196.757C134.793 198.57 129.229 199.54 123.53 199.604C120.692 199.638 117.82 199.414 114.908 198.956C104.89 197.379 96.0098 193.074 88.8943 186.873C88.8735 186.844 88.8488 186.84 88.8241 186.836C88.8033 186.808 88.7786 186.804 88.7579 186.775C87.8263 185.946 86.9195 185.121 86.0698 184.254C83.8599 182.389 81.3659 180.884 78.6941 179.705C78.0798 179.431 77.4693 179.133 76.8472 178.909C75.7717 178.512 74.6886 178.164 73.569 177.887C72.6469 177.641 71.6677 177.436 70.7054 177.285C69.8171 177.145 68.9211 177.055 68.0458 176.993C67.0225 176.908 66.0122 176.9 64.9981 176.918C64.641 176.938 64.2878 176.933 63.9307 176.952C62.8594 177.011 61.8051 177.124 60.7676 177.289C60.3002 177.367 59.8535 177.474 59.3861 177.552C58.6278 177.711 57.8903 177.898 57.1529 178.086C56.7309 178.196 56.3051 178.332 55.8792 178.467C54.9172 178.796 53.9759 179.154 53.0554 179.54C51.8896 180.039 50.7654 180.595 49.6749 181.258C49.5932 181.296 49.5075 181.358 49.4218 181.421C48.6663 181.883 47.9069 182.371 47.193 182.891C46.9321 183.102 46.7245 183.297 46.496 183.464C45.9249 183.879 45.3745 184.324 44.845 184.797C44.5802 185.033 44.3115 185.294 44.0429 185.556C43.5951 185.991 43.1266 186.398 42.6996 186.861C42.3985 187.168 42.1468 187.482 41.8664 187.818C41.4966 188.24 41.1267 188.662 40.7777 189.113C40.4896 189.497 40.2015 189.882 39.9381 190.27C39.6462 190.68 39.3504 191.113 39.0584 191.523C38.7587 191.981 38.5083 192.447 38.2294 192.935C38.0192 193.306 37.7805 193.698 37.5911 194.098C37.3006 194.66 37.0308 195.249 36.7857 195.843C35.6911 198.3 34.8731 200.928 34.4344 203.716C34.0928 205.887 33.981 208.044 34.1029 210.162C35.5246 212.055 37.0682 213.815 38.7261 215.491C43.8114 220.615 49.9636 224.744 56.9525 227.411C60.3113 228.724 63.8764 229.689 67.6022 230.275C75.3994 231.502 83.0735 230.939 90.1755 228.871C90.2365 228.805 90.2975 228.738 90.3338 228.668C90.3793 228.701 90.4208 228.758 90.4663 228.79C96.235 234.553 103.231 239.75 111.15 244.055C112.454 244.766 113.791 245.431 115.152 246.101C117.59 247.319 120.089 248.47 122.706 249.514C124.347 250.177 126.02 250.794 127.746 251.395C134.102 253.583 140.815 255.271 147.847 256.378C149.55 256.646 151.281 256.893 152.971 257.083C156.424 257.474 159.851 257.71 163.223 257.811C163.375 257.809 163.502 257.804 163.654 257.803C169.097 257.926 174.42 257.676 179.601 257.05C180.077 256.922 180.569 256.848 181.085 256.778C181.418 256.754 181.726 256.727 182.054 256.728C182.69 256.702 183.319 256.725 183.985 256.829C184.972 256.985 185.907 257.309 186.777 257.724C191.095 259.693 193.778 264.338 193.005 269.248C192.698 271.197 191.893 272.941 190.732 274.377C192.387 276.23 194.214 277.959 196.212 279.563C203.041 285.012 210.991 288.159 219.118 289.058C205.252 291.529 190.492 288.272 178.699 278.856C178.273 278.511 177.875 278.145 177.478 277.779L151.19 274.831L132.852 272.78L125.596 271.967L114.686 270.757L114.658 270.777C108.723 275.229 100.608 279.237 91.2822 281.942C86.4329 283.354 81.6859 284.276 77.2101 284.76C72.037 285.337 67.2401 285.29 63.0584 284.708C61.5247 284.492 60.0728 284.238 58.7105 283.897C58.4715 283.809 58.2286 283.746 57.9819 283.707C57.1923 283.583 56.4548 283.77 55.8044 284.047C54.61 284.567 53.6912 285.586 53.4738 286.967C53.3301 287.88 53.5228 288.745 53.9115 289.489C53.9869 289.652 54.0662 289.791 54.174 289.909C62.1876 302.296 75.2547 311.331 90.9477 313.8C102.866 315.675 114.488 313.483 124.415 308.243C124.501 308.181 124.582 308.143 124.66 308.13C125.024 307.909 125.412 307.692 125.771 307.496C132.049 304.235 139.371 302.859 146.872 304.039C152.005 304.847 156.712 306.75 160.728 309.506C161.348 309.907 161.939 310.329 162.522 310.8C165.779 313.082 169.223 315.141 172.832 316.948C177.08 318.881 181.44 320.578 185.92 321.991C185.92 321.991 185.92 321.991 185.945 321.995C186.015 322.031 186.089 322.043 186.163 322.054C191.901 323.033 197.724 323.469 203.545 323.272C203.53 323.371 203.493 323.441 203.478 323.54L203.482 323.515L203.615 323.308C210.077 323.061 216.569 322.135 222.952 320.459C230.62 318.328 238.196 315.171 245.38 310.814ZM76.8668 188.748C85.832 188.818 93.0577 194.481 93.0095 201.376C93 203.044 92.5464 204.641 91.7629 206.086C89.2958 201.677 84.8994 197.799 79.2404 195.518C73.6761 193.278 67.9286 193.005 63.1611 194.379C66.0783 190.944 71.1337 188.705 76.8668 188.748Z" fill="#F6AC1B"/>
<path d="M177.415 277.72C177.837 278.089 178.21 278.452 178.636 278.797C190.43 288.213 205.186 291.495 219.055 288.999C210.929 288.1 202.975 284.978 196.149 279.504C194.151 277.9 192.324 276.171 190.669 274.318C187.984 271.291 185.806 267.94 184.058 264.428C182.832 261.934 181.766 259.389 181.019 256.743C180.531 256.793 180.038 256.867 179.539 256.991C174.382 257.621 169.058 257.871 163.591 257.744C163.44 257.745 163.312 257.75 163.16 257.752C164.435 261.062 166.139 264.213 168.145 267.209C170.702 271.05 173.757 274.615 177.415 277.72Z" fill="white"/>
<path d="M167.77 210.61C168.434 210.891 169.13 211.127 169.826 211.363C170.501 211.571 171.164 211.7 171.843 211.883C177.807 212.543 183.285 208.424 184.224 202.452C185.195 196.284 180.995 190.515 174.826 189.545C172.556 189.188 170.326 189.545 168.366 190.425C167.59 190.859 166.859 191.326 166.125 191.817C163.96 193.524 162.385 195.982 161.919 198.943C161.418 202.126 162.325 205.202 164.128 207.559C165.096 208.799 166.301 209.822 167.72 210.602C167.72 210.602 167.745 210.606 167.77 210.61ZM164.218 197.509C164.044 193.79 167.703 190.624 172.419 190.38C177.107 190.156 181.063 192.979 181.236 196.698C181.409 200.417 177.751 203.583 173.034 203.827C168.347 204.051 164.391 201.228 164.218 197.509Z" fill="white"/>
<path d="M173.058 203.832C177.745 203.609 181.433 200.422 181.259 196.703C181.086 192.984 177.13 190.162 172.443 190.385C167.755 190.608 164.067 193.795 164.241 197.514C164.39 201.23 168.345 204.052 173.058 203.832Z" fill="black"/>
<path d="M156.663 194.423C157.06 196.079 157.613 197.708 158.309 199.233C159.688 202.358 161.701 205.153 164.129 207.558C162.301 205.197 161.419 202.125 161.92 198.942C162.382 196.006 163.961 193.523 166.126 191.816C166.861 191.324 167.616 190.862 168.368 190.424C170.331 189.519 172.533 189.183 174.827 189.544C180.996 190.514 185.196 196.283 184.226 202.451C183.286 208.423 177.809 212.542 171.844 211.882C180.441 213.968 188.452 211.587 190.226 206.101C192.122 200.154 186.11 192.887 176.773 189.875C175.039 189.324 173.327 188.954 171.666 188.743C172.374 188.424 173.127 188.138 173.88 187.852C171.592 183.75 170.583 178.913 171.371 173.905C172.225 168.476 175.029 163.835 178.954 160.584C176.386 161.318 173.948 162.35 171.627 163.603C171.602 163.599 171.549 163.616 171.516 163.661C168.451 165.303 165.62 167.386 163.109 169.848C163.08 169.869 163.08 169.869 163.077 169.894C160.547 172.631 158.61 175.942 157.399 179.621C156.924 181.038 156.546 182.47 156.306 184C155.743 187.578 155.898 191.092 156.663 194.423Z" fill="black"/>
<path d="M174.143 182.483C173.856 184.309 173.777 186.092 173.876 187.877C174.383 187.704 174.883 187.581 175.387 187.432C175.731 187.335 176.079 187.213 176.423 187.115C177.771 186.745 179.132 186.454 180.551 186.273C180.707 186.246 180.858 186.245 181.01 186.244C182.249 186.085 183.497 186.028 184.762 186.025C185.242 186.025 185.694 186.045 186.175 186.045C186.602 186.061 187.008 186.05 187.436 186.066C187.245 184.064 187.313 182.026 187.635 179.978C188.978 171.441 194.459 164.566 201.725 161.133C201.725 161.133 201.729 161.108 201.705 161.104C201.68 161.1 201.68 161.1 201.68 161.1C188.408 159.796 176.251 169.085 174.143 182.483Z" fill="black"/>
<path d="M187.465 186.047C188.415 186.12 189.36 186.218 190.298 186.366C191.285 186.521 192.239 186.722 193.19 186.947C193.239 186.955 193.264 186.959 193.309 186.991C196.009 187.669 198.585 188.656 200.937 189.936L200.962 189.94C201.383 190.158 201.775 190.397 202.192 190.639C203.352 191.302 204.419 192.077 205.481 192.876C205.709 193.038 205.932 193.225 206.159 193.387C206.362 193.546 206.589 193.708 206.767 193.862C207.591 194.574 208.386 195.306 209.124 196.079C209.364 196.319 209.58 196.555 209.817 196.82L209.841 196.824C213.772 192.411 219.086 189.656 224.708 188.796L224.712 188.771C225.335 188.667 225.979 188.592 226.591 188.561C226.595 188.537 226.595 188.537 226.57 188.533C225.984 188.238 225.398 187.944 224.776 187.72C220.885 186.096 216.756 185.497 212.731 185.85C208.554 186.204 204.514 187.616 200.962 189.94C201.062 189.627 201.186 189.318 201.307 189.033C203.899 182.842 208.695 178.236 214.397 175.745C216.11 174.978 217.916 174.427 219.745 174.058C219.745 174.058 219.749 174.033 219.724 174.029L219.699 174.025L219.678 173.997C217.778 173.217 215.814 172.681 213.861 172.399C203.26 170.832 192.484 176.166 187.465 186.047Z" fill="black"/>
<path d="M212.094 199.684C212.344 200.027 212.572 200.341 212.797 200.68C213.413 201.586 213.976 202.509 214.506 203.477C214.582 203.641 214.71 203.787 214.786 203.951C216.144 203.355 217.556 202.895 219.003 202.541C221.654 201.921 224.391 201.72 227.083 201.966C225.346 200.631 223.493 199.556 221.547 198.744C217.779 197.14 213.708 196.499 209.74 196.81C209.868 196.957 209.993 197.128 210.122 197.275C210.86 198.048 211.491 198.856 212.094 199.684Z" fill="black"/>
<path d="M171.391 173.935C170.603 178.944 171.587 183.777 173.9 187.883C173.797 186.122 173.879 184.315 174.167 182.489C176.275 169.09 188.432 159.802 201.732 161.085C199.743 160.393 197.648 159.886 195.501 159.549C189.777 158.648 184.171 159.081 178.974 160.615C175.049 163.866 172.245 168.507 171.391 173.935Z" fill="#6BC9C6"/>
<path d="M187.662 179.957C187.34 182.005 187.268 184.068 187.463 186.045C192.482 176.164 203.258 170.831 213.884 172.401C215.837 172.683 217.8 173.22 219.701 173.999C217.315 170.842 214.436 168.088 211.13 165.798C208.369 163.897 205.304 162.328 202.013 161.228C201.918 161.188 201.848 161.152 201.777 161.116C201.777 161.116 201.777 161.116 201.753 161.112C194.487 164.545 189.009 171.395 187.662 179.957Z" fill="#6BC9C6"/>
<path d="M201.283 189.006C201.158 189.315 201.034 189.624 200.938 189.913C204.489 187.589 208.53 186.176 212.707 185.822C216.708 185.466 220.861 186.068 224.752 187.692C225.37 187.941 225.96 188.211 226.546 188.505C226.02 186.223 225.302 184.036 224.371 181.918C224.375 181.893 224.35 181.889 224.35 181.889C223.146 179.095 221.594 176.424 219.724 174.006C217.875 174.347 216.09 174.926 214.377 175.693C208.695 178.212 203.9 182.818 201.283 189.006Z" fill="#6BC9C6"/>
<path d="M224.656 188.789C219.009 189.645 213.721 192.403 209.79 196.817C213.758 196.505 217.833 197.121 221.597 198.75C223.518 199.558 225.4 200.613 227.133 201.973C224.417 201.722 221.704 201.928 219.053 202.547C217.606 202.901 216.194 203.362 214.836 203.957C214.877 204.014 214.89 204.092 214.932 204.149C215.049 204.37 215.162 204.615 215.254 204.832C215.426 205.188 215.622 205.547 215.769 205.899C215.882 206.145 215.967 206.411 216.055 206.652C216.257 207.139 216.455 207.651 216.652 208.162C216.724 208.35 216.799 208.514 216.867 208.727C216.968 209.046 217.066 209.39 217.167 209.71C217.316 210.214 217.489 210.721 217.608 211.246C217.766 211.852 217.895 212.479 218.003 213.078C218.085 213.521 218.188 213.992 218.27 214.435C218.387 215.136 218.447 215.879 218.511 216.597C218.552 216.982 218.592 217.368 218.633 217.754C218.684 218.874 218.71 219.991 218.655 221.145C218.655 221.145 218.68 221.149 218.676 221.174C218.689 221.252 218.706 221.305 218.719 221.383C222.611 216.736 225.446 211.088 226.744 204.769C226.866 204.156 226.984 203.567 227.081 202.951C227.127 202.655 227.178 202.334 227.2 202.034C227.179 202.005 227.179 202.005 227.179 202.005C227.204 202.009 227.204 202.009 227.204 202.009C227.827 197.404 227.576 192.889 226.581 188.611C225.924 188.609 225.28 188.684 224.656 188.789Z" fill="#6BC9C6"/>
<path d="M218.521 216.547C218.457 215.829 218.393 215.111 218.279 214.385C218.201 213.917 218.095 213.471 218.012 213.028C217.884 212.401 217.775 211.802 217.618 211.196C217.498 210.671 217.325 210.164 217.177 209.66C217.004 209.152 216.86 208.624 216.662 208.112C216.489 207.605 216.287 207.118 216.065 206.602C215.809 205.981 215.549 205.383 215.264 204.782C215.147 204.562 215.059 204.32 214.942 204.099C214.825 203.879 214.683 203.654 214.566 203.434C214.036 202.465 213.473 201.542 212.857 200.636C212.632 200.297 212.379 199.979 212.154 199.64C211.551 198.812 210.891 198.026 210.227 197.264C209.862 196.852 209.525 196.42 209.156 196.033C208.219 195.077 207.222 194.187 206.167 193.338C205.943 193.151 205.716 192.989 205.489 192.827C204.451 192.031 203.359 191.253 202.199 190.59C201.853 190.384 201.527 190.206 201.176 190.024C201.217 191.371 201.131 192.723 200.913 194.104C198.964 206.491 187.346 214.929 174.959 212.98C172.368 212.572 169.946 211.736 167.775 210.586C167.751 210.582 167.73 210.553 167.705 210.549C170.945 212.778 174.742 214.362 178.912 215.018C182.095 215.519 185.244 215.433 188.24 214.867C189.16 213.52 190.262 212.303 191.534 211.289C191.563 211.269 191.567 211.244 191.62 211.227C191.824 211.057 192.052 210.89 192.252 210.745L192.48 210.579C195.267 208.615 198.653 207.504 202.242 207.513C203.076 207.517 203.927 207.575 204.79 207.711C211.971 208.841 217.351 214.34 218.669 221.071C218.72 219.941 218.697 218.8 218.646 217.679C218.602 217.318 218.537 216.928 218.521 216.547Z" fill="#C31632"/>
<path d="M167.767 210.612C169.934 211.787 172.36 212.598 174.951 213.006C187.338 214.955 198.956 206.517 200.905 194.13C201.123 192.749 201.209 191.397 201.168 190.05C201.519 190.232 201.841 190.434 202.192 190.616C201.775 190.373 201.382 190.135 200.961 189.917L200.937 189.913C198.584 188.632 196.009 187.646 193.309 186.968C193.259 186.96 193.235 186.956 193.189 186.924C192.239 186.698 191.284 186.498 190.297 186.342C189.359 186.195 188.414 186.097 187.465 186.023C187.041 185.982 186.631 186.018 186.204 186.002C185.727 185.977 185.272 185.981 184.791 185.982C183.526 185.985 182.274 186.066 181.04 186.201C180.884 186.227 180.732 186.228 180.58 186.229C179.185 186.415 177.8 186.702 176.452 187.072C176.108 187.169 175.764 187.267 175.416 187.389C174.913 187.538 174.388 187.657 173.905 187.834C173.156 188.096 172.399 188.406 171.691 188.725C173.356 188.911 175.068 189.281 176.798 189.857C186.135 192.869 192.147 200.136 190.251 206.083C188.473 211.594 180.467 213.95 171.869 211.864C171.186 211.706 170.524 211.576 169.852 211.344C169.127 211.129 168.431 210.893 167.767 210.612Z" fill="#F6AC1B"/>
<path d="M79.2163 195.538C84.8753 197.819 89.2964 201.701 91.7388 206.106C92.5223 204.661 92.9759 203.064 92.9854 201.396C93.0336 194.501 85.8079 188.838 76.8427 188.768C71.1096 188.725 66.0542 190.964 63.137 194.399C67.9292 193.029 73.652 193.298 79.2163 195.538Z" fill="#C31632"/>
<path d="M38.2348 192.934C38.5098 192.472 38.7641 191.981 39.0638 191.522C39.335 191.085 39.6269 190.676 39.9435 190.27C40.2316 189.886 40.495 189.497 40.7831 189.113C41.1321 188.662 41.502 188.24 41.8719 187.817C42.1483 187.507 42.4286 187.172 42.705 186.861C43.132 186.397 43.6005 185.991 44.0483 185.555C44.3169 185.294 44.5609 185.029 44.8504 184.797C45.3799 184.324 45.9511 183.908 46.5014 183.464C46.7299 183.297 46.9375 183.102 47.166 182.936C47.8799 182.416 48.6393 181.929 49.3948 181.466C49.4766 181.428 49.5622 181.366 49.6479 181.304C50.5384 180.786 51.4498 180.298 52.3819 179.837C53.5905 176.816 55.0913 173.866 56.9259 171.045C57.489 170.198 58.0729 169.38 58.6815 168.565C52.2751 172.159 46.6097 177.311 42.3164 183.867C39.6916 187.854 37.763 192.076 36.472 196.425C36.5563 196.21 36.6652 196 36.7742 195.789C37.044 195.2 37.2891 194.606 37.5796 194.045C37.7859 193.698 38.0246 193.306 38.2348 192.934Z" fill="#6BC9C6"/>
<path d="M57.1225 178.132C57.8639 177.92 58.6014 177.732 59.3558 177.598C59.8271 177.495 60.2737 177.388 60.7373 177.335C61.7747 177.169 62.8291 177.057 63.9004 176.998C64.2574 176.979 64.6107 176.984 64.9677 176.964C65.9819 176.946 66.9922 176.954 68.0155 177.039C68.1674 177.037 68.3193 177.036 68.4674 177.059L68.4921 177.063C68.5167 177.067 68.5167 177.067 68.5167 177.067C69.2401 177.13 69.9595 177.218 70.6751 177.331C71.6621 177.486 72.6166 177.687 73.5387 177.933C74.6582 178.21 75.7414 178.558 76.8168 178.955C77.4389 179.179 78.0494 179.477 78.6638 179.751C78.969 179.9 79.282 180 79.5873 180.149C83.0374 177.506 86.9474 175.314 91.2032 173.658C92.1197 173.296 93.0818 172.967 94.0153 172.659C86.7313 171.867 79.1547 172.773 71.8584 175.595C70.725 176.049 69.6163 176.507 68.5206 177.042C71.1695 174.349 74.1743 171.965 77.5352 169.889C78.401 169.368 79.263 168.871 80.1418 168.428C72.8287 168.946 65.523 171.185 58.8623 175.27C56.6529 176.616 54.5968 178.114 52.6941 179.761C52.8044 179.703 52.9355 179.673 53.0459 179.614C53.9702 179.203 54.9115 178.846 55.8697 178.541C56.2747 178.378 56.6967 178.267 57.1225 178.132Z" fill="#6BC9C6"/>
</svg>
