<svg width="536" height="1343" viewBox="0 0 536 1343" fill="none" xmlns="http://www.w3.org/2000/svg">
<path d="M135.362 474.945L276.016 626.588L257.611 643.659L116.957 492.016L135.362 474.945Z" fill="black"/>
<path d="M118.53 456.795L135.143 474.705L135.126 475.164L116.959 492.014C113.731 488.535 111.681 484.304 110.873 479.944C110.466 478.072 110.309 476.14 110.381 474.234C110.62 467.88 113.311 461.636 118.292 457.016L118.53 456.795Z" fill="#6BC9C6"/>
<path d="M209.44 434.443L208.528 458.694C206.926 458.987 205.314 459.085 203.655 459.023L154.589 457.178L180.282 433.347L209.44 434.443Z" fill="black"/>
<path d="M189.16 391.316L189.346 391.553C197.358 400.338 197.804 413.381 191.092 422.673L174.548 404.836L189.143 391.298L189.16 391.316Z" fill="#6BC9C6"/>
<path d="M161.963 391.231C158.243 387.22 156.459 382.028 156.648 376.98C156.841 371.861 159.007 366.888 163.019 363.132L189.161 391.317L174.565 404.855L161.963 391.231Z" fill="black"/>
<path d="M229.348 435.192C228.896 447.229 219.979 456.862 208.528 458.694L209.439 434.443L229.348 435.192Z" fill="#6BC9C6"/>
<path d="M210.362 409.874C210.568 404.402 212.961 399.526 216.732 396.062C220.451 392.578 225.547 390.543 231.018 390.748L229.348 435.191L209.439 434.442L210.362 409.874Z" fill="#F6AC1B"/>
<path d="M118.529 456.795L136.44 440.182L174.548 404.869L191.093 422.706C190.125 424.013 189.073 425.193 187.846 426.331L154.589 457.178L135.361 474.978L118.511 456.811L118.529 456.795Z" fill="#F6AC1B"/>
<path d="M136.437 440.182L118.271 457.033C113.289 461.653 110.597 467.932 110.359 474.251L112.279 423.172C112.342 421.513 112.562 419.878 112.975 418.303L137.226 419.214L136.437 440.182Z" fill="white"/>
<path d="M137.227 419.216L112.976 418.305C115.643 407.075 125.937 398.89 137.974 399.343L137.227 419.216Z" fill="black"/>
<path d="M163.071 400.285C162.864 405.792 160.418 410.684 156.7 414.132C152.983 417.581 147.94 419.6 142.398 419.392L137.209 419.197L137.956 399.323L163.071 400.285Z" fill="#6BC9C6"/>
<path d="M132.945 823.053L284.588 682.399L301.659 700.804L150.016 841.458L132.945 823.053Z" fill="#6BC9C6"/>
<path d="M114.795 839.885L132.705 823.272L133.164 823.289L150.014 841.456C146.535 844.684 142.304 846.734 137.944 847.542C136.072 847.949 134.14 848.106 132.234 848.034C125.88 847.795 119.636 845.104 115.016 840.123L114.795 839.885Z" fill="#C31632"/>
<path d="M92.443 748.975L116.694 749.887C116.987 751.489 117.085 753.101 117.023 754.76L115.178 803.826L91.3468 778.133L92.443 748.975Z" fill="black"/>
<path d="M49.316 769.255L49.5527 769.069C58.3378 761.057 71.3808 760.611 80.6728 767.323L62.8356 783.867L49.2976 769.272L49.316 769.255Z" fill="#6BC9C6"/>
<path d="M49.2308 796.452C45.2201 800.172 40.0274 801.956 34.9796 801.767C29.8612 801.574 24.8876 799.408 21.1324 795.396L49.3166 769.254L62.8546 783.85L49.2308 796.452Z" fill="black"/>
<path d="M93.1916 729.067C105.229 729.519 114.862 738.436 116.694 749.887L92.4431 748.975L93.1916 729.067Z" fill="#6BC9C6"/>
<path d="M67.8737 748.053C62.4023 747.847 57.5256 745.454 54.0618 741.683C50.5783 737.964 48.5428 732.868 48.7485 727.397L93.1906 729.067L92.4421 748.976L67.8737 748.053Z" fill="#F6AC1B"/>
<path d="M114.794 839.886L98.182 821.975L62.8691 783.867L80.7062 767.322C82.0131 768.29 83.1931 769.342 84.3311 770.569L115.178 803.826L132.978 823.054L114.811 839.904L114.794 839.886Z" fill="white"/>
<path d="M98.1823 821.977L115.033 840.144C119.653 845.125 125.932 847.818 132.251 848.056L81.1724 846.136C79.5133 846.073 77.8779 845.853 76.3027 845.44L77.2144 821.189L98.1823 821.977Z" fill="#6BC9C6"/>
<path d="M77.2163 821.188L76.3046 845.439C65.0754 842.772 56.8901 832.478 57.3427 820.441L77.2163 821.188Z" fill="black"/>
<path d="M58.2851 795.343C63.7919 795.551 68.6841 797.997 72.1323 801.714C75.5805 805.432 77.6003 810.475 77.3919 816.017L77.1968 821.206L57.3233 820.458L58.2851 795.343Z" fill="#C31632"/>
<path d="M483.014 434.761V399.267H447.52V434.761H483.014ZM465.255 411.106C468.527 411.106 471.175 413.754 471.175 417.026C471.175 420.298 468.527 422.946 465.255 422.946C461.983 422.946 459.335 420.298 459.335 417.026C459.335 413.754 461.983 411.106 465.255 411.106Z" fill="black"/>
<path d="M447.495 434.762H412.001V470.256H447.495V434.762ZM429.76 458.441C426.488 458.441 423.841 455.793 423.841 452.521C423.841 449.249 426.488 446.601 429.76 446.601C433.032 446.601 435.68 449.249 435.68 452.521C435.68 455.793 433.032 458.441 429.76 458.441Z" fill="black"/>
<path d="M483.015 470.281H518.508V434.787H483.015V470.281ZM500.749 446.602C504.021 446.602 506.669 449.249 506.669 452.522C506.669 455.794 504.021 458.441 500.749 458.441C497.477 458.441 494.829 455.794 494.829 452.522C494.854 449.249 497.502 446.602 500.749 446.602Z" fill="black"/>
<path d="M447.495 470.281V505.775H482.989V470.281H447.495ZM465.254 493.936C461.982 493.936 459.335 491.288 459.335 488.016C459.335 484.744 461.982 482.096 465.254 482.096C468.527 482.096 471.174 484.744 471.174 488.016C471.174 491.288 468.527 493.936 465.254 493.936Z" fill="black"/>
<path d="M447.495 399.267H412.001V434.761H447.495V399.267Z" fill="#F6AC1B"/>
<path d="M518.508 399.267H483.015V434.761H518.508V399.267Z" fill="#F6AC1B"/>
<path d="M447.495 470.281H412.001V505.775H447.495V470.281Z" fill="#F6AC1B"/>
<path d="M518.508 470.281H483.015V505.775H518.508V470.281Z" fill="#F6AC1B"/>
<path d="M482.989 434.762H447.495V470.256H482.989V434.762Z" fill="#F6AC1B"/>
<path d="M465.255 422.947C468.524 422.947 471.174 420.297 471.174 417.027C471.174 413.758 468.524 411.107 465.255 411.107C461.985 411.107 459.335 413.758 459.335 417.027C459.335 420.297 461.985 422.947 465.255 422.947Z" fill="#F6AC1B"/>
<path d="M429.762 458.44C433.032 458.44 435.682 455.79 435.682 452.52C435.682 449.251 433.032 446.601 429.762 446.601C426.493 446.601 423.843 449.251 423.843 452.52C423.843 455.79 426.493 458.44 429.762 458.44Z" fill="#F6AC1B"/>
<path d="M465.255 493.933C468.524 493.933 471.175 491.283 471.175 488.013C471.175 484.744 468.524 482.094 465.255 482.094C461.985 482.094 459.335 484.744 459.335 488.013C459.335 491.283 461.985 493.933 465.255 493.933Z" fill="#F6AC1B"/>
<path d="M500.747 458.44C504.016 458.44 506.667 455.79 506.667 452.52C506.667 449.251 504.016 446.601 500.747 446.601C497.477 446.601 494.827 449.251 494.827 452.52C494.827 455.79 497.477 458.44 500.747 458.44Z" fill="#F6AC1B"/>
<path d="M340.273 526.025C343.295 526.025 346.118 527.724 348.166 530.796C349.64 533.019 352.837 539.438 351.563 552.102C359.106 542.86 366.35 539.164 371.521 539.164C375.967 539.164 379.389 541.836 380.213 545.983C381.387 551.877 377.565 559.895 367.524 568.013C369.547 567.813 371.471 567.689 373.319 567.689C387.282 567.689 393.526 573.508 393.526 579.278C393.526 585.048 387.282 590.843 373.319 590.843C371.471 590.843 369.522 590.743 367.499 590.519C377.515 598.636 381.362 606.654 380.188 612.549C379.364 616.696 375.942 619.368 371.496 619.368C366.3 619.368 359.056 615.672 351.538 606.43C352.812 619.094 349.615 625.513 348.141 627.736C346.093 630.808 343.295 632.507 340.248 632.507H393.501V526H340.273V526.025Z" fill="#F6AC1B"/>
<path d="M332.38 627.762C330.906 625.539 327.709 619.119 328.983 606.455C321.439 615.697 314.196 619.394 309.025 619.394C304.579 619.394 301.157 616.721 300.333 612.575C299.159 606.68 302.981 598.662 313.022 590.544C310.999 590.744 309.075 590.869 307.202 590.869C297.81 590.869 290.866 588.171 288.144 583.45C286.62 580.803 286.62 577.78 288.144 575.133C290.866 570.412 297.81 567.714 307.202 567.714C309.05 567.714 310.999 567.814 313.022 568.039C303.006 559.921 299.159 551.903 300.333 546.008C301.157 541.862 304.554 539.189 309.025 539.189C314.221 539.189 321.464 542.886 328.983 552.128C327.709 539.464 330.906 533.045 332.38 530.822C334.428 527.749 337.226 526.051 340.273 526.051H287.02V632.557H340.273C337.226 632.533 334.428 630.834 332.38 627.762Z" fill="#F6AC1B"/>
<path d="M338.325 583.773C337.201 583.274 336.302 582.399 335.803 581.275C301.008 597.137 299.16 615.745 309.026 615.745C315.695 615.72 327.635 607.253 338.325 583.773ZM315.37 611.124C313.447 613.048 310.35 613.048 308.427 611.124C306.503 609.201 306.503 606.104 308.427 604.18C310.35 602.257 313.447 602.257 315.37 604.18C317.269 606.104 317.269 609.201 315.37 611.124Z" fill="#6BC9C6"/>
<path d="M338.325 574.783C327.634 551.304 315.695 542.837 309.026 542.812C299.134 542.812 301.008 561.42 335.802 577.281C336.302 576.157 337.201 575.258 338.325 574.783ZM315.37 554.351C313.447 556.275 310.35 556.275 308.426 554.351C306.503 552.428 306.503 549.331 308.426 547.407C310.35 545.484 313.447 545.484 315.37 547.407C317.269 549.331 317.269 552.453 315.37 554.351Z" fill="#6BC9C6"/>
<path d="M307.226 587.172C314.395 587.172 323.911 585.474 335.726 581.053C335.501 580.503 335.376 579.904 335.376 579.279C335.376 578.655 335.526 578.055 335.726 577.506C323.911 573.084 314.395 571.386 307.226 571.386C285.17 571.361 285.195 587.172 307.226 587.172ZM300.132 574.358C302.855 574.358 305.053 576.556 305.053 579.279C305.053 582.002 302.855 584.2 300.132 584.2C297.409 584.2 295.211 582.002 295.211 579.279C295.211 576.556 297.409 574.358 300.132 574.358Z" fill="#6BC9C6"/>
<path d="M342.049 583.825C341.5 584.05 340.9 584.175 340.276 584.175C339.651 584.175 339.052 584.025 338.502 583.825C327.262 613.824 333.756 628.861 340.276 628.861C346.795 628.861 353.264 613.824 342.049 583.825ZM340.276 624.315C337.553 624.315 335.355 622.117 335.355 619.394C335.355 616.671 337.553 614.473 340.276 614.473C342.998 614.473 345.196 616.671 345.196 619.394C345.196 622.117 342.998 624.315 340.276 624.315Z" fill="#6BC9C6"/>
<path d="M342.223 583.773C352.913 607.253 364.853 615.745 371.522 615.745C381.413 615.745 379.54 597.137 344.745 581.275C344.246 582.374 343.347 583.274 342.223 583.773ZM365.177 604.18C367.101 602.257 370.198 602.257 372.121 604.18C374.045 606.104 374.045 609.201 372.121 611.124C370.198 613.048 367.101 613.048 365.177 611.124C363.279 609.201 363.279 606.104 365.177 604.18Z" fill="#6BC9C6"/>
<path d="M373.318 571.361C366.149 571.361 356.633 573.059 344.818 577.48C345.043 578.03 345.168 578.629 345.168 579.254C345.168 579.878 345.018 580.478 344.818 581.027C356.633 585.448 366.149 587.147 373.318 587.147C395.374 587.172 395.349 571.361 373.318 571.361ZM380.412 584.174C377.689 584.174 375.491 581.976 375.491 579.254C375.491 576.531 377.689 574.333 380.412 574.333C383.135 574.333 385.333 576.531 385.333 579.254C385.333 581.976 383.135 584.174 380.412 584.174Z" fill="#6BC9C6"/>
<path d="M338.501 574.706C339.05 574.482 339.65 574.357 340.274 574.357C340.898 574.357 341.498 574.507 342.048 574.706C353.288 544.708 346.793 529.671 340.274 529.671C333.755 529.671 327.285 544.733 338.501 574.706ZM340.274 534.217C342.997 534.217 345.195 536.415 345.195 539.138C345.195 541.86 342.997 544.058 340.274 544.058C337.551 544.058 335.353 541.86 335.353 539.138C335.353 536.415 337.551 534.217 340.274 534.217Z" fill="#6BC9C6"/>
<path d="M342.223 574.783C343.347 575.283 344.246 576.157 344.745 577.281C379.54 561.42 381.388 542.812 371.522 542.812C364.853 542.812 352.913 551.304 342.223 574.783ZM365.177 547.407C367.101 545.484 370.198 545.484 372.121 547.407C374.045 549.331 374.045 552.428 372.121 554.351C370.198 556.275 367.101 556.275 365.177 554.351C363.279 552.453 363.279 549.331 365.177 547.407Z" fill="#6BC9C6"/>
<path d="M348.165 627.762C349.639 625.539 352.836 619.119 351.562 606.455C359.106 615.697 366.349 619.394 371.52 619.394C375.966 619.394 379.388 616.721 380.212 612.575C381.386 606.68 377.54 598.662 367.523 590.544C369.547 590.744 371.47 590.869 373.343 590.869C387.306 590.869 393.551 585.049 393.551 579.304C393.551 573.534 387.306 567.714 373.343 567.714C371.495 567.714 369.547 567.814 367.548 568.039C377.565 559.921 381.411 551.903 380.237 546.008C379.413 541.862 376.016 539.189 371.545 539.189C366.349 539.189 359.106 542.886 351.587 552.128C352.861 539.464 349.664 533.045 348.19 530.822C346.142 527.749 343.345 526.051 340.297 526.051C337.275 526.051 334.452 527.749 332.404 530.822C330.93 533.045 327.733 539.464 329.007 552.128C321.464 542.886 314.22 539.189 309.05 539.189C304.604 539.189 301.182 541.862 300.357 546.008C299.183 551.903 303.03 559.921 313.046 568.039C311.023 567.839 309.1 567.714 307.226 567.714C297.834 567.714 290.891 570.412 288.168 575.133C286.644 577.78 286.644 580.803 288.168 583.45C290.891 588.171 297.834 590.869 307.226 590.869C309.075 590.869 311.023 590.769 313.046 590.544C303.03 598.662 299.183 606.68 300.357 612.575C301.182 616.721 304.579 619.394 309.05 619.394C314.245 619.394 321.489 615.697 329.007 606.455C327.733 619.119 330.93 625.539 332.404 627.762C334.452 630.834 337.25 632.532 340.297 632.532C343.295 632.532 346.117 630.834 348.165 627.762ZM340.272 628.861C333.753 628.861 327.284 613.824 338.499 583.825C339.048 584.05 339.648 584.175 340.272 584.175C340.897 584.175 341.496 584.025 342.046 583.825C353.261 613.824 346.792 628.861 340.272 628.861ZM335.801 581.252C336.301 582.376 337.2 583.276 338.324 583.75C327.633 607.23 315.694 615.722 309.025 615.722C299.158 615.722 301.007 597.114 335.801 581.252ZM307.226 571.361C314.395 571.361 323.912 573.06 335.726 577.481C335.501 578.03 335.377 578.63 335.377 579.254C335.377 579.879 335.526 580.478 335.726 581.028C323.887 585.449 314.395 587.147 307.226 587.147C285.196 587.172 285.171 571.361 307.226 571.361ZM309.025 542.811C315.694 542.811 327.633 551.304 338.324 574.783C337.2 575.283 336.301 576.157 335.801 577.281C301.007 561.42 299.158 542.811 309.025 542.811ZM340.272 529.698C346.792 529.698 353.261 544.734 342.046 574.733C341.496 574.508 340.897 574.383 340.272 574.383C339.648 574.383 339.048 574.533 338.499 574.733C327.284 544.734 333.753 529.698 340.272 529.698ZM344.743 577.281C344.244 576.157 343.345 575.258 342.22 574.783C352.911 551.304 364.851 542.811 371.52 542.811C381.386 542.811 379.538 561.42 344.743 577.281ZM373.318 587.172C366.15 587.172 356.633 585.474 344.818 581.053C345.043 580.503 345.168 579.904 345.168 579.279C345.168 578.655 345.018 578.055 344.818 577.506C356.658 573.085 366.15 571.386 373.318 571.386C395.349 571.361 395.374 587.172 373.318 587.172ZM371.52 615.722C364.851 615.722 352.911 607.23 342.22 583.75C343.345 583.251 344.244 582.376 344.743 581.252C379.538 597.114 381.386 615.722 371.52 615.722Z" fill="#C31632"/>
<path d="M340.272 624.338C342.99 624.338 345.193 622.135 345.193 619.417C345.193 616.7 342.99 614.497 340.272 614.497C337.554 614.497 335.351 616.7 335.351 619.417C335.351 622.135 337.554 624.338 340.272 624.338Z" fill="#C31632"/>
<path d="M340.272 544.059C342.99 544.059 345.193 541.856 345.193 539.138C345.193 536.421 342.99 534.218 340.272 534.218C337.554 534.218 335.351 536.421 335.351 539.138C335.351 541.856 337.554 544.059 340.272 544.059Z" fill="#C31632"/>
<path d="M380.414 574.357C377.692 574.357 375.493 576.555 375.493 579.278C375.493 582 377.692 584.199 380.414 584.199C383.137 584.199 385.335 582 385.335 579.278C385.335 576.555 383.137 574.357 380.414 574.357Z" fill="#C31632"/>
<path d="M300.132 584.171C302.854 584.171 305.052 581.973 305.052 579.251C305.052 576.528 302.854 574.33 300.132 574.33C297.409 574.33 295.211 576.528 295.211 579.251C295.211 581.973 297.409 584.171 300.132 584.171Z" fill="#C31632"/>
<path d="M368.65 555.798C371.368 555.798 373.571 553.595 373.571 550.878C373.571 548.16 371.368 545.957 368.65 545.957C365.932 545.957 363.729 548.16 363.729 550.878C363.729 553.595 365.932 555.798 368.65 555.798Z" fill="#C31632"/>
<path d="M308.425 604.182C306.502 606.105 306.502 609.202 308.425 611.125C310.349 613.049 313.446 613.049 315.369 611.125C317.292 609.202 317.292 606.105 315.369 604.182C313.446 602.258 310.324 602.258 308.425 604.182Z" fill="#C31632"/>
<path d="M372.119 611.125C374.043 609.202 374.043 606.105 372.119 604.182C370.196 602.258 367.099 602.258 365.175 604.182C363.252 606.105 363.252 609.202 365.175 611.125C367.099 613.049 370.221 613.049 372.119 611.125Z" fill="#C31632"/>
<path d="M308.425 547.406C306.502 549.33 306.502 552.427 308.425 554.35C310.349 556.274 313.446 556.274 315.369 554.35C317.292 552.427 317.292 549.33 315.369 547.406C313.446 545.508 310.324 545.508 308.425 547.406Z" fill="#C31632"/>
<path d="M285.001 669.621L285.001 771.984C219.226 770.926 166.099 717.777 165.018 652L267.38 652C268.317 661.301 275.719 668.685 285.001 669.621Z" fill="#F6AC1B" stroke="#6BC9C6" stroke-width="4"/>
<path d="M500.632 335.421C497.684 330.5 494.387 325.805 490.79 321.358L415.356 384.653L500.632 335.421Z" fill="#F6AC1B"/>
<path d="M509.849 354.305C507.776 348.959 505.353 343.789 502.58 338.818L417.63 387.875L509.849 354.305Z" fill="#F6AC1B"/>
<path d="M488.268 318.31C484.521 313.939 480.475 309.843 476.154 306.046L412.559 381.83L488.268 318.31Z" fill="#F6AC1B"/>
<path d="M518.166 395.295C517.992 389.525 517.417 383.88 516.493 378.335L420.327 395.295H518.166Z" fill="#F6AC1B"/>
<path d="M515.793 374.461C514.644 368.816 513.12 363.346 511.247 358.025L419.327 391.496L515.793 374.461Z" fill="#F6AC1B"/>
<path d="M473.156 303.476C468.709 299.804 463.989 296.432 459.068 293.385L409.311 379.584L473.156 303.476Z" fill="#F6AC1B"/>
<path d="M415.533 276.873C409.813 275.874 403.943 275.274 397.974 275.074V376.51L415.533 276.873Z" fill="#F6AC1B"/>
<path d="M455.672 291.386C450.651 288.513 445.406 285.966 439.961 283.817L405.716 377.91L455.672 291.386Z" fill="#F6AC1B"/>
<path d="M436.286 282.369C430.816 280.396 425.196 278.797 419.401 277.573L401.892 376.861L436.286 282.369Z" fill="#F6AC1B"/>
<path d="M518.167 395.295H420.328L516.494 378.335C516.269 377.036 516.069 375.737 515.794 374.463L419.304 391.473L511.223 358.002C510.774 356.753 510.324 355.529 509.849 354.306L417.63 387.876L502.581 338.819C501.931 337.67 501.282 336.521 500.608 335.397L415.332 384.629L490.766 321.334C489.942 320.31 489.093 319.311 488.243 318.312L412.535 381.832L476.129 306.048C475.155 305.174 474.156 304.299 473.157 303.475L409.287 379.584L459.044 293.384C457.92 292.685 456.796 292.035 455.647 291.386L405.691 377.91L439.936 283.817C438.712 283.343 437.488 282.843 436.264 282.394L401.869 376.886L419.379 277.598C418.105 277.323 416.806 277.123 415.507 276.898L397.947 376.536V275.1C396.624 275.05 395.325 275 394.001 275V381.507C403.792 381.507 411.76 389.45 411.76 399.266H518.267C518.267 397.917 518.217 396.619 518.167 395.295Z" fill="#C31632"/>
<path d="M496.109 769.909C492.488 768.11 489.041 766.387 483.471 767.886C477.9 769.384 475.777 772.582 473.529 775.954C471.206 779.476 468.559 783.447 461.889 785.246C455.22 787.019 450.924 784.896 447.152 783.022C443.506 781.224 440.084 779.501 434.488 780.999C428.893 782.498 426.77 785.695 424.522 789.067C424.048 789.767 423.548 790.491 423.023 791.215L424.972 791.215C427.37 789.092 430.417 787.269 435.238 786.844C441.782 786.27 445.579 788.817 448.851 791.215L471.031 791.215C471.581 790.666 472.13 790.116 472.655 789.542C475.577 786.469 478.875 783.022 485.744 782.423C492.613 781.823 496.459 784.671 499.856 787.169C502.254 788.942 504.577 790.641 507.949 791.215L512.945 791.215C514.593 790.99 515.992 790.566 517.191 789.991C517.116 783.247 516.517 776.653 515.418 770.209C514.119 770.958 512.62 771.632 510.822 772.107C504.177 773.905 499.906 771.782 496.109 769.909Z" fill="#F6AC1B"/>
<path d="M435.514 789.818C433.341 790.018 431.617 790.518 430.169 791.242L443.382 791.242C441.284 790.193 438.861 789.518 435.514 789.818Z" fill="#F6AC1B"/>
<path d="M486.02 785.395C480.524 785.869 477.852 788.442 475.179 791.24L500.457 791.24C499.633 790.69 498.858 790.141 498.109 789.566C494.887 787.168 491.79 784.895 486.02 785.395Z" fill="#F6AC1B"/>
<path d="M421.876 684.111C418.504 686.359 415.307 688.482 413.808 694.052C412.31 699.622 414.033 703.069 415.832 706.691C417.705 710.463 419.828 714.759 418.055 721.428C416.256 728.097 412.285 730.745 408.763 733.068C405.391 735.316 402.194 737.439 400.695 743.034C399.196 748.629 400.895 752.051 402.718 755.698C404.592 759.495 406.715 763.766 404.941 770.435C404.317 772.808 403.393 774.657 402.319 776.18C402.618 776.355 402.918 776.53 403.193 776.73C404.067 775.731 404.866 774.532 405.566 773.008C408.014 767.763 406.915 764.091 405.79 760.194C404.592 756.148 403.243 751.552 406.165 745.282C409.088 739.038 413.459 737.114 417.33 735.416C421.052 733.792 424.574 732.244 426.997 727.023C429.445 721.778 428.371 718.106 427.197 714.209C425.998 710.163 424.649 705.567 427.571 699.322C430.494 693.078 434.865 691.155 438.737 689.456C442.458 687.833 445.98 686.309 448.403 681.063C448.553 680.764 448.628 680.489 448.753 680.189C443.058 677.317 437.138 674.894 430.993 672.921C429.17 679.24 425.323 681.838 421.876 684.111Z" fill="#F6AC1B"/>
<path d="M393.875 754.875C393.6 754.475 393.301 754.075 393.001 753.676L393.001 773.483C393.95 773.483 394.874 773.608 395.798 773.758C396.947 772.01 397.797 769.887 398.046 766.964C398.546 761.219 396.273 758.147 393.875 754.875Z" fill="#F6AC1B"/>
<path d="M402.717 679.289C399.77 682.087 396.997 684.734 396.498 690.479C396.023 696.224 398.271 699.322 400.669 702.569C403.167 705.966 406.014 709.837 405.415 716.681C404.816 723.55 401.344 726.847 398.296 729.77C396.173 731.793 394.175 733.741 393.001 736.789L393.001 747.779C393.8 749.752 394.999 751.401 396.248 753.099C398.746 756.496 401.593 760.368 400.994 767.237C400.719 770.284 399.87 772.607 398.746 774.531C399.046 774.631 399.345 774.681 399.62 774.805C400.619 773.482 401.468 771.858 402.043 769.685C403.542 764.09 401.843 760.668 400.045 757.021C398.171 753.249 396.048 748.953 397.822 742.284C399.62 735.615 403.592 732.967 407.114 730.644C410.486 728.396 413.683 726.273 415.181 720.703C416.68 715.133 414.957 711.686 413.158 708.064C411.285 704.292 409.162 699.996 410.935 693.327C412.709 686.658 416.705 684.01 420.227 681.687C423.524 679.489 426.646 677.391 428.17 672.12C422.125 670.347 415.906 669.023 409.536 668.174C408.537 673.694 405.465 676.666 402.717 679.289Z" fill="#F6AC1B"/>
<path d="M396.248 727.647C399.195 724.849 401.968 722.202 402.468 716.432C402.967 710.662 400.694 707.589 398.296 704.342C395.798 700.945 392.951 697.099 393.55 690.23C394.15 683.361 397.622 680.064 400.669 677.141C403.292 674.643 405.765 672.27 406.639 667.749C402.168 667.25 397.622 667 393.001 667L393.001 731.044C394.05 729.77 395.174 728.671 396.248 727.647Z" fill="#F6AC1B"/>
<path d="M439.934 692.202C436.212 693.826 432.69 695.35 430.267 700.595C427.819 705.816 428.918 709.512 430.067 713.409C431.266 717.455 432.615 722.051 429.693 728.296C426.77 734.54 422.399 736.464 418.527 738.162C414.806 739.786 411.284 741.334 408.861 746.555C406.413 751.8 407.487 755.472 408.636 759.369C409.81 763.415 411.184 768.011 408.261 774.281C407.437 776.054 406.488 777.453 405.489 778.627C405.764 778.902 405.988 779.201 406.238 779.501C406.988 778.802 407.737 777.952 408.436 776.928C411.758 772.182 411.334 768.386 410.884 764.339C410.41 760.118 409.885 755.372 413.832 749.727C417.778 744.082 422.449 742.958 426.545 741.959C430.492 741.01 434.214 740.111 437.536 735.365C440.858 730.644 440.408 726.822 439.959 722.801C439.484 718.604 438.96 713.858 442.906 708.188C446.853 702.543 451.524 701.419 455.62 700.42C459.567 699.471 463.288 698.572 466.61 693.826C467.06 693.202 467.435 692.577 467.734 691.978C462.589 688.106 457.144 684.634 451.424 681.562C451.324 681.812 451.249 682.061 451.124 682.336C448.201 688.581 443.805 690.504 439.934 692.202Z" fill="#F6AC1B"/>
<path d="M470.508 717.056C466.462 717.306 462.64 717.555 458.544 721.627C454.448 725.723 454.223 729.545 453.973 733.591C453.723 737.813 453.398 742.583 448.528 747.454C443.657 752.325 438.861 752.625 434.665 752.899C430.618 753.149 426.797 753.399 422.7 757.47C418.604 761.567 418.354 765.388 418.104 769.435C417.83 773.656 417.53 778.427 412.659 783.323C411.71 784.272 410.761 785.071 409.812 785.696C409.936 786.095 410.086 786.495 410.186 786.92C410.761 786.62 411.335 786.27 411.91 785.871C416.656 782.548 417.555 778.827 418.504 774.88C419.503 770.784 420.627 766.113 426.272 762.166C431.917 758.22 436.688 758.744 440.884 759.219C444.931 759.668 448.728 760.093 453.473 756.796C458.194 753.474 459.093 749.752 460.068 745.806C461.067 741.709 462.191 737.038 467.836 733.092C473.481 729.145 478.252 729.67 482.448 730.144C486.494 730.594 490.291 731.019 495.037 727.721C496.311 726.822 497.31 725.898 498.109 724.924C494.612 719.404 490.691 714.158 486.395 709.288C485.82 710.062 485.196 710.836 484.421 711.636C479.501 716.506 474.705 716.806 470.508 717.056Z" fill="#F6AC1B"/>
<path d="M496.685 730.147C491.04 734.093 486.269 733.569 482.073 733.094C478.051 732.645 474.23 732.22 469.509 735.517C464.788 738.839 463.864 742.561 462.915 746.508C461.916 750.604 460.792 755.275 455.147 759.221C449.501 763.168 444.731 762.643 440.534 762.169C436.488 761.719 432.691 761.295 427.945 764.592C423.2 767.914 422.3 771.635 421.351 775.582C420.352 779.678 419.228 784.349 413.583 788.296C412.559 789.02 411.585 789.57 410.611 790.019C410.636 790.419 410.735 790.819 410.735 791.218L410.91 791.218C411.41 791.044 411.884 790.919 412.409 790.669C417.654 788.221 419.178 784.699 420.827 780.977C422.525 777.106 424.448 772.71 430.693 769.787C436.937 766.865 441.533 768.213 445.58 769.412C449.477 770.561 453.148 771.635 458.394 769.188C463.614 766.74 465.163 763.243 466.786 759.521C468.485 755.65 470.383 751.253 476.653 748.356C482.897 745.433 487.493 746.782 491.54 747.981C495.436 749.13 499.108 750.204 504.353 747.756C506.052 746.957 507.326 746.058 508.375 745.059C505.927 738.939 503.03 733.044 499.683 727.449C498.858 728.423 497.884 729.298 496.685 730.147Z" fill="#F6AC1B"/>
<path d="M456.295 703.293C452.348 704.242 448.626 705.141 445.304 709.887C441.982 714.608 442.432 718.43 442.881 722.451C443.381 726.648 443.88 731.394 439.934 737.064C435.987 742.709 431.316 743.833 427.22 744.832C423.273 745.781 419.552 746.68 416.23 751.426C412.908 756.172 413.332 759.969 413.782 764.015C414.256 768.211 414.781 772.982 410.834 778.627C409.91 779.926 408.961 780.975 407.987 781.849C408.212 782.199 408.387 782.574 408.586 782.948C409.236 782.474 409.885 781.949 410.535 781.275C414.631 777.178 414.881 773.357 415.131 769.31C415.405 765.089 415.705 760.318 420.576 755.422C425.447 750.552 430.242 750.252 434.439 749.977C438.485 749.727 442.307 749.478 446.403 745.381C450.475 741.31 450.724 737.463 450.974 733.417C451.249 729.195 451.549 724.425 456.419 719.554C461.29 714.683 466.086 714.383 470.282 714.109C474.329 713.859 478.15 713.609 482.247 709.538C483.096 708.688 483.746 707.864 484.295 707.015C479.899 702.244 475.128 697.848 470.033 693.826C469.708 694.401 469.383 694.95 468.983 695.55C465.062 701.17 460.416 702.294 456.295 703.293Z" fill="#F6AC1B"/>
<path d="M490.714 750.875C486.817 749.726 483.145 748.652 477.9 751.1C472.654 753.548 471.131 757.044 469.507 760.766C467.809 764.638 465.91 769.034 459.666 771.931C453.421 774.854 448.825 773.505 444.754 772.306C440.857 771.157 437.185 770.083 431.94 772.531C426.695 774.979 425.171 778.501 423.522 782.222C422.199 785.245 420.725 788.567 417.178 791.264L419.226 791.264C420.275 790.091 421.15 788.792 422.024 787.468C424.372 783.946 427.019 779.949 433.689 778.176C440.358 776.403 444.654 778.526 448.426 780.399C452.072 782.197 455.494 783.921 461.09 782.422C466.66 780.924 468.783 777.726 471.031 774.354C473.354 770.832 476.001 766.836 482.671 765.062C489.34 763.289 493.611 765.412 497.408 767.286C501.03 769.084 504.477 770.807 510.047 769.309C512.045 768.784 513.569 768.01 514.842 767.111C513.544 760.591 511.77 754.222 509.497 748.102C508.423 748.977 507.124 749.801 505.551 750.525C499.356 753.423 494.76 752.074 490.714 750.875Z" fill="#F6AC1B"/>
<path d="M517.267 791.241C517.267 790.842 517.242 790.417 517.242 790.017C516.043 790.592 514.644 791.017 512.996 791.241L517.267 791.241Z" fill="#C31632"/>
<path d="M499.906 787.195C496.509 784.697 492.662 781.85 485.793 782.449C478.924 783.049 475.627 786.521 472.705 789.568C472.155 790.143 471.631 790.692 471.081 791.242L475.228 791.242C477.9 788.444 480.548 785.871 486.068 785.397C491.813 784.897 494.911 787.17 498.183 789.568C498.932 790.118 499.706 790.692 500.531 791.242L508.024 791.242C504.627 790.667 502.304 788.969 499.906 787.195Z" fill="#C31632"/>
<path d="M491.54 748.052C487.493 746.853 482.897 745.504 476.653 748.427C470.408 751.349 468.485 755.72 466.787 759.592C465.163 763.314 463.639 766.811 458.394 769.258C453.149 771.706 449.477 770.607 445.58 769.483C441.534 768.284 436.938 766.936 430.693 769.858C424.449 772.78 422.525 777.176 420.827 781.048C419.203 784.77 417.655 788.292 412.409 790.74C411.885 790.989 411.41 791.089 410.911 791.289L417.205 791.289C420.727 788.592 422.226 785.269 423.549 782.247C425.173 778.525 426.722 775.003 431.967 772.556C437.212 770.108 440.884 771.207 444.781 772.331C448.827 773.53 453.423 774.879 459.693 771.956C465.937 769.034 467.861 764.662 469.534 760.791C471.158 757.069 472.681 753.547 477.927 751.124C483.172 748.676 486.844 749.776 490.741 750.9C494.787 752.098 499.383 753.447 505.628 750.525C507.201 749.8 508.475 748.976 509.574 748.102C509.199 747.103 508.8 746.129 508.425 745.155C507.376 746.154 506.102 747.053 504.404 747.852C499.133 750.275 495.437 749.201 491.54 748.052Z" fill="#C31632"/>
<path d="M438.76 689.478C434.888 691.177 430.492 693.075 427.595 699.344C424.672 705.589 426.046 710.185 427.22 714.231C428.369 718.128 429.443 721.8 427.02 727.045C424.572 732.291 421.075 733.814 417.354 735.438C413.482 737.136 409.086 739.035 406.188 745.304C403.266 751.549 404.615 756.17 405.814 760.216C406.963 764.113 408.037 767.785 405.589 773.03C404.89 774.554 404.065 775.753 403.216 776.752C404.015 777.326 404.79 777.951 405.489 778.625C406.513 777.451 407.437 776.052 408.262 774.279C411.184 768.034 409.81 763.438 408.636 759.367C407.487 755.47 406.413 751.798 408.861 746.553C411.309 741.308 414.806 739.784 418.528 738.16C422.399 736.462 426.795 734.564 429.693 728.294C432.59 722.05 431.241 717.454 430.067 713.407C428.918 709.511 427.844 705.839 430.267 700.593C432.715 695.348 436.212 693.824 439.934 692.201C443.805 690.502 448.202 688.604 451.099 682.334C451.224 682.06 451.299 681.835 451.399 681.56C450.525 681.085 449.65 680.661 448.751 680.211C448.626 680.511 448.551 680.786 448.401 681.085C445.979 686.331 442.482 687.854 438.76 689.478Z" fill="#C31632"/>
<path d="M398.296 729.793C401.369 726.87 404.816 723.573 405.415 716.704C406.014 709.86 403.167 705.989 400.669 702.592C398.246 699.32 395.998 696.247 396.498 690.502C396.997 684.732 399.77 682.11 402.717 679.312C405.465 676.689 408.537 673.717 409.561 668.147C408.587 668.022 407.613 667.872 406.639 667.772C405.765 672.293 403.292 674.666 400.669 677.164C397.622 680.086 394.15 683.384 393.55 690.253C392.951 697.122 395.798 700.968 398.296 704.365C400.719 707.637 402.992 710.71 402.468 716.455C401.968 722.225 399.195 724.847 396.248 727.67C395.174 728.694 394.05 729.793 393.001 731.067L393.001 736.862C394.15 733.739 396.173 731.791 398.296 729.793Z" fill="#C31632"/>
<path d="M497.434 767.261C493.662 765.388 489.366 763.265 482.697 765.038C476.027 766.812 473.38 770.808 471.057 774.33C468.809 777.702 466.686 780.899 461.115 782.398C455.52 783.897 452.098 782.198 448.452 780.375C444.68 778.501 440.384 776.378 433.714 778.152C427.045 779.95 424.398 783.922 422.05 787.444C421.175 788.767 420.301 790.066 419.252 791.24L423.024 791.24C423.548 790.516 424.048 789.792 424.523 789.092C426.771 785.72 428.894 782.523 434.489 781.024C440.084 779.526 443.506 781.224 447.153 783.047C450.924 784.921 455.221 787.044 461.89 785.27C468.559 783.497 471.207 779.501 473.53 775.979C475.778 772.607 477.901 769.409 483.471 767.911C489.041 766.412 492.488 768.111 496.11 769.934C499.882 771.807 504.178 773.93 510.847 772.157C512.67 771.682 514.144 771.008 515.443 770.259C515.268 769.21 515.093 768.16 514.893 767.111C513.62 768.011 512.071 768.76 510.098 769.31C504.503 770.758 501.08 769.06 497.434 767.261Z" fill="#C31632"/>
<path d="M420.251 681.634C416.729 683.982 412.732 686.63 410.959 693.274C409.185 699.943 411.309 704.215 413.182 708.011C414.98 711.633 416.704 715.08 415.205 720.65C413.706 726.245 410.509 728.343 407.137 730.591C403.615 732.939 399.619 735.587 397.845 742.231C396.072 748.9 398.195 753.197 400.068 756.968C401.867 760.615 403.565 764.037 402.067 769.632C401.492 771.805 400.643 773.429 399.644 774.753C400.568 775.127 401.467 775.602 402.291 776.127C403.365 774.603 404.29 772.755 404.914 770.382C406.713 763.712 404.564 759.416 402.691 755.645C400.893 751.998 399.169 748.576 400.668 742.981C402.167 737.385 405.364 735.262 408.736 733.014C412.258 730.666 416.254 728.019 418.028 721.375C419.801 714.705 417.678 710.434 415.805 706.637C414.006 702.991 412.308 699.569 413.781 693.999C415.28 688.403 418.477 686.305 421.849 684.057C425.271 681.784 429.143 679.186 430.991 672.892C430.067 672.592 429.118 672.317 428.169 672.043C426.645 677.363 423.548 679.461 420.251 681.634Z" fill="#C31632"/>
<path d="M470.309 714.108C466.088 714.383 461.317 714.683 456.446 719.553C451.576 724.424 451.276 729.195 451.001 733.416C450.751 737.463 450.502 741.284 446.43 745.381C442.334 749.477 438.512 749.702 434.466 749.977C430.244 750.251 425.473 750.551 420.603 755.422C415.732 760.293 415.432 765.089 415.158 769.31C414.908 773.356 414.658 777.203 410.562 781.274C409.912 781.924 409.263 782.473 408.613 782.948C409.088 783.847 409.487 784.771 409.812 785.745C410.761 785.096 411.711 784.322 412.66 783.373C417.53 778.502 417.855 773.706 418.105 769.485C418.355 765.438 418.604 761.592 422.701 757.52C426.797 753.424 430.619 753.199 434.665 752.949C438.887 752.674 443.658 752.375 448.528 747.504C453.399 742.633 453.699 737.862 453.974 733.641C454.223 729.595 454.473 725.773 458.544 721.677C462.641 717.58 466.463 717.355 470.509 717.106C474.73 716.831 479.501 716.531 484.372 711.66C485.146 710.886 485.796 710.087 486.345 709.312C485.671 708.563 485.021 707.789 484.322 707.039C483.772 707.864 483.123 708.713 482.274 709.562C478.202 713.609 474.356 713.858 470.309 714.108Z" fill="#C31632"/>
<path d="M400.994 767.235C401.618 760.366 398.746 756.494 396.248 753.097C394.999 751.399 393.8 749.775 393.001 747.777L393.001 753.647C393.301 754.046 393.575 754.446 393.875 754.846C396.273 758.118 398.571 761.19 398.046 766.96C397.797 769.882 396.947 772.006 395.798 773.754C396.823 773.929 397.797 774.179 398.746 774.503C399.87 772.605 400.719 770.307 400.994 767.235Z" fill="#C31632"/>
<path d="M455.621 700.417C451.524 701.416 446.853 702.54 442.907 708.185C438.96 713.83 439.485 718.576 439.96 722.797C440.409 726.818 440.834 730.64 437.537 735.361C434.215 740.107 430.493 741.006 426.546 741.955C422.45 742.954 417.779 744.078 413.832 749.723C409.861 755.368 410.41 760.114 410.885 764.336C411.335 768.357 411.759 772.179 408.437 776.925C407.713 777.949 406.988 778.773 406.239 779.497C406.888 780.247 407.513 781.021 408.037 781.845C409.012 780.971 409.961 779.922 410.885 778.623C414.857 772.978 414.307 768.207 413.832 764.011C413.383 759.964 412.958 756.168 416.28 751.422C419.602 746.676 423.324 745.777 427.271 744.828C431.367 743.829 436.038 742.705 439.985 737.059C443.931 731.414 443.431 726.669 442.932 722.447C442.482 718.426 442.058 714.604 445.355 709.883C448.677 705.137 452.399 704.238 456.345 703.289C460.442 702.29 465.113 701.166 469.059 695.521C469.459 694.946 469.808 694.372 470.108 693.797C469.334 693.173 468.559 692.548 467.76 691.949C467.435 692.548 467.086 693.173 466.636 693.797C463.289 698.543 459.567 699.467 455.621 700.417Z" fill="#C31632"/>
<path d="M494.987 727.719C490.266 731.041 486.444 730.616 482.398 730.142C478.201 729.667 473.431 729.142 467.786 733.089C462.141 737.036 461.016 741.706 460.017 745.803C459.068 749.749 458.169 753.471 453.423 756.793C448.677 760.115 444.881 759.691 440.834 759.216C436.638 758.742 431.892 758.217 426.222 762.164C420.577 766.135 419.428 770.781 418.454 774.877C417.505 778.824 416.58 782.546 411.86 785.868C411.26 786.292 410.686 786.617 410.136 786.917C410.386 787.916 410.511 788.94 410.586 789.989C411.56 789.54 412.534 788.99 413.558 788.266C419.203 784.294 420.327 779.648 421.326 775.552C422.275 771.605 423.2 767.884 427.92 764.561C432.666 761.239 436.463 761.664 440.509 762.139C444.706 762.613 449.477 763.138 455.122 759.191C460.767 755.245 461.891 750.599 462.89 746.477C463.839 742.531 464.738 738.809 469.484 735.487C474.205 732.165 478.027 732.589 482.048 733.064C486.244 733.539 491.015 734.063 496.66 730.117C497.859 729.267 498.808 728.393 499.658 727.519C499.133 726.645 498.584 725.77 498.034 724.921C497.26 725.87 496.286 726.82 494.987 727.719Z" fill="#C31632"/>
<path d="M435.262 786.87C430.442 787.295 427.394 789.118 424.996 791.241L430.167 791.241C431.616 790.517 433.364 790.017 435.512 789.817C438.859 789.518 441.282 790.192 443.38 791.241L448.875 791.241C445.603 788.843 441.782 786.295 435.262 786.87Z" fill="#C31632"/>
<path d="M265.91 547.157C264.111 550.779 262.388 554.226 263.887 559.796C265.385 565.366 268.582 567.489 271.955 569.737C275.476 572.06 279.448 574.708 281.246 581.377C283.02 588.046 280.897 592.343 279.023 596.114C277.225 599.761 275.501 603.183 277 608.778C278.499 614.373 281.696 616.496 285.068 618.744C285.767 619.219 286.492 619.719 287.216 620.243L287.216 618.295C285.093 615.897 283.27 612.85 282.845 608.029C282.27 601.485 284.818 597.688 287.216 594.416L287.216 572.235C286.667 571.686 286.117 571.136 285.543 570.612C282.47 567.689 279.023 564.392 278.424 557.523C277.824 550.654 280.672 546.807 283.17 543.41C284.943 541.013 286.642 538.69 287.216 535.318L287.216 530.322C286.991 528.673 286.567 527.275 285.992 526.076C279.248 526.151 272.654 526.75 266.209 527.849C266.959 529.148 267.633 530.647 268.108 532.445C269.906 539.089 267.783 543.36 265.91 547.157Z" fill="#C31632"/>
<path d="M285.819 607.753C286.019 609.926 286.518 611.649 287.243 613.098L287.243 599.884C286.194 601.983 285.519 604.406 285.819 607.753Z" fill="#C31632"/>
<path d="M281.396 557.247C281.87 562.742 284.443 565.415 287.241 568.087L287.241 542.81C286.691 543.634 286.142 544.408 285.567 545.157C283.169 548.38 280.896 551.477 281.396 557.247Z" fill="#C31632"/>
<path d="M180.112 621.39C182.36 624.762 184.483 627.959 190.053 629.458C195.623 630.957 199.07 629.233 202.692 627.435C206.464 625.561 210.76 623.438 217.429 625.212C224.098 627.01 226.746 630.982 229.069 634.504C231.317 637.876 233.44 641.073 239.035 642.572C244.63 644.07 248.052 642.372 251.699 640.548C255.496 638.675 259.767 636.552 266.436 638.325C268.809 638.95 270.657 639.874 272.181 640.948C272.356 640.648 272.531 640.348 272.731 640.074C271.732 639.199 270.533 638.4 269.009 637.701C263.763 635.253 260.092 636.352 256.195 637.476C252.149 638.675 247.553 640.024 241.283 637.101C235.039 634.179 233.115 629.808 231.417 625.936C229.793 622.214 228.245 618.692 223.024 616.27C217.779 613.822 214.107 614.896 210.21 616.07C206.164 617.269 201.568 618.618 195.323 615.695C189.079 612.773 187.156 608.401 185.457 604.53C183.833 600.808 182.31 597.286 177.064 594.863C176.765 594.713 176.49 594.639 176.19 594.514C173.318 600.209 170.895 606.128 168.922 612.273C175.241 614.096 177.839 617.943 180.112 621.39Z" fill="#C31632"/>
<path d="M250.876 649.391C250.476 649.666 250.076 649.966 249.677 650.266L269.484 650.266C269.484 649.316 269.609 648.392 269.759 647.468C268.011 646.319 265.888 645.47 262.965 645.22C257.22 644.72 254.148 646.993 250.876 649.391Z" fill="#C31632"/>
<path d="M175.29 640.549C178.088 643.497 180.735 646.269 186.48 646.769C192.225 647.243 195.323 644.995 198.57 642.597C201.967 640.1 205.838 637.252 212.682 637.851C219.551 638.451 222.849 641.923 225.771 644.97C227.794 647.093 229.742 649.092 232.79 650.266L243.78 650.266C245.754 649.466 247.402 648.267 249.101 647.018C252.498 644.521 256.369 641.673 263.238 642.273C266.285 642.547 268.608 643.397 270.532 644.521C270.632 644.221 270.682 643.921 270.807 643.646C269.483 642.647 267.859 641.798 265.686 641.224C260.091 639.725 256.669 641.423 253.022 643.222C249.25 645.095 244.954 647.218 238.285 645.445C231.616 643.646 228.968 639.675 226.645 636.153C224.397 632.781 222.274 629.584 216.704 628.085C211.134 626.586 207.687 628.31 204.065 630.108C200.293 631.982 195.997 634.105 189.328 632.331C182.659 630.558 180.011 626.561 177.688 623.039C175.49 619.742 173.392 616.62 168.121 615.096C166.348 621.141 165.024 627.361 164.175 633.73C169.695 634.729 172.667 637.802 175.29 640.549Z" fill="#C31632"/>
<path d="M223.648 647.018C220.85 644.071 218.203 641.298 212.433 640.799C206.663 640.299 203.59 642.572 200.343 644.97C196.946 647.468 193.1 650.316 186.231 649.716C179.362 649.117 176.065 645.645 173.142 642.597C170.644 639.975 168.271 637.502 163.75 636.628C163.251 641.099 163.001 645.645 163.001 650.266L227.045 650.266C225.771 649.217 224.672 648.093 223.648 647.018Z" fill="#C31632"/>
<path d="M188.203 603.333C189.827 607.054 191.351 610.576 196.596 612.999C201.816 615.447 205.513 614.348 209.41 613.199C213.456 612 218.052 610.651 224.297 613.574C230.541 616.496 232.465 620.867 234.163 624.739C235.787 628.461 237.335 631.983 242.556 634.406C247.801 636.853 251.473 635.779 255.369 634.63C259.416 633.456 264.012 632.083 270.281 635.005C272.055 635.829 273.454 636.778 274.628 637.778C274.902 637.503 275.202 637.278 275.502 637.028C274.802 636.279 273.953 635.53 272.929 634.83C268.183 631.508 264.387 631.933 260.34 632.382C256.119 632.857 251.373 633.381 245.728 629.435C240.083 625.488 238.959 620.817 237.96 616.721C237.011 612.774 236.111 609.053 231.366 605.731C226.645 602.409 222.823 602.858 218.802 603.308C214.605 603.782 209.859 604.307 204.189 600.36C198.544 596.414 197.42 591.743 196.421 587.646C195.472 583.7 194.573 579.978 189.827 576.656C189.202 576.207 188.578 575.832 187.978 575.532C184.107 580.678 180.635 586.123 177.563 591.843C177.812 591.943 178.062 592.018 178.337 592.143C184.581 595.065 186.505 599.461 188.203 603.333Z" fill="#C31632"/>
<path d="M213.057 572.758C213.306 576.804 213.556 580.626 217.628 584.723C221.724 588.819 225.546 589.044 229.592 589.293C233.813 589.543 238.584 589.868 243.455 594.739C248.326 599.609 248.626 604.405 248.9 608.602C249.15 612.648 249.4 616.47 253.471 620.566C257.568 624.663 261.389 624.912 265.436 625.162C269.657 625.437 274.428 625.737 279.324 630.607C280.273 631.556 281.072 632.506 281.697 633.455C282.096 633.33 282.496 633.18 282.92 633.08C282.621 632.506 282.271 631.931 281.871 631.357C278.549 626.611 274.828 625.712 270.881 624.762C266.785 623.763 262.114 622.639 258.167 616.994C254.221 611.349 254.745 606.578 255.22 602.382C255.669 598.336 256.094 594.539 252.797 589.793C249.475 585.072 245.753 584.173 241.806 583.199C237.71 582.2 233.039 581.076 229.093 575.431C225.146 569.786 225.671 565.015 226.145 560.818C226.595 556.772 227.019 552.975 223.722 548.229C222.823 546.956 221.899 545.956 220.925 545.157C215.405 548.654 210.159 552.576 205.288 556.872C206.063 557.446 206.837 558.071 207.636 558.845C212.507 563.766 212.807 568.562 213.057 572.758Z" fill="#C31632"/>
<path d="M226.148 546.581C230.094 552.226 229.57 556.997 229.095 561.194C228.646 565.215 228.221 569.037 231.518 573.758C234.84 578.478 238.562 579.403 242.508 580.352C246.605 581.351 251.276 582.475 255.222 588.12C259.169 593.765 258.644 598.536 258.17 602.732C257.72 606.779 257.295 610.575 260.593 615.321C263.915 620.067 267.636 620.966 271.583 621.915C275.679 622.915 280.35 624.039 284.297 629.684C285.021 630.708 285.571 631.682 286.02 632.656C286.42 632.631 286.82 632.531 287.219 632.531L287.219 632.356C287.044 631.857 286.92 631.382 286.67 630.858C284.222 625.612 280.7 624.089 276.978 622.44C273.107 620.741 268.711 618.818 265.788 612.574C262.866 606.329 264.214 601.733 265.413 597.687C266.562 593.79 267.636 590.118 265.189 584.873C262.741 579.652 259.244 578.104 255.522 576.48C251.65 574.782 247.254 572.883 244.357 566.614C241.434 560.369 242.783 555.773 243.982 551.727C245.131 547.83 246.205 544.158 243.757 538.913C242.958 537.215 242.059 535.941 241.06 534.892C234.94 537.339 229.045 540.237 223.45 543.584C224.424 544.408 225.298 545.382 226.148 546.581Z" fill="#C31632"/>
<path d="M199.294 586.972C200.243 590.919 201.142 594.64 205.888 597.962C210.609 601.285 214.431 600.835 218.452 600.385C222.649 599.886 227.394 599.386 233.064 603.333C238.709 607.279 239.833 611.95 240.833 616.047C241.782 619.993 242.681 623.715 247.427 627.037C252.173 630.359 255.969 629.934 260.016 629.485C264.212 629.01 268.983 628.486 274.628 632.432C275.927 633.356 276.976 634.306 277.85 635.28C278.2 635.055 278.575 634.88 278.949 634.68C278.475 634.031 277.95 633.381 277.276 632.732C273.179 628.636 269.358 628.386 265.311 628.136C261.09 627.861 256.319 627.562 251.423 622.691C246.553 617.82 246.253 613.024 245.978 608.828C245.728 604.781 245.479 600.96 241.382 596.863C237.311 592.792 233.464 592.542 229.418 592.292C225.196 592.018 220.425 591.718 215.555 586.847C210.684 581.976 210.384 577.181 210.109 572.984C209.86 568.938 209.61 565.116 205.538 561.02C204.689 560.171 203.865 559.521 203.016 558.972C198.245 563.368 193.849 568.139 189.827 573.234C190.402 573.559 190.951 573.884 191.551 574.283C197.171 578.205 198.295 582.851 199.294 586.972Z" fill="#C31632"/>
<path d="M246.876 552.553C245.727 556.45 244.653 560.121 247.101 565.367C249.549 570.612 253.045 572.136 256.767 573.759C260.639 575.458 265.035 577.356 267.932 583.601C270.855 589.845 269.506 594.441 268.307 598.513C267.158 602.409 266.084 606.081 268.532 611.327C270.98 616.572 274.502 618.096 278.223 619.744C281.246 621.068 284.568 622.542 287.265 626.089L287.265 624.04C286.091 622.991 284.793 622.117 283.469 621.243C279.947 618.895 275.95 616.247 274.177 609.578C272.404 602.909 274.527 598.613 276.4 594.841C278.198 591.194 279.922 587.772 278.423 582.177C276.925 576.607 273.727 574.484 270.355 572.236C266.833 569.913 262.837 567.265 261.063 560.596C259.29 553.927 261.413 549.656 263.287 545.859C265.085 542.237 266.808 538.79 265.31 533.22C264.785 531.222 264.011 529.698 263.112 528.424C256.592 529.723 250.223 531.496 244.103 533.769C244.978 534.844 245.802 536.142 246.526 537.716C249.424 543.911 248.075 548.507 246.876 552.553Z" fill="#C31632"/>
<path d="M287.242 526C286.843 526 286.418 526.025 286.018 526.025C286.593 527.224 287.017 528.622 287.242 530.271L287.242 526Z" fill="black"/>
<path d="M283.196 543.36C280.698 546.757 277.851 550.604 278.45 557.473C279.05 564.342 282.522 567.639 285.569 570.561C286.144 571.111 286.693 571.636 287.243 572.185L287.243 568.039C284.445 565.366 281.872 562.718 281.398 557.198C280.898 551.453 283.171 548.356 285.569 545.084C286.119 544.334 286.693 543.56 287.243 542.736L287.243 535.242C286.668 538.639 284.97 540.962 283.196 543.36Z" fill="black"/>
<path d="M244.053 551.727C242.854 555.773 241.505 560.369 244.428 566.614C247.35 572.858 251.721 574.781 255.593 576.48C259.315 578.103 262.812 579.627 265.259 584.873C267.707 590.118 266.608 593.79 265.484 597.686C264.285 601.733 262.937 606.329 265.859 612.573C268.781 618.818 273.178 620.741 277.049 622.44C280.771 624.063 284.293 625.612 286.741 630.857C286.99 631.382 287.09 631.856 287.29 632.356L287.29 626.061C284.593 622.54 281.27 621.041 278.248 619.717C274.526 618.093 271.004 616.545 268.557 611.299C266.109 606.054 267.208 602.382 268.332 598.486C269.531 594.439 270.88 589.843 267.957 583.574C265.035 577.329 260.664 575.406 256.792 573.732C253.07 572.109 249.548 570.585 247.125 565.34C244.678 560.094 245.777 556.422 246.901 552.526C248.1 548.479 249.448 543.883 246.526 537.639C245.801 536.065 244.977 534.791 244.103 533.692C243.104 534.067 242.13 534.467 241.156 534.841C242.155 535.89 243.054 537.164 243.853 538.863C246.276 544.133 245.202 547.83 244.053 551.727Z" fill="black"/>
<path d="M185.479 604.507C187.178 608.378 189.076 612.774 195.346 615.672C201.59 618.594 206.186 617.221 210.232 616.047C214.129 614.898 217.801 613.823 223.046 616.246C228.292 618.694 229.815 622.191 231.439 625.913C233.137 629.785 235.036 634.181 241.305 637.078C247.55 640.001 252.171 638.652 256.217 637.453C260.114 636.304 263.786 635.23 269.031 637.678C270.555 638.377 271.754 639.201 272.753 640.051C273.327 639.251 273.952 638.477 274.626 637.778C273.452 636.753 272.053 635.829 270.28 635.005C264.035 632.083 259.439 633.456 255.368 634.63C251.471 635.779 247.8 636.853 242.554 634.405C237.309 631.958 235.785 628.461 234.162 624.739C232.463 620.867 230.565 616.471 224.295 613.574C218.051 610.676 213.455 612.025 209.408 613.199C205.512 614.348 201.84 615.422 196.594 612.999C191.349 610.551 189.825 607.054 188.202 603.333C186.503 599.461 184.605 595.065 178.335 592.167C178.061 592.043 177.836 591.968 177.561 591.868C177.087 592.742 176.662 593.616 176.212 594.515C176.512 594.64 176.787 594.715 177.087 594.865C182.332 597.288 183.856 600.785 185.479 604.507Z" fill="black"/>
<path d="M225.794 644.97C222.871 641.898 219.574 638.451 212.705 637.851C205.861 637.252 201.99 640.1 198.593 642.597C195.321 645.02 192.248 647.268 186.503 646.769C180.733 646.269 178.111 643.497 175.313 640.549C172.69 637.802 169.718 634.729 164.148 633.705C164.023 634.679 163.873 635.653 163.773 636.628C168.294 637.502 170.667 639.975 173.165 642.597C176.087 645.645 179.385 649.117 186.254 649.716C193.123 650.316 196.969 647.468 200.366 644.97C203.638 642.547 206.711 640.274 212.456 640.799C218.226 641.298 220.848 644.071 223.671 647.018C224.695 648.093 225.794 649.217 227.068 650.266L232.863 650.266C229.74 649.117 227.792 647.093 225.794 644.97Z" fill="black"/>
<path d="M263.262 545.833C261.389 549.605 259.266 553.901 261.039 560.57C262.813 567.239 266.809 569.887 270.331 572.21C273.703 574.458 276.9 576.581 278.399 582.151C279.898 587.746 278.199 591.168 276.376 594.815C274.502 598.587 272.379 602.883 274.153 609.552C275.951 616.221 279.923 618.869 283.445 621.217C284.768 622.091 286.067 622.965 287.241 624.014L287.241 620.243C286.517 619.718 285.793 619.219 285.093 618.744C281.721 616.496 278.524 614.373 277.025 608.778C275.527 603.183 277.225 599.761 279.048 596.114C280.922 592.342 283.045 588.046 281.272 581.377C279.498 574.708 275.502 572.06 271.98 569.737C268.608 567.489 265.41 565.366 263.912 559.796C262.413 554.226 264.112 550.779 265.935 547.157C267.808 543.385 269.931 539.089 268.158 532.42C267.683 530.596 267.009 529.122 266.26 527.824C265.211 527.998 264.162 528.173 263.112 528.373C264.012 529.647 264.761 531.196 265.311 533.169C266.759 538.764 265.061 542.186 263.262 545.833Z" fill="black"/>
<path d="M177.635 623.016C179.983 626.538 182.631 630.534 189.275 632.308C195.944 634.081 200.216 631.958 204.012 630.085C207.634 628.286 211.081 626.563 216.651 628.061C222.246 629.56 224.344 632.757 226.592 636.129C228.94 639.651 231.588 643.648 238.232 645.421C244.901 647.195 249.198 645.072 252.969 643.198C256.616 641.4 260.038 639.701 265.633 641.2C267.806 641.774 269.43 642.624 270.754 643.623C271.128 642.699 271.603 641.799 272.128 640.975C270.604 639.901 268.756 638.977 266.383 638.352C259.713 636.554 255.417 638.702 251.645 640.576C247.999 642.374 244.577 644.097 238.982 642.599C233.386 641.1 231.263 637.903 229.015 634.531C226.667 631.009 224.02 627.012 217.376 625.239C210.706 623.465 206.435 625.589 202.638 627.462C198.992 629.26 195.57 630.959 189.999 629.485C184.404 627.987 182.306 624.789 180.058 621.417C177.785 617.995 175.187 614.124 168.893 612.275C168.593 613.199 168.318 614.149 168.044 615.098C173.364 616.621 175.462 619.719 177.635 623.016Z" fill="black"/>
<path d="M210.109 572.957C210.384 577.179 210.684 581.949 215.555 586.82C220.425 591.691 225.196 591.991 229.417 592.265C233.464 592.515 237.285 592.765 241.382 596.836C245.478 600.933 245.703 604.754 245.978 608.801C246.253 613.022 246.552 617.793 251.423 622.664C256.294 627.535 261.09 627.834 265.311 628.109C269.357 628.359 273.204 628.609 277.275 632.705C277.925 633.354 278.474 634.004 278.949 634.653C279.848 634.179 280.772 633.779 281.747 633.454C281.097 632.505 280.323 631.556 279.374 630.607C274.503 625.736 269.707 625.411 265.486 625.162C261.439 624.912 257.593 624.662 253.521 620.566C249.425 616.469 249.2 612.648 248.95 608.601C248.675 604.38 248.376 599.609 243.505 594.738C238.634 589.868 233.864 589.568 229.642 589.293C225.596 589.043 221.774 588.793 217.678 584.722C213.581 580.626 213.356 576.804 213.107 572.758C212.832 568.536 212.532 563.765 207.661 558.895C206.887 558.12 206.088 557.471 205.313 556.921C204.564 557.596 203.79 558.245 203.04 558.945C203.865 559.494 204.714 560.144 205.563 560.993C209.61 565.064 209.86 568.911 210.109 572.957Z" fill="black"/>
<path d="M263.236 642.273C256.367 641.648 252.495 644.521 249.098 647.018C247.4 648.267 245.776 649.466 243.778 650.266L249.648 650.266C250.047 649.966 250.447 649.691 250.847 649.391C254.119 646.993 257.191 644.696 262.961 645.22C265.884 645.47 268.007 646.319 269.755 647.468C269.93 646.444 270.18 645.47 270.504 644.521C268.606 643.397 266.308 642.547 263.236 642.273Z" fill="black"/>
<path d="M196.417 587.646C197.417 591.742 198.541 596.413 204.186 600.36C209.831 604.306 214.577 603.782 218.798 603.307C222.819 602.858 226.641 602.433 231.362 605.73C236.108 609.052 237.007 612.774 237.956 616.72C238.955 620.817 240.079 625.488 245.724 629.434C251.369 633.406 256.115 632.856 260.337 632.382C264.358 631.932 268.18 631.507 272.926 634.83C273.95 635.554 274.774 636.278 275.498 637.028C276.248 636.378 277.022 635.754 277.846 635.229C276.972 634.255 275.923 633.306 274.624 632.382C268.979 628.41 264.208 628.96 260.012 629.434C255.965 629.884 252.169 630.308 247.423 626.986C242.677 623.664 241.778 619.943 240.829 615.996C239.829 611.9 238.706 607.229 233.06 603.282C227.415 599.336 222.67 599.835 218.448 600.335C214.427 600.784 210.605 601.209 205.884 597.912C201.138 594.59 200.239 590.868 199.29 586.921C198.291 582.825 197.167 578.154 191.522 574.208C190.947 573.808 190.373 573.458 189.798 573.159C189.174 573.933 188.549 574.707 187.95 575.506C188.549 575.831 189.174 576.181 189.798 576.63C194.544 579.978 195.468 583.699 196.417 587.646Z" fill="black"/>
<path d="M223.72 548.28C227.042 553.001 226.617 556.822 226.143 560.869C225.668 565.065 225.144 569.836 229.09 575.481C233.037 581.126 237.708 582.25 241.804 583.249C245.751 584.198 249.472 585.097 252.794 589.843C256.116 594.589 255.692 598.386 255.217 602.432C254.743 606.629 254.218 611.374 258.165 617.044C262.136 622.69 266.782 623.839 270.879 624.813C274.825 625.762 278.547 626.686 281.869 631.407C282.294 632.006 282.618 632.581 282.918 633.13C283.917 632.881 284.941 632.756 285.99 632.681C285.541 631.707 284.991 630.732 284.267 629.708C280.295 624.063 275.649 622.939 271.553 621.94C267.606 620.991 263.885 620.067 260.563 615.346C257.241 610.6 257.665 606.803 258.14 602.757C258.614 598.561 259.139 593.79 255.192 588.145C251.246 582.5 246.6 581.376 242.478 580.377C238.532 579.427 234.81 578.528 231.488 573.782C228.166 569.061 228.591 565.24 229.065 561.218C229.54 557.022 230.064 552.251 226.118 546.606C225.268 545.407 224.394 544.458 223.52 543.609C222.646 544.133 221.771 544.683 220.922 545.232C221.871 546.007 222.821 546.981 223.72 548.28Z" fill="black"/>
<path d="M282.871 608.004C283.296 612.825 285.119 615.872 287.242 618.27L287.242 613.1C286.518 611.651 286.018 609.903 285.818 607.754C285.519 604.407 286.193 601.985 287.242 599.886L287.242 594.391C284.844 597.663 282.296 601.485 282.871 608.004Z" fill="black"/>
<path d="M340.254 773.507C369.665 773.507 393.508 749.664 393.508 720.253C393.508 690.842 369.665 667 340.254 667C310.843 667 287.001 690.842 287.001 720.253C287.001 749.664 310.843 773.507 340.254 773.507Z" fill="#F6AC1B"/>
<path d="M340.254 667H287.001V720.253C323.444 720.253 340.254 703.443 340.254 667Z" fill="#C31632"/>
<path d="M340.256 773.508H393.509V720.255C357.066 720.255 340.256 737.065 340.256 773.508Z" fill="#C31632"/>
<path d="M287.001 720.255V773.508H340.254C340.254 737.065 323.444 720.255 287.001 720.255Z" fill="#C31632"/>
<path d="M340.256 667C340.256 703.443 357.066 720.253 393.509 720.253V667H340.256Z" fill="#C31632"/>
<path d="M457.344 506.017L449.887 506.017C449.887 536.874 424.858 561.903 394.001 561.903L394.001 569.36C428.937 569.36 457.344 540.953 457.344 506.017Z" fill="#6BC9C6"/>
<path d="M423.161 506.017L415.704 506.017C415.704 517.989 405.973 527.721 394.001 527.721L394.001 535.177C410.086 535.159 423.161 522.102 423.161 506.017Z" fill="#6BC9C6"/>
<path d="M434.555 506.017L427.099 506.017C427.099 524.272 412.274 539.115 394.001 539.115L394.001 546.571C416.369 546.554 434.555 528.386 434.555 506.017Z" fill="#6BC9C6"/>
<path d="M445.949 506.017L438.493 506.017C438.493 530.573 418.557 550.509 394.001 550.509L394.001 557.965C422.653 557.965 445.949 534.669 445.949 506.017Z" fill="#6BC9C6"/>
<path d="M468.738 506.017L461.282 506.017C461.282 543.158 431.142 573.298 394.001 573.298L394.001 580.754C435.22 580.754 468.738 547.236 468.738 506.017Z" fill="#6BC9C6"/>
<path d="M502.938 506.017L495.482 506.017C495.482 562.061 450.044 607.481 394.018 607.481L394.018 614.937C454.07 614.937 502.938 566.069 502.938 506.017Z" fill="#6BC9C6"/>
<path d="M514.333 506.017L506.877 506.017C506.877 568.345 456.346 618.893 394.001 618.893L394.001 626.349C460.354 626.331 514.333 572.353 514.333 506.017Z" fill="#6BC9C6"/>
<path d="M480.132 506.017L472.676 506.017C472.676 549.459 437.443 584.692 394.001 584.692L394.001 592.148C441.504 592.148 480.132 553.52 480.132 506.017Z" fill="#6BC9C6"/>
<path d="M491.527 506.017L484.07 506.017C484.07 555.76 443.744 596.087 394.001 596.087L394.001 603.543C447.787 603.543 491.527 559.803 491.527 506.017Z" fill="#6BC9C6"/>
<path d="M394.001 626.331L394.001 630.27C398.289 630.27 402.525 630.059 406.708 629.622C412.974 628.992 419.1 627.889 425.051 626.349C431.002 624.809 436.795 622.848 442.361 620.503C447.945 618.14 453.3 615.392 458.429 612.277C461.842 610.194 465.15 607.971 468.335 605.573C498.633 582.907 518.253 546.746 518.253 506L514.315 506C514.333 572.353 460.354 626.331 394.001 626.331Z" fill="black"/>
<path d="M394.001 614.937L394.001 618.875C456.328 618.875 506.877 568.345 506.877 506L502.938 506C502.938 566.069 454.071 614.937 394.001 614.937Z" fill="black"/>
<path d="M394.001 603.543L394.001 607.481C450.045 607.481 495.465 562.043 495.465 506.017L491.527 506.017C491.527 559.803 447.787 603.543 394.001 603.543Z" fill="black"/>
<path d="M394.001 592.148L394.001 596.086C443.744 596.086 484.07 555.76 484.07 506.017L480.132 506.017C480.132 553.52 441.504 592.148 394.001 592.148Z" fill="black"/>
<path d="M394.001 580.754L394.001 584.692C437.443 584.692 472.676 549.459 472.676 506.017L468.738 506.017C468.738 547.236 435.22 580.754 394.001 580.754Z" fill="black"/>
<path d="M394.001 569.36L394.001 573.298C431.142 573.298 461.282 543.158 461.282 506.017L457.344 506.017C457.344 540.953 428.937 569.36 394.001 569.36Z" fill="black"/>
<path d="M394.001 557.965L394.001 561.903C424.858 561.903 449.887 536.874 449.887 506.017L445.949 506.017C445.949 534.669 422.653 557.965 394.001 557.965Z" fill="black"/>
<path d="M394.001 546.554L394.001 550.492C418.557 550.492 438.493 530.556 438.493 506L434.555 506C434.555 528.386 416.369 546.554 394.001 546.554Z" fill="black"/>
<path d="M394.001 535.159L394.001 539.097C412.256 539.097 427.099 524.273 427.099 506L423.161 506C423.161 522.102 410.086 535.159 394.001 535.159Z" fill="black"/>
<path d="M394.001 523.765L394.001 527.703C405.973 527.703 415.704 517.972 415.704 506L411.766 506C411.766 515.819 403.82 523.765 394.001 523.765Z" fill="black"/>
<path d="M428.637 1281.85C431.584 1286.77 434.881 1291.46 438.478 1295.91L513.912 1232.61L428.637 1281.85Z" fill="black"/>
<path d="M419.418 1262.96C421.491 1268.31 423.914 1273.48 426.686 1278.45L511.637 1229.39L419.418 1262.96Z" fill="black"/>
<path d="M440.999 1298.96C444.746 1303.33 448.792 1307.42 453.114 1311.22L516.708 1235.44L440.999 1298.96Z" fill="black"/>
<path d="M411.101 1221.97C411.276 1227.74 411.85 1233.39 412.775 1238.93L508.94 1221.97L411.101 1221.97Z" fill="black"/>
<path d="M413.474 1242.81C414.623 1248.45 416.147 1253.92 418.02 1259.24L509.94 1225.77L413.474 1242.81Z" fill="black"/>
<path d="M456.112 1313.79C460.558 1317.46 465.279 1320.83 470.2 1323.88L519.956 1237.68L456.112 1313.79Z" fill="black"/>
<path d="M513.735 1340.39C519.455 1341.39 525.325 1341.99 531.295 1342.19L531.295 1240.76L513.735 1340.39Z" fill="black"/>
<path d="M473.595 1325.88C478.615 1328.75 483.861 1331.3 489.306 1333.45L523.551 1239.36L473.595 1325.88Z" fill="black"/>
<path d="M492.98 1334.9C498.45 1336.87 504.07 1338.47 509.865 1339.69L527.375 1240.41L492.98 1334.9Z" fill="black"/>
<path d="M411.1 1221.97L508.94 1221.97L412.774 1238.93C412.999 1240.23 413.198 1241.53 413.473 1242.8L509.964 1225.79L418.044 1259.26C418.494 1260.51 418.943 1261.74 419.418 1262.96L511.637 1229.39L426.687 1278.45C427.336 1279.6 427.985 1280.75 428.66 1281.87L513.935 1232.64L438.501 1295.93C439.326 1296.96 440.175 1297.96 441.024 1298.95L516.733 1235.44L453.138 1311.22C454.113 1312.09 455.112 1312.97 456.111 1313.79L519.98 1237.68L470.224 1323.88C471.348 1324.58 472.472 1325.23 473.621 1325.88L523.577 1239.36L489.332 1333.45C490.556 1333.92 491.78 1334.42 493.004 1334.87L527.398 1240.38L509.889 1339.67C511.163 1339.94 512.462 1340.14 513.76 1340.37L531.32 1240.73L531.32 1342.17C532.644 1342.22 533.943 1342.27 535.267 1342.27L535.267 1235.76C525.475 1235.76 517.507 1227.82 517.507 1218L411 1218C411 1219.35 411.05 1220.65 411.1 1221.97Z" fill="white"/>
<path d="M411.001 791V897.507H517.508V791H411.001ZM501.921 881.87H479.891L464.254 897.507L448.618 881.87H426.687V859.94L411.051 844.303L426.687 828.667V806.636H448.718L464.254 791.1L479.791 806.636H501.921V828.767L517.458 844.303L501.921 859.84V881.87Z" fill="#C31632"/>
<path d="M501.92 828.767V806.636H479.789L464.253 791.1L448.717 806.636H426.686V828.667L411.05 844.303L426.686 859.94V881.87H448.617L464.253 897.507L479.889 881.87H501.92V859.84L517.457 844.303L501.92 828.767ZM432.706 844.303L441.998 835.011V821.923H455.086L464.303 812.706L473.52 821.923H486.658V835.061L495.875 844.278L486.658 853.495V866.584H473.57L464.278 875.876L454.986 866.584H441.948V853.545L432.706 844.303Z" fill="#F6AC1B"/>
<path d="M455.04 866.612L464.307 875.904L473.599 866.612H486.688V853.523L495.905 844.306L486.688 835.089V821.926H473.549L464.307 812.709L455.09 821.926H442.002V835.014L432.71 844.306L442.002 853.598V866.612H455.04Z" fill="white"/>
<path d="M464.255 898H411.001V951.255H464.255V898ZM446.496 933.495H428.736V915.735H446.496V933.495Z" fill="#6BC9C6"/>
<path d="M464.257 1004.51H517.512V951.256H464.257V1004.51ZM481.992 969.015H499.752V986.775H481.992V969.015Z" fill="#6BC9C6"/>
<path d="M464.257 898V951.255H517.512V898H464.257ZM499.752 933.495H481.992V915.735H499.752V933.495Z" fill="black"/>
<path d="M446.494 915.76H428.734V933.52H446.494V915.76Z" fill="black"/>
<path d="M499.751 969.015H481.991V986.775H499.751V969.015Z" fill="black"/>
<path d="M411.001 951.256V1004.51H464.255V951.256H411.001ZM446.496 986.75H428.736V968.99H446.496V986.75Z" fill="black"/>
<path d="M499.751 915.76H481.991V933.52H499.751V915.76Z" fill="#6BC9C6"/>
<path d="M446.494 969.015H428.734V986.775H446.494V969.015Z" fill="#6BC9C6"/>
<path d="M457.834 1070.24L436.528 1055.33C431.432 1063 427.485 1071.49 424.813 1080.61L449.142 1088.05C451.24 1081.68 454.162 1075.69 457.834 1070.24Z" fill="white"/>
<path d="M473.498 1053.63L457.787 1032.77C450.269 1038.44 443.674 1045.21 438.229 1052.91L459.61 1067.89C463.582 1062.52 468.253 1057.73 473.498 1053.63Z" fill="white"/>
<path d="M493.628 1042.67L485.335 1018.59C476.243 1021.49 467.775 1025.71 460.182 1031.05L475.868 1051.88C481.289 1048.01 487.258 1044.92 493.628 1042.67Z" fill="white"/>
<path d="M517.508 1004H411.001V1110.51C411.001 1051.68 458.684 1004 517.508 1004Z" fill="white"/>
<path d="M424.04 1083.46C422.067 1091.13 420.993 1099.19 420.993 1107.54H445.671C445.896 1101.79 446.795 1096.2 448.319 1090.88L424.04 1083.46Z" fill="white"/>
<path d="M447.643 1107.53H482.163C482.338 1105.49 482.688 1103.46 483.212 1101.54L450.216 1091.45C448.717 1096.59 447.868 1101.99 447.643 1107.53Z" fill="white"/>
<path d="M496.401 1041.67C502.171 1039.89 508.266 1038.92 514.536 1038.65V1014.07C505.344 1014.07 496.501 1015.37 488.159 1017.71L496.401 1041.67Z" fill="white"/>
<path d="M477.068 1053.43L497.8 1080.96C500.173 1079.38 502.745 1078.11 505.493 1077.11L494.278 1044.51C488.083 1046.71 482.313 1049.71 477.068 1053.43Z" fill="white"/>
<path d="M508.317 1076.24C510.34 1075.69 512.413 1075.31 514.536 1075.14V1040.62C508.492 1040.87 502.622 1041.82 497.052 1043.54L508.317 1076.24Z" fill="white"/>
<path d="M451.042 1088.63L484.063 1098.72C485.012 1096.05 486.236 1093.52 487.759 1091.2L459.484 1071.39C455.887 1076.66 453.065 1082.46 451.042 1088.63Z" fill="white"/>
<path d="M461.232 1069.02L489.458 1088.77C491.206 1086.53 493.204 1084.5 495.427 1082.73L474.696 1055.23C469.6 1059.18 465.079 1063.82 461.232 1069.02Z" fill="white"/>
<path d="M411.001 1110.51H517.508V1004C458.684 1004 411.001 1051.68 411.001 1110.51ZM485.336 1018.59L493.629 1042.67C487.259 1044.91 481.289 1048.01 475.869 1051.86L460.183 1031.03C467.776 1025.71 476.219 1021.48 485.336 1018.59ZM457.785 1032.77L473.496 1053.63C468.226 1057.7 463.555 1062.5 459.608 1067.87L438.227 1052.88C443.672 1045.21 450.267 1038.44 457.785 1032.77ZM436.529 1055.33L457.835 1070.24C454.163 1075.69 451.241 1081.68 449.142 1088.03L424.814 1080.58C427.486 1071.49 431.433 1063 436.529 1055.33ZM420.992 1107.53C420.992 1099.17 422.066 1091.1 424.039 1083.46L448.318 1090.87C446.795 1096.22 445.92 1101.79 445.671 1107.53H420.992ZM482.139 1107.53H447.644C447.869 1101.99 448.743 1096.59 450.192 1091.45L483.188 1101.54C482.688 1103.49 482.313 1105.49 482.139 1107.53ZM484.037 1098.72L451.016 1088.63C453.039 1082.46 455.862 1076.66 459.433 1071.39L487.709 1091.2C486.21 1093.52 484.986 1096.04 484.037 1098.72ZM489.457 1088.78L461.232 1069.02C465.079 1063.82 469.6 1059.18 474.695 1055.23L495.427 1082.73C493.204 1084.5 491.206 1086.53 489.457 1088.78ZM497.8 1080.96L477.068 1053.43C482.313 1049.71 488.083 1046.71 494.278 1044.51L505.493 1077.11C502.771 1078.11 500.173 1079.38 497.8 1080.96ZM514.535 1075.14C512.387 1075.31 510.314 1075.69 508.316 1076.24L497.051 1043.54C502.621 1041.84 508.49 1040.89 514.535 1040.62V1075.14ZM514.535 1038.67C508.266 1038.92 502.171 1039.92 496.401 1041.69L488.158 1017.74C496.501 1015.37 505.343 1014.09 514.535 1014.09V1038.67Z" fill="#6BC9C6"/>
<path d="M464.254 1164.25C434.855 1164.25 411.001 1140.4 411.001 1111V1164.25C440.4 1164.25 464.254 1188.11 464.254 1217.51C464.254 1188.11 488.108 1164.25 517.508 1164.25V1111C517.508 1140.42 493.653 1164.25 464.254 1164.25Z" fill="#C31632"/>
<path d="M411.001 1164.25V1217.51H464.254C434.83 1217.51 411.001 1193.68 411.001 1164.25Z" fill="#C31632"/>
<path d="M464.255 1217.51H517.509V1164.25C517.509 1193.68 493.655 1217.51 464.255 1217.51Z" fill="#C31632"/>
<path d="M464.254 1164.25C464.254 1134.85 488.108 1111 517.508 1111H411.001C440.4 1111 464.254 1134.85 464.254 1164.25Z" fill="#C31632"/>
<path d="M464.254 1164.25C464.254 1134.85 440.4 1111 411.001 1111C411.001 1140.42 434.83 1164.25 464.254 1164.25Z" fill="#F6AC1B"/>
<path d="M464.255 1164.25C493.655 1164.25 517.509 1140.4 517.509 1111C488.084 1111 464.255 1134.85 464.255 1164.25Z" fill="#F6AC1B"/>
<path d="M411.001 1164.25C411.001 1193.65 434.855 1217.51 464.254 1217.51C464.254 1188.11 440.4 1164.25 411.001 1164.25Z" fill="#F6AC1B"/>
<path d="M464.255 1217.51C493.655 1217.51 517.509 1193.65 517.509 1164.25C488.084 1164.25 464.255 1188.11 464.255 1217.51Z" fill="#F6AC1B"/>
</svg>
