<svg width="23" height="23" viewBox="0 0 23 23" fill="none" xmlns="http://www.w3.org/2000/svg">
<path fill-rule="evenodd" clip-rule="evenodd" d="M11.5 23C17.8513 23 23 17.8513 23 11.5C23 5.14873 17.8513 0 11.5 0C5.14873 0 0 5.14873 0 11.5C0 17.8513 5.14873 23 11.5 23ZM12.6499 8.06328H10.3499V17.8889H12.6499V8.06328ZM10.4603 6.05768C10.7424 6.31528 11.092 6.44408 11.5091 6.44408C11.9384 6.44408 12.288 6.30915 12.5579 6.03928C12.84 5.75715 12.9811 5.41368 12.9811 5.00888C12.9811 4.62862 12.84 4.31582 12.5579 4.07048C12.2758 3.81288 11.9262 3.68408 11.5091 3.68408C11.092 3.68408 10.7424 3.81902 10.4603 4.08888C10.1782 4.34648 10.0371 4.67155 10.0371 5.06408C10.0371 5.45662 10.1782 5.78782 10.4603 6.05768Z" fill="currentColor"/>
</svg>
