<svg width="241" height="77" viewBox="0 0 241 77" fill="none" xmlns="http://www.w3.org/2000/svg">
<path d="M125.595 23.1076C123.775 23.1076 122.204 22.7225 120.894 21.9427C119.584 21.163 118.544 20.1233 117.763 18.8141C116.983 17.5048 116.598 16.0512 116.598 14.4628V13.9044C116.184 14.0488 115.105 14.1162 113.361 14.1162L112.417 14.1066V23.1076H110.481V5.82764H112.417V12.1716H114.652C115.817 12.1716 116.877 11.9021 117.84 11.363C118.804 10.8239 119.594 10.1115 120.21 9.20661C120.827 8.31133 121.212 7.185 121.366 5.82764H123.303C123.148 7.49306 122.715 8.88893 121.992 10.0345C121.27 11.1705 120.335 12.1043 119.189 12.8166C118.919 12.9803 118.698 13.1054 118.534 13.1824V14.4628C118.534 15.695 118.833 16.8213 119.44 17.8418C120.037 18.8622 120.856 19.6708 121.867 20.2677C122.888 20.8742 124.131 21.1726 125.595 21.1726V23.1076Z" fill="black"/>
<path d="M140.525 23.1076H138.589V9.35101L129.052 23.1076H127.279V5.82764H129.215V19.4879L138.752 5.82764H140.525V23.1076Z" fill="black"/>
<path d="M150.767 23.1076H148.821V7.76261H143.05V5.82764H156.537V7.76261H150.767V23.1076Z" fill="black"/>
<path d="M174.032 23.1076H171.942L170.458 19.565H161.365L159.881 23.1076H157.781L164.996 5.82764H166.817L174.032 23.1076ZM169.649 17.63L165.912 8.68677L162.174 17.63H169.649Z" fill="black"/>
<path d="M189.6 23.1073H187.664V9.35071L178.127 23.1073H176.354V5.82733H178.29V19.4876L187.827 5.82733H189.6V23.1073ZM182.982 4.23893C182.038 4.23893 181.219 3.92125 180.535 3.30514C179.851 2.6794 179.437 1.76486 179.292 0.561523H181.229C181.344 1.17763 181.556 1.62046 181.864 1.89001C182.173 2.15956 182.548 2.30396 182.982 2.30396C183.415 2.30396 183.781 2.16918 184.099 1.89001C184.417 1.61083 184.629 1.16801 184.735 0.561523H186.671C186.527 1.76486 186.113 2.6794 185.429 3.30514C184.745 3.93087 183.926 4.23893 182.982 4.23893Z" fill="black"/>
<path d="M119.035 49.5998H110.481V32.3198H121.366V34.2548H112.417V38.6638H119.035C120.393 38.6638 121.588 39.1067 122.609 39.9923C123.197 40.4929 123.659 41.0994 124.006 41.8214C124.343 42.5338 124.516 43.3135 124.516 44.1414C124.516 44.9693 124.343 45.7395 124.006 46.4518C123.669 47.1642 123.206 47.7803 122.609 48.2809C121.588 49.1569 120.393 49.5998 119.035 49.5998ZM119.035 47.6648C120.018 47.6648 120.846 47.3182 121.54 46.6251C122.224 45.932 122.57 45.1041 122.57 44.1318C122.57 43.1499 122.224 42.322 121.54 41.6289C120.846 40.9357 120.018 40.5988 119.035 40.5988H112.417V47.6648H119.035Z" fill="black"/>
<path d="M140.469 49.5998H138.533V35.8432L128.996 49.5998H127.223V32.3198H129.159V45.9801L138.696 32.3198H140.469V49.5998Z" fill="black"/>
<path d="M149.11 49.5998C148.715 49.5998 148.33 49.5709 147.954 49.5035C147.135 49.3495 146.365 49.1377 145.652 48.8585C144.939 48.5793 144.255 48.0595 143.59 47.3086L144.987 45.9224C145.469 46.5096 145.97 46.9043 146.471 47.1065C146.971 47.3086 147.511 47.4627 148.07 47.5685C148.416 47.6263 148.763 47.6552 149.11 47.6552C149.467 47.6552 149.823 47.6263 150.17 47.5685C150.863 47.4145 151.48 47.1835 152.029 46.8754C152.578 46.5674 153.002 46.1727 153.31 45.7106C153.619 45.2485 153.773 44.6902 153.773 44.0355C153.773 43.0921 153.445 42.2835 152.8 41.6096C152.154 40.9357 151.345 40.5699 150.382 40.5122H147.636V38.5772H149.91V38.5676C150.748 38.5676 151.384 38.3558 151.807 37.9322C152.241 37.5086 152.453 36.9888 152.453 36.3727C152.453 35.7662 152.251 35.2752 151.836 34.8902C151.422 34.5051 150.883 34.2644 150.208 34.1585C149.91 34.1297 149.592 34.1104 149.274 34.1104C148.956 34.1104 148.628 34.1297 148.291 34.1682C147.627 34.2259 147 34.5243 146.413 35.0731L145.054 33.7157C145.594 33.167 146.114 32.7915 146.625 32.6086C147.126 32.4161 147.655 32.291 148.224 32.2428C148.571 32.2043 148.908 32.1851 149.255 32.1851C149.601 32.1851 149.939 32.2043 150.295 32.2428C151.056 32.3295 151.75 32.5509 152.357 32.9071C152.963 33.2633 153.455 33.7446 153.83 34.3318C154.206 34.919 154.389 35.6025 154.389 36.3727C154.389 37.0658 154.235 37.7012 153.927 38.2788C153.619 38.8564 153.358 39.2222 153.146 39.3666C153.734 39.665 154.312 40.2426 154.88 41.109C155.449 41.9754 155.728 42.9573 155.728 44.0355C155.728 45.0463 155.478 45.932 154.977 46.7021C154.476 47.4626 153.811 48.0788 153.002 48.5505C152.183 49.0222 151.287 49.3399 150.324 49.5035C149.89 49.5709 149.495 49.5998 149.11 49.5998Z" fill="black"/>
<path d="M172.529 49.5998H170.593V40.5988H160.353V49.5998H158.416V32.3198H160.353V38.6638H170.593V32.3198H172.529V49.5998Z" fill="black"/>
<path d="M186.4 49.5998H175.514V32.3198H186.4V34.2548H177.451V38.6638H186.4V40.5988H177.451V47.6648H186.4V49.5998Z" fill="black"/>
<path d="M197.5 49.5996C195.911 49.5996 194.456 49.2146 193.156 48.4348C191.846 47.655 190.805 46.6153 190.035 45.3061C189.254 43.9969 188.869 42.5529 188.869 40.9645C188.869 39.3761 189.254 37.9224 190.035 36.6132C190.815 35.304 191.855 34.2643 193.156 33.4845C194.466 32.7048 195.911 32.3101 197.5 32.3101C198.676 32.3101 199.793 32.5315 200.824 32.9743C201.855 33.4171 202.857 34.1103 203.801 35.044L202.442 36.4014C201.672 35.6409 200.882 35.0922 200.073 34.7552C199.273 34.4087 198.406 34.245 197.491 34.245C196.258 34.245 195.131 34.5435 194.119 35.1499C193.108 35.7564 192.298 36.5651 191.692 37.5759C191.094 38.5867 190.786 39.713 190.786 40.9548C190.786 42.1871 191.085 43.3134 191.692 44.3242C192.289 45.335 193.098 46.1436 194.119 46.7501C195.131 47.3566 196.258 47.655 197.491 47.655C198.406 47.655 199.263 47.4914 200.063 47.1448C200.863 46.8079 201.652 46.2592 202.433 45.4987L203.791 46.856C202.847 47.7994 201.855 48.4829 200.814 48.9258C199.784 49.3782 198.685 49.5996 197.5 49.5996Z" fill="black"/>
<path d="M125.595 76.0929C123.775 76.0929 122.204 75.7079 120.894 74.9281C119.584 74.1483 118.544 73.1087 117.763 71.7994C116.983 70.4902 116.598 69.0366 116.598 67.4482V66.8898C116.184 67.0342 115.105 67.1016 113.361 67.1016L112.417 67.092V76.0929H110.481V58.813H112.417V65.157H114.652C115.817 65.157 116.877 64.8874 117.84 64.3483C118.804 63.8093 119.594 63.0969 120.21 62.192C120.827 61.2967 121.212 60.1704 121.366 58.813H123.303C123.148 60.4784 122.715 61.8743 121.992 63.0199C121.27 64.1558 120.335 65.0896 119.189 65.802C118.919 65.9656 118.698 66.0908 118.534 66.1678V67.4482C118.534 68.6804 118.833 69.8067 119.44 70.8271C120.037 71.8476 120.856 72.6562 121.867 73.2531C122.888 73.8595 124.131 74.158 125.595 74.158V76.0929Z" fill="black"/>
<path d="M138.618 67.9005C138.319 68.2374 137.732 68.6128 136.865 69.0364C135.911 69.5177 134.928 69.7488 133.927 69.7488C132.886 69.7488 131.904 69.5081 130.959 69.0364C130.015 68.5647 129.235 67.9101 128.609 67.0726C127.732 65.9174 127.299 64.5985 127.299 63.1064V58.8032H129.235V63.116C129.235 63.9824 129.447 64.7718 129.871 65.4842C130.295 66.1965 130.863 66.7549 131.576 67.1785C132.289 67.602 133.079 67.8138 133.936 67.8138C134.784 67.8138 135.564 67.602 136.277 67.1785C136.99 66.7549 137.549 66.1965 137.982 65.5034C138.406 64.8103 138.628 64.0305 138.647 63.1737V58.8032H140.593V67.448C140.593 68.9305 140.227 70.3264 139.485 71.6356C138.743 72.9449 137.934 73.8786 137.048 74.437L137.057 74.4466C136.017 75.0916 135.121 75.5248 134.35 75.7559C133.58 75.9869 132.78 76.0928 131.952 76.0928H129.139V74.1482H131.932C133.166 74.1482 134.293 73.8498 135.304 73.2433C136.316 72.6368 137.134 71.8282 137.732 70.8174C138.252 69.9317 138.551 68.9594 138.618 67.9005Z" fill="black"/>
<path d="M143.6 76.0928V74.1578C144.371 74.1578 144.862 73.9075 145.074 73.4166C145.161 73.1567 145.209 72.3288 145.209 70.9521L145.199 70.259L145.19 70.1146L145.17 68.4299C145.17 67.9486 145.19 67.3903 145.218 66.7741C145.247 66.158 145.382 65.4842 145.604 64.7622C146.268 62.7502 147.502 61.1714 149.284 60.0258C150.642 59.169 152.164 58.7358 153.85 58.7358H157.27V76.0158H155.334V60.6804H153.802C152.559 60.7093 151.442 61.0174 150.44 61.6142C149.438 62.2111 148.638 63.0101 148.041 64.0209C147.444 65.0317 147.135 66.1484 147.135 67.371V72.9352C147.135 73.792 146.827 74.5333 146.201 75.159C145.575 75.7847 144.698 76.0928 143.6 76.0928Z" fill="black"/>
<path d="M168.976 76.0929H160.422V58.813H162.358V65.157H168.976C170.344 65.1859 171.529 65.6383 172.521 66.5047C173.109 67.0246 173.581 67.6311 173.928 68.3434C174.274 69.0558 174.448 69.8163 174.448 70.625C174.448 71.4529 174.274 72.223 173.937 72.9354C173.6 73.6477 173.138 74.2639 172.54 74.7644C171.529 75.6501 170.344 76.0929 168.976 76.0929ZM168.976 74.158C169.959 74.158 170.787 73.8114 171.481 73.1183C172.165 72.4252 172.511 71.5973 172.511 70.625C172.511 69.643 172.165 68.8151 171.481 68.122C170.787 67.4289 169.959 67.092 168.976 67.092H162.358V74.158H168.976Z" fill="black"/>
<path d="M184.406 76.0929H182.46V60.748H176.69V58.813H190.177V60.748H184.406V76.0929Z" fill="black"/>
<path d="M203.942 67.9005C203.643 68.2374 203.055 68.6128 202.188 69.0364C201.235 69.5177 200.252 69.7488 199.25 69.7488C198.21 69.7488 197.227 69.5081 196.283 69.0364C195.339 68.5647 194.559 67.9101 193.933 67.0726C193.056 65.9174 192.622 64.5985 192.622 63.1064V58.8032H194.559V63.116C194.559 63.9824 194.771 64.7718 195.195 65.4842C195.618 66.1965 196.187 66.7549 196.9 67.1785C197.613 67.602 198.402 67.8138 199.26 67.8138C200.108 67.8138 200.888 67.602 201.601 67.1785C202.314 66.7549 202.872 66.1965 203.306 65.5034C203.73 64.8103 203.951 64.0305 203.971 63.1737V58.8032H205.917V67.448C205.917 68.9305 205.55 70.3264 204.809 71.6356C204.067 72.9449 203.258 73.8786 202.371 74.437L202.381 74.4466C201.341 75.0916 200.445 75.5248 199.674 75.7559C198.903 75.9869 198.104 76.0928 197.275 76.0928H194.462V74.1482H197.256C198.489 74.1482 199.616 73.8498 200.628 73.2433C201.639 72.6368 202.458 71.8282 203.055 70.8174C203.585 69.9317 203.874 68.9594 203.942 67.9005Z" fill="black"/>
<path d="M210.86 76.0929H208.924V58.813H217.478C218.836 58.813 220.031 59.2558 221.052 60.1415C221.64 60.6421 222.102 61.2485 222.449 61.9609C222.786 62.6733 222.96 63.4434 222.96 64.2713C222.96 65.2629 222.709 66.1774 222.218 67.0053C221.717 67.8332 221.062 68.4975 220.243 68.9884C219.424 69.4794 218.509 69.7297 217.497 69.7393L210.879 69.7489V76.0929H210.86ZM217.478 67.8043C218.461 67.8043 219.289 67.4578 219.983 66.7743C220.667 66.0908 221.014 65.2533 221.014 64.2713C221.014 63.299 220.667 62.4711 219.983 61.778C219.289 61.0945 218.461 60.748 217.478 60.748H210.86V67.8043H217.478Z" fill="black"/>
<path d="M240.446 76.0929H238.356L236.872 72.5503H227.778L226.295 76.0929H224.194L231.41 58.813H233.231L240.446 76.0929ZM236.063 70.6153L232.325 61.6721L228.587 70.6153H236.063Z" fill="black"/>
<path d="M125.595 23.1076C123.775 23.1076 122.204 22.7225 120.894 21.9427C119.584 21.163 118.544 20.1233 117.763 18.8141C116.983 17.5048 116.598 16.0512 116.598 14.4628V13.9044C116.184 14.0488 115.105 14.1162 113.361 14.1162L112.417 14.1066V23.1076H110.481V5.82764H112.417V12.1716H114.652C115.817 12.1716 116.877 11.9021 117.84 11.363C118.804 10.8239 119.594 10.1115 120.21 9.20661C120.827 8.31133 121.212 7.185 121.366 5.82764H123.303C123.148 7.49306 122.715 8.88893 121.992 10.0345C121.27 11.1705 120.335 12.1043 119.189 12.8166C118.919 12.9803 118.698 13.1054 118.534 13.1824V14.4628C118.534 15.695 118.833 16.8213 119.44 17.8418C120.037 18.8622 120.856 19.6708 121.867 20.2677C122.888 20.8742 124.131 21.1726 125.595 21.1726V23.1076Z" fill="black"/>
<path d="M140.525 23.1076H138.589V9.35101L129.052 23.1076H127.279V5.82764H129.215V19.4879L138.752 5.82764H140.525V23.1076Z" fill="black"/>
<path d="M150.767 23.1076H148.821V7.76261H143.05V5.82764H156.537V7.76261H150.767V23.1076Z" fill="black"/>
<path d="M174.032 23.1076H171.942L170.458 19.565H161.365L159.881 23.1076H157.781L164.996 5.82764H166.817L174.032 23.1076ZM169.649 17.63L165.912 8.68677L162.174 17.63H169.649Z" fill="black"/>
<path d="M189.6 23.1073H187.664V9.35071L178.127 23.1073H176.354V5.82733H178.29V19.4876L187.827 5.82733H189.6V23.1073ZM182.982 4.23893C182.038 4.23893 181.219 3.92125 180.535 3.30514C179.851 2.6794 179.437 1.76486 179.292 0.561523H181.229C181.344 1.17763 181.556 1.62046 181.864 1.89001C182.173 2.15956 182.548 2.30396 182.982 2.30396C183.415 2.30396 183.781 2.16918 184.099 1.89001C184.417 1.61083 184.629 1.16801 184.735 0.561523H186.671C186.527 1.76486 186.113 2.6794 185.429 3.30514C184.745 3.93087 183.926 4.23893 182.982 4.23893Z" fill="black"/>
<path d="M119.035 49.5998H110.481V32.3198H121.366V34.2548H112.417V38.6638H119.035C120.393 38.6638 121.588 39.1067 122.609 39.9923C123.197 40.4929 123.659 41.0994 124.006 41.8214C124.343 42.5338 124.516 43.3135 124.516 44.1414C124.516 44.9693 124.343 45.7395 124.006 46.4518C123.669 47.1642 123.206 47.7803 122.609 48.2809C121.588 49.1569 120.393 49.5998 119.035 49.5998ZM119.035 47.6648C120.018 47.6648 120.846 47.3182 121.54 46.6251C122.224 45.932 122.57 45.1041 122.57 44.1318C122.57 43.1499 122.224 42.322 121.54 41.6289C120.846 40.9357 120.018 40.5988 119.035 40.5988H112.417V47.6648H119.035Z" fill="black"/>
<path d="M140.469 49.5998H138.533V35.8432L128.996 49.5998H127.223V32.3198H129.159V45.9801L138.696 32.3198H140.469V49.5998Z" fill="black"/>
<path d="M149.11 49.5998C148.715 49.5998 148.33 49.5709 147.954 49.5035C147.135 49.3495 146.365 49.1377 145.652 48.8585C144.939 48.5793 144.255 48.0595 143.59 47.3086L144.987 45.9224C145.469 46.5096 145.97 46.9043 146.471 47.1065C146.971 47.3086 147.511 47.4627 148.07 47.5685C148.416 47.6263 148.763 47.6552 149.11 47.6552C149.467 47.6552 149.823 47.6263 150.17 47.5685C150.863 47.4145 151.48 47.1835 152.029 46.8754C152.578 46.5674 153.002 46.1727 153.31 45.7106C153.619 45.2485 153.773 44.6902 153.773 44.0355C153.773 43.0921 153.445 42.2835 152.8 41.6096C152.154 40.9357 151.345 40.5699 150.382 40.5122H147.636V38.5772H149.91V38.5676C150.748 38.5676 151.384 38.3558 151.807 37.9322C152.241 37.5086 152.453 36.9888 152.453 36.3727C152.453 35.7662 152.251 35.2752 151.836 34.8902C151.422 34.5051 150.883 34.2644 150.208 34.1585C149.91 34.1297 149.592 34.1104 149.274 34.1104C148.956 34.1104 148.628 34.1297 148.291 34.1682C147.627 34.2259 147 34.5243 146.413 35.0731L145.054 33.7157C145.594 33.167 146.114 32.7915 146.625 32.6086C147.126 32.4161 147.655 32.291 148.224 32.2428C148.571 32.2043 148.908 32.1851 149.255 32.1851C149.601 32.1851 149.939 32.2043 150.295 32.2428C151.056 32.3295 151.75 32.5509 152.357 32.9071C152.963 33.2633 153.455 33.7446 153.83 34.3318C154.206 34.919 154.389 35.6025 154.389 36.3727C154.389 37.0658 154.235 37.7012 153.927 38.2788C153.619 38.8564 153.358 39.2222 153.146 39.3666C153.734 39.665 154.312 40.2426 154.88 41.109C155.449 41.9754 155.728 42.9573 155.728 44.0355C155.728 45.0463 155.478 45.932 154.977 46.7021C154.476 47.4626 153.811 48.0788 153.002 48.5505C152.183 49.0222 151.287 49.3399 150.324 49.5035C149.89 49.5709 149.495 49.5998 149.11 49.5998Z" fill="black"/>
<path d="M172.529 49.5998H170.593V40.5988H160.353V49.5998H158.416V32.3198H160.353V38.6638H170.593V32.3198H172.529V49.5998Z" fill="black"/>
<path d="M186.4 49.5998H175.514V32.3198H186.4V34.2548H177.451V38.6638H186.4V40.5988H177.451V47.6648H186.4V49.5998Z" fill="black"/>
<path d="M197.5 49.5996C195.911 49.5996 194.456 49.2146 193.156 48.4348C191.846 47.655 190.805 46.6153 190.035 45.3061C189.254 43.9969 188.869 42.5529 188.869 40.9645C188.869 39.3761 189.254 37.9224 190.035 36.6132C190.815 35.304 191.855 34.2643 193.156 33.4845C194.466 32.7048 195.911 32.3101 197.5 32.3101C198.676 32.3101 199.793 32.5315 200.824 32.9743C201.855 33.4171 202.857 34.1103 203.801 35.044L202.442 36.4014C201.672 35.6409 200.882 35.0922 200.073 34.7552C199.273 34.4087 198.406 34.245 197.491 34.245C196.258 34.245 195.131 34.5435 194.119 35.1499C193.108 35.7564 192.298 36.5651 191.692 37.5759C191.094 38.5867 190.786 39.713 190.786 40.9548C190.786 42.1871 191.085 43.3134 191.692 44.3242C192.289 45.335 193.098 46.1436 194.119 46.7501C195.131 47.3566 196.258 47.655 197.491 47.655C198.406 47.655 199.263 47.4914 200.063 47.1448C200.863 46.8079 201.652 46.2592 202.433 45.4987L203.791 46.856C202.847 47.7994 201.855 48.4829 200.814 48.9258C199.784 49.3782 198.685 49.5996 197.5 49.5996Z" fill="black"/>
<path d="M125.595 76.0929C123.775 76.0929 122.204 75.7079 120.894 74.9281C119.584 74.1483 118.544 73.1087 117.763 71.7994C116.983 70.4902 116.598 69.0366 116.598 67.4482V66.8898C116.184 67.0342 115.105 67.1016 113.361 67.1016L112.417 67.092V76.0929H110.481V58.813H112.417V65.157H114.652C115.817 65.157 116.877 64.8874 117.84 64.3483C118.804 63.8093 119.594 63.0969 120.21 62.192C120.827 61.2967 121.212 60.1704 121.366 58.813H123.303C123.148 60.4784 122.715 61.8743 121.992 63.0199C121.27 64.1558 120.335 65.0896 119.189 65.802C118.919 65.9656 118.698 66.0908 118.534 66.1678V67.4482C118.534 68.6804 118.833 69.8067 119.44 70.8271C120.037 71.8476 120.856 72.6562 121.867 73.2531C122.888 73.8595 124.131 74.158 125.595 74.158V76.0929Z" fill="black"/>
<path d="M138.618 67.9005C138.319 68.2374 137.732 68.6128 136.865 69.0364C135.911 69.5177 134.928 69.7488 133.927 69.7488C132.886 69.7488 131.904 69.5081 130.959 69.0364C130.015 68.5647 129.235 67.9101 128.609 67.0726C127.732 65.9174 127.299 64.5985 127.299 63.1064V58.8032H129.235V63.116C129.235 63.9824 129.447 64.7718 129.871 65.4842C130.295 66.1965 130.863 66.7549 131.576 67.1785C132.289 67.602 133.079 67.8138 133.936 67.8138C134.784 67.8138 135.564 67.602 136.277 67.1785C136.99 66.7549 137.549 66.1965 137.982 65.5034C138.406 64.8103 138.628 64.0305 138.647 63.1737V58.8032H140.593V67.448C140.593 68.9305 140.227 70.3264 139.485 71.6356C138.743 72.9449 137.934 73.8786 137.048 74.437L137.057 74.4466C136.017 75.0916 135.121 75.5248 134.35 75.7559C133.58 75.9869 132.78 76.0928 131.952 76.0928H129.139V74.1482H131.932C133.166 74.1482 134.293 73.8498 135.304 73.2433C136.316 72.6368 137.134 71.8282 137.732 70.8174C138.252 69.9317 138.551 68.9594 138.618 67.9005Z" fill="black"/>
<path d="M143.6 76.0928V74.1578C144.371 74.1578 144.862 73.9075 145.074 73.4166C145.161 73.1567 145.209 72.3288 145.209 70.9521L145.199 70.259L145.19 70.1146L145.17 68.4299C145.17 67.9486 145.19 67.3903 145.218 66.7741C145.247 66.158 145.382 65.4842 145.604 64.7622C146.268 62.7502 147.502 61.1714 149.284 60.0258C150.642 59.169 152.164 58.7358 153.85 58.7358H157.27V76.0158H155.334V60.6804H153.802C152.559 60.7093 151.442 61.0174 150.44 61.6142C149.438 62.2111 148.638 63.0101 148.041 64.0209C147.444 65.0317 147.135 66.1484 147.135 67.371V72.9352C147.135 73.792 146.827 74.5333 146.201 75.159C145.575 75.7847 144.698 76.0928 143.6 76.0928Z" fill="black"/>
<path d="M168.976 76.0929H160.422V58.813H162.358V65.157H168.976C170.344 65.1859 171.529 65.6383 172.521 66.5047C173.109 67.0246 173.581 67.6311 173.928 68.3434C174.274 69.0558 174.448 69.8163 174.448 70.625C174.448 71.4529 174.274 72.223 173.937 72.9354C173.6 73.6477 173.138 74.2639 172.54 74.7644C171.529 75.6501 170.344 76.0929 168.976 76.0929ZM168.976 74.158C169.959 74.158 170.787 73.8114 171.481 73.1183C172.165 72.4252 172.511 71.5973 172.511 70.625C172.511 69.643 172.165 68.8151 171.481 68.122C170.787 67.4289 169.959 67.092 168.976 67.092H162.358V74.158H168.976Z" fill="black"/>
<path d="M184.406 76.0929H182.46V60.748H176.69V58.813H190.177V60.748H184.406V76.0929Z" fill="black"/>
<path d="M203.942 67.9005C203.643 68.2374 203.055 68.6128 202.188 69.0364C201.235 69.5177 200.252 69.7488 199.25 69.7488C198.21 69.7488 197.227 69.5081 196.283 69.0364C195.339 68.5647 194.559 67.9101 193.933 67.0726C193.056 65.9174 192.622 64.5985 192.622 63.1064V58.8032H194.559V63.116C194.559 63.9824 194.771 64.7718 195.195 65.4842C195.618 66.1965 196.187 66.7549 196.9 67.1785C197.613 67.602 198.402 67.8138 199.26 67.8138C200.108 67.8138 200.888 67.602 201.601 67.1785C202.314 66.7549 202.872 66.1965 203.306 65.5034C203.73 64.8103 203.951 64.0305 203.971 63.1737V58.8032H205.917V67.448C205.917 68.9305 205.55 70.3264 204.809 71.6356C204.067 72.9449 203.258 73.8786 202.371 74.437L202.381 74.4466C201.341 75.0916 200.445 75.5248 199.674 75.7559C198.903 75.9869 198.104 76.0928 197.275 76.0928H194.462V74.1482H197.256C198.489 74.1482 199.616 73.8498 200.628 73.2433C201.639 72.6368 202.458 71.8282 203.055 70.8174C203.585 69.9317 203.874 68.9594 203.942 67.9005Z" fill="black"/>
<path d="M210.86 76.0929H208.924V58.813H217.478C218.836 58.813 220.031 59.2558 221.052 60.1415C221.64 60.6421 222.102 61.2485 222.449 61.9609C222.786 62.6733 222.96 63.4434 222.96 64.2713C222.96 65.2629 222.709 66.1774 222.218 67.0053C221.717 67.8332 221.062 68.4975 220.243 68.9884C219.424 69.4794 218.509 69.7297 217.497 69.7393L210.879 69.7489V76.0929H210.86ZM217.478 67.8043C218.461 67.8043 219.289 67.4578 219.983 66.7743C220.667 66.0908 221.014 65.2533 221.014 64.2713C221.014 63.299 220.667 62.4711 219.983 61.778C219.289 61.0945 218.461 60.748 217.478 60.748H210.86V67.8043H217.478Z" fill="black"/>
<path d="M240.446 76.0929H238.356L236.872 72.5503H227.778L226.295 76.0929H224.194L231.41 58.813H233.231L240.446 76.0929ZM236.063 70.6153L232.325 61.6721L228.587 70.6153H236.063Z" fill="black"/>
<path d="M20.6052 27.5978C19.6207 27.5978 18.683 27.2074 17.9798 26.528H9.40015C7.517 26.528 5.78232 25.5832 4.77433 23.9981C4.20392 23.1235 3.89917 22.0928 3.89917 21.0309C3.89917 20.5858 3.95388 20.1563 4.05546 19.7581L4.89935 16.5332L5.64948 19.7737C6.02455 21.4057 7.46231 22.6238 9.13448 22.7331C9.42359 22.7409 14.8855 22.7409 18.4799 22.7331H19.0893L19.2691 23.3187C19.5426 24.2089 20.3708 24.8336 21.3007 24.8336C21.8711 24.8336 22.4024 24.6071 22.8166 24.1933L24.184 25.021C23.6761 26.5593 22.2383 27.5978 20.6052 27.5978ZM6.49338 23.5608C7.22007 24.4041 8.27495 24.8882 9.40015 24.8882H18.2376C18.1204 24.7243 18.0189 24.5525 17.9251 24.3729C9.11885 24.3885 9.03289 24.3729 8.95475 24.3651C8.07178 24.3104 7.22789 24.0215 6.49338 23.5608Z" fill="black"/>
<path d="M80.7175 75.2765L78.9203 75.2453C78.9829 71.7471 81.8896 68.9048 85.398 68.9048C88.9065 68.9048 91.8054 71.7471 91.8757 75.2453L90.0786 75.2765C90.0317 72.7544 87.9297 70.7007 85.398 70.7007C82.8664 70.7007 80.7722 72.7544 80.7175 75.2765Z" fill="black"/>
<path d="M96.9601 76.1583C95.0613 76.1583 93.3423 74.9558 92.6859 73.1677L92.6234 72.9881C92.6 72.9256 92.5765 72.8631 92.5609 72.7851L92.5374 72.7304C91.4513 69.7944 88.5836 67.7955 85.4034 67.7955C81.2698 67.7955 77.8552 71.1531 77.8005 75.276L76.0033 75.2525C76.0736 70.1536 80.2931 65.9995 85.4034 65.9995C89.3338 65.9995 92.8813 68.4748 94.2409 72.1526C94.2565 72.2072 94.2721 72.2385 94.2878 72.2853L94.3268 72.4103C94.3503 72.4805 94.3737 72.543 94.3894 72.6211C94.7722 73.644 95.8115 74.3702 96.9523 74.3702C98.476 74.3702 99.7184 73.1364 99.7184 71.6138C99.7184 70.505 99.0542 69.5055 98.0384 69.0682L98.7417 67.4128C100.429 68.1312 101.516 69.7788 101.516 71.6138C101.523 74.1125 99.4762 76.1583 96.9601 76.1583Z" fill="black"/>
<path d="M51.9499 76.103C45.7535 76.103 40.7135 71.0665 40.7135 64.8744C40.7135 62.5319 41.4246 60.2909 42.7686 58.4012L52.364 46.6339C52.5125 46.4855 52.6297 46.3372 52.7469 46.1654C52.9969 45.775 53.1376 45.3064 53.1376 44.8223C53.1376 43.4246 52.0046 42.2924 50.6059 42.2924C49.8714 42.2924 49.176 42.6125 48.6837 43.1669L48.6134 43.2606L25.6874 71.4179C22.937 74.3929 19.0378 76.103 14.9668 76.103C6.91851 76.103 0.362671 69.5595 0.362671 61.509C0.362671 58.3544 1.35504 55.3481 3.23818 52.8182L3.91799 51.9749L20.3506 31.79C18.9597 31.384 17.7017 30.6187 16.6859 29.5568H7.56707L12.2476 24.8795H18.233C17.9986 24.5516 17.8111 24.1846 17.6939 23.7863C17.6157 23.5209 17.561 23.2398 17.5454 22.9508L15.6232 21.1237H11.5678V22.6541L10.6535 22.5526C9.01263 22.373 7.10605 20.3428 7.10605 18.0003C7.10605 17.399 7.19981 16.8056 7.39516 16.2434L7.48893 15.9623L7.73897 15.8061C11.0521 13.7837 11.0521 13.7837 11.2865 13.7837H11.6303L13.7713 15.931H21.7258C23.7887 13.3933 26.8205 11.9487 30.1023 11.9487C34.7594 11.9487 38.8851 14.9081 40.3463 19.3199C40.6901 20.3662 41.6668 21.069 42.7686 21.069C44.1751 21.069 45.3159 19.929 45.3159 18.5234C45.3159 17.1414 44.1907 16.0013 42.8155 15.9779L42.8467 14.3381C45.1127 14.3772 46.9646 16.2512 46.9646 18.5234C46.9646 20.8269 45.0893 22.7088 42.7764 22.7088C40.9636 22.7088 39.3617 21.5531 38.7991 19.8353C37.5567 16.1028 34.0639 13.5885 30.1101 13.5885C27.2033 13.5885 24.5388 14.9238 22.7885 17.2429L22.5463 17.5708H13.0993L11.1771 15.6421C10.5051 16.0482 9.3877 16.7353 8.8798 17.0477C8.80166 17.36 8.76259 17.6801 8.76259 18.0081C8.76259 19.0154 9.34081 19.9134 9.93467 20.4365V19.4917H16.2874L19.2723 22.334L19.1785 22.7791C19.1863 22.9352 19.2176 23.1382 19.2723 23.3178C19.5457 24.2158 20.3818 24.8405 21.3039 24.8405C21.8743 24.8405 22.4056 24.614 22.8198 24.2002L24.0622 25.2621C23.773 25.6526 22.2493 27.6125 20.6162 27.6125C19.6317 27.6125 18.694 27.2221 17.9908 26.5427H12.9508L11.5521 27.9404H17.4438L17.686 28.2215C18.7878 29.4865 20.3037 30.283 21.9524 30.4626L23.4527 30.6266L4.55873 53.8411C2.91 56.0587 2.02703 58.7214 2.02703 61.5246C2.02703 68.6693 7.84055 74.4788 14.9902 74.4788C18.5768 74.4788 22.0306 72.9796 24.4685 70.3638L24.4919 70.3326L25.5859 68.9973L47.4022 42.1831C48.2383 41.1992 49.4026 40.6604 50.6215 40.6604C52.9188 40.6604 54.7941 42.5266 54.7941 44.8301C54.7941 45.6344 54.5675 46.4074 54.1456 47.0712C53.9659 47.3445 53.7783 47.5787 53.5752 47.7895L44.0735 59.3929C42.9561 60.9624 42.3544 62.8677 42.3544 64.8744C42.3544 70.1608 46.6599 74.4632 51.9499 74.4632C54.591 74.4632 57.0445 73.4169 58.8652 71.5194L70.2734 57.472C71.0939 56.5662 72.2191 56.0665 73.399 56.0665C75.6963 56.0665 77.5716 57.9327 77.5716 60.2362C77.5716 61.0405 77.345 61.8135 76.923 62.4772L76.8683 62.5475L76.3057 63.2347C76.2276 63.3362 72.1722 68.3258 72.1722 68.3258L66.093 75.7985L64.8193 74.7677L70.8985 67.2951C74.2351 63.1878 74.9227 62.3445 75.0868 62.1493L75.5634 61.5636C75.8056 61.1732 75.9307 60.7203 75.9307 60.244C75.9307 58.8541 74.7977 57.7141 73.399 57.7141C72.6801 57.7141 72.0003 58.0186 71.5158 58.5496L71.2502 58.8853L60.0841 72.6126C57.9119 74.8771 55.0364 76.103 51.9499 76.103Z" fill="black"/>
<path d="M71.0218 76.439L69.7481 75.4083L79.1873 63.7815C80.2187 62.3994 80.7735 60.7206 80.7735 58.9559C80.7735 58.0423 80.625 57.1521 80.3281 56.301C79.6405 54.3177 78.1558 52.631 76.2649 51.6862C75.1397 51.124 73.9207 50.8351 72.6471 50.8351C70.3029 50.8351 68.0759 51.8502 66.521 53.6149L55.6909 66.9361C55.5894 67.0767 55.4878 67.2016 55.3784 67.3266C54.597 68.2011 53.464 68.7086 52.2841 68.7086C49.9868 68.7086 48.1115 66.8424 48.1115 64.5389C48.1115 63.7112 48.3537 62.907 48.8225 62.212C48.8772 62.1339 48.9163 62.0871 48.9476 62.048L49.1507 61.7982L58.8399 49.8981C60.0589 48.0162 60.6996 45.8377 60.6996 43.5967C60.6996 39.6143 58.6915 35.96 55.3315 33.8127C53.4718 32.6258 51.3152 32.0011 49.096 32.0011C45.8455 32.0011 42.7199 33.3754 40.5242 35.7726L39.6959 36.7955L18.1296 63.2896C18.0046 63.4848 17.864 63.641 17.7389 63.7737C17.6999 63.8206 17.6608 63.8674 17.6061 63.9143C16.8404 64.6795 15.7698 65.1246 14.6681 65.1246C12.3708 65.1246 10.4955 63.2583 10.4955 60.9627C10.4955 60.0491 10.7924 59.1667 11.3394 58.4561C11.3941 58.3703 11.4488 58.2922 11.5269 58.2297L31.4132 33.7736L32.6869 34.8121L12.6677 59.4322C12.3239 59.8617 12.1364 60.4083 12.1364 60.9705C12.1364 62.3604 13.2694 63.4926 14.6681 63.4926C15.3323 63.4926 15.9886 63.2271 16.4497 62.7586L16.5122 62.6883C16.5903 62.6024 16.6684 62.5165 16.7388 62.4228L16.8325 62.2823L39.274 34.7106C41.8213 31.9386 45.3844 30.3691 49.0882 30.3691C51.6199 30.3691 54.0735 31.0875 56.2067 32.4384C60.0433 34.8824 62.3327 39.0599 62.3327 43.6045C62.3327 46.1813 61.5904 48.68 60.1839 50.8351L60.137 50.9054L50.1353 63.1725C49.8931 63.5551 49.7446 64.0392 49.7446 64.5467C49.7446 65.9366 50.8776 67.0767 52.2763 67.0767C52.9952 67.0767 53.675 66.7722 54.1516 66.2412C54.2141 66.1787 54.261 66.1162 54.3157 66.046L54.3938 65.9366L65.2629 52.5686C67.1383 50.4212 69.8262 49.2031 72.6392 49.2031C74.1708 49.2031 75.632 49.5467 76.9916 50.226C79.2576 51.3583 81.0391 53.3807 81.8674 55.77C82.219 56.7929 82.3988 57.8705 82.3988 58.9637C82.3988 61.0954 81.7268 63.11 80.4609 64.8044L71.0218 76.439Z" fill="black"/>
<path d="M41.8888 30.6826C41.6075 30.6826 41.3262 30.6514 41.0449 30.5811C39.4899 30.2219 38.3569 28.9101 38.2163 27.325C37.9115 24.0532 35.5439 21.3515 32.3324 20.6019C31.2385 20.3442 30.1211 20.3364 29.035 20.5628L28.699 18.9621C30.0273 18.681 31.3791 18.7044 32.7075 19.009C36.6144 19.9147 39.4821 23.2021 39.8572 27.1844C39.9353 28.0668 40.5683 28.793 41.42 28.9882C41.9513 29.1131 42.4983 29.0194 42.9593 28.7305C43.4203 28.4416 43.7407 27.9965 43.8657 27.4655C44.1158 26.388 43.4516 25.2948 42.3811 25.0293L42.7796 23.4364C44.7174 23.9205 45.9208 25.896 45.4676 27.8325C45.241 28.7851 44.6627 29.5972 43.8266 30.1204C43.2328 30.4952 42.5686 30.6826 41.8888 30.6826Z" fill="black"/>
<path d="M33.8346 38.2565C32.9048 38.2565 31.9827 37.8427 31.3654 37.054C30.5371 35.9843 30.4903 34.5241 31.2404 33.3997C32.6703 31.2602 32.5688 28.4491 30.9825 26.4033C30.7794 26.1456 30.5606 25.9036 30.3262 25.6849L31.4436 24.4824C31.7405 24.7635 32.0296 25.0681 32.2796 25.396C34.2956 27.9962 34.4285 31.5803 32.6 34.3055C32.2406 34.8364 32.264 35.5314 32.6547 36.0389C32.8969 36.3513 33.2486 36.5465 33.6393 36.6011C34.03 36.648 34.4206 36.5465 34.7332 36.3044C35.3661 35.8125 35.4911 34.8911 35.0067 34.2508L36.3194 33.2669C37.3352 34.6178 37.0695 36.5621 35.7334 37.5928C35.1786 38.0457 34.4988 38.2565 33.8346 38.2565Z" fill="black"/>
<path d="M27.6224 13.769L26.3487 12.7383L26.6535 12.3713C26.6535 12.3713 26.7863 12.2151 26.8332 12.1527C26.9582 11.9575 27.0285 11.731 27.0285 11.4811C27.0285 10.833 26.5441 10.2864 25.8955 10.224L25.9736 8.59201H29.7321L34.7642 2.3999H40.1011L37.4366 5.67945H39.0697V7.31923C37.3897 7.31923 35.8035 7.97514 34.608 9.16202L31.1308 13.4411L29.8571 12.4103L33.4593 7.99076C33.7016 7.74869 33.9516 7.53006 34.2173 7.32704H33.9829L36.6474 4.04749H35.5378L30.5057 10.2396H28.3803C28.56 10.6222 28.6616 11.0439 28.6616 11.4889C28.6616 12.059 28.5053 12.5977 28.2006 13.0584C28.1693 13.1131 28.1146 13.1834 27.9037 13.4332L27.6224 13.769Z" fill="black"/>
<path d="M22.9102 22.8264C21.4803 22.8264 20.3239 21.663 20.3239 20.2418C20.3239 18.8129 21.4881 17.6572 22.9102 17.6572C24.3324 17.6572 25.4966 18.8207 25.4966 20.2418C25.5044 21.663 24.3402 22.8264 22.9102 22.8264ZM22.9102 19.2892C22.3867 19.2892 21.9648 19.7109 21.9648 20.234C21.9648 20.7572 22.3867 21.1788 22.9102 21.1788C23.4338 21.1788 23.8557 20.7572 23.8557 20.234C23.8557 19.7109 23.4338 19.2892 22.9102 19.2892Z" fill="black"/>
</svg>
