<svg width="198" height="60" viewBox="0 0 198 60" fill="none" xmlns="http://www.w3.org/2000/svg">
<path d="M59.8146 4.29883H63.5769C64.1985 4.29883 64.726 4.37244 65.1595 4.51557C65.5889 4.66278 65.9406 4.85499 66.2146 5.09626C66.4886 5.33754 66.6808 5.61562 66.8034 5.9305C66.922 6.24539 66.9834 6.57663 66.9834 6.91605C66.9834 7.23911 66.9261 7.52128 66.8075 7.76665C66.693 8.01201 66.5581 8.22466 66.4027 8.39642C66.2473 8.57226 66.0837 8.7113 65.912 8.80945C65.7402 8.91168 65.5971 8.97711 65.4744 9.00574C65.6666 9.0589 65.867 9.13251 66.0755 9.23066C66.4886 9.41059 66.828 9.69276 67.0979 10.073C67.3678 10.4534 67.5027 10.9155 67.5027 11.4594C67.5027 11.9828 67.4087 12.4245 67.2247 12.7843C67.0406 13.1442 66.7789 13.4427 66.4436 13.6717C66.1042 13.9007 65.6952 14.0725 65.2086 14.1747C64.7219 14.281 64.178 14.3342 63.5728 14.3342H59.8105V4.29883H59.8146ZM63.3683 8.31872C63.5401 8.31872 63.7078 8.29827 63.8754 8.25738C64.039 8.21648 64.1862 8.15514 64.313 8.06926C64.4398 7.98339 64.542 7.86888 64.6238 7.72166C64.7015 7.57853 64.7424 7.3986 64.7424 7.18595C64.7424 6.96512 64.7015 6.7811 64.6238 6.63797C64.542 6.49484 64.4357 6.37625 64.3048 6.29037C64.174 6.20449 64.0267 6.14315 63.8632 6.11043C63.6996 6.07363 63.536 6.05727 63.3724 6.05727H62.0311V8.31463H63.3683V8.31872ZM63.5033 12.5962C63.6628 12.5962 63.8427 12.5839 64.0472 12.5594C64.2476 12.5349 64.4316 12.4776 64.6033 12.3877C64.7751 12.2977 64.9182 12.1668 65.0327 11.9951C65.1472 11.8233 65.2045 11.5902 65.2045 11.2876C65.2045 11.0177 65.1513 10.7969 65.0368 10.6251C64.9264 10.4534 64.7874 10.3225 64.6156 10.2244C64.4438 10.1303 64.2598 10.0649 64.0595 10.0281C63.8591 9.99538 63.675 9.97493 63.5033 9.97493H62.027V12.5962H63.5033Z" fill="#C31632"/>
<path d="M71.0111 7.18945V9.2955H72.4424C72.8431 9.2955 73.2153 9.34866 73.5506 9.45907C73.8859 9.56949 74.1763 9.73715 74.4176 9.95389C74.6588 10.1747 74.8429 10.4446 74.9737 10.7595C75.1046 11.0743 75.17 11.4342 75.17 11.835C75.17 12.2562 75.0964 12.6242 74.9451 12.9432C74.7938 13.2581 74.5934 13.5198 74.3439 13.7243C74.0945 13.9288 73.8001 14.0842 73.4688 14.1823C73.1376 14.2845 72.7859 14.3336 72.4137 14.3336H68.8887V7.18945H71.0111ZM71.0111 12.7469H71.8699C72.2502 12.7469 72.5487 12.6774 72.7573 12.5343C72.9658 12.3952 73.0721 12.158 73.0721 11.8268C73.0721 11.4874 72.9658 11.2461 72.7573 11.103C72.5446 10.9639 72.2502 10.8903 71.8699 10.8903H71.0111V12.7469ZM76.266 7.18945H78.4211V14.3418H76.266V7.18945Z" fill="#C31632"/>
<path d="M86.431 13.4046C86.1406 13.7236 85.7603 14.0017 85.2859 14.2307C84.8116 14.4597 84.2472 14.5783 83.5847 14.5783C83.0122 14.5783 82.4929 14.4842 82.0267 14.292C81.5605 14.0998 81.1597 13.8381 80.8285 13.5028C80.4972 13.1674 80.2396 12.7667 80.0515 12.3046C79.8675 11.8425 79.7734 11.3395 79.7734 10.7997C79.7734 10.2558 79.8675 9.74869 80.0515 9.27841C80.2396 8.80813 80.5013 8.39919 80.8448 8.05159C81.1843 7.70399 81.5932 7.43409 82.0635 7.2378C82.5338 7.0415 83.0531 6.94336 83.6134 6.94336C84.2472 6.94336 84.7993 7.05377 85.2778 7.2746C85.7521 7.49543 86.1447 7.77351 86.4432 8.10475L85.1346 9.51969C85.0038 9.36838 84.8197 9.21707 84.5866 9.06167C84.3495 8.90627 84.0469 8.82858 83.6747 8.82858C83.3925 8.82858 83.1472 8.88174 82.9386 8.98806C82.726 9.09439 82.5501 9.23343 82.4029 9.40927C82.2598 9.58512 82.1453 9.78959 82.0717 10.0186C81.9981 10.2517 81.9572 10.4848 81.9572 10.7261C81.9572 10.9673 81.994 11.2045 82.0717 11.4417C82.1453 11.6789 82.2557 11.8874 82.3947 12.0756C82.5338 12.2596 82.7137 12.4109 82.9304 12.5172C83.1472 12.6276 83.4007 12.6849 83.6911 12.6849C84.0428 12.6849 84.3413 12.6113 84.5785 12.4681C84.8197 12.3209 85.016 12.1655 85.1673 11.9938L86.431 13.4046Z" fill="#C31632"/>
<path d="M87.4922 14.3418V7.18945H89.6596V12.4893H91.9619V7.18945H94.1293V12.4893H96.4316V7.18945H98.599V14.3418H87.4922Z" fill="#C31632"/>
<path d="M104.531 14.3411L104.47 13.6786C104.229 13.9608 103.926 14.1734 103.558 14.3247C103.19 14.476 102.785 14.5497 102.331 14.5497C102.082 14.5497 101.816 14.5128 101.542 14.4433C101.264 14.3738 101.01 14.2511 100.773 14.0835C100.536 13.9117 100.34 13.6827 100.184 13.3964C100.029 13.1102 99.9512 12.7585 99.9512 12.3332C99.9512 11.912 100.033 11.5398 100.201 11.2127C100.368 10.8855 100.593 10.6156 100.888 10.3989C101.178 10.1822 101.521 10.0186 101.918 9.90409C102.315 9.78959 102.744 9.73234 103.206 9.73234C103.46 9.73234 103.709 9.74051 103.959 9.75278C104.208 9.76914 104.38 9.78141 104.47 9.78959V9.63828C104.47 9.45835 104.433 9.30295 104.355 9.17209C104.282 9.04123 104.18 8.9349 104.057 8.84902C103.93 8.76315 103.787 8.7018 103.628 8.66909C103.468 8.63637 103.296 8.61593 103.116 8.61593C102.634 8.61593 102.237 8.67727 101.918 8.79586C101.599 8.91854 101.333 9.05349 101.113 9.20071L100.225 7.87574C100.376 7.76533 100.548 7.65492 100.744 7.5445C100.941 7.43409 101.166 7.33185 101.423 7.24188C101.681 7.15192 101.971 7.07831 102.298 7.02515C102.626 6.97198 102.998 6.94336 103.419 6.94336C104.494 6.94336 105.288 7.23779 105.799 7.82258C106.31 8.41146 106.568 9.19662 106.568 10.1781V14.3329H104.531V14.3411ZM104.474 11.1473C104.421 11.1391 104.327 11.1268 104.188 11.1105C104.049 11.0941 103.885 11.09 103.705 11.09C103.104 11.09 102.675 11.18 102.425 11.3599C102.176 11.5398 102.049 11.7934 102.049 12.1124C102.049 12.7135 102.401 13.0161 103.104 13.0161C103.276 13.0161 103.444 12.9875 103.607 12.9343C103.775 12.8812 103.918 12.7994 104.045 12.7012C104.171 12.599 104.274 12.4763 104.351 12.325C104.433 12.1737 104.474 11.9979 104.474 11.7975V11.1473Z" fill="#C31632"/>
<path d="M112.285 14.3418V12.0844H111.562C111.341 12.0844 111.169 12.1335 111.042 12.2276C110.915 12.3216 110.789 12.5016 110.658 12.7633L109.844 14.3459H107.57L108.625 12.522C108.797 12.2317 108.957 12.0149 109.108 11.8677C109.259 11.7205 109.447 11.6101 109.68 11.5283C109.468 11.4669 109.267 11.3811 109.079 11.2666C108.887 11.152 108.719 11.0048 108.568 10.829C108.417 10.6531 108.298 10.4487 108.208 10.2197C108.118 9.9907 108.073 9.72897 108.073 9.43454C108.073 9.07467 108.147 8.7516 108.29 8.46943C108.433 8.19136 108.629 7.95417 108.871 7.76197C109.112 7.56976 109.39 7.42664 109.705 7.33258C110.02 7.23852 110.351 7.18945 110.691 7.18945H114.412V14.3418H112.285ZM112.285 8.76796H111.185C110.875 8.76796 110.629 8.84157 110.453 8.99288C110.277 9.14419 110.192 9.36502 110.192 9.65536C110.192 9.97434 110.294 10.2033 110.502 10.3342C110.707 10.465 110.985 10.5305 111.337 10.5305H112.285V8.76796Z" fill="#C31632"/>
<path d="M118.76 14.3418V7.18945H120.927V12.4893H123.23V7.18945H125.397V12.4893H127.699V7.18945H129.867V14.3418H118.76Z" fill="#C31632"/>
<path d="M133.714 14.3418H131.592V7.18945H133.714V9.83939H134.36C134.622 9.83939 134.822 9.76987 134.97 9.62674C135.117 9.4877 135.256 9.28732 135.399 9.0256L136.38 7.18945H138.593L137.403 9.39773C137.043 10.0684 136.601 10.4896 136.078 10.6613C136.401 10.7636 136.667 10.919 136.884 11.1357C137.1 11.3524 137.313 11.6469 137.526 12.019L138.879 14.3418H136.454L135.354 12.3993C135.244 12.1989 135.121 12.0272 134.986 11.88C134.851 11.7368 134.638 11.6632 134.344 11.6632H133.714V14.3418Z" fill="#C31632"/>
<path d="M139.252 10.7545C139.252 10.2229 139.346 9.72807 139.53 9.26596C139.718 8.80386 139.976 8.39901 140.307 8.0555C140.638 7.7079 141.039 7.438 141.505 7.24171C141.971 7.04541 142.487 6.94727 143.047 6.94727C143.599 6.94727 144.11 7.04541 144.576 7.24171C145.043 7.438 145.443 7.7079 145.775 8.0555C146.106 8.4031 146.363 8.80795 146.547 9.26596C146.731 9.72807 146.826 10.2229 146.826 10.7545C146.826 11.2862 146.731 11.7851 146.547 12.2472C146.363 12.7093 146.106 13.1141 145.775 13.4576C145.443 13.8052 145.043 14.0792 144.576 14.2796C144.11 14.48 143.599 14.5822 143.047 14.5822C142.483 14.5822 141.971 14.48 141.505 14.2796C141.039 14.0792 140.638 13.8052 140.307 13.4576C139.976 13.11 139.718 12.7052 139.53 12.2472C139.342 11.7851 139.252 11.2903 139.252 10.7545ZM143.043 12.697C143.313 12.697 143.554 12.6398 143.767 12.5334C143.979 12.423 144.155 12.2758 144.302 12.0959C144.45 11.9159 144.556 11.7074 144.625 11.4784C144.695 11.2494 144.732 11.0081 144.732 10.7545C144.732 10.5051 144.695 10.2638 144.625 10.0307C144.556 9.80168 144.445 9.59312 144.302 9.41318C144.159 9.23325 143.979 9.09012 143.767 8.98379C143.558 8.87747 143.317 8.82431 143.043 8.82431C142.769 8.82431 142.528 8.87747 142.311 8.98379C142.094 9.09012 141.918 9.23325 141.775 9.41318C141.636 9.59312 141.526 9.80168 141.452 10.0307C141.378 10.2638 141.338 10.501 141.338 10.7545C141.338 11.0081 141.374 11.2453 141.452 11.4784C141.526 11.7074 141.636 11.9159 141.775 12.0959C141.914 12.2758 142.094 12.423 142.311 12.5334C142.528 12.6438 142.773 12.697 143.043 12.697Z" fill="#C31632"/>
<path d="M155.326 7.18945V14.3418H153.159V9.04195H151.564C151.515 9.6431 151.437 10.2606 151.331 10.8862C151.225 11.5119 151.053 12.0885 150.803 12.612C150.558 13.1354 150.223 13.5607 149.802 13.892C149.38 14.2232 148.828 14.3868 148.145 14.3868C148.064 14.3868 147.982 14.3827 147.896 14.3786C147.81 14.3745 147.728 14.3663 147.646 14.3581V12.4893H147.753C148.084 12.4893 148.362 12.3952 148.595 12.203C148.828 12.0108 149.016 11.7041 149.168 11.2829C149.319 10.8617 149.434 10.3137 149.511 9.6431C149.593 8.97243 149.646 8.15046 149.679 7.18945H155.326Z" fill="#C31632"/>
<path d="M161.25 14.3411L161.189 13.6786C160.947 13.9608 160.645 14.1734 160.277 14.3247C159.909 14.476 159.5 14.5497 159.05 14.5497C158.801 14.5497 158.535 14.5128 158.261 14.4433C157.983 14.3738 157.729 14.2511 157.492 14.0835C157.255 13.9158 157.058 13.6827 156.903 13.3964C156.748 13.1102 156.67 12.7585 156.67 12.3332C156.67 11.912 156.752 11.5398 156.919 11.2127C157.083 10.8855 157.312 10.6156 157.602 10.3989C157.893 10.1822 158.236 10.0186 158.633 9.90409C159.03 9.78959 159.459 9.73234 159.921 9.73234C160.17 9.73234 160.424 9.74051 160.673 9.75278C160.923 9.76914 161.095 9.78141 161.185 9.78959V9.63828C161.185 9.45835 161.148 9.30295 161.07 9.17209C160.997 9.04123 160.894 8.9349 160.768 8.84902C160.641 8.76315 160.498 8.7018 160.338 8.66909C160.179 8.63637 160.007 8.61593 159.827 8.61593C159.344 8.61593 158.948 8.67727 158.629 8.79586C158.31 8.91445 158.044 9.05349 157.823 9.20071L156.936 7.87574C157.087 7.76533 157.259 7.65492 157.455 7.5445C157.651 7.43409 157.876 7.33185 158.13 7.24188C158.387 7.15192 158.678 7.07831 159.005 7.02515C159.332 6.97198 159.704 6.94336 160.13 6.94336C161.205 6.94336 161.994 7.23779 162.51 7.82258C163.021 8.41146 163.278 9.19662 163.278 10.1781V14.3329H161.25V14.3411ZM161.189 11.1473C161.14 11.1391 161.042 11.1268 160.902 11.1105C160.763 11.0941 160.604 11.09 160.42 11.09C159.815 11.09 159.389 11.18 159.14 11.3599C158.886 11.5398 158.764 11.7934 158.764 12.1124C158.764 12.7135 159.115 13.0161 159.819 13.0161C159.991 13.0161 160.158 12.9875 160.322 12.9343C160.489 12.8812 160.633 12.7994 160.759 12.7012C160.886 12.599 160.988 12.4763 161.07 12.325C161.152 12.1737 161.189 11.9979 161.189 11.7975V11.1473Z" fill="#C31632"/>
<path d="M63.0824 27.1454L61.6798 24.5691L61.4998 28.7403H59.541L59.8886 21.5879H61.8474L63.6386 24.9453L65.4461 21.5879H67.4336L67.7812 28.7403H65.7324L65.5361 24.5528L64.1498 27.1414H63.0824V27.1454Z" fill="#C31632"/>
<path d="M72.984 27.2797C73.2539 27.2797 73.5034 27.2551 73.7242 27.206C73.945 27.157 74.1454 27.0956 74.3254 27.0261C74.5053 26.9566 74.6566 26.883 74.7834 26.8094C74.9101 26.7358 75.0042 26.6662 75.0778 26.6049L75.9652 27.9749C75.8834 28.0239 75.7648 28.1057 75.6053 28.2161C75.4458 28.3265 75.2373 28.441 74.9797 28.5555C74.722 28.6701 74.4235 28.7723 74.0759 28.8541C73.7283 28.94 73.3357 28.9808 72.8941 28.9808C72.2806 28.9808 71.7327 28.8868 71.246 28.7028C70.7594 28.5187 70.3504 28.257 70.011 27.9176C69.6757 27.5823 69.4181 27.1815 69.2422 26.7194C69.0664 26.2573 68.9805 25.7502 68.9805 25.1981C68.9805 24.6747 69.0623 24.1799 69.2299 23.7055C69.3976 23.2352 69.6348 22.8263 69.9456 22.4787C70.2564 22.1311 70.6367 21.8571 71.0906 21.6526C71.5405 21.4482 72.0516 21.3418 72.6282 21.3418C73.2008 21.3418 73.7038 21.4441 74.1332 21.6444C74.5666 21.8448 74.9306 22.127 75.225 22.4869C75.5235 22.8467 75.7444 23.2802 75.8957 23.7832C76.047 24.2862 76.1206 24.8383 76.1206 25.4394V25.7993H71.062C71.2378 26.7889 71.8799 27.2797 72.984 27.2797ZM74.0677 24.4212C74.0473 24.2617 74.0146 24.0981 73.9614 23.9304C73.9123 23.7668 73.8305 23.6155 73.7201 23.4765C73.6097 23.3415 73.4666 23.2352 73.2907 23.1534C73.1149 23.0717 72.8981 23.0348 72.6364 23.0348C72.1743 23.0348 71.8145 23.1616 71.5609 23.4192C71.3033 23.6769 71.1356 24.0081 71.0538 24.4212H74.0677Z" fill="#C31632"/>
<path d="M84.4776 21.5918V28.7442H82.3102V26.0656H79.6439V28.7442H77.4766V21.5918H79.6439V24.2417H82.3102V21.5918H84.4776Z" fill="#C31632"/>
<path d="M89.8394 27.2797C90.1093 27.2797 90.3588 27.2551 90.5796 27.206C90.8004 27.157 91.0008 27.0956 91.1807 27.0261C91.3607 26.9566 91.512 26.883 91.6387 26.8094C91.7655 26.7358 91.8596 26.6662 91.9332 26.6049L92.8206 27.9749C92.7388 28.0239 92.6202 28.1057 92.4607 28.2161C92.3012 28.3265 92.0927 28.441 91.835 28.5555C91.5774 28.6701 91.2789 28.7723 90.9313 28.8541C90.5837 28.94 90.1911 28.9808 89.7494 28.9808C89.136 28.9808 88.588 28.8868 88.1014 28.7028C87.6148 28.5187 87.2058 28.257 86.8664 27.9176C86.5311 27.5823 86.2734 27.1815 86.0976 26.7194C85.9217 26.2573 85.8359 25.7502 85.8359 25.1981C85.8359 24.6747 85.9176 24.1799 86.0853 23.7055C86.253 23.2352 86.4902 22.8263 86.801 22.4787C87.1118 22.1311 87.4921 21.8571 87.946 21.6526C88.3958 21.4482 88.907 21.3418 89.4836 21.3418C90.0561 21.3418 90.5591 21.4441 90.9885 21.6444C91.422 21.8448 91.7859 22.127 92.0804 22.4869C92.3789 22.8467 92.5997 23.2802 92.7511 23.7832C92.9024 24.2862 92.976 24.8383 92.976 25.4394V25.7993H87.9174C88.0932 26.7889 88.7393 27.2797 89.8394 27.2797ZM90.9231 24.4212C90.9026 24.2617 90.8699 24.0981 90.8168 23.9304C90.7677 23.7668 90.6859 23.6155 90.5755 23.4765C90.4651 23.3415 90.3219 23.2352 90.1461 23.1534C89.9703 23.0717 89.7535 23.0348 89.4918 23.0348C89.0297 23.0348 88.6698 23.1616 88.4163 23.4192C88.1586 23.6769 87.991 24.0081 87.9092 24.4212H90.9231Z" fill="#C31632"/>
<path d="M101.411 21.5918V27.0266H102.315V30.6089H100.405V28.7442H95.6617V30.6089H93.752V27.0266H94.578C94.8193 26.7076 95.0197 26.3559 95.1792 25.9797C95.3387 25.6035 95.4695 25.1946 95.5717 24.7529C95.674 24.3112 95.7517 23.8287 95.813 23.3093C95.8744 22.79 95.9234 22.2134 95.9643 21.5918H101.411ZM99.334 27.0266V23.3093H97.7391C97.6696 24.1722 97.5551 24.896 97.3997 25.4767C97.2443 26.0574 97.0317 26.5768 96.7618 27.0266H99.334Z" fill="#C31632"/>
<path d="M109.833 28.744H107.739V26.0654H107.195C106.913 26.0654 106.709 26.139 106.578 26.2903C106.447 26.4416 106.316 26.6461 106.185 26.9078L105.265 28.744H103.053L104.288 26.4253C104.488 26.0532 104.689 25.7587 104.881 25.5461C105.077 25.3293 105.318 25.1739 105.613 25.0717C105.351 24.9695 105.13 24.8304 104.95 24.6505C104.77 24.4705 104.582 24.1884 104.394 23.8081L103.327 21.5957H105.466L106.308 23.3419C106.447 23.6445 106.586 23.8694 106.729 24.0207C106.868 24.172 107.069 24.2456 107.33 24.2456H107.735V21.5957H109.829V24.2456H110.266C110.528 24.2456 110.729 24.172 110.868 24.0207C111.007 23.8694 111.15 23.6445 111.289 23.3419L112.131 21.5957H114.241L113.174 23.804C112.982 24.1843 112.798 24.4665 112.618 24.6464C112.438 24.8263 112.217 24.9654 111.955 25.0676C112.246 25.1698 112.491 25.3252 112.687 25.542C112.884 25.7587 113.08 26.0532 113.28 26.4253L114.515 28.7481H112.213L111.297 26.9119C111.166 26.6502 111.035 26.4457 110.904 26.2944C110.774 26.1431 110.569 26.0695 110.287 26.0695H109.833V28.744Z" fill="#C31632"/>
<path d="M119.002 27.1454L117.604 24.5691L117.424 28.7403H115.465L115.812 21.5879H117.767L119.558 24.9453L121.366 21.5879H123.353L123.701 28.7403H121.652L121.456 24.5528L120.07 27.1414H119.002V27.1454Z" fill="#C31632"/>
<path d="M128.902 27.2797C129.172 27.2797 129.417 27.2551 129.638 27.206C129.859 27.157 130.059 27.0956 130.239 27.0261C130.419 26.9566 130.575 26.883 130.697 26.8094C130.824 26.7358 130.922 26.6662 130.992 26.6049L131.879 27.9749C131.797 28.0239 131.679 28.1057 131.519 28.2161C131.36 28.3265 131.151 28.441 130.894 28.5555C130.636 28.6701 130.338 28.7723 129.99 28.8541C129.642 28.94 129.25 28.9808 128.808 28.9808C128.195 28.9808 127.647 28.8868 127.16 28.7028C126.673 28.5187 126.26 28.257 125.925 27.9176C125.59 27.5823 125.332 27.1815 125.156 26.7194C124.98 26.2573 124.895 25.7502 124.895 25.1981C124.895 24.6747 124.976 24.1799 125.144 23.7055C125.308 23.2352 125.549 22.8263 125.86 22.4787C126.17 22.1311 126.551 21.8571 127.005 21.6526C127.459 21.4482 127.97 21.3418 128.542 21.3418C129.115 21.3418 129.618 21.4441 130.047 21.6444C130.477 21.8448 130.841 22.127 131.139 22.4869C131.434 22.8467 131.658 23.2802 131.81 23.7832C131.961 24.2862 132.035 24.8383 132.035 25.4394V25.7993H126.976C127.156 26.7889 127.798 27.2797 128.902 27.2797ZM129.986 24.4212C129.965 24.2617 129.933 24.0981 129.88 23.9304C129.83 23.7668 129.749 23.6155 129.638 23.4765C129.528 23.3375 129.385 23.2352 129.209 23.1534C129.033 23.0717 128.816 23.0348 128.555 23.0348C128.092 23.0348 127.733 23.1616 127.479 23.4192C127.221 23.6769 127.054 24.0081 126.976 24.4212H129.986Z" fill="#C31632"/>
<path d="M140.397 21.5918V28.7442H138.229V26.0656H135.563V28.7442H133.396V21.5918H135.563V24.2417H138.229V21.5918H140.397Z" fill="#C31632"/>
<path d="M148.244 21.5918V23.4443H145.97V28.7442H143.803V23.4443H141.529V21.5918H148.244Z" fill="#C31632"/>
<path d="M153.647 28.7455L153.585 28.083C153.344 28.3652 153.041 28.5778 152.673 28.7291C152.305 28.8804 151.896 28.954 151.446 28.954C151.197 28.954 150.931 28.9172 150.657 28.8477C150.379 28.7782 150.126 28.6555 149.888 28.4878C149.651 28.3202 149.455 28.0871 149.3 27.8008C149.144 27.5146 149.066 27.1629 149.066 26.7376C149.066 26.3164 149.148 25.9442 149.316 25.6171C149.479 25.2899 149.708 25.02 149.999 24.8033C150.289 24.5865 150.633 24.423 151.029 24.3085C151.426 24.194 151.855 24.1367 152.317 24.1367C152.567 24.1367 152.82 24.1449 153.07 24.1572C153.319 24.1735 153.491 24.1858 153.581 24.194V24.0426C153.581 23.8627 153.544 23.7073 153.467 23.5765C153.393 23.4456 153.291 23.3393 153.164 23.2534C153.037 23.1675 152.894 23.1062 152.735 23.0735C152.575 23.0407 152.403 23.0203 152.223 23.0203C151.741 23.0203 151.344 23.0816 151.025 23.2002C150.706 23.3188 150.44 23.4579 150.22 23.6051L149.332 22.2801C149.484 22.1697 149.655 22.0593 149.852 21.9489C150.048 21.8385 150.273 21.7362 150.526 21.6463C150.784 21.5563 151.074 21.4827 151.401 21.4295C151.729 21.3764 152.101 21.3477 152.526 21.3477C153.602 21.3477 154.391 21.6422 154.906 22.2269C155.417 22.8158 155.675 23.601 155.675 24.5824V28.7373H153.647V28.7455ZM153.585 25.5516C153.536 25.5435 153.438 25.5312 153.299 25.5148C153.16 25.4985 153 25.4944 152.816 25.4944C152.211 25.4944 151.786 25.5844 151.536 25.7643C151.283 25.9442 151.16 26.1978 151.16 26.5167C151.16 27.1179 151.512 27.4205 152.215 27.4205C152.387 27.4205 152.555 27.3919 152.718 27.3387C152.886 27.2855 153.029 27.2038 153.156 27.1056C153.283 27.0034 153.385 26.8807 153.467 26.7294C153.548 26.5781 153.585 26.4022 153.585 26.2019V25.5516Z" fill="#C31632"/>
<path d="M65.1518 42.0477C65.0782 42.1663 64.9678 42.3012 64.8165 42.4485C64.6652 42.5998 64.4812 42.7429 64.2685 42.8779C64.0518 43.0128 63.8023 43.1232 63.5201 43.2173C63.238 43.3113 62.9272 43.3563 62.5877 43.3563C62.1052 43.3563 61.6595 43.2704 61.2628 43.0987C60.862 42.9269 60.5185 42.6897 60.2322 42.3871C59.946 42.0804 59.7211 41.7246 59.5616 41.3075C59.4021 40.8904 59.3203 40.4406 59.3203 39.9457C59.3203 39.4673 59.4021 39.0174 59.5616 38.6003C59.7211 38.1791 59.946 37.8152 60.2322 37.5003C60.5226 37.1854 60.8661 36.94 61.271 36.7601C61.6717 36.5802 62.1216 36.4902 62.6123 36.4902C62.9599 36.4902 63.2707 36.5311 63.5447 36.617C63.8227 36.7028 64.0599 36.8092 64.2685 36.9359C64.473 37.0627 64.6488 37.2018 64.8001 37.3531C64.9473 37.5044 65.0659 37.6475 65.16 37.7865L64.4934 38.355C64.4157 38.2445 64.3217 38.126 64.2153 38.0074C64.1049 37.8847 63.9781 37.7784 63.8268 37.6802C63.6755 37.5821 63.5038 37.5003 63.3034 37.4348C63.1071 37.3694 62.8822 37.3367 62.6286 37.3367C62.2688 37.3367 61.9457 37.4062 61.6595 37.5412C61.3732 37.6802 61.1319 37.8642 60.9315 38.1014C60.7312 38.3386 60.5798 38.6126 60.4735 38.9275C60.3672 39.2424 60.3181 39.5777 60.3181 39.9294C60.3181 40.2811 60.3713 40.6164 60.4776 40.9272C60.588 41.238 60.7393 41.5079 60.9356 41.7369C61.1319 41.9659 61.3691 42.1458 61.6513 42.2767C61.9334 42.4076 62.2483 42.473 62.5959 42.473C62.8904 42.473 63.1439 42.4362 63.3566 42.3585C63.5692 42.2849 63.7491 42.1949 63.8964 42.0886C64.0436 41.9823 64.1663 41.8759 64.2603 41.7696C64.3544 41.6633 64.4362 41.5733 64.5016 41.4997L65.1518 42.0477Z" fill="#C31632"/>
<path d="M69.1094 43.1956L69.0889 42.6353C68.9622 42.8071 68.815 42.938 68.6432 43.0361C68.4714 43.1343 68.2752 43.212 68.0584 43.261C67.8867 43.3019 67.7231 43.3183 67.5595 43.3183C67.3673 43.3183 67.1792 43.2937 66.9952 43.2447C66.8071 43.1956 66.6394 43.1138 66.484 42.9993C66.3286 42.8848 66.2059 42.7335 66.1119 42.5495C66.0178 42.3614 65.9688 42.1364 65.9688 41.8665C65.9688 41.3758 66.1405 40.9832 66.4799 40.6847C66.8193 40.3862 67.3264 40.239 68.0012 40.239C68.1116 40.239 68.2261 40.243 68.3406 40.2512C68.4551 40.2594 68.5614 40.2635 68.6637 40.2717C68.7659 40.2798 68.8518 40.2839 68.9213 40.2921C68.9949 40.3003 69.044 40.3044 69.0767 40.3126V40.1449C69.0767 39.7932 68.9744 39.5397 68.7741 39.3924C68.5737 39.2452 68.2874 39.1716 67.9194 39.1716C67.58 39.1716 67.306 39.2207 67.1056 39.3147C66.9052 39.4088 66.7334 39.5069 66.5944 39.6051L66.1814 39.008C66.3245 38.8854 66.5453 38.7586 66.848 38.6277C67.1465 38.501 67.5268 38.4355 67.9889 38.4355C68.6105 38.4355 69.0889 38.5787 69.4202 38.869C69.7555 39.1593 69.9232 39.5683 69.9232 40.0958V42.2877C69.9232 42.4595 69.9232 42.6231 69.9232 42.7867C69.9232 42.9502 69.9273 43.0893 69.9314 43.1997H69.1094V43.1956ZM69.0767 40.9955C69.0113 40.9832 68.8804 40.9669 68.6841 40.9464C68.4878 40.926 68.2874 40.9178 68.083 40.9178C67.8131 40.9178 67.6004 40.9464 67.4368 41.0078C67.2733 41.0691 67.1465 41.1427 67.0565 41.2327C66.9665 41.3267 66.9052 41.4208 66.8766 41.5271C66.8439 41.6294 66.8275 41.7316 66.8275 41.8297C66.8275 42.0996 66.9134 42.2959 67.077 42.4268C67.2446 42.5576 67.4655 42.6231 67.7394 42.6231C67.9235 42.6231 68.0953 42.5945 68.2589 42.5331C68.4225 42.4718 68.5655 42.3941 68.6841 42.2918C68.8027 42.1896 68.9008 42.0751 68.9663 41.9402C69.0358 41.8052 69.0686 41.6662 69.0686 41.523V40.9955H69.0767Z" fill="#C31632"/>
<path d="M75.4723 43.1975H74.589V41.2345H72.1353V43.1975H71.252V38.5723H72.1353V40.4657H74.589V38.5723H75.4723V43.1975Z" fill="#C31632"/>
<path d="M77.6818 43.1975H76.8066V38.5723H77.6818V40.4576H78.3402C78.5283 40.4576 78.6796 40.4085 78.7859 40.3144C78.8963 40.2204 79.0027 40.0854 79.1172 39.9055L79.9596 38.5723H80.8715L79.9391 40.0936C79.8287 40.2694 79.7142 40.4207 79.5956 40.5393C79.477 40.662 79.3339 40.752 79.1621 40.8174C79.3175 40.8624 79.4566 40.9401 79.5711 41.0423C79.6856 41.1487 79.8001 41.2959 79.9187 41.484L81.0187 43.1934H80.0087L79.0476 41.6803C78.9618 41.5494 78.8718 41.4431 78.7736 41.3572C78.6755 41.2713 78.5201 41.2305 78.3116 41.2305H77.6818V43.1975Z" fill="#C31632"/>
<path d="M83.243 39.3695H81.6113V38.5762H85.7539V39.3695H84.1222V43.1972H83.2389V39.3695H83.243Z" fill="#C31632"/>
<path d="M85.8398 40.0234H88.7188V40.8699H85.8398V40.0234Z" fill="#C31632"/>
<path d="M95.5619 36.6484V43.1996H94.6213V37.4949H91.0676V43.1996H90.123V36.6484H95.5619Z" fill="#C31632"/>
<path d="M99.1837 42.5799C99.3596 42.5799 99.5232 42.5594 99.6786 42.5226C99.834 42.4817 99.973 42.4326 100.096 42.3754C100.218 42.3181 100.325 42.2527 100.415 42.1873C100.505 42.1218 100.574 42.0605 100.627 41.9992L101.126 42.5308C101.069 42.5962 100.983 42.6739 100.873 42.768C100.758 42.862 100.623 42.9479 100.456 43.0338C100.288 43.1197 100.096 43.1892 99.883 43.2505C99.6663 43.3078 99.425 43.3405 99.1551 43.3405C98.7871 43.3405 98.4558 43.2832 98.1614 43.1646C97.867 43.0461 97.6134 42.8784 97.4008 42.6657C97.1881 42.449 97.0245 42.1914 96.91 41.8888C96.7955 41.5861 96.7383 41.259 96.7383 40.895C96.7383 40.5433 96.7955 40.2162 96.9059 39.9136C97.0164 39.615 97.1758 39.3533 97.3762 39.1325C97.5807 38.9117 97.822 38.744 98.1082 38.6213C98.3904 38.4986 98.7053 38.4414 99.0447 38.4414C99.425 38.4414 99.7522 38.515 100.03 38.6663C100.308 38.8176 100.537 39.018 100.717 39.2715C100.897 39.5251 101.028 39.8113 101.114 40.1344C101.2 40.4575 101.241 40.7928 101.241 41.1404H97.6093C97.6625 41.5616 97.822 41.9051 98.0837 42.175C98.3536 42.4449 98.7175 42.5799 99.1837 42.5799ZM100.333 40.4779C100.321 40.3021 100.28 40.1344 100.218 39.9749C100.157 39.8195 100.067 39.6805 99.9566 39.5619C99.8462 39.4433 99.7113 39.3492 99.5518 39.2838C99.3923 39.2143 99.2042 39.1816 98.9956 39.1816C98.7789 39.1816 98.5908 39.2184 98.4313 39.2879C98.2718 39.3615 98.1328 39.4555 98.0223 39.5741C97.9119 39.6927 97.822 39.8318 97.7565 39.9872C97.6911 40.1426 97.6461 40.3061 97.6175 40.4779H100.333Z" fill="#C31632"/>
<path d="M103.277 39.3695H101.646V38.5762H105.788V39.3695H104.156V43.1972H103.273V39.3695H103.277Z" fill="#C31632"/>
<path d="M108.61 42.5799C108.785 42.5799 108.949 42.5594 109.104 42.5226C109.26 42.4817 109.399 42.4326 109.521 42.3754C109.644 42.3181 109.75 42.2527 109.84 42.1873C109.93 42.1218 110 42.0605 110.053 41.9992L110.552 42.5308C110.495 42.5962 110.409 42.6739 110.298 42.768C110.184 42.862 110.049 42.9479 109.881 43.0338C109.714 43.1197 109.521 43.1892 109.309 43.2505C109.092 43.3078 108.851 43.3405 108.581 43.3405C108.213 43.3405 107.882 43.2832 107.587 43.1646C107.293 43.0461 107.039 42.8784 106.827 42.6657C106.614 42.449 106.45 42.1914 106.336 41.8888C106.221 41.5861 106.164 41.259 106.164 40.895C106.164 40.5433 106.221 40.2162 106.332 39.9136C106.442 39.615 106.602 39.3533 106.802 39.1325C107.006 38.9117 107.248 38.744 107.534 38.6213C107.816 38.4986 108.131 38.4414 108.47 38.4414C108.851 38.4414 109.178 38.515 109.456 38.6663C109.734 38.8176 109.963 39.018 110.143 39.2715C110.323 39.5251 110.454 39.8113 110.54 40.1344C110.626 40.4575 110.667 40.7928 110.667 41.1404H107.035C107.088 41.5616 107.248 41.9051 107.509 42.175C107.779 42.4449 108.143 42.5799 108.61 42.5799ZM109.755 40.4779C109.742 40.3021 109.701 40.1344 109.64 39.9749C109.579 39.8195 109.489 39.6805 109.378 39.5619C109.268 39.4433 109.133 39.3492 108.973 39.2838C108.814 39.2143 108.626 39.1816 108.417 39.1816C108.201 39.1816 108.012 39.2184 107.853 39.2879C107.694 39.3615 107.554 39.4555 107.444 39.5741C107.334 39.6927 107.244 39.8318 107.178 39.9872C107.113 40.1426 107.068 40.3061 107.039 40.4779H109.755Z" fill="#C31632"/>
<path d="M111.743 45.1591V39.5729C111.743 39.3685 111.743 39.1926 111.743 39.0413C111.743 38.89 111.739 38.7346 111.73 38.571H112.577L112.606 39.2172C112.663 39.1395 112.736 39.0536 112.822 38.9636C112.908 38.8696 113.015 38.7878 113.141 38.706C113.268 38.6283 113.419 38.5588 113.595 38.5056C113.767 38.4484 113.967 38.4238 114.188 38.4238C114.528 38.4238 114.826 38.4892 115.084 38.6242C115.341 38.7592 115.55 38.9391 115.718 39.164C115.885 39.3889 116.012 39.6466 116.098 39.941C116.184 40.2313 116.225 40.538 116.225 40.857C116.225 41.2823 116.155 41.6504 116.02 41.9612C115.881 42.2719 115.701 42.5296 115.472 42.7341C115.247 42.9385 114.99 43.0857 114.708 43.1839C114.425 43.282 114.135 43.3311 113.841 43.3311C113.567 43.3311 113.334 43.2984 113.137 43.2371C112.941 43.1757 112.773 43.1062 112.622 43.0367V45.1591H111.743ZM112.614 42.2065C112.708 42.2842 112.851 42.366 113.055 42.4478C113.26 42.5296 113.493 42.5705 113.763 42.5705C114.233 42.5705 114.609 42.4151 114.892 42.1043C115.174 41.7935 115.313 41.3723 115.313 40.8407C115.313 40.6321 115.288 40.4276 115.239 40.2313C115.19 40.035 115.112 39.8592 115.002 39.7038C114.892 39.5484 114.757 39.4257 114.589 39.3317C114.421 39.2376 114.217 39.1885 113.976 39.1885C113.706 39.1885 113.485 39.2417 113.309 39.3521C113.133 39.4625 112.994 39.5975 112.892 39.7611C112.79 39.9246 112.72 40.1005 112.675 40.2927C112.634 40.4808 112.61 40.6607 112.61 40.8243V42.2065H112.614Z" fill="#C31632"/>
<path d="M119.733 38.7684C120.048 38.7684 120.338 38.8256 120.604 38.9401C120.87 39.0546 121.095 39.2141 121.287 39.4145C121.475 39.619 121.623 39.8561 121.729 40.126C121.835 40.3959 121.884 40.6945 121.884 41.0134C121.884 41.3406 121.827 41.6473 121.717 41.9295C121.606 42.2157 121.447 42.4611 121.246 42.6656C121.042 42.87 120.801 43.0336 120.514 43.1522C120.228 43.2708 119.913 43.328 119.566 43.328C119.283 43.328 119.001 43.2831 118.719 43.189C118.437 43.0949 118.183 42.9355 117.958 42.7024C117.734 42.4693 117.55 42.1585 117.402 41.77C117.259 41.3815 117.186 40.8867 117.186 40.2814C117.186 38.1468 118.192 36.9772 120.208 36.7768L121.357 36.6582L121.463 37.4148L120.298 37.5415C119.909 37.5824 119.582 37.6519 119.304 37.7542C119.03 37.8564 118.801 37.9914 118.617 38.1549C118.433 38.3226 118.294 38.5271 118.196 38.7724C118.097 39.0178 118.036 39.3082 118.008 39.6394C118.2 39.345 118.445 39.1241 118.744 38.9769C119.05 38.842 119.377 38.7684 119.733 38.7684ZM119.545 42.5674C119.762 42.5674 119.958 42.5265 120.134 42.4488C120.31 42.3711 120.461 42.2607 120.584 42.1217C120.707 41.9826 120.805 41.8191 120.874 41.6309C120.944 41.4428 120.976 41.2424 120.976 41.0257C120.976 40.8171 120.944 40.6209 120.878 40.4368C120.813 40.2528 120.719 40.0933 120.592 39.9625C120.465 39.8316 120.318 39.7253 120.142 39.6476C119.966 39.574 119.766 39.5331 119.541 39.5331C119.32 39.5331 119.12 39.574 118.944 39.6517C118.768 39.7294 118.617 39.8398 118.49 39.9747C118.367 40.1138 118.273 40.2733 118.208 40.4491C118.142 40.629 118.11 40.8212 118.11 41.0257C118.11 41.2343 118.142 41.4346 118.212 41.6187C118.282 41.8068 118.376 41.9704 118.502 42.1094C118.625 42.2525 118.776 42.3629 118.952 42.4447C119.132 42.5265 119.328 42.5674 119.545 42.5674Z" fill="#C31632"/>
<path d="M122.579 44.318C122.644 44.3752 122.718 44.4284 122.804 44.4733C122.89 44.5183 122.992 44.5429 123.106 44.5429C123.213 44.5429 123.299 44.5224 123.372 44.4774C123.446 44.4365 123.511 44.3711 123.573 44.2812C123.634 44.1912 123.695 44.0808 123.757 43.9417C123.814 43.8027 123.883 43.6391 123.961 43.451L124.08 43.1566L122.039 38.5723H123.049L124.521 42.077L125.818 38.5723H126.779L124.705 43.6964C124.599 43.9499 124.501 44.1789 124.411 44.3752C124.317 44.5715 124.215 44.7351 124.1 44.87C123.986 45.005 123.855 45.1072 123.703 45.1726C123.552 45.2422 123.364 45.2749 123.143 45.2749C122.926 45.2749 122.742 45.2422 122.583 45.1808C122.428 45.1195 122.289 45.0336 122.17 44.9314L122.579 44.318Z" fill="#C31632"/>
<path d="M127.618 45.1591V39.5729C127.618 39.3685 127.618 39.1926 127.618 39.0413C127.618 38.89 127.614 38.7346 127.605 38.571H128.452L128.481 39.2172C128.538 39.1395 128.611 39.0536 128.697 38.9636C128.783 38.8696 128.89 38.7878 129.016 38.706C129.143 38.6283 129.294 38.5588 129.47 38.5056C129.642 38.4484 129.842 38.4238 130.063 38.4238C130.403 38.4238 130.701 38.4892 130.959 38.6242C131.216 38.7592 131.425 38.9391 131.593 39.164C131.76 39.3889 131.887 39.6466 131.973 39.941C132.059 40.2313 132.1 40.538 132.1 40.857C132.1 41.2823 132.03 41.6504 131.895 41.9612C131.756 42.2719 131.576 42.5296 131.347 42.7341C131.122 42.9385 130.865 43.0857 130.583 43.1839C130.3 43.282 130.01 43.3311 129.716 43.3311C129.442 43.3311 129.209 43.2984 129.012 43.2371C128.816 43.1757 128.648 43.1062 128.497 43.0367V45.1591H127.618ZM128.489 42.2065C128.583 42.2842 128.726 42.366 128.93 42.4478C129.135 42.5296 129.368 42.5705 129.638 42.5705C130.108 42.5705 130.484 42.4151 130.767 42.1043C131.049 41.7935 131.188 41.3723 131.188 40.8407C131.188 40.6321 131.163 40.4276 131.114 40.2313C131.065 40.035 130.987 39.8592 130.877 39.7038C130.767 39.5484 130.632 39.4257 130.464 39.3317C130.296 39.2376 130.092 39.1885 129.851 39.1885C129.581 39.1885 129.36 39.2417 129.184 39.3521C129.008 39.4625 128.869 39.5975 128.767 39.7611C128.665 39.9246 128.595 40.1005 128.55 40.2927C128.509 40.4808 128.485 40.6607 128.485 40.8243V42.2065H128.489Z" fill="#C31632"/>
<path d="M134.096 39.3698V43.1975H133.213V38.5723H136.358V39.3657H134.096V39.3698Z" fill="#C31632"/>
<path d="M140.99 42.5662C140.786 42.7952 140.536 42.9792 140.238 43.1224C139.939 43.2614 139.596 43.335 139.199 43.335C138.835 43.335 138.5 43.2737 138.201 43.1551C137.903 43.0324 137.653 42.8647 137.445 42.648C137.24 42.4313 137.081 42.1777 136.97 41.8833C136.86 41.5888 136.803 41.2699 136.803 40.9223C136.803 40.5706 136.864 40.2393 136.979 39.9367C137.097 39.63 137.261 39.3683 137.473 39.1475C137.686 38.9266 137.94 38.7508 138.238 38.6199C138.537 38.4932 138.86 38.4277 139.215 38.4277C139.588 38.4277 139.923 38.4972 140.217 38.6322C140.512 38.7671 140.765 38.9553 140.974 39.1924L140.393 39.7527C140.258 39.5809 140.091 39.4501 139.894 39.3519C139.698 39.2538 139.473 39.2047 139.224 39.2047C138.974 39.2047 138.757 39.2497 138.565 39.3438C138.373 39.4337 138.218 39.5564 138.087 39.7118C137.96 39.8672 137.862 40.043 137.792 40.2434C137.723 40.4438 137.69 40.6565 137.69 40.8773C137.69 41.094 137.723 41.3026 137.788 41.507C137.854 41.7115 137.952 41.8915 138.083 42.0469C138.214 42.2023 138.373 42.329 138.557 42.4231C138.745 42.5171 138.962 42.5662 139.211 42.5662C139.465 42.5662 139.698 42.513 139.915 42.4149C140.127 42.3127 140.303 42.1777 140.442 42.006L140.99 42.5662Z" fill="#C31632"/>
<path d="M142.77 43.1975H141.895V38.5723H142.77V40.4576H143.428C143.616 40.4576 143.767 40.4085 143.874 40.3144C143.984 40.2204 144.091 40.0854 144.205 39.9055L145.047 38.5723H145.959L145.027 40.0936C144.917 40.2694 144.802 40.4207 144.684 40.5393C144.565 40.662 144.422 40.752 144.25 40.8174C144.405 40.8624 144.544 40.9401 144.659 41.0423C144.773 41.1487 144.888 41.2959 145.007 41.484L146.107 43.1934H145.097L144.136 41.6803C144.05 41.5494 143.96 41.4431 143.862 41.3572C143.763 41.2713 143.608 41.2305 143.399 41.2305H142.77V43.1975Z" fill="#C31632"/>
<path d="M147.779 41.9993L150.31 38.5723H151.124V43.1975H150.269V39.7296L147.705 43.1975H146.92V38.5723H147.775V41.9993H147.779Z" fill="#C31632"/>
<path d="M153.316 41.9982L155.847 38.5713H156.661V43.1964H155.806V39.7286L153.242 43.1964H152.457V38.5713H153.312V41.9982H153.316ZM154.563 37.8557C154.334 37.8557 154.134 37.8189 153.958 37.7493C153.782 37.6798 153.639 37.5817 153.524 37.4631C153.41 37.3445 153.324 37.2095 153.263 37.0541C153.205 36.8987 153.173 36.7433 153.173 36.5879H153.872C153.872 36.7597 153.925 36.911 154.04 37.046C154.15 37.1809 154.326 37.2463 154.559 37.2463C154.796 37.2463 154.968 37.1809 155.078 37.046C155.189 36.911 155.246 36.7597 155.246 36.5879H155.941C155.941 36.7433 155.913 36.9028 155.851 37.0541C155.794 37.2095 155.704 37.3445 155.59 37.4631C155.475 37.5817 155.332 37.6757 155.16 37.7493C154.992 37.8189 154.792 37.8557 154.563 37.8557Z" fill="#C31632"/>
<path d="M60.3188 50.4967V54.3244H59.4355V49.6992H62.5802V50.4926H60.3188V50.4967Z" fill="#C31632"/>
<path d="M65.4422 54.4624C65.0865 54.4624 64.7634 54.397 64.469 54.2661C64.1745 54.1352 63.921 53.9594 63.7083 53.7345C63.4957 53.5136 63.328 53.2519 63.2094 52.9534C63.0867 52.6549 63.0254 52.34 63.0254 52.0046C63.0254 51.6693 63.0867 51.3544 63.2094 51.0559C63.328 50.7574 63.4957 50.4997 63.7083 50.2748C63.921 50.054 64.1745 49.8741 64.469 49.7432C64.7634 49.6123 65.0865 49.5469 65.4422 49.5469C65.7898 49.5469 66.1088 49.6123 66.4032 49.7432C66.6977 49.8741 66.9512 50.0499 67.168 50.2748C67.3847 50.4957 67.5524 50.7574 67.675 51.0559C67.7977 51.3544 67.855 51.6693 67.855 52.0046C67.855 52.34 67.7936 52.6549 67.675 52.9534C67.5565 53.2519 67.3847 53.5095 67.168 53.7345C66.9512 53.9553 66.6977 54.1352 66.4032 54.2661C66.1088 54.397 65.7857 54.4624 65.4422 54.4624ZM65.4422 53.6977C65.6794 53.6977 65.888 53.6486 66.0802 53.5545C66.2683 53.4605 66.4319 53.3337 66.5627 53.1783C66.6936 53.0229 66.7958 52.843 66.8613 52.6385C66.9308 52.434 66.9635 52.2255 66.9635 52.0087C66.9635 51.8002 66.9308 51.5916 66.8613 51.3912C66.7917 51.1868 66.6895 51.0068 66.5586 50.8514C66.4237 50.696 66.2642 50.5652 66.0761 50.4711C65.888 50.373 65.6794 50.3239 65.4422 50.3239C65.205 50.3239 64.9924 50.373 64.8043 50.467C64.6121 50.5611 64.4526 50.6879 64.3217 50.8432C64.1909 50.9986 64.0927 51.1786 64.0232 51.3831C63.9537 51.5875 63.921 51.7961 63.921 52.0128C63.921 52.2214 63.9537 52.4299 64.0232 52.6303C64.0927 52.8348 64.195 53.0147 64.3258 53.1701C64.4608 53.3255 64.6203 53.4564 64.8084 53.5504C64.9924 53.6486 65.205 53.6977 65.4422 53.6977Z" fill="#C31632"/>
<path d="M72.9062 53.699C72.7017 53.928 72.4522 54.112 72.1537 54.2552C71.8552 54.3942 71.5117 54.4678 71.1191 54.4678C70.751 54.4678 70.4198 54.4065 70.1213 54.2879C69.8227 54.1652 69.5733 53.9975 69.3647 53.7808C69.1602 53.5641 69.0008 53.3105 68.8903 53.0161C68.7758 52.7216 68.7227 52.4027 68.7227 52.0551C68.7227 51.7034 68.7799 51.3721 68.8985 51.0695C69.0171 50.7628 69.1807 50.5011 69.3933 50.2803C69.606 50.0594 69.8595 49.8836 70.1581 49.7527C70.4566 49.6259 70.7837 49.5605 71.1354 49.5605C71.5076 49.5605 71.8429 49.63 72.1373 49.765C72.4318 49.8999 72.6853 50.0881 72.8939 50.3252L72.3132 50.8855C72.1741 50.7137 72.0106 50.5829 71.8102 50.4847C71.6139 50.3866 71.389 50.3375 71.1436 50.3375C70.8942 50.3375 70.6774 50.3825 70.4852 50.4765C70.2971 50.5665 70.1376 50.6892 70.0108 50.8446C69.8841 51 69.7859 51.1758 69.7164 51.3762C69.6469 51.5766 69.6142 51.7892 69.6142 52.0101C69.6142 52.2268 69.6469 52.4354 69.7123 52.6398C69.7778 52.8443 69.8759 53.0242 70.0068 53.1796C70.1376 53.335 70.2971 53.4618 70.4852 53.5559C70.6692 53.6499 70.8901 53.699 71.1354 53.699C71.3931 53.699 71.6262 53.6458 71.8388 53.5477C72.0515 53.4455 72.2273 53.3105 72.3663 53.1387L72.9062 53.699Z" fill="#C31632"/>
<path d="M73.9968 55.4448C74.0622 55.5021 74.1359 55.5553 74.2217 55.6002C74.3076 55.6452 74.4098 55.6698 74.5244 55.6698C74.6307 55.6698 74.7166 55.6493 74.7902 55.6043C74.8638 55.5634 74.9292 55.498 74.9905 55.408C75.0519 55.3181 75.1132 55.2077 75.1746 55.0686C75.2318 54.9296 75.3013 54.766 75.379 54.5779L75.4976 54.2835L73.457 49.6992H74.4671L75.9393 53.2039L77.2356 49.6992H78.1966L76.1233 54.8233C76.017 55.0768 75.9188 55.3058 75.8289 55.5021C75.7348 55.6984 75.6326 55.862 75.5181 55.9969C75.4036 56.1319 75.2727 56.2341 75.1214 56.2995C74.9701 56.3691 74.782 56.4018 74.5612 56.4018C74.3444 56.4018 74.1604 56.3691 74.0009 56.3077C73.8455 56.2464 73.7065 56.1605 73.5879 56.0583L73.9968 55.4448Z" fill="#C31632"/>
<path d="M82.1022 53.5801H82.5929V55.543H81.7955V54.3244H78.1723V55.543H77.3789V53.5801H77.8492C78.025 53.3429 78.1763 53.0934 78.299 52.8276C78.4217 52.5618 78.5239 52.2715 78.6016 51.9566C78.6793 51.6417 78.7407 51.2982 78.7897 50.9261C78.8347 50.5539 78.8675 50.145 78.8879 49.6992H82.0981V53.5801H82.1022ZM81.2475 50.4558H79.6363C79.6117 50.8279 79.5749 51.1673 79.5299 51.474C79.4849 51.7766 79.4277 52.0547 79.3582 52.3042C79.2887 52.5536 79.211 52.7826 79.1169 52.9912C79.0269 53.1998 78.9165 53.3961 78.7938 53.5801H81.2475V50.4558Z" fill="#C31632"/>
<path d="M86.4905 54.3284L86.47 53.7682C86.3473 53.94 86.196 54.0708 86.0243 54.169C85.8484 54.2671 85.6562 54.3448 85.4395 54.3939C85.2677 54.4348 85.1001 54.4511 84.9365 54.4511C84.7484 54.4511 84.5602 54.4266 84.3721 54.3775C84.184 54.3284 84.0123 54.2467 83.861 54.1322C83.7056 54.0177 83.5829 53.8663 83.4888 53.6823C83.3948 53.4942 83.3457 53.2693 83.3457 52.9994C83.3457 52.5087 83.5175 52.1161 83.8569 51.8175C84.1963 51.519 84.7034 51.3718 85.3781 51.3718C85.4886 51.3718 85.6031 51.3759 85.7176 51.3841C85.8321 51.3922 85.9384 51.3963 86.0406 51.4045C86.1429 51.4127 86.2287 51.4168 86.3023 51.425C86.3759 51.4331 86.425 51.4372 86.4577 51.4454V51.2777C86.4577 50.9261 86.3555 50.6725 86.1551 50.5253C85.9507 50.3781 85.6685 50.3045 85.3004 50.3045C84.961 50.3045 84.6911 50.3535 84.4866 50.4476C84.2822 50.5416 84.1145 50.6398 83.9755 50.7379L83.5624 50.1409C83.7056 50.0182 83.9305 49.8914 84.229 49.7606C84.5316 49.6338 84.9119 49.5684 85.37 49.5684C85.9915 49.5684 86.47 49.7115 86.8012 50.0018C87.1366 50.2922 87.3042 50.7011 87.3042 51.2287V53.4206C87.3042 53.5924 87.3042 53.7559 87.3042 53.9195C87.3042 54.0831 87.3083 54.2221 87.3165 54.3325H86.4905V54.3284ZM86.4618 52.1283C86.3964 52.1161 86.2655 52.0997 86.0693 52.0793C85.873 52.0588 85.6726 52.0506 85.4722 52.0506C85.2023 52.0506 84.9896 52.0793 84.822 52.1406C84.6584 52.2019 84.5316 52.2756 84.4417 52.3655C84.3517 52.4596 84.2944 52.5536 84.2617 52.66C84.229 52.7622 84.2127 52.8644 84.2127 52.9626C84.2127 53.2325 84.2944 53.4288 84.4621 53.5596C84.6298 53.6905 84.8506 53.7559 85.1246 53.7559C85.3086 53.7559 85.4804 53.7273 85.6439 53.666C85.8075 53.6046 85.9507 53.5269 86.0693 53.4247C86.1919 53.3224 86.286 53.2079 86.3555 53.073C86.425 52.938 86.4577 52.799 86.4577 52.6559V52.1283H86.4618Z" fill="#C31632"/>
<path d="M88.6234 56.2918V50.7057C88.6234 50.5012 88.6234 50.3254 88.6234 50.1741C88.6234 50.0228 88.6193 49.8674 88.6152 49.7038H89.4576L89.4863 50.3499C89.5435 50.2722 89.6171 50.1863 89.703 50.0964C89.7889 50.0023 89.8952 49.9205 90.022 49.8387C90.1487 49.761 90.3001 49.6915 90.4718 49.6384C90.6477 49.5811 90.8439 49.5566 91.0648 49.5566C91.4042 49.5566 91.7027 49.622 91.9603 49.7569C92.2139 49.8919 92.4265 50.0718 92.5942 50.2967C92.7619 50.5217 92.8886 50.7793 92.9745 51.0737C93.0604 51.3641 93.1013 51.6708 93.1013 51.9898C93.1013 52.4151 93.0318 52.7831 92.8968 53.0939C92.7619 53.4047 92.5779 53.6623 92.3529 53.8668C92.128 54.0713 91.8704 54.2185 91.5882 54.3166C91.302 54.4148 91.0157 54.4639 90.7172 54.4639C90.4432 54.4639 90.2101 54.4311 90.0138 54.3698C89.8175 54.3085 89.6498 54.2389 89.4985 54.1694V56.2918H88.6234ZM89.4985 53.3352C89.5926 53.4129 89.7357 53.4947 89.9402 53.5765C90.1406 53.6582 90.3777 53.6991 90.6476 53.6991C91.1179 53.6991 91.4942 53.5437 91.7763 53.2329C92.0585 52.9222 92.1975 52.5009 92.1975 51.9693C92.1975 51.7608 92.173 51.5563 92.1239 51.36C92.0749 51.1637 91.9972 50.9879 91.8867 50.8325C91.7804 50.6771 91.6414 50.5544 91.4737 50.4603C91.3061 50.3663 91.1016 50.3172 90.8603 50.3172C90.5904 50.3172 90.3696 50.3704 90.1937 50.4808C90.0179 50.5912 89.8788 50.7261 89.7766 50.8897C89.6744 51.0533 89.6008 51.2291 89.5599 51.4213C89.5149 51.6094 89.4944 51.7894 89.4944 51.953V53.3352H89.4985Z" fill="#C31632"/>
<path d="M98.1485 53.699C97.944 53.928 97.6946 54.112 97.396 54.2552C97.0975 54.3942 96.754 54.4678 96.3573 54.4678C95.9934 54.4678 95.658 54.4065 95.3595 54.2879C95.061 54.1652 94.8115 53.9975 94.603 53.7808C94.3985 53.5641 94.239 53.3105 94.1286 53.0161C94.0182 52.7216 93.9609 52.4027 93.9609 52.0551C93.9609 51.7034 94.0223 51.3721 94.1368 51.0695C94.2554 50.7628 94.419 50.5011 94.6316 50.2803C94.8443 50.0594 95.0978 49.8836 95.3963 49.7527C95.6949 49.6259 96.0179 49.5605 96.3737 49.5605C96.7458 49.5605 97.0812 49.63 97.3756 49.765C97.67 49.8999 97.9236 50.0881 98.1321 50.3252L97.5514 50.8855C97.4165 50.7137 97.2488 50.5829 97.0525 50.4847C96.8562 50.3866 96.6313 50.3375 96.3819 50.3375C96.1324 50.3375 95.9157 50.3825 95.7235 50.4765C95.5313 50.5665 95.3759 50.6892 95.245 50.8446C95.1182 51 95.0201 51.1758 94.9506 51.3762C94.8811 51.5766 94.8483 51.7892 94.8483 52.0101C94.8483 52.2268 94.8811 52.4354 94.9465 52.6398C95.0119 52.8443 95.1101 53.0242 95.2409 53.1796C95.3718 53.335 95.5313 53.4618 95.7153 53.5559C95.9034 53.6499 96.1202 53.699 96.3696 53.699C96.6231 53.699 96.8562 53.6458 97.073 53.5477C97.2856 53.4455 97.4615 53.3105 97.6005 53.1387L98.1485 53.699Z" fill="#C31632"/>
<path d="M100.53 50.4964H98.8984V49.7031H103.041V50.4964H101.409V54.3241H100.526V50.4964H100.53Z" fill="#C31632"/>
<path d="M103.969 49.7031H106.386C106.868 49.7031 107.232 49.8135 107.474 50.0302C107.715 50.2511 107.838 50.5251 107.838 50.8604C107.838 51.1303 107.768 51.3511 107.625 51.531C107.482 51.711 107.31 51.8337 107.097 51.8991C107.355 51.9563 107.576 52.079 107.764 52.259C107.956 52.4389 108.05 52.7047 108.05 53.0605C108.05 53.2895 108.009 53.4817 107.923 53.6412C107.838 53.7966 107.723 53.9315 107.576 54.0338C107.429 54.1401 107.257 54.2137 107.065 54.2587C106.872 54.3037 106.672 54.3282 106.459 54.3282H103.965V49.7031H103.969ZM104.82 51.6374H106.185C106.423 51.6374 106.607 51.5842 106.75 51.482C106.889 51.3756 106.962 51.2121 106.962 50.9912C106.962 50.7704 106.893 50.6109 106.754 50.5251C106.619 50.4351 106.447 50.3901 106.243 50.3901H104.82V51.6374ZM104.82 53.6412H106.341C106.447 53.6412 106.545 53.633 106.643 53.6126C106.742 53.5921 106.832 53.5594 106.909 53.5103C106.987 53.4612 107.048 53.3958 107.097 53.3099C107.142 53.2241 107.167 53.1136 107.167 52.9746C107.167 52.8397 107.138 52.7252 107.089 52.6352C107.036 52.5452 106.962 52.4798 106.864 52.4307C106.766 52.3816 106.647 52.3489 106.508 52.3326C106.374 52.3162 106.222 52.308 106.059 52.308H104.82V53.6412Z" fill="#C31632"/>
<path d="M111.334 53.7069C111.51 53.7069 111.678 53.6864 111.829 53.6496C111.985 53.6087 112.124 53.5596 112.246 53.5024C112.373 53.4451 112.479 53.3797 112.565 53.3143C112.655 53.2488 112.725 53.1875 112.778 53.1262L113.281 53.6578C113.224 53.7232 113.138 53.8009 113.023 53.895C112.913 53.989 112.774 54.0749 112.606 54.1608C112.438 54.2467 112.246 54.3162 112.03 54.3775C111.813 54.4348 111.572 54.4675 111.302 54.4675C110.934 54.4675 110.606 54.4102 110.308 54.2916C110.013 54.173 109.76 54.0054 109.547 53.7927C109.335 53.576 109.171 53.3184 109.057 53.0157C108.942 52.7131 108.885 52.386 108.885 52.022C108.885 51.6703 108.938 51.3432 109.052 51.0406C109.163 50.742 109.322 50.4803 109.523 50.2595C109.727 50.0387 109.968 49.871 110.255 49.7483C110.541 49.6256 110.852 49.5684 111.191 49.5684C111.572 49.5684 111.899 49.642 112.177 49.7933C112.455 49.9446 112.684 50.145 112.864 50.3985C113.044 50.6521 113.175 50.9383 113.26 51.2614C113.346 51.5845 113.387 51.9198 113.387 52.2674H109.752C109.805 52.6886 109.964 53.0321 110.23 53.302C110.504 53.5719 110.868 53.7069 111.334 53.7069ZM112.483 51.609C112.471 51.4331 112.43 51.2655 112.369 51.106C112.308 50.9506 112.222 50.8116 112.111 50.693C112.001 50.5744 111.862 50.4803 111.702 50.4149C111.543 50.3454 111.359 50.3126 111.146 50.3126C110.929 50.3126 110.741 50.3494 110.582 50.419C110.422 50.4926 110.283 50.5866 110.173 50.7052C110.063 50.8238 109.973 50.9629 109.907 51.1183C109.842 51.2737 109.797 51.4372 109.772 51.609H112.483Z" fill="#C31632"/>
<path d="M118.699 54.3282H117.815V52.3653H115.362V54.3282H114.479V49.7031H115.362V51.5965H117.815V49.7031H118.699V54.3282Z" fill="#C31632"/>
<path d="M124.255 54.3282H123.372V52.3653H120.918V54.3282H120.035V49.7031H120.918V51.5965H123.372V49.7031H124.255V54.3282Z" fill="#C31632"/>
<path d="M126.473 49.7033V51.2532H127.728C128.248 51.2532 128.657 51.3882 128.968 51.6621C129.274 51.932 129.43 52.3042 129.43 52.7745C129.43 53.2529 129.274 53.6292 128.959 53.9072C128.644 54.1853 128.227 54.3244 127.704 54.3244H125.594V49.6992H126.473V49.7033ZM126.473 53.6291H127.593C127.921 53.6291 128.162 53.5555 128.321 53.4083C128.481 53.2611 128.559 53.0607 128.559 52.8031C128.559 52.2347 128.24 51.9484 127.598 51.9484H126.477V53.6291H126.473ZM131.127 54.3284H130.243V49.7033H131.127V54.3284Z" fill="#C31632"/>
<path d="M133.314 53.1292L135.845 49.7022H136.659V54.3274H135.804V50.8595L133.24 54.3274H132.455V49.7022H133.31V53.1292H133.314ZM134.557 48.9825C134.328 48.9825 134.128 48.9457 133.952 48.8762C133.776 48.8026 133.633 48.7085 133.518 48.5899C133.404 48.4713 133.318 48.3364 133.257 48.181C133.199 48.0256 133.167 47.8702 133.167 47.7148H133.866C133.866 47.8865 133.919 48.0378 134.034 48.1728C134.144 48.3077 134.32 48.3732 134.553 48.3732C134.79 48.3732 134.962 48.3077 135.072 48.1728C135.183 48.0378 135.24 47.8865 135.24 47.7148H135.935C135.935 47.8702 135.907 48.0297 135.845 48.181C135.788 48.3364 135.698 48.4713 135.583 48.5899C135.469 48.7085 135.326 48.8026 135.154 48.8762C134.991 48.9498 134.786 48.9825 134.557 48.9825Z" fill="#C31632"/>
<path d="M139.673 55.4448C139.738 55.5021 139.812 55.5553 139.898 55.6002C139.984 55.6452 140.086 55.6698 140.2 55.6698C140.307 55.6698 140.393 55.6493 140.466 55.6043C140.54 55.5634 140.605 55.498 140.667 55.408C140.728 55.3181 140.789 55.2077 140.846 55.0686C140.904 54.9296 140.973 54.766 141.051 54.5779L141.17 54.2835L139.129 49.6992H140.139L141.611 53.2039L142.908 49.6992H143.869L141.795 54.8233C141.689 55.0768 141.591 55.3058 141.501 55.5021C141.407 55.6984 141.304 55.862 141.19 55.9969C141.075 56.1319 140.941 56.2341 140.793 56.2995C140.642 56.3691 140.454 56.4018 140.233 56.4018C140.016 56.4018 139.832 56.3691 139.673 56.3077C139.517 56.2464 139.378 56.1605 139.26 56.0583L139.673 55.4448Z" fill="#C31632"/>
<path d="M148.923 54.3282H148.04V52.3653H145.586V54.3282H144.703V49.7031H145.586V51.5965H148.04V49.7031H148.923V54.3282Z" fill="#C31632"/>
<path d="M151.115 53.13L153.646 49.7031H154.46V54.3282H153.605V50.8604L151.041 54.3282H150.256V49.7031H151.111V53.13H151.115Z" fill="#C31632"/>
<path d="M155.799 49.7031H158.216C158.698 49.7031 159.062 49.8135 159.304 50.0302C159.545 50.2511 159.668 50.5251 159.668 50.8604C159.668 51.1303 159.598 51.3511 159.455 51.531C159.312 51.711 159.136 51.8337 158.927 51.8991C159.181 51.9563 159.406 52.079 159.594 52.259C159.782 52.4389 159.88 52.7047 159.88 53.0605C159.88 53.2895 159.835 53.4817 159.753 53.6412C159.668 53.7966 159.553 53.9315 159.406 54.0338C159.259 54.1401 159.087 54.2137 158.895 54.2587C158.703 54.3037 158.498 54.3282 158.289 54.3282H155.795V49.7031H155.799ZM156.654 51.6374H158.02C158.257 51.6374 158.445 51.5842 158.584 51.482C158.723 51.3797 158.797 51.2121 158.797 50.9912C158.797 50.7704 158.727 50.6109 158.592 50.5251C158.453 50.4351 158.285 50.3901 158.081 50.3901H156.658V51.6374H156.654ZM156.654 53.6412H158.175C158.281 53.6412 158.384 53.633 158.478 53.6126C158.576 53.5921 158.666 53.5594 158.743 53.5103C158.821 53.4612 158.882 53.3958 158.932 53.3099C158.976 53.2241 159.001 53.1136 159.001 52.9746C159.001 52.8397 158.976 52.7252 158.923 52.6352C158.87 52.5452 158.797 52.4798 158.698 52.4307C158.6 52.3816 158.482 52.3489 158.347 52.3326C158.208 52.3162 158.056 52.308 157.897 52.308H156.658V53.6412H156.654Z" fill="#C31632"/>
<path d="M163.162 53.7069C163.338 53.7069 163.502 53.6864 163.657 53.6496C163.812 53.6087 163.952 53.5596 164.074 53.5024C164.197 53.4451 164.303 53.3797 164.393 53.3143C164.483 53.2488 164.553 53.1875 164.606 53.1262L165.105 53.6578C165.047 53.7232 164.962 53.8009 164.851 53.895C164.737 53.989 164.602 54.0749 164.434 54.1608C164.266 54.2467 164.074 54.3162 163.862 54.3775C163.645 54.4348 163.404 54.4675 163.134 54.4675C162.766 54.4675 162.434 54.4102 162.14 54.2916C161.845 54.173 161.592 54.0054 161.379 53.7927C161.167 53.576 161.003 53.3184 160.889 53.0157C160.774 52.7131 160.717 52.386 160.717 52.022C160.717 51.6703 160.774 51.3432 160.884 51.0406C160.995 50.742 161.154 50.4803 161.355 50.2595C161.559 50.0387 161.801 49.871 162.087 49.7483C162.369 49.6256 162.684 49.5684 163.023 49.5684C163.404 49.5684 163.731 49.642 164.009 49.7933C164.287 49.9446 164.516 50.145 164.696 50.3985C164.876 50.6521 165.007 50.9383 165.092 51.2614C165.178 51.5845 165.219 51.9198 165.219 52.2674H161.588C161.641 52.6886 161.801 53.0321 162.062 53.302C162.332 53.5719 162.696 53.7069 163.162 53.7069ZM164.311 51.609C164.299 51.4331 164.258 51.2655 164.197 51.106C164.136 50.9506 164.046 50.8116 163.935 50.693C163.825 50.5744 163.69 50.4803 163.53 50.4149C163.371 50.3454 163.183 50.3126 162.974 50.3126C162.757 50.3126 162.569 50.3494 162.41 50.419C162.25 50.4926 162.111 50.5866 162.001 50.7052C161.89 50.8238 161.8 50.9629 161.735 51.1183C161.67 51.2737 161.625 51.4372 161.596 51.609H164.311Z" fill="#C31632"/>
<path d="M166.299 56.2918V50.7057C166.299 50.5012 166.299 50.3254 166.299 50.1741C166.299 50.0228 166.295 49.8674 166.287 49.7038H167.134L167.162 50.3499C167.22 50.2722 167.293 50.1863 167.379 50.0964C167.465 50.0023 167.571 49.9205 167.698 49.8387C167.825 49.761 167.976 49.6915 168.152 49.6384C168.324 49.5811 168.524 49.5566 168.745 49.5566C169.084 49.5566 169.383 49.622 169.64 49.7569C169.898 49.8919 170.107 50.0718 170.274 50.2967C170.442 50.5217 170.569 50.7793 170.655 51.0737C170.74 51.3641 170.781 51.6708 170.781 51.9898C170.781 52.4151 170.712 52.7831 170.577 53.0939C170.438 53.4047 170.258 53.6623 170.029 53.8668C169.804 54.0713 169.546 54.2185 169.264 54.3166C168.982 54.4148 168.692 54.4639 168.397 54.4639C168.123 54.4639 167.89 54.4311 167.694 54.3698C167.502 54.3085 167.33 54.2389 167.179 54.1694V56.2918H166.299ZM167.17 53.3352C167.264 53.4129 167.408 53.4947 167.612 53.5765C167.817 53.6582 168.05 53.6991 168.32 53.6991C168.79 53.6991 169.166 53.5437 169.448 53.2329C169.73 52.9222 169.869 52.5009 169.869 51.9693C169.869 51.7608 169.845 51.5563 169.796 51.36C169.747 51.1637 169.669 50.9879 169.559 50.8325C169.448 50.6771 169.313 50.5544 169.146 50.4603C168.978 50.3663 168.773 50.3172 168.532 50.3172C168.262 50.3172 168.041 50.3704 167.866 50.4808C167.69 50.5912 167.551 50.7261 167.449 50.8897C167.346 51.0533 167.277 51.2291 167.232 51.4213C167.191 51.6094 167.166 51.7894 167.166 51.953V53.3352H167.17Z" fill="#C31632"/>
<path d="M175.824 53.699C175.62 53.928 175.37 54.112 175.072 54.2552C174.773 54.3942 174.43 54.4678 174.037 54.4678C173.669 54.4678 173.338 54.4065 173.039 54.2879C172.741 54.1652 172.491 53.9975 172.283 53.7808C172.078 53.5641 171.919 53.3105 171.808 53.0161C171.694 52.7216 171.641 52.4027 171.641 52.0551C171.641 51.7034 171.698 51.3721 171.816 51.0695C171.935 50.7628 172.099 50.5011 172.311 50.2803C172.524 50.0594 172.778 49.8836 173.076 49.7527C173.375 49.6259 173.702 49.5605 174.053 49.5605C174.426 49.5605 174.761 49.63 175.055 49.765C175.35 49.8999 175.603 50.0881 175.812 50.3252L175.231 50.8855C175.092 50.7137 174.929 50.5829 174.728 50.4847C174.532 50.3866 174.307 50.3375 174.062 50.3375C173.812 50.3375 173.595 50.3825 173.403 50.4765C173.215 50.5665 173.056 50.6892 172.929 50.8446C172.802 51 172.704 51.1758 172.634 51.3762C172.565 51.5766 172.532 51.7892 172.532 52.0101C172.532 52.2268 172.565 52.4354 172.63 52.6398C172.696 52.8443 172.794 53.0242 172.925 53.1796C173.056 53.335 173.215 53.4618 173.403 53.5559C173.587 53.6499 173.808 53.699 174.053 53.699C174.311 53.699 174.544 53.6458 174.757 53.5477C174.969 53.4455 175.145 53.3105 175.284 53.1387L175.824 53.699Z" fill="#C31632"/>
<path d="M177.581 53.13L180.113 49.7031H180.927V54.3282H180.072V50.8604L177.508 54.3282H176.723V49.7031H177.577V53.13H177.581Z" fill="#C31632"/>
<path d="M183.483 50.4964H181.852V49.7031H185.994V50.4964H184.362V54.3241H183.479V50.4964H183.483Z" fill="#C31632"/>
<path d="M188.815 53.7069C188.991 53.7069 189.158 53.6864 189.31 53.6496C189.461 53.6128 189.604 53.5596 189.727 53.5024C189.853 53.4451 189.96 53.3797 190.046 53.3143C190.136 53.2488 190.205 53.1875 190.258 53.1262L190.761 53.6578C190.704 53.7232 190.618 53.8009 190.504 53.895C190.393 53.989 190.254 54.0749 190.087 54.1608C189.919 54.2467 189.727 54.3162 189.51 54.3775C189.293 54.4348 189.052 54.4675 188.782 54.4675C188.414 54.4675 188.087 54.4102 187.788 54.2916C187.494 54.173 187.24 54.0054 187.028 53.7927C186.815 53.576 186.651 53.3184 186.537 53.0157C186.422 52.7131 186.365 52.386 186.365 52.022C186.365 51.6703 186.418 51.3432 186.533 51.0406C186.643 50.742 186.803 50.4803 187.003 50.2595C187.208 50.0387 187.449 49.871 187.735 49.7483C188.021 49.6256 188.332 49.5684 188.672 49.5684C189.052 49.5684 189.379 49.642 189.657 49.7933C189.935 49.9446 190.164 50.145 190.344 50.3985C190.524 50.6521 190.655 50.9383 190.741 51.2614C190.827 51.5845 190.868 51.9198 190.868 52.2674H187.232C187.285 52.6886 187.445 53.0321 187.711 53.302C187.985 53.5719 188.349 53.7069 188.815 53.7069ZM189.964 51.609C189.952 51.4331 189.911 51.2655 189.849 51.106C189.788 50.9506 189.702 50.8116 189.592 50.693C189.481 50.5744 189.342 50.4803 189.183 50.4149C189.023 50.3454 188.839 50.3126 188.627 50.3126C188.41 50.3126 188.222 50.3494 188.062 50.419C187.903 50.4926 187.764 50.5866 187.653 50.7052C187.543 50.8238 187.453 50.9629 187.388 51.1183C187.322 51.2737 187.277 51.4372 187.253 51.609H189.964Z" fill="#C31632"/>
<path d="M192.901 50.4964H191.27V49.7031H195.412V50.4964H193.78V54.3241H192.897V50.4964H192.901Z" fill="#C31632"/>
<path d="M25.5844 0.556641C12.4243 0.556641 1.75391 12.9931 1.75391 29.7959C1.75391 37.2733 3.87163 43.88 7.37528 48.9167C7.88631 49.5708 9.25588 51.525 10.6459 52.7719C14.7342 56.7253 19.9263 59.0352 25.5804 59.0352C31.2263 59.0352 36.4061 57.0237 40.4903 53.283L40.6456 53.1358L41.6595 52.1464L42.2114 51.5291C46.6513 46.5046 49.415 39.1049 49.415 29.7959C49.419 11.4805 38.7487 0.556641 25.5844 0.556641Z" fill="white"/>
<path d="M21.4706 37.5798L20.4648 38.704C20.6038 38.6631 20.7674 38.6263 20.9391 38.5813C21.3397 38.4832 21.814 38.3687 22.1656 38.2052C22.4926 38.0539 22.7093 37.8578 22.648 37.6002C22.603 37.404 22.4558 37.3304 22.3373 37.3018C22.28 37.2895 22.2228 37.2812 22.1615 37.2812C22.0634 37.2812 21.9612 37.3059 21.8589 37.3386C21.7199 37.3876 21.5809 37.4694 21.4706 37.5798Z" fill="#C31632"/>
<path d="M23.0286 8.56851C23.1962 8.54398 23.5601 8.45813 23.7604 8.1883C23.8626 8.05339 23.9076 7.89803 23.9239 7.75086C23.9403 7.62821 23.9321 7.51374 23.9239 7.42789C23.9239 7.41154 23.9198 7.39928 23.9198 7.38702C23.9117 7.32978 23.9035 7.29297 23.9035 7.29297C23.9035 7.29297 23.3475 7.32568 23.0817 7.68136C22.816 8.03704 22.9346 8.58079 22.9346 8.58079C22.9346 8.58079 22.9714 8.57669 23.0286 8.56851Z" fill="#C31632"/>
<path d="M20.9227 35.8924C20.8492 35.737 20.7347 35.643 20.6202 35.6348H20.5957C20.5711 35.6348 20.5548 35.643 20.5303 35.6471C20.4526 35.6593 20.379 35.6879 20.3136 35.7493C19.917 36.1131 19.8148 37.221 19.8066 37.9365L19.917 37.8179L20.7797 36.8776C21.0536 36.5546 21.0495 36.1499 20.9227 35.8924Z" fill="#C31632"/>
<path d="M25.5841 1.88867C13.1272 1.88867 3.0332 13.761 3.0332 29.7952C3.0332 36.9292 5.03645 43.2374 8.35612 48.0452C8.35203 47.988 8.34794 47.9266 8.34794 47.8694C8.34794 47.8653 8.34794 47.8612 8.34794 47.8612V28.6504H12.8165C12.8165 28.6504 14.186 29.5131 15.343 29.7584H9.45178V47.8531C9.45178 49.4884 10.7764 50.813 12.4117 50.813H15.1182C15.7805 50.8988 16.4468 51.2177 16.9783 51.7451C17.0478 51.8146 17.1173 51.8882 17.1827 51.9618C17.195 51.9454 17.2073 51.9332 17.2154 51.9209L17.2195 51.9168C17.2604 51.8596 17.3054 51.8064 17.3503 51.7533C17.8246 51.1809 18.4419 50.8906 19.002 50.8089H21.5245C23.1598 50.8089 24.4885 49.4843 24.4885 47.849V29.7543H22.7796C22.3789 29.2841 21.9088 28.9162 21.5981 28.6464H25.6005V47.849C25.6005 50.0975 23.7771 51.9209 21.5286 51.9209H19.1696C19.2228 51.9291 19.2759 51.9331 19.3291 51.9413C18.63 51.9413 17.7633 52.5137 17.1827 53.3599C16.5327 52.5873 15.6169 51.9413 14.7461 51.9413L12.4076 51.9209C12.2032 51.9209 12.007 51.8882 11.8107 51.8391L11.8148 51.8432C11.7985 51.8391 11.7862 51.835 11.7699 51.8309C11.6595 51.8023 11.5532 51.7614 11.4428 51.7206C15.3103 55.4981 20.2244 57.6976 25.5759 57.6976C30.9152 57.6976 35.8211 55.7761 39.6845 52.207L39.8317 52.064C38.5971 52.113 36.6183 52.207 35.7884 52.207C34.5456 52.207 35.2651 50.4287 35.2651 49.0223C34.0795 45.8375 33.3232 44.1082 31.9618 40.5759C30.7926 41.5735 32.9348 44.2186 31.7574 45.6209C30.6699 46.9127 28.6789 49.7786 28.6789 49.7786C29.6233 50.306 31.9291 51.0746 32.9553 51.2749C32.9757 51.8105 32.8449 52.113 32.064 52.1457C29.7623 52.2398 28.7157 52.2398 26.504 52.2398C25.7763 52.2398 25.1589 51.3036 25.6945 50.6413C26.1606 50.0648 26.5776 49.4107 26.9619 48.7075L31.4303 36.5326C30.6822 36.3487 30.0035 38.0862 29.5456 39.1042C28.822 40.7149 27.4238 42.5955 26.7002 43.2701V30.4452C28.1761 31.0257 28.6912 31.1852 30.0321 31.8189L28.6585 30.0282C30.674 30.3512 32.0599 30.6047 33.593 30.944C34.3657 31.1607 37.0762 32.0928 37.5627 33.5482C38.0615 35.0486 37.7917 36.1933 36.7124 37.8409C36.2668 35.4125 35.5104 33.0617 33.0288 32.334C34.6478 33.6708 35.3387 35.4124 35.7435 38.0821C36.2749 41.5939 36.974 46.0665 37.3011 48.6012C37.4442 49.701 38.8873 50.445 39.5088 50.7107L40.7966 51.1278L41.3199 50.539C45.5226 45.7394 48.135 38.6831 48.135 29.7952C48.1391 12.3137 38.0411 1.88867 25.5841 1.88867ZM27.477 10.6907C27.6814 10.9973 27.9267 11.3285 28.0657 11.5901C28.1924 11.8272 27.5056 11.8395 27.5506 12.0562C27.5874 12.2238 27.7018 12.3873 27.7018 12.5222C27.7018 12.7348 27.5587 12.8493 27.616 13.1069C27.8776 14.2352 26.7942 13.9 25.8703 13.9899C25.8703 13.9899 26.0338 15.8991 25.1262 18.7405C24.4312 18.7568 23.7403 17.1297 22.7264 16.4265C24.28 15.1224 25.0526 13.1355 24.235 11.0995C24.8687 10.9033 25.2693 10.7479 25.9316 10.4658C25.903 10.4985 25.8744 10.5517 25.8417 10.6089C25.7722 10.7397 25.7109 10.9196 25.7068 11.1159C25.7395 11.1241 25.7722 11.1281 25.8049 11.1363C26.0706 11.2017 26.3282 11.2058 26.6021 11.0709C26.8229 10.9646 26.9782 10.8133 27.0927 10.6703C27.1908 10.5517 27.3707 10.5599 27.4647 10.6784C27.4688 10.6825 27.4729 10.6825 27.477 10.6907ZM23.4296 6.35305C24.652 6.84773 25.7517 8.35631 27.3216 8.56073C27.3053 8.57708 27.2807 8.59752 27.2644 8.61388C26.1933 9.67274 24.5825 10.5394 23.1434 10.6049C22.6937 11.2671 22.2236 11.9213 21.5081 12.3751L21.504 12.3791L20.9398 12.0521C19.3863 11.1486 18.8998 9.11262 19.9178 7.59588C20.8458 6.20587 22.0518 5.79705 23.4296 6.35305ZM17.7306 7.46098C18.0045 5.83385 19.3822 4.57875 20.3511 4.15765L20.4247 4.2803L21.0748 5.40866C18.7158 6.60653 17.8409 9.40699 19.4313 11.6228C19.4313 11.6228 19.4354 11.631 19.4394 11.6351C18.2334 10.9482 17.4362 9.19441 17.7306 7.46098ZM19.0184 13.2908C21.5694 13.5852 22.7264 12.5222 23.4378 11.1895C23.6258 11.4266 24.4394 13.483 23.1107 14.6073C21.3282 16.1158 16.9211 14.8689 15.7682 18.2008C15.7927 18.1518 15.7518 18.2499 15.7682 18.2008C13.5278 15.3758 15.4207 12.882 19.0184 13.2908ZM15.02 32.8328L15.065 32.6365L15.1713 32.7142L15.2367 32.7592C15.4902 32.9431 15.7191 33.1353 15.9358 33.3193C15.9358 33.2825 15.9358 33.2457 15.9399 33.2007C15.9522 33.0862 15.9849 32.9554 16.0748 32.8614C16.1484 32.7837 16.2506 32.7428 16.3692 32.7428C16.3773 32.7428 16.3896 32.7469 16.3978 32.7469C16.4509 32.751 16.5 32.7592 16.549 32.7796C16.545 32.7673 16.545 32.751 16.5409 32.7387C16.5327 32.7101 16.5204 32.6815 16.5204 32.6529C16.5204 32.4362 16.7085 32.2604 16.9333 32.2604C16.9415 32.2604 16.9538 32.2645 16.962 32.2686C17.1786 32.2808 17.3503 32.4485 17.3503 32.657C17.3503 32.7019 17.3381 32.7428 17.3217 32.7837C17.3585 32.7674 17.3994 32.7592 17.4444 32.7551C17.4648 32.751 17.4812 32.7469 17.5016 32.7469C17.5098 32.7469 17.518 32.751 17.5261 32.751C17.6324 32.7551 17.7265 32.7919 17.796 32.8614C17.9186 32.9881 17.9391 33.1884 17.935 33.3152C17.9718 33.2825 18.0126 33.2539 18.0494 33.2212C18.2334 33.0658 18.4215 32.9063 18.6381 32.7551L18.8099 32.6283L18.8221 32.6856L18.8548 32.8246C19.0552 33.6995 18.9938 34.2555 18.6627 34.5335C18.5973 34.5866 18.4215 34.8565 18.0453 34.9587C17.9186 34.9914 17.7714 35.0036 17.5915 34.9873C17.5425 34.9832 17.4975 34.9832 17.4444 34.9709C17.4444 34.9709 17.6733 35.2571 17.6733 35.4492C17.6733 35.5882 17.6038 35.7477 17.3258 35.8213C17.4158 36.7003 17.5261 37.8859 17.5261 38.4746C17.5261 39.1328 17.3544 39.5007 17.1459 39.6356C17.0887 39.6724 17.0274 39.697 16.962 39.697C16.5654 39.697 16.3651 39.2963 16.3651 38.5073C16.3651 37.8981 16.455 36.6962 16.5327 35.8131C16.267 35.7354 16.2015 35.5842 16.2015 35.4492C16.2015 35.3879 16.2915 35.0813 16.3978 34.9587C16.2465 34.9955 15.6374 34.9178 15.2122 34.5376C14.8892 34.2555 14.8197 33.7077 15.02 32.8328ZM17.5997 48.7606C17.5875 48.777 17.5711 48.7852 17.5548 48.8015C17.3871 48.9569 17.1745 49.0427 16.9497 49.0427C16.7044 49.0427 16.4714 48.9405 16.2997 48.7606C15.9522 48.3968 15.9522 47.804 16.2997 47.436C16.3487 47.3829 16.4019 47.342 16.4632 47.3011C16.3773 47.1662 16.3242 46.97 16.3242 46.6838C16.3242 46.046 16.4877 44.6233 16.5409 44.1573L16.5572 44.0183C16.5695 43.8874 16.6594 43.7852 16.7862 43.7443C16.823 43.7321 16.8597 43.7239 16.8965 43.7198C17.0805 43.7157 17.24 43.8261 17.2727 44.0019C17.3135 44.2063 17.5834 45.9643 17.5834 46.6634C17.5834 46.9454 17.518 47.1499 17.4198 47.293C17.4853 47.3338 17.5466 47.3788 17.5997 47.436C17.9472 47.804 17.9472 48.3968 17.5997 48.7606ZM23.5441 36.9088C23.7975 37.2031 23.8916 37.5343 23.8139 37.8695C23.6953 38.3765 23.1966 38.867 22.3994 39.2554L22.6774 40.2325L22.7101 40.347L20.1794 39.0919L20.1345 39.0715L17.657 41.8433L20.9317 45.3919C21.0461 45.351 21.1688 45.3265 21.2914 45.3265C21.6103 45.3265 21.9047 45.4573 22.1295 45.6904C22.5751 46.1605 22.5792 46.9209 22.1418 47.3993C22.1377 47.4034 22.1336 47.4115 22.1295 47.4156C21.9047 47.6486 21.6103 47.7795 21.2914 47.7795C20.9725 47.7795 20.6782 47.6486 20.4533 47.4156C20.1345 47.0763 20.0445 46.5898 20.1794 46.1605L16.8434 42.6937L16.8107 42.6569L13.8303 46.0624C13.8876 46.4385 13.7854 46.8392 13.5115 47.1253C13.4624 47.1744 13.4133 47.2153 13.3602 47.2562C13.164 47.4074 12.9268 47.4892 12.6734 47.4892C12.3545 47.4892 12.056 47.3584 11.8353 47.1253C11.3856 46.647 11.3856 45.8743 11.8353 45.4001C11.9538 45.2774 12.0887 45.1834 12.24 45.1221C12.3749 45.0649 12.5221 45.0362 12.6734 45.0362C12.7633 45.0362 12.8492 45.0485 12.935 45.0689L13.0168 44.9831L16.0135 41.8515L12.0887 37.5711C11.9743 37.4443 11.8434 37.4035 11.7249 37.4116C11.639 37.4198 11.5614 37.4484 11.4959 37.4975C11.3406 37.616 11.2629 37.8286 11.4428 38.0453C11.9293 38.6299 12.3913 39.1614 12.9391 39.7664L13.0904 39.9341L13.164 40.0159L10.0896 39.5661L10.8336 38.9079C10.1918 38.1802 10.4821 37.2317 10.5965 36.8679L10.6088 36.827C10.6497 36.7002 10.6946 36.5776 10.7437 36.4468C10.8255 36.2301 10.9113 36.0012 10.9563 35.7681L10.9726 35.6905L11.0544 35.67C11.2466 35.625 11.4632 35.5392 11.6717 35.4574C11.8067 35.4043 11.9375 35.3552 12.0601 35.3143C12.1746 35.2775 12.2972 35.2489 12.4158 35.2285C12.6488 35.1876 12.89 35.1835 13.1231 35.2121C13.581 35.2653 14.0061 35.4942 14.3823 35.8908L14.4763 35.8254L15.0609 35.4084L15.0691 35.4697L15.3185 38.0085L15.3348 38.1843L15.0773 37.9472C15.065 37.9349 13.859 36.8106 13.3929 36.3568C13.3111 36.2751 13.2212 36.2465 13.1353 36.2505C13.0413 36.2546 12.9514 36.2955 12.8778 36.3528C12.7265 36.4754 12.6407 36.688 12.7715 36.8393L16.9456 41.0584L17.0315 40.9643L19.4885 38.2865L18.123 35.8622L18.2498 35.854L19.1124 35.8008C19.1165 35.7927 19.1206 35.7845 19.1246 35.7763C19.4967 35.0527 19.8892 34.6398 20.3225 34.513C20.347 34.5049 20.3757 34.5048 20.4002 34.5008C20.6659 34.4435 20.9439 34.4926 21.2342 34.648C21.7289 34.9178 22.0069 35.7231 21.966 36.3405C22.4402 36.2996 23.0576 36.3487 23.5441 36.9088ZM22.6201 31.5122C22.5792 31.9415 22.3339 33.0617 22.0682 33.7444C22.0355 33.8221 21.9783 33.8548 21.9088 33.8671C21.7657 33.8916 21.5694 33.8017 21.4468 33.679C21.2914 33.5278 21.3691 33.5237 21.3855 33.2661C21.3773 33.2579 21.3691 33.2538 21.3609 33.2497C21.3528 33.2457 21.3487 33.2416 21.3446 33.2375C21.2097 33.2538 21.1115 33.2702 20.9603 33.2702C20.8908 33.2702 20.8049 33.2702 20.6986 33.262C20.2653 33.2293 20.1712 33.074 20.0363 32.7387C19.7788 32.0969 19.464 31.3283 19.374 29.9955C18.1271 29.6807 15.8009 28.998 14.6071 28.442C14.1574 28.2335 13.7608 27.9554 13.4665 27.612C13.4338 27.5752 13.4011 27.5384 13.3725 27.5016C13.3602 27.4812 13.3398 27.4689 13.3275 27.4485H13.3316C13.0168 27.011 12.8778 26.4223 13.0331 25.6415C13.5237 23.2335 15.4902 20.0774 16.545 18.6506C17.8818 18.3685 19.3618 20.7437 18.5073 22.0193C17.9309 22.8778 16.4632 25.4493 15.8908 26.406L15.8622 26.4224L20.5801 28.953C21.2342 29.2801 22.661 31.0871 22.6201 31.5122ZM27.5383 24.0021C27.4402 28.0413 27.5751 29.7911 27.5751 29.7911C27.0354 29.7011 26.7002 29.6603 26.7002 29.6603L26.6184 27.5834C24.3944 27.6407 21.5653 27.7224 21.1565 25.3185C21.1974 25.3308 21.2342 25.339 21.2751 25.3512C21.504 25.4166 21.7207 25.4534 21.9251 25.4698C22.8572 25.5393 23.5277 25.1509 23.7485 24.599C23.7526 24.5867 23.7607 24.5744 23.7648 24.5663C23.3601 24.6603 23.0003 24.6848 22.6814 24.6562C19.5253 24.37 20.2326 17.8534 16.9865 17.7879C18.5196 15.8746 20.9194 16.5001 21.3487 16.7373C23.1434 17.7307 23.8343 19.8525 25.1876 20.2859C25.2284 20.2981 25.2652 20.3104 25.3061 20.3186C25.8785 19.4805 26.5694 17.3423 26.5817 15.7888C28.2415 15.6375 29.3535 16.6105 29.5824 17.6571C28.9488 18.0414 28.5645 18.6465 28.4459 19.3783C28.2374 20.6252 30.2979 22.3136 27.5383 24.0021ZM38.6012 48.7934L38.8097 24.7421L39.6355 23.998V24.0348L39.8767 49.4352V49.5374C39.4188 49.5374 38.8587 49.333 38.6012 48.7934ZM40.7475 19.4927C40.7393 19.7789 40.6616 19.9956 40.5186 20.1673C40.4736 20.9441 40.3714 22.4281 39.5946 22.9473C37.6936 24.3864 34.2226 27.9841 32.9839 27.9432C32.943 27.9432 32.898 27.9309 32.849 27.9227L32.8449 27.9432C31.5203 27.6488 30.1548 25.6088 29.1941 23.8549C31.1687 21.7413 28.5154 19.873 30.024 18.9817C31.1564 21.2875 32.5424 23.4624 33.3968 24.9506C34.6928 24.2433 35.9397 23.6914 37.3215 22.7961C37.6445 22.5876 37.4156 21.1117 38.1392 20.4944C38.3191 20.339 38.5521 20.1428 38.7769 19.9629L38.8383 15.5108V15.4167C38.364 14.7503 38.1269 14.2925 38.1269 14.2925C38.4499 11.909 39.1245 9.23118 39.1245 9.23118C39.1245 9.23118 39.9053 12.0194 40.1751 14.2925C40.1751 14.2925 39.8195 14.9057 39.4638 15.4167L39.5292 19.2393C39.5292 19.2393 40.7393 18.9286 40.7393 19.4641C40.7516 19.4723 40.7475 19.4805 40.7475 19.4927Z" fill="#C31632"/>
</svg>
