<svg width="161" height="355" viewBox="0 0 161 355" fill="none" xmlns="http://www.w3.org/2000/svg">
<path d="M0.0176489 60.9098L0.0176495 68.366C30.8751 68.366 55.9041 93.395 55.9041 124.252L63.3604 124.252C63.3603 89.3168 34.9533 60.9098 0.0176489 60.9098Z" fill="black"/>
<path d="M0.0175451 95.0928L0.0175457 102.549C11.9895 102.549 21.721 112.281 21.721 124.252L29.1772 124.252C29.1597 108.167 16.1026 95.0928 0.0175451 95.0928Z" fill="black"/>
<path d="M0.0172618 83.6984L0.0172624 91.1547C18.2727 91.1547 33.1151 105.98 33.1151 124.252L40.5713 124.252C40.5538 101.884 22.3859 83.6984 0.0172618 83.6984Z" fill="black"/>
<path d="M0.0174706 72.3041L0.0174712 79.7603C24.5739 79.7603 44.5096 99.696 44.5096 124.252L51.9658 124.252C51.9658 95.6003 28.6696 72.3041 0.0174706 72.3041Z" fill="black"/>
<path d="M0.0173656 49.5154L0.0173662 56.9717C37.1583 56.9717 67.2982 87.1115 67.2982 124.252L74.7544 124.252C74.7544 83.0333 41.2365 49.5154 0.0173656 49.5154Z" fill="black"/>
<path d="M0.0174694 15.3153L0.0174701 22.7715C56.0615 22.7715 101.481 68.2088 101.481 124.235L108.938 124.235C108.937 64.1832 60.0696 15.3153 0.0174694 15.3153Z" fill="black"/>
<path d="M0.0177355 3.92059L0.0177361 11.3768C62.3453 11.3768 112.893 61.9074 112.893 124.252L120.35 124.252C120.332 57.8993 66.3534 3.92058 0.0177355 3.92059Z" fill="black"/>
<path d="M0.0175706 38.1211L0.0175712 45.5773C43.4596 45.5773 78.6927 80.8105 78.6927 124.252L86.1489 124.252C86.1489 76.7498 47.5202 38.1211 0.0175706 38.1211Z" fill="black"/>
<path d="M0.0172644 26.7268L0.0172651 34.183C49.7603 34.183 90.0867 74.5094 90.0868 124.252L97.543 124.252C97.543 70.4663 53.8034 26.7268 0.0172644 26.7268Z" fill="black"/>
<path d="M120.332 124.252L124.27 124.252C124.27 119.964 124.06 115.729 123.622 111.545C122.992 105.279 121.89 99.1534 120.349 93.2025C118.809 87.2515 116.849 81.4581 114.503 75.8922C112.141 70.3088 109.393 64.9529 106.277 59.8246C104.194 56.4115 101.971 53.1035 99.5735 49.918C76.9074 19.6207 40.7466 -3.08451e-05 1.20257e-05 -2.72829e-05L1.237e-05 3.93811C66.3532 3.9206 120.332 57.8993 120.332 124.252Z" fill="#C31632"/>
<path d="M108.937 124.252L112.875 124.252C112.875 61.9249 62.3449 11.3768 -0.000170085 11.3768L-0.000169741 15.3149C60.0695 15.3149 108.937 64.1828 108.937 124.252Z" fill="#C31632"/>
<path d="M97.5433 124.252L101.481 124.252C101.481 68.2084 56.0441 22.7887 0.0176074 22.7887L0.0176077 26.7268C53.8038 26.7268 97.5433 70.4663 97.5433 124.252Z" fill="#C31632"/>
<path d="M86.1488 124.252L90.0869 124.252C90.0869 74.5094 49.7604 34.183 0.0174253 34.183L0.0174256 38.1211C47.5201 38.1211 86.1488 76.7498 86.1488 124.252Z" fill="#C31632"/>
<path d="M74.7542 124.252L78.6924 124.252C78.6924 80.8104 43.4592 45.5773 0.0172203 45.5773L0.0172206 49.5154C41.2364 49.5154 74.7542 83.0333 74.7542 124.252Z" fill="#C31632"/>
<path d="M63.3602 124.252L67.2983 124.252C67.2983 87.1115 37.1585 56.9717 0.0175036 56.9717L0.0175039 60.9098C34.9531 60.9098 63.3602 89.3168 63.3602 124.252Z" fill="#C31632"/>
<path d="M51.9657 124.252L55.9038 124.252C55.9038 93.395 30.8748 68.366 0.0173253 68.366L0.0173256 72.3041C28.6694 72.3041 51.9657 95.6003 51.9657 124.252Z" fill="#C31632"/>
<path d="M40.5541 124.252L44.4922 124.252C44.4922 99.696 24.5565 79.7603 2.6628e-05 79.7603L2.69722e-05 83.6984C22.3861 83.6984 40.5541 101.884 40.5541 124.252Z" fill="#C31632"/>
<path d="M29.16 124.252L33.0981 124.252C33.0981 105.997 18.2733 91.1547 0.000336615 91.1547L0.000336959 95.0928C16.1029 95.0928 29.16 108.167 29.16 124.252Z" fill="#C31632"/>
<path d="M17.7655 124.252L21.7036 124.252C21.7036 112.281 11.9721 102.549 0.00012971 102.549L0.000130054 106.487C9.81921 106.487 17.7655 114.433 17.7655 124.252Z" fill="#C31632"/>
<path d="M71.2539 124H18.0005V177.253H71.2539V124ZM53.4944 159.494H35.735V141.734H53.4944V159.494Z" fill="#6BC9C6"/>
<path d="M71.2549 230.508H124.508V177.255H71.2549V230.508ZM88.9893 195.014H106.749V212.774H88.9893V195.014Z" fill="#6BC9C6"/>
<path d="M71.2549 124V177.253H124.508V124H71.2549ZM106.749 159.494H88.9893V141.734H106.749V159.494Z" fill="#C31632"/>
<path d="M53.4933 141.76H35.7339V159.519H53.4933V141.76Z" fill="#C31632"/>
<path d="M106.748 195.015H88.9883V212.774H106.748V195.015Z" fill="#C31632"/>
<path d="M18.0005 177.255V230.508H71.2539V177.255H18.0005ZM53.4944 212.749H35.735V194.989H53.4944V212.749Z" fill="#C31632"/>
<path d="M106.748 141.76H88.9883V159.519H106.748V141.76Z" fill="#6BC9C6"/>
<path d="M53.4933 195.015H35.7339V212.774H53.4933V195.015Z" fill="#6BC9C6"/>
<path d="M124 231L17.7219 231C17.7219 240.77 9.79586 248.721 0.000479877 248.721L0.000475232 355C68.4684 354.975 124 299.468 124 231Z" fill="#F6AC1B"/>
<path d="M125.003 124L125.003 135.84C138.067 135.84 148.682 146.43 148.682 159.519L160.522 159.519C160.497 139.911 144.611 124 125.003 124Z" fill="#F6AC1B"/>
<path d="M125.001 135.841L125.001 147.681C131.546 147.681 136.841 152.976 136.841 159.52L148.681 159.52C148.656 146.432 138.065 135.841 125.001 135.841Z" fill="#6BC9C6"/>
<path d="M125.002 147.68L125.002 159.52L136.841 159.52C136.841 152.976 131.546 147.68 125.002 147.68Z" fill="#C31632"/>
</svg>
