<svg width="444" height="338" viewBox="0 0 444 338" fill="none" xmlns="http://www.w3.org/2000/svg">
<path d="M268.847 325.925C273.393 327.449 281.911 329.222 291.527 330.821C285.707 329.247 280.287 327.524 275.791 325.725C239.923 309.914 215.844 274.12 214.395 234.505L214.37 233.731C214.345 232.782 214.295 231.333 214.295 230.559H201.057C201.057 231.708 201.132 233.931 201.157 234.705C202.805 276.393 230.006 313.061 268.847 325.925Z" fill="black"/>
<path d="M261.154 327.948C264.626 329.047 273.993 330.396 285.083 331.695C277.94 330.371 271.82 329.022 268.223 327.798C228.608 314.66 200.857 277.268 199.184 234.755C199.159 233.981 199.084 231.733 199.084 230.559H185.845C185.845 231.857 185.92 233.981 185.945 234.93C187.818 279.441 218.741 317.707 261.154 327.948Z" fill="black"/>
<path d="M216.346 234.454C217.77 273.295 241.399 308.414 276.544 323.925C283.712 326.773 293.479 329.495 303.47 331.644C302.171 331.219 300.897 330.744 299.648 330.27C298.974 330.02 298.3 329.77 297.625 329.495C296.551 329.071 295.477 328.621 294.428 328.147C293.429 327.722 292.455 327.272 291.506 326.798C290.706 326.423 289.907 326.048 289.108 325.649C287.309 324.75 285.511 323.775 283.787 322.776C252.939 304.992 231.883 272.096 230.609 234.229C230.609 233.879 230.609 233.554 230.559 233.255C230.509 232.355 230.509 231.481 230.509 230.582H216.271C216.271 231.331 216.321 232.755 216.346 233.704V234.454Z" fill="black"/>
<path d="M138.362 235.777C138.287 234.179 138.238 232.281 138.238 230.582H124C124 289.406 171.683 337.089 230.507 337.089H286.583C262.679 336.589 239.074 336.09 238.05 336.04C183.848 333.417 140.985 290.33 138.362 235.777Z" fill="black"/>
<path d="M238.152 334.041C238.627 334.066 243.722 334.191 251.341 334.341C248.368 334.166 246.32 334.041 245.596 333.967C195.49 328.821 155.924 286.508 153.551 235.528C153.476 234.129 153.426 232.131 153.426 230.582H140.188C140.188 232.256 140.238 234.129 140.313 235.703C142.911 289.206 184.974 331.494 238.152 334.041Z" fill="black"/>
<path d="M253.485 329.97C255.509 330.295 261.179 330.844 268.647 331.469C265.025 330.894 262.203 330.345 260.629 329.845C217.442 319.404 185.87 280.413 183.971 235.028C183.921 234.054 183.871 231.881 183.871 230.582H170.633C170.633 232.006 170.683 234.029 170.733 235.203C172.831 282.462 207.625 322.352 253.485 329.97Z" fill="black"/>
<path d="M245.819 331.993C247.293 332.168 254.012 332.518 263.154 332.967C258.283 332.543 254.686 332.168 253.163 331.918C206.404 324.125 170.91 283.486 168.762 235.278C168.712 234.079 168.662 232.006 168.662 230.582H155.423C155.423 232.131 155.473 234.079 155.548 235.453C157.846 285.434 196.662 326.973 245.819 331.993Z" fill="black"/>
<path d="M326.748 336.516C324.725 336.316 322.702 336.091 320.729 335.766C320.029 335.666 319.355 335.541 318.68 335.417C316.557 335.042 314.484 334.617 312.411 334.143C311.936 334.018 311.462 333.918 310.987 333.818C308.439 333.169 305.942 332.469 303.494 331.645C293.502 329.497 283.736 326.774 276.567 323.927C241.423 308.44 217.794 273.296 216.37 234.455L216.345 233.681C216.32 232.756 216.27 231.308 216.27 230.558H214.297C214.297 231.333 214.347 232.781 214.372 233.731L214.397 234.505C215.845 274.12 239.924 309.914 275.793 325.725C280.289 327.524 285.709 329.247 291.529 330.821C281.913 329.197 273.395 327.449 268.849 325.925C230.008 313.036 202.807 276.393 201.158 234.705C201.133 233.93 201.058 231.732 201.058 230.558H199.085C199.085 231.732 199.16 233.98 199.185 234.755C200.859 277.268 228.609 314.66 268.225 327.798C271.821 328.997 277.941 330.371 285.085 331.695C273.995 330.396 264.628 329.047 261.156 327.948C218.743 317.707 187.82 279.441 185.947 234.93C185.897 233.955 185.847 231.832 185.847 230.558H183.873C183.873 231.857 183.948 234.03 183.973 235.005C185.897 280.39 217.444 319.406 260.631 329.821C262.205 330.321 265.027 330.871 268.649 331.445C261.181 330.821 255.511 330.271 253.487 329.946C207.653 322.303 172.833 282.438 170.735 235.154C170.685 233.98 170.635 231.957 170.635 230.533H168.662C168.662 231.982 168.712 234.055 168.762 235.229C170.91 283.437 206.404 324.102 253.163 331.87C254.686 332.119 258.283 332.494 263.154 332.919C253.987 332.469 247.268 332.119 245.819 331.945C196.662 326.899 157.846 285.385 155.523 235.354C155.473 233.98 155.398 232.032 155.398 230.483H153.425C153.425 232.057 153.475 234.055 153.55 235.429C155.923 286.41 195.488 328.747 245.594 333.868C246.319 333.943 248.367 334.093 251.339 334.243C243.721 334.068 238.6 333.968 238.151 333.943C184.972 331.395 142.909 289.107 140.312 235.579C140.237 234.005 140.187 232.132 140.187 230.458H138.213C138.213 232.157 138.263 234.055 138.338 235.654C140.986 290.206 183.848 333.318 238.051 335.891C239.075 335.941 262.679 336.441 286.583 336.94H337.014C334.267 336.94 331.569 336.815 328.896 336.616C328.172 336.69 327.473 336.591 326.748 336.516Z" fill="#C31632"/>
<path d="M295.626 132.368C333.643 132.717 364.491 162.941 365.915 200.683C365.965 201.582 365.965 202.456 365.965 203.356C365.965 226.835 354.575 247.642 337.015 260.58C335.291 261.879 333.418 263.103 331.52 264.202C320.879 270.622 308.315 274.343 294.952 274.343C266.427 274.343 241.823 257.508 230.533 233.204C230.583 233.529 230.583 233.829 230.583 234.179C231.857 272.045 252.914 304.942 283.762 322.726C285.51 323.75 287.284 324.674 289.082 325.598C289.856 325.998 290.681 326.373 291.48 326.747C292.454 327.197 293.428 327.647 294.402 328.096C295.451 328.571 296.525 328.996 297.599 329.445C298.274 329.72 298.948 329.97 299.623 330.219C300.897 330.694 302.17 331.169 303.444 331.593C305.892 332.418 308.415 333.117 310.938 333.766C311.412 333.891 311.887 333.991 312.362 334.091C314.435 334.591 316.508 335.015 318.631 335.365C319.305 335.49 320.005 335.615 320.679 335.715C322.678 336.014 324.676 336.264 326.699 336.464C327.423 336.539 328.123 336.614 328.822 336.689C331.495 336.889 334.217 337.013 336.94 337.013C395.764 337.013 443.447 289.33 443.447 230.507C443.447 171.683 395.764 124 336.94 124C322.328 124.05 308.365 127.022 295.626 132.368Z" fill="#6BC9C6"/>
<path d="M365.963 203.382C365.963 202.483 365.963 201.608 365.913 200.709C355.847 178.978 335.065 163.192 310.362 160.12C326.922 178.853 336.989 203.557 336.989 230.583C336.989 242.373 335.065 253.688 331.493 264.278C333.392 263.179 335.24 261.955 336.989 260.657C354.548 247.693 365.963 226.861 365.963 203.382Z" fill="#C31632"/>
<path d="M213.63 60.421C210.682 55.5003 207.385 50.8045 203.788 46.3584L128.354 109.653L213.63 60.421Z" fill="black"/>
<path d="M222.849 79.3048C220.775 73.9594 218.353 68.789 215.58 63.8184L130.629 112.875L222.849 79.3048Z" fill="black"/>
<path d="M201.267 43.3102C197.521 38.939 193.474 34.8426 189.153 31.0459L125.559 106.83L201.267 43.3102Z" fill="black"/>
<path d="M231.166 120.295C230.991 114.525 230.416 108.88 229.492 103.334L133.326 120.295H231.166Z" fill="black"/>
<path d="M228.792 99.4605C227.643 93.8154 226.12 88.3452 224.246 83.0249L132.327 116.496L228.792 99.4605Z" fill="black"/>
<path d="M186.155 28.4764C181.709 24.8047 176.988 21.4326 172.067 18.3853L122.311 104.585L186.155 28.4764Z" fill="black"/>
<path d="M128.532 1.87314C122.812 0.87401 116.942 0.274532 110.972 0.074707V101.511L128.532 1.87314Z" fill="black"/>
<path d="M168.672 16.3858C163.651 13.5133 158.406 10.9655 152.96 8.81738L118.715 102.91L168.672 16.3858Z" fill="black"/>
<path d="M149.286 7.36908C143.816 5.3958 138.196 3.79717 132.401 2.57324L114.892 101.861L149.286 7.36908Z" fill="black"/>
<path d="M231.166 120.295H133.327L229.493 103.335C229.268 102.036 229.068 100.737 228.793 99.4629L132.303 116.473L224.222 83.0024C223.773 81.7535 223.323 80.5295 222.849 79.3056L130.629 112.876L215.58 63.8192C214.93 62.6702 214.281 61.5212 213.607 60.3972L128.331 109.629L203.765 46.3345C202.941 45.3104 202.092 44.3113 201.242 43.3121L125.534 106.832L189.128 31.0479C188.154 30.1736 187.155 29.2994 186.156 28.4751L122.287 104.584L172.043 18.3839C170.919 17.6846 169.795 17.0352 168.646 16.3857L118.69 102.91L152.935 8.81728C151.711 8.34269 150.487 7.84319 149.263 7.39358L114.868 101.886L132.378 2.59775C131.104 2.32299 129.805 2.12317 128.506 1.89836L110.947 101.536V0.0999339C109.623 0.0499776 108.324 0 107 0V106.507C116.791 106.507 124.759 114.45 124.759 124.266H231.266C231.266 122.917 231.216 121.619 231.166 120.295Z" fill="white"/>
<path d="M230.507 124H124V230.507H230.507V124Z" fill="#6BC9C6"/>
<path d="M212.548 173.906C212.248 171.158 211.599 168.436 210.575 165.788C209.775 162.765 208.551 159.918 206.953 157.32C203.081 149.902 203.456 140.61 208.726 133.366C203.281 140.835 194.164 144.057 185.672 142.308C182.974 141.734 180.176 141.509 177.329 141.659C174.207 141.484 171.109 141.759 168.162 142.483C159.919 143.882 151.202 140.635 145.931 133.416C151.377 140.885 151.601 150.551 147.305 158.095C145.931 160.492 144.857 163.09 144.133 165.813C143.009 168.735 142.309 171.758 142.085 174.78C140.861 183.048 135.091 190.341 126.573 193.114C135.366 190.266 144.632 193.039 150.477 199.433C152.501 201.681 154.849 203.63 157.521 205.253C159.794 207.002 162.192 208.5 164.765 209.575C172.258 213.296 177.404 221.039 177.404 229.982C177.404 220.74 182.899 212.797 190.817 209.2C193.065 208.201 195.163 206.827 197.161 205.303C200.109 203.505 202.707 201.307 204.855 198.759C210.725 192.789 219.667 190.266 228.184 193.039C219.392 190.216 213.522 182.548 212.548 173.906ZM177.404 176.628H177.354V176.603H177.379L177.404 176.628Z" fill="#C31632"/>
<path d="M149.38 214.571C148.48 201.133 155.624 188.394 167.839 182.2L174.683 178.728L172.909 182.175L175.657 179.427L174.458 187.02C172.335 200.559 162.443 211.274 149.38 214.571ZM205.381 214.571C192.317 211.274 182.426 200.534 180.303 187.02L179.104 179.427L181.851 182.175L180.078 178.703L186.922 182.175C199.136 188.394 206.28 201.133 205.381 214.571ZM194.066 177.079C192.292 177.079 190.494 176.929 188.745 176.654L181.152 175.43L184.624 173.657L180.777 174.281L186.197 168.836C192.492 162.517 201.259 158.895 210.201 158.895C214.523 158.895 218.719 159.694 222.69 161.293C216.546 171.109 205.83 177.079 194.066 177.079ZM160.695 177.079C148.93 177.079 138.214 171.109 132.07 161.318C136.041 159.719 140.238 158.92 144.559 158.92C153.501 158.92 162.243 162.542 168.563 168.861L173.983 174.306L170.136 173.682L173.608 175.455L166.015 176.679C164.267 176.929 162.468 177.079 160.695 177.079ZM177.38 168.387L176.781 172.233L173.284 165.389C167.039 153.2 168.763 138.713 177.38 128.347C185.998 138.688 187.721 153.2 181.477 165.389L177.98 172.233L177.38 168.387Z" fill="#F6AC1B"/>
<path d="M177.38 187.268C183.546 187.268 188.545 182.269 188.545 176.103C188.545 169.936 183.546 164.938 177.38 164.938C171.213 164.938 166.214 169.936 166.214 176.103C166.214 182.269 171.213 187.268 177.38 187.268Z" fill="#C31632"/>
<path d="M106.506 106.333V53.2549L75.4834 79.8816L106.506 106.333Z" fill="#F6AC1B"/>
<path d="M106.132 0L75.4834 26.6517L106.506 53.2534V0H106.132Z" fill="#F6AC1B"/>
<path d="M79.73 53.2534L48.7072 26.6517L79.4552 0H57.4245L26.7764 26.6517L57.7992 53.2534L26.7764 79.8801L57.7992 106.332V106.507H79.8799L48.7072 79.8801L79.73 53.2534Z" fill="#F6AC1B"/>
<path d="M0 26.6267L30.7481 0H0V26.6517V26.6267Z" fill="#F6AC1B"/>
<path d="M0 79.8802L31.0229 53.2535L0 26.6519V106.507H31.1727L0 79.8802Z" fill="#F6AC1B"/>
<path d="M106.132 0H79.4551L48.707 26.6517L79.7299 53.2534L48.707 79.8801L79.8798 106.507H106.506V106.332L75.4836 79.8801L106.506 53.2534L75.4836 26.6517L106.132 0Z" fill="black"/>
<path d="M26.7766 79.8801L57.7994 53.2534L26.7766 26.6517L57.4247 0H30.7481L0 26.6267V26.6517L31.0229 53.2534L0 79.8801L31.1727 106.507H57.7994V106.332L26.7766 79.8801Z" fill="black"/>
</svg>
