<svg width="265" height="746" viewBox="0 0 265 746" fill="none" xmlns="http://www.w3.org/2000/svg">
<path d="M244.909 21.1576C243.11 24.7795 241.387 28.2265 242.886 33.7966C244.384 39.3667 247.582 41.4898 250.954 43.7379C254.476 46.0608 258.447 48.7085 260.246 55.3777C262.019 62.0468 259.896 66.3431 258.022 70.1148C256.224 73.7616 254.501 77.1836 255.999 82.7787C257.498 88.3738 260.695 90.4969 264.067 92.745C264.767 93.2195 265.491 93.7191 266.215 94.2437L266.215 92.2954C264.092 89.8975 262.269 86.8501 261.844 82.0293C261.27 75.4851 263.817 71.6884 266.215 68.4163L266.215 46.2357C265.666 45.6862 265.116 45.1366 264.542 44.6121C261.469 41.6897 258.022 38.3926 257.423 31.5236C256.824 24.6546 259.671 20.808 262.169 17.4109C263.942 15.013 265.641 12.6901 266.215 9.31801L266.215 4.32239C265.99 2.67383 265.566 1.27505 264.991 0.0761022C258.247 0.151031 251.653 0.750518 245.209 1.84956C245.958 3.14841 246.632 4.6471 247.107 6.44553C248.905 13.0897 246.782 17.361 244.909 21.1576Z" fill="#C31632"/>
<path d="M264.818 81.7528C265.017 83.9259 265.517 85.6494 266.241 87.0981L266.241 73.8847C265.192 75.9829 264.518 78.4058 264.818 81.7528Z" fill="#C31632"/>
<path d="M260.396 31.2479C260.87 36.7431 263.443 39.4157 266.241 42.0884L266.241 16.8105C265.691 17.6348 265.142 18.4091 264.567 19.1585C262.169 22.3806 259.896 25.4779 260.396 31.2479Z" fill="#C31632"/>
<path d="M159.11 95.3903C161.358 98.7624 163.481 101.96 169.051 103.458C174.622 104.957 178.068 103.233 181.69 101.435C185.462 99.5617 189.758 97.4385 196.427 99.212C203.097 101.01 205.744 104.982 208.067 108.504C210.315 111.876 212.438 115.073 218.033 116.572C223.629 118.07 227.051 116.372 230.697 114.549C234.494 112.675 238.765 110.552 245.434 112.325C247.807 112.95 249.656 113.874 251.18 114.948C251.354 114.648 251.529 114.349 251.729 114.074C250.73 113.2 249.531 112.4 248.007 111.701C242.762 109.253 239.09 110.352 235.194 111.476C231.147 112.675 226.551 114.024 220.282 111.102C214.037 108.179 212.114 103.808 210.415 99.9363C208.792 96.2146 207.243 92.6927 202.022 90.2698C196.777 87.822 193.105 88.896 189.209 90.07C185.162 91.2689 180.566 92.6178 174.322 89.6953C168.077 86.7729 166.154 82.4017 164.455 78.5301C162.832 74.8084 161.308 71.2864 156.063 68.8636C155.763 68.7137 155.488 68.6388 155.188 68.5139C152.316 74.2089 149.893 80.1287 147.92 86.2733C154.239 88.0967 156.837 91.9433 159.11 95.3903Z" fill="#C31632"/>
<path d="M229.875 123.392C229.475 123.667 229.075 123.966 228.676 124.266L248.483 124.266C248.483 123.317 248.608 122.393 248.758 121.469C247.01 120.32 244.887 119.47 241.964 119.221C236.219 118.721 233.147 120.994 229.875 123.392Z" fill="#C31632"/>
<path d="M154.289 114.55C157.087 117.497 159.734 120.27 165.479 120.769C171.224 121.244 174.322 118.996 177.569 116.598C180.966 114.1 184.837 111.253 191.681 111.852C198.55 112.451 201.847 115.923 204.77 118.971C206.793 121.094 208.741 123.092 211.789 124.266L222.779 124.266C224.752 123.467 226.401 122.268 228.099 121.019C231.496 118.521 235.368 115.674 242.237 116.273C245.284 116.548 247.607 117.397 249.531 118.521C249.631 118.221 249.681 117.922 249.805 117.647C248.482 116.648 246.858 115.799 244.685 115.224C239.09 113.725 235.668 115.424 232.021 117.222C228.249 119.096 223.953 121.219 217.284 119.445C210.615 117.647 207.967 113.675 205.644 110.153C203.396 106.781 201.273 103.584 195.703 102.086C190.133 100.587 186.686 102.31 183.064 104.109C179.292 105.982 174.996 108.105 168.327 106.332C161.658 104.558 159.01 100.562 156.687 97.0399C154.489 93.7428 152.391 90.6206 147.12 89.0969C145.347 95.1416 144.023 101.361 143.174 107.731C148.694 108.73 151.666 111.802 154.289 114.55Z" fill="#C31632"/>
<path d="M202.647 121.019C199.849 118.072 197.202 115.299 191.432 114.799C185.662 114.3 182.589 116.573 179.342 118.971C175.945 121.469 172.099 124.316 165.23 123.717C158.361 123.117 155.064 119.645 152.141 116.598C149.643 113.975 147.27 111.502 142.749 110.628C142.25 115.099 142 119.645 142 124.266L206.044 124.266C204.77 123.217 203.671 122.093 202.647 121.019Z" fill="#C31632"/>
<path d="M167.203 77.333C168.827 81.0547 170.35 84.5767 175.596 86.9995C180.816 89.4474 184.513 88.3483 188.41 87.1994C192.456 86.0004 197.052 84.6516 203.297 87.574C209.541 90.4965 211.464 94.8676 213.163 98.7392C214.787 102.461 216.335 105.983 221.556 108.406C226.801 110.854 230.473 109.78 234.369 108.631C238.416 107.457 243.012 106.083 249.281 109.005C251.055 109.83 252.454 110.779 253.627 111.778C253.902 111.503 254.202 111.278 254.502 111.028C253.802 110.279 252.953 109.53 251.929 108.83C247.183 105.508 243.386 105.933 239.34 106.383C235.119 106.857 230.373 107.382 224.728 103.435C219.083 99.4886 217.959 94.8177 216.96 90.7213C216.01 86.7747 215.111 83.053 210.365 79.7309C205.645 76.4088 201.823 76.8584 197.801 77.308C193.605 77.7826 188.859 78.3071 183.189 74.3606C177.544 70.4141 176.42 65.7431 175.421 61.6467C174.472 57.7002 173.573 53.9784 168.827 50.6564C168.202 50.2067 167.578 49.8321 166.978 49.5323C163.107 54.6778 159.635 60.1231 156.562 65.8431C156.812 65.943 157.062 66.0179 157.337 66.1428C163.581 69.0652 165.505 73.4614 167.203 77.333Z" fill="#C31632"/>
<path d="M192.055 46.7587C192.305 50.8052 192.555 54.6268 196.626 58.7232C200.723 62.8196 204.544 63.0444 208.591 63.2942C212.812 63.544 217.583 63.8687 222.454 68.7395C227.324 73.6102 227.624 78.406 227.899 82.6023C228.149 86.6488 228.398 90.4704 232.47 94.5668C236.566 98.6633 240.388 98.913 244.434 99.1628C248.656 99.4376 253.427 99.7373 258.322 104.608C259.271 105.557 260.071 106.506 260.695 107.456C261.095 107.331 261.494 107.181 261.919 107.081C261.619 106.506 261.27 105.932 260.87 105.357C257.548 100.612 253.826 99.7123 249.88 98.7632C245.783 97.764 241.112 96.64 237.166 90.995C233.219 85.3499 233.744 80.5791 234.218 76.3828C234.668 72.3363 235.093 68.5396 231.795 63.7938C228.473 59.0729 224.752 58.1737 220.805 57.1996C216.709 56.2004 212.038 55.0764 208.091 49.4314C204.145 43.7863 204.669 39.0155 205.144 34.8192C205.593 30.7727 206.018 26.976 202.721 22.2302C201.822 20.9563 200.898 19.9572 199.923 19.1579C194.403 22.6548 189.158 26.5764 184.287 30.8726C185.061 31.4471 185.836 32.0716 186.635 32.8459C191.506 37.7666 191.805 42.5624 192.055 46.7587Z" fill="#C31632"/>
<path d="M205.147 20.5821C209.093 26.2272 208.569 30.998 208.094 35.1943C207.645 39.2158 207.22 43.0374 210.517 47.7583C213.839 52.4792 217.561 53.4034 221.508 54.3525C225.604 55.3517 230.275 56.4757 234.221 62.1207C238.168 67.7658 237.643 72.5366 237.169 76.7329C236.719 80.7794 236.295 84.5761 239.592 89.3219C242.914 94.0678 246.635 94.967 250.582 95.9161C254.678 96.9153 259.349 98.0393 263.296 103.684C264.02 104.708 264.57 105.683 265.019 106.657C265.419 106.632 265.819 106.532 266.218 106.532L266.218 106.357C266.044 105.857 265.919 105.383 265.669 104.858C263.221 99.6129 259.699 98.0892 255.977 96.4407C252.106 94.7422 247.71 92.8189 244.787 86.5743C241.865 80.3298 243.213 75.7338 244.412 71.6874C245.561 67.7908 246.636 64.119 244.188 58.8736C241.74 53.6531 238.243 52.1045 234.521 50.4809C230.65 48.7824 226.253 46.8841 223.356 40.6146C220.433 34.37 221.782 29.774 222.981 25.7276C224.13 21.831 225.204 18.1592 222.756 12.9138C221.957 11.2153 221.058 9.94142 220.059 8.89234C213.939 11.3402 208.044 14.2377 202.449 17.5847C203.423 18.409 204.298 19.3832 205.147 20.5821Z" fill="#C31632"/>
<path d="M178.293 60.9721C179.242 64.9186 180.141 68.6404 184.887 71.9625C189.608 75.2845 193.43 74.8349 197.451 74.3853C201.647 73.8858 206.393 73.3862 212.063 77.3328C217.708 81.2793 218.832 85.9502 219.831 90.0466C220.781 93.9932 221.68 97.7149 226.426 101.037C231.172 104.359 234.968 103.934 239.015 103.485C243.211 103.01 247.982 102.486 253.627 106.432C254.926 107.356 255.975 108.306 256.849 109.28C257.199 109.055 257.573 108.88 257.948 108.68C257.474 108.031 256.949 107.381 256.275 106.732C252.178 102.636 248.357 102.386 244.31 102.136C240.089 101.861 235.318 101.562 230.422 96.6908C225.552 91.8201 225.252 87.0243 224.977 82.8279C224.727 78.7815 224.477 74.9598 220.381 70.8634C216.31 66.792 212.463 66.5422 208.417 66.2924C204.195 66.0177 199.424 65.7179 194.554 60.8472C189.683 55.9765 189.383 51.1807 189.108 46.9843C188.859 42.9379 188.609 39.1162 184.537 35.0198C183.688 34.1705 182.864 33.5211 182.015 32.9716C177.244 37.3678 172.848 42.1386 168.826 47.2341C169.401 47.5588 169.95 47.8835 170.55 48.2832C176.17 52.2048 177.294 56.8507 178.293 60.9721Z" fill="#C31632"/>
<path d="M225.874 26.5537C224.725 30.4503 223.651 34.1221 226.099 39.3675C228.547 44.6129 232.044 46.1366 235.765 47.7602C239.637 49.4587 244.033 51.357 246.931 57.6016C249.853 63.8461 248.504 68.4421 247.305 72.5135C246.156 76.4101 245.082 80.0819 247.53 85.3273C249.978 90.5727 253.5 92.0964 257.222 93.7449C260.244 95.0687 263.566 96.5425 266.264 100.089L266.264 98.0411C265.09 96.9921 263.791 96.1178 262.467 95.2436C258.945 92.8957 254.949 90.248 253.175 83.5788C251.402 76.9096 253.525 72.6134 255.398 68.8417C257.197 65.1949 258.92 61.7729 257.422 56.1778C255.923 50.6077 252.726 48.4845 249.354 46.2365C245.832 43.9135 241.835 41.2659 240.062 34.5967C238.288 27.9275 240.411 23.6563 242.285 19.8596C244.083 16.2378 245.807 12.7908 244.308 7.22066C243.784 5.22242 243.009 3.69875 242.11 2.42487C235.591 3.72373 229.221 5.49718 223.102 7.77019C223.976 8.84425 224.8 10.1431 225.524 11.7167C228.422 17.9113 227.073 22.5073 225.874 26.5537Z" fill="#C31632"/>
<path d="M262.194 17.3615C259.696 20.7585 256.849 24.6052 257.448 31.4742C258.048 38.3431 261.52 41.6403 264.567 44.5627C265.141 45.1122 265.691 45.6368 266.24 46.1863L266.24 42.0399C263.443 39.3673 260.87 36.7196 260.396 31.1994C259.896 25.4544 262.169 22.3571 264.567 19.085C265.116 18.3357 265.691 17.5613 266.24 16.7371L266.24 9.24363C265.666 12.6407 263.967 14.9636 262.194 17.3615Z" fill="black"/>
<path d="M223.052 25.7278C221.853 29.7742 220.504 34.3702 223.426 40.6147C226.349 46.8593 230.72 48.7826 234.592 50.4811C238.313 52.1047 241.81 53.6283 244.258 58.8738C246.706 64.1192 245.607 67.7909 244.483 71.6875C243.284 75.734 241.935 80.33 244.858 86.5745C247.78 92.819 252.176 94.7423 256.048 96.4409C259.77 98.0644 263.292 99.6131 265.739 104.858C265.989 105.383 266.089 105.858 266.289 106.357L266.289 100.063C263.591 96.5408 260.269 95.0421 257.247 93.7182C253.525 92.0947 250.003 90.546 247.555 85.3006C245.107 80.0552 246.206 76.3834 247.331 72.4868C248.529 68.4404 249.878 63.8444 246.956 57.5749C244.033 51.3304 239.662 49.407 235.791 47.7335C232.069 46.1099 228.547 44.5863 226.124 39.3409C223.676 34.0955 224.775 30.4237 225.899 26.5271C227.098 22.4806 228.447 17.8846 225.525 11.6401C224.8 10.0665 223.976 8.7926 223.102 7.69357C222.103 8.06824 221.128 8.46789 220.154 8.84256C221.153 9.89164 222.053 11.1655 222.852 12.864C225.275 18.1344 224.201 21.8312 223.052 25.7278Z" fill="black"/>
<path d="M164.478 78.5076C166.176 82.3792 168.075 86.7754 174.344 89.6729C180.589 92.5953 185.185 91.2215 189.231 90.0475C193.128 88.8985 196.8 87.8245 202.045 90.2474C207.29 92.6952 208.814 96.1921 210.438 99.9139C212.136 103.785 214.034 108.182 220.304 111.079C226.548 114.002 231.169 112.653 235.216 111.454C239.112 110.305 242.784 109.231 248.03 111.679C249.553 112.378 250.752 113.202 251.751 114.052C252.326 113.252 252.95 112.478 253.625 111.778C252.451 110.754 251.052 109.83 249.279 109.006C243.034 106.083 238.438 107.457 234.367 108.631C230.47 109.78 226.798 110.854 221.553 108.406C216.307 105.959 214.784 102.462 213.16 98.7399C211.462 94.8683 209.563 90.4722 203.294 87.5747C197.049 84.6772 192.453 86.0261 188.407 87.2C184.51 88.349 180.839 89.4231 175.593 87.0002C170.348 84.5523 168.824 81.0554 167.2 77.3337C165.502 73.4621 163.604 69.0659 157.334 66.1684C157.059 66.0435 156.835 65.9686 156.56 65.8687C156.085 66.7429 155.661 67.6172 155.211 68.5164C155.511 68.6413 155.785 68.7162 156.085 68.8661C161.331 71.289 162.854 74.7859 164.478 78.5076Z" fill="black"/>
<path d="M204.792 118.971C201.87 115.899 198.573 112.452 191.704 111.852C184.86 111.253 180.988 114.1 177.591 116.598C174.319 119.021 171.246 121.269 165.502 120.769C159.732 120.27 157.109 117.497 154.311 114.55C151.689 111.802 148.716 108.73 143.146 107.706C143.021 108.68 142.871 109.654 142.771 110.628C147.293 111.503 149.665 113.975 152.163 116.598C155.086 119.645 158.383 123.117 165.252 123.717C172.121 124.316 175.967 121.469 179.364 118.971C182.637 116.548 185.709 114.275 191.454 114.8C197.224 115.299 199.846 118.072 202.669 121.019C203.693 122.093 204.792 123.217 206.066 124.266L211.861 124.266C208.739 123.117 206.79 121.094 204.792 118.971Z" fill="black"/>
<path d="M242.26 19.8338C240.387 23.6055 238.264 27.9018 240.037 34.5709C241.811 41.2401 245.807 43.8878 249.329 46.2107C252.701 48.4588 255.898 50.5819 257.397 56.152C258.896 61.7471 257.197 65.1691 255.374 68.8159C253.5 72.5876 251.377 76.8839 253.151 83.553C254.949 90.2222 258.921 92.8699 262.443 95.2178C263.766 96.0921 265.065 96.9663 266.239 98.0154L266.239 94.2437C265.515 93.7191 264.791 93.2196 264.091 92.745C260.719 90.497 257.522 88.3738 256.023 82.7787C254.525 77.1836 256.223 73.7616 258.047 70.1148C259.92 66.3431 262.043 62.0469 260.27 55.3777C258.496 48.7085 254.5 46.0609 250.978 43.7379C247.606 41.4899 244.408 39.3667 242.91 33.7966C241.411 28.2265 243.11 24.7795 244.933 21.1577C246.806 17.386 248.929 13.0897 247.156 6.42058C246.681 4.59717 246.007 3.12345 245.258 1.82458C244.209 1.99944 243.16 2.17429 242.11 2.37411C243.01 3.64799 243.759 5.19663 244.309 7.16991C245.757 12.765 244.059 16.187 242.26 19.8338Z" fill="black"/>
<path d="M156.633 97.0161C158.981 100.538 161.628 104.535 168.272 106.308C174.942 108.081 179.213 105.958 183.01 104.085C186.631 102.287 190.078 100.563 195.648 102.062C201.244 103.56 203.342 106.758 205.59 110.13C207.938 113.652 210.585 117.648 217.23 119.422C223.899 121.195 228.195 119.072 231.967 117.198C235.613 115.4 239.035 113.702 244.631 115.2C246.804 115.775 248.427 116.624 249.751 117.623C250.126 116.699 250.6 115.8 251.125 114.975C249.601 113.901 247.753 112.977 245.38 112.353C238.711 110.554 234.415 112.702 230.643 114.576C226.996 116.374 223.574 118.098 217.979 116.599C212.384 115.1 210.261 111.903 208.013 108.531C205.665 105.009 203.017 101.013 196.373 99.2392C189.704 97.4657 185.432 99.5889 181.636 101.462C177.989 103.261 174.567 104.959 168.997 103.485C163.402 101.987 161.304 98.7896 159.055 95.4175C156.782 91.9955 154.185 88.1239 147.89 86.2755C147.591 87.1997 147.316 88.1489 147.041 89.0981C152.361 90.6217 154.46 93.719 156.633 97.0161Z" fill="black"/>
<path d="M189.108 46.9581C189.383 51.1794 189.682 55.9502 194.553 60.8209C199.424 65.6917 204.195 65.9914 208.416 66.2662C212.462 66.516 216.284 66.7657 220.381 70.8372C224.477 74.9336 224.702 78.7552 224.976 82.8017C225.251 87.023 225.551 91.7938 230.422 96.6645C235.293 101.535 240.088 101.835 244.31 102.11C248.356 102.36 252.203 102.609 256.274 106.706C256.924 107.355 257.473 108.005 257.948 108.654C258.847 108.179 259.771 107.78 260.745 107.455C260.096 106.506 259.321 105.557 258.372 104.608C253.502 99.7369 248.706 99.4121 244.484 99.1624C240.438 98.9126 236.591 98.6628 232.52 94.5664C228.424 90.47 228.199 86.6483 227.949 82.6019C227.674 78.3806 227.374 73.6097 222.504 68.739C217.633 63.8683 212.862 63.5685 208.641 63.2938C204.594 63.044 200.773 62.7942 196.676 58.7228C192.58 54.6264 192.355 50.8047 192.105 46.7583C191.831 42.5369 191.531 37.7661 186.66 32.8954C185.886 32.1211 185.086 31.4716 184.312 30.9221C183.563 31.5965 182.788 32.246 182.039 32.9453C182.863 33.4949 183.713 34.1443 184.562 34.9936C188.608 39.065 188.858 42.9116 189.108 46.9581Z" fill="black"/>
<path d="M242.233 116.273C235.364 115.649 231.493 118.521 228.096 121.019C226.397 122.268 224.774 123.467 222.775 124.266L228.645 124.266C229.045 123.967 229.445 123.692 229.844 123.392C233.116 120.994 236.189 118.696 241.959 119.221C244.881 119.471 247.004 120.32 248.753 121.469C248.927 120.445 249.177 119.471 249.502 118.521C247.604 117.397 245.306 116.548 242.233 116.273Z" fill="black"/>
<path d="M175.415 61.6463C176.414 65.7427 177.538 70.4136 183.183 74.3602C188.828 78.3067 193.574 77.7822 197.795 77.3076C201.817 76.858 205.638 76.4334 210.359 79.7305C215.105 83.0526 216.004 86.7743 216.953 90.7209C217.953 94.8173 219.077 99.4882 224.722 103.435C230.367 107.406 235.113 106.857 239.334 106.382C243.355 105.933 247.177 105.508 251.923 108.83C252.947 109.554 253.771 110.279 254.496 111.028C255.245 110.379 256.019 109.754 256.844 109.23C255.969 108.256 254.92 107.306 253.621 106.382C247.976 102.411 243.206 102.96 239.009 103.435C234.963 103.884 231.166 104.309 226.42 100.987C221.674 97.6648 220.775 93.943 219.826 89.9965C218.827 85.9001 217.703 81.2292 212.058 77.2826C206.413 73.3361 201.667 73.8356 197.446 74.3352C193.424 74.7848 189.602 75.2094 184.882 71.9123C180.136 68.5902 179.236 64.8685 178.287 60.9219C177.288 56.8255 176.164 52.1546 170.519 48.2081C169.945 47.8084 169.37 47.4587 168.796 47.159C168.171 47.9333 167.547 48.7076 166.947 49.5069C167.547 49.8317 168.171 50.1814 168.796 50.631C173.541 53.978 174.466 57.6998 175.415 61.6463Z" fill="black"/>
<path d="M202.718 22.2809C206.04 27.0017 205.615 30.8234 205.14 34.8699C204.666 39.0662 204.141 43.837 208.088 49.4821C212.034 55.1271 216.705 56.2511 220.802 57.2503C224.748 58.1994 228.47 59.0986 231.792 63.8445C235.114 68.5903 234.69 72.387 234.215 76.4335C233.74 80.6298 233.216 85.3756 237.162 91.0457C241.134 96.6907 245.78 97.8397 249.876 98.8139C253.823 99.763 257.545 100.687 260.867 105.408C261.291 106.008 261.616 106.582 261.916 107.132C262.915 106.882 263.939 106.757 264.988 106.682C264.538 105.708 263.989 104.734 263.264 103.71C259.293 98.0645 254.647 96.9405 250.551 95.9414C246.604 94.9922 242.882 94.068 239.56 89.3472C236.238 84.6013 236.663 80.8046 237.137 76.7582C237.612 72.5619 238.136 67.791 234.19 62.146C230.243 56.5009 225.597 55.3769 221.476 54.3778C217.53 53.4286 213.808 52.5294 210.486 47.7836C207.164 43.0627 207.588 39.241 208.063 35.2196C208.537 31.0232 209.062 26.2524 205.115 20.6074C204.266 19.4084 203.392 18.4592 202.518 17.61C201.643 18.1345 200.769 18.684 199.92 19.2336C200.869 20.0079 201.818 20.982 202.718 22.2809Z" fill="black"/>
<path d="M261.869 82.0052C262.294 86.826 264.117 89.8733 266.24 92.2712L266.24 87.1008C265.516 85.652 265.016 83.9036 264.817 81.7554C264.517 78.4084 265.191 75.9855 266.24 73.8873L266.24 68.3921C263.842 71.6643 261.295 75.4859 261.869 82.0052Z" fill="black"/>
<path d="M195.253 124.266H142V177.52C142.025 148.12 165.854 124.266 195.253 124.266Z" fill="#F6AC1B"/>
<path d="M195.254 230.775H248.507V177.521C248.507 206.945 224.678 230.775 195.254 230.775Z" fill="#F6AC1B"/>
<path d="M142.023 177.521V230.775H195.277C165.853 230.775 142.023 206.945 142.023 177.521Z" fill="#F6AC1B"/>
<path d="M195.254 124.266C224.653 124.266 248.507 148.12 248.507 177.52V124.266H195.254Z" fill="#F6AC1B"/>
<path d="M195.253 124.266C165.854 124.266 142 148.12 142 177.52C142 206.919 165.854 230.773 195.253 230.773C224.653 230.773 248.507 206.919 248.507 177.52C248.507 148.12 224.678 124.266 195.253 124.266ZM195.253 195.279C185.462 195.279 177.494 187.336 177.494 177.52C177.494 167.703 185.437 159.76 195.253 159.76C205.045 159.76 213.013 167.703 213.013 177.52C213.013 187.336 205.07 195.279 195.253 195.279Z" fill="white"/>
<path d="M195.254 195.28C205.062 195.28 213.013 187.329 213.013 177.521C213.013 167.713 205.062 159.761 195.254 159.761C185.445 159.761 177.494 167.713 177.494 177.521C177.494 187.329 185.445 195.28 195.254 195.28Z" fill="#F6AC1B"/>
<path d="M156.962 303.164C156.726 302.72 156.563 302.247 156.563 301.715C156.563 301.198 156.711 300.725 156.933 300.296L142.043 285.395V318.079L156.962 303.164Z" fill="#C31632"/>
<path d="M142.059 337.207H158.396L142.059 320.858V337.207Z" fill="#C31632"/>
<path d="M230.646 304.878C230.143 304.878 229.7 304.745 229.287 304.538L215.83 318.005C216.037 318.419 216.169 318.877 216.169 319.365C216.169 319.912 215.992 320.4 215.756 320.843L230.675 335.818L247.012 319.468L232.049 304.494C231.62 304.716 231.148 304.878 230.646 304.878Z" fill="#C31632"/>
<path d="M198.354 266.134C198.354 266.666 198.191 267.139 197.955 267.582L211.545 281.182C211.929 281.005 212.357 280.901 212.815 280.901C213.347 280.901 213.82 281.064 214.263 281.3L227.912 267.641C227.661 267.183 227.483 266.695 227.483 266.134C227.483 265.646 227.616 265.188 227.808 264.774L214.292 251.248C213.849 251.484 213.362 251.662 212.815 251.662C212.343 251.662 211.914 251.543 211.515 251.366L198.058 264.833C198.236 265.232 198.354 265.675 198.354 266.134Z" fill="#C31632"/>
<path d="M210.141 318.048L196.611 304.508C196.182 304.729 195.709 304.877 195.192 304.877C194.705 304.877 194.247 304.744 193.833 304.537L180.377 318.004C180.583 318.418 180.716 318.876 180.716 319.364C180.716 319.911 180.539 320.399 180.303 320.842L195.252 335.802L210.245 320.798C210.008 320.354 209.861 319.881 209.861 319.349C209.831 318.891 209.949 318.447 210.141 318.048Z" fill="#C31632"/>
<path d="M229.181 263.369C229.624 263.133 230.097 262.97 230.629 262.97C231.175 262.97 231.678 263.147 232.135 263.399L247.01 248.513L230.673 232.178L215.665 247.197C215.842 247.596 215.961 248.04 215.961 248.498C215.961 248.986 215.842 249.429 215.65 249.829L229.181 263.369Z" fill="#C31632"/>
<path d="M177.54 322.543C177.052 322.543 176.594 322.41 176.181 322.203L161.188 337.207H193.847L178.869 322.218C178.455 322.41 178.012 322.543 177.54 322.543Z" fill="#C31632"/>
<path d="M227.468 301.715C227.468 301.198 227.616 300.725 227.838 300.296L214.336 286.785C213.879 287.051 213.376 287.243 212.8 287.243C212.313 287.243 211.855 287.11 211.441 286.903L197.999 300.355C198.206 300.769 198.339 301.227 198.339 301.715C198.339 302.218 198.191 302.691 197.984 303.105L211.5 316.631C211.943 316.379 212.431 316.217 212.977 316.217C213.509 316.217 213.982 316.379 214.425 316.601L227.867 303.149C227.631 302.72 227.468 302.232 227.468 301.715Z" fill="#C31632"/>
<path d="M230.645 269.298C230.172 269.298 229.744 269.18 229.33 269.002L215.637 282.706C215.844 283.12 215.976 283.578 215.976 284.066C215.976 284.524 215.873 284.952 215.696 285.337L229.241 298.892C229.67 298.685 230.128 298.537 230.63 298.537C231.162 298.537 231.634 298.7 232.077 298.922L247.011 283.977L231.989 268.943C231.575 269.165 231.132 269.298 230.645 269.298Z" fill="#C31632"/>
<path d="M212.993 322.543C212.49 322.543 212.047 322.41 211.634 322.203L196.641 337.207H229.301L214.322 322.218C213.909 322.41 213.465 322.543 212.993 322.543Z" fill="#C31632"/>
<path d="M233.807 266.134C233.807 266.666 233.645 267.154 233.408 267.583L248.401 282.602V249.918L233.497 264.833C233.689 265.232 233.807 265.676 233.807 266.134Z" fill="#C31632"/>
<path d="M196.536 268.97C196.122 269.177 195.664 269.311 195.177 269.311C194.704 269.311 194.276 269.192 193.877 269.015L180.184 282.718C180.39 283.132 180.523 283.59 180.523 284.078C180.523 284.536 180.42 284.965 180.243 285.349L193.788 298.905C194.217 298.698 194.674 298.55 195.177 298.55C195.708 298.55 196.181 298.713 196.624 298.949L210.037 285.527C209.801 285.083 209.638 284.61 209.638 284.078C209.638 283.502 209.83 282.999 210.096 282.541L196.536 268.97Z" fill="#C31632"/>
<path d="M233.806 301.715C233.806 302.218 233.658 302.691 233.451 303.105L248.4 318.079V285.395L233.466 300.34C233.658 300.754 233.806 301.212 233.806 301.715Z" fill="#C31632"/>
<path d="M248.4 230.788H232.062L248.4 247.137V230.788Z" fill="#C31632"/>
<path d="M193.73 263.369C194.173 263.133 194.646 262.97 195.178 262.97C195.739 262.97 196.226 263.148 196.684 263.399L210.067 250.006C209.816 249.548 209.639 249.06 209.639 248.498C209.639 247.951 209.816 247.463 210.053 247.02L195.222 232.178L180.214 247.197C180.391 247.596 180.509 248.025 180.509 248.498C180.509 248.986 180.391 249.43 180.199 249.829L193.73 263.369Z" fill="#C31632"/>
<path d="M174.69 318.048L161.159 304.508C160.731 304.729 160.258 304.877 159.741 304.877C159.254 304.877 158.796 304.744 158.382 304.537L143.463 319.467L159.8 335.817L174.779 320.827C174.542 320.384 174.38 319.911 174.38 319.379C174.38 318.891 174.498 318.447 174.69 318.048Z" fill="#C31632"/>
<path d="M162.901 266.134C162.901 266.666 162.738 267.139 162.502 267.582L176.092 281.182C176.476 281.005 176.904 280.901 177.362 280.901C177.894 280.901 178.367 281.064 178.81 281.3L192.459 267.641C192.208 267.183 192.03 266.695 192.03 266.134C192.03 265.646 192.163 265.188 192.37 264.774L178.854 251.248C178.411 251.484 177.923 251.662 177.377 251.662C176.904 251.662 176.476 251.543 176.077 251.366L162.62 264.833C162.783 265.232 162.901 265.675 162.901 266.134Z" fill="#C31632"/>
<path d="M159.741 298.55C160.273 298.55 160.746 298.713 161.189 298.949L174.601 285.527C174.365 285.083 174.202 284.61 174.202 284.078C174.202 283.502 174.395 282.999 174.66 282.541L161.1 268.97C160.687 269.177 160.229 269.311 159.741 269.311C159.268 269.311 158.84 269.192 158.441 269.015L143.463 284.004L158.353 298.905C158.766 298.683 159.224 298.55 159.741 298.55Z" fill="#C31632"/>
<path d="M177.363 245.335C177.925 245.335 178.412 245.512 178.87 245.764L193.848 230.774H161.174L176.019 245.63C176.433 245.468 176.876 245.335 177.363 245.335Z" fill="#C31632"/>
<path d="M159.741 262.971C160.302 262.971 160.79 263.149 161.248 263.4L174.646 249.992C174.395 249.534 174.217 249.046 174.217 248.485C174.217 247.938 174.395 247.45 174.631 247.006L159.8 232.165L143.463 248.514L158.294 263.356C158.722 263.134 159.209 262.971 159.741 262.971Z" fill="#C31632"/>
<path d="M212.815 245.335C213.377 245.335 213.864 245.512 214.322 245.764L229.301 230.774H196.641L211.471 245.66C211.885 245.468 212.328 245.335 212.815 245.335Z" fill="#C31632"/>
<path d="M192.015 301.715C192.015 301.198 192.163 300.725 192.385 300.296L178.883 286.785C178.425 287.051 177.908 287.243 177.347 287.243C176.86 287.243 176.402 287.11 175.988 286.903L162.546 300.355C162.753 300.769 162.886 301.227 162.886 301.715C162.886 302.218 162.738 302.676 162.531 303.105L176.047 316.631C176.49 316.394 176.978 316.217 177.524 316.217C178.056 316.217 178.529 316.379 178.972 316.616L192.414 303.164C192.178 302.72 192.015 302.247 192.015 301.715Z" fill="#C31632"/>
<path d="M232.062 337.207H248.4V320.858L232.062 337.207Z" fill="#C31632"/>
<path d="M248.399 318.079L233.436 303.104C233.643 302.676 233.79 302.217 233.79 301.715C233.79 301.212 233.657 300.769 233.451 300.355L248.399 285.395V282.601L233.406 267.597C233.643 267.154 233.805 266.681 233.805 266.148C233.805 265.675 233.687 265.247 233.51 264.833L248.399 249.917V247.123L232.062 230.774H229.27L214.292 245.764C213.834 245.512 213.347 245.335 212.785 245.335C212.298 245.335 211.855 245.453 211.456 245.645L196.596 230.774H193.804L178.825 245.764C178.368 245.512 177.88 245.335 177.319 245.335C176.831 245.335 176.388 245.453 175.989 245.645L161.144 230.789H158.352L142.015 247.138V249.932L156.86 264.788C156.653 265.202 156.52 265.661 156.52 266.148C156.52 266.71 156.698 267.198 156.949 267.656L142 282.616V285.41L156.89 300.31C156.668 300.739 156.52 301.212 156.52 301.73C156.52 302.262 156.683 302.735 156.919 303.178L142.015 318.094V320.887L158.352 337.237H161.144L176.137 322.233C176.551 322.44 177.009 322.573 177.496 322.573C177.969 322.573 178.412 322.454 178.825 322.262L193.804 337.252H196.596L211.589 322.248C212.002 322.454 212.46 322.587 212.948 322.587C213.42 322.587 213.864 322.469 214.277 322.277L229.256 337.266H232.047L248.399 320.858V318.079ZM247.011 284.006L232.077 298.95C231.634 298.714 231.161 298.566 230.629 298.566C230.127 298.566 229.654 298.714 229.241 298.921L215.695 285.365C215.873 284.981 215.976 284.552 215.976 284.094C215.976 283.606 215.843 283.148 215.636 282.734L229.329 269.031C229.728 269.208 230.171 269.327 230.644 269.327C231.132 269.327 231.589 269.194 232.003 269.001L247.011 284.006ZM215.666 247.197L230.674 232.178L247.011 248.528L232.136 263.414C231.678 263.162 231.191 262.985 230.629 262.985C230.098 262.985 229.61 263.148 229.182 263.384L215.651 249.843C215.843 249.429 215.961 248.986 215.961 248.513C215.976 248.04 215.858 247.596 215.666 247.197ZM211.5 251.366C211.899 251.543 212.342 251.662 212.8 251.662C213.347 251.662 213.834 251.484 214.277 251.248L227.793 264.774C227.601 265.188 227.468 265.646 227.468 266.134C227.468 266.681 227.645 267.183 227.897 267.641L214.248 281.3C213.804 281.064 213.332 280.901 212.8 280.901C212.342 280.901 211.914 281.005 211.53 281.182L197.94 267.582C198.176 267.139 198.339 266.666 198.339 266.134C198.339 265.661 198.221 265.232 198.043 264.833L211.5 251.366ZM210.038 285.513L196.625 298.936C196.182 298.699 195.709 298.537 195.178 298.537C194.675 298.537 194.203 298.684 193.789 298.891L180.244 285.336C180.421 284.952 180.524 284.523 180.524 284.065C180.524 283.577 180.391 283.119 180.184 282.705L193.878 269.001C194.277 269.179 194.72 269.297 195.178 269.297C195.665 269.297 196.123 269.164 196.537 268.957L210.097 282.527C209.831 282.986 209.639 283.488 209.639 284.065C209.639 284.612 209.816 285.085 210.038 285.513ZM180.229 247.197L195.237 232.178L210.067 247.02C209.831 247.463 209.654 247.951 209.654 248.498C209.654 249.06 209.831 249.548 210.082 250.006L196.699 263.399C196.241 263.148 195.754 262.97 195.192 262.97C194.661 262.97 194.188 263.133 193.745 263.369L180.214 249.829C180.406 249.415 180.524 248.971 180.524 248.498C180.524 248.04 180.406 247.596 180.229 247.197ZM176.063 251.366C176.462 251.543 176.89 251.662 177.363 251.662C177.91 251.662 178.397 251.484 178.84 251.248L192.356 264.774C192.149 265.188 192.016 265.646 192.016 266.134C192.016 266.695 192.194 267.183 192.445 267.641L178.796 281.3C178.353 281.064 177.88 280.901 177.348 280.901C176.89 280.901 176.462 281.005 176.078 281.182L162.488 267.582C162.724 267.139 162.887 266.666 162.887 266.134C162.887 265.661 162.769 265.232 162.592 264.833L176.063 251.366ZM143.448 248.528L159.785 232.178L174.616 247.02C174.379 247.463 174.202 247.951 174.202 248.498C174.202 249.06 174.379 249.548 174.63 250.006L161.247 263.414C160.789 263.162 160.302 262.985 159.741 262.985C159.209 262.985 158.736 263.148 158.293 263.384L143.448 248.528ZM143.448 284.006L158.426 269.016C158.825 269.194 159.253 269.312 159.726 269.312C160.213 269.312 160.671 269.179 161.085 268.972L174.645 282.542C174.379 283 174.187 283.518 174.187 284.079C174.187 284.612 174.35 285.085 174.586 285.528L161.173 298.95C160.73 298.714 160.258 298.551 159.726 298.551C159.224 298.551 158.766 298.699 158.337 298.906L143.448 284.006ZM159.785 335.818L143.448 319.468L158.367 304.538C158.78 304.745 159.238 304.878 159.726 304.878C160.243 304.878 160.716 304.73 161.144 304.509L174.675 318.049C174.483 318.463 174.364 318.892 174.364 319.38C174.364 319.912 174.527 320.385 174.763 320.828L159.785 335.818ZM177.54 316.201C176.994 316.201 176.506 316.379 176.063 316.615L162.547 303.09C162.754 302.661 162.902 302.203 162.902 301.7C162.902 301.212 162.769 300.754 162.562 300.34L176.004 286.888C176.418 287.095 176.876 287.228 177.363 287.228C177.939 287.228 178.441 287.036 178.899 286.77L192.401 300.281C192.179 300.71 192.031 301.183 192.031 301.7C192.031 302.232 192.194 302.705 192.43 303.149L178.988 316.601C178.545 316.364 178.072 316.201 177.54 316.201ZM195.237 335.818L180.288 320.858C180.524 320.414 180.701 319.927 180.701 319.38C180.701 318.892 180.569 318.434 180.362 318.02L193.819 304.553C194.232 304.76 194.69 304.893 195.178 304.893C195.695 304.893 196.167 304.745 196.596 304.523L210.126 318.064C209.934 318.463 209.816 318.907 209.816 319.395C209.816 319.927 209.979 320.4 210.2 320.843L195.237 335.818ZM212.992 316.201C212.446 316.201 211.958 316.379 211.515 316.615L197.999 303.09C198.206 302.661 198.353 302.203 198.353 301.7C198.353 301.212 198.221 300.754 198.014 300.34L211.456 286.888C211.869 287.095 212.327 287.228 212.815 287.228C213.391 287.228 213.893 287.036 214.351 286.77L227.852 300.281C227.631 300.71 227.483 301.183 227.483 301.7C227.483 302.232 227.645 302.705 227.867 303.149L214.425 316.601C213.997 316.364 213.509 316.201 212.992 316.201ZM230.674 335.818L215.725 320.858C215.976 320.414 216.138 319.927 216.138 319.38C216.138 318.877 216.005 318.434 215.799 318.02L229.256 304.553C229.669 304.76 230.127 304.893 230.615 304.893C231.132 304.893 231.604 304.745 232.033 304.523L246.996 319.498L230.674 335.818Z" fill="#F6AC1B"/>
<path d="M156.903 264.774L142.058 249.917V247.123L158.395 230.774H142.043V266.444H142.058V282.586L157.007 267.627C156.755 267.168 156.578 266.681 156.578 266.119C156.563 265.646 156.711 265.188 156.903 264.774Z" fill="#C31632"/>
<path d="M204.845 404.308C202.122 406.206 198.825 407.33 195.253 407.33C191.731 407.33 188.484 406.256 185.787 404.408C183.439 426.438 164.805 443.623 142.15 443.623C142.15 420.968 159.31 402.334 181.366 399.986C179.517 397.289 178.443 394.042 178.443 390.52C178.443 386.948 179.567 383.651 181.465 380.928C159.385 378.63 142.15 359.971 142.15 337.266H142V443.773H248.507V443.623C225.802 443.623 207.143 426.388 204.845 404.308Z" fill="#F6AC1B"/>
<path d="M185.812 376.605C188.51 374.782 191.757 373.708 195.254 373.708C198.826 373.708 202.123 374.832 204.821 376.73C207.044 354.575 225.752 337.29 248.482 337.29H142.15C164.856 337.265 183.539 354.5 185.812 376.605Z" fill="#F6AC1B"/>
<path d="M209.041 380.953C210.939 383.676 212.063 386.973 212.063 390.52C212.063 394.017 210.989 397.264 209.166 399.961C231.272 402.234 248.506 420.918 248.506 443.623V337.266C248.506 360.021 231.197 378.705 209.041 380.953Z" fill="#F6AC1B"/>
<path d="M209.167 399.961C210.99 397.264 212.064 394.017 212.064 390.52C212.064 386.948 210.94 383.651 209.042 380.953C231.197 378.73 248.482 360.021 248.482 337.291C225.727 337.291 207.044 354.576 204.821 376.732C202.098 374.833 198.801 373.709 195.254 373.709C191.757 373.709 188.51 374.784 185.812 376.607C183.539 354.501 164.856 337.266 142.15 337.266C142.15 359.971 159.385 378.63 181.466 380.928C179.568 383.651 178.444 386.948 178.444 390.52C178.444 394.042 179.518 397.289 181.366 399.986C159.335 402.334 142.15 420.968 142.15 443.623C164.806 443.623 183.439 426.463 185.787 404.408C188.485 406.256 191.732 407.33 195.254 407.33C198.826 407.33 202.123 406.206 204.846 404.308C207.143 426.388 225.802 443.623 248.507 443.623C248.507 420.918 231.272 402.234 209.167 399.961Z" fill="black"/>
<path d="M188.845 550.404C193.765 547.457 198.461 544.159 202.907 540.563L139.613 465.129L188.845 550.404Z" fill="black"/>
<path d="M169.961 559.621C175.306 557.548 180.477 555.125 185.447 552.353L136.39 467.402L169.961 559.621Z" fill="black"/>
<path d="M205.955 538.04C210.327 534.294 214.423 530.247 218.22 525.926L142.436 462.332L205.955 538.04Z" fill="black"/>
<path d="M128.971 567.939C134.741 567.764 140.386 567.189 145.931 566.265L128.971 470.099L128.971 567.939Z" fill="black"/>
<path d="M149.805 565.565C155.45 564.416 160.92 562.892 166.24 561.019L132.77 469.099L149.805 565.565Z" fill="black"/>
<path d="M220.79 522.928C224.461 518.482 227.834 513.761 230.881 508.84L144.681 459.084L220.79 522.928Z" fill="black"/>
<path d="M247.393 465.305C248.392 459.585 248.992 453.716 249.191 447.746L147.755 447.746L247.393 465.305Z" fill="black"/>
<path d="M232.88 505.444C235.752 500.424 238.3 495.178 240.448 489.733L146.356 455.488L232.88 505.444Z" fill="black"/>
<path d="M241.897 486.059C243.87 480.589 245.468 474.968 246.692 469.173L147.404 451.664L241.897 486.059Z" fill="black"/>
<path d="M128.971 567.939L128.971 470.1L145.931 566.266C147.23 566.041 148.529 565.841 149.803 565.567L132.793 469.076L166.263 560.996C167.512 560.546 168.736 560.096 169.96 559.622L136.389 467.402L185.446 552.353C186.595 551.704 187.744 551.054 188.868 550.38L139.637 465.104L202.931 540.538C203.955 539.714 204.954 538.865 205.953 538.016L142.434 462.307L218.218 525.901C219.092 524.927 219.966 523.928 220.79 522.929L144.682 459.06L230.882 508.816C231.581 507.692 232.23 506.568 232.88 505.419L146.356 455.463L240.448 489.708C240.923 488.484 241.422 487.26 241.872 486.036L147.38 451.641L246.668 469.151C246.943 467.877 247.142 466.578 247.367 465.279L147.729 447.72L249.166 447.72C249.216 446.396 249.266 445.097 249.266 443.773L142.759 443.773C142.759 453.565 134.816 461.533 124.999 461.533L124.999 568.039C126.348 568.039 127.647 567.989 128.971 567.939Z" fill="white"/>
<path d="M60.9113 585.252L68.3674 585.252C68.3674 554.395 93.3964 529.366 124.254 529.366L124.254 521.91C89.3183 521.91 60.9113 550.317 60.9113 585.252Z" fill="#F6AC1B"/>
<path d="M95.0943 585.252L102.55 585.252C102.55 573.28 112.282 563.549 124.254 563.549L124.254 556.093C108.169 556.11 95.0943 569.167 95.0943 585.252Z" fill="#F6AC1B"/>
<path d="M83.6999 585.252L91.1561 585.252C91.1561 566.997 105.981 552.154 124.254 552.154L124.254 544.698C101.885 544.716 83.6999 562.884 83.6999 585.252Z" fill="#F6AC1B"/>
<path d="M72.3056 585.252L79.7618 585.252C79.7618 560.696 99.6975 540.76 124.254 540.76L124.254 533.304C95.6018 533.304 72.3056 556.6 72.3056 585.252Z" fill="#F6AC1B"/>
<path d="M49.5169 585.252L56.9731 585.252C56.9731 548.111 87.1129 517.972 124.254 517.972L124.254 510.515C83.0348 510.515 49.5169 544.033 49.5169 585.252Z" fill="#F6AC1B"/>
<path d="M15.3168 585.252L22.773 585.252C22.773 529.208 68.2103 483.788 124.237 483.788L124.237 476.332C64.1847 476.332 15.3168 525.2 15.3168 585.252Z" fill="#F6AC1B"/>
<path d="M3.92204 585.252L11.3783 585.252C11.3783 522.925 61.9089 472.377 124.254 472.377L124.254 464.92C57.9007 464.938 3.92204 518.917 3.92204 585.252Z" fill="#F6AC1B"/>
<path d="M38.1226 585.252L45.5788 585.252C45.5788 541.81 80.8119 506.577 124.254 506.577L124.254 499.121C76.7513 499.121 38.1226 537.75 38.1226 585.252Z" fill="#F6AC1B"/>
<path d="M26.7283 585.252L34.1844 585.252C34.1844 535.509 74.5109 495.183 124.254 495.183L124.254 487.727C70.4678 487.727 26.7283 531.466 26.7283 585.252Z" fill="#F6AC1B"/>
<path d="M124.254 464.938L124.254 461C119.966 461 115.73 461.21 111.547 461.647C105.281 462.277 99.1549 463.38 93.2039 464.92C87.253 466.461 81.4596 468.421 75.8937 470.766C70.3103 473.129 64.9544 475.877 59.826 478.993C56.413 481.076 53.105 483.298 49.9195 485.696C19.6221 508.362 0.00142305 544.523 0.00142126 585.27L3.93955 585.27C3.92206 518.917 57.9007 464.938 124.254 464.938Z" fill="#C31632"/>
<path d="M124.254 476.332L124.254 472.394C61.9264 472.394 11.3783 522.925 11.3783 585.27L15.3164 585.27C15.3164 525.2 64.1842 476.332 124.254 476.332Z" fill="#C31632"/>
<path d="M124.254 487.727L124.254 483.789C68.2099 483.789 22.7901 529.226 22.7901 585.252L26.7283 585.252C26.7283 531.466 70.4678 487.727 124.254 487.727Z" fill="#C31632"/>
<path d="M124.254 499.121L124.254 495.183C74.5109 495.183 34.1844 535.509 34.1844 585.252L38.1226 585.252C38.1226 537.75 76.7513 499.121 124.254 499.121Z" fill="#C31632"/>
<path d="M124.254 510.515L124.254 506.577C80.8119 506.577 45.5788 541.81 45.5788 585.252L49.5169 585.252C49.5169 544.033 83.0348 510.515 124.254 510.515Z" fill="#C31632"/>
<path d="M124.254 521.91L124.254 517.971C87.1129 517.971 56.9731 548.111 56.9731 585.252L60.9113 585.252C60.9113 550.317 89.3183 521.91 124.254 521.91Z" fill="#C31632"/>
<path d="M124.254 533.304L124.254 529.366C93.3964 529.366 68.3674 554.395 68.3674 585.252L72.3056 585.252C72.3056 556.6 95.6018 533.304 124.254 533.304Z" fill="#C31632"/>
<path d="M124.254 544.716L124.254 540.778C99.6975 540.778 79.7618 560.713 79.7618 585.27L83.6999 585.27C83.6999 562.884 101.885 544.716 124.254 544.716Z" fill="#C31632"/>
<path d="M124.254 556.11L124.254 552.172C105.998 552.172 91.1561 566.997 91.1561 585.27L95.0943 585.27C95.0943 569.167 108.169 556.11 124.254 556.11Z" fill="#C31632"/>
<path d="M124.254 567.504L124.254 563.566C112.282 563.566 102.55 573.298 102.55 585.27L106.489 585.27C106.489 575.451 114.435 567.504 124.254 567.504Z" fill="#C31632"/>
<path d="M122 604.621L122 706.984C56.2252 705.926 3.09821 652.777 2.01678 587L104.379 587C105.316 596.301 112.719 603.685 122 604.621Z" fill="#F6AC1B" stroke="#6BC9C6" stroke-width="4"/>
<path d="M335.507 603V606.946H229V692.746H335.507V696.693H229V705.56H335.507V709.507V683.879H229V679.932H335.507V671.04H229V667.094H335.507V658.226H229V654.28H335.507V645.413H229V641.466H335.507V632.599H229V628.652H335.507V619.76H229V615.814H335.507V603Z" fill="#C31632"/>
<path d="M335.507 603H229V606.946H335.507V603Z" fill="#6BC9C6"/>
<path d="M335.507 692.745H229V696.691H335.507V692.745Z" fill="#6BC9C6"/>
<path d="M335.507 705.558H229V709.505H335.507V705.558Z" fill="#6BC9C6"/>
<path d="M335.507 679.933H229V683.88H335.507V679.933Z" fill="#6BC9C6"/>
<path d="M335.507 667.094H229V671.041H335.507V667.094Z" fill="#6BC9C6"/>
<path d="M335.507 654.279H229V658.226H335.507V654.279Z" fill="#6BC9C6"/>
<path d="M335.507 641.468H229V645.414H335.507V641.468Z" fill="#6BC9C6"/>
<path d="M335.507 628.65H229V632.597H335.507V628.65Z" fill="#6BC9C6"/>
<path d="M335.507 615.813H229V619.76H335.507V615.813Z" fill="#6BC9C6"/>
<path d="M124 603V709.506H230.507V603H124ZM205.629 657.302H214.845V660.325C213.447 659.9 211.998 659.6 210.449 659.575H210.2C208.601 659.575 207.102 659.9 205.629 660.325V657.302ZM214.271 675.561C214.271 683.479 212.223 688.75 210.624 689.499H209.85C208.251 688.75 206.203 683.479 206.203 675.561C206.203 667.019 208.626 661.548 210.299 661.523H210.349C211.948 661.573 214.271 667.069 214.271 675.561ZM150.202 608.92H175.605V616.488H150.202V608.92ZM179.676 641.091C179.676 653.381 174.706 663.772 168.836 663.772H163.89V618.411H168.811C174.706 618.411 179.676 628.802 179.676 641.091ZM161.917 618.411V663.772H156.996C151.126 663.772 146.156 653.381 146.156 641.091C146.156 628.802 151.126 618.411 156.996 618.411H161.917ZM128.396 641.091C128.396 628.577 138.562 618.411 151.076 618.411H151.876C147.305 622.133 144.157 630.775 144.157 641.091C144.157 651.407 147.305 660.05 151.876 663.772H151.076C138.562 663.772 128.396 653.605 128.396 641.091ZM175.605 673.313V703.737H173.632V673.313H171.708V703.737H169.735V673.313H167.812V703.737H165.838V673.313H163.89V703.737H161.917V673.313H159.993V703.737H158.02V673.313H156.097V703.737H154.124V673.313H152.15V703.737H150.177V667.718V665.745H175.58V673.313H175.605ZM174.731 663.772H173.931C178.502 660.05 181.65 651.407 181.65 641.091C181.65 630.775 178.502 622.133 173.931 618.411H174.731C187.245 618.411 197.411 628.577 197.411 641.091C197.411 653.605 187.245 663.772 174.731 663.772ZM196.187 675.561C196.187 668.917 200.833 663.372 207.027 661.923C205.204 664.896 204.23 670.216 204.23 675.561C204.23 680.907 205.179 686.227 206.977 689.199C200.808 687.726 196.187 682.18 196.187 675.561ZM214.845 693.745H205.629V690.823C207.102 691.272 208.626 691.572 210.224 691.572C211.848 691.572 213.372 691.272 214.82 690.823V693.745H214.845ZM213.497 689.199C215.295 686.227 216.244 680.907 216.244 675.561C216.244 670.241 215.32 664.921 213.522 661.948C219.666 663.447 224.287 668.992 224.287 675.561C224.287 682.18 219.666 687.726 213.497 689.199Z" fill="#C31632"/>
<path d="M174.731 618.412H173.932C178.503 622.134 181.65 630.776 181.65 641.092C181.65 651.408 178.503 660.05 173.932 663.772H174.731C187.245 663.772 197.411 653.606 197.411 641.092C197.411 628.578 187.245 618.412 174.731 618.412Z" fill="#F6AC1B"/>
<path d="M163.891 663.772H168.811C174.681 663.772 179.652 653.381 179.652 641.092C179.652 628.803 174.681 618.412 168.811 618.412H163.891V663.772Z" fill="#F6AC1B"/>
<path d="M146.133 641.092C146.133 653.381 151.103 663.772 156.973 663.772H161.894V618.412H156.973C151.103 618.412 146.133 628.803 146.133 641.092Z" fill="#F6AC1B"/>
<path d="M151.875 663.772C147.304 660.05 144.157 651.408 144.157 641.092C144.157 630.776 147.304 622.134 151.875 618.412H151.076C138.562 618.412 128.396 628.578 128.396 641.092C128.396 653.606 138.562 663.772 151.076 663.772H151.875Z" fill="#F6AC1B"/>
<path d="M175.605 608.92H150.203V616.489H175.605V608.92Z" fill="#F6AC1B"/>
<path d="M150.203 667.721H150.178V703.715H152.151V673.316H154.1V703.715H156.073V673.316H157.996V703.74H159.97V673.316H161.918V703.74H163.891V673.316H165.815V703.74H167.788V673.316H169.736V703.74H171.709V673.316H173.633V703.74H175.606V673.316V665.748H150.203V667.721Z" fill="#F6AC1B"/>
<path d="M210.301 661.524C208.627 661.549 206.205 667.02 206.205 675.562C206.205 683.48 208.253 688.751 209.851 689.5H210.626C212.224 688.751 214.273 683.48 214.273 675.562C214.273 667.045 211.95 661.574 210.351 661.524H210.301Z" fill="#F6AC1B"/>
<path d="M204.231 675.562C204.231 670.217 205.205 664.897 207.028 661.924C200.834 663.373 196.188 668.918 196.188 675.562C196.188 682.182 200.809 687.727 206.979 689.2C205.18 686.228 204.231 680.908 204.231 675.562Z" fill="#F6AC1B"/>
<path d="M210.198 659.551H210.448C211.971 659.576 213.445 659.875 214.844 660.3V657.278H205.627V660.3C207.076 659.875 208.599 659.576 210.198 659.551Z" fill="#F6AC1B"/>
<path d="M205.627 690.824V693.747H214.844V690.824C213.37 691.274 211.847 691.574 210.248 691.574C208.624 691.574 207.101 691.274 205.627 690.824Z" fill="#F6AC1B"/>
<path d="M213.523 661.948C215.296 664.92 216.245 670.241 216.245 675.561C216.245 680.906 215.296 686.227 213.498 689.199C219.667 687.725 224.288 682.18 224.288 675.561C224.288 668.992 219.667 663.447 213.523 661.948Z" fill="#F6AC1B"/>
<path d="M117.391 397.103C123.81 403.522 132.703 407.494 142.494 407.494C137.598 407.494 132.703 395.654 142.494 372C132.703 395.679 120.863 400.575 117.391 397.103Z" fill="#C31632"/>
<path d="M107 372C107 381.791 110.972 390.683 117.391 397.103C113.919 393.631 118.815 381.791 142.494 372C118.84 381.816 107 376.895 107 372Z" fill="#C31632"/>
<path d="M142.496 407.494L142.496 372C132.704 395.679 137.6 407.494 142.496 407.494Z" fill="#6BC9C6"/>
<path d="M142.494 372.001L107 372.001C107 376.897 118.84 381.817 142.494 372.001Z" fill="#6BC9C6"/>
<path d="M117.389 397.104C120.861 400.576 132.701 395.68 142.492 372.001C118.838 381.817 113.917 393.632 117.389 397.104Z" fill="#6BC9C6"/>
<path d="M142.494 229.494L142.494 221.401L119.939 221.401C126.084 226.472 133.927 229.494 142.494 229.494Z" fill="white"/>
<path d="M109.075 205.865L142.495 205.865L142.495 197.647L107.176 197.647C107.476 200.519 108.15 203.267 109.075 205.865Z" fill="white"/>
<path d="M116.166 217.756L142.493 217.756L142.493 209.538L110.596 209.538C112.07 212.536 113.943 215.308 116.166 217.756Z" fill="white"/>
<path d="M107 194C107 195.224 107.075 196.448 107.175 197.647L142.494 197.647L142.494 194L107 194Z" fill="#C31632"/>
<path d="M110.623 209.536L142.52 209.536L142.52 205.89L109.099 205.89C109.524 207.138 110.023 208.337 110.623 209.536Z" fill="#C31632"/>
<path d="M119.938 221.4L142.493 221.4L142.493 217.753L116.166 217.753C117.34 219.052 118.589 220.301 119.938 221.4Z" fill="#C31632"/>
<path d="M194.522 710.002L187.629 710.002C187.629 724.714 175.714 736.628 161.002 736.628L161.002 743.522C179.486 743.522 194.522 728.485 194.522 710.002Z" fill="#C31632"/>
<path d="M167.896 710.002L161.002 710.002L161.002 716.896C164.799 716.896 167.896 713.798 167.896 710.002Z" fill="#C31632"/>
<path d="M185.655 710.003L178.761 710.003C178.761 719.794 170.818 727.762 161.002 727.762L161.002 734.656C174.59 734.656 185.655 723.591 185.655 710.003Z" fill="#C31632"/>
<path d="M176.787 710.003L169.893 710.003C169.893 714.899 165.922 718.87 161.026 718.87L161.026 725.764C169.693 725.789 176.787 718.695 176.787 710.003Z" fill="#C31632"/>
<path d="M178.76 710.003L176.787 710.003C176.787 718.696 169.718 725.79 161 725.79L161 727.763C170.792 727.763 178.76 719.795 178.76 710.003Z" fill="black"/>
<path d="M169.867 710L167.894 710C167.894 713.797 164.797 716.894 161 716.894L161 718.868C165.896 718.868 169.867 714.896 169.867 710Z" fill="black"/>
<path d="M187.628 710.003L185.655 710.003C185.655 723.591 174.59 734.656 161.002 734.656L161.002 736.629C175.714 736.629 187.628 724.715 187.628 710.003Z" fill="black"/>
<path d="M164.622 745.321C165.821 745.196 166.995 745.021 168.144 744.771C169.293 744.547 170.442 744.247 171.541 743.897C173.215 743.373 174.814 742.748 176.387 741.999C177.411 741.499 178.435 740.95 179.409 740.35C180.883 739.451 182.257 738.477 183.581 737.378C184.455 736.654 185.304 735.879 186.104 735.08C186.903 734.281 187.677 733.431 188.402 732.557C191.299 729.06 193.522 724.989 194.921 720.543C195.271 719.419 195.57 718.295 195.795 717.146C196.02 715.997 196.22 714.823 196.345 713.624C196.47 712.425 196.52 711.226 196.52 710.002L194.546 710.002C194.546 728.486 179.509 743.523 161.026 743.523L161.026 745.496C162.225 745.496 163.423 745.446 164.622 745.321Z" fill="black"/>
</svg>
