<svg width="161" height="445" viewBox="0 0 161 445" fill="none" xmlns="http://www.w3.org/2000/svg">
<path d="M71.2516 269.874C72.7001 269.874 73.8743 268.7 73.8743 267.252C73.8743 265.803 72.7001 264.629 71.2516 264.629C69.8031 264.629 68.6289 265.803 68.6289 267.252C68.6289 268.7 69.8031 269.874 71.2516 269.874Z" fill="#C31632"/>
<path d="M18 214V320.507H124.507V214H18ZM68.6307 311.964H32.4373V306.094H26.5675V228.437H32.4373V222.567H68.6307V252.791H50.2217V237.679H56.791V246.222H62.0615V229.137H39.0065V235.007H33.1367V299.525H39.0065V305.395H62.0615V288.31H56.791V296.852H50.2217V281.741H68.6307V311.964ZM62.0365 267.253C62.0365 262.183 66.1579 258.036 71.2534 258.036C76.324 258.036 80.4703 262.158 80.4703 267.253C80.4703 272.324 76.3489 276.47 71.2534 276.47C66.1828 276.445 62.0365 272.324 62.0365 267.253ZM115.964 306.069H110.094V311.939H73.9011V281.691H92.3099V296.802H85.7407V288.26H80.4703V305.345H103.525V299.475H109.395V234.957H103.525V229.087H80.4703V246.172H85.7407V237.629H92.3099V252.791H73.9011V222.543H110.094V228.412H115.964V306.069Z" fill="#C31632"/>
<path d="M50.2202 296.826H56.7895V288.283H62.035V305.368H38.9801V299.499H33.1103V234.98H38.9801V229.11H62.035V246.195H56.7895V237.653H50.2202V252.789H68.6293V222.541H32.411V228.411H26.541V306.068H32.411V311.963H68.6293V281.714H50.2202V296.826Z" fill="#6BC9C6"/>
<path d="M110.07 222.541H73.877V252.789H92.2858V237.653H85.7166V246.195H80.4462V229.11H103.501V234.98H109.371V299.499H103.501V305.368H80.4462V288.283H85.7166V296.826H92.2858V281.714H73.877V311.963H110.07V306.068H115.965V228.411H110.07V222.541Z" fill="#6BC9C6"/>
<path d="M80.4456 267.254C80.4456 262.183 76.3242 258.037 71.2287 258.037C66.1581 258.037 62.0117 262.159 62.0117 267.254C62.0117 272.325 66.1331 276.471 71.2287 276.471C76.3242 276.446 80.4456 272.325 80.4456 267.254ZM71.2537 269.877C69.8049 269.877 68.631 268.703 68.631 267.254C68.631 265.805 69.8049 264.631 71.2537 264.631C72.7024 264.631 73.8763 265.805 73.8763 267.254C73.8763 268.703 72.7024 269.877 71.2537 269.877Z" fill="#6BC9C6"/>
<path d="M124 321L17.7214 321C17.7214 330.77 9.79537 338.721 -8.40402e-06 338.721L-1.30496e-05 445C68.4679 444.975 124 389.468 124 321Z" fill="#F6AC1B"/>
<path d="M114.116 0.0129395H99.4537L99.4787 10.3039L89.0628 10.279L78.7968 0.0129395H78.7468L89.0378 10.3039V25.0411L78.6219 35.4569H63.8848L53.4689 25.0411V10.3039L63.7599 0.0129395H63.71L53.444 10.279L43.0281 10.3039L43.0531 0.0129395H28.4408L28.6906 0.262736L28.7156 10.6786L18.2997 10.6536L18 10.3539V25.0411L28.3659 25.0161L28.3409 35.432H43.078L53.4939 45.8478V60.5849L43.078 71.0008H28.3659L28.3909 81.4167L18.025 81.3917V96.2037L28.291 96.1787L28.266 106.495H43.2279L43.2029 106.47L43.178 96.0539L53.4939 96.0789V81.3917L63.9098 70.9758H78.6469L89.0628 81.3917V96.1288L78.6969 106.495H78.7718L89.1877 96.0789L99.6036 96.0539L99.5786 106.47L99.5536 106.495H114.191L114.141 106.445L114.116 96.0289L124.482 96.0539V81.3667L114.141 81.3917L114.166 70.9758H99.4537L99.4787 81.3917L89.0628 81.3667L78.6219 70.9259L78.5969 60.51L89.0128 60.535V45.7979L99.4287 35.382H114.166L124.482 45.698V45.673L114.166 35.357L114.141 24.9411L124.457 24.9661V10.279L114.066 10.3039L114.116 0.0129395ZM63.8848 70.9758L53.444 81.4167L43.0281 81.4417L43.0531 71.0258L53.4939 60.5849L63.9098 60.56L63.8848 70.9758ZM53.4939 45.8728L43.0531 35.432L43.0281 25.0161L53.444 25.0411L63.8848 35.4819L63.9098 45.8978L53.4939 45.8728ZM99.4537 35.432L89.0128 45.8728L78.5969 45.8978L78.6219 35.4819L89.0628 25.0411L99.4787 25.0161L99.4537 35.432Z" fill="black"/>
<path d="M53.4688 25.0161L63.8846 35.432H78.6217L89.0376 25.0161V10.3039L78.7466 0.0129395H63.7597L53.4688 10.3039V25.0161Z" fill="#6BC9C6"/>
<path d="M89.0376 81.4163L78.6217 71.0005H63.8846L53.4688 81.4163V96.1035H53.5686L63.9846 106.519H78.6467L89.0376 96.1535V81.4163Z" fill="#6BC9C6"/>
<path d="M53.4689 60.5825V45.8454L43.0531 35.4296H28.3409L18 45.7705V60.6574L28.3409 70.9984H43.0531L53.4689 60.5825Z" fill="#6BC9C6"/>
<path d="M99.4564 35.4296L89.0405 45.8454V60.5825L99.4564 70.9984H114.169L124.484 60.6824V45.7455L114.169 35.4296H99.4564Z" fill="#6BC9C6"/>
<path d="M89.037 60.5835L78.6211 60.5586L78.6461 70.9744L89.0619 81.4153H99.4778L99.4528 70.9994L89.037 60.5835Z" fill="white"/>
<path d="M63.8335 106.517L63.8835 106.567H78.6206L78.6455 106.517H63.8335Z" fill="white"/>
<path d="M53.4686 25.0398L43.0527 25.0148L43.0777 35.4307L53.4936 45.8715H63.9095L63.8845 35.4556L53.4686 25.0398Z" fill="white"/>
<path d="M28.6906 10.6786V0.262736L28.4408 0.0129395H18V10.3539L18.2997 10.6536L28.6906 10.6786Z" fill="white"/>
<path d="M43.0499 70.9994L43.0249 81.4153H53.4408L63.8816 70.9744V60.5586L53.4657 60.5835L43.0499 70.9994Z" fill="white"/>
<path d="M28.241 96.2258H18V106.517H28.241V96.2258Z" fill="white"/>
<path d="M78.6217 35.4556L78.5967 45.8715H89.0126L99.4534 35.4307V25.0148L89.0625 25.0398L78.6217 35.4556Z" fill="white"/>
<path d="M114.137 5.72205e-05L114.12 10.366L124.511 10.3833L124.528 0.0174317L114.137 5.72205e-05Z" fill="white"/>
<path d="M114.143 106.465L114.193 106.515H124.484V96.0746L114.118 96.0496L114.143 106.465Z" fill="white"/>
<path d="M114.191 35.4307L124.482 45.7466V25.0398L114.167 25.0148L114.191 35.4307Z" fill="white"/>
<path d="M114.14 81.4139H124.481V60.6821L114.165 70.9981L114.14 81.4139Z" fill="white"/>
<path d="M53.4408 10.279L63.7068 0.0129395H43.0499L43.0249 10.3039L53.4408 10.279Z" fill="white"/>
<path d="M99.4773 10.3039L99.4523 0.0129395H78.7954L89.0614 10.279L99.4773 10.3039Z" fill="white"/>
<path d="M28.3409 25.0148L18 25.0398V45.7716L28.3159 35.4307L28.3409 25.0148Z" fill="white"/>
<path d="M28.3409 70.9959L18 60.6549V81.4117H28.3659L28.3409 70.9959Z" fill="white"/>
<path d="M53.4703 96.1035L43.1543 96.0786L43.1793 106.494V106.519H63.8362L53.4703 96.1535V96.1035Z" fill="white"/>
<path d="M99.5553 96.0786L89.1644 96.1035L78.7485 106.519H99.5304L99.5553 106.494V96.0786Z" fill="white"/>
<path d="M160.318 102.974C160.018 99.977 159.319 97.1296 158.32 94.382L135.29 102.974L160.318 102.974Z" fill="black"/>
<path d="M156.921 91.0822C155.623 88.3845 153.999 85.8867 152.101 83.6136L134.541 99.4248L156.921 91.0822Z" fill="black"/>
<path d="M149.529 80.9166C147.281 78.7685 144.758 76.8701 141.985 75.3715L132.294 96.428L149.529 80.9166Z" fill="black"/>
<path d="M138.491 73.6966C135.493 72.4727 132.296 71.6235 128.949 71.2738L128.949 94.4285L138.491 73.6966Z" fill="black"/>
<path d="M160.319 102.972L135.316 102.972L158.346 94.3796C157.921 93.2556 157.472 92.1315 156.947 91.0574L134.542 99.4001L152.101 83.589C151.302 82.6398 150.428 81.7406 149.529 80.8664L132.294 96.3778L141.985 75.3212C140.861 74.6968 139.687 74.1473 138.488 73.6727L128.947 94.3796L128.947 71.2248C127.648 71.0749 126.349 71 125 71L125 106.494L160.494 106.494C160.494 105.345 160.444 104.146 160.319 102.972Z" fill="#F6AC1B"/>
<path d="M124.509 286.997L124.509 293.891C139.221 293.891 151.135 305.806 151.135 320.518L158.029 320.518C158.029 302.034 142.992 286.997 124.509 286.997Z" fill="#C31632"/>
<path d="M124.508 313.624L124.508 320.518L131.402 320.518C131.402 316.721 128.305 313.624 124.508 313.624Z" fill="#C31632"/>
<path d="M124.509 295.864L124.509 302.758C134.3 302.758 142.268 310.701 142.268 320.518L149.162 320.518C149.162 306.93 138.097 295.864 124.509 295.864Z" fill="#C31632"/>
<path d="M124.508 304.732L124.508 311.626C129.404 311.626 133.376 315.598 133.376 320.494L140.269 320.494C140.294 311.826 133.201 304.732 124.508 304.732Z" fill="#C31632"/>
<path d="M124.51 302.76L124.51 304.733C133.202 304.733 140.296 311.802 140.296 320.519L142.27 320.519C142.27 310.728 134.301 302.76 124.51 302.76Z" fill="black"/>
<path d="M124.506 311.652L124.506 313.626C128.302 313.626 131.4 316.723 131.4 320.52L133.373 320.52C133.373 315.624 129.401 311.652 124.506 311.652Z" fill="black"/>
<path d="M124.508 293.892L124.508 295.865C138.096 295.865 149.161 306.93 149.161 320.518L151.135 320.518C151.135 305.806 139.22 293.892 124.508 293.892Z" fill="black"/>
<path d="M159.827 316.897C159.702 315.698 159.527 314.524 159.278 313.375C159.053 312.226 158.753 311.077 158.403 309.978C157.879 308.305 157.254 306.706 156.505 305.132C156.005 304.108 155.456 303.084 154.856 302.11C153.957 300.636 152.983 299.263 151.884 297.939C151.16 297.064 150.385 296.215 149.586 295.416C148.787 294.617 147.937 293.842 147.063 293.118C143.566 290.22 139.495 287.997 135.049 286.599C133.925 286.249 132.801 285.949 131.652 285.724C130.503 285.5 129.329 285.3 128.13 285.175C126.931 285.05 125.732 285 124.508 285L124.508 286.973C142.992 286.973 158.029 302.01 158.029 320.494L160.002 320.494C160.002 319.295 159.952 318.096 159.827 316.897Z" fill="black"/>
<path d="M18 213.506H36.284L18 195.222V213.506Z" fill="#C31632"/>
<path d="M18 107V125.284L36.284 107H18Z" fill="#C31632"/>
<path d="M106.549 107L124.508 124.959V107H106.549Z" fill="#C31632"/>
<path d="M124.508 213.509V195.549L106.549 213.509H124.508Z" fill="#C31632"/>
<path d="M36.284 107L18 125.284V142.494L53.5188 107H36.284Z" fill="#6BC9C6"/>
<path d="M18 195.225L36.284 213.509H53.5188L18 178.015V195.225Z" fill="#6BC9C6"/>
<path d="M89.0142 107L124.508 142.494V124.959L106.549 107H89.0142Z" fill="#6BC9C6"/>
<path d="M106.549 213.509L124.508 195.549V178.015L89.0142 213.509H106.549Z" fill="#6BC9C6"/>
<path d="M53.5188 107L18 142.494V160.253L71.2534 107H53.5188Z" fill="#C31632"/>
<path d="M18 178.014L53.5188 213.508H71.2534L18 160.255V178.014Z" fill="#C31632"/>
<path d="M71.2544 107L124.508 160.253V142.494L89.0138 107H71.2544Z" fill="#C31632"/>
<path d="M89.0138 213.508L124.508 178.014V160.255L71.2544 213.508H89.0138Z" fill="#C31632"/>
<path d="M18 160.253L71.2534 213.507L124.507 160.253L71.2534 107L18 160.253ZM71.2534 195.747L35.7594 160.253L71.2534 124.759L106.747 160.253L71.2534 195.747Z" fill="#6BC9C6"/>
<path d="M71.242 124.763L35.7412 160.264L71.2419 195.764L106.743 160.264L71.242 124.763Z" fill="#F6AC1B"/>
</svg>
