<svg width="568" height="459" viewBox="0 0 568 459" fill="none" xmlns="http://www.w3.org/2000/svg">
<path d="M59.5676 194.686C57.0241 194.686 54.6489 196.115 52.9252 198.701C51.6851 200.571 48.9944 205.973 50.0664 216.63C43.7183 208.853 37.6224 205.742 33.2713 205.742C29.5297 205.742 26.6499 207.991 25.9563 211.48C24.9683 216.441 28.1844 223.188 36.6346 230.019C34.9319 229.851 33.3134 229.746 31.7579 229.746C20.0076 229.746 14.7524 234.644 14.7524 239.499C14.7524 244.355 20.0076 249.231 31.7579 249.231C33.3134 249.231 34.953 249.147 36.6556 248.958C28.2265 255.789 24.9893 262.536 25.9773 267.497C26.671 270.986 29.5507 273.235 33.2923 273.235C37.6645 273.235 43.7603 270.124 50.0874 262.347C49.0154 273.004 51.7061 278.406 52.9463 280.277C54.6699 282.862 57.0242 284.291 59.5886 284.291L14.7735 284.291L14.7735 194.665L59.5676 194.665V194.686Z" fill="white"/>
<path d="M66.21 280.298C67.4502 278.428 70.1408 273.026 69.0687 262.369C75.4168 270.146 81.5127 273.257 85.8639 273.257C89.6055 273.257 92.4852 271.008 93.1789 267.519C94.1668 262.558 90.9508 255.811 82.5007 248.98C84.2033 249.148 85.8218 249.253 87.3983 249.253C95.3019 249.253 101.146 246.983 103.437 243.01C104.719 240.782 104.719 238.239 103.437 236.011C101.146 232.038 95.3019 229.768 87.3983 229.768C85.8428 229.768 84.2033 229.852 82.5007 230.041C90.9298 223.21 94.1668 216.463 93.1789 211.502C92.4852 208.013 89.6265 205.764 85.8639 205.764C81.4917 205.764 75.3958 208.875 69.0687 216.652C70.1408 205.995 67.4502 200.593 66.21 198.723C64.4864 196.137 62.132 194.708 59.5676 194.708L104.383 194.708L104.383 284.334L59.5676 284.334C62.132 284.313 64.4864 282.884 66.21 280.298Z" fill="white"/>
<path d="M61.2061 243.282C62.152 242.861 62.9086 242.126 63.3291 241.18C92.6102 254.527 94.1658 270.187 85.8628 270.187C80.2504 270.166 70.2028 263.04 61.2061 243.282ZM80.5237 266.298C82.1423 267.916 84.7487 267.916 86.3673 266.298C87.9858 264.679 87.9858 262.073 86.3673 260.455C84.7487 258.836 82.1423 258.836 80.5237 260.455C78.9262 262.073 78.9262 264.679 80.5237 266.298Z" fill="#F6AC1B"/>
<path d="M61.2078 235.715C70.2044 215.957 80.252 208.832 85.8644 208.811C94.1885 208.811 92.6119 224.47 63.3307 237.817C62.9103 236.871 62.1537 236.115 61.2078 235.715ZM80.5254 218.521C82.1439 220.14 84.7504 220.14 86.3689 218.521C87.9875 216.903 87.9875 214.297 86.3689 212.678C84.7504 211.06 82.1439 211.06 80.5254 212.678C78.9278 214.297 78.9278 216.924 80.5254 218.521Z" fill="#F6AC1B"/>
<path d="M87.3839 246.142C81.3511 246.142 73.3424 244.713 63.3998 240.992C63.589 240.53 63.6942 240.025 63.6942 239.5C63.6942 238.974 63.568 238.47 63.3998 238.007C73.3424 234.287 81.3511 232.858 87.3839 232.858C105.945 232.837 105.924 246.142 87.3839 246.142ZM93.3537 235.359C91.0625 235.359 89.2127 237.209 89.2127 239.5C89.2127 241.791 91.0625 243.641 93.3537 243.641C95.6449 243.641 97.4946 241.791 97.4946 239.5C97.4946 237.209 95.6449 235.359 93.3537 235.359Z" fill="#F6AC1B"/>
<path d="M58.0744 243.325C58.5369 243.514 59.0414 243.619 59.5669 243.619C60.0924 243.619 60.5969 243.493 61.0594 243.325C70.5185 268.569 65.0532 281.223 59.5669 281.223C54.0806 281.223 48.6363 268.569 58.0744 243.325ZM59.5669 277.397C61.8581 277.397 63.7079 275.548 63.7079 273.256C63.7079 270.965 61.8581 269.116 59.5669 269.116C57.2757 269.116 55.426 270.965 55.426 273.256C55.426 275.548 57.2757 277.397 59.5669 277.397Z" fill="#F6AC1B"/>
<path d="M57.9282 243.282C48.9316 263.04 38.8838 270.187 33.2714 270.187C24.9474 270.187 26.524 254.527 55.8052 241.18C56.2256 242.105 56.9823 242.861 57.9282 243.282ZM38.6106 260.455C36.9921 258.836 34.3855 258.836 32.7669 260.455C31.1484 262.073 31.1484 264.679 32.7669 266.298C34.3855 267.916 36.9921 267.916 38.6106 266.298C40.2082 264.679 40.2082 262.073 38.6106 260.455Z" fill="#F6AC1B"/>
<path d="M31.7582 232.837C37.791 232.837 45.7996 234.266 55.7422 237.986C55.553 238.449 55.4479 238.953 55.4479 239.479C55.4479 240.004 55.574 240.509 55.7422 240.971C45.7996 244.692 37.791 246.121 31.7582 246.121C13.1973 246.142 13.2183 232.837 31.7582 232.837ZM25.7884 243.62C28.0796 243.62 29.9294 241.77 29.9294 239.479C29.9294 237.188 28.0796 235.338 25.7884 235.338C23.4972 235.338 21.6474 237.188 21.6474 239.479C21.6474 241.77 23.4972 243.62 25.7884 243.62Z" fill="#F6AC1B"/>
<path d="M61.0538 235.652C60.5914 235.463 60.0869 235.358 59.5614 235.358C59.0359 235.358 58.5313 235.484 58.0689 235.652C48.6098 210.408 54.0751 197.754 59.5614 197.754C65.0476 197.754 70.4919 210.429 61.0538 235.652ZM59.5614 201.58C57.2702 201.58 55.4204 203.429 55.4204 205.72C55.4204 208.012 57.2702 209.861 59.5614 209.861C61.8526 209.861 63.7024 208.012 63.7024 205.72C63.7024 203.429 61.8526 201.58 59.5614 201.58Z" fill="#F6AC1B"/>
<path d="M57.9282 235.715C56.9823 236.136 56.2256 236.871 55.8052 237.817C26.524 224.47 24.9684 208.811 33.2714 208.811C38.8838 208.811 48.9316 215.957 57.9282 235.715ZM38.6106 212.678C36.9921 211.06 34.3855 211.06 32.7669 212.678C31.1484 214.297 31.1484 216.903 32.7669 218.521C34.3855 220.14 36.9921 220.14 38.6106 218.521C40.2082 216.924 40.2082 214.297 38.6106 212.678Z" fill="#F6AC1B"/>
<path d="M52.9243 280.298C51.6841 278.428 48.9934 273.026 50.0654 262.369C43.7173 270.146 37.6215 273.257 33.2703 273.257C29.5287 273.257 26.649 271.008 25.9553 267.519C24.9673 262.558 28.2045 255.811 36.6336 248.98C34.931 249.148 33.3124 249.253 31.7359 249.253C19.9855 249.253 14.7304 244.355 14.7304 239.521C14.7304 234.666 19.9855 229.768 31.7359 229.768C33.2914 229.768 34.9309 229.852 36.6126 230.041C28.1835 223.21 24.9463 216.463 25.9343 211.502C26.6279 208.013 29.4866 205.764 33.2493 205.764C37.6215 205.764 43.7174 208.875 50.0445 216.652C48.9725 205.995 51.6631 200.593 52.9032 198.723C54.6269 196.137 56.9811 194.708 59.5456 194.708C62.089 194.708 64.4644 196.137 66.188 198.723C67.4282 200.593 70.1188 205.995 69.0468 216.652C75.3949 208.875 81.4907 205.764 85.8419 205.764C89.5835 205.764 92.4632 208.013 93.1569 211.502C94.1449 216.463 90.9078 223.21 82.4787 230.041C84.1814 229.873 85.7998 229.768 87.3763 229.768C95.2799 229.768 101.124 232.038 103.415 236.011C104.697 238.239 104.697 240.782 103.415 243.01C101.124 246.983 95.2799 249.253 87.3763 249.253C85.8208 249.253 84.1814 249.169 82.4787 248.98C90.9078 255.811 94.1449 262.558 93.1569 267.519C92.4632 271.008 89.6045 273.257 85.8419 273.257C81.4697 273.257 75.3739 270.146 69.0468 262.369C70.1188 273.026 67.4282 278.428 66.188 280.298C64.4644 282.884 62.1101 284.313 59.5456 284.313C57.0232 284.313 54.6479 282.884 52.9243 280.298ZM59.5666 281.223C65.0529 281.223 70.4972 268.57 61.0591 243.326C60.5967 243.515 60.0921 243.62 59.5666 243.62C59.0411 243.62 58.5366 243.494 58.0741 243.326C48.6361 268.57 54.0803 281.223 59.5666 281.223ZM63.3292 241.161C62.9088 242.106 62.1522 242.863 61.2063 243.262C70.2029 263.021 80.2505 270.167 85.8629 270.167C94.1659 270.167 92.6104 254.508 63.3292 241.161ZM87.3763 232.837C81.3435 232.837 73.3349 234.266 63.3923 237.987C63.5815 238.449 63.6866 238.954 63.6866 239.479C63.6866 240.005 63.5605 240.509 63.3923 240.971C73.3559 244.692 81.3435 246.121 87.3763 246.121C105.916 246.142 105.937 232.837 87.3763 232.837ZM85.8629 208.812C80.2505 208.812 70.2029 215.958 61.2063 235.717C62.1522 236.137 62.9088 236.873 63.3292 237.818C92.6104 224.471 94.1659 208.812 85.8629 208.812ZM59.5666 197.777C54.0803 197.777 48.6361 210.43 58.0741 235.675C58.5366 235.485 59.0411 235.38 59.5666 235.38C60.0921 235.38 60.5967 235.506 61.0591 235.675C70.4972 210.43 65.0529 197.777 59.5666 197.777ZM55.804 237.818C56.2245 236.873 56.9812 236.116 57.9271 235.717C48.9305 215.958 38.8827 208.812 33.2703 208.812C24.9673 208.812 26.5229 224.471 55.804 237.818ZM31.7569 246.142C37.7897 246.142 45.7984 244.713 55.7409 240.992C55.5517 240.53 55.4466 240.026 55.4466 239.5C55.4466 238.975 55.5728 238.47 55.7409 238.008C45.7773 234.287 37.7897 232.858 31.7569 232.858C13.2171 232.837 13.196 246.142 31.7569 246.142ZM33.2703 270.167C38.8827 270.167 48.9305 263.021 57.9271 243.262C56.9812 242.842 56.2245 242.106 55.804 241.161C26.5229 254.508 24.9673 270.167 33.2703 270.167Z" fill="black"/>
<path d="M59.5677 277.417C57.2807 277.417 55.4268 275.563 55.4268 273.276C55.4268 270.989 57.2807 269.135 59.5677 269.135C61.8547 269.135 63.7087 270.989 63.7087 273.276C63.7087 275.563 61.8547 277.417 59.5677 277.417Z" fill="black"/>
<path d="M59.5677 209.86C57.2807 209.86 55.4268 208.006 55.4268 205.719C55.4268 203.433 57.2807 201.579 59.5677 201.579C61.8547 201.579 63.7087 203.433 63.7087 205.719C63.7087 208.006 61.8547 209.86 59.5677 209.86Z" fill="black"/>
<path d="M25.7896 235.358C28.0808 235.358 29.9307 237.208 29.9307 239.499C29.9307 241.79 28.0808 243.64 25.7896 243.64C23.4984 243.64 21.6487 241.79 21.6487 239.499C21.6487 237.208 23.4984 235.358 25.7896 235.358Z" fill="black"/>
<path d="M93.3493 243.617C91.0581 243.617 89.2084 241.768 89.2084 239.476C89.2084 237.185 91.0581 235.336 93.3493 235.336C95.6405 235.336 97.4902 237.185 97.4902 239.476C97.4902 241.768 95.6405 243.617 93.3493 243.617Z" fill="black"/>
<path d="M35.6831 219.74C33.396 219.74 31.542 217.886 31.542 215.599C31.542 213.312 33.396 211.458 35.6831 211.458C37.9701 211.458 39.824 213.312 39.824 215.599C39.824 217.886 37.9701 219.74 35.6831 219.74Z" fill="black"/>
<path d="M86.3686 260.455C87.9872 262.074 87.9872 264.68 86.3686 266.298C84.75 267.917 82.1436 267.917 80.525 266.298C78.9065 264.68 78.9065 262.074 80.525 260.455C82.1436 258.837 84.7711 258.837 86.3686 260.455Z" fill="black"/>
<path d="M32.7664 266.298C31.1478 264.68 31.1478 262.074 32.7664 260.455C34.3849 258.837 36.9915 258.837 38.6101 260.455C40.2286 262.074 40.2286 264.68 38.6101 266.298C36.9915 267.917 34.3639 267.917 32.7664 266.298Z" fill="black"/>
<path d="M86.3686 212.678C87.9872 214.297 87.9872 216.903 86.3686 218.522C84.75 220.14 82.1436 220.14 80.525 218.522C78.9065 216.903 78.9065 214.297 80.525 212.678C82.1436 211.081 84.7711 211.081 86.3686 212.678Z" fill="black"/>
<path d="M163.451 343.929C188.202 343.929 208.285 323.846 208.285 299.095L208.285 343.929C183.534 343.929 163.451 364.012 163.451 388.763C163.451 364.012 143.368 343.929 118.616 343.929L118.616 299.095C118.616 323.867 138.699 343.929 163.451 343.929Z" fill="#C31632"/>
<path d="M208.285 343.929L208.285 388.763L163.451 388.763C188.223 388.763 208.285 368.702 208.285 343.929Z" fill="#C31632"/>
<path d="M163.45 388.763L118.615 388.763L118.615 343.929C118.615 368.702 138.698 388.763 163.45 388.763Z" fill="#C31632"/>
<path d="M163.451 343.929C163.451 319.178 143.368 299.095 118.616 299.095L208.285 299.095C183.534 299.095 163.451 319.178 163.451 343.929Z" fill="#C31632"/>
<path d="M163.451 343.929C163.451 319.178 183.534 299.095 208.285 299.095C208.285 323.867 188.223 343.929 163.451 343.929Z" fill="#6BC9C6"/>
<path d="M163.45 343.929C138.698 343.929 118.615 323.846 118.615 299.095C143.388 299.095 163.45 319.178 163.45 343.929Z" fill="#6BC9C6"/>
<path d="M208.285 343.929C208.285 368.681 188.202 388.763 163.451 388.763C163.451 364.012 183.534 343.929 208.285 343.929Z" fill="#6BC9C6"/>
<path d="M163.45 388.763C138.698 388.763 118.615 368.681 118.615 343.929C143.388 343.929 163.45 364.012 163.45 388.763Z" fill="#6BC9C6"/>
<path d="M216.664 299.107H229.006L228.985 307.766L237.752 307.745L246.394 299.107H246.436L237.773 307.766L237.773 320.166L246.541 328.93L258.946 328.93L267.714 320.166L267.714 307.766L259.051 299.107H259.093L267.735 307.745L276.503 307.766L276.482 299.107L288.782 299.107L288.571 299.317L288.55 308.081L297.318 308.06L297.57 307.808L297.57 320.166L288.845 320.145L288.866 328.909L276.461 328.909L267.693 337.673L267.693 350.074L276.461 358.838L288.845 358.838L288.824 367.602L297.549 367.581V380.044L288.908 380.023L288.929 388.703L276.334 388.703L276.355 388.682L276.376 379.918L267.693 379.939V367.581L258.925 358.817L246.52 358.817L237.752 367.581L237.752 379.981L246.478 388.703H246.415L237.647 379.939L228.88 379.918L228.901 388.682L228.922 388.703H216.601L216.643 388.661L216.664 379.897L207.938 379.918L207.938 367.56L216.643 367.581L216.622 358.817H229.006L228.985 367.581L237.752 367.56L246.541 358.775L246.562 350.011L237.794 350.032L237.794 337.631L229.027 328.867H216.622L207.938 337.547V337.526L216.622 328.846L216.643 320.082L207.959 320.103L207.959 307.745L216.706 307.766L216.664 299.107ZM258.946 358.817L267.735 367.602L276.503 367.623L276.482 358.859L267.693 350.074L258.925 350.053L258.946 358.817ZM267.693 337.695L276.482 328.909L276.503 320.145L267.735 320.166L258.946 328.951L258.925 337.715L267.693 337.695ZM229.006 328.909L237.794 337.695L246.562 337.715L246.541 328.951L237.752 320.166L228.985 320.145L229.006 328.909Z" fill="black"/>
<path d="M267.712 320.145L258.944 328.909L246.539 328.909L237.771 320.145L237.771 307.766L246.434 299.107L259.049 299.107L267.712 307.766L267.712 320.145Z" fill="#F6AC1B"/>
<path d="M237.771 367.6L246.539 358.836L258.944 358.836L267.712 367.6L267.712 379.958H267.628L258.86 388.722L246.518 388.722L237.771 380L237.771 367.6Z" fill="#F6AC1B"/>
<path d="M267.714 350.07L267.714 337.67L276.482 328.906L288.866 328.906L297.57 337.607L297.57 350.134L288.866 358.835L276.482 358.835L267.714 350.07Z" fill="#F6AC1B"/>
<path d="M229.005 328.906L237.773 337.67V350.07L229.005 358.835L216.621 358.835L207.938 350.155L207.938 337.586L216.621 328.906L229.005 328.906Z" fill="#F6AC1B"/>
<path d="M237.778 350.072L246.546 350.051L246.525 358.815L237.757 367.6H228.989L229.01 358.836L237.778 350.072Z" fill="white"/>
<path d="M258.994 388.722L258.952 388.764H246.546L246.525 388.722H258.994Z" fill="white"/>
<path d="M267.717 320.166L276.485 320.145L276.464 328.909L267.696 337.694H258.928L258.949 328.93L267.717 320.166Z" fill="white"/>
<path d="M288.571 308.081V299.317L288.782 299.107H297.57V307.808L297.318 308.06L288.571 308.081Z" fill="white"/>
<path d="M276.486 358.836L276.507 367.6H267.739L258.95 358.815V350.051L267.718 350.072L276.486 358.836Z" fill="white"/>
<path d="M288.95 380.064H297.57V388.723H288.95V380.064Z" fill="white"/>
<path d="M246.539 328.93L246.56 337.694H237.793L229.004 328.909V320.145L237.751 320.166L246.539 328.93Z" fill="white"/>
<path d="M216.647 299.095L216.662 307.817L207.915 307.832L207.9 299.109L216.647 299.095Z" fill="white"/>
<path d="M216.641 388.677L216.599 388.72H207.936L207.936 379.934L216.662 379.913L216.641 388.677Z" fill="white"/>
<path d="M216.601 328.909L207.938 337.589L207.938 320.166L216.622 320.145L216.601 328.909Z" fill="white"/>
<path d="M216.643 367.599H207.939L207.939 350.154L216.622 358.834L216.643 367.599Z" fill="white"/>
<path d="M267.739 307.745L259.097 299.107L276.486 299.107L276.507 307.766L267.739 307.745Z" fill="white"/>
<path d="M228.987 307.766L229.008 299.107L246.396 299.107L237.755 307.745L228.987 307.766Z" fill="white"/>
<path d="M288.866 320.145L297.57 320.166L297.57 337.61L288.887 328.909L288.866 320.145Z" fill="white"/>
<path d="M288.866 358.832L297.57 350.131L297.57 367.597H288.845L288.866 358.832Z" fill="white"/>
<path d="M267.713 379.96L276.397 379.939L276.376 388.703V388.724L258.988 388.724L267.713 380.002V379.96Z" fill="white"/>
<path d="M228.922 379.939L237.669 379.96L246.436 388.724L228.943 388.724L228.922 388.703V379.939Z" fill="white"/>
<path d="M59.5617 104.665L104.398 104.665L104.398 149.502L59.5617 149.502L59.5617 104.665ZM74.5143 134.549L89.4669 134.549L89.4669 119.597L74.5143 119.597L74.5143 134.549Z" fill="#F6AC1B"/>
<path d="M59.5596 194.337L14.7229 194.337L14.7229 149.5L59.5596 149.5L59.5596 194.337ZM44.6281 164.453L29.6755 164.453L29.6755 179.406L44.6281 179.406L44.6281 164.453Z" fill="#F6AC1B"/>
<path d="M59.5596 104.665L59.5596 149.502L14.7229 149.502L14.7229 104.665L59.5596 104.665ZM29.6755 134.549L44.6281 134.549L44.6281 119.597L29.6755 119.597L29.6755 134.549Z" fill="#C31632"/>
<path d="M74.5167 119.618L89.4692 119.618L89.4692 134.571L74.5167 134.571L74.5167 119.618Z" fill="#C31632"/>
<path d="M29.6812 164.457L44.6338 164.457L44.6338 179.41L29.6812 179.41L29.6812 164.457Z" fill="#C31632"/>
<path d="M104.398 149.5L104.398 194.337L59.5617 194.337L59.5617 149.5L104.398 149.5ZM74.5143 179.385L89.4669 179.385L89.4669 164.432L74.5143 164.432L74.5143 179.385Z" fill="#C31632"/>
<path d="M29.6812 119.618L44.6338 119.618L44.6338 134.571L29.6812 134.571L29.6812 119.618Z" fill="#F6AC1B"/>
<path d="M74.5167 164.457L89.4692 164.457L89.4692 179.41L74.5167 179.41L74.5167 164.457Z" fill="#F6AC1B"/>
<path d="M14.9961 284.665L104.477 284.665C104.477 292.891 111.151 299.586 119.398 299.586L119.398 389.067C61.7513 389.046 14.9961 342.312 14.9961 284.665Z" fill="#F6AC1B"/>
<path d="M53.2221 105.066L46.9572 105.066C46.9572 79.1391 25.9272 58.1091 2.73847e-07 58.1091L0 51.8442C29.3538 51.8442 53.2221 75.7126 53.2221 105.066Z" fill="#6BC9C6"/>
<path d="M24.5007 105.068L18.2358 105.068C18.2358 95.0085 10.0591 86.8318 2.73847e-07 86.8318L0 80.5669C13.5151 80.5816 24.5007 91.5525 24.5007 105.068Z" fill="#6BC9C6"/>
<path d="M34.0745 105.066L27.8096 105.066C27.8096 89.7273 15.3534 77.2563 2.73846e-07 77.2563L0 70.9915C18.7947 71.0062 34.0745 86.2713 34.0745 105.066Z" fill="#6BC9C6"/>
<path d="M43.6483 105.068L37.3834 105.068C37.3834 84.435 20.6329 67.6846 2.73846e-07 67.6846L0 61.4197C24.0742 61.4197 43.6483 80.9937 43.6483 105.068Z" fill="#6BC9C6"/>
<path d="M62.7959 105.064L56.531 105.064C56.531 73.8577 31.2068 48.5334 2.73846e-07 48.5334L0 42.2686C34.6333 42.2686 62.7959 70.4311 62.7959 105.064Z" fill="#6BC9C6"/>
<path d="M91.532 105.063L85.2671 105.063C85.2671 57.9734 47.0895 19.8105 0.0146487 19.8105L0.0146484 13.5457C50.472 13.5457 91.532 54.6056 91.532 105.063Z" fill="#6BC9C6"/>
<path d="M101.106 105.064L94.8409 105.064C94.8409 52.6952 52.3838 10.2234 2.73846e-07 10.2234L0 3.9585C55.7516 3.9732 101.106 49.3274 101.106 105.064Z" fill="#6BC9C6"/>
<path d="M72.3697 105.063L66.1048 105.063C66.1048 68.5615 36.501 38.9577 2.73846e-07 38.9577L0 32.6929C39.9129 32.6929 72.3697 65.1497 72.3697 105.063Z" fill="#6BC9C6"/>
<path d="M81.9435 105.065L75.6786 105.065C75.6786 63.2695 41.7953 29.3862 2.73847e-07 29.3862L0 23.1213C45.1925 23.1213 81.9435 59.8724 81.9435 105.065Z" fill="#6BC9C6"/>
<path d="M1.44637e-07 3.97396L0 0.665039C3.60304 0.665039 7.16194 0.84153 10.6767 1.20919C15.9416 1.73861 21.0888 2.6651 26.089 3.95926C31.0891 5.25341 35.9569 6.90051 40.6335 8.87115C45.3248 10.8565 49.8249 13.1654 54.1339 15.7831C57.0016 17.5332 59.7811 19.4009 62.4576 21.4156C87.9142 40.4603 104.4 70.8435 104.4 105.08L101.091 105.08C101.106 49.3282 55.7516 3.97395 1.44637e-07 3.97396Z" fill="#C31632"/>
<path d="M1.44637e-07 13.5496L0 10.2407C52.3691 10.2407 94.8409 52.6978 94.8409 105.082L91.532 105.082C91.532 54.6096 50.472 13.5496 1.44637e-07 13.5496Z" fill="#C31632"/>
<path d="M1.44637e-07 23.1212L0 19.8123C47.0896 19.8123 85.2524 57.9898 85.2524 105.065L81.9434 105.065C81.9434 59.8722 45.1925 23.1212 1.44637e-07 23.1212Z" fill="#C31632"/>
<path d="M1.44637e-07 32.6969L0 29.3879C41.7953 29.3879 75.6786 63.2712 75.6786 105.067L72.3697 105.067C72.3697 65.1536 39.9129 32.6969 1.44637e-07 32.6969Z" fill="#C31632"/>
<path d="M1.44637e-07 42.2723L0 38.9634C36.501 38.9634 66.1048 68.5671 66.1048 105.068L62.7959 105.068C62.7959 70.4348 34.6333 42.2723 1.44637e-07 42.2723Z" fill="#C31632"/>
<path d="M1.44637e-07 51.8402L0 48.5312C31.2068 48.5312 56.531 73.8555 56.531 105.062L53.2221 105.062C53.2221 75.7085 29.3538 51.8402 1.44637e-07 51.8402Z" fill="#C31632"/>
<path d="M1.44637e-07 61.4156L0 58.1067C25.9272 58.1067 46.9572 79.1367 46.9572 105.064L43.6483 105.064C43.6483 80.9897 24.0742 61.4156 1.44637e-07 61.4156Z" fill="#C31632"/>
<path d="M1.44637e-07 71.0069L0 67.698C20.6329 67.698 37.3834 84.4485 37.3834 105.081L34.0745 105.081C34.0745 86.272 18.7946 71.0069 1.44637e-07 71.0069Z" fill="#C31632"/>
<path d="M1.44637e-07 80.5824L0 77.2734C15.3387 77.2734 27.8096 89.7297 27.8096 105.083L24.5007 105.083C24.5007 91.5532 13.5151 80.5824 1.44637e-07 80.5824Z" fill="#C31632"/>
<path d="M1.44637e-07 90.1502L0 86.8413C10.0591 86.8413 18.2358 95.018 18.2358 105.077L14.9269 105.077C14.9269 96.8269 8.25023 90.1502 1.44637e-07 90.1502Z" fill="#C31632"/>
<path d="M181.471 268.813C183.995 269.065 186.393 269.654 188.707 270.496L181.471 289.889V268.813Z" fill="black"/>
<path d="M191.488 271.673C193.76 272.767 195.863 274.134 197.777 275.733L184.462 290.52L191.488 271.673Z" fill="black"/>
<path d="M200.049 277.898C201.858 279.792 203.457 281.916 204.719 284.251L186.987 292.412L200.049 277.898Z" fill="black"/>
<path d="M206.128 287.195C207.158 289.719 207.873 292.412 208.168 295.23H188.669L206.128 287.195Z" fill="black"/>
<path d="M181.474 268.812V289.868L188.71 270.474C189.657 270.832 190.603 271.21 191.508 271.652L184.482 290.52L197.797 275.733C198.596 276.406 199.354 277.142 200.09 277.899L187.027 292.413L204.759 284.252C205.285 285.198 205.748 286.187 206.148 287.196L188.71 295.232H208.209C208.335 296.325 208.398 297.419 208.398 298.555H178.508V268.665C179.476 268.665 180.486 268.707 181.474 268.812Z" fill="white"/>
</svg>
