<svg width="311" height="299" viewBox="0 0 311 299" fill="none" xmlns="http://www.w3.org/2000/svg">
<path d="M92.0139 198.999C92.0349 198.999 92.0349 198.999 92.0559 198.999L95.0422 212.648C94.9581 212.438 94.874 212.227 94.7899 212.017L92.0139 198.999Z" fill="black"/>
<path d="M90.3545 193.973C90.3755 194.183 90.3755 194.393 90.3965 194.603C90.3755 194.372 90.3755 194.141 90.3545 193.889C90.3545 193.931 90.3545 193.952 90.3545 193.973Z" fill="black"/>
<path d="M95.4216 164.953C95.4015 164.993 95.3813 165.034 95.3612 165.074C95.3612 165.074 95.3612 165.074 95.341 165.054H95.3612C95.3813 165.034 95.4015 164.993 95.4216 164.953Z" fill="black"/>
<path d="M98.3301 159.507C98.309 159.507 98.309 159.507 98.3301 159.507C98.0146 160.054 97.7412 160.601 97.4258 161.148C97.4047 161.169 97.4047 161.211 97.3837 161.232C97.6992 160.643 97.9936 160.054 98.3301 159.507Z" fill="black"/>
<path d="M37.4241 210.654C36.5409 210.612 35.6366 210.591 34.7533 210.591C32.461 210.591 30.2318 210.717 28.0236 210.969C17.9711 212.105 8.65462 215.722 0.768234 221.232C1.90387 208.299 7.18251 196.543 15.2792 187.31C21.6934 179.971 29.8953 174.208 39.2117 170.738H39.2327C45.7311 168.299 51.7879 166.301 55.3841 165.817C56.1832 165.712 57.3609 165.544 58.1601 165.586C49.811 157.868 46.8668 150.528 40.6838 140.938C34.6692 131.538 29.7691 121.317 26.236 110.465C44.7216 118.499 65.1211 122.957 86.572 122.957C90.3996 122.957 94.185 122.81 97.9284 122.537C98.0756 122.642 98.2229 122.726 98.349 122.831C101.041 124.829 103.796 126.764 106.635 128.593C111.956 132 117.529 135.071 123.312 137.742C120.031 138.625 116.603 139.193 113.112 139.445C111.682 139.571 110.252 139.613 108.78 139.613C104.616 139.613 100.599 139.172 96.6877 138.331C95.4889 138.078 94.2902 137.784 93.1335 137.447C85.6047 135.302 78.7067 131.664 72.7972 126.848C72.1242 126.301 71.4512 125.712 70.7993 125.145C70.8834 125.923 70.9886 126.68 71.1358 127.458C72.1663 133.515 74.1431 139.235 76.9191 144.492C79.2745 148.972 82.2188 153.073 85.6677 156.732C85.7939 156.9 85.9411 157.048 86.0884 157.195C88.8854 160.139 91.9979 162.789 95.3838 165.06C94.6056 165.249 93.8486 165.439 93.0704 165.586C89.5373 166.322 86.0042 166.679 82.4711 166.721C77.9496 166.806 73.4912 166.301 69.18 165.334C65.9413 164.597 62.7867 163.609 59.7584 162.326C60.9991 164.829 62.4082 167.226 63.9855 169.476C66.5512 173.178 69.5375 176.522 72.8392 179.466C73.5963 180.139 74.3534 180.77 75.1315 181.401C76.6878 182.684 78.3071 183.819 79.9896 184.913C80.2209 185.06 80.4522 185.228 80.6836 185.354C83.6909 187.247 86.8875 188.824 90.1682 190.086C90.1472 190.086 90.1262 190.065 90.1262 190.065L90.1472 190.128C87.4764 192.084 84.6793 193.809 81.7771 195.26C77.3608 197.468 72.7341 199.066 67.9812 200.055C65.1211 200.643 62.2189 201.043 59.2957 201.19C60.7257 202.305 62.1768 203.335 63.67 204.261C64.2589 204.639 64.8477 204.997 65.4576 205.354C70.7362 208.467 76.4144 210.633 82.2398 211.874C82.2398 211.874 82.2398 211.874 82.2608 211.874C83.9853 212.252 85.7098 212.547 87.4553 212.736C89.979 213.051 92.5236 213.178 95.0893 213.135C95.1314 213.135 95.1735 213.135 95.2155 213.135L95.2366 213.262C93.7224 215.049 92.1451 216.753 90.4627 218.309C83.2913 224.997 74.6689 229.581 65.4996 231.895C78.244 238.351 92.5657 239.571 105.731 236.101C107.665 235.596 109.579 234.986 111.472 234.271C110.799 235.827 110.042 237.341 109.243 238.835C105.815 245.102 101.272 250.612 95.8885 255.154C105.478 255.301 114.648 253.009 122.765 248.824C123.817 251.39 125.079 253.85 126.446 256.206C125.415 259.339 124.132 262.389 122.597 265.312C125.226 264.302 127.686 263.062 130.084 261.716C132.229 264.576 134.605 267.226 137.213 269.623C138.181 270.548 139.19 271.411 140.22 272.231C138.832 272.504 137.465 272.735 136.099 272.904H136.077C132.145 273.387 128.212 273.493 124.385 273.177H124.364C117.907 272.693 111.64 271.158 105.815 268.698C105.478 278.351 107.518 287.688 111.451 296.058C104.28 294.186 97.7392 291.053 91.9979 286.952C89.4322 285.101 87.0137 283.082 84.7845 280.874C80.7677 276.942 77.3608 272.441 74.5848 267.541C70.0001 273.198 66.6353 279.465 64.4481 286.027C63.0601 290.233 62.1348 294.565 61.6932 298.918C57.7605 294.88 54.4797 290.401 51.893 285.627C45.7942 274.334 43.565 261.4 45.3315 248.866C36.0151 253.535 28.4021 260.433 22.8711 268.635C21.378 263.482 20.6209 258.267 20.5578 253.093C20.3475 239.297 24.9742 225.922 33.3863 215.26C34.6481 213.661 35.973 212.126 37.4241 210.654Z" fill="black"/>
<path d="M123.312 137.762C119.8 139.066 116.435 140.853 113.281 143.04C113.155 143.124 113.007 143.23 112.881 143.335C110.273 145.185 107.834 147.352 105.563 149.791C104.763 150.674 104.006 151.558 103.249 152.462C102.576 153.261 101.966 154.081 101.356 154.922C100.263 156.416 99.2745 157.972 98.3281 159.528C97.9916 160.096 97.6972 160.664 97.3817 161.232C96.7088 162.472 96.0148 163.713 95.4259 164.975C95.4049 165.017 95.3839 165.059 95.3628 165.101H95.3418C91.9769 162.809 88.8434 160.18 86.0464 157.236C85.8992 157.068 85.752 156.92 85.6258 156.773C82.1978 153.114 79.2325 148.992 76.8771 144.533C74.1011 139.297 72.1243 133.556 71.0938 127.499C70.9676 126.721 70.8625 125.964 70.7573 125.186C71.4093 125.774 72.0822 126.342 72.7552 126.889C78.6647 131.684 85.5627 135.343 93.0916 137.488C94.2693 137.825 95.4469 138.119 96.6457 138.372C100.557 139.213 104.574 139.654 108.738 139.654C110.189 139.654 111.64 139.591 113.07 139.486C116.582 139.192 119.989 138.624 123.312 137.762C123.333 137.741 123.333 137.741 123.375 137.741C123.333 137.741 123.312 137.741 123.312 137.762Z" fill="#6BC9C6"/>
<path d="M94.6252 166.804C94.4569 167.183 94.3097 167.561 94.1625 167.94C93.0269 170.863 92.1226 173.849 91.4706 176.878C90.9239 179.338 90.5453 181.82 90.356 184.301C90.1878 186.236 90.1247 188.15 90.1668 190.064C86.886 188.781 83.6894 187.204 80.6821 185.332C80.4507 185.206 80.2194 185.038 79.9881 184.89C78.3056 183.818 76.7073 182.661 75.1301 181.378C74.3519 180.768 73.5948 180.137 72.8378 179.443C69.557 176.52 66.5707 173.176 63.984 169.454C62.4277 167.204 61.0187 164.806 59.7569 162.304C62.8063 163.587 65.9398 164.575 69.1785 165.311C73.5107 166.299 77.9692 166.783 82.4697 166.699C85.9817 166.657 89.5359 166.278 93.069 165.563C93.8471 165.416 94.6042 165.248 95.3823 165.038C95.4033 165.059 95.4033 165.059 95.4033 165.059C95.1089 165.648 94.8565 166.215 94.6252 166.804Z" fill="#6BC9C6"/>
<path d="M90.2473 192.06C90.2684 192.67 90.2894 193.301 90.3525 193.91C90.3735 194.142 90.3735 194.373 90.3945 194.625C90.5207 196.077 90.71 197.528 90.9413 198.958C91.4881 202.217 92.3293 205.435 93.4229 208.569C93.8435 209.788 94.3272 210.966 94.8319 212.144L95.0422 213.153C92.4765 213.195 89.9319 213.048 87.4082 212.754C85.6627 212.564 83.9382 212.27 82.2137 211.891C82.1927 211.891 82.1927 211.891 82.1927 211.891C76.3673 210.651 70.6891 208.463 65.4105 205.372C64.8216 205.035 64.2118 204.678 63.6229 204.278C62.1298 203.332 60.6787 202.323 59.2486 201.208C62.1508 201.061 65.053 200.682 67.9341 200.072C72.6659 199.084 77.3137 197.465 81.73 195.277C84.6322 193.826 87.4293 192.102 90.1001 190.146L90.1422 190.356C90.1632 190.903 90.2263 191.471 90.2473 192.06Z" fill="#6BC9C6"/>
<path d="M95.0466 212.628L95.0676 212.691C94.9837 212.502 94.9208 212.314 94.8368 212.146L94.8159 212.02C94.8998 212.209 94.9627 212.418 95.0466 212.628Z" fill="#6BC9C6"/>
<path d="M95.2798 213.194C98.4134 220.155 102.956 226.59 108.929 232.079C109.749 232.836 110.59 233.572 111.431 234.288C109.538 235.003 107.646 235.612 105.69 236.117C92.5459 239.587 78.2032 238.367 65.4588 231.911C74.628 229.598 83.2505 225.013 90.4218 218.325C92.0832 216.769 93.6816 215.066 95.1957 213.278L95.2798 213.194Z" fill="#6BC9C6"/>
<path d="M171.031 248.825C168.676 254.629 165.374 260.139 161.042 265.018C161.084 260.476 160.558 255.891 159.486 251.433C159.465 251.391 159.465 251.37 159.465 251.328C159.465 251.328 159.486 251.328 159.486 251.307C163.376 250.718 167.246 249.876 171.031 248.825Z" fill="#6BC9C6"/>
<path d="M144.658 250.065C149.495 250.99 154.395 251.39 159.274 251.327C159.337 251.305 159.379 251.305 159.463 251.305V251.327C159.442 251.369 159.421 251.411 159.4 251.453C155.468 258.245 150.084 264.302 143.417 269.097C144.721 263.503 145.226 257.72 144.805 251.915C144.763 251.369 144.721 250.843 144.658 250.296V250.317C144.679 250.233 144.658 250.149 144.658 250.065Z" fill="#6BC9C6"/>
<path d="M126.402 256.204C127.201 253.744 127.874 251.22 128.358 248.655C128.568 247.519 128.736 246.362 128.884 245.185C127.685 246.005 126.444 246.783 125.182 247.498C124.383 247.961 123.563 248.381 122.743 248.802C114.625 252.987 105.435 255.279 95.8659 255.132C101.25 250.61 105.792 245.1 109.22 238.812C110.019 237.319 110.776 235.805 111.449 234.249C116.854 238.791 122.743 242.43 128.905 245.164C133.994 247.393 139.273 249.033 144.614 250.064C144.11 250.631 143.605 251.178 143.079 251.704C139.315 255.616 134.919 258.938 130.082 261.651C127.685 262.997 125.224 264.238 122.595 265.248C124.11 262.387 125.371 259.338 126.402 256.204Z" fill="#6BC9C6"/>
<path d="M254.772 234.568C251.113 233.579 247.285 232.191 243.437 230.383C236.034 226.913 229.809 222.517 225.456 218.038C225.813 215.409 225.939 212.759 225.897 210.109L231.87 210.383L231.891 210.404C240.114 219.279 251.092 225.546 263.458 227.943C260.85 230.425 257.927 232.612 254.772 234.568Z" fill="#F6AC1B"/>
<path d="M270.273 236.27C269.116 236.396 267.854 236.396 266.55 236.375C267.602 233.894 268.485 231.37 269.158 228.762C270.946 228.931 272.733 229.057 274.563 229.057C288.085 229.057 300.535 224.43 310.398 216.712C301.061 227.669 287.728 235.113 272.67 236.796C272.144 236.459 271.555 236.228 270.903 236.228C270.693 236.207 270.483 236.228 270.273 236.27Z" fill="#F6AC1B"/>
<path d="M210.064 217.339L194.544 216.645L172.294 215.657C175.743 213.533 178.75 210.967 181.358 208.128L201.127 209.011L216.647 209.705H216.731L221.589 209.937C220.033 212.628 218.245 215.215 216.184 217.634L210.064 217.339Z" fill="#F6AC1B"/>
<path d="M168.3 203.438C168.363 203.543 168.447 203.627 168.51 203.711C166.596 206.403 164.367 208.905 161.717 211.072C160.939 209.726 160.497 208.169 160.497 206.508C160.497 202.323 163.337 198.811 167.185 197.738C167.143 198.117 167.08 198.474 167.08 198.874C167.08 200.535 167.522 202.113 168.3 203.438Z" fill="#6BC9C6"/>
<path d="M254.777 234.562C257.931 232.627 260.855 230.419 263.441 227.937C266.175 225.329 268.615 222.49 270.676 219.42C270.444 222.574 269.94 225.708 269.162 228.757C268.489 231.365 267.605 233.91 266.554 236.37C263 236.307 259.004 235.697 254.777 234.562Z" fill="white"/>
<path d="M225.457 218.035L216.203 217.593C218.264 215.174 220.052 212.588 221.608 209.896C223.038 207.414 224.279 204.828 225.268 202.178C225.709 204.807 225.877 207.456 225.898 210.085C225.941 212.756 225.814 215.406 225.457 218.035Z" fill="white"/>
<path d="M251.031 186.318C251.073 186.297 251.115 186.255 251.157 186.234C251.178 186.297 251.22 186.36 251.263 186.423C256.899 189.073 263.208 190.545 269.853 190.545C273.029 190.545 276.12 190.209 279.086 189.557C285.248 188.253 290.905 185.645 295.805 182.028C295.847 182.596 295.889 183.143 295.889 183.71C295.889 184.468 295.868 185.204 295.784 185.94C295.258 192.817 292.23 198.979 287.603 203.542C287.708 202.554 287.771 201.565 287.771 200.556C287.771 197.464 287.266 194.499 286.341 191.723C280.474 194.394 273.933 195.908 267.056 195.908C263.124 195.908 259.296 195.424 255.679 194.499C255.7 194.436 255.742 194.394 255.763 194.331C255.679 194.373 255.574 194.415 255.49 194.457C255.553 194.478 255.616 194.499 255.679 194.52C253.954 198.095 251.536 201.208 248.655 203.71C247.035 205.119 245.269 206.318 243.397 207.328C243.797 206.402 244.133 205.435 244.428 204.467C244.869 202.932 245.185 201.418 245.374 199.904C245.479 199.105 245.542 198.327 245.563 197.527C245.038 197.633 244.533 197.717 244.007 197.801C241.694 198.137 239.338 198.327 236.941 198.327C235.343 198.327 233.765 198.242 232.209 198.095C230.884 197.969 229.58 197.759 228.276 197.506C229.475 197.128 230.695 196.749 231.873 196.329C238.981 193.763 245.479 190.356 251.031 186.318Z" fill="white"/>
<path d="M150.733 149.518C150.775 149.476 150.796 149.413 150.838 149.371C150.922 149.245 151.048 149.141 151.132 149.015C151.006 149.183 150.859 149.35 150.733 149.518Z" fill="#C31632"/>
<path d="M146.592 157.613C146.403 158.181 146.256 158.791 146.109 159.38C146.256 158.791 146.403 158.202 146.592 157.613Z" fill="#C31632"/>
<path d="M158.877 142.051C159.067 141.945 159.256 141.84 159.445 141.735C158.457 142.303 157.51 142.913 156.606 143.586C157.363 143.039 158.12 142.534 158.877 142.051Z" fill="#C31632"/>
<path d="M147.585 155.052C147.374 155.535 147.185 156.04 147.017 156.524C147.185 156.019 147.374 155.535 147.585 155.052Z" fill="#C31632"/>
<path d="M149.816 150.862C149.984 150.589 150.195 150.315 150.384 150.042C150.068 150.505 149.774 150.967 149.479 151.451C149.585 151.262 149.69 151.051 149.816 150.862Z" fill="#C31632"/>
<path d="M148.507 153.053C148.592 152.906 148.676 152.758 148.76 152.611C148.549 153.011 148.339 153.41 148.129 153.831C148.276 153.578 148.381 153.305 148.507 153.053Z" fill="#C31632"/>
<path d="M145.414 163.145C145.519 162.199 145.688 161.253 145.877 160.327C145.667 161.253 145.519 162.199 145.414 163.145Z" fill="#C31632"/>
<path d="M155.947 144.114C156.179 143.925 156.389 143.756 156.62 143.588C156.263 143.862 155.926 144.177 155.569 144.471C155.695 144.345 155.8 144.219 155.947 144.114Z" fill="#C31632"/>
<path d="M153.657 146.198C153.405 146.429 153.174 146.681 152.942 146.934C153.153 146.681 153.405 146.429 153.657 146.198Z" fill="#C31632"/>
<path d="M111.433 234.27C110.592 233.555 109.751 232.819 108.931 232.062C102.979 226.573 98.4156 220.138 95.2821 213.177L95.198 213.261L95.1769 213.135C95.1349 213.135 95.0928 213.135 95.0507 213.135L94.8404 212.125C94.9245 212.314 94.9876 212.504 95.0718 212.672L95.0507 212.609L92.0644 198.96L90.3399 191.074L92.0224 198.96L94.7984 211.978L94.8194 212.104C94.3147 210.926 93.831 209.728 93.4104 208.529C92.3168 205.395 91.4756 202.178 90.9288 198.918C90.6974 197.488 90.5082 196.037 90.382 194.586C90.361 194.376 90.361 194.165 90.3399 193.955C90.2979 193.303 90.2558 192.672 90.2348 192.02C90.2138 191.452 90.1507 190.863 90.1507 190.296L90.1086 190.085L90.0876 190.022C90.1086 190.022 90.1296 190.043 90.1296 190.043C90.0876 188.108 90.1507 186.195 90.3189 184.281C90.5082 181.778 90.8867 179.297 91.4335 176.857C92.0855 173.829 92.9898 170.843 94.1254 167.919C94.2726 167.541 94.4409 167.162 94.5881 166.784C94.8194 166.216 95.0718 165.648 95.3241 165.08C95.934 163.734 96.649 162.43 97.3851 161.127C97.6795 160.58 97.9529 160.033 98.2684 159.507C99.1937 157.93 100.203 156.395 101.297 154.881C101.907 154.039 102.538 153.24 103.189 152.42C103.926 151.516 104.704 150.632 105.503 149.749C107.774 147.31 110.214 145.143 112.821 143.293C112.948 143.188 113.095 143.104 113.221 142.998C116.376 140.832 119.74 139.045 123.252 137.72C123.273 137.699 123.294 137.699 123.316 137.699C123.294 137.699 123.273 137.72 123.252 137.72C117.49 135.049 111.896 131.979 106.575 128.572C103.736 126.763 100.981 124.828 98.2894 122.809C63.0005 96.5844 40.1195 54.6079 40.1195 7.26857C40.1195 5.06038 40.1826 2.85219 40.2877 0.665039C45.4402 53.1568 78.7943 97.3836 125.019 117.951C132.169 115.196 139.908 113.577 147.984 113.367C148.615 113.346 149.267 113.346 149.898 113.346C155.807 113.346 161.528 114.103 167.017 115.491C164.135 115.995 161.38 116.879 158.836 118.098C155.786 119.571 153.031 121.484 150.634 123.798L150.613 123.819H150.592C150.571 123.819 150.571 123.84 150.571 123.84C148.72 125.606 147.059 127.604 145.692 129.791C145.692 129.791 145.671 129.791 145.671 129.812C144.619 131.453 143.736 133.177 143 135.007C142.979 135.028 142.979 135.028 142.979 135.028C141.591 138.456 140.813 142.199 140.708 146.09H140.729C140.708 146.09 140.708 146.09 140.708 146.111C140.687 146.363 140.687 146.637 140.687 146.889C140.687 147.415 140.708 147.92 140.729 148.445C140.981 153.85 142.6 158.939 145.229 163.314C145.25 163.251 145.271 163.209 145.292 163.145C145.292 163.124 145.313 163.124 145.313 163.124C147.29 157.699 152.485 153.829 158.604 153.829C159.34 153.829 160.035 153.892 160.75 153.997C163.715 154.439 166.407 155.827 168.468 157.825L168.636 157.993C168.804 158.161 168.951 158.308 169.099 158.477C169.12 158.498 169.141 158.519 169.162 158.54C170.087 159.549 170.844 160.685 171.433 161.947C173.851 162.83 176.459 163.293 179.172 163.293C182.726 163.293 186.091 162.473 189.077 161.042C190.339 160.601 191.496 159.907 192.463 158.981C194.798 157.299 196.838 155.238 198.394 152.82C199.172 151.621 199.845 150.359 200.392 149.034C201.464 146.384 202.074 143.482 202.074 140.433C202.074 139.15 201.948 137.888 201.738 136.647C205.039 140.349 207.963 144.386 210.402 148.761C211.033 149.875 211.622 151.011 212.19 152.168C212.779 152.525 213.388 152.862 214.019 153.198C218.099 155.385 222.6 156.92 227.332 157.72C229.687 158.119 232.105 158.308 234.587 158.308C243.125 158.308 251.075 155.89 257.805 151.663C257.826 151.642 257.847 151.642 257.868 151.642C257.889 151.621 257.91 151.621 257.931 151.6C258.814 151.032 259.676 150.464 260.496 149.854C262.578 148.592 264.85 147.667 267.226 147.036C267.773 146.889 268.32 146.721 268.867 146.616C269.813 146.426 270.759 146.279 271.727 146.195C272.526 146.111 273.367 146.069 274.187 146.069C274.944 146.069 275.701 146.111 276.437 146.174C277.3 146.237 278.141 146.363 278.982 146.51C279.277 146.574 279.571 146.616 279.865 146.679C280.749 146.868 281.611 147.099 282.452 147.373C282.831 147.499 283.188 147.646 283.567 147.772C284.177 148.004 284.765 148.256 285.354 148.508C285.691 148.656 286.027 148.824 286.364 148.992C287.121 149.392 287.857 149.812 288.572 150.254C289.476 150.822 290.339 151.432 291.159 152.126C291.222 152.168 291.285 152.231 291.348 152.294C291.916 152.777 292.484 153.282 293.009 153.808C293.199 154.018 293.346 154.208 293.514 154.376C293.935 154.796 294.334 155.238 294.713 155.701C294.902 155.932 295.091 156.184 295.281 156.437C295.596 156.857 295.933 157.257 296.227 157.699C296.437 157.993 296.606 158.287 296.795 158.603C297.047 159.002 297.3 159.402 297.531 159.823C297.72 160.18 297.909 160.538 298.078 160.895C298.267 161.274 298.456 161.673 298.646 162.052C298.835 162.473 298.982 162.893 299.15 163.335C299.276 163.671 299.424 164.029 299.529 164.386C299.697 164.891 299.844 165.417 299.97 165.943C300.559 168.13 300.896 170.422 300.896 172.798C300.896 174.649 300.706 176.458 300.328 178.203C298.898 179.591 297.384 180.853 295.785 182.031C290.885 185.627 285.228 188.256 279.066 189.56C276.101 190.212 273.01 190.548 269.834 190.548C263.188 190.548 256.879 189.076 251.243 186.426C251.201 186.363 251.159 186.3 251.138 186.237C251.096 186.258 251.054 186.3 251.012 186.321C245.46 190.359 238.961 193.766 231.811 196.31C230.633 196.731 229.435 197.109 228.215 197.488C226.028 198.182 223.799 198.813 221.485 199.339C220.034 199.675 218.562 199.97 217.048 200.243C211.475 201.231 205.67 201.757 199.677 201.757C198.226 201.757 196.753 201.736 195.323 201.673C192.4 201.547 189.519 201.295 186.701 200.937C186.575 200.916 186.47 200.895 186.343 200.874C181.801 200.264 177.406 199.36 173.178 198.161C172.8 197.993 172.4 197.867 171.98 197.74C171.706 197.677 171.454 197.614 171.181 197.572C170.655 197.467 170.129 197.404 169.561 197.404C168.72 197.404 167.9 197.551 167.122 197.782C163.273 198.855 160.434 202.367 160.434 206.552C160.434 208.213 160.876 209.77 161.654 211.116C160.035 212.441 158.289 213.639 156.417 214.712C150.024 218.35 143 219.927 136.123 219.612C147.332 223.482 160.035 222.703 171.075 216.415C171.475 216.184 171.854 215.932 172.232 215.679L194.482 216.668L210.003 217.362L216.143 217.635L225.376 218.056L225.397 218.077C229.75 222.556 235.975 226.952 243.378 230.422C247.226 232.23 251.054 233.618 254.713 234.607C258.94 235.763 262.936 236.352 266.49 236.415C267.794 236.436 269.035 236.415 270.212 236.31C270.423 236.268 270.633 236.247 270.843 236.247C271.516 236.247 272.105 236.499 272.61 236.815C273.535 237.404 274.166 238.371 274.166 239.549C274.166 240.327 273.893 241.021 273.472 241.589C273.388 241.715 273.304 241.82 273.199 241.904C264.913 251.157 252.862 256.962 239.487 256.962C229.329 256.962 219.95 253.618 212.379 247.961C212.316 247.898 212.253 247.856 212.19 247.835C211.916 247.603 211.622 247.372 211.349 247.162C206.554 243.629 200.644 241.526 194.251 241.526C189.877 241.526 185.713 242.493 182.011 244.26C181.443 244.512 180.897 244.785 180.35 245.101C177.342 246.573 174.209 247.835 170.97 248.865C167.185 249.917 163.336 250.758 159.425 251.347C159.425 251.347 159.425 251.347 159.404 251.347C159.34 251.368 159.277 251.368 159.214 251.368C154.314 251.431 149.414 251.031 144.598 250.106C144.598 250.19 144.619 250.253 144.619 250.337V250.316L144.535 250.127C139.193 249.075 133.915 247.456 128.825 245.227C122.727 242.451 116.838 238.834 111.433 234.27ZM267.563 154.796C260.097 153.682 253.346 157.446 252.484 163.188C252.274 164.576 252.442 165.964 252.905 167.267C255.533 163.924 259.697 161.274 264.703 160.117C269.624 158.981 274.44 159.507 278.225 161.274C276.248 158.035 272.337 155.511 267.563 154.796Z" fill="#C31632"/>
<path d="M172.287 215.639C171.888 215.891 171.53 216.144 171.131 216.375C160.09 222.663 147.388 223.462 136.178 219.571C143.055 219.887 150.079 218.331 156.473 214.671C158.344 213.599 160.09 212.4 161.709 211.075C164.338 208.909 166.588 206.406 168.502 203.715C169.848 201.801 171.068 199.824 172.035 197.721C172.435 197.826 172.834 197.952 173.234 198.121C177.44 199.319 181.835 200.224 186.399 200.833C186.525 200.854 186.63 200.875 186.756 200.897C185.263 203.483 183.434 205.881 181.373 208.11C178.744 210.97 175.736 213.536 172.287 215.639Z" fill="white"/>
<path d="M189.096 161.083C188.507 161.23 187.897 161.335 187.287 161.441C186.699 161.525 186.131 161.546 185.542 161.609C180.495 161.377 176.478 157.234 176.478 152.145C176.478 146.888 180.726 142.639 185.984 142.639C187.918 142.639 189.727 143.228 191.241 144.217C191.83 144.679 192.377 145.163 192.924 145.668C194.501 147.371 195.489 149.621 195.489 152.145C195.489 154.858 194.333 157.298 192.524 159.022C191.557 159.926 190.421 160.62 189.138 161.083C189.138 161.083 189.117 161.083 189.096 161.083ZM193.765 150.652C194.396 147.582 191.767 144.469 187.876 143.649C184.007 142.85 180.347 144.679 179.716 147.75C179.086 150.82 181.714 153.933 185.605 154.753C189.475 155.552 193.134 153.722 193.765 150.652Z" fill="white"/>
<path d="M185.583 154.756C181.714 153.956 179.064 150.823 179.695 147.752C180.326 144.682 183.985 142.852 187.855 143.652C191.724 144.451 194.374 147.584 193.743 150.655C193.133 153.725 189.474 155.555 185.583 154.756Z" fill="black"/>
<path d="M200.451 149.075C199.905 150.4 199.232 151.683 198.454 152.86C196.897 155.279 194.857 157.34 192.523 159.022C194.353 157.298 195.488 154.858 195.488 152.145C195.488 149.643 194.5 147.371 192.923 145.668C192.376 145.163 191.808 144.679 191.24 144.217C189.726 143.207 187.938 142.639 185.983 142.639C180.725 142.639 176.477 146.888 176.477 152.145C176.477 157.235 180.494 161.378 185.541 161.609C178.117 162.219 171.766 159.19 171.009 154.395C170.21 149.201 176.161 143.943 184.321 142.661C185.835 142.429 187.307 142.345 188.716 142.387C188.17 142.03 187.581 141.693 186.992 141.357C189.431 138.244 190.904 134.354 190.904 130.084C190.904 125.458 189.179 121.231 186.34 118.013C188.38 118.959 190.273 120.137 192.039 121.483C192.06 121.483 192.102 121.504 192.123 121.546C194.458 123.313 196.54 125.416 198.306 127.792C198.327 127.813 198.327 127.813 198.327 127.834C200.073 130.442 201.251 133.449 201.776 136.667C201.987 137.908 202.113 139.148 202.113 140.452C202.113 143.502 201.524 146.404 200.451 149.075Z" fill="black"/>
<path d="M187.475 136.856C187.475 138.413 187.307 139.906 186.992 141.378C186.592 141.168 186.192 140.999 185.793 140.81C185.52 140.684 185.246 140.537 184.973 140.411C183.9 139.927 182.807 139.506 181.65 139.17C181.524 139.128 181.398 139.107 181.271 139.086C180.262 138.791 179.231 138.581 178.18 138.413C177.78 138.35 177.402 138.307 177.002 138.244C176.645 138.202 176.308 138.139 175.951 138.097C176.371 136.457 176.582 134.753 176.582 133.008C176.582 125.731 172.922 119.296 167.328 115.49C167.328 115.49 167.328 115.469 167.349 115.469C167.37 115.469 167.37 115.469 167.37 115.469C178.58 116.12 187.475 125.437 187.475 136.856Z" fill="black"/>
<path d="M175.929 138.078C175.13 138.015 174.331 137.973 173.532 137.973C172.69 137.973 171.87 138.015 171.05 138.078C171.008 138.078 170.987 138.078 170.945 138.099C168.61 138.31 166.339 138.793 164.215 139.551H164.194C163.815 139.677 163.458 139.824 163.079 139.971C162.028 140.371 161.039 140.875 160.051 141.401C159.841 141.506 159.63 141.633 159.42 141.738C159.231 141.843 159.021 141.948 158.852 142.053C158.074 142.537 157.317 143.042 156.602 143.588C156.371 143.757 156.16 143.925 155.929 144.114H155.908C153.216 139.929 149.157 136.943 144.594 135.492V135.471C144.089 135.302 143.563 135.155 143.059 135.05C143.059 135.029 143.059 135.029 143.08 135.029C143.605 134.861 144.131 134.693 144.678 134.587C148.127 133.746 151.639 133.788 154.941 134.608C158.369 135.45 161.544 137.153 164.194 139.551C164.152 139.277 164.089 139.004 164.026 138.751C162.68 133.262 159.294 128.804 154.878 125.986C153.553 125.124 152.123 124.43 150.65 123.883C150.65 123.883 150.65 123.862 150.672 123.862H150.693L150.714 123.841C152.396 123.441 154.099 123.252 155.761 123.273C164.783 123.357 173.048 129.204 175.929 138.078Z" fill="black"/>
<path d="M153.658 146.196C153.406 146.448 153.175 146.68 152.943 146.932C152.312 147.605 151.724 148.299 151.156 149.035C151.072 149.161 150.945 149.266 150.861 149.393C149.81 148.72 148.695 148.152 147.538 147.668C145.414 146.806 143.164 146.28 140.893 146.133C142.512 145.25 144.195 144.598 145.919 144.177C149.263 143.336 152.733 143.336 155.993 144.114C155.866 144.219 155.74 144.345 155.614 144.451C154.899 144.997 154.268 145.586 153.658 146.196Z" fill="black"/>
<path d="M190.884 130.108C190.884 134.378 189.433 138.268 186.972 141.381C187.288 139.93 187.456 138.415 187.456 136.859C187.456 125.44 178.56 116.123 167.33 115.45C169.075 115.135 170.884 114.988 172.714 114.988C177.593 114.988 182.198 116.081 186.32 118.037C189.159 121.255 190.884 125.482 190.884 130.108Z" fill="#6BC9C6"/>
<path d="M176.564 132.987C176.564 134.732 176.354 136.457 175.933 138.076C173.052 129.201 164.787 123.355 155.744 123.271C154.083 123.25 152.379 123.439 150.697 123.839C153.094 121.525 155.849 119.611 158.898 118.139C161.443 116.92 164.198 116.015 167.079 115.532C167.163 115.511 167.226 115.49 167.29 115.469C167.29 115.469 167.29 115.469 167.311 115.469C172.905 119.275 176.564 125.689 176.564 132.987Z" fill="#6BC9C6"/>
<path d="M164.05 138.732C164.113 139.006 164.176 139.279 164.218 139.531C161.568 137.134 158.393 135.43 154.965 134.589C151.684 133.769 148.151 133.727 144.702 134.568C144.155 134.694 143.63 134.842 143.104 135.01C143.84 133.18 144.723 131.456 145.775 129.815C145.775 129.794 145.796 129.794 145.796 129.794C147.163 127.628 148.803 125.609 150.675 123.843C152.168 124.369 153.577 125.084 154.902 125.946C159.297 128.785 162.683 133.243 164.05 138.732Z" fill="#6BC9C6"/>
<path d="M144.638 135.488C149.223 136.94 153.261 139.926 155.953 144.111C152.693 143.333 149.223 143.312 145.879 144.174C144.176 144.595 142.472 145.226 140.853 146.13C143.145 146.277 145.374 146.803 147.498 147.665C148.655 148.149 149.77 148.717 150.821 149.39C150.779 149.432 150.758 149.495 150.716 149.537C150.59 149.705 150.464 149.894 150.359 150.062C150.169 150.336 149.959 150.609 149.791 150.883C149.665 151.072 149.559 151.282 149.454 151.472C149.223 151.85 148.992 152.25 148.76 152.649C148.676 152.796 148.592 152.923 148.508 153.091C148.382 153.343 148.256 153.617 148.129 153.869C147.94 154.269 147.73 154.668 147.562 155.089C147.351 155.572 147.162 156.077 146.994 156.561C146.868 156.918 146.72 157.297 146.594 157.654C146.405 158.222 146.258 158.832 146.11 159.421C146.026 159.736 145.942 160.052 145.858 160.367C145.669 161.293 145.501 162.218 145.395 163.185C145.395 163.185 145.374 163.185 145.374 163.206C145.353 163.27 145.332 163.312 145.311 163.375C142.682 159 141.063 153.932 140.811 148.506C140.79 147.98 140.769 147.476 140.769 146.95C140.769 146.698 140.769 146.424 140.79 146.172C140.811 146.151 140.811 146.151 140.811 146.151C140.79 146.151 140.79 146.151 140.79 146.151C140.874 142.239 141.673 138.517 143.061 135.089C143.608 135.173 144.134 135.32 144.638 135.488Z" fill="#6BC9C6"/>
<path d="M146.109 159.38C146.256 158.791 146.403 158.202 146.592 157.613C146.718 157.235 146.866 156.877 146.992 156.52C147.181 156.015 147.349 155.531 147.56 155.048C147.728 154.627 147.938 154.227 148.128 153.828C148.338 153.428 148.527 153.008 148.758 152.608C148.969 152.209 149.2 151.83 149.452 151.43C149.747 150.947 150.041 150.484 150.357 150.021C150.483 149.853 150.588 149.664 150.714 149.496C150.84 149.327 150.988 149.159 151.114 148.991C151.682 148.255 152.27 147.561 152.901 146.888C153.133 146.635 153.385 146.404 153.616 146.152C154.226 145.542 154.878 144.974 155.53 144.427C155.888 144.133 156.224 143.817 156.582 143.544C157.486 142.871 158.432 142.261 159.421 141.693C159.631 141.567 159.841 141.462 160.052 141.357C161.019 140.831 162.029 140.326 163.08 139.927C163.396 139.801 163.69 139.695 164.005 139.59C163.795 140.705 163.69 141.841 163.69 143.018C163.69 153.576 172.249 162.114 182.807 162.114C185.015 162.114 187.139 161.735 189.095 161.062C189.116 161.062 189.137 161.041 189.158 161.041C186.171 162.471 182.807 163.292 179.252 163.292C176.54 163.292 173.932 162.808 171.513 161.946C170.924 160.705 170.167 159.548 169.242 158.539C169.221 158.518 169.221 158.497 169.179 158.476C169.032 158.307 168.863 158.139 168.716 157.992L168.548 157.824C166.487 155.826 163.816 154.459 160.83 153.996C160.136 153.891 159.421 153.828 158.685 153.828C152.565 153.828 147.37 157.697 145.394 163.123C145.499 162.177 145.667 161.231 145.856 160.305C145.94 160.011 146.046 159.695 146.109 159.38Z" fill="#F6AC1B"/>
<path d="M189.099 161.085C187.144 161.779 185.019 162.137 182.811 162.137C172.254 162.137 163.695 153.598 163.695 143.041C163.695 141.864 163.8 140.728 164.01 139.613C163.695 139.718 163.4 139.845 163.085 139.95C163.463 139.803 163.821 139.655 164.199 139.529H164.22C166.345 138.772 168.616 138.288 170.95 138.078C170.992 138.078 171.013 138.078 171.055 138.057C171.876 137.994 172.696 137.952 173.537 137.952C174.336 137.952 175.135 137.994 175.934 138.057C176.292 138.078 176.628 138.162 176.986 138.204C177.385 138.246 177.764 138.309 178.164 138.373C179.215 138.541 180.246 138.772 181.255 139.045C181.381 139.088 181.507 139.109 181.634 139.13C182.769 139.466 183.884 139.887 184.956 140.37C185.23 140.497 185.503 140.623 185.777 140.77C186.176 140.959 186.597 141.127 186.975 141.338C187.564 141.653 188.153 142.011 188.7 142.368C187.291 142.305 185.819 142.389 184.304 142.642C176.145 143.925 170.193 149.182 170.992 154.377C171.749 159.193 178.1 162.2 185.524 161.59C186.113 161.548 186.681 161.527 187.27 161.422C187.901 161.338 188.511 161.232 189.099 161.085Z" fill="#C31632"/>
<path d="M264.718 160.134C259.713 161.291 255.528 163.941 252.92 167.285C252.458 165.981 252.289 164.593 252.5 163.205C253.362 157.464 260.113 153.699 267.578 154.814C272.352 155.529 276.264 158.052 278.241 161.291C274.434 159.525 269.639 158.999 264.718 160.134Z" fill="#F6AC1B"/>
<path d="M299.149 163.331C298.981 162.91 298.834 162.469 298.644 162.048C298.476 161.648 298.287 161.27 298.076 160.891C297.887 160.534 297.719 160.176 297.53 159.819C297.298 159.398 297.046 158.999 296.794 158.599C296.604 158.305 296.415 157.989 296.226 157.695C295.931 157.253 295.595 156.853 295.279 156.433C295.09 156.181 294.922 155.928 294.712 155.697C294.333 155.234 293.912 154.814 293.513 154.372C293.345 154.204 293.197 154.014 293.029 153.846C292.503 153.32 291.936 152.816 291.368 152.332C291.305 152.29 291.242 152.227 291.178 152.164C290.506 151.617 289.812 151.091 289.096 150.586C288.487 147.916 287.624 145.266 286.468 142.679C286.11 141.901 285.732 141.144 285.332 140.387C290.19 144.214 294.228 149.24 296.941 155.255C298.602 158.914 299.654 162.679 300.158 166.464C300.116 166.275 300.053 166.086 299.99 165.897C299.843 165.371 299.717 164.845 299.549 164.34C299.422 164.025 299.275 163.667 299.149 163.331Z" fill="#6BC9C6"/>
<path d="M285.376 148.551C284.787 148.278 284.198 148.025 283.588 147.815C283.21 147.668 282.852 147.521 282.474 147.416C281.632 147.142 280.77 146.911 279.887 146.722C279.592 146.659 279.298 146.616 279.004 146.553C278.162 146.406 277.321 146.28 276.459 146.217C276.333 146.196 276.206 146.175 276.08 146.175H276.059C276.038 146.175 276.038 146.175 276.038 146.175C275.428 146.133 274.818 146.112 274.209 146.112C273.367 146.112 272.547 146.154 271.748 146.238C270.781 146.322 269.834 146.469 268.888 146.659C268.341 146.764 267.794 146.932 267.248 147.079C266.974 147.163 266.701 147.205 266.427 147.289C263.904 144.64 260.938 142.305 257.616 140.37C256.901 139.95 256.144 139.55 255.407 139.172C261.569 139.466 267.752 141.212 273.451 144.513C274.335 145.039 275.197 145.565 276.038 146.154C274.188 143.567 272 141.191 269.477 139.025C268.825 138.478 268.173 137.952 267.5 137.468C273.515 138.856 279.298 141.674 284.303 145.943C285.965 147.353 287.479 148.867 288.846 150.486C288.762 150.423 288.656 150.381 288.572 150.318C287.857 149.855 287.121 149.435 286.364 149.056C286.049 148.867 285.712 148.719 285.376 148.551Z" fill="#6BC9C6"/>
</svg>
