<svg width="135" height="148" viewBox="0 0 135 148" fill="none" xmlns="http://www.w3.org/2000/svg">
<path d="M61.0788 123.17H134.498V147.442H61.0788V123.17Z" fill="black"/>
<path d="M37.1498 123.172H60.7694L61.0834 123.486V147.444C56.4947 147.444 52.1475 146.115 48.5249 143.821C46.9309 142.879 45.4577 141.72 44.1535 140.416C39.8064 136.068 37.1498 130.055 37.1498 123.486V123.172Z" fill="#C22034"/>
<path d="M81.0709 44.0278L97.6626 60.6196C96.8173 61.9479 95.8271 63.1554 94.692 64.2905L61.1222 97.8603V63.9765L81.0709 44.0278Z" fill="black"/>
<path d="M37.1687 30.0483L37.4585 30.0725C48.9544 30.1691 58.494 38.4287 60.6675 49.2967H37.1445V30.0483H37.1687Z" fill="white"/>
<path d="M19.2246 49.2725C13.9356 49.2725 9.08129 47.1231 5.6277 43.6695C2.12581 40.1676 0.0246353 35.3616 0.000484467 30.0483H37.1689V49.2967L19.2246 49.2725Z" fill="#C22034"/>
<path d="M94.6964 30.4067C102.932 38.6422 103.898 51.2973 97.667 60.6196L81.0753 44.0279L94.6964 30.4067Z" fill="white"/>
<path d="M64.2695 27.2181C60.5261 23.4747 58.6423 18.5721 58.6665 13.6211C58.6423 8.69434 60.5502 3.7434 64.2936 0L94.6997 30.406L81.0786 44.0272L64.2695 27.2181Z" fill="#F5AB1B"/>
<path d="M37.1464 123.172V99.5529L37.1706 49.3188H60.6936C60.9834 50.8645 61.1283 52.386 61.1283 54.0041V97.8623L61.1042 123.197H37.1464V123.172Z" fill="#F5AB1B"/>
<path d="M37.1405 99.5522V123.51C37.1405 130.079 39.8212 136.117 44.1442 140.44L9.19778 105.493C8.06268 104.358 7.04837 103.127 6.20308 101.798L22.7948 85.2065L37.1405 99.5522Z" fill="white"/>
<path d="M22.8022 85.2064L6.21045 101.798C0.00365257 92.5241 0.969667 79.8449 9.20515 71.6094L22.8022 85.2064Z" fill="black"/>
<path d="M26.371 54.4385C30.1385 58.206 31.9981 63.157 31.9981 68.0596C31.9981 72.9623 30.1143 77.8649 26.3226 81.6566L22.7725 85.2068L9.17552 71.6098L26.371 54.4385Z" fill="#C22034"/>
</svg>
