<svg width="314" height="421" viewBox="0 0 314 421" fill="none" xmlns="http://www.w3.org/2000/svg">
<path d="M293.327 188.948C286.893 200.935 275.204 209.662 261.306 211.997V212.67H298.667V167.835C298.667 172.609 297.889 177.172 296.501 181.483C295.66 184.07 294.609 186.572 293.327 188.948Z" fill="#F6AC1B"/>
<path d="M253.847 146.72L249.537 154.185H236.103C233.18 157.97 231.435 162.681 231.435 167.833C231.435 172.985 233.18 177.696 236.103 181.481H249.537L253.847 188.947L258.157 181.481H271.592C274.515 177.696 276.26 172.985 276.26 167.833C276.26 162.681 274.515 157.97 271.592 154.185H258.157L253.847 146.72Z" fill="#F6AC1B"/>
<path d="M261.306 123V123.673C275.204 126.007 286.893 134.734 293.327 146.721C294.609 149.098 295.66 151.579 296.501 154.187C297.889 158.498 298.667 163.061 298.667 167.835V123H261.306Z" fill="#F6AC1B"/>
<path d="M214.342 146.721C220.775 134.734 232.465 126.007 246.362 123.673V123H209.002V167.835C209.002 163.061 209.779 158.498 211.167 154.187C212.008 151.579 213.08 149.098 214.342 146.721Z" fill="#F6AC1B"/>
<path d="M214.342 188.948C213.059 186.572 212.008 184.091 211.167 181.483C209.779 177.172 209.002 172.609 209.002 167.835V212.67H246.362V211.997C232.465 209.662 220.775 200.914 214.342 188.948Z" fill="#F6AC1B"/>
<path d="M246.361 146.721C242.24 148.172 238.687 150.801 236.08 154.187H249.514L253.824 146.721L258.135 154.187H271.569C268.962 150.801 265.409 148.172 261.288 146.721V123H246.34V146.721H246.361Z" fill="#C22034"/>
<path d="M261.312 188.948C265.432 187.497 268.986 184.868 271.593 181.482H258.158L253.848 188.948L249.538 181.482H236.103C238.71 184.868 242.263 187.497 246.384 188.948V212.669H261.333V188.948H261.312Z" fill="#C22034"/>
<path d="M214.342 188.95C220.775 200.937 232.465 209.664 246.362 211.998V188.95C242.242 187.499 238.688 184.87 236.081 181.485C233.159 177.699 231.414 172.989 231.414 167.837C231.414 162.684 233.159 157.974 236.081 154.188C238.688 150.803 242.242 148.174 246.362 146.723V123.675C232.465 126.009 220.775 134.736 214.342 146.723C213.059 149.099 212.008 151.581 211.167 154.188C209.779 158.499 209.002 163.063 209.002 167.837C209.002 172.61 209.779 177.174 211.167 181.485C212.008 184.071 213.08 186.574 214.342 188.95Z" fill="black"/>
<path d="M293.327 146.723C286.893 134.736 275.204 126.009 261.306 123.675V146.723C265.427 148.174 268.98 150.803 271.587 154.188C274.51 157.974 276.255 162.684 276.255 167.837C276.255 172.989 274.51 177.699 271.587 181.485C268.98 184.87 265.427 187.499 261.306 188.95V211.998C275.204 209.664 286.893 200.937 293.327 188.95C294.609 186.574 295.66 184.092 296.501 181.485C297.889 177.174 298.667 172.61 298.667 167.837C298.667 163.063 297.889 158.499 296.501 154.188C295.66 151.581 294.609 149.099 293.327 146.723Z" fill="black"/>
<path d="M298.672 212H209.002V301.67H298.672V212Z" fill="#C22034"/>
<path d="M283.553 254.016C283.301 251.703 282.754 249.41 281.892 247.181C281.219 244.637 280.188 242.239 278.843 240.052C275.583 233.806 275.899 225.983 280.336 219.885C275.751 226.173 268.076 228.885 260.925 227.413C258.654 226.93 256.299 226.74 253.902 226.867C251.273 226.719 248.665 226.951 246.184 227.561C239.244 228.738 231.905 226.004 227.467 219.927C232.052 226.215 232.241 234.353 228.624 240.704C227.467 242.723 226.563 244.91 225.953 247.202C225.007 249.663 224.418 252.207 224.229 254.752C223.198 261.713 218.341 267.853 211.17 270.187C218.572 267.79 226.374 270.124 231.295 275.508C232.998 277.401 234.975 279.041 237.225 280.408C239.139 281.88 241.158 283.142 243.324 284.046C249.633 287.179 253.965 293.698 253.965 301.227C253.965 293.446 258.591 286.759 265.258 283.73C267.15 282.889 268.917 281.733 270.599 280.45C273.081 278.936 275.268 277.085 277.076 274.94C282.018 269.914 289.547 267.79 296.718 270.124C289.315 267.748 284.373 261.292 283.553 254.016ZM253.965 256.308H253.923V256.287H253.944L253.965 256.308Z" fill="#F6AC1B"/>
<path d="M230.368 288.255C229.611 276.941 235.625 266.216 245.909 261.001L251.671 258.078L250.178 260.98L252.491 258.667L251.482 265.06C249.694 276.458 241.366 285.479 230.368 288.255ZM277.516 288.255C266.518 285.479 258.19 276.437 256.403 265.06L255.393 258.667L257.706 260.98L256.213 258.057L261.975 260.98C272.259 266.216 278.273 276.941 277.516 288.255ZM267.99 256.69C266.497 256.69 264.983 256.564 263.511 256.332L257.118 255.302L260.041 253.809L256.802 254.335L261.366 249.75C266.665 244.43 274.046 241.38 281.575 241.38C285.213 241.38 288.746 242.053 292.09 243.399C286.916 251.664 277.895 256.69 267.99 256.69ZM239.894 256.69C229.989 256.69 220.968 251.664 215.795 243.42C219.138 242.074 222.671 241.401 226.309 241.401C233.838 241.401 241.198 244.451 246.519 249.771L251.082 254.356L247.844 253.83L250.767 255.323L244.374 256.353C242.902 256.564 241.387 256.69 239.894 256.69ZM253.942 249.372L253.437 252.61L250.493 246.848C245.236 236.586 246.687 224.388 253.942 215.661C261.197 224.367 262.648 236.586 257.391 246.848L254.447 252.61L253.942 249.372Z" fill="#6BC9C6"/>
<path d="M253.941 265.267C259.132 265.267 263.341 261.059 263.341 255.867C263.341 250.675 259.132 246.467 253.941 246.467C248.749 246.467 244.541 250.675 244.541 255.867C244.541 261.059 248.749 265.267 253.941 265.267Z" fill="#F6AC1B"/>
<path d="M260.178 123.401L266.443 123.401C266.443 97.4741 287.473 76.4441 313.4 76.4441L313.4 70.1792C284.046 70.1792 260.178 94.0475 260.178 123.401Z" fill="black"/>
<path d="M288.899 123.403L295.164 123.403C295.164 113.343 303.341 105.167 313.4 105.167L313.4 98.9019C299.885 98.9166 288.899 109.887 288.899 123.403Z" fill="black"/>
<path d="M279.326 123.401L285.59 123.401C285.59 108.062 298.047 95.591 313.4 95.591L313.4 89.3262C294.605 89.3409 279.326 104.606 279.326 123.401Z" fill="black"/>
<path d="M269.752 123.403L276.017 123.403C276.017 102.77 292.767 86.0198 313.4 86.0198L313.4 79.7549C289.326 79.7549 269.752 99.329 269.752 123.403Z" fill="black"/>
<path d="M250.604 123.399L256.869 123.399C256.869 92.1926 282.193 66.8684 313.4 66.8684L313.4 60.6035C278.767 60.6035 250.604 88.7661 250.604 123.399Z" fill="black"/>
<path d="M221.868 123.398L228.133 123.398C228.133 76.3086 266.31 38.1457 313.385 38.1457L313.385 31.8809C262.928 31.8809 221.868 72.9408 221.868 123.398Z" fill="black"/>
<path d="M212.294 123.399L218.559 123.399C218.559 71.0301 261.016 28.5583 313.4 28.5583L313.4 22.2935C257.648 22.3082 212.294 67.6624 212.294 123.399Z" fill="black"/>
<path d="M241.03 123.398L247.295 123.398C247.295 86.8965 276.899 57.2927 313.4 57.2927L313.4 51.0278C273.487 51.0278 241.03 83.4846 241.03 123.398Z" fill="black"/>
<path d="M231.457 123.4L237.721 123.4C237.721 81.6042 271.605 47.7209 313.4 47.721L313.4 41.4561C268.208 41.4561 231.457 78.2071 231.457 123.4Z" fill="black"/>
<path d="M313.4 22.3089L313.4 19C309.797 19 306.238 19.1765 302.723 19.5441C297.458 20.0736 292.311 21.0001 287.311 22.2942C282.311 23.5884 277.443 25.2355 272.767 27.2061C268.075 29.1915 263.575 31.5004 259.266 34.1181C256.398 35.8681 253.619 37.7358 250.942 39.7506C225.486 58.7952 209 89.1784 209 123.415L212.309 123.415C212.294 67.6631 257.648 22.3089 313.4 22.3089Z" fill="#C31632"/>
<path d="M313.4 31.8846L313.4 28.5757C261.031 28.5757 218.559 71.0327 218.559 123.417L221.868 123.417C221.868 72.9446 262.928 31.8846 313.4 31.8846Z" fill="#C31632"/>
<path d="M313.4 41.4564L313.4 38.1475C266.31 38.1475 228.148 76.325 228.148 123.4L231.457 123.4C231.457 78.2074 268.208 41.4564 313.4 41.4564Z" fill="#C31632"/>
<path d="M313.4 51.0316L313.4 47.7227C271.605 47.7227 237.721 81.6059 237.721 123.401L241.03 123.401C241.03 83.4884 273.487 51.0316 313.4 51.0316Z" fill="#C31632"/>
<path d="M313.4 60.6073L313.4 57.2983C276.899 57.2983 247.295 86.9021 247.295 123.403L250.604 123.403C250.604 88.7698 278.767 60.6073 313.4 60.6073Z" fill="#C31632"/>
<path d="M313.4 70.1751L313.4 66.8662C282.193 66.8662 256.869 92.1905 256.869 123.397L260.178 123.397C260.178 94.0435 284.046 70.1751 313.4 70.1751Z" fill="#C31632"/>
<path d="M313.4 79.7508L313.4 76.4419C287.473 76.4419 266.443 97.4719 266.443 123.399L269.752 123.399C269.752 99.3249 289.326 79.7508 313.4 79.7508Z" fill="#C31632"/>
<path d="M313.4 89.3416L313.4 86.0327C292.767 86.0327 276.017 102.783 276.017 123.416L279.326 123.416C279.326 104.607 294.605 89.3416 313.4 89.3416Z" fill="#C31632"/>
<path d="M313.4 98.9173L313.4 95.6084C298.061 95.6084 285.59 108.065 285.59 123.418L288.899 123.418C288.899 109.888 299.885 98.9173 313.4 98.9173Z" fill="#C31632"/>
<path d="M313.4 108.485L313.4 105.176C303.341 105.176 295.164 113.353 295.164 123.412L298.473 123.412C298.473 115.162 305.15 108.485 313.4 108.485Z" fill="#C31632"/>
<path d="M298.4 302L208.92 302C208.92 310.226 202.247 316.92 194 316.92L194 406.4C251.646 406.379 298.4 359.646 298.4 302Z" fill="#F6AC1B"/>
<path d="M148.834 316.021L163.155 330.338L179.347 346.527L193.668 360.845V316.021H148.834Z" fill="black"/>
<path d="M104.002 360.846V405.67H148.836L104.002 360.846Z" fill="black"/>
<path d="M148.836 316.021H104.002V360.845L148.836 316.021Z" fill="black"/>
<path d="M148.834 405.67H193.668V360.846L148.834 405.67Z" fill="black"/>
<path d="M174.85 370.644C170.371 366.166 163.116 366.166 158.658 370.644C154.179 375.122 154.179 382.375 158.658 386.833L163.158 391.332L179.351 375.143L174.85 370.644Z" fill="#F5AB1B"/>
<path d="M139.074 386.79C143.553 382.311 143.553 375.058 139.074 370.601C134.595 366.123 127.34 366.123 122.881 370.601L118.318 375.163L134.511 391.352L139.074 386.79Z" fill="#F5AB1B"/>
<path d="M158.677 350.982C163.157 355.461 170.412 355.461 174.87 350.982L179.349 346.504L163.157 330.315L158.677 334.794C154.219 339.272 154.219 346.525 158.677 350.982Z" fill="#F5AB1B"/>
<path d="M122.902 351.112C127.382 355.59 134.637 355.59 139.095 351.112C143.574 346.634 143.574 339.38 139.095 334.923L134.511 330.34L118.318 346.529L122.902 351.112Z" fill="#F5AB1B"/>
<path d="M174.892 350.985C170.412 355.463 163.157 355.463 158.699 350.985C154.22 346.506 154.22 339.253 158.699 334.796L163.178 330.318L148.857 316L134.536 330.318L139.121 334.901C143.6 339.379 143.6 346.633 139.121 351.09C134.641 355.568 127.386 355.568 122.928 351.09L118.344 346.506L104.002 360.845L118.323 375.163L122.886 370.6C127.365 366.122 134.62 366.122 139.079 370.6C143.558 375.079 143.558 382.332 139.079 386.789L134.515 391.351L148.836 405.669L163.157 391.351L158.657 386.852C154.178 382.374 154.178 375.121 158.657 370.663C163.136 366.185 170.391 366.185 174.849 370.663L179.35 375.163L193.671 360.845L179.35 346.527L174.892 350.985Z" fill="white"/>
<path d="M51.178 420.401L57.4428 420.401C57.4428 394.474 78.4728 373.444 104.4 373.444L104.4 367.179C75.0462 367.179 51.178 391.048 51.178 420.401Z" fill="white"/>
<path d="M79.8994 420.403L86.1642 420.403C86.1642 410.343 94.3409 402.167 104.4 402.167L104.4 395.902C90.8849 395.917 79.8994 406.887 79.8994 420.403Z" fill="white"/>
<path d="M70.3255 420.401L76.5904 420.401C76.5904 405.062 89.0466 392.591 104.4 392.591L104.4 386.326C85.6054 386.341 70.3255 401.606 70.3255 420.401Z" fill="white"/>
<path d="M60.7517 420.403L67.0166 420.403C67.0166 399.77 83.7671 383.02 104.4 383.02L104.4 376.755C80.3258 376.755 60.7517 396.329 60.7517 420.403Z" fill="white"/>
<path d="M41.6041 420.399L47.869 420.399C47.869 389.193 73.1932 363.868 104.4 363.868L104.4 357.604C69.7667 357.604 41.6041 385.766 41.6041 420.399Z" fill="white"/>
<path d="M12.868 420.398L19.1329 420.398C19.1329 373.309 57.3105 335.146 104.385 335.146L104.385 328.881C53.9281 328.881 12.868 369.941 12.868 420.398Z" fill="white"/>
<path d="M3.29422 420.399L9.55911 420.399C9.55911 368.03 52.0162 325.558 104.4 325.558L104.4 319.293C48.6484 319.308 3.29422 364.662 3.29422 420.399Z" fill="white"/>
<path d="M32.0303 420.398L38.2952 420.398C38.2952 383.896 67.899 354.293 104.4 354.293L104.4 348.028C64.4871 348.028 32.0303 380.485 32.0303 420.398Z" fill="white"/>
<path d="M22.4566 420.4L28.7214 420.4C28.7214 378.604 62.6047 344.721 104.4 344.721L104.4 338.456C59.2076 338.456 22.4566 375.207 22.4566 420.4Z" fill="white"/>
<path d="M104.4 319.309L104.4 316C100.797 316 97.2381 316.176 93.7233 316.544C88.4584 317.074 83.3112 318 78.311 319.294C73.3109 320.588 68.4431 322.235 63.7665 324.206C59.0752 326.191 54.5751 328.5 50.2661 331.118C47.3984 332.868 44.6189 334.736 41.9424 336.751C16.4858 355.795 4.5618e-06 386.178 3.06528e-06 420.415L3.30892 420.415C3.29421 364.663 48.6484 319.309 104.4 319.309Z" fill="#C31632"/>
<path d="M104.4 328.885L104.4 325.576C52.0309 325.576 9.55911 368.033 9.55911 420.417L12.868 420.417C12.868 369.945 53.928 328.885 104.4 328.885Z" fill="#C31632"/>
<path d="M104.4 338.456L104.4 335.147C57.3104 335.147 19.1477 373.325 19.1476 420.4L22.4566 420.4C22.4566 375.207 59.2076 338.456 104.4 338.456Z" fill="#C31632"/>
<path d="M104.4 348.032L104.4 344.723C62.6047 344.723 28.7214 378.606 28.7214 420.401L32.0303 420.401C32.0303 380.488 64.4871 348.032 104.4 348.032Z" fill="#C31632"/>
<path d="M104.4 357.607L104.4 354.298C67.899 354.298 38.2952 383.902 38.2952 420.403L41.6041 420.403C41.6041 385.77 69.7667 357.607 104.4 357.607Z" fill="#C31632"/>
<path d="M104.4 367.175L104.4 363.866C73.1932 363.866 47.869 389.19 47.869 420.397L51.1779 420.397C51.178 391.043 75.0462 367.175 104.4 367.175Z" fill="#C31632"/>
<path d="M104.4 376.751L104.4 373.442C78.4728 373.442 57.4428 394.472 57.4428 420.399L60.7517 420.399C60.7517 396.325 80.3258 376.751 104.4 376.751Z" fill="#C31632"/>
<path d="M104.4 386.342L104.4 383.033C83.7671 383.033 67.0166 399.783 67.0166 420.416L70.3255 420.416C70.3255 401.607 85.6054 386.342 104.4 386.342Z" fill="#C31632"/>
<path d="M104.4 395.917L104.4 392.608C89.0613 392.608 76.5904 405.065 76.5904 420.418L79.8994 420.418C79.8994 406.888 90.8849 395.917 104.4 395.917Z" fill="#C31632"/>
<path d="M104.4 405.485L104.4 402.176C94.3409 402.176 86.1642 410.353 86.1642 420.412L89.4731 420.412C89.4731 412.162 96.1498 405.485 104.4 405.485Z" fill="#C31632"/>
<path d="M130.929 286.147C128.405 286.4 126.007 286.989 123.693 287.83L130.929 307.224V286.147Z" fill="black"/>
<path d="M120.912 289.008C118.64 290.102 116.537 291.469 114.623 293.068L127.938 307.855L120.912 289.008Z" fill="black"/>
<path d="M112.351 295.233C110.542 297.126 108.943 299.251 107.681 301.586L125.413 309.747L112.351 295.233Z" fill="black"/>
<path d="M106.272 304.53C105.242 307.054 104.527 309.746 104.232 312.565H123.731L106.272 304.53Z" fill="black"/>
<path d="M130.926 286.147V307.203L123.69 287.809C122.743 288.167 121.797 288.545 120.892 288.987L127.918 307.855L114.603 293.068C113.804 293.741 113.046 294.477 112.31 295.234L125.373 309.748L107.641 301.587C107.115 302.533 106.652 303.522 106.252 304.531L123.69 312.567H104.191C104.065 313.66 104.002 314.754 104.002 315.89H133.892V286C132.924 286 131.914 286.042 130.926 286.147Z" fill="#FCB912"/>
</svg>
