<svg width="162" height="571" viewBox="0 0 162 571" fill="none" xmlns="http://www.w3.org/2000/svg">
<path d="M21.4266 549.003C23.2289 545.374 24.9561 541.92 23.4541 536.339C21.9522 530.757 18.7482 528.63 15.3689 526.377C11.8394 524.05 7.85934 521.397 6.05705 514.714C4.2798 508.031 6.40754 503.726 8.28492 499.947C10.0872 496.293 11.8144 492.864 10.3125 487.258C8.81058 481.651 5.60649 479.524 2.2272 477.271C1.52631 476.796 0.800426 476.295 0.0745068 475.77L0.0745068 477.722C2.20221 480.125 4.02952 483.178 4.45506 488.009C5.03079 494.566 2.47755 498.37 0.0745071 501.649L0.0745073 523.875C0.625207 524.425 1.17586 524.976 1.75159 525.501C4.8305 528.43 8.28489 531.734 8.88565 538.616C9.48642 545.499 6.63281 549.354 4.12964 552.758C2.35238 555.16 0.650237 557.488 0.0745078 560.867L0.0745078 565.873C0.299794 567.524 0.725309 568.926 1.30104 570.127C8.05961 570.052 14.668 569.452 21.1262 568.35C20.3753 567.049 19.6994 565.547 19.2238 563.745C17.4215 557.088 19.5492 552.808 21.4266 549.003Z" fill="#C31632"/>
<path d="M1.47056 488.292C1.27031 486.114 0.769653 484.387 0.0437322 482.936L0.0437323 496.176C1.09507 494.073 1.77094 491.646 1.47056 488.292Z" fill="#C31632"/>
<path d="M5.9061 538.897C5.4305 533.39 2.85223 530.712 0.0486798 528.034L0.0486801 553.363C0.599378 552.537 1.15011 551.761 1.72584 551.01C4.12889 547.782 6.40673 544.678 5.9061 538.897Z" fill="#C31632"/>
<path d="M107.406 474.625C105.153 471.246 103.026 468.042 97.4435 466.541C91.8615 465.039 88.4071 466.766 84.7775 468.568C80.9977 470.445 76.6922 472.572 70.0088 470.795C63.3253 468.993 60.6719 465.014 58.344 461.485C56.0911 458.106 53.9634 454.902 48.3563 453.401C42.7492 451.899 39.3198 453.601 35.6652 455.428C31.8604 457.305 27.58 459.432 20.8965 457.655C18.5185 457.03 16.6661 456.104 15.1392 455.027C14.9639 455.328 14.7887 455.628 14.5885 455.903C15.5897 456.779 16.7913 457.58 18.3182 458.281C23.5749 460.734 27.2545 459.633 31.1595 458.506C35.2146 457.305 39.8204 455.953 46.1034 458.882C52.3613 461.81 54.2888 466.19 55.991 470.07C57.618 473.799 59.17 477.328 64.4017 479.756C69.6583 482.209 73.3379 481.132 77.2429 479.956C81.298 478.755 85.9039 477.403 92.1619 480.331C98.4198 483.26 100.347 487.64 102.049 491.519C103.676 495.248 105.203 498.777 110.46 501.205C110.76 501.355 111.036 501.43 111.336 501.556C114.215 495.849 116.643 489.917 118.62 483.76C112.287 481.933 109.684 478.079 107.406 474.625Z" fill="#C31632"/>
<path d="M36.4928 446.568C36.8933 446.292 37.2938 445.992 37.6943 445.692L17.8442 445.692C17.8442 446.643 17.719 447.569 17.5688 448.495C19.321 449.646 21.4487 450.497 24.3774 450.747C30.1347 451.248 33.2136 448.97 36.4928 446.568Z" fill="#C31632"/>
<path d="M112.235 455.428C109.432 452.474 106.778 449.696 101.021 449.196C95.2636 448.72 92.1596 450.973 88.9055 453.375C85.5012 455.878 81.6213 458.732 74.7626 458.131C67.8789 457.53 64.5747 454.051 61.646 450.998C59.6184 448.87 57.6659 446.868 54.6121 445.692L43.598 445.692C41.6205 446.493 39.9685 447.694 38.2663 448.945C34.862 451.448 30.9821 454.301 24.0984 453.701C21.0445 453.425 18.7165 452.575 16.7891 451.448C16.6889 451.749 16.6389 452.049 16.5138 452.324C17.8404 453.325 19.4675 454.176 21.6452 454.752C27.2523 456.254 30.6817 454.552 34.3363 452.75C38.1161 450.873 42.4216 448.745 49.1051 450.522C55.7885 452.324 58.4419 456.304 60.7699 459.833C63.0227 463.212 65.1504 466.415 70.7325 467.917C76.3146 469.419 79.769 467.692 83.3986 465.89C87.1784 464.013 91.4838 461.885 98.1673 463.662C104.851 465.439 107.504 469.444 109.832 472.973C112.035 476.277 114.138 479.405 119.419 480.932C121.196 474.875 122.523 468.643 123.374 462.261C117.842 461.259 114.863 458.181 112.235 455.428Z" fill="#C31632"/>
<path d="M63.7769 448.945C66.5805 451.899 69.2338 454.677 75.0161 455.177C80.7985 455.678 83.8773 453.4 87.1315 450.998C90.5358 448.495 94.3907 445.642 101.274 446.242C108.158 446.843 111.462 450.322 114.391 453.375C116.894 456.003 119.272 458.481 123.803 459.357C124.304 454.877 124.554 450.322 124.554 445.692L60.3725 445.692C61.6492 446.743 62.7506 447.869 63.7769 448.945Z" fill="#C31632"/>
<path d="M99.3006 492.725C97.6735 488.996 96.1466 485.467 90.8899 483.039C85.6583 480.586 81.9536 481.687 78.0486 482.839C73.9935 484.04 69.3877 485.392 63.1297 482.463C56.8718 479.535 54.9443 475.155 53.2422 471.275C51.6151 467.546 50.0632 464.017 44.8316 461.589C39.5749 459.137 35.8952 460.213 31.9903 461.364C27.9351 462.54 23.3293 463.917 17.0463 460.989C15.2691 460.163 13.8673 459.212 12.6908 458.21C12.4155 458.486 12.1151 458.711 11.8147 458.961C12.5156 459.712 13.3666 460.463 14.3929 461.164C19.149 464.493 22.9538 464.067 27.009 463.617C31.2393 463.141 35.9953 462.615 41.6525 466.57C47.3096 470.525 48.4361 475.205 49.4374 479.31C50.3886 483.264 51.2897 486.993 56.0457 490.322C60.7767 493.651 64.6066 493.2 68.6367 492.75C72.842 492.274 77.5981 491.749 83.2803 495.703C88.9374 499.658 90.0639 504.338 91.0652 508.443C92.0164 512.397 92.9175 516.127 97.6735 519.455C98.2993 519.906 98.9252 520.281 99.5259 520.582C103.406 515.426 106.885 509.97 109.964 504.238C109.714 504.138 109.463 504.063 109.188 503.938C102.93 501.009 101.003 496.604 99.3006 492.725Z" fill="#C31632"/>
<path d="M74.3941 523.358C74.1438 519.303 73.8934 515.474 69.8133 511.369C65.7081 507.264 61.8783 507.039 57.8231 506.789C53.5928 506.538 48.8116 506.213 43.9305 501.332C39.0493 496.452 38.7489 491.646 38.4736 487.442C38.2232 483.387 37.973 479.558 33.8928 475.453C29.7876 471.348 25.9577 471.098 21.9026 470.848C17.6722 470.572 12.8911 470.272 7.98492 465.391C7.03371 464.44 6.23267 463.489 5.60688 462.538C5.20637 462.663 4.80589 462.813 4.38035 462.914C4.68073 463.489 5.03113 464.065 5.43163 464.64C8.76086 469.396 12.4906 470.297 16.4457 471.248C20.5509 472.249 25.2318 473.375 29.1868 479.032C33.1418 484.688 32.6161 489.469 32.1405 493.674C31.69 497.728 31.2644 501.533 34.5686 506.288C37.8978 511.019 41.6276 511.92 45.5826 512.896C49.6878 513.897 54.3687 515.023 58.3237 520.68C62.2787 526.336 61.7531 531.117 61.2775 535.321C60.8269 539.376 60.4013 543.18 63.7055 547.936C64.6067 549.212 65.5329 550.213 66.5091 551.014C72.0412 547.51 77.2978 543.581 82.179 539.276C81.403 538.7 80.627 538.074 79.826 537.299C74.9448 532.368 74.6444 527.562 74.3941 523.358Z" fill="#C31632"/>
<path d="M61.2724 549.583C57.3174 543.927 57.843 539.146 58.3186 534.942C58.7692 530.912 59.1947 527.083 55.8906 522.352C52.5613 517.622 48.8316 516.696 44.8766 515.745C40.7714 514.744 36.0905 513.617 32.1355 507.961C28.1804 502.304 28.7061 497.524 29.1817 493.319C29.6323 489.264 30.0578 485.46 26.7536 480.705C23.4244 475.949 19.6947 475.048 15.7397 474.097C11.6345 473.096 6.95349 471.97 2.99847 466.313C2.27256 465.287 1.72193 464.311 1.27135 463.335C0.87085 463.36 0.470314 463.46 0.0698051 463.46L0.0698051 463.635C0.245026 464.136 0.37019 464.611 0.620506 465.137C3.07362 470.393 6.6031 471.92 10.3328 473.571C14.2128 475.273 18.6183 477.201 21.547 483.458C24.4757 489.715 23.1241 494.32 21.9225 498.375C20.7711 502.279 19.6947 505.958 22.1478 511.214C24.6009 516.445 28.1054 517.997 31.8351 519.624C35.715 521.326 40.1206 523.228 43.0243 529.51C45.953 535.768 44.6013 540.373 43.3997 544.427C42.2483 548.332 41.1719 552.011 43.625 557.267C44.426 558.969 45.3272 560.246 46.3285 561.297C52.4613 558.844 58.3687 555.941 63.9758 552.587C62.9996 551.761 62.1235 550.785 61.2724 549.583Z" fill="#C31632"/>
<path d="M88.1803 509.108C87.2291 505.154 86.3279 501.424 81.5718 498.096C76.8408 494.767 73.011 495.217 68.9809 495.668C64.7755 496.168 60.0195 496.669 54.3373 492.714C48.6801 488.76 47.5537 484.08 46.5525 479.975C45.6013 476.02 44.7001 472.291 39.944 468.962C35.188 465.634 31.3832 466.059 27.328 466.51C23.1227 466.985 18.3417 467.511 12.6845 463.556C11.3829 462.63 10.3315 461.679 9.4554 460.703C9.10496 460.928 8.72947 461.103 8.354 461.304C8.8296 461.954 9.3553 462.605 10.0312 463.256C14.1364 467.36 17.9662 467.611 22.0213 467.861C26.2517 468.136 31.0327 468.437 35.9389 473.317C40.8201 478.198 41.1206 483.003 41.3959 487.208C41.6462 491.263 41.8966 495.092 46.0018 499.197C50.0819 503.277 53.9368 503.527 57.9919 503.777C62.2223 504.052 67.0034 504.353 71.8846 509.233C76.7658 514.114 77.0661 518.919 77.3415 523.124C77.5918 527.179 77.8422 531.008 81.9223 535.113C82.7734 535.964 83.5994 536.615 84.4505 537.165C89.2315 532.76 93.6371 527.98 97.6672 522.874C97.0915 522.549 96.5408 522.223 95.94 521.823C90.3079 517.893 89.1815 513.238 88.1803 509.108Z" fill="#C31632"/>
<path d="M40.498 543.602C41.6495 539.698 42.7259 536.018 40.2728 530.762C37.8197 525.506 34.3152 523.98 30.5855 522.353C26.7056 520.651 22.3 518.749 19.3963 512.491C16.4676 506.234 17.8193 501.629 19.0209 497.549C20.1723 493.645 21.2487 489.966 18.7956 484.71C16.3425 479.454 12.813 477.927 9.08325 476.275C6.05441 474.948 2.7252 473.472 0.0217743 469.918L0.0217743 471.97C1.19827 473.021 2.49989 473.897 3.82657 474.773C7.35604 477.126 11.3611 479.779 13.1384 486.462C14.9156 493.144 12.7879 497.449 10.9105 501.229C9.10823 504.883 7.38105 508.312 8.88295 513.918C10.3849 519.499 13.5889 521.627 16.9682 523.879C20.4977 526.207 24.5028 528.86 26.28 535.543C28.0573 542.225 25.9296 546.505 24.0522 550.31C22.2499 553.939 20.5227 557.393 22.0246 562.974C22.5503 564.976 23.3263 566.503 24.2274 567.78C30.7607 566.478 37.1438 564.701 43.2766 562.424C42.4005 561.347 41.5745 560.046 40.8485 558.469C37.9448 552.262 39.2965 547.657 40.498 543.602Z" fill="#C31632"/>
<path d="M0.046098 570.21C0.446606 570.21 0.872197 570.185 1.27271 570.185C0.696975 568.984 0.271384 567.582 0.046098 565.93L0.046098 570.21Z" fill="#F6AC1B"/>
<path d="M4.10352 552.812C6.6067 549.408 9.46038 545.554 8.85961 538.671C8.25885 531.788 4.77943 528.484 1.72555 525.556C1.14982 525.005 0.599092 524.48 0.0483932 523.929L0.0483933 528.084C2.85195 530.762 5.43021 533.415 5.90581 538.946C6.40645 544.703 4.1286 547.806 1.72555 551.085C1.17486 551.836 0.599092 552.612 0.0483936 553.438L0.0483937 560.946C0.624124 557.542 2.32627 555.215 4.10352 552.812Z" fill="#F6AC1B"/>
<path d="M43.33 544.43C44.5315 540.375 45.8832 535.77 42.9545 529.513C40.0258 523.256 35.6452 521.328 31.7653 519.626C28.0356 518 24.5311 516.473 22.078 511.217C19.6249 505.961 20.7263 502.282 21.8528 498.377C23.0543 494.323 24.4059 489.717 21.4772 483.46C18.5485 477.203 14.143 475.276 10.263 473.574C6.53331 471.947 3.00383 470.395 0.550716 465.139C0.3004 464.614 0.200268 464.138 1.52588e-05 463.637L1.5334e-05 469.945C2.70344 473.474 6.03265 474.975 9.06149 476.302C12.7912 477.929 16.3207 479.481 18.7738 484.737C21.2269 489.993 20.1255 493.672 18.9991 497.576C17.7976 501.631 16.4458 506.236 19.3746 512.518C22.3033 518.776 26.6838 520.703 30.5637 522.38C34.2935 524.006 37.8229 525.533 40.251 530.789C42.7041 536.045 41.6027 539.724 40.4763 543.629C39.2748 547.684 37.9231 552.289 40.8518 558.546C41.5778 560.123 42.4038 561.399 43.2799 562.501C44.2812 562.125 45.2574 561.725 46.2336 561.349C45.2324 560.298 44.3312 559.022 43.5302 557.32C41.1021 552.039 42.1785 548.334 43.33 544.43Z" fill="#F6AC1B"/>
<path d="M102.029 491.547C100.327 487.668 98.4243 483.263 92.1414 480.36C85.8834 477.431 81.2776 478.808 77.2225 479.984C73.3175 481.135 69.6378 482.212 64.3812 479.784C59.1245 477.331 57.5975 473.827 55.9705 470.098C54.2683 466.218 52.3659 461.813 46.083 458.91C39.825 455.982 35.1942 457.333 31.139 458.535C27.2341 459.686 23.5544 460.762 18.2977 458.309C16.7708 457.609 15.5693 456.783 14.568 455.932C13.9923 456.733 13.3665 457.508 12.6906 458.209C13.8671 459.235 15.2689 460.161 17.0461 460.987C23.3041 463.916 27.9099 462.539 31.9901 461.363C35.895 460.212 39.5747 459.135 44.8314 461.588C50.088 464.041 51.6149 467.545 53.242 471.274C54.9442 475.154 56.8466 479.559 63.1296 482.462C69.3875 485.365 73.9933 484.014 78.0485 482.837C81.9534 481.686 85.6331 480.61 90.8898 483.038C96.1464 485.49 97.6733 488.994 99.3004 492.724C101.003 496.603 102.905 501.008 109.188 503.912C109.463 504.037 109.689 504.112 109.964 504.212C110.44 503.336 110.865 502.46 111.316 501.559C111.015 501.434 110.74 501.359 110.44 501.208C105.183 498.781 103.656 495.277 102.029 491.547Z" fill="#F6AC1B"/>
<path d="M61.6267 450.998C64.5555 454.076 67.8596 457.53 74.7433 458.131C81.602 458.732 85.482 455.878 88.8863 453.375C92.1655 450.948 95.2444 448.695 101.002 449.196C106.784 449.696 109.412 452.474 112.216 455.428C114.844 458.181 117.823 461.259 123.405 462.286C123.53 461.31 123.68 460.333 123.781 459.357C119.25 458.481 116.872 456.003 114.369 453.375C111.44 450.322 108.136 446.843 101.252 446.242C94.3682 445.642 90.5134 448.495 87.109 450.998C83.8299 453.425 80.751 455.703 74.9937 455.177C69.2113 454.677 66.583 451.899 63.7545 448.945C62.7281 447.869 61.6267 446.743 60.3501 445.692L54.5428 445.692C57.6718 446.843 59.6242 448.87 61.6267 450.998Z" fill="#F6AC1B"/>
<path d="M24.0765 550.331C25.9539 546.552 28.0816 542.247 26.3044 535.564C24.5271 528.882 20.522 526.228 16.9926 523.901C13.6133 521.648 10.4092 519.521 8.90727 513.939C7.40537 508.333 9.10752 504.904 10.9348 501.25C12.8122 497.471 14.94 493.166 13.1627 486.483C11.3604 479.8 7.38036 477.147 3.85089 474.795C2.52421 473.919 1.22251 473.043 0.0460167 471.991L0.0460167 475.771C0.771936 476.296 1.4979 476.797 2.19879 477.272C5.57807 479.525 8.78208 481.653 10.284 487.259C11.7859 492.865 10.0837 496.294 8.25642 499.948C6.37904 503.728 4.25139 508.033 6.02864 514.715C7.80589 521.398 11.811 524.051 15.3404 526.379C18.7197 528.631 21.9237 530.759 23.4257 536.34C24.9276 541.921 23.2254 545.375 21.3981 549.005C19.5207 552.784 17.393 557.089 19.1703 563.771C19.6459 565.598 20.3217 567.075 21.0727 568.377C22.124 568.201 23.1754 568.026 24.2267 567.826C23.3255 566.55 22.5746 564.998 22.0239 563.021C20.572 557.414 22.2742 553.985 24.0765 550.331Z" fill="#F6AC1B"/>
<path d="M109.891 472.998C107.538 469.469 104.885 465.464 98.2262 463.687C91.5427 461.91 87.2623 464.038 83.4575 465.915C79.8279 467.717 76.3735 469.444 70.7914 467.942C65.1843 466.441 63.0816 463.237 60.8288 459.858C58.4758 456.329 55.8224 452.324 49.164 450.547C42.4805 448.77 38.1751 450.898 34.3953 452.775C30.7406 454.577 27.3113 456.279 21.7042 454.777C19.5264 454.202 17.8994 453.351 16.5727 452.349C16.1972 453.275 15.7216 454.177 15.196 455.002C16.7229 456.079 18.5752 457.005 20.9532 457.63C27.6367 459.433 31.9422 457.28 35.7219 455.403C39.3766 453.601 42.8059 451.874 48.4131 453.376C54.0202 454.877 56.1478 458.081 58.4007 461.46C60.7537 464.989 63.407 468.993 70.0655 470.77C76.749 472.548 81.0294 470.42 84.8342 468.543C88.4888 466.741 91.9182 465.039 97.5003 466.516C103.107 468.017 105.21 471.221 107.463 474.6C109.741 478.029 112.344 481.908 118.652 483.76C118.952 482.834 119.228 481.883 119.503 480.932C114.171 479.405 112.069 476.302 109.891 472.998Z" fill="#F6AC1B"/>
<path d="M77.3449 523.162C77.0696 518.932 76.7692 514.152 71.888 509.271C67.0068 504.391 62.2257 504.09 57.9954 503.815C53.9402 503.565 50.1104 503.314 46.0052 499.235C41.9 495.13 41.6747 491.301 41.3994 487.246C41.124 483.016 40.8236 478.236 35.9424 473.355C31.0612 468.474 26.2551 468.174 22.0248 467.899C17.9696 467.649 14.1148 467.398 10.0346 463.294C9.3838 462.643 8.83306 461.992 8.35746 461.341C7.45631 461.817 6.53015 462.217 5.55392 462.543C6.20474 463.494 6.98068 464.445 7.93188 465.396C12.8131 470.277 17.6192 470.602 21.8496 470.852C25.9047 471.102 29.7596 471.353 33.8398 475.457C37.945 479.562 38.1703 483.392 38.4206 487.446C38.696 491.676 38.9963 496.456 43.8775 501.337C48.7587 506.218 53.5397 506.518 57.7701 506.793C61.8252 507.044 65.6551 507.294 69.7603 511.374C73.8655 515.478 74.0908 519.308 74.3411 523.362C74.6164 527.592 74.9169 532.373 79.7981 537.253C80.5741 538.029 81.3751 538.68 82.1511 539.23C82.902 538.555 83.678 537.904 84.429 537.203C83.6029 536.652 82.7518 536.002 81.9007 535.151C77.8456 531.071 77.5952 527.217 77.3449 523.162Z" fill="#F6AC1B"/>
<path d="M24.1051 453.701C30.9888 454.327 34.8687 451.448 38.273 448.945C39.9752 447.694 41.6022 446.493 43.6047 445.692L37.7223 445.692C37.3218 445.992 36.9213 446.267 36.5208 446.568C33.2416 448.97 30.1627 451.273 24.3804 450.747C21.4517 450.497 19.324 449.646 17.5717 448.495C17.3965 449.521 17.1462 450.497 16.8208 451.448C18.7232 452.575 21.0262 453.425 24.1051 453.701Z" fill="#F6AC1B"/>
<path d="M91.0643 508.442C90.0631 504.337 88.9366 499.657 83.2794 495.702C77.6222 491.748 72.8662 492.273 68.6358 492.749C64.6057 493.199 60.7759 493.625 56.0449 490.321C51.2888 486.992 50.3877 483.263 49.4365 479.308C48.4353 475.204 47.3088 470.523 41.6516 466.569C35.9945 462.589 31.2385 463.14 27.0081 463.616C22.978 464.066 19.1481 464.492 14.3921 461.163C13.3658 460.437 12.5398 459.711 11.8138 458.96C11.0629 459.611 10.2869 460.237 9.46085 460.762C10.337 461.738 11.3883 462.689 12.69 463.616C18.3471 467.595 23.1281 467.044 27.3335 466.569C31.3886 466.118 35.1935 465.693 39.9495 469.022C44.7055 472.351 45.6067 476.08 46.5579 480.034C47.5592 484.139 48.6856 488.819 54.3427 492.774C59.9999 496.728 64.756 496.228 68.9863 495.727C73.0164 495.277 76.8463 494.851 81.5773 498.155C86.3333 501.484 87.2345 505.213 88.1857 509.168C89.187 513.272 90.3134 517.953 95.9705 521.907C96.5463 522.308 97.122 522.658 97.6977 522.958C98.3235 522.183 98.9493 521.407 99.55 520.606C98.9493 520.28 98.3235 519.93 97.6977 519.479C92.9417 516.126 92.0155 512.396 91.0643 508.442Z" fill="#F6AC1B"/>
<path d="M63.7074 547.883C60.3781 543.152 60.8038 539.323 61.2794 535.268C61.755 531.063 62.2806 526.283 58.3256 520.626C54.3705 514.97 49.6896 513.844 45.5844 512.843C41.6294 511.891 37.8997 510.99 34.5705 506.235C31.2412 501.48 31.6668 497.675 32.1424 493.621C32.618 489.416 33.1437 484.66 29.1887 478.979C25.2086 473.322 20.5527 472.171 16.4475 471.195C12.4925 470.244 8.7627 469.318 5.43348 464.587C5.00794 463.987 4.68257 463.411 4.38219 462.86C3.38092 463.111 2.35459 463.236 1.30325 463.311C1.75383 464.287 2.30453 465.263 3.03045 466.289C7.0105 471.946 11.6664 473.072 15.7716 474.073C19.7266 475.024 23.4563 475.95 26.7855 480.681C30.1148 485.436 29.6892 489.241 29.2136 493.295C28.738 497.5 28.2124 502.28 32.1674 507.937C36.1225 513.593 40.7783 514.72 44.9086 515.721C48.8636 516.672 52.5933 517.573 55.9225 522.328C59.2518 527.059 58.8262 530.888 58.3506 534.918C57.875 539.123 57.3493 543.903 61.3043 549.559C62.1554 550.761 63.0316 551.712 63.9077 552.563C64.7838 552.037 65.6599 551.487 66.511 550.936C65.5598 550.16 64.6085 549.184 63.7074 547.883Z" fill="#F6AC1B"/>
<path d="M4.42487 488.036C3.99933 483.206 2.17201 480.152 0.0443168 477.75L0.0443168 482.93C0.770237 484.382 1.27089 486.134 1.47114 488.287C1.77153 491.64 1.09565 494.068 0.044317 496.171L0.0443171 501.677C2.44736 498.398 5.0006 494.569 4.42487 488.036Z" fill="#F6AC1B"/>
<path d="M125.885 409.722L125.885 421.604C138.999 421.604 149.656 432.234 149.656 445.37L161.542 445.37C161.517 425.691 145.569 409.722 125.885 409.722Z" fill="#F6AC1B"/>
<path d="M125.884 421.612L125.884 433.495C132.454 433.495 137.77 438.809 137.77 445.377L149.656 445.377C149.63 432.241 138.998 421.612 125.884 421.612Z" fill="#6BC9C6"/>
<path d="M125.883 433.492L125.883 445.375L137.769 445.375C137.769 438.807 132.453 433.492 125.883 433.492Z" fill="#C31632"/>
<path d="M82.0222 406.062C79.2875 407.969 75.9757 409.097 72.388 409.097C68.8504 409.097 65.5888 408.019 62.8791 406.163C60.5208 428.285 41.8042 445.541 19.0482 445.541C19.0482 422.792 36.2845 404.081 58.4383 401.723C56.5817 399.014 55.5029 395.754 55.5029 392.217C55.5029 388.631 56.6319 385.32 58.5387 382.586C36.3598 380.278 19.0482 361.542 19.0482 338.743H18.8977V445.692H125.878V445.541C103.072 445.541 84.3304 428.235 82.0222 406.062Z" fill="#6BC9C6"/>
<path d="M62.9021 378.246C65.6118 376.415 68.8734 375.337 72.3859 375.337C75.9736 375.337 79.2854 376.465 81.995 378.372C84.228 356.124 103.02 338.767 125.851 338.767H19.0461C41.8523 338.742 60.619 356.049 62.9021 378.246Z" fill="#6BC9C6"/>
<path d="M86.2415 382.611C88.1482 385.345 89.2773 388.656 89.2773 392.217C89.2773 395.729 88.1984 398.989 86.3669 401.698C108.571 403.981 125.882 422.742 125.882 445.541V338.743C125.882 361.592 108.496 380.354 86.2415 382.611Z" fill="#6BC9C6"/>
<path d="M86.3606 401.698C88.1921 398.989 89.2709 395.729 89.2709 392.217C89.2709 388.631 88.1419 385.32 86.2351 382.611C108.489 380.379 125.851 361.592 125.851 338.768C102.995 338.768 84.228 356.125 81.995 378.372C79.2603 376.466 75.9485 375.337 72.3859 375.337C68.8734 375.337 65.6118 376.416 62.9021 378.247C60.619 356.049 41.8523 338.743 19.0461 338.743C19.0461 361.542 36.3577 380.278 58.5366 382.586C56.6298 385.32 55.5008 388.631 55.5008 392.217C55.5008 395.754 56.5796 399.014 58.4362 401.723C36.3075 404.081 19.0461 422.792 19.0461 445.541C41.8021 445.541 60.5187 428.31 62.877 406.163C65.5867 408.019 68.8483 409.097 72.3859 409.097C75.9736 409.097 79.2854 407.969 82.0201 406.062C84.3283 428.235 103.07 445.541 125.876 445.541C125.876 422.742 108.565 403.981 86.3606 401.698Z" fill="black"/>
<path d="M18.679 231.941V258.641L72.0957 231.941H18.679Z" fill="#C31632"/>
<path d="M18.679 338.743H72.0957L18.679 312.043V338.743Z" fill="#C31632"/>
<path d="M125.51 338.743V312.043L72.093 338.743H125.51Z" fill="#C31632"/>
<path d="M72.093 231.941L125.51 258.641V231.941H72.093Z" fill="#C31632"/>
<path d="M28.5774 264.753V305.93L72.0975 327.696L115.618 305.93V264.753L72.0975 242.987L28.5774 264.753ZM74.1269 281.434C74.2522 281.509 74.3525 281.584 74.4777 281.66C88.9594 261.171 101.462 282.812 76.5322 285.116C76.5322 285.191 76.5823 285.241 76.5823 285.316C76.5823 285.392 76.5322 285.442 76.5322 285.517C101.487 287.821 88.9594 309.461 74.4777 288.973C74.3525 289.048 74.2522 289.149 74.1269 289.199C84.5998 311.966 59.6203 311.966 70.0932 289.199C69.9679 289.123 69.8676 289.048 69.7424 288.973C55.2607 309.461 42.7584 287.821 67.6879 285.517C67.6879 285.442 67.6378 285.392 67.6378 285.316C67.6378 285.241 67.6879 285.191 67.6879 285.116C42.7334 282.812 55.2607 261.146 69.7424 281.66C69.8676 281.584 69.9679 281.484 70.0932 281.434C59.6203 258.667 84.5998 258.667 74.1269 281.434Z" fill="#F6AC1B"/>
<path d="M18.679 258.641V312.04L72.0957 338.74L125.512 312.04V258.641L72.0957 231.941L18.679 258.641ZM115.641 305.929L72.1207 327.695L28.6006 305.929V264.752L72.1207 242.987L115.641 264.752V305.929Z" fill="white"/>
<path d="M70.0911 281.435C70.6924 281.109 71.3688 280.884 72.0954 280.884C72.822 280.884 73.4985 281.109 74.0998 281.435C84.5978 258.667 59.6182 258.667 70.0911 281.435Z" fill="#C31632"/>
<path d="M69.7379 281.658C55.2563 261.17 42.754 282.81 67.6835 285.114C67.7587 283.637 68.5603 282.409 69.7379 281.658Z" fill="#C31632"/>
<path d="M67.6903 285.541C42.7357 287.845 55.263 309.486 69.7447 288.998C68.5671 288.246 67.7654 287.019 67.6903 285.541Z" fill="#C31632"/>
<path d="M76.5303 285.114C101.485 282.81 88.9575 261.144 74.4758 281.658C75.6283 282.409 76.4552 283.636 76.5303 285.114Z" fill="#C31632"/>
<path d="M74.4758 289.024C88.9575 309.512 101.46 287.872 76.5303 285.568C76.4552 287.02 75.6283 288.248 74.4758 289.024Z" fill="#C31632"/>
<path d="M70.0909 289.245C59.618 312.013 84.5976 312.013 74.1247 289.245C73.5234 289.571 72.8469 289.796 72.1203 289.796C71.3938 289.796 70.6922 289.571 70.0909 289.245Z" fill="#C31632"/>
<path d="M70.0914 281.434C69.9661 281.509 69.8659 281.585 69.7406 281.66C68.563 282.411 67.7613 283.638 67.6861 285.116C67.6861 285.191 67.636 285.241 67.636 285.317C67.636 285.392 67.6861 285.442 67.6861 285.517C67.7613 286.995 68.563 288.222 69.7406 288.973C69.8659 289.048 69.9661 289.149 70.0914 289.199C70.6927 289.524 71.3691 289.75 72.0957 289.75C72.8223 289.75 73.4988 289.524 74.1002 289.199C74.2254 289.124 74.3256 289.048 74.4509 288.973C75.6285 288.222 76.4302 286.995 76.5054 285.517C76.5054 285.442 76.5555 285.392 76.5555 285.317C76.5555 285.241 76.5054 285.191 76.5054 285.116C76.4302 283.638 75.6285 282.411 74.4509 281.66C74.3256 281.585 74.2254 281.484 74.1002 281.434C73.4988 281.109 72.8223 280.883 72.0957 280.883C71.3691 280.883 70.6927 281.109 70.0914 281.434Z" fill="white"/>
<path d="M107.731 61.2484C104.78 56.3245 101.48 51.6256 97.8799 47.1766L22.3743 110.512L107.731 61.2484Z" fill="black"/>
<path d="M116.958 80.1474C114.883 74.7986 112.458 69.6248 109.683 64.6509L24.6516 113.74L116.958 80.1474Z" fill="black"/>
<path d="M95.3539 44.1301C91.6036 39.756 87.5533 35.6569 83.228 31.8578L19.5732 107.691L95.3539 44.1301Z" fill="black"/>
<path d="M125.279 121.163C125.104 115.389 124.529 109.741 123.604 104.192L27.3469 121.163H125.279Z" fill="black"/>
<path d="M122.912 100.315C121.762 94.6663 120.237 89.1926 118.362 83.8688L26.3547 117.361L122.912 100.315Z" fill="black"/>
<path d="M80.2282 29.2847C75.7779 25.6105 71.0526 22.2362 66.1272 19.1869L16.3235 105.443L80.2282 29.2847Z" fill="black"/>
<path d="M22.5482 2.66386C16.8228 1.66408 10.9474 1.06421 4.97192 0.864258V102.367L22.5482 2.66386Z" fill="black"/>
<path d="M62.7296 17.1859C57.7042 14.3116 52.4538 11.7621 47.0034 9.61255L12.7258 103.767L62.7296 17.1859Z" fill="black"/>
<path d="M43.3253 8.16444C37.8499 6.18988 32.2244 4.5902 26.424 3.36548L8.89771 102.718L43.3253 8.16444Z" fill="black"/>
<path d="M125.284 121.163H27.3512L123.608 104.192C123.383 102.892 123.183 101.593 122.908 100.318L26.3261 117.339L118.333 83.8465C117.883 82.5968 117.433 81.372 116.958 80.1473L24.651 113.74L109.682 64.6508C109.032 63.5011 108.382 62.3513 107.707 61.2266L22.3508 110.491L97.8565 47.1547C97.0314 46.13 96.1814 45.1302 95.3313 44.1304L19.5506 107.691L83.2054 31.8582C82.2303 30.9833 81.2302 30.1085 80.2302 29.2837L16.3004 105.442L66.1041 19.186C64.979 18.4861 63.854 17.8363 62.7039 17.1864L12.7001 103.767L46.9777 9.61306C45.7526 9.13817 44.5275 8.63834 43.3024 8.18844L8.87484 102.742L26.4012 3.38948C25.1261 3.11454 23.826 2.91459 22.5259 2.68964L4.94955 102.392V0.890038C3.62445 0.840049 2.32437 0.790039 0.999268 0.790039V107.366C10.8 107.366 18.7756 115.314 18.7756 125.137H125.384C125.384 123.788 125.334 122.488 125.284 121.163Z" fill="white"/>
<path d="M18.679 231.938H37.019L18.679 213.603V231.938Z" fill="#C31632"/>
<path d="M18.679 125.138V143.472L37.019 125.138H18.679Z" fill="#C31632"/>
<path d="M107.495 125.138L125.51 143.146V125.138H107.495Z" fill="#C31632"/>
<path d="M125.51 231.939V213.931L107.495 231.939H125.51Z" fill="#C31632"/>
<path d="M37.019 125.138L18.679 143.472V160.729L54.3067 125.138H37.019Z" fill="#6BC9C6"/>
<path d="M18.679 213.606L37.019 231.941H54.3067L18.679 196.349V213.606Z" fill="#6BC9C6"/>
<path d="M89.9094 125.138L125.512 160.729V143.146L107.498 125.138H89.9094Z" fill="#6BC9C6"/>
<path d="M107.498 231.941L125.512 213.932V196.349L89.9094 231.941H107.498Z" fill="#6BC9C6"/>
<path d="M54.3067 125.138L18.679 160.729V178.538L72.0956 125.138H54.3067Z" fill="#C31632"/>
<path d="M18.679 196.346L54.3067 231.938H72.0956L18.679 178.538V196.346Z" fill="#C31632"/>
<path d="M72.093 125.138L125.51 178.538V160.729L89.9069 125.138H72.093Z" fill="#C31632"/>
<path d="M89.9069 231.938L125.51 196.346V178.538L72.093 231.938H89.9069Z" fill="#C31632"/>
<path d="M18.679 178.538L72.0956 231.938L125.512 178.538L72.0956 125.138L18.679 178.538ZM72.0956 214.129L36.4928 178.538L72.0956 142.946L107.698 178.538L72.0956 214.129Z" fill="#6BC9C6"/>
<path d="M72.0815 142.95L36.4719 178.549L72.0815 214.147L107.691 178.549L72.0815 142.95Z" fill="#F6AC1B"/>
<path d="M150.695 135.56C144.255 129.121 135.334 125.138 125.511 125.138C130.422 125.138 135.334 137.013 125.511 160.738C135.334 136.988 147.211 132.077 150.695 135.56Z" fill="black"/>
<path d="M161.12 160.743C161.12 150.922 157.136 142.003 150.696 135.564C154.179 139.047 149.268 150.922 125.512 160.743C149.243 150.897 161.12 155.832 161.12 160.743Z" fill="black"/>
<path d="M125.512 125.138L125.512 160.738C135.335 136.988 130.423 125.138 125.512 125.138Z" fill="white"/>
<path d="M125.512 160.734L161.12 160.734C161.12 155.824 149.243 150.888 125.512 160.734Z" fill="white"/>
<path d="M150.699 135.56C147.216 132.077 135.339 136.988 125.516 160.738C149.246 150.892 154.183 139.042 150.699 135.56Z" fill="white"/>
</svg>
