<svg width="373" height="373" viewBox="0 0 373 373" fill="none" xmlns="http://www.w3.org/2000/svg">
<path d="M265.521 195.19L253.681 195.19C253.681 208.253 243.09 218.869 230.002 218.869L230.002 230.709C249.609 230.684 265.521 214.798 265.521 195.19Z" fill="black"/>
<path d="M253.68 195.188L241.84 195.188C241.84 201.732 236.545 207.028 230 207.028L230 218.867C243.089 218.843 253.68 208.252 253.68 195.188Z" fill="#6BC9C6"/>
<path d="M241.84 195.188L230.001 195.188L230.001 207.028C236.545 207.028 241.84 201.733 241.84 195.188Z" fill="#C31632"/>
<path d="M124 230.92H142.284L124 212.636V230.92Z" fill="#F6AC1B"/>
<path d="M124 124.413V142.697L142.284 124.413H124Z" fill="#F6AC1B"/>
<path d="M212.549 124.413L230.508 142.373V124.413H212.549Z" fill="#F6AC1B"/>
<path d="M230.508 230.922V212.963L212.549 230.922H230.508Z" fill="#F6AC1B"/>
<path d="M142.284 124.413L124 142.697V159.907L159.519 124.413H142.284Z" fill="#C31632"/>
<path d="M124 212.638L142.284 230.922H159.519L124 195.428V212.638Z" fill="#C31632"/>
<path d="M195.014 124.413L230.508 159.907V142.373L212.549 124.413H195.014Z" fill="#C31632"/>
<path d="M212.549 230.922L230.508 212.963V195.428L195.014 230.922H212.549Z" fill="#C31632"/>
<path d="M159.519 124.413L124 159.907V177.667L177.253 124.413H159.519Z" fill="#F6AC1B"/>
<path d="M124 195.427L159.519 230.921H177.253L124 177.668V195.427Z" fill="#F6AC1B"/>
<path d="M177.254 124.413L230.508 177.667V159.907L195.014 124.413H177.254Z" fill="#F6AC1B"/>
<path d="M195.014 230.921L230.508 195.427V177.668L177.254 230.921H195.014Z" fill="#F6AC1B"/>
<path d="M124 177.667L177.253 230.92L230.507 177.667L177.253 124.413L124 177.667ZM177.253 213.161L141.759 177.667L177.253 142.173L212.747 177.667L177.253 213.161Z" fill="#C31632"/>
<path d="M177.242 142.176L141.741 177.677L177.242 213.178L212.743 177.677L177.242 142.176Z" fill="#6BC9C6"/>
<path d="M96.1158 0.160156H81.4537L81.4787 10.4511L71.0628 10.4262L60.7968 0.160156H60.7468L71.0378 10.4511V25.1883L60.6219 35.6041H45.8848L35.4689 25.1883V10.4511L45.7599 0.160156H45.71L35.444 10.4262L25.0281 10.4511L25.0531 0.160156H10.4408L10.6906 0.409953L10.7156 10.8259L0.299725 10.8009L0 10.5011V25.1883L10.3659 25.1633L10.3409 35.5792H25.078L35.4939 45.995V60.7321L25.078 71.148H10.3659L10.3909 81.5639L0.0249644 81.5389V96.351L10.291 96.326L10.266 106.642H25.2279L25.2029 106.617L25.178 96.2011L35.4939 96.2261V81.5389L45.9098 71.123H60.6469L71.0628 81.5389V96.276L60.6969 106.642H60.7718L71.1877 96.2261L81.6036 96.2011L81.5786 106.617L81.5536 106.642H96.1908L96.1408 106.592L96.1158 96.1761L106.482 96.2011V81.5139L96.1408 81.5389L96.1658 71.123H81.4537L81.4787 81.5389L71.0628 81.5139L60.6219 71.0731L60.5969 60.6572L71.0128 60.6822V45.9451L81.4287 35.5292H96.1658L106.482 45.8452V45.8202L96.1658 35.5042L96.1408 25.0884L106.457 25.1134V10.4262L96.0659 10.4511L96.1158 0.160156ZM45.8848 71.123L35.444 81.5639L25.0281 81.5889L25.0531 71.173L35.4939 60.7321L45.9098 60.7072L45.8848 71.123ZM35.4939 46.02L25.0531 35.5792L25.0281 25.1633L35.444 25.1883L45.8848 35.6291L45.9098 46.045L35.4939 46.02ZM81.4537 35.5792L71.0128 46.02L60.5969 46.045L60.6219 35.6291L71.0628 25.1883L81.4787 25.1633L81.4537 35.5792Z" fill="black"/>
<path d="M35.4688 25.1633L45.8846 35.5792H60.6217L71.0376 25.1633V10.4511L60.7466 0.160156H45.7597L35.4688 10.4511V25.1633Z" fill="white"/>
<path d="M71.0376 81.5635L60.6217 71.1476H45.8846L35.4688 81.5635V96.2506H35.5686L45.9846 106.667H60.6467L71.0376 96.3006V81.5635Z" fill="white"/>
<path d="M35.4689 60.7296V45.9925L25.0531 35.5767H10.3409L0 45.9176V60.8045L10.3409 71.1455H25.0531L35.4689 60.7296Z" fill="white"/>
<path d="M81.4564 35.5767L71.0405 45.9925V60.7296L81.4564 71.1455H96.1685L106.484 60.8295V45.8926L96.1685 35.5767H81.4564Z" fill="white"/>
<path d="M71.037 60.7306L60.6211 60.7057L60.6461 71.1215L71.0619 81.5624H81.4778L81.4528 71.1465L71.037 60.7306Z" fill="#F6AC1B"/>
<path d="M45.8335 106.664L45.8835 106.714H60.6206L60.6455 106.664H45.8335Z" fill="#F6AC1B"/>
<path d="M35.4686 25.187L25.0527 25.162L25.0777 35.5779L35.4936 46.0187H45.9095L45.8845 35.6028L35.4686 25.187Z" fill="#F6AC1B"/>
<path d="M10.6906 10.8259V0.409953L10.4408 0.160156H0V10.5011L0.299725 10.8009L10.6906 10.8259Z" fill="#F6AC1B"/>
<path d="M25.0499 71.1465L25.0249 81.5624H35.4408L45.8816 71.1215V60.7057L35.4657 60.7306L25.0499 71.1465Z" fill="#F6AC1B"/>
<path d="M10.241 96.373H0V106.664H10.241V96.373Z" fill="#F6AC1B"/>
<path d="M60.6217 35.6028L60.5967 46.0187H71.0126L81.4534 35.5779V25.162L71.0625 25.187L60.6217 35.6028Z" fill="#F6AC1B"/>
<path d="M96.137 0.147152L96.1196 10.5131L106.511 10.5304L106.528 0.164526L96.137 0.147152Z" fill="#F6AC1B"/>
<path d="M96.1426 106.613L96.1926 106.663H106.484V96.2217L96.1177 96.1967L96.1426 106.613Z" fill="#F6AC1B"/>
<path d="M96.1915 35.5779L106.482 45.8938V25.187L96.1665 25.162L96.1915 35.5779Z" fill="#F6AC1B"/>
<path d="M96.1401 81.5611H106.481V60.8293L96.1651 71.1453L96.1401 81.5611Z" fill="#F6AC1B"/>
<path d="M35.4408 10.4262L45.7068 0.160156H25.0499L25.0249 10.4511L35.4408 10.4262Z" fill="#F6AC1B"/>
<path d="M81.4773 10.4511L81.4523 0.160156H60.7954L71.0614 10.4262L81.4773 10.4511Z" fill="#F6AC1B"/>
<path d="M10.3409 25.162L0 25.187V45.9188L10.3159 35.5779L10.3409 25.162Z" fill="#F6AC1B"/>
<path d="M10.3409 71.143L0 60.802V81.5588H10.3659L10.3409 71.143Z" fill="#F6AC1B"/>
<path d="M35.4703 96.2508L25.1543 96.2258L25.1793 106.642V106.667H45.8362L35.4703 96.3008V96.2508Z" fill="#F6AC1B"/>
<path d="M81.5553 96.2258L71.1644 96.2508L60.7485 106.667H81.5304L81.5553 106.642V96.2258Z" fill="#F6AC1B"/>
<path d="M212.63 60.568C209.682 55.6473 206.385 50.9515 202.788 46.5054L127.354 109.8L212.63 60.568Z" fill="#C31632"/>
<path d="M221.849 79.452C219.775 74.1067 217.353 68.9362 214.58 63.9656L129.629 113.023L221.849 79.452Z" fill="#C31632"/>
<path d="M200.267 43.4574C196.521 39.0863 192.474 34.9899 188.153 31.1932L124.559 106.977L200.267 43.4574Z" fill="#C31632"/>
<path d="M230.166 120.442C229.991 114.672 229.416 109.027 228.492 103.482L132.326 120.442H230.166Z" fill="#C31632"/>
<path d="M227.792 99.6078C226.643 93.9627 225.12 88.4925 223.246 83.1722L131.327 116.643L227.792 99.6078Z" fill="#C31632"/>
<path d="M185.155 28.6235C180.709 24.9517 175.988 21.5797 171.067 18.5323L121.311 104.732L185.155 28.6235Z" fill="#C31632"/>
<path d="M127.532 2.02011C121.812 1.02098 115.942 0.421505 109.972 0.22168V101.658L127.532 2.02011Z" fill="#C31632"/>
<path d="M167.672 16.5329C162.651 13.6604 157.406 11.1126 151.96 8.96448L117.715 103.057L167.672 16.5329Z" fill="#C31632"/>
<path d="M148.286 7.51623C142.816 5.54296 137.196 3.94433 131.401 2.7204L113.892 102.008L148.286 7.51623Z" fill="#C31632"/>
<path d="M230.166 120.442H132.327L228.493 103.482C228.268 102.183 228.068 100.884 227.793 99.6101L131.303 116.62L223.222 83.1495C222.773 81.9006 222.323 80.6767 221.849 79.4527L129.629 113.023L214.58 63.9663C213.93 62.8173 213.281 61.6684 212.607 60.5443L127.331 109.776L202.765 46.4816C201.941 45.4575 201.092 44.4584 200.242 43.4593L124.534 106.979L188.128 31.195C187.154 30.3208 186.155 29.4466 185.156 28.6223L121.287 104.731L171.043 18.5311C169.919 17.8317 168.795 17.1823 167.646 16.5329L117.69 103.057L151.935 8.96443C150.711 8.48985 149.487 7.99034 148.263 7.54074L113.868 102.033L131.378 2.7449C130.104 2.47014 128.805 2.27032 127.506 2.04552L109.947 101.683V0.24709C108.623 0.197133 107.324 0.147156 106 0.147156V106.654C115.791 106.654 123.759 114.597 123.759 124.413H230.266C230.266 123.065 230.216 121.766 230.166 120.442Z" fill="black"/>
<path d="M248.27 248.922V355.201C258.04 355.201 265.991 363.127 265.991 372.922H372.27C372.245 304.454 316.738 248.922 248.27 248.922Z" fill="#F6AC1B"/>
<path d="M248.252 294.265L248.252 286.809C217.395 286.809 192.366 261.78 192.366 230.922L184.91 230.922C184.91 265.858 213.317 294.265 248.252 294.265Z" fill="#C31632"/>
<path d="M248.252 260.082L248.252 252.626C236.281 252.626 226.549 242.894 226.549 230.922L219.093 230.922C219.11 247.007 232.167 260.082 248.252 260.082Z" fill="#C31632"/>
<path d="M248.253 271.476L248.253 264.02C229.997 264.02 215.155 249.195 215.155 230.922L207.699 230.922C207.716 253.291 225.884 271.476 248.253 271.476Z" fill="#C31632"/>
<path d="M248.253 282.87L248.253 275.414C223.696 275.414 203.76 255.479 203.76 230.922L196.304 230.922C196.304 259.574 219.6 282.87 248.253 282.87Z" fill="#C31632"/>
<path d="M248.253 305.659L248.253 298.203C211.112 298.203 180.972 268.063 180.972 230.922L173.516 230.922C173.516 272.141 207.034 305.659 248.253 305.659Z" fill="#C31632"/>
<path d="M248.253 339.859L248.253 332.403C192.209 332.403 146.789 286.966 146.789 230.939L139.333 230.939C139.333 290.991 188.2 339.859 248.253 339.859Z" fill="#C31632"/>
<path d="M248.252 351.254L248.252 343.798C185.925 343.798 135.377 293.267 135.377 230.922L127.92 230.922C127.938 297.275 181.917 351.254 248.252 351.254Z" fill="#C31632"/>
<path d="M248.252 317.053L248.252 309.597C204.81 309.597 169.577 274.364 169.577 230.922L162.121 230.922C162.121 278.425 200.75 317.053 248.252 317.053Z" fill="#C31632"/>
<path d="M248.253 328.448L248.253 320.992C198.51 320.992 158.183 280.665 158.183 230.922L150.727 230.922C150.727 284.708 194.467 328.448 248.253 328.448Z" fill="#C31632"/>
<path d="M127.938 230.922L124 230.922C124 235.21 124.21 239.446 124.648 243.629C125.278 249.895 126.38 256.021 127.921 261.972C129.461 267.923 131.421 273.716 133.767 279.282C136.129 284.866 138.877 290.222 141.993 295.35C144.076 298.763 146.299 302.071 148.696 305.257C171.363 335.554 207.523 355.175 248.27 355.175L248.27 351.236C181.917 351.254 127.938 297.275 127.938 230.922Z" fill="#6BC9C6"/>
<path d="M139.333 230.922L135.395 230.922C135.395 293.25 185.925 343.798 248.27 343.798L248.27 339.86C188.2 339.86 139.333 290.992 139.333 230.922Z" fill="#6BC9C6"/>
<path d="M150.727 230.922L146.789 230.922C146.789 286.966 192.226 332.386 248.252 332.386L248.252 328.448C194.466 328.448 150.727 284.708 150.727 230.922Z" fill="#6BC9C6"/>
<path d="M162.121 230.922L158.183 230.922C158.183 280.665 198.51 320.992 248.253 320.992L248.253 317.053C200.75 317.053 162.121 278.425 162.121 230.922Z" fill="#6BC9C6"/>
<path d="M173.516 230.922L169.578 230.922C169.578 274.364 204.811 309.597 248.253 309.597L248.253 305.659C207.034 305.659 173.516 272.141 173.516 230.922Z" fill="#6BC9C6"/>
<path d="M184.91 230.922L180.972 230.922C180.972 268.063 211.112 298.203 248.252 298.203L248.252 294.265C213.317 294.265 184.91 265.858 184.91 230.922Z" fill="#6BC9C6"/>
<path d="M196.304 230.922L192.366 230.922C192.366 261.78 217.395 286.809 248.253 286.809L248.253 282.87C219.601 282.87 196.304 259.574 196.304 230.922Z" fill="#6BC9C6"/>
<path d="M207.716 230.922L203.778 230.922C203.778 255.479 223.714 275.414 248.27 275.414L248.27 271.476C225.884 271.476 207.716 253.291 207.716 230.922Z" fill="#6BC9C6"/>
<path d="M219.11 230.922L215.172 230.922C215.172 249.178 229.997 264.02 248.27 264.02L248.27 260.082C232.167 260.082 219.11 247.007 219.11 230.922Z" fill="#6BC9C6"/>
<path d="M230.505 230.922L226.566 230.922C226.566 242.894 236.298 252.626 248.27 252.626L248.27 248.687C238.451 248.687 230.505 240.741 230.505 230.922Z" fill="#6BC9C6"/>
</svg>
