<svg width="500" height="457" viewBox="0 0 500 457" fill="none" xmlns="http://www.w3.org/2000/svg">
<path d="M462.215 213.611C483.012 192.815 483.012 159.097 462.215 138.3C441.419 117.503 407.701 117.503 386.904 138.3C366.107 159.097 366.107 192.815 386.904 213.611C407.701 234.408 441.419 234.408 462.215 213.611Z" fill="#C31632"/>
<path d="M386.904 138.3L349.248 175.956L386.904 213.611C412.673 187.842 412.673 164.069 386.904 138.3Z" fill="#6BC9C6"/>
<path d="M462.217 213.611L499.873 175.956L462.217 138.3C436.448 164.069 436.448 187.842 462.217 213.611Z" fill="#6BC9C6"/>
<path d="M386.905 213.612L424.561 251.268L462.217 213.612C436.448 187.843 412.674 187.843 386.905 213.612Z" fill="#6BC9C6"/>
<path d="M386.905 138.299C412.674 164.068 436.448 164.068 462.217 138.299L424.561 100.643L386.905 138.299Z" fill="#6BC9C6"/>
<path d="M110.302 244.412L307.142 154.727L317.55 177.571L120.71 267.256L110.302 244.412Z" fill="black"/>
<path d="M87.7763 254.673L110.006 244.545L110.436 244.705L120.71 267.254C116.391 269.221 111.73 269.835 107.337 269.229C105.433 269.026 103.549 268.567 101.762 267.899C95.8069 265.672 90.7279 261.151 87.911 254.969L87.7763 254.673Z" fill="#6BC9C6"/>
<path d="M95.1843 161.35L117.915 169.851C117.689 171.463 117.275 173.024 116.693 174.579L99.4936 220.569L84.9636 188.679L95.1843 161.35Z" fill="black"/>
<path d="M47.8652 167.019L48.1483 166.918C59.0092 162.079 71.5294 165.762 78.2354 175.058L56.0964 185.145L47.8424 167.03L47.8652 167.019Z" fill="#6BC9C6"/>
<path d="M39.2214 192.807C34.2435 195.075 28.7532 195.133 24.0218 193.364C19.2243 191.57 15.1858 187.948 12.8847 182.957L47.8662 167.019L56.1202 185.135L39.2214 192.807Z" fill="white"/>
<path d="M102.163 142.689C113.445 146.909 119.781 158.405 117.914 169.851L95.1839 161.35L102.163 142.689Z" fill="#6BC9C6"/>
<path d="M72.1549 152.738C67.0265 150.82 63.1512 147.014 61.0509 142.344C58.9155 137.717 58.5881 132.24 60.506 127.111L102.162 142.69L95.183 161.35L72.1549 152.738Z" fill="#F6AC1B"/>
<path d="M79.0121 231.822L79.0124 231.823L88.529 252.71L108.348 243.68L98.128 221.191L79.3209 179.913C78.8435 178.866 78.3196 177.897 77.7289 176.962L58.1149 185.899L79.0121 231.822Z" fill="#C31632" stroke="#F6AC1B" stroke-width="3"/>
<path d="M77.6469 232.446L87.9204 254.994C90.7373 261.177 95.8494 265.71 101.772 267.925L53.8959 250.02C52.3409 249.439 50.8581 248.714 49.4929 247.827L57.9936 225.096L77.6469 232.446Z" fill="#F6AC1B"/>
<path d="M57.9957 225.096L49.495 247.827C39.6765 241.76 35.1486 229.412 39.368 218.13L57.9957 225.096Z" fill="black"/>
<path d="M48.1639 194.605C53.3254 196.536 57.1986 200.398 59.3009 205.012C61.4033 209.626 61.7327 215.048 59.79 220.243L57.9711 225.106L39.3435 218.14L48.1639 194.605Z" fill="#6BC9C6"/>
<path d="M335.864 202.188L313.95 199.307L289.014 388.978L310.928 391.859L335.864 202.188Z" fill="#C31632" stroke="black" stroke-width="3"/>
<path d="M284.103 414.811L287.287 390.591L287.651 390.311L312.218 393.541C311.599 398.247 309.651 402.525 306.81 405.931C305.629 407.438 304.242 408.793 302.729 409.954C297.685 413.826 291.161 415.739 284.424 414.854L284.103 414.811Z" fill="#6BC9C6"/>
<path d="M208.871 359.095L228.121 344.318C229.369 345.364 230.474 346.542 231.485 347.859L261.382 386.808L226.637 382.24L208.871 359.095Z" fill="black"/>
<path d="M188.614 402.233L188.678 401.939C190.327 390.164 200.083 381.496 211.52 380.732L208.349 404.853L188.611 402.258L188.614 402.233Z" fill="#6BC9C6"/>
<path d="M205.909 423.225C205.196 428.648 202.338 433.336 198.331 436.412C194.268 439.531 189.056 441.037 183.604 440.346L188.615 402.232L208.353 404.827L205.909 423.225Z" fill="#F6AC1B"/>
<path d="M196.739 343.292C206.295 335.957 219.402 336.672 228.121 344.319L208.871 359.095L196.739 343.292Z" fill="#6BC9C6"/>
<path d="M189.368 374.067C185.025 377.401 179.744 378.672 174.67 377.979C169.615 377.34 164.795 374.716 161.461 370.373L196.74 343.293L208.871 359.097L189.368 374.067Z" fill="#F6AC1B"/>
<path d="M260.078 410.141L260.079 410.141L282.836 413.133L285.675 391.539L261.187 388.296L216.213 382.383C215.072 382.233 213.972 382.164 212.867 382.17L210.057 403.54L260.078 410.141Z" fill="#C31632" stroke="black" stroke-width="3"/>
<path d="M259.884 411.63L284.451 414.859C291.187 415.745 297.74 413.81 302.756 409.96L262.21 441.084C260.893 442.095 259.493 442.969 258.017 443.656L243.24 424.406L259.884 411.63Z" fill="#F6AC1B"/>
<path d="M243.241 424.404L258.017 443.655C247.671 448.769 234.799 446.069 227.465 436.514L243.241 424.404Z" fill="black"/>
<path d="M212.171 416.592C216.542 413.237 221.87 411.997 226.897 412.658C231.924 413.319 236.698 415.912 240.075 420.311L243.237 424.43L227.461 436.54L212.171 416.592Z" fill="#6BC9C6"/>
<path d="M286.73 37.6908C288.867 35.5537 292.064 34.7589 295.684 35.4831C298.298 36.0129 305.098 38.2913 313.152 48.1468C311.951 36.2778 314.459 28.5418 318.115 24.8857C321.259 21.7418 325.569 21.212 329.084 23.561C334.082 26.8992 337.049 35.2711 335.689 48.1115C336.979 46.5396 338.25 45.0913 339.557 43.7843C349.43 33.9111 357.961 33.6108 362.041 37.6908C366.121 41.7708 365.803 50.284 355.93 60.1572C354.623 61.4642 353.175 62.7712 351.585 64.0429C364.408 62.7006 372.798 65.6501 376.136 70.6485C378.485 74.1633 377.955 78.4728 374.811 81.6167C371.137 85.2904 363.401 87.7985 351.55 86.5798C361.406 94.6337 363.684 101.434 364.214 104.048C364.938 107.669 364.161 110.848 362.006 113.002L399.662 75.3466L324.35 0.0349625L286.712 37.6731L286.73 37.6908Z" fill="#6BC9C6"/>
<path d="M353.087 115.211C350.473 114.681 343.673 112.402 335.619 102.547C336.82 114.416 334.312 122.152 330.656 125.808C327.513 128.952 323.203 129.482 319.688 127.133C314.69 123.795 311.722 115.423 313.082 102.582C311.793 104.154 310.521 105.602 309.197 106.927C302.556 113.568 295.738 116.571 290.475 115.158C287.525 114.363 285.388 112.226 284.593 109.276C283.18 104.013 286.183 97.1953 292.824 90.5543C294.131 89.2473 295.579 87.9404 297.169 86.6687C284.346 88.011 275.957 85.0613 272.618 80.0629C270.269 76.5481 270.781 72.2562 273.943 69.0947C277.617 65.421 285.353 62.913 297.204 64.1317C287.349 56.0777 285.07 49.2778 284.54 46.6638C283.816 43.043 284.593 39.8638 286.748 37.709L249.092 75.3648L324.404 150.676L362.06 113.021C359.887 115.158 356.708 115.935 353.087 115.211Z" fill="#6BC9C6"/>
<path d="M326.187 79.9019C325.039 80.3435 323.785 80.3611 322.637 79.9195C309.249 115.738 321.1 130.204 328.077 123.227C332.775 118.494 335.23 104.064 326.187 79.9019ZM329.295 115.474C329.295 118.194 327.105 120.384 324.385 120.384C321.665 120.384 319.475 118.194 319.475 115.474C319.475 112.754 321.665 110.564 324.385 110.564C327.088 110.581 329.278 112.771 329.295 115.474Z" fill="#F6AC1B"/>
<path d="M319.83 73.5455C295.668 64.5024 281.238 66.9575 276.505 71.6556C269.51 78.6498 283.994 90.4834 319.812 77.0955C319.371 75.9474 319.371 74.6759 319.83 73.5455ZM289.151 75.3294C289.151 78.0494 286.961 80.2394 284.241 80.2394C281.521 80.2394 279.331 78.0493 279.331 75.3293C279.331 72.6093 281.521 70.4193 284.241 70.4193C286.943 70.4369 289.151 72.6447 289.151 75.3294Z" fill="#F6AC1B"/>
<path d="M306.6 104.296C311.669 99.2272 317.197 91.2969 322.425 79.8165C321.878 79.5869 321.365 79.2513 320.924 78.8098C320.482 78.3682 320.164 77.8383 319.917 77.3084C308.437 82.5365 300.506 88.0647 295.437 93.1338C279.824 108.712 291.022 119.874 306.6 104.296ZM292.523 100.252C294.448 98.3265 297.557 98.3266 299.482 100.252C301.407 102.177 301.407 105.285 299.482 107.211C297.557 109.136 294.448 109.136 292.523 107.211C290.598 105.285 290.598 102.177 292.523 100.252Z" fill="#F6AC1B"/>
<path d="M328.857 77.3054C328.627 77.8529 328.292 78.3652 327.85 78.8068C327.408 79.2483 326.879 79.5663 326.349 79.8135C339.613 108.974 354.838 115.014 359.448 110.404C364.058 105.795 357.999 90.5874 328.857 77.3054ZM356.233 107.19C354.308 109.115 351.199 109.115 349.274 107.19C347.349 105.265 347.349 102.156 349.274 100.231C351.199 98.3059 354.308 98.3059 356.233 100.231C358.158 102.156 358.158 105.265 356.233 107.19Z" fill="#F6AC1B"/>
<path d="M328.942 77.1464C353.104 86.1895 367.552 83.752 372.267 79.0362C379.262 72.042 364.779 60.2083 328.96 73.5963C329.384 74.7267 329.384 75.9984 328.942 77.1464ZM359.604 75.3449C359.604 72.6249 361.794 70.4347 364.514 70.4347C367.234 70.4347 369.424 72.6248 369.424 75.3448C369.424 78.0648 367.234 80.255 364.514 80.255C361.811 80.2373 359.621 78.0472 359.604 75.3449Z" fill="#F6AC1B"/>
<path d="M342.154 46.3814C337.084 51.4505 331.556 59.3808 326.328 70.8612C326.876 71.0908 327.388 71.4263 327.83 71.8679C328.271 72.3095 328.589 72.8393 328.836 73.3692C340.317 68.1412 348.247 62.613 353.316 57.5439C368.929 41.9659 357.732 30.8033 342.154 46.3814ZM356.23 50.426C354.305 52.3512 351.197 52.3512 349.271 50.4261C347.346 48.5009 347.346 45.3923 349.271 43.4671C351.197 41.5419 354.305 41.542 356.23 43.4672C358.155 45.3923 358.156 48.5008 356.23 50.426Z" fill="#F6AC1B"/>
<path d="M319.899 73.367C320.128 72.8195 320.464 72.3073 320.906 71.8657C321.347 71.4242 321.877 71.1062 322.407 70.8589C309.143 41.6986 293.918 35.6582 289.308 40.268C284.698 44.8778 290.774 60.1027 319.899 73.367ZM292.523 43.4825C294.448 41.5574 297.556 41.5574 299.481 43.4826C301.407 45.4078 301.407 48.5163 299.481 50.4415C297.556 52.3666 294.448 52.3667 292.522 50.4415C290.597 48.5163 290.597 45.4077 292.523 43.4825Z" fill="#F6AC1B"/>
<path d="M322.586 70.7896C323.734 70.348 324.988 70.3303 326.136 70.7719C339.524 34.9529 327.673 20.4876 320.696 27.4641C315.981 32.1799 313.543 46.6277 322.586 70.7896ZM319.46 35.2002C319.46 32.4803 321.65 30.2901 324.37 30.2901C327.09 30.2901 329.28 32.4802 329.28 35.2002C329.28 37.9202 327.09 40.1103 324.37 40.1103C321.685 40.1103 319.478 37.9026 319.46 35.2002Z" fill="#F6AC1B"/>
<path d="M364.249 104.049C363.719 101.435 361.441 94.6348 351.585 86.5808C363.454 87.7818 371.19 85.2738 374.846 81.6177C377.99 78.4739 378.52 74.1643 376.171 70.6495C372.833 65.6511 364.443 62.7016 351.62 64.0439C353.192 62.7545 354.641 61.4828 355.965 60.1582C365.838 50.285 366.139 41.7541 362.076 37.6918C357.996 33.6118 349.466 33.9122 339.592 43.7853C338.285 45.0923 336.978 46.5407 335.724 48.1126C337.067 35.2898 334.117 26.9002 329.119 23.5621C325.604 21.213 321.312 21.7252 318.15 24.8867C314.477 28.5604 311.969 36.2966 313.187 48.1479C305.133 38.2924 298.333 36.014 295.719 35.4841C292.099 34.76 288.92 35.5371 286.765 37.6918C284.628 39.829 283.833 43.0259 284.557 46.6466C285.087 49.2607 287.365 56.0606 297.221 64.1145C285.352 62.9135 277.616 65.4215 273.96 69.0776C270.816 72.2214 270.286 76.531 272.635 80.0458C275.973 85.0442 284.363 87.9939 297.185 86.6515C295.613 87.9409 294.165 89.2125 292.841 90.5371C286.2 97.1781 283.197 103.996 284.61 109.259C285.405 112.209 287.542 114.346 290.491 115.141C295.755 116.554 302.572 113.551 309.213 106.91C310.52 105.603 311.827 104.155 313.099 102.565C311.757 115.388 314.706 123.777 319.705 127.116C323.22 129.465 327.511 128.952 330.673 125.791C334.347 122.117 336.855 114.381 335.636 102.53C343.69 112.385 350.49 114.664 353.104 115.194C356.725 115.918 359.904 115.141 362.059 112.986C364.178 110.866 364.973 107.67 364.249 104.049ZM359.445 110.407C354.835 115.017 339.628 108.959 326.346 79.8162C326.893 79.5866 327.405 79.251 327.847 78.8095C328.289 78.3679 328.607 77.838 328.854 77.3081C357.996 90.5901 364.055 105.797 359.445 110.407ZM322.619 79.9044C323.767 80.346 325.039 80.3461 326.169 79.8869C335.212 104.049 332.775 118.496 328.059 123.212C321.082 130.189 309.231 115.723 322.619 79.9044ZM295.419 93.1158C300.488 88.0467 308.419 82.5185 319.899 77.2905C320.129 77.8381 320.464 78.3503 320.906 78.7918C321.347 79.2334 321.877 79.5513 322.407 79.7985C317.161 91.2966 311.651 99.2093 306.582 104.278C291.021 119.874 279.824 108.712 295.419 93.1158ZM276.503 71.6563C281.219 66.9405 295.666 64.5031 319.828 73.5462C319.387 74.6942 319.369 75.9481 319.811 77.0962C283.992 90.4841 269.526 78.6329 276.503 71.6563ZM289.326 40.2882C293.936 35.6784 309.143 41.7365 322.425 70.8791C321.877 71.1087 321.365 71.4443 320.923 71.8858C320.482 72.3274 320.164 72.8573 319.917 73.3872C290.774 60.1052 284.716 44.898 289.326 40.2882ZM326.134 70.7732C324.986 70.3316 323.714 70.3316 322.584 70.7909C313.541 46.629 315.978 32.1812 320.694 27.4654C327.67 20.4888 339.522 34.9542 326.134 70.7732ZM353.334 57.5619C348.265 62.6309 340.334 68.1591 328.854 73.3871C328.624 72.8396 328.289 72.3274 327.847 71.8858C327.406 71.4443 326.876 71.1264 326.346 70.8791C331.591 59.381 337.102 51.4684 342.171 46.3994C357.731 30.8036 368.929 41.9662 353.334 57.5619ZM372.25 79.0214C367.534 83.7372 353.086 86.1746 328.924 77.1316C329.366 75.9835 329.384 74.7295 328.942 73.5815C364.761 60.1935 379.226 72.0448 372.25 79.0214Z" fill="#C31632"/>
<path d="M356.247 107.209C358.169 105.288 358.169 102.172 356.247 100.25C354.325 98.3287 351.21 98.3287 349.288 100.25C347.366 102.172 347.366 105.288 349.288 107.209C351.21 109.131 354.325 109.131 356.247 107.209Z" fill="#C31632"/>
<path d="M299.481 50.4434C301.403 48.5217 301.403 45.4062 299.481 43.4845C297.56 41.5629 294.444 41.5628 292.522 43.4844C290.601 45.4061 290.601 48.5218 292.522 50.4434C294.444 52.3651 297.56 52.365 299.481 50.4434Z" fill="#C31632"/>
<path d="M349.29 43.4829C347.365 45.408 347.365 48.5166 349.29 50.4418C351.215 52.367 354.324 52.367 356.249 50.4418C358.174 48.5166 358.174 45.4081 356.249 43.4829C354.324 41.5577 351.215 41.5577 349.29 43.4829Z" fill="#C31632"/>
<path d="M299.461 107.191C301.386 105.266 301.386 102.157 299.461 100.232C297.536 98.3067 294.427 98.3066 292.502 100.232C290.577 102.157 290.577 105.265 292.502 107.191C294.427 109.116 297.536 109.116 299.461 107.191Z" fill="#C31632"/>
<path d="M327.848 38.6782C329.77 36.7566 329.77 33.6409 327.849 31.7192C325.927 29.7976 322.811 29.7976 320.89 31.7193C318.968 33.6409 318.968 36.7565 320.89 38.6782C322.811 40.5998 325.927 40.5999 327.848 38.6782Z" fill="#C31632"/>
<path d="M319.475 115.476C319.475 118.196 321.665 120.386 324.385 120.386C327.105 120.386 329.295 118.196 329.295 115.476C329.295 112.756 327.105 110.566 324.385 110.566C321.665 110.566 319.457 112.774 319.475 115.476Z" fill="#C31632"/>
<path d="M369.424 75.3468C369.424 72.6268 367.234 70.4367 364.514 70.4367C361.794 70.4367 359.603 72.6269 359.603 75.3469C359.603 78.0668 361.794 80.257 364.514 80.257C367.234 80.257 369.441 78.0491 369.424 75.3468Z" fill="#C31632"/>
<path d="M279.328 75.3296C279.328 78.0496 281.519 80.2397 284.239 80.2397C286.959 80.2397 289.149 78.0497 289.149 75.3297C289.149 72.6097 286.959 70.4196 284.239 70.4196C281.536 70.4373 279.328 72.645 279.328 75.3296Z" fill="#C31632"/>
<path d="M248.884 105.421C250.174 109.253 251.392 112.91 256.391 115.788C261.389 118.667 265.151 117.908 269.125 117.113C273.258 116.265 277.939 115.329 283.926 118.773C289.896 122.235 291.433 126.774 292.775 130.766C294.082 134.616 295.283 138.255 300.299 141.151C305.315 144.048 309.077 143.289 313.051 142.494C313.881 142.335 314.747 142.176 315.63 142.035L314.252 140.657C311.055 140.463 307.611 139.597 303.902 136.489C298.868 132.267 297.985 127.781 297.367 123.772L281.683 108.088C280.906 108.088 280.129 108.088 279.352 108.123C275.113 108.229 270.344 108.335 265.063 103.902C259.782 99.4686 259.076 94.7351 258.44 90.5668C257.998 87.6173 257.557 84.7736 255.578 81.983L252.046 78.4506C250.721 77.4438 249.432 76.755 248.178 76.3134C243.462 81.1352 239.223 86.222 235.444 91.5559C236.892 91.9445 238.428 92.5273 240.036 93.4634C246.006 96.8899 247.524 101.411 248.884 105.421Z" fill="#F6AC1B"/>
<path d="M305.81 134.19C307.488 135.585 309.06 136.451 310.596 136.963L301.253 127.62C301.995 129.845 303.231 132.035 305.81 134.19Z" fill="#F6AC1B"/>
<path d="M266.969 101.605C271.19 105.155 274.899 105.226 278.767 105.138L260.893 87.2635C261.087 88.2349 261.246 89.171 261.37 90.1071C261.953 94.0811 262.536 97.8784 266.969 101.605Z" fill="#F6AC1B"/>
<path d="M240.707 218.58C244.681 219.374 248.443 220.134 253.442 217.255C258.44 214.376 259.659 210.72 260.948 206.887C262.29 202.896 263.827 198.356 269.797 194.895C275.784 191.45 280.465 192.387 284.598 193.234C288.572 194.029 292.334 194.789 297.35 191.892C302.366 188.995 303.585 185.375 304.874 181.507C306.234 177.497 307.753 172.976 313.723 169.514C315.842 168.278 317.803 167.624 319.639 167.306C319.551 166.971 319.463 166.635 319.41 166.299C318.085 166.388 316.672 166.67 315.1 167.253C309.66 169.231 307.841 172.605 305.881 176.155C303.867 179.864 301.571 184.068 295.071 186.434C288.589 188.783 284.138 187.053 280.2 185.516C276.42 184.032 272.835 182.637 267.43 184.615C261.99 186.593 260.153 189.949 258.228 193.535C256.215 197.244 253.918 201.447 247.436 203.796C240.954 206.145 236.504 204.415 232.565 202.878C228.785 201.394 225.217 199.981 219.795 201.977C219.477 202.083 219.23 202.224 218.93 202.348C220.925 208.406 223.398 214.305 226.348 220.046C232.106 216.866 236.662 217.75 240.707 218.58Z" fill="#F6AC1B"/>
<path d="M310.544 188.342C310.456 188.819 310.385 189.313 310.314 189.808L324.321 175.802C323.649 175.131 323.084 174.389 322.537 173.629C320.488 174.053 318.386 174.954 316.143 176.844C311.727 180.553 311.162 184.333 310.544 188.342Z" fill="#F6AC1B"/>
<path d="M250.845 235.537C254.907 235.643 258.74 235.731 263.155 232.022C267.553 228.295 268.154 224.515 268.754 220.524C269.39 216.356 270.114 211.604 275.377 207.189C280.658 202.756 285.445 202.879 289.666 202.968C292.598 203.038 295.389 203.074 298.374 201.749L306.145 193.977C306.975 192.017 307.293 190.004 307.611 187.919C308.247 183.751 308.971 179 314.252 174.567C316.601 172.606 318.844 171.564 320.999 170.999C320.858 170.716 320.681 170.469 320.575 170.187C318.932 170.416 317.184 170.964 315.241 172.094C310.225 174.991 309.006 178.611 307.699 182.462C306.357 186.453 304.82 190.993 298.85 194.454C292.863 197.899 288.182 196.962 284.05 196.115C280.076 195.32 276.313 194.56 271.315 197.439C266.317 200.318 265.098 203.974 263.809 207.807C262.466 211.799 260.93 216.338 254.96 219.8C248.99 223.261 244.292 222.308 240.159 221.46C236.273 220.683 232.582 219.959 227.778 222.608C230.798 228.136 234.26 233.47 238.163 238.575C242.773 235.378 247.047 235.448 250.845 235.537Z" fill="#F6AC1B"/>
<path d="M289.613 205.917C285.551 205.811 281.718 205.723 277.285 209.45C272.852 213.176 272.287 216.956 271.686 220.948C271.05 225.116 270.344 229.849 265.063 234.283C259.782 238.716 254.995 238.592 250.774 238.504C247.153 238.416 243.727 238.345 239.912 240.924C242.72 244.438 245.758 247.83 249.025 251.097L294.311 205.811C292.669 205.97 291.097 205.952 289.613 205.917Z" fill="#F6AC1B"/>
<path d="M233.659 200.09C237.439 201.573 241.007 202.986 246.429 200.991C251.851 199.03 253.688 195.639 255.631 192.071C257.644 188.362 259.94 184.158 266.423 181.809C272.905 179.46 277.355 181.191 281.294 182.728C285.074 184.211 288.659 185.607 294.064 183.629C299.504 181.65 301.341 178.295 303.284 174.727C305.315 171.035 307.593 166.814 314.093 164.447C315.93 163.776 317.59 163.458 319.127 163.335C319.127 162.946 319.18 162.575 319.215 162.187C318.19 162.151 317.06 162.222 315.841 162.452C310.136 163.458 307.752 166.443 305.209 169.622C302.559 172.943 299.574 176.67 292.792 177.871C286.01 179.072 281.912 176.564 278.309 174.374C274.847 172.254 271.58 170.258 265.875 171.265C260.188 172.254 257.803 175.274 255.278 178.436C252.646 181.739 249.661 185.465 242.861 186.684C236.079 187.885 231.981 185.377 228.378 183.187C224.916 181.068 221.649 179.072 215.944 180.078C215.184 180.202 214.478 180.379 213.842 180.591C214.743 186.967 216.138 193.272 218.01 199.489C218.258 199.383 218.487 199.26 218.77 199.154C225.252 196.805 229.72 198.553 233.659 200.09Z" fill="#F6AC1B"/>
<path d="M229.614 160.897C232.652 163.581 235.531 166.107 241.306 166.125C247.099 166.125 249.961 163.581 252.999 160.897C256.16 158.088 259.763 154.944 266.651 154.944C273.54 154.944 277.143 158.124 280.304 160.897C283.342 163.581 286.221 166.107 291.997 166.125C297.79 166.125 300.669 163.599 303.707 160.914C306.886 158.124 310.471 154.962 317.377 154.944C318.72 154.944 319.956 155.05 321.069 155.28C321.263 154.909 321.44 154.52 321.669 154.15C321.051 153.955 320.398 153.796 319.709 153.673C314.004 152.666 310.736 154.662 307.275 156.781C303.671 158.971 299.574 161.479 292.792 160.278C286.009 159.077 283.007 155.333 280.375 152.03C277.832 148.851 275.447 145.866 269.76 144.842C264.073 143.852 260.805 145.848 257.326 147.95C253.723 150.14 249.625 152.648 242.843 151.447C236.061 150.246 233.058 146.502 230.426 143.199C227.883 140.02 225.499 137.035 219.811 136.01C218.275 135.746 216.915 135.693 215.661 135.816C214.23 142.192 213.294 148.674 212.888 155.156C213.841 155.015 214.831 154.909 215.943 154.891C222.867 154.927 226.47 158.106 229.614 160.897Z" fill="#F6AC1B"/>
<path d="M220.361 133.13C227.143 134.331 230.146 138.075 232.777 141.378C235.303 144.539 237.705 147.542 243.375 148.549C249.062 149.538 252.347 147.56 255.809 145.44C259.412 143.25 263.51 140.742 270.292 141.943C277.074 143.144 280.077 146.889 282.709 150.191C285.252 153.371 287.636 156.355 293.324 157.38C299.028 158.387 302.296 156.391 305.758 154.271C309.361 152.081 313.458 149.573 320.241 150.774C321.477 150.986 322.554 151.286 323.561 151.657C323.826 151.357 324.038 151.004 324.321 150.721L324.197 150.598C323.72 150.368 323.296 150.121 322.749 149.926C317.309 147.948 313.741 149.361 309.944 150.827C306.005 152.364 301.536 154.112 295.054 151.763C288.572 149.414 286.276 145.211 284.263 141.502C282.32 137.934 280.483 134.578 275.043 132.6C269.621 130.639 266.053 132.017 262.273 133.501C258.335 135.037 253.884 136.803 247.402 134.419C240.92 132.07 238.624 127.866 236.61 124.157C234.667 120.589 232.83 117.234 227.391 115.255C225.624 114.62 224.088 114.355 222.639 114.319C220.043 120.378 217.924 126.595 216.334 132.918C217.606 132.812 218.913 132.882 220.361 133.13Z" fill="#F6AC1B"/>
<path d="M229.933 180.679C233.394 182.798 236.662 184.794 242.367 183.787C248.054 182.798 250.439 179.778 252.964 176.616C255.578 173.296 258.581 169.587 265.381 168.368C272.163 167.167 276.261 169.675 279.864 171.865C283.326 173.985 286.593 175.98 292.298 174.974C298.003 173.967 300.387 170.982 302.931 167.803C305.562 164.5 308.565 160.756 315.347 159.555C316.919 159.29 318.332 159.219 319.639 159.29C319.727 158.883 319.869 158.495 319.992 158.089C319.198 157.965 318.367 157.877 317.431 157.894C311.638 157.894 308.759 160.42 305.721 163.105C302.542 165.895 298.957 169.057 292.051 169.075C285.162 169.075 281.559 165.895 278.398 163.122C275.36 160.438 272.481 157.912 266.688 157.912C260.93 157.912 258.033 160.455 254.995 163.14C251.816 165.931 248.231 169.092 241.343 169.092C234.454 169.092 230.851 165.913 227.69 163.14C224.652 160.455 221.773 157.93 215.997 157.912C214.796 157.912 213.754 158.036 212.765 158.248C212.5 164.73 212.765 171.212 213.525 177.658C214.16 177.482 214.779 177.323 215.485 177.182C222.232 175.98 226.312 178.471 229.933 180.679Z" fill="#F6AC1B"/>
<path d="M239.24 122.695C241.183 126.263 243.02 129.619 248.46 131.597C253.9 133.575 257.45 132.18 261.23 130.696C265.168 129.16 269.619 127.393 276.084 129.76C282.566 132.109 284.862 136.313 286.893 140.04C288.836 143.607 290.673 146.963 296.113 148.941C301.553 150.919 305.12 149.506 308.918 148.04C311.991 146.839 315.382 145.532 319.798 146.133L318.349 144.685C316.777 144.773 315.241 145.073 313.687 145.391C309.536 146.221 304.838 147.175 298.868 143.713C292.898 140.251 291.362 135.712 290.019 131.721C288.712 127.87 287.511 124.232 282.495 121.335C277.497 118.456 273.735 119.216 269.761 120.011C265.628 120.858 260.93 121.812 254.96 118.35C248.99 114.889 247.471 110.367 246.111 106.358C244.822 102.525 243.603 98.8689 238.605 95.9899C236.821 94.9479 235.196 94.418 233.659 94.1531C229.968 99.6813 226.718 105.439 223.998 111.374C225.375 111.515 226.877 111.851 228.502 112.451C234.931 114.783 237.227 118.986 239.24 122.695Z" fill="#F6AC1B"/>
<path d="M249.008 75.3758C248.726 75.6584 248.443 75.9764 248.161 76.259C249.415 76.7005 250.704 77.3893 252.029 78.3961L249.008 75.3758Z" fill="black"/>
<path d="M258.422 90.513C259.058 94.6813 259.765 99.4148 265.046 103.848C270.327 108.281 275.113 108.158 279.334 108.069C280.129 108.052 280.889 108.034 281.666 108.034L278.734 105.102C274.866 105.19 271.175 105.137 266.936 101.57C262.52 97.8605 261.937 94.0632 261.319 90.0539C261.178 89.1354 261.036 88.1816 260.842 87.2102L255.544 81.9116C257.539 84.7199 257.981 87.5635 258.422 90.513Z" fill="black"/>
<path d="M236.659 124.107C238.673 127.816 240.969 132.02 247.451 134.369C253.933 136.718 258.384 134.987 262.322 133.451C266.102 131.967 269.652 130.572 275.092 132.55C280.532 134.528 282.351 137.901 284.312 141.452C286.325 145.161 288.621 149.364 295.104 151.713C301.586 154.062 306.054 152.314 309.993 150.777C313.772 149.294 317.358 147.898 322.798 149.876C323.345 150.071 323.752 150.336 324.246 150.548L319.795 146.097C315.397 145.514 311.989 146.803 308.915 148.004C305.136 149.488 301.55 150.883 296.11 148.905C290.67 146.927 288.851 143.553 286.891 140.003C284.877 136.294 282.581 132.091 276.081 129.724C269.599 127.375 265.148 129.106 261.227 130.66C257.448 132.144 253.88 133.557 248.458 131.561C243.018 129.583 241.198 126.209 239.238 122.659C237.224 118.95 234.928 114.746 228.446 112.397C226.821 111.797 225.338 111.479 223.942 111.32C223.501 112.291 223.095 113.263 222.671 114.216C224.119 114.252 225.656 114.517 227.422 115.152C232.862 117.166 234.716 120.539 236.659 124.107Z" fill="black"/>
<path d="M232.564 202.846C236.503 204.382 240.953 206.149 247.435 203.764C253.918 201.415 256.196 197.194 258.227 193.502C260.17 189.935 262.007 186.579 267.429 184.583C272.869 182.605 276.419 184 280.199 185.484C284.138 187.02 288.588 188.787 295.07 186.402C301.552 184.053 303.866 179.832 305.88 176.123C307.823 172.555 309.659 169.199 315.099 167.221C316.671 166.638 318.102 166.373 319.409 166.267C319.25 165.296 319.144 164.307 319.126 163.335C317.572 163.441 315.93 163.777 314.093 164.448C307.611 166.797 305.332 171.018 303.283 174.728C301.341 178.295 299.504 181.651 294.064 183.629C288.624 185.607 285.074 184.212 281.294 182.728C277.355 181.192 272.904 179.426 266.422 181.81C259.958 184.177 257.662 188.38 255.631 192.072C253.688 195.64 251.851 198.995 246.429 200.991C240.989 202.969 237.439 201.574 233.659 200.09C229.72 198.554 225.269 196.788 218.787 199.172C218.505 199.278 218.293 199.384 218.028 199.508C218.311 200.461 218.628 201.38 218.946 202.334C219.247 202.21 219.494 202.069 219.812 201.963C225.234 199.967 228.784 201.362 232.564 202.846Z" fill="black"/>
<path d="M289.682 202.951C285.443 202.845 280.674 202.739 275.393 207.173C270.13 211.588 269.406 216.339 268.77 220.508C268.17 224.535 267.587 228.297 263.171 232.006C258.738 235.732 254.923 235.626 250.861 235.52C247.063 235.432 242.789 235.361 238.126 238.576C238.727 239.353 239.31 240.148 239.928 240.907C243.743 238.329 247.169 238.399 250.79 238.488C255.011 238.576 259.798 238.7 265.079 234.266C270.36 229.833 271.066 225.1 271.702 220.931C272.303 216.904 272.868 213.125 277.301 209.433C281.734 205.707 285.549 205.813 289.629 205.901C291.113 205.936 292.685 205.954 294.327 205.795L298.425 201.697C295.405 203.093 292.596 203.04 289.682 202.951Z" fill="black"/>
<path d="M246.076 106.356C247.418 110.348 248.955 114.887 254.924 118.349C260.894 121.811 265.592 120.857 269.725 120.009C273.699 119.215 277.461 118.455 282.46 121.334C287.476 124.231 288.695 127.851 289.984 131.719C291.326 135.711 292.863 140.25 298.833 143.712C304.82 147.156 309.501 146.22 313.651 145.39C315.206 145.072 316.742 144.772 318.314 144.683L315.647 142.016C314.764 142.158 313.899 142.317 313.068 142.476C309.094 143.27 305.332 144.03 300.316 141.133C295.3 138.237 294.082 134.616 292.792 130.748C291.45 126.756 289.913 122.217 283.943 118.755C277.974 115.294 273.275 116.247 269.143 117.095C265.169 117.89 261.407 118.649 256.408 115.77C251.41 112.891 250.173 109.253 248.902 105.403C247.559 101.411 246.023 96.8718 240.053 93.4101C238.428 92.4563 236.909 91.8911 235.461 91.5025C234.843 92.3679 234.224 93.2334 233.624 94.1165C235.16 94.3815 236.785 94.9466 238.569 95.9534C243.55 98.8853 244.769 102.506 246.076 106.356Z" fill="black"/>
<path d="M240.105 221.48C244.256 222.311 248.954 223.264 254.906 219.82C260.876 216.358 262.395 211.837 263.755 207.828C265.044 203.995 266.263 200.339 271.261 197.46C276.277 194.563 280.022 195.34 283.996 196.135C288.146 196.965 292.844 197.919 298.796 194.475C304.766 191.013 306.303 186.474 307.645 182.482C308.952 178.632 310.171 175.011 315.187 172.115C317.13 170.984 318.878 170.437 320.521 170.207C320.132 169.289 319.832 168.317 319.62 167.364C317.783 167.681 315.823 168.335 313.703 169.571C307.716 173.015 306.197 177.572 304.855 181.564C303.548 185.414 302.347 189.053 297.331 191.949C292.314 194.846 288.552 194.086 284.578 193.292C280.428 192.461 275.73 191.508 269.777 194.952C263.808 198.414 262.289 202.935 260.929 206.944C259.622 210.795 258.403 214.416 253.422 217.312C248.406 220.209 244.662 219.432 240.688 218.637C236.661 217.824 232.086 216.924 226.328 220.067C226.77 220.933 227.247 221.798 227.724 222.664C232.563 219.979 236.237 220.686 240.105 221.48Z" fill="black"/>
<path d="M227.671 163.121C230.85 165.911 234.435 169.073 241.324 169.073C248.212 169.073 251.797 165.911 254.976 163.121C258.014 160.436 260.893 157.911 266.669 157.893C272.462 157.893 275.323 160.436 278.379 163.103C281.558 165.894 285.143 169.055 292.032 169.055C298.92 169.055 302.523 165.876 305.702 163.086C308.74 160.401 311.637 157.858 317.412 157.875C318.331 157.875 319.179 157.946 319.973 158.069C320.274 157.098 320.644 156.162 321.104 155.244C319.973 155.032 318.755 154.908 317.412 154.908C310.524 154.908 306.903 158.069 303.742 160.878C300.704 163.562 297.807 166.106 292.032 166.088C286.239 166.088 283.377 163.545 280.339 160.86C277.16 158.069 273.575 154.908 266.686 154.908C259.798 154.908 256.213 158.069 253.034 160.86C249.996 163.545 247.117 166.07 241.341 166.088C235.548 166.088 232.687 163.545 229.649 160.86C226.47 158.069 222.884 154.908 215.996 154.908C214.901 154.908 213.876 155.014 212.94 155.173C212.887 156.18 212.799 157.186 212.764 158.211C213.735 158.017 214.795 157.875 215.996 157.875C221.736 157.893 224.633 160.436 227.671 163.121Z" fill="black"/>
<path d="M314.25 174.568C308.952 178.984 308.245 183.753 307.609 187.921C307.292 190.005 306.991 192.001 306.144 193.979L310.294 189.828C310.365 189.334 310.453 188.857 310.524 188.362C311.142 184.353 311.689 180.556 316.14 176.847C318.383 174.957 320.485 174.056 322.534 173.632C321.934 172.784 321.421 171.919 320.98 171.018C318.843 171.566 316.617 172.59 314.25 174.568Z" fill="black"/>
<path d="M228.375 183.189C231.978 185.379 236.076 187.887 242.858 186.686C249.64 185.485 252.625 181.758 255.275 178.438C257.8 175.276 260.202 172.274 265.872 171.267C271.577 170.26 274.844 172.256 278.306 174.376C281.909 176.566 286.007 179.074 292.789 177.873C299.589 176.689 302.556 172.945 305.206 169.624C307.731 166.463 310.133 163.46 315.838 162.454C317.075 162.242 318.17 162.171 319.212 162.189C319.282 161.2 319.388 160.21 319.6 159.257C318.293 159.186 316.88 159.257 315.308 159.522C308.508 160.705 305.523 164.467 302.892 167.77C300.348 170.949 297.964 173.934 292.259 174.941C286.554 175.947 283.287 173.952 279.825 171.832C276.222 169.642 272.124 167.134 265.342 168.335C258.56 169.536 255.557 173.245 252.925 176.583C250.4 179.745 247.998 182.747 242.328 183.754C236.623 184.761 233.356 182.765 229.894 180.646C226.291 178.456 222.193 175.947 215.411 177.148C214.722 177.272 214.069 177.431 213.45 177.625C213.556 178.614 213.662 179.604 213.804 180.593C214.457 180.398 215.146 180.204 215.905 180.08C221.628 179.091 224.913 181.07 228.375 183.189Z" fill="black"/>
<path d="M219.845 136.047C225.532 137.036 227.934 140.039 230.46 143.236C233.092 146.538 236.094 150.283 242.876 151.484C249.659 152.685 253.756 150.177 257.359 147.987C260.821 145.867 264.089 143.871 269.794 144.878C275.499 145.885 277.883 148.87 280.409 152.067C283.04 155.37 286.025 159.096 292.825 160.315C299.625 161.498 303.723 159.026 307.308 156.818C310.77 154.698 314.055 152.72 319.742 153.709C320.467 153.833 321.102 154.01 321.703 154.186C322.233 153.303 322.869 152.491 323.557 151.696C322.551 151.325 321.473 151.025 320.237 150.813C313.437 149.629 309.357 152.12 305.754 154.31C302.292 156.429 299.007 158.407 293.32 157.418C287.615 156.412 285.23 153.427 282.705 150.23C280.073 146.927 277.07 143.183 270.288 141.982C263.506 140.781 259.426 143.271 255.805 145.479C252.343 147.598 249.076 149.594 243.371 148.587C237.684 147.598 235.282 144.596 232.774 141.416C230.142 138.114 227.139 134.369 220.357 133.168C218.909 132.921 217.619 132.868 216.401 132.886C216.154 133.875 215.924 134.881 215.712 135.871C216.931 135.747 218.291 135.764 219.845 136.047Z" fill="black"/>
<path d="M303.902 136.453C307.611 139.561 311.056 140.427 314.252 140.621L310.596 136.965C309.06 136.453 307.47 135.57 305.81 134.192C303.231 132.037 301.995 129.847 301.253 127.622L297.367 123.736C297.986 127.745 298.886 132.249 303.902 136.453Z" fill="black"/>
<path d="M381.502 207.825L376.23 202.553C354.41 224.372 319.014 224.372 297.194 202.553L291.922 207.825C316.625 232.528 356.799 232.528 381.502 207.825Z" fill="#C31632"/>
<path d="M357.33 183.654L352.057 178.382C343.592 186.848 329.83 186.848 321.364 178.382L316.092 183.654C327.478 195.016 345.956 195.028 357.33 183.654Z" fill="#C31632"/>
<path d="M365.387 191.712L360.115 186.439C347.206 199.348 326.228 199.36 313.307 186.439L308.035 191.712C323.865 207.516 349.57 207.529 365.387 191.712Z" fill="#C31632"/>
<path d="M373.445 199.768L368.172 194.496C350.808 211.86 322.615 211.86 305.251 194.496L299.979 199.768C320.239 220.028 353.184 220.028 373.445 199.768Z" fill="#C31632"/>
<path d="M389.558 215.882L384.286 210.61C358.023 236.873 315.399 236.873 289.137 210.61L283.864 215.882C313.011 245.029 360.412 245.029 389.558 215.882Z" fill="#C31632"/>
<path d="M413.741 240.066L408.469 234.794C368.84 274.423 304.594 274.41 264.977 234.794L259.705 240.066C302.168 282.529 371.278 282.529 413.741 240.066Z" fill="#C31632"/>
<path d="M421.799 248.123L416.527 242.85C372.454 286.923 300.981 286.935 256.896 242.85L251.624 248.123C298.555 295.029 374.893 295.029 421.799 248.123Z" fill="#C31632"/>
<path d="M397.616 223.939L392.343 218.667C361.625 249.385 311.798 249.385 281.08 218.667L275.808 223.939C309.397 257.529 364.026 257.529 397.616 223.939Z" fill="#C31632"/>
<path d="M405.672 231.997L400.4 226.724C365.226 261.898 308.196 261.898 273.022 226.724L267.75 231.997C305.783 270.029 367.64 270.029 405.672 231.997Z" fill="#C31632"/>
<path d="M251.636 248.111L248.852 250.895C251.884 253.927 255.027 256.774 258.295 259.422C263.171 263.408 268.282 266.96 273.58 270.079C278.877 273.197 284.359 275.908 289.953 278.185C295.572 280.462 301.303 282.306 307.132 283.73C311.018 284.67 314.929 285.438 318.877 285.995C356.328 291.391 395.771 279.695 424.583 250.883L421.799 248.098C374.892 295.029 298.555 295.029 251.636 248.111Z" fill="#F6AC1B"/>
<path d="M259.693 240.054L256.908 242.838C300.98 286.91 372.454 286.923 416.538 242.838L413.754 240.054C371.278 282.529 302.169 282.529 259.693 240.054Z" fill="#F6AC1B"/>
<path d="M267.751 231.996L264.966 234.781C304.595 274.41 368.841 274.398 408.457 234.781L405.673 231.996C367.64 270.029 305.783 270.029 267.751 231.996Z" fill="#F6AC1B"/>
<path d="M275.807 223.94L273.022 226.724C308.196 261.898 365.226 261.898 400.4 226.724L397.615 223.94C364.026 257.529 309.397 257.529 275.807 223.94Z" fill="#F6AC1B"/>
<path d="M283.864 215.883L281.079 218.667C311.797 249.385 361.624 249.385 392.343 218.667L389.558 215.883C360.412 245.029 313.01 245.029 283.864 215.883Z" fill="#F6AC1B"/>
<path d="M291.921 207.825L289.137 210.61C315.399 236.873 358.024 236.873 384.286 210.61L381.501 207.825C356.798 232.529 316.625 232.529 291.921 207.825Z" fill="#F6AC1B"/>
<path d="M299.978 199.768L297.193 202.553C319.013 224.373 354.409 224.373 376.229 202.553L373.444 199.768C353.184 220.028 320.238 220.028 299.978 199.768Z" fill="#F6AC1B"/>
<path d="M308.047 191.699L305.263 194.484C322.627 211.848 350.82 211.848 368.184 194.484L365.399 191.699C349.57 207.529 323.864 207.516 308.047 191.699Z" fill="#F6AC1B"/>
<path d="M316.105 183.642L313.32 186.427C326.229 199.335 347.207 199.348 360.128 186.427L357.343 183.642C345.957 195.028 327.479 195.016 316.105 183.642Z" fill="#F6AC1B"/>
<path d="M324.162 175.585L321.377 178.37C329.842 186.835 343.605 186.835 352.07 178.37L349.286 175.585C342.342 182.528 331.105 182.528 324.162 175.585Z" fill="#F6AC1B"/>
</svg>
