<svg width="124" height="668" viewBox="0 0 124 668" fill="none" xmlns="http://www.w3.org/2000/svg">
<path d="M0.300781 60.3405V67.7287C30.8666 67.7287 55.6505 92.5372 55.6505 123.078H63.0387C63.0634 88.4848 34.919 60.3405 0.300781 60.3405Z" fill="#F6AC1B"/>
<path d="M0.300781 94.2163V101.604C12.1614 101.604 21.7982 111.241 21.7982 123.102H29.1864C29.1864 107.164 16.2385 94.2163 0.300781 94.2163Z" fill="#F6AC1B"/>
<path d="M0.300781 82.9237V90.3119C18.3883 90.3119 33.0905 105.014 33.0905 123.102H40.4787C40.4787 100.937 22.4654 82.9237 0.300781 82.9237Z" fill="#F6AC1B"/>
<path d="M0.300781 71.6331V79.0212C24.6151 79.0212 44.3829 98.7642 44.3829 123.103H51.771C51.771 94.7119 28.6922 71.6331 0.300781 71.6331Z" fill="#F6AC1B"/>
<path d="M0.300781 49.0479V56.436C37.0935 56.436 66.9428 86.2853 66.9428 123.078H74.331C74.331 82.2576 41.1459 49.0479 0.300781 49.0479Z" fill="#F6AC1B"/>
<path d="M0.300781 15.1978V22.5859C55.7987 22.5859 100.82 67.5822 100.82 123.105H108.208C108.208 63.604 59.8017 15.1978 0.300781 15.1978Z" fill="#F6AC1B"/>
<path d="M0.300781 3.90515V11.2933C62.0503 11.2933 112.112 61.3551 112.112 123.105H119.5C119.5 57.3769 66.0285 3.90515 0.300781 3.90515Z" fill="#F6AC1B"/>
<path d="M0.300781 37.7831V45.1713C43.345 45.1713 78.2351 80.0613 78.2351 123.106H85.6233C85.6233 76.0337 47.3727 37.7831 0.300781 37.7831Z" fill="#F6AC1B"/>
<path d="M0.300781 26.4885V33.8767C49.5719 33.8767 89.5274 73.8322 89.5274 123.103H96.9156C96.9156 69.8045 53.5748 26.4885 0.300781 26.4885Z" fill="#F6AC1B"/>
<path d="M119.5 123.079H123.404C123.404 118.829 123.182 114.628 122.762 110.502C122.119 104.3 121.032 98.2209 119.525 92.3153C118.018 86.4097 116.066 80.6771 113.718 75.1668C111.371 69.6565 108.653 64.3192 105.564 59.2538C103.513 55.8685 101.289 52.5821 98.9418 49.444C76.5055 19.4218 40.6764 0 0.300781 0V3.9041C66.0285 3.9041 119.5 57.3759 119.5 123.079Z" fill="#6BC9C6"/>
<path d="M108.208 123.078H112.112C112.112 61.3284 62.0503 11.2666 0.300781 11.2666V15.1707C59.8017 15.1954 108.208 63.6017 108.208 123.078Z" fill="#6BC9C6"/>
<path d="M96.9156 123.08H100.82C100.82 67.582 55.8234 22.561 0.300781 22.561V26.4651C53.5748 26.4898 96.9156 69.8059 96.9156 123.08Z" fill="#6BC9C6"/>
<path d="M85.6233 123.078H89.5274C89.5274 73.8074 49.5719 33.8518 0.300781 33.8518V37.756C47.3727 37.7807 85.6233 76.0313 85.6233 123.078Z" fill="#6BC9C6"/>
<path d="M74.331 123.079H78.2351C78.2351 80.0346 43.3203 45.1445 0.300781 45.1445V49.0487C41.1459 49.0487 74.331 82.2585 74.331 123.079Z" fill="#6BC9C6"/>
<path d="M63.0621 123.079H66.9662C66.9662 86.2864 37.1169 56.4371 0.324219 56.4371V60.3412C34.9178 60.3412 63.0621 88.4856 63.0621 123.079Z" fill="#6BC9C6"/>
<path d="M51.7697 123.079H55.6739C55.6739 92.5135 30.8654 67.7297 0.324219 67.7297V71.6338C28.6909 71.6338 51.7697 94.7127 51.7697 123.079Z" fill="#6BC9C6"/>
<path d="M40.4787 123.077H44.3829C44.3829 98.7622 24.6398 78.9945 0.300781 78.9945V82.8986C22.4654 82.9233 40.4787 100.937 40.4787 123.077Z" fill="#6BC9C6"/>
<path d="M29.1864 123.079H33.0905C33.0905 104.991 18.3883 90.2889 0.300781 90.2889V94.1931C16.2385 94.2178 29.1864 107.166 29.1864 123.079Z" fill="#6BC9C6"/>
<path d="M17.8941 123.079H21.7982C21.7982 111.218 12.1614 101.582 0.300781 101.582V105.486C10.0364 105.51 17.8941 113.368 17.8941 123.079Z" fill="#6BC9C6"/>
<path d="M70.6995 123.13C73.6894 123.13 76.4815 124.81 78.5077 127.85C79.9656 130.049 83.1286 136.399 81.8684 148.927C89.3307 139.785 96.4965 136.128 101.611 136.128C106.01 136.128 109.395 138.771 110.21 142.873C111.372 148.705 107.591 156.637 97.6577 164.667C99.6592 164.469 101.562 164.346 103.39 164.346C117.203 164.346 123.381 170.103 123.381 175.811C123.381 181.519 117.203 187.252 103.39 187.252C101.562 187.252 99.6345 187.153 97.633 186.931C107.542 194.961 111.347 202.893 110.186 208.724C109.37 212.826 105.985 215.47 101.587 215.47C96.447 215.47 89.2812 211.813 81.8436 202.671C83.1038 215.198 79.9409 221.549 78.483 223.748C76.4568 226.787 73.6894 228.468 70.6748 228.468H123.356V123.105H70.6995V123.13Z" fill="#C31632"/>
<path d="M62.8912 223.773C61.4333 221.574 58.2705 215.224 59.5307 202.696C52.0684 211.839 44.9026 215.496 39.7877 215.496C35.3894 215.496 32.0042 212.852 31.1888 208.75C30.0274 202.918 33.8079 194.987 43.7412 186.956C41.7397 187.154 39.8372 187.277 37.984 187.277C28.6931 187.277 21.8238 184.609 19.1305 179.938C17.6232 177.319 17.6232 174.329 19.1305 171.71C21.8238 167.04 28.6931 164.371 37.984 164.371C39.8125 164.371 41.7397 164.47 43.7412 164.693C33.8326 156.662 30.0274 148.73 31.1888 142.899C32.0042 138.797 35.3647 136.153 39.7877 136.153C44.9273 136.153 52.0931 139.81 59.5307 148.953C58.2705 136.425 61.4333 130.074 62.8912 127.875C64.9174 124.836 67.685 123.156 70.6996 123.156H18.0185V228.518H70.6996C67.685 228.493 64.9174 226.813 62.8912 223.773Z" fill="#C31632"/>
<path d="M68.7725 180.259C67.6606 179.764 66.7712 178.9 66.277 177.788C31.8564 193.478 30.0278 211.887 39.7881 211.887C46.3856 211.862 58.1968 203.486 68.7725 180.259ZM46.0643 207.316C44.1617 209.218 41.0978 209.218 39.1951 207.316C37.2925 205.413 37.2925 202.349 39.1951 200.446C41.0978 198.544 44.1617 198.544 46.0643 200.446C47.9423 202.349 47.9423 205.413 46.0643 207.316Z" fill="white"/>
<path d="M68.7728 171.364C58.197 148.137 46.3858 139.76 39.7884 139.736C30.0033 139.736 31.8566 158.144 66.2772 173.835C66.7714 172.723 67.6608 171.833 68.7728 171.364ZM46.0646 151.151C44.1619 153.054 41.098 153.054 39.1953 151.151C37.2927 149.249 37.2927 146.185 39.1953 144.282C41.098 142.38 44.1619 142.38 46.0646 144.282C47.9425 146.185 47.9425 149.274 46.0646 151.151Z" fill="white"/>
<path d="M38.008 183.62C45.0997 183.62 54.514 181.939 66.2017 177.566C65.9793 177.022 65.8557 176.429 65.8557 175.811C65.8557 175.194 66.004 174.601 66.2017 174.057C54.514 169.683 45.0997 168.003 38.008 168.003C16.1894 167.978 16.2141 183.62 38.008 183.62ZM30.9904 170.944C33.6838 170.944 35.8582 173.118 35.8582 175.811C35.8582 178.505 33.6838 180.679 30.9904 180.679C28.2971 180.679 26.1227 178.505 26.1227 175.811C26.1227 173.118 28.2971 170.944 30.9904 170.944Z" fill="white"/>
<path d="M72.4565 180.309C71.9129 180.531 71.3198 180.655 70.702 180.655C70.0843 180.655 69.4912 180.506 68.9476 180.309C57.8282 209.985 64.2528 224.86 70.702 224.86C77.1513 224.86 83.5511 209.985 72.4565 180.309ZM70.702 220.363C68.0087 220.363 65.8342 218.189 65.8342 215.495C65.8342 212.802 68.0087 210.627 70.702 210.627C73.3954 210.627 75.5698 212.802 75.5698 215.495C75.5698 218.189 73.3954 220.363 70.702 220.363Z" fill="white"/>
<path d="M72.6279 180.259C83.2037 203.486 95.015 211.887 101.612 211.887C111.398 211.887 109.544 193.478 75.1236 177.788C74.6294 178.875 73.7399 179.764 72.6279 180.259ZM95.3361 200.446C97.2388 198.544 100.303 198.544 102.205 200.446C104.108 202.349 104.108 205.413 102.205 207.316C100.303 209.218 97.2388 209.218 95.3361 207.316C93.4582 205.413 93.4582 202.349 95.3361 200.446Z" fill="white"/>
<path d="M103.39 167.979C96.2983 167.979 86.884 169.659 75.1963 174.033C75.4187 174.577 75.5423 175.17 75.5423 175.787C75.5423 176.405 75.394 176.998 75.1963 177.542C86.884 181.915 96.2983 183.596 103.39 183.596C125.209 183.62 125.184 167.979 103.39 167.979ZM110.408 180.655C107.714 180.655 105.54 178.481 105.54 175.787C105.54 173.094 107.714 170.92 110.408 170.92C113.101 170.92 115.275 173.094 115.275 175.787C115.275 178.481 113.101 180.655 110.408 180.655Z" fill="white"/>
<path d="M68.9457 171.288C69.4893 171.065 70.0824 170.942 70.7001 170.942C71.3178 170.942 71.9109 171.09 72.4545 171.288C83.5739 141.611 77.1493 126.736 70.7001 126.736C64.2509 126.736 57.851 141.636 68.9457 171.288ZM70.7001 131.233C73.3935 131.233 75.5678 133.408 75.5678 136.101C75.5678 138.795 73.3935 140.969 70.7001 140.969C68.0068 140.969 65.8322 138.795 65.8322 136.101C65.8322 133.408 68.0068 131.233 70.7001 131.233Z" fill="white"/>
<path d="M72.6279 171.364C73.7399 171.858 74.6294 172.723 75.1236 173.835C109.544 158.144 111.373 139.736 101.612 139.736C95.015 139.736 83.2037 148.137 72.6279 171.364ZM95.3361 144.282C97.2388 142.38 100.303 142.38 102.205 144.282C104.108 146.185 104.108 149.249 102.205 151.151C100.303 153.054 97.2388 153.054 95.3361 151.151C93.4582 149.274 93.4582 146.185 95.3361 144.282Z" fill="white"/>
<path d="M78.5064 223.773C79.9643 221.574 83.1273 215.224 81.8671 202.696C89.3294 211.839 96.4952 215.496 101.61 215.496C106.008 215.496 109.394 212.852 110.209 208.75C111.37 202.918 107.565 194.987 97.6564 186.956C99.6579 187.154 101.561 187.277 103.414 187.277C117.227 187.277 123.404 181.52 123.404 175.837C123.404 170.129 117.227 164.371 103.414 164.371C101.585 164.371 99.658 164.47 97.6812 164.693C107.59 156.662 111.395 148.73 110.234 142.899C109.418 138.797 106.058 136.153 101.635 136.153C96.4952 136.153 89.3293 139.81 81.8917 148.953C83.1518 136.425 79.989 130.074 78.5312 127.875C76.505 124.836 73.7376 123.156 70.723 123.156C67.7331 123.156 64.9408 124.836 62.9146 127.875C61.4568 130.074 58.294 136.425 59.5542 148.953C52.0918 139.81 44.9261 136.153 39.8112 136.153C35.4128 136.153 32.0277 138.797 31.2122 142.899C30.0509 148.73 33.8561 156.662 43.7646 164.693C41.7632 164.495 39.8606 164.371 38.0074 164.371C28.7166 164.371 21.8473 167.04 19.1539 171.71C17.6466 174.329 17.6466 177.319 19.1539 179.938C21.8473 184.609 28.7166 187.277 38.0074 187.277C39.8359 187.277 41.7632 187.178 43.7646 186.956C33.8561 194.987 30.0509 202.918 31.2122 208.75C32.0277 212.852 35.3881 215.496 39.8112 215.496C44.9508 215.496 52.1166 211.839 59.5542 202.696C58.294 215.224 61.4568 221.574 62.9146 223.773C64.9408 226.813 67.7084 228.493 70.723 228.493C73.6881 228.493 76.4803 226.813 78.5064 223.773ZM70.6983 224.861C64.249 224.861 57.8492 209.985 68.9438 180.309C69.4874 180.531 70.0805 180.655 70.6983 180.655C71.316 180.655 71.9091 180.507 72.4527 180.309C83.5473 209.985 77.1475 224.861 70.6983 224.861ZM66.2753 177.764C66.7695 178.876 67.6589 179.765 68.7708 180.235C58.1951 203.462 46.3839 211.863 39.7864 211.863C30.0261 211.863 31.8547 193.455 66.2753 177.764ZM38.0074 167.979C45.0991 167.979 54.5134 169.659 66.2011 174.033C65.9787 174.576 65.8551 175.169 65.8551 175.787C65.8551 176.405 66.0034 176.998 66.2011 177.542C54.4887 181.915 45.0991 183.595 38.0074 183.595C16.2135 183.62 16.1888 167.979 38.0074 167.979ZM39.7864 139.736C46.3839 139.736 58.1951 148.137 68.7708 171.364C67.6589 171.858 66.7695 172.723 66.2753 173.835C31.8547 158.144 30.0261 139.736 39.7864 139.736ZM70.6983 126.763C77.1475 126.763 83.5473 141.638 72.4527 171.315C71.9091 171.092 71.316 170.969 70.6983 170.969C70.0805 170.969 69.4874 171.117 68.9438 171.315C57.8492 141.638 64.249 126.763 70.6983 126.763ZM75.1212 173.835C74.627 172.723 73.7375 171.834 72.6255 171.364C83.2013 148.137 95.0126 139.736 101.61 139.736C111.37 139.736 109.542 158.144 75.1212 173.835ZM103.389 183.62C96.2974 183.62 86.8831 181.94 75.1954 177.566C75.4178 177.023 75.5414 176.43 75.5414 175.812C75.5414 175.194 75.3931 174.601 75.1954 174.058C86.9078 169.684 96.2974 168.004 103.389 168.004C125.183 167.979 125.208 183.62 103.389 183.62ZM101.61 211.863C95.0126 211.863 83.2013 203.462 72.6255 180.235C73.7375 179.741 74.627 178.876 75.1212 177.764C109.542 193.455 111.37 211.863 101.61 211.863Z" fill="#6BC9C6"/>
<path d="M70.698 220.386C73.3864 220.386 75.5657 218.207 75.5657 215.518C75.5657 212.83 73.3864 210.65 70.698 210.65C68.0095 210.65 65.8301 212.83 65.8301 215.518C65.8301 218.207 68.0095 220.386 70.698 220.386Z" fill="#6BC9C6"/>
<path d="M70.698 140.971C73.3864 140.971 75.5657 138.791 75.5657 136.103C75.5657 133.414 73.3864 131.235 70.698 131.235C68.0095 131.235 65.8301 133.414 65.8301 136.103C65.8301 138.791 68.0095 140.971 70.698 140.971Z" fill="#6BC9C6"/>
<path d="M110.41 170.944C107.717 170.944 105.542 173.118 105.542 175.811C105.542 178.505 107.717 180.679 110.41 180.679C113.103 180.679 115.278 178.505 115.278 175.811C115.278 173.118 113.103 170.944 110.41 170.944Z" fill="#6BC9C6"/>
<path d="M30.9898 180.651C33.6832 180.651 35.8575 178.477 35.8575 175.784C35.8575 173.09 33.6832 170.916 30.9898 170.916C28.2964 170.916 26.1221 173.09 26.1221 175.784C26.1221 178.477 28.2964 180.651 30.9898 180.651Z" fill="#6BC9C6"/>
<path d="M98.7711 152.584C101.459 152.584 103.639 150.405 103.639 147.716C103.639 145.028 101.459 142.849 98.7711 142.849C96.0826 142.849 93.9033 145.028 93.9033 147.716C93.9033 150.405 96.0826 152.584 98.7711 152.584Z" fill="#6BC9C6"/>
<path d="M39.1946 200.447C37.2919 202.35 37.2919 205.414 39.1946 207.317C41.0972 209.219 44.1611 209.219 46.0638 207.317C47.9664 205.414 47.9664 202.35 46.0638 200.447C44.1611 198.545 41.0725 198.545 39.1946 200.447Z" fill="#6BC9C6"/>
<path d="M102.204 207.317C104.106 205.414 104.106 202.35 102.204 200.447C100.301 198.545 97.2369 198.545 95.3342 200.447C93.4316 202.35 93.4316 205.414 95.3342 207.317C97.2369 209.219 100.326 209.219 102.204 207.317Z" fill="#6BC9C6"/>
<path d="M39.1946 144.281C37.2919 146.184 37.2919 149.248 39.1946 151.15C41.0972 153.053 44.1611 153.053 46.0638 151.15C47.9664 149.248 47.9664 146.184 46.0638 144.281C44.1611 142.403 41.0725 142.403 39.1946 144.281Z" fill="#6BC9C6"/>
<path d="M113.05 228.518H18.041V333.114C18.387 267.856 64.1493 233.015 113.05 228.518Z" fill="#F6AC1B"/>
<path d="M53.8447 333.88H123.402V263.828C88.5371 264.05 53.8447 287.401 53.8447 333.88Z" fill="#F6AC1B"/>
<path d="M113.051 228.518C64.1505 232.99 18.4129 267.856 18.0423 333.114C18.0423 333.361 18.0176 333.608 18.0176 333.88H53.8466C53.8466 287.401 88.539 264.05 123.404 263.828V228.518H113.051Z" fill="#6BC9C6"/>
<path d="M88.115 348.285C88.6586 348.285 89.1528 348.458 89.5976 348.705L104.423 333.88H72.0537L86.7807 348.607C87.2008 348.409 87.6455 348.285 88.115 348.285Z" fill="#C31632"/>
<path d="M53.0037 348.285C53.5473 348.285 54.0415 348.458 54.4862 348.705L69.3121 333.88H36.9424L51.6693 348.607C52.0894 348.409 52.5342 348.285 53.0037 348.285Z" fill="#C31632"/>
<path d="M32.3967 368.868C32.3967 368.373 32.5202 367.929 32.7179 367.508L18.0156 352.806V385.176L32.8167 370.375C32.5943 369.905 32.3967 369.411 32.3967 368.868Z" fill="#C31632"/>
<path d="M18.0156 333.88V350.064L34.2005 333.88H18.0156Z" fill="#C31632"/>
<path d="M123.376 439.24V423.055L107.191 439.24H123.376Z" fill="#C31632"/>
<path d="M18.0156 439.24H34.2005L18.0156 423.055V439.24Z" fill="#C31632"/>
<path d="M88.2896 424.711C87.7954 424.711 87.3506 424.588 86.9306 424.365L72.0801 439.216H104.45L89.6239 424.39C89.2039 424.588 88.7838 424.711 88.2896 424.711Z" fill="#C31632"/>
<path d="M85.4743 420.266L72.0569 406.848C71.6368 407.071 71.1674 407.219 70.6485 407.219C70.1543 407.219 69.7095 407.096 69.2894 406.873L55.9462 420.216C56.1439 420.636 56.2922 421.081 56.2922 421.575C56.2922 422.119 56.1192 422.588 55.8721 423.033L70.6732 437.834L85.5237 422.984C85.3013 422.539 85.1284 422.07 85.1284 421.551C85.1778 421.106 85.3013 420.661 85.4743 420.266Z" fill="#C31632"/>
<path d="M67.5343 404.078C67.5343 403.56 67.6825 403.09 67.9049 402.67L54.537 389.302C54.0675 389.574 53.5733 389.747 53.005 389.747C52.5108 389.747 52.066 389.623 51.646 389.426L38.3274 402.744C38.5251 403.164 38.6487 403.609 38.6487 404.103C38.6487 404.597 38.5004 405.067 38.3027 405.487L51.6954 418.879C52.1402 418.632 52.6344 418.459 53.1533 418.459C53.6722 418.459 54.1416 418.632 54.5864 418.855L67.9049 405.536C67.6825 405.092 67.5343 404.622 67.5343 404.078Z" fill="#C31632"/>
<path d="M50.3606 420.266L36.9433 406.848C36.5232 407.071 36.0537 407.219 35.5348 407.219C35.0406 407.219 34.5959 407.095 34.1758 406.898L19.3994 421.674L35.5843 437.859L50.4348 423.009C50.2124 422.564 50.0394 422.094 50.0394 421.575C50.0394 421.106 50.163 420.661 50.3606 420.266Z" fill="#C31632"/>
<path d="M102.644 404.078C102.644 403.56 102.793 403.115 103.015 402.67L89.6471 389.302C89.2023 389.574 88.6834 389.747 88.1151 389.747C87.6209 389.747 87.1761 389.623 86.756 389.401L73.4375 402.719C73.6352 403.139 73.7834 403.584 73.7834 404.078C73.7834 404.573 73.6352 405.042 73.4375 405.462L86.8302 418.855C87.275 418.608 87.7691 418.435 88.288 418.435C88.8069 418.435 89.2764 418.583 89.7212 418.83L103.04 405.512C102.817 405.091 102.644 404.622 102.644 404.078Z" fill="#C31632"/>
<path d="M105.785 407.218C105.291 407.218 104.846 407.094 104.426 406.872L91.0829 420.215C91.2806 420.635 91.4289 421.08 91.4289 421.574C91.4289 422.118 91.2559 422.587 91.0088 423.032L105.81 437.833L121.995 421.648L107.169 406.822C106.774 407.069 106.304 407.218 105.785 407.218Z" fill="#C31632"/>
<path d="M107.191 333.88L123.376 350.064V333.88H107.191Z" fill="#C31632"/>
<path d="M90.9583 350.113C91.1313 350.509 91.2548 350.954 91.2548 351.398C91.2548 351.868 91.1313 352.313 90.9336 352.708L104.326 366.101C104.771 365.878 105.24 365.705 105.759 365.705C106.303 365.705 106.797 365.878 107.242 366.125L121.969 351.398L105.784 335.214L90.9583 350.113Z" fill="#C31632"/>
<path d="M105.784 372.006C105.315 372.006 104.895 371.883 104.499 371.71L90.9336 385.275C91.1313 385.695 91.2795 386.14 91.2795 386.634C91.2795 387.079 91.1807 387.499 91.0077 387.894L104.425 401.312C104.845 401.089 105.315 400.966 105.809 400.966C106.328 400.966 106.797 401.114 107.242 401.361L122.043 386.56L107.168 371.685C106.723 371.883 106.278 372.006 105.784 372.006Z" fill="#C31632"/>
<path d="M35.5312 400.968C36.0501 400.968 36.5196 401.141 36.9644 401.364L50.2582 388.07C50.0358 387.625 49.8628 387.156 49.8628 386.637C49.8628 386.068 50.0605 385.574 50.3076 385.105L36.8655 371.663C36.4455 371.86 36.0007 371.984 35.5065 371.984C35.037 371.984 34.617 371.86 34.2216 371.687L19.3711 386.538L34.1228 401.29C34.5675 401.092 35.037 400.968 35.5312 400.968Z" fill="#C31632"/>
<path d="M73.786 368.869C73.786 369.387 73.613 369.882 73.3906 370.302L86.8574 383.768C87.2527 383.596 87.6728 383.497 88.1176 383.497C88.6365 383.497 89.106 383.67 89.5507 383.892L103.067 370.376C102.82 369.931 102.647 369.437 102.647 368.893C102.647 368.399 102.77 367.954 102.968 367.559L89.5755 354.166C89.1307 354.413 88.6612 354.586 88.1176 354.586C87.6481 354.586 87.228 354.463 86.8327 354.29L73.5142 367.608C73.6871 367.979 73.786 368.399 73.786 368.869Z" fill="#C31632"/>
<path d="M32.3967 404.078C32.3967 403.559 32.5449 403.09 32.7673 402.67L18.0156 387.918V420.288L32.792 405.511C32.5696 405.091 32.3967 404.622 32.3967 404.078Z" fill="#C31632"/>
<path d="M72.0071 371.685C71.587 371.883 71.1422 372.006 70.6728 372.006C70.2033 372.006 69.7832 371.883 69.3879 371.71L55.8223 385.275C56.0199 385.695 56.1435 386.14 56.1435 386.634C56.1435 387.079 56.0446 387.499 55.8717 387.894L69.289 401.312C69.7091 401.089 70.1786 400.966 70.6728 400.966C71.1917 400.966 71.6612 401.139 72.1059 401.361L85.3997 388.067C85.1774 387.623 85.0044 387.153 85.0044 386.634C85.0044 386.066 85.202 385.572 85.4491 385.102L72.0071 371.685Z" fill="#C31632"/>
<path d="M108.923 368.87C108.923 369.389 108.75 369.883 108.527 370.303L123.378 385.154V352.784L108.626 367.536C108.799 367.981 108.923 368.401 108.923 368.87Z" fill="#C31632"/>
<path d="M53.1783 424.711C52.6841 424.711 52.2393 424.588 51.8193 424.365L36.9688 439.216H69.3384L54.5126 424.39C54.0926 424.588 53.6478 424.711 53.1783 424.711Z" fill="#C31632"/>
<path d="M108.924 404.078C108.924 404.572 108.776 405.042 108.578 405.462L123.404 420.288V387.918L108.603 402.719C108.776 403.139 108.924 403.609 108.924 404.078Z" fill="#C31632"/>
<path d="M38.6727 368.869C38.6727 369.387 38.4997 369.857 38.2773 370.302L51.7441 383.768C52.1395 383.596 52.5596 383.497 53.0043 383.497C53.5232 383.497 53.9927 383.67 54.4375 383.892L67.9537 370.376C67.7066 369.931 67.5336 369.437 67.5336 368.893C67.5336 368.399 67.6571 367.954 67.8548 367.559L54.4622 354.166C54.0174 354.413 53.5479 354.586 53.0043 354.586C52.5348 354.586 52.1148 354.463 51.7194 354.29L38.3762 367.633C38.5492 367.979 38.6727 368.399 38.6727 368.869Z" fill="#C31632"/>
<path d="M35.5348 365.728C36.0784 365.728 36.5726 365.901 37.0174 366.148L50.2865 352.879C50.0394 352.434 49.8664 351.94 49.8664 351.396C49.8664 350.852 50.0394 350.383 50.2865 349.938L35.5843 335.236L19.3994 351.421L34.1017 366.123C34.5465 365.901 35.0159 365.728 35.5348 365.728Z" fill="#C31632"/>
<path d="M69.2162 366.123C69.661 365.901 70.1305 365.728 70.6494 365.728C71.193 365.728 71.6871 365.901 72.1319 366.148L85.401 352.879C85.1539 352.434 84.981 351.94 84.981 351.396C84.981 350.852 85.1539 350.383 85.401 349.938L70.6988 335.236L55.8236 350.111C55.9965 350.506 56.1201 350.927 56.1201 351.396C56.1201 351.865 55.9965 352.31 55.7988 352.706L69.2162 366.123Z" fill="#C31632"/>
<path d="M104.449 333.88L89.623 348.705C89.1782 348.458 88.684 348.285 88.1404 348.285C87.6709 348.285 87.2262 348.409 86.8308 348.607L72.1038 333.88H69.3363L54.5105 348.705C54.0658 348.458 53.5716 348.285 53.028 348.285C52.5585 348.285 52.1137 348.409 51.7183 348.607L36.9914 333.88H34.2239L18.0391 350.064V352.832L32.7413 367.534C32.5436 367.954 32.4201 368.399 32.4201 368.893C32.4201 369.437 32.5931 369.931 32.8402 370.376L18.0391 385.177V387.944L32.7907 402.696C32.5683 403.116 32.4201 403.586 32.4201 404.105C32.4201 404.623 32.593 405.093 32.8154 405.538L18.0391 420.314V423.082L34.2239 439.266H36.9914L51.8419 424.416C52.262 424.614 52.7067 424.762 53.2009 424.762C53.6704 424.762 54.1152 424.638 54.5105 424.441L69.3363 439.266H72.1038L86.9543 424.416C87.3744 424.614 87.8192 424.762 88.3134 424.762C88.7828 424.762 89.2276 424.638 89.623 424.441L104.449 439.266H107.216L123.401 423.082V420.314L108.575 405.488C108.798 405.068 108.921 404.599 108.921 404.105C108.921 403.61 108.798 403.166 108.575 402.745L123.376 387.944V385.177L108.526 370.326C108.748 369.882 108.921 369.412 108.921 368.893C108.921 368.424 108.798 368.004 108.625 367.608L123.376 352.857V350.089L107.192 333.904H104.449V333.88ZM86.8308 354.24C87.2262 354.413 87.6709 354.537 88.1157 354.537C88.6593 354.537 89.1288 354.364 89.5736 354.117L102.966 367.509C102.769 367.93 102.645 368.374 102.645 368.844C102.645 369.387 102.818 369.882 103.065 370.326L89.5488 383.843C89.1041 383.62 88.6346 383.447 88.1157 383.447C87.6709 383.447 87.2509 383.546 86.8555 383.719L73.3887 370.252C73.6111 369.808 73.7841 369.338 73.7841 368.819C73.7841 368.35 73.6605 367.93 73.4876 367.534L86.8308 354.24ZM85.3729 388.068L72.0791 401.362C71.6343 401.139 71.1649 400.966 70.646 400.966C70.1518 400.966 69.6823 401.115 69.2622 401.312L55.8449 387.895C56.0178 387.5 56.1167 387.08 56.1167 386.635C56.1167 386.141 55.9931 385.696 55.7954 385.276L69.361 371.71C69.7564 371.883 70.2012 372.007 70.646 372.007C71.1402 372.007 71.5849 371.883 71.9803 371.685L85.4223 385.127C85.1505 385.572 84.9776 386.091 84.9776 386.659C84.9776 387.154 85.1505 387.623 85.3729 388.068ZM55.8449 350.114L70.7201 335.239L85.4223 349.941C85.1752 350.386 85.0023 350.855 85.0023 351.399C85.0023 351.942 85.1752 352.437 85.4223 352.881L72.1533 366.15C71.7085 365.903 71.2143 365.73 70.6707 365.73C70.1518 365.73 69.6576 365.903 69.2375 366.126L55.8449 352.733C56.0425 352.338 56.1661 351.893 56.1661 351.424C56.1414 350.954 56.0178 350.509 55.8449 350.114ZM51.7183 354.24C52.1137 354.413 52.5338 354.537 53.0033 354.537C53.5469 354.537 54.0163 354.364 54.4611 354.117L67.8538 367.509C67.6561 367.93 67.5325 368.374 67.5325 368.844C67.5325 369.387 67.7055 369.882 67.9526 370.326L54.4364 383.843C53.9916 383.62 53.5222 383.447 53.0033 383.447C52.5585 383.447 52.1384 383.546 51.743 383.719L38.2763 370.252C38.4987 369.808 38.6716 369.338 38.6716 368.819C38.6716 368.35 38.5481 367.93 38.3751 367.534L51.7183 354.24ZM19.3981 351.424L35.5829 335.239L50.2852 349.941C50.0381 350.386 49.8651 350.855 49.8651 351.399C49.8651 351.942 50.0381 352.437 50.2852 352.881L37.0161 366.15C36.5713 365.903 36.0771 365.73 35.5335 365.73C35.0146 365.73 34.5451 365.903 34.1003 366.126L19.3981 351.424ZM19.3981 386.561L34.2486 371.71C34.644 371.883 35.064 372.007 35.5335 372.007C36.0277 372.007 36.4725 371.883 36.8925 371.685L50.3346 385.127C50.0628 385.597 49.8898 386.091 49.8898 386.659C49.8898 387.178 50.0628 387.648 50.2852 388.093L36.9914 401.386C36.5466 401.164 36.0771 400.991 35.5582 400.991C35.064 400.991 34.5945 401.139 34.1745 401.337L19.3981 386.561ZM35.5829 437.858L19.3981 421.673L34.1745 406.897C34.5945 407.094 35.0393 407.218 35.5335 407.218C36.0524 407.218 36.5219 407.07 36.9419 406.847L50.3593 420.265C50.1616 420.66 50.0381 421.105 50.0381 421.574C50.0381 422.093 50.211 422.563 50.4334 423.007L35.5829 437.858ZM53.1762 418.436C52.6326 418.436 52.1631 418.609 51.7183 418.856L38.3257 405.464C38.5234 405.044 38.6716 404.599 38.6716 404.08C38.6716 403.586 38.5481 403.141 38.3504 402.721L51.6689 389.402C52.089 389.6 52.5338 389.724 53.028 389.724C53.5963 389.724 54.0905 389.526 54.5599 389.279L67.9279 402.647C67.7055 403.067 67.5573 403.536 67.5573 404.055C67.5573 404.574 67.7302 405.044 67.9526 405.488L54.6341 418.807C54.1646 418.609 53.6951 418.436 53.1762 418.436ZM70.6954 437.858L55.8943 423.057C56.1414 422.612 56.3143 422.118 56.3143 421.599C56.3143 421.105 56.1908 420.66 55.9684 420.24L69.3116 406.897C69.7317 407.094 70.1765 407.243 70.6707 407.243C71.1896 407.243 71.6591 407.094 72.0791 406.872L85.4965 420.289C85.2988 420.685 85.1752 421.129 85.1752 421.599C85.1752 422.118 85.3482 422.587 85.5706 423.032L70.6954 437.858ZM88.2887 418.436C87.745 418.436 87.2756 418.609 86.8308 418.856L73.4381 405.464C73.6605 405.044 73.7841 404.574 73.7841 404.08C73.7841 403.586 73.6605 403.141 73.4381 402.721L86.7566 389.402C87.1767 389.6 87.6215 389.748 88.1157 389.748C88.684 389.748 89.1782 389.551 89.6477 389.303L103.016 402.671C102.793 403.091 102.645 403.561 102.645 404.08C102.645 404.599 102.793 405.068 103.04 405.513L89.7218 418.832C89.3018 418.609 88.8323 418.436 88.2887 418.436ZM121.993 421.673L105.808 437.858L91.0067 423.057C91.2538 422.612 91.4268 422.118 91.4268 421.599C91.4268 421.105 91.3032 420.66 91.0808 420.24L104.424 406.897C104.844 407.094 105.289 407.243 105.783 407.243C106.302 407.243 106.747 407.094 107.192 406.872L121.993 421.673ZM121.993 386.561L107.192 401.362C106.747 401.139 106.277 400.966 105.758 400.966C105.264 400.966 104.795 401.115 104.375 401.312L90.9573 387.895C91.1303 387.5 91.2291 387.08 91.2291 386.635C91.2291 386.141 91.1056 385.696 90.8832 385.276L104.449 371.71C104.844 371.883 105.289 372.007 105.734 372.007C106.228 372.007 106.673 371.883 107.068 371.685L121.993 386.561ZM107.266 366.175C106.821 365.928 106.327 365.755 105.783 365.755C105.264 365.755 104.77 365.928 104.35 366.15L90.9573 352.758C91.155 352.362 91.2785 351.918 91.2785 351.448C91.2785 350.979 91.155 350.559 90.982 350.163L105.857 335.288L122.042 351.473L107.266 366.175Z" fill="black"/>
<path d="M18.0391 544.628H36.1266L18.0391 526.541V544.628Z" fill="#C31632"/>
<path d="M18.0391 439.266V457.354L36.1266 439.266H18.0391Z" fill="#C31632"/>
<path d="M105.637 439.266L123.403 457.033V439.266H105.637Z" fill="#C31632"/>
<path d="M123.403 544.63V526.864L105.637 544.63H123.403Z" fill="#C31632"/>
<path d="M36.1266 439.266L18.0391 457.354V474.379L53.1761 439.266H36.1266Z" fill="#6BC9C6"/>
<path d="M18.0391 526.542L36.1266 544.63H53.1761L18.0391 509.517V526.542Z" fill="#6BC9C6"/>
<path d="M88.291 439.266L123.404 474.379V457.033L105.637 439.266H88.291Z" fill="#6BC9C6"/>
<path d="M105.637 544.63L123.404 526.864V509.517L88.291 544.63H105.637Z" fill="#6BC9C6"/>
<path d="M53.1761 439.266L18.0391 474.379V491.947L70.7201 439.266H53.1761Z" fill="#C31632"/>
<path d="M18.0391 509.517L53.1761 544.63H70.7201L18.0391 491.949V509.517Z" fill="#C31632"/>
<path d="M70.7217 439.266L123.403 491.947V474.379L88.2902 439.266H70.7217Z" fill="#C31632"/>
<path d="M88.2902 544.63L123.403 509.517V491.949L70.7217 544.63H88.2902Z" fill="#C31632"/>
<path d="M18.0391 491.947L70.7201 544.629L123.401 491.947L70.7201 439.266L18.0391 491.947ZM70.7201 527.06L35.6076 491.947L70.7201 456.835L105.832 491.947L70.7201 527.06Z" fill="#6BC9C6"/>
<path d="M70.7081 456.839L35.5889 491.958L70.708 527.077L105.827 491.958L70.7081 456.839Z" fill="white"/>
<path d="M63.6325 650.114C68.5003 647.198 73.1456 643.936 77.5439 640.378L14.9296 565.755L63.6325 650.114Z" fill="#C31632"/>
<path d="M44.9515 659.234C50.2394 657.183 55.3543 654.786 60.2715 652.043L11.7417 568.005L44.9515 659.234Z" fill="#C31632"/>
<path d="M80.5599 637.884C84.8841 634.177 88.9365 630.174 92.6924 625.9L17.7232 562.989L80.5599 637.884Z" fill="#C31632"/>
<path d="M4.40284 667.461C10.1108 667.288 15.6951 666.72 21.1807 665.805L4.40285 570.673L4.40284 667.461Z" fill="#C31632"/>
<path d="M25.0125 665.113C30.5969 663.976 36.0083 662.469 41.2715 660.616L8.16054 569.684L25.0125 665.113Z" fill="#C31632"/>
<path d="M95.2341 622.934C98.8664 618.535 102.202 613.865 105.217 608.997L19.9437 559.776L95.2341 622.934Z" fill="#C31632"/>
<path d="M121.552 565.93C122.54 560.272 123.133 554.465 123.331 548.559L22.985 548.559L121.552 565.93Z" fill="#C31632"/>
<path d="M107.195 605.639C110.036 600.672 112.557 595.483 114.682 590.096L21.6003 556.219L107.195 605.639Z" fill="#C31632"/>
<path d="M116.114 586.462C118.066 581.05 119.648 575.491 120.858 569.758L22.6374 552.437L116.114 586.462Z" fill="#C31632"/>
<path d="M4.40248 667.462L4.40249 570.674L21.1803 665.806C22.4652 665.584 23.7502 665.386 25.0103 665.114L8.18307 569.661L41.294 660.592C42.5295 660.148 43.7403 659.703 44.9511 659.233L11.7413 568.005L60.271 652.043C61.4077 651.4 62.5443 650.758 63.6562 650.091L14.9535 565.732L77.5678 640.355C78.5809 639.54 79.5693 638.7 80.5577 637.859L17.721 562.964L92.6901 625.875C93.5549 624.912 94.4198 623.923 95.2352 622.935L19.9448 559.752L105.218 608.974C105.91 607.862 106.552 606.75 107.195 605.613L21.6004 556.194L114.682 590.071C115.151 588.86 115.645 587.649 116.09 586.439L22.6135 552.413L120.834 569.735C121.106 568.475 121.304 567.19 121.526 565.905L22.9594 548.534L123.305 548.534C123.355 547.224 123.404 545.939 123.404 544.63L18.0422 544.63C18.0422 554.316 10.1846 562.198 0.473663 562.198L0.473658 667.561C1.80798 667.561 3.09287 667.511 4.40248 667.462Z" fill="black"/>
</svg>
