<svg width="123" height="666" viewBox="0 0 123 666" fill="none" xmlns="http://www.w3.org/2000/svg">
<path d="M101.523 20.8725C99.7492 24.4455 98.0489 27.8461 99.5274 33.3412C101.006 38.8364 104.16 40.9309 107.487 43.1487C110.961 45.4404 114.879 48.0524 116.654 54.6318C118.403 61.2112 116.309 65.4496 114.46 69.1705C112.686 72.7683 110.986 76.1442 112.464 81.664C113.943 87.1838 117.097 89.2783 120.424 91.4961C121.114 91.9643 121.828 92.4571 122.543 92.9746L122.543 91.0525C120.448 88.6869 118.65 85.6806 118.231 80.9247C117.664 74.4686 120.177 70.723 122.543 67.4949L122.543 45.6129C122.001 45.0708 121.459 44.5287 120.892 44.0112C117.861 41.1281 114.46 37.8753 113.869 31.0988C113.278 24.3223 116.087 20.5275 118.551 17.1762C120.301 14.8105 121.976 12.5188 122.543 9.19219L122.543 4.26381C122.321 2.63745 121.902 1.2575 121.335 0.0746908C114.682 0.148612 108.177 0.740028 101.819 1.82427C102.558 3.10565 103.224 4.58416 103.692 6.35838C105.466 12.9131 103.372 17.1269 101.523 20.8725Z" fill="#C31632"/>
<path d="M121.165 80.6524C121.362 82.7963 121.855 84.4966 122.57 85.9258L122.57 72.8902C121.535 74.9601 120.87 77.3504 121.165 80.6524Z" fill="#C31632"/>
<path d="M116.801 30.8264C117.269 36.2476 119.807 38.8843 122.567 41.521L122.567 16.5834C122.025 17.3966 121.483 18.1605 120.916 18.8997C118.551 22.0785 116.308 25.1341 116.801 30.8264Z" fill="#C31632"/>
<path d="M16.8803 94.1063C19.0981 97.433 21.1927 100.587 26.6878 102.066C32.183 103.544 35.5836 101.844 39.1566 100.07C42.8776 98.2215 47.1159 96.1269 53.6953 97.8765C60.2747 99.6507 62.8868 103.569 65.1785 107.043C67.3962 110.37 69.4908 113.524 75.0105 115.003C80.5303 116.481 83.9063 114.805 87.504 113.007C91.2496 111.158 95.4633 109.064 102.043 110.813C104.384 111.43 106.207 112.341 107.71 113.401C107.883 113.105 108.055 112.809 108.253 112.538C107.267 111.676 106.084 110.887 104.581 110.197C99.406 107.783 95.7837 108.867 91.9396 109.976C87.9476 111.158 83.4135 112.489 77.2284 109.606C71.0679 106.723 69.1704 102.411 67.4948 98.5911C65.8931 94.9195 64.3652 91.445 59.2151 89.0547C54.0403 86.6398 50.418 87.6994 46.5739 88.8576C42.5819 90.0404 38.0477 91.3711 31.8872 88.488C25.7268 85.6048 23.8294 81.2925 22.1537 77.473C20.552 73.8014 19.0488 70.3269 13.874 67.9366C13.5783 67.7888 13.3072 67.7148 13.0115 67.5916C10.1777 73.21 7.78753 79.0501 5.84082 85.112C12.0752 86.9109 14.6379 90.7057 16.8803 94.1063Z" fill="#C31632"/>
<path d="M86.6916 121.731C86.2974 122.002 85.9031 122.297 85.5088 122.593L105.05 122.593C105.05 121.657 105.173 120.745 105.321 119.833C103.596 118.7 101.501 117.862 98.6183 117.615C92.9507 117.123 89.9197 119.365 86.6916 121.731Z" fill="#C31632"/>
<path d="M12.1239 113.007C14.8838 115.915 17.4958 118.65 23.1635 119.143C28.8311 119.611 31.8867 117.394 35.0901 115.028C38.4414 112.564 42.2609 109.755 49.0128 110.346C55.7893 110.937 59.042 114.363 61.9251 117.369C63.9211 119.463 65.8432 121.435 68.8495 122.593L79.692 122.593C81.6387 121.804 83.265 120.622 84.9406 119.39C88.2919 116.925 92.1114 114.116 98.8879 114.708C101.894 114.979 104.186 115.816 106.083 116.925C106.182 116.63 106.231 116.334 106.354 116.063C105.048 115.077 103.447 114.239 101.303 113.673C95.7831 112.194 92.4071 113.87 88.8094 115.644C85.0885 117.492 80.8501 119.587 74.2707 117.837C67.6913 116.063 65.0793 112.145 62.7876 108.67C60.5698 105.344 58.4752 102.19 52.9801 100.711C47.4849 99.2325 44.0844 100.933 40.5113 102.707C36.7904 104.555 32.552 106.65 25.9726 104.9C19.3932 103.151 16.7812 99.2079 14.4895 95.7334C12.321 92.4806 10.2511 89.4004 5.05166 87.8972C3.30209 93.8606 1.99603 99.9964 1.1582 106.28C6.60406 107.266 9.53647 110.297 12.1239 113.007Z" fill="#C31632"/>
<path d="M59.8305 119.39C57.0706 116.482 54.4586 113.747 48.7663 113.254C43.074 112.761 40.0431 115.003 36.8396 117.369C33.4884 119.833 29.6935 122.642 22.917 122.051C16.1405 121.459 12.8878 118.034 10.0047 115.028C7.54049 112.441 5.19948 110.001 0.739301 109.139C0.246464 113.549 -1.99269e-07 118.034 0 122.593L63.1818 122.593C61.9251 121.558 60.8408 120.449 59.8305 119.39Z" fill="#C31632"/>
<path d="M24.8627 76.292C26.4644 79.9637 27.9675 83.4382 33.1423 85.8284C38.2925 88.2433 41.9395 87.1591 45.7836 86.0256C49.7756 84.8428 54.3097 83.5121 60.4702 86.3952C66.6307 89.2783 68.5281 93.5906 70.2038 97.4101C71.8055 101.082 73.3332 104.556 78.4834 106.947C83.6582 109.361 87.2806 108.302 91.1247 107.168C95.1167 106.01 99.6508 104.655 105.836 107.538C107.585 108.351 108.965 109.288 110.124 110.273C110.395 110.002 110.69 109.78 110.986 109.534C110.296 108.795 109.458 108.055 108.448 107.365C103.766 104.088 100.02 104.507 96.0284 104.951C91.8639 105.419 87.182 105.936 81.613 102.043C76.0439 98.1494 74.935 93.5413 73.9493 89.5001C73.0129 85.6067 72.1258 81.935 67.4439 78.6577C62.7866 75.3803 59.0164 75.8238 55.049 76.2674C50.9092 76.7356 46.2272 77.2531 40.6335 73.3596C35.0644 69.4662 33.9555 64.8582 32.9698 60.8169C32.0334 56.9235 31.1464 53.2519 26.4644 49.9745C25.8484 49.5309 25.2323 49.1613 24.6409 48.8656C20.8214 53.9418 17.3962 59.3138 14.3652 64.9568C14.6117 65.0553 14.8581 65.1293 15.1291 65.2525C21.2896 68.1356 23.1871 72.4725 24.8627 76.292Z" fill="#C31632"/>
<path d="M49.3823 46.1288C49.6288 50.1207 49.8752 53.891 53.8918 57.9322C57.9331 61.9735 61.7033 62.1953 65.6953 62.4417C69.8597 62.6881 74.5664 63.0085 79.3715 67.8136C84.1767 72.6188 84.4724 77.35 84.7435 81.4899C84.9899 85.4818 85.2363 89.2521 89.2529 93.2933C93.2942 97.3346 97.0644 97.581 101.056 97.8274C105.221 98.0985 109.927 98.3942 114.757 103.199C115.694 104.136 116.482 105.072 117.098 106.009C117.493 105.885 117.887 105.737 118.306 105.639C118.01 105.072 117.665 104.505 117.271 103.939C113.993 99.2567 110.322 98.3696 106.428 97.4332C102.387 96.4475 97.779 95.3386 93.8856 89.7695C89.9922 84.2005 90.5097 79.4939 90.9779 75.354C91.4214 71.3621 91.8403 67.6165 88.5876 62.9345C85.3102 58.2772 81.6386 57.3901 77.7452 56.4291C73.7039 55.4434 69.0959 54.3345 65.2025 48.7654C61.309 43.1964 61.8265 38.4898 62.2947 34.3499C62.7382 30.3579 63.1572 26.6124 59.9045 21.9304C59.0174 20.6737 58.1056 19.688 57.1445 18.8995C51.6987 22.3493 46.5239 26.2181 41.7187 30.4565C42.4826 31.0233 43.2465 31.6393 44.0351 32.4032C48.8403 37.2577 49.1359 41.9889 49.3823 46.1288Z" fill="#C31632"/>
<path d="M62.297 20.3045C66.1904 25.8736 65.673 30.5802 65.2048 34.72C64.7613 38.6874 64.3424 42.4576 67.5951 47.1149C70.8725 51.7722 74.5441 52.684 78.4375 53.6204C82.4788 54.606 87.0868 55.7149 90.9802 61.284C94.8736 66.853 94.3561 71.5596 93.8879 75.6995C93.4444 79.6915 93.0255 83.437 96.2782 88.119C99.5556 92.8009 103.227 93.6881 107.121 94.6244C111.162 95.6101 115.77 96.719 119.663 102.288C120.378 103.298 120.92 104.259 121.364 105.22C121.758 105.196 122.152 105.097 122.546 105.097L122.546 104.925C122.374 104.432 122.251 103.964 122.004 103.446C119.589 98.2714 116.115 96.7683 112.443 95.1419C108.624 93.4663 104.287 91.5689 101.404 85.4084C98.5207 79.2479 99.8513 74.7138 101.034 70.7218C102.168 66.8777 103.227 63.2553 100.812 58.0805C98.3974 52.9304 94.9476 51.4026 91.2759 49.8009C87.4564 48.1252 83.1194 46.2524 80.261 40.0673C77.3779 33.9068 78.7086 29.3727 79.8914 25.3807C81.0249 21.5366 82.0845 17.9143 79.6696 12.7395C78.8811 11.0638 77.9939 9.80707 77.0082 8.77212C70.971 11.187 65.1555 14.0455 59.6357 17.3475C60.5968 18.1607 61.4592 19.1217 62.297 20.3045Z" fill="#C31632"/>
<path d="M35.8041 60.1514C36.7405 64.0448 37.6276 67.7165 42.3096 70.9939C46.9669 74.2712 50.7371 73.8277 54.7044 73.3841C58.8443 72.8913 63.5262 72.3984 69.1199 76.2919C74.689 80.1853 75.7979 84.7933 76.7835 88.8346C77.7199 92.728 78.6071 96.3996 83.289 99.677C87.971 102.954 91.7166 102.535 95.7086 102.092C99.8484 101.624 104.555 101.106 110.124 105C111.405 105.911 112.44 106.848 113.303 107.809C113.648 107.587 114.017 107.415 114.387 107.217C113.919 106.577 113.401 105.936 112.736 105.295C108.695 101.254 104.925 101.008 100.933 100.761C96.7682 100.49 92.0616 100.194 87.2317 95.3893C82.4266 90.5842 82.1308 85.8529 81.8598 81.7131C81.6133 77.7211 81.3669 73.9509 77.3257 69.9096C73.309 65.893 69.5142 65.6466 65.5222 65.4002C61.3578 65.1291 56.6511 64.8334 51.846 60.0282C47.0408 55.2231 46.7451 50.4918 46.474 46.352C46.2276 42.36 45.9812 38.5898 41.9645 34.5485C41.1267 33.7107 40.3136 33.07 39.4758 32.5279C34.7692 36.8649 30.4322 41.5714 26.4648 46.5984C27.0316 46.9187 27.5737 47.2391 28.1651 47.6334C33.7096 51.5021 34.8184 56.0855 35.8041 60.1514Z" fill="#C31632"/>
<path d="M82.746 26.1957C81.6125 30.0399 80.5529 33.6622 82.9678 38.837C85.3827 44.0118 88.8326 45.515 92.5042 47.1167C96.3237 48.7924 100.661 50.6651 103.519 56.8256C106.402 62.9861 105.072 67.5202 103.889 71.5368C102.755 75.3809 101.696 79.0033 104.111 84.1781C106.525 89.3529 110 90.856 113.672 92.4824C116.653 93.7884 119.931 95.2423 122.592 98.7415L122.592 96.7208C121.434 95.6859 120.152 94.8234 118.846 93.9609C115.372 91.6446 111.429 89.0325 109.68 82.4532C107.93 75.8738 110.025 71.6354 111.873 67.9145C113.647 64.3167 115.347 60.9408 113.869 55.421C112.39 49.9259 109.236 47.8313 105.909 45.6135C102.435 43.3218 98.4922 40.7098 96.7426 34.1304C94.993 27.551 97.0876 23.3373 98.9358 19.5917C100.71 16.0186 102.41 12.6181 100.932 7.12292C100.414 5.15156 99.6504 3.64841 98.7633 2.39168C92.3317 3.67306 86.048 5.42263 80.0107 7.66504C80.8732 8.72464 81.6864 10.006 82.401 11.5584C85.2595 17.6696 83.9288 22.2038 82.746 26.1957Z" fill="#C31632"/>
<path d="M122.569 -0.000137859C122.175 -0.000137841 121.756 0.0244999 121.361 0.0244999C121.928 1.20731 122.347 2.58726 122.569 4.21362L122.569 -0.000137859Z" fill="black"/>
<path d="M118.577 17.127C116.113 20.4783 113.304 24.2731 113.895 31.0496C114.487 37.8262 117.912 41.0789 120.918 43.962C121.485 44.5041 122.027 45.0216 122.569 45.5637L122.569 41.4732C119.809 38.8365 117.271 36.2244 116.803 30.7786C116.31 25.111 118.553 22.0554 120.918 18.8273C121.46 18.088 122.027 17.3241 122.569 16.5109L122.569 9.11837C122.002 12.4697 120.327 14.7614 118.577 17.127Z" fill="black"/>
<path d="M79.961 25.3803C78.7782 29.3723 77.4475 33.9064 80.3306 40.0669C83.2137 46.2273 87.5261 48.1248 91.3455 49.8004C95.0172 51.4021 98.467 52.9053 100.882 58.0801C103.297 63.2549 102.213 66.8772 101.104 70.7214C99.9209 74.7134 98.5903 79.2475 101.473 85.4079C104.357 91.5684 108.693 93.4658 112.513 95.1415C116.185 96.7432 119.659 98.271 122.074 103.446C122.32 103.963 122.419 104.431 122.616 104.924L122.616 98.7146C119.955 95.2401 116.677 93.7615 113.696 92.4555C110.024 90.8538 106.55 89.326 104.135 84.1512C101.72 78.9764 102.804 75.3541 103.913 71.5099C105.096 67.5179 106.426 62.9838 103.543 56.7987C100.66 50.6382 96.3479 48.7408 92.5284 47.0898C88.8567 45.4881 85.3822 43.9849 82.992 38.8101C80.5771 33.6353 81.6613 30.013 82.7702 26.1688C83.953 22.1769 85.2836 17.6428 82.4005 11.4823C81.6859 9.92984 80.8727 8.6731 80.0103 7.58886C79.0246 7.95849 78.0636 8.35275 77.1025 8.72238C78.0882 9.75734 78.9754 11.0141 79.7639 12.6897C82.1542 17.8892 81.0945 21.5362 79.961 25.3803Z" fill="black"/>
<path d="M22.1753 77.4502C23.851 81.2697 25.7238 85.6067 31.9089 88.4651C38.0694 91.3482 42.6035 89.9929 46.5954 88.8348C50.4396 87.7012 54.0619 86.6416 59.2367 89.0319C64.4115 91.4468 65.9147 94.8967 67.5165 98.5683C69.1921 102.388 71.0648 106.725 77.25 109.583C83.4104 112.466 87.9692 111.136 91.9612 109.953C95.8053 108.819 99.4277 107.76 104.602 110.175C106.106 110.865 107.288 111.678 108.274 112.516C108.841 111.727 109.457 110.963 110.122 110.273C108.964 109.263 107.584 108.351 105.835 107.538C99.6741 104.655 95.14 106.01 91.1234 107.168C87.2792 108.302 83.6568 109.361 78.4821 106.947C73.3073 104.532 71.8041 101.082 70.2024 97.4101C68.5268 93.5907 66.654 89.2537 60.4688 86.3952C54.3084 83.5368 49.7743 84.8674 45.7823 86.0256C41.9382 87.1591 38.3158 88.2187 33.141 85.8285C27.9662 83.4136 26.4631 79.9637 24.8614 76.292C23.1857 72.4726 21.3129 68.1356 15.1278 65.2771C14.8567 65.1539 14.6349 65.08 14.3639 64.9814C13.8957 65.8439 13.4768 66.7064 13.0332 67.5935C13.3289 67.7167 13.6 67.7906 13.8957 67.9384C19.0705 70.3287 20.5736 73.7786 22.1753 77.4502Z" fill="black"/>
<path d="M61.9475 117.369C59.0644 114.338 55.8117 110.937 49.0352 110.346C42.2833 109.755 38.4637 112.564 35.1124 115.028C31.8844 117.418 28.8534 119.636 23.1858 119.143C17.4935 118.65 14.9062 115.915 12.1463 113.007C9.55886 110.297 6.62647 107.266 1.13133 106.255C1.00812 107.216 0.860286 108.178 0.761718 109.139C5.2219 110.001 7.56283 112.441 10.027 115.028C12.9101 118.034 16.1629 121.459 22.9394 122.051C29.7159 122.642 33.5108 119.833 36.8621 117.369C40.0902 114.979 43.1211 112.736 48.7887 113.254C54.481 113.747 57.0684 116.482 59.8529 119.39C60.8632 120.449 61.9475 121.558 63.2043 122.593L68.9211 122.593C65.8409 121.459 63.9188 119.463 61.9475 117.369Z" fill="black"/>
<path d="M98.9118 19.5662C97.0637 23.2871 94.9691 27.5255 96.7187 34.1049C98.4683 40.6843 102.411 43.2963 105.885 45.588C109.212 47.8058 112.366 49.9004 113.845 55.3955C115.323 60.9153 113.648 64.2912 111.849 67.8889C110.001 71.6099 107.906 75.8483 109.656 82.4277C111.43 89.007 115.348 91.6191 118.822 93.9354C120.128 94.7979 121.41 95.6604 122.568 96.6953L122.568 92.9744C121.853 92.4569 121.139 91.9641 120.449 91.4959C117.122 89.2781 113.968 87.1835 112.49 81.6638C111.011 76.144 112.687 72.768 114.486 69.1703C116.334 65.4494 118.428 61.211 116.679 54.6316C114.929 48.0522 110.986 45.4402 107.512 43.1485C104.185 40.9307 101.031 38.8362 99.5526 33.341C98.0741 27.8459 99.7497 24.4453 101.549 20.8722C103.397 17.1513 105.491 12.9129 103.742 6.33351C103.273 4.53465 102.608 3.08077 101.869 1.79939C100.834 1.97189 99.799 2.14439 98.764 2.34152C99.6511 3.59826 100.39 5.12605 100.933 7.07276C102.362 12.5925 100.686 15.9685 98.9118 19.5662Z" fill="black"/>
<path d="M14.4371 95.71C16.7534 99.1845 19.3655 103.127 25.9202 104.877C32.4996 106.626 36.7133 104.532 40.4589 102.684C44.032 100.909 47.4326 99.2091 52.9277 100.688C58.4475 102.166 60.5174 105.32 62.7352 108.647C65.0515 112.121 67.6636 116.064 74.2183 117.814C80.7977 119.563 85.0361 117.469 88.757 115.621C92.3547 113.846 95.7307 112.171 101.25 113.649C103.394 114.216 104.996 115.054 106.302 116.04C106.672 115.128 107.14 114.241 107.657 113.428C106.154 112.368 104.331 111.456 101.99 110.84C95.4103 109.066 91.1719 111.185 87.451 113.033C83.8533 114.807 80.4773 116.508 74.9575 115.029C69.4378 113.551 67.3432 110.397 65.1255 107.07C62.8091 103.595 60.1971 99.6527 53.6423 97.9031C47.0629 96.1536 42.8492 98.2481 39.1036 100.096C35.5059 101.87 32.13 103.546 26.6348 102.092C21.1151 100.614 19.0451 97.4596 16.8273 94.1329C14.5849 90.757 12.0222 86.9375 5.81242 85.114C5.51672 86.0257 5.24567 86.9621 4.97461 87.8985C10.2233 89.4017 12.2932 92.4573 14.4371 95.71Z" fill="black"/>
<path d="M46.4747 46.3255C46.7457 50.4899 47.0414 55.1965 51.8466 60.0017C56.6518 64.8069 61.3584 65.1026 65.5229 65.3736C69.5149 65.6201 73.285 65.8665 77.3263 69.8831C81.3676 73.9244 81.5893 77.6946 81.8604 81.6866C82.1314 85.851 82.4272 90.5576 87.2324 95.3628C92.0375 100.168 96.7688 100.464 100.933 100.735C104.925 100.981 108.72 101.228 112.737 105.269C113.377 105.91 113.92 106.55 114.388 107.191C115.275 106.723 116.187 106.328 117.148 106.008C116.507 105.072 115.743 104.135 114.807 103.199C110.001 98.3938 105.27 98.0734 101.106 97.827C97.1137 97.5806 93.3189 97.3342 89.3023 93.2929C85.261 89.2516 85.0392 85.4814 84.7928 81.4894C84.5217 77.3249 84.226 72.6184 79.4209 67.8132C74.6157 63.008 69.9091 62.7123 65.7446 62.4413C61.7527 62.1948 57.9824 61.9484 53.9412 57.9318C49.8999 53.8905 49.6781 50.1203 49.4317 46.1283C49.1607 41.9638 48.8649 37.2572 44.0597 32.4521C43.2958 31.6882 42.5073 31.0475 41.7434 30.5054C41.0041 31.1707 40.2402 31.8114 39.501 32.5014C40.3142 33.0435 41.152 33.6842 41.9898 34.522C45.9818 38.5386 46.2283 42.3335 46.4747 46.3255Z" fill="black"/>
<path d="M98.8854 114.708C92.1089 114.092 88.2894 116.925 84.9381 119.39C83.2625 120.622 81.6608 121.804 79.6895 122.593L85.4802 122.593C85.8745 122.297 86.2688 122.026 86.6631 121.731C89.8912 119.365 92.9221 117.098 98.6144 117.615C101.498 117.862 103.592 118.7 105.317 119.833C105.489 118.823 105.736 117.862 106.056 116.925C104.183 115.816 101.916 114.979 98.8854 114.708Z" fill="black"/>
<path d="M32.9668 60.8162C33.9525 64.8575 35.0614 69.4655 40.6305 73.3589C46.1996 77.2523 50.8815 76.7349 55.046 76.2667C59.0134 75.8231 62.7836 75.4042 67.4409 78.6569C72.1228 81.9343 73.0099 85.6059 73.9463 89.4993C74.932 93.5406 76.0409 98.1486 81.61 102.042C87.179 105.96 91.8609 105.418 96.0254 104.95C99.9928 104.506 103.763 104.087 108.445 107.365C109.455 108.079 110.268 108.794 110.983 109.533C111.722 108.893 112.486 108.276 113.299 107.759C112.437 106.798 111.402 105.862 110.121 104.95C104.552 101.032 99.845 101.574 95.7051 102.042C91.7131 102.486 87.9676 102.905 83.2856 99.6272C78.6036 96.3498 77.7165 92.6781 76.7801 88.7847C75.7944 84.7435 74.6856 80.1354 69.1165 76.242C63.5475 72.3486 58.8655 72.8414 54.701 73.3343C50.7337 73.7778 46.9635 74.1967 42.3061 70.944C37.6242 67.6666 36.737 63.995 35.8006 60.1016C34.815 56.0603 33.7061 51.4523 28.1371 47.5588C27.5703 47.1646 27.0035 46.8196 26.4368 46.5239C25.8207 47.2878 25.2047 48.0517 24.6133 48.8402C25.2047 49.1606 25.8207 49.5056 26.4368 49.9491C31.1187 53.2511 32.0304 56.9228 32.9668 60.8162Z" fill="black"/>
<path d="M59.9016 21.98C63.1789 26.6373 62.7599 30.4075 62.2917 34.3995C61.8235 38.5393 61.3061 43.2459 65.1995 48.815C69.093 54.3841 73.701 55.4929 77.7423 56.4786C81.6357 57.415 85.3073 58.3021 88.5847 62.9841C91.862 67.666 91.4431 71.4116 90.9749 75.4036C90.5067 79.5434 89.9892 84.2254 93.8827 89.8191C97.8007 95.3882 102.384 96.5217 106.425 97.4827C110.319 98.4191 113.991 99.3309 117.268 103.988C117.687 104.58 118.007 105.146 118.303 105.688C119.288 105.442 120.299 105.319 121.334 105.245C120.89 104.284 120.348 103.323 119.633 102.313C115.715 96.7435 111.132 95.6346 107.091 94.6489C103.197 93.7125 99.5257 92.8008 96.2483 88.1434C92.971 83.4615 93.3899 79.7159 93.8581 75.7239C94.3263 71.5841 94.8437 66.8775 90.9503 61.3084C87.0569 55.7394 82.4735 54.6305 78.4076 53.6448C74.5141 52.7084 70.8425 51.8213 67.5651 47.1393C64.2878 42.482 64.7067 38.7118 65.1749 34.7445C65.6431 30.6046 66.1606 25.898 62.2672 20.329C61.4293 19.1462 60.5668 18.2098 59.7044 17.3719C58.8419 17.8894 57.9794 18.4315 57.1416 18.9737C58.078 19.7376 59.0144 20.6986 59.9016 21.98Z" fill="black"/>
<path d="M118.257 80.9005C118.676 85.6564 120.474 88.6627 122.569 91.0283L122.569 85.9274C121.854 84.4982 121.362 82.7733 121.164 80.6541C120.869 77.3521 121.534 74.9618 122.569 72.8919L122.569 67.4707C120.203 70.6988 117.69 74.469 118.257 80.9005Z" fill="black"/>
<path d="M105.072 227.495V175.131L74.4668 201.399L105.072 227.495Z" fill="white"/>
<path d="M104.702 122.593L74.4668 148.886L105.072 175.13V122.593H104.702Z" fill="white"/>
<path d="M78.6559 175.13L48.0506 148.886L78.3848 122.593H56.6506L26.415 148.886L57.0203 175.13L26.415 201.398L57.0203 227.494V227.666H78.8037L48.0506 201.398L78.6559 175.13Z" fill="white"/>
<path d="M0 148.861L30.3342 122.593H0V148.886V148.861Z" fill="white"/>
<path d="M0 201.399L30.6053 175.131L0 148.887V227.667H30.7531L0 201.399Z" fill="white"/>
<path d="M104.702 122.593H78.3849L48.0508 148.886L78.656 175.13L48.0508 201.398L78.8039 227.666H105.072V227.494L74.4669 201.398L105.072 175.13L74.4669 148.886L104.702 122.593Z" fill="#C31632"/>
<path d="M26.4161 201.398L57.0214 175.13L26.4161 148.886L56.6517 122.593H30.3342L0 148.861V148.886L30.6053 175.13L0 201.398L30.7531 227.666H57.0214V227.494L26.4161 201.398Z" fill="#C31632"/>
<path d="M94.822 227.679H80.3572L80.3818 237.831L70.1062 237.807L59.9783 227.679H59.9291L70.0815 237.831V252.37L59.8059 262.646H45.2671L34.9915 252.37V237.831L45.1439 227.679H45.0947L34.9668 237.807L24.6912 237.831L24.7158 227.679H10.3003L10.5467 227.925L10.5714 238.201L0.295691 238.176L0 237.881V252.37L10.2264 252.346L10.2017 262.621H24.7404L35.0161 272.897V287.436L24.7404 297.711H10.2264L10.251 307.987L0.0246284 307.962V322.575L10.1524 322.55L10.1278 332.727H24.8883L24.8637 332.703L24.839 322.427L35.0161 322.452V307.962L45.2918 297.687H59.8305L70.1062 307.962V322.501L59.8798 332.727H59.9537L70.2294 322.452L80.505 322.427L80.4804 332.703L80.4557 332.727H94.8959L94.8466 332.678L94.822 322.402L105.048 322.427V307.938L94.8466 307.962L94.8713 297.687H80.3572L80.3818 307.962L70.1062 307.938L59.8059 297.637L59.7812 287.362L70.0569 287.386V272.848L80.3325 262.572H94.8713L105.048 272.749V272.724L94.8713 262.547L94.8466 252.272L105.024 252.296V237.807L94.7727 237.831L94.822 227.679ZM45.2671 297.687L34.9668 307.987L24.6912 308.012L24.7158 297.736L35.0161 287.436L45.2918 287.411L45.2671 297.687ZM35.0161 272.922L24.7158 262.621L24.6912 252.346L34.9668 252.37L45.2671 262.67L45.2918 272.946L35.0161 272.922ZM80.3572 262.621L70.0569 272.922L59.7812 272.946L59.8059 262.67L70.1062 252.37L80.3818 252.346L80.3572 262.621Z" fill="black"/>
<path d="M34.9922 252.346L45.2678 262.621H59.8066L70.0822 252.346V237.831L59.9298 227.679H45.1446L34.9922 237.831V252.346Z" fill="#F6AC1B"/>
<path d="M70.0822 307.987L59.8066 297.711H45.2678L34.9922 307.987V322.476H35.0907L45.3664 332.752H59.8312L70.0822 322.525V307.987Z" fill="#F6AC1B"/>
<path d="M34.9915 287.434V272.896L24.7158 262.62H10.2017L0 272.822V287.508L10.2017 297.71H24.7158L34.9915 287.434Z" fill="#F6AC1B"/>
<path d="M80.3596 262.62L70.084 272.896V287.434L80.3596 297.71H94.8737L105.051 287.533V272.797L94.8737 262.62H80.3596Z" fill="#F6AC1B"/>
<path d="M70.0794 287.434L59.8037 287.409L59.8283 297.685L70.104 307.985H80.3797L80.355 297.71L70.0794 287.434Z" fill="#C31632"/>
<path d="M45.2158 332.75L45.2651 332.8H59.8039L59.8285 332.75H45.2158Z" fill="#C31632"/>
<path d="M34.9915 252.369L24.7158 252.345L24.7404 262.62L35.0161 272.921H45.2918L45.2671 262.645L34.9915 252.369Z" fill="#C31632"/>
<path d="M10.5467 238.201V227.925L10.3003 227.679H0V237.881L0.295691 238.176L10.5467 238.201Z" fill="#C31632"/>
<path d="M24.7131 297.71L24.6885 307.985H34.9641L45.2644 297.685V287.409L34.9888 287.434L24.7131 297.71Z" fill="#C31632"/>
<path d="M10.1032 322.597H0V332.75H10.1032V322.597Z" fill="#C31632"/>
<path d="M59.8049 262.645L59.7803 272.921H70.0559L80.3563 262.62V252.345L70.1052 252.369L59.8049 262.645Z" fill="#C31632"/>
<path d="M94.8433 227.667L94.8262 237.894L105.077 237.911L105.094 227.684L94.8433 227.667Z" fill="#C31632"/>
<path d="M94.8488 332.699L94.8981 332.748H105.051V322.448L94.8242 322.423L94.8488 332.699Z" fill="#C31632"/>
<path d="M94.8957 262.62L105.048 272.797V252.369L94.8711 252.345L94.8957 262.62Z" fill="#C31632"/>
<path d="M94.8457 307.984H105.047V287.532L94.8704 297.709L94.8457 307.984Z" fill="#C31632"/>
<path d="M34.9641 237.807L45.092 227.679H24.7131L24.6885 237.831L34.9641 237.807Z" fill="#C31632"/>
<path d="M80.38 237.831L80.3554 227.679H59.9766L70.1044 237.807L80.38 237.831Z" fill="#C31632"/>
<path d="M10.2017 252.345L0 252.369V272.822L10.1771 262.62L10.2017 252.345Z" fill="#C31632"/>
<path d="M10.2017 297.708L0 287.506V307.983H10.2264L10.2017 297.708Z" fill="#C31632"/>
<path d="M34.9925 322.477L24.8154 322.453L24.8401 332.729V332.753H45.2189L34.9925 322.527V322.477Z" fill="#C31632"/>
<path d="M80.4583 322.453L70.2073 322.477L59.9316 332.753H80.4337L80.4583 332.729V322.453Z" fill="#C31632"/>
<path d="M52.5365 437.872C81.5516 437.872 105.073 414.351 105.073 385.336C105.073 356.321 81.5516 332.799 52.5365 332.799C23.5214 332.799 0 356.321 0 385.336C0 414.351 23.5214 437.872 52.5365 437.872Z" fill="#F6AC1B"/>
<path d="M52.5365 332.799H0V385.336C35.9525 385.336 52.5365 368.752 52.5365 332.799Z" fill="#6BC9C6"/>
<path d="M52.5381 437.874H105.075V385.337C69.1221 385.337 52.5381 401.921 52.5381 437.874Z" fill="#6BC9C6"/>
<path d="M0 385.337V437.874H52.5365C52.5365 401.921 35.9525 385.337 0 385.337Z" fill="#6BC9C6"/>
<path d="M52.5381 332.799C52.5381 368.752 69.1221 385.336 105.075 385.336V332.799H52.5381Z" fill="#6BC9C6"/>
<path d="M0 437.874V542.947H105.073V437.874H0ZM80.5297 491.445H89.6226V494.427C88.2426 494.008 86.8134 493.712 85.2856 493.688H85.0392C83.4621 493.688 81.9836 494.008 80.5297 494.427V491.445ZM89.0558 509.458C89.0558 517.27 87.0351 522.469 85.4581 523.209H84.6942C83.1171 522.469 81.0964 517.27 81.0964 509.458C81.0964 501.031 83.4867 495.634 85.1377 495.61H85.187C86.7641 495.659 89.0558 501.08 89.0558 509.458ZM25.8493 443.714H50.9101V451.18H25.8493V443.714ZM54.9268 475.453C54.9268 487.576 50.023 497.827 44.2322 497.827H39.3531V453.078H44.2076C50.023 453.078 54.9268 463.329 54.9268 475.453ZM37.4064 453.078V497.827H32.5519C26.7611 497.827 21.8574 487.576 21.8574 475.453C21.8574 463.329 26.7611 453.078 32.5519 453.078H37.4064ZM4.33697 475.453C4.33697 463.107 14.3662 453.078 26.7118 453.078H27.5003C22.9909 456.749 19.886 465.276 19.886 475.453C19.886 485.63 22.9909 494.156 27.5003 497.827H26.7118C14.3662 497.827 4.33697 487.798 4.33697 475.453ZM50.9101 507.241V537.254H48.9634V507.241H47.066V537.254H45.1193V507.241H43.2219V537.254H41.2752V507.241H39.3531V537.254H37.4064V507.241H35.5089V537.254H33.5623V507.241H31.6648V537.254H29.7181V507.241H27.7714V537.254H25.8247V501.721V499.774H50.8855V507.241H50.9101ZM50.0477 497.827H49.2591C53.7686 494.156 56.8735 485.63 56.8735 475.453C56.8735 465.276 53.7686 456.749 49.2591 453.078H50.0477C62.3933 453.078 72.4225 463.107 72.4225 475.453C72.4225 487.798 62.3933 497.827 50.0477 497.827ZM71.2151 509.458C71.2151 502.904 75.7984 497.433 81.9096 496.004C80.1108 498.936 79.1497 504.185 79.1497 509.458C79.1497 514.732 80.0861 519.981 81.8604 522.913C75.7738 521.459 71.2151 515.989 71.2151 509.458ZM89.6226 527.398H80.5297V524.515C81.9836 524.958 83.4867 525.254 85.0638 525.254C86.6655 525.254 88.1687 524.958 89.5979 524.515V527.398H89.6226ZM88.2919 522.913C90.0661 519.981 91.0025 514.732 91.0025 509.458C91.0025 504.21 90.0907 498.961 88.3165 496.029C94.3784 497.507 98.9372 502.978 98.9372 509.458C98.9372 515.989 94.3784 521.459 88.2919 522.913Z" fill="#C31632"/>
<path d="M50.0473 453.078H49.2588C53.7683 456.75 56.8731 465.276 56.8731 475.453C56.8731 485.63 53.7683 494.156 49.2588 497.827H50.0473C62.3929 497.827 72.4222 487.798 72.4222 475.453C72.4222 463.107 62.3929 453.078 50.0473 453.078Z" fill="#F6AC1B"/>
<path d="M39.3535 497.827H44.208C49.9988 497.827 54.9025 487.576 54.9025 475.453C54.9025 463.329 49.9988 453.078 44.208 453.078H39.3535V497.827Z" fill="#F6AC1B"/>
<path d="M21.834 475.453C21.834 487.576 26.7377 497.827 32.5286 497.827H37.383V453.078H32.5286C26.7377 453.078 21.834 463.329 21.834 475.453Z" fill="#F6AC1B"/>
<path d="M27.5003 497.827C22.9908 494.156 19.8859 485.63 19.8859 475.453C19.8859 465.276 22.9908 456.75 27.5003 453.078H26.7117C14.3662 453.078 4.33691 463.107 4.33691 475.453C4.33691 487.798 14.3662 497.827 26.7117 497.827H27.5003Z" fill="#F6AC1B"/>
<path d="M50.9114 443.715H25.8506V451.181H50.9114V443.715Z" fill="#F6AC1B"/>
<path d="M25.8498 501.723H25.8252V537.232H27.7719V507.243H29.694V537.232H31.6407V507.243H33.5381V537.257H35.4848V507.243H37.4069V537.257H39.3536V507.243H41.251V537.257H43.1977V507.243H45.1198V537.257H47.0665V507.243H48.9639V537.257H50.9106V507.243V499.777H25.8498V501.723Z" fill="#F6AC1B"/>
<path d="M85.138 495.61C83.487 495.635 81.0967 501.032 81.0967 509.459C81.0967 517.271 83.1173 522.47 84.6944 523.209H85.4583C87.0354 522.47 89.056 517.271 89.056 509.459C89.056 501.056 86.7643 495.66 85.1872 495.61H85.138Z" fill="#F6AC1B"/>
<path d="M79.1515 509.459C79.1515 504.185 80.1125 498.937 81.9114 496.004C75.8002 497.433 71.2168 502.904 71.2168 509.459C71.2168 515.989 75.7755 521.459 81.8621 522.913C80.0879 519.981 79.1515 514.732 79.1515 509.459Z" fill="#F6AC1B"/>
<path d="M85.0378 493.664H85.2842C86.7874 493.688 88.2412 493.984 89.6212 494.403V491.421H80.5283V494.403C81.9575 493.984 83.4607 493.688 85.0378 493.664Z" fill="#F6AC1B"/>
<path d="M80.5283 524.516V527.399H89.6212V524.516C88.1673 524.96 86.6641 525.256 85.0871 525.256C83.4853 525.256 81.9822 524.96 80.5283 524.516Z" fill="#F6AC1B"/>
<path d="M88.3176 496.028C90.0672 498.961 91.0036 504.209 91.0036 509.458C91.0036 514.731 90.0672 519.98 88.293 522.913C94.3795 521.459 98.9383 515.988 98.9383 509.458C98.9383 502.977 94.3795 497.507 88.3176 496.028Z" fill="#F6AC1B"/>
<path d="M122.766 605.54L122.766 598.172C92.2836 598.172 67.5678 573.431 67.5678 542.974L60.1998 542.974C60.1752 577.473 88.2423 605.54 122.766 605.54Z" fill="black"/>
<path d="M122.766 571.756L122.766 564.388C110.938 564.388 101.327 554.778 101.327 542.95L93.9592 542.95C93.9593 558.844 106.872 571.756 122.766 571.756Z" fill="black"/>
<path d="M122.766 583.018L122.766 575.65C104.728 575.65 90.0658 560.989 90.0658 542.951L82.6979 542.951C82.6979 565.054 100.662 583.018 122.766 583.018Z" fill="black"/>
<path d="M122.766 594.278L122.766 586.91C98.518 586.91 78.8045 567.221 78.8045 542.949L71.4366 542.949C71.4366 571.263 94.4521 594.278 122.766 594.278Z" fill="black"/>
<path d="M122.766 616.801L122.766 609.433C86.0739 609.433 56.3064 579.666 56.3064 542.974L48.9385 542.974C48.9385 583.683 82.0326 616.801 122.766 616.801Z" fill="black"/>
<path d="M122.766 650.558L122.766 643.19C67.42 643.19 22.5224 598.318 22.5224 542.947L15.1545 542.947C15.1545 602.285 63.428 650.558 122.766 650.558Z" fill="black"/>
<path d="M122.766 661.82L122.766 654.452C61.1855 654.452 11.2611 604.528 11.2611 542.948L3.89309 542.948C3.89309 608.495 57.2182 661.82 122.766 661.82Z" fill="black"/>
<path d="M122.766 628.035L122.766 620.667C79.8395 620.667 45.0451 585.873 45.0451 542.947L37.6771 542.947C37.6771 589.89 75.8228 628.035 122.766 628.035Z" fill="black"/>
<path d="M122.766 639.299L122.766 631.931C73.6297 631.931 33.7838 592.085 33.7838 542.949L26.4158 542.949C26.4158 596.101 69.6377 639.299 122.766 639.299Z" fill="black"/>
<path d="M3.89309 542.973L-0.000293018 542.973C-0.000292647 547.212 0.221509 551.401 0.640425 555.516C1.28111 561.701 2.36535 567.763 3.86851 573.653C5.37167 579.542 7.31839 585.259 9.65936 590.754C12.0003 596.249 14.7109 601.572 17.7912 606.623C19.8364 609.999 22.0542 613.277 24.3952 616.406C46.77 646.346 82.5008 665.715 122.766 665.715L122.766 661.821C57.2182 661.821 3.8931 608.496 3.89309 542.973Z" fill="#F6AC1B"/>
<path d="M15.1545 542.974L11.2611 542.974C11.2611 604.554 61.1855 654.479 122.766 654.479L122.766 650.585C63.428 650.561 15.1545 602.287 15.1545 542.974Z" fill="#F6AC1B"/>
<path d="M26.4158 542.972L22.5224 542.972C22.5224 598.318 67.3953 643.215 122.766 643.215L122.766 639.322C69.6377 639.297 26.4158 596.1 26.4158 542.972Z" fill="#F6AC1B"/>
<path d="M37.6771 542.973L33.7838 542.973C33.7838 592.109 73.6297 631.955 122.766 631.955L122.766 628.062C75.8228 628.037 37.6771 589.892 37.6771 542.973Z" fill="#F6AC1B"/>
<path d="M48.9385 542.973L45.0451 542.973C45.0451 585.899 79.8641 620.694 122.766 620.694L122.766 616.8C82.0326 616.8 48.9385 583.682 48.9385 542.973Z" fill="#F6AC1B"/>
<path d="M60.1764 542.973L56.283 542.973C56.283 579.665 86.0504 609.432 122.742 609.432L122.742 605.539C88.2435 605.539 60.1764 577.472 60.1764 542.973Z" fill="#F6AC1B"/>
<path d="M71.4378 542.973L67.5444 542.973C67.5444 573.455 92.2848 598.171 122.742 598.171L122.742 594.277C94.4533 594.277 71.4378 571.262 71.4378 542.973Z" fill="#F6AC1B"/>
<path d="M82.6979 542.976L78.8045 542.976C78.8045 567.224 98.4934 586.937 122.766 586.937L122.766 583.044C100.662 583.019 82.6979 565.055 82.6979 542.976Z" fill="#F6AC1B"/>
<path d="M93.9592 542.974L90.0658 542.974C90.0658 561.011 104.728 575.673 122.766 575.673L122.766 571.78C106.872 571.755 93.9592 558.843 93.9592 542.974Z" fill="#F6AC1B"/>
<path d="M105.221 542.973L101.327 542.973C101.327 554.802 110.938 564.412 122.766 564.412L122.766 560.518C113.057 560.494 105.221 552.658 105.221 542.973Z" fill="#F6AC1B"/>
</svg>
