<svg width="123" height="246" viewBox="0 0 123 246" fill="none" xmlns="http://www.w3.org/2000/svg">
<path d="M0 60.2896V67.6716C30.5401 67.6716 55.3031 92.4592 55.3031 122.975H62.6851C62.7098 88.4102 34.5891 60.2896 0 60.2896Z" fill="#C31632"/>
<path d="M0 94.137V101.519C11.8507 101.519 21.4794 111.148 21.4794 122.998H28.8613C28.8613 107.074 15.9243 94.137 0 94.137Z" fill="#C31632"/>
<path d="M0 82.8538V90.2357C18.0723 90.2357 32.7622 104.926 32.7622 122.998H40.1441C40.1441 100.852 22.1459 82.8538 0 82.8538Z" fill="#C31632"/>
<path d="M0 71.5725V78.9545C24.2939 78.9545 44.045 98.6809 44.045 122.999H51.4269C51.4269 94.6319 28.3675 71.5725 0 71.5725Z" fill="#C31632"/>
<path d="M0 49.0066V56.3885C36.7617 56.3885 66.5859 86.2127 66.5859 122.974H73.9679C73.9679 82.1884 40.8107 49.0066 0 49.0066Z" fill="#C31632"/>
<path d="M0 15.1853V22.5673C55.4512 22.5673 100.434 67.5257 100.434 123.002H107.816C107.816 63.5508 59.4508 15.1853 0 15.1853Z" fill="#C31632"/>
<path d="M0 3.90137V11.2833C61.6975 11.2833 111.717 61.303 111.717 123H119.099C119.099 57.3281 65.6724 3.90137 0 3.90137Z" fill="#C31632"/>
<path d="M0 37.7512V45.1332C43.008 45.1332 77.8688 79.9939 77.8688 123.002H85.2507C85.2507 75.9696 47.0323 37.7512 0 37.7512Z" fill="#C31632"/>
<path d="M0 26.4661V33.848C49.2296 33.848 89.1515 73.7699 89.1515 123H96.5335C96.5335 69.7456 53.2292 26.4661 0 26.4661Z" fill="#C31632"/>
<path d="M119.099 122.975H123C123 118.729 122.778 114.532 122.358 110.409C121.716 104.212 120.63 98.1383 119.124 92.2376C117.618 86.337 115.667 80.6091 113.322 75.1035C110.976 69.5979 108.261 64.2651 105.175 59.2039C103.125 55.8215 100.903 52.5379 98.558 49.4024C76.1405 19.4054 40.3416 0 0 0V3.90081C65.6724 3.90081 119.099 57.3276 119.099 122.975Z" fill="#F6AC1B"/>
<path d="M107.816 122.974H111.717C111.717 61.277 61.6975 11.2573 0 11.2573V15.1581C59.4508 15.1828 107.816 63.5484 107.816 122.974Z" fill="#F6AC1B"/>
<path d="M96.5335 122.976H100.434C100.434 67.5251 55.4759 22.542 0 22.542V26.4428C53.2292 26.4675 96.5335 69.7471 96.5335 122.976Z" fill="#F6AC1B"/>
<path d="M85.2507 122.975H89.1515C89.1515 73.7454 49.2296 33.8235 0 33.8235V37.7244C47.0323 37.7491 85.2507 75.9674 85.2507 122.975Z" fill="#F6AC1B"/>
<path d="M73.9679 122.975H77.8687C77.8687 79.9672 42.9833 45.1064 0 45.1064V49.0073C40.8107 49.0073 73.9679 82.1892 73.9679 122.975Z" fill="#F6AC1B"/>
<path d="M62.7085 122.975H66.6093C66.6093 86.2136 36.7852 56.3894 0.0234375 56.3894V60.2902C34.5879 60.2902 62.7085 88.4109 62.7085 122.975Z" fill="#F6AC1B"/>
<path d="M51.4257 122.976H55.3265C55.3265 92.4355 30.5389 67.6726 0.0234375 67.6726V71.5734C28.3663 71.5734 51.4257 94.6328 51.4257 122.976Z" fill="#F6AC1B"/>
<path d="M40.1441 122.973H44.045C44.045 98.6788 24.3185 78.9277 0 78.9277V82.8285C22.1459 82.8532 40.1441 100.851 40.1441 122.973Z" fill="#F6AC1B"/>
<path d="M28.8613 122.975H32.7622C32.7622 104.903 18.0723 90.2129 0 90.2129V94.1138C15.9243 94.1385 28.8613 107.075 28.8613 122.975Z" fill="#F6AC1B"/>
<path d="M17.5785 122.975H21.4794C21.4794 111.124 11.8507 101.496 0 101.496V105.396C9.72742 105.421 17.5785 113.272 17.5785 122.975Z" fill="#F6AC1B"/>
<path d="M63.1939 228.545C68.0645 225.628 72.7125 222.364 77.1133 218.804L14.4636 144.139L63.1939 228.545Z" fill="#F6AC1B"/>
<path d="M44.5034 237.67C49.7943 235.618 54.912 233.219 59.832 230.475L11.2749 146.39L44.5034 237.67Z" fill="#F6AC1B"/>
<path d="M80.1312 216.309C84.4578 212.6 88.5125 208.595 92.2705 204.318L17.2591 141.372L80.1312 216.309Z" fill="#F6AC1B"/>
<path d="M3.93049 245.902C9.64164 245.729 15.2291 245.16 20.7178 244.245L3.93049 149.059L3.93049 245.902Z" fill="#F6AC1B"/>
<path d="M24.5542 243.553C30.1417 242.416 35.5561 240.908 40.8223 239.053L7.69264 148.071L24.5542 243.553Z" fill="#F6AC1B"/>
<path d="M94.8134 201.35C98.4478 196.949 101.785 192.276 104.802 187.405L19.4806 138.156L94.8134 201.35Z" fill="#F6AC1B"/>
<path d="M121.146 144.314C122.135 138.652 122.728 132.842 122.926 126.933L22.5231 126.933L121.146 144.314Z" fill="#F6AC1B"/>
<path d="M106.78 184.045C109.623 179.075 112.145 173.883 114.271 168.493L21.1376 134.597L106.78 184.045Z" fill="#F6AC1B"/>
<path d="M115.706 164.857C117.659 159.443 119.242 153.88 120.453 148.144L22.1768 130.813L115.706 164.857Z" fill="#F6AC1B"/>
<path d="M3.93104 245.903L3.93104 149.06L20.7183 244.246C22.004 244.024 23.2896 243.826 24.5505 243.554L7.71376 148.047L40.8434 239.03C42.0796 238.585 43.291 238.14 44.5025 237.67L11.274 146.39L59.8311 230.475C60.9684 229.832 62.1057 229.19 63.2182 228.522L14.488 144.116L77.1376 218.781C78.1513 217.965 79.1402 217.125 80.1292 216.284L17.257 141.347L92.2685 204.293C93.1338 203.329 93.9991 202.34 94.815 201.351L19.4821 138.133L104.803 187.382C105.496 186.269 106.138 185.157 106.781 184.02L21.1387 134.572L114.273 168.468C114.742 167.257 115.237 166.046 115.682 164.834L22.1523 130.79L120.429 148.121C120.701 146.86 120.898 145.574 121.121 144.289L22.4984 126.908L122.901 126.908C122.951 125.598 123 124.312 123 123.002L17.5785 123.002C17.5785 132.693 9.71638 140.58 -7.6838e-07 140.58L-5.3765e-06 246.002C1.33507 246.002 2.62069 245.952 3.93104 245.903Z" fill="black"/>
</svg>
