<svg width="123" height="669" viewBox="0 0 123 669" fill="none" xmlns="http://www.w3.org/2000/svg">
<path d="M121 105.238V2.01648C55.7952 3.0918 3.08057 56.653 2.0164 123H103.52C104.443 113.651 111.767 106.189 121 105.238Z" fill="#C31632" stroke="black" stroke-width="4"/>
<path d="M70.1016 160.038V125H35.0635V160.038H70.1016ZM52.5702 136.688C55.8003 136.688 58.414 139.301 58.414 142.531C58.414 145.761 55.8003 148.375 52.5702 148.375C49.3401 148.375 46.7264 145.761 46.7264 142.531C46.7264 139.301 49.3401 136.688 52.5702 136.688Z" fill="#F6AC1B"/>
<path d="M35.0382 160.039H0V195.077H35.0382V160.039ZM17.5314 183.414C14.3013 183.414 11.6876 180.801 11.6876 177.57C11.6876 174.34 14.3013 171.727 17.5314 171.727C20.7615 171.727 23.3752 174.34 23.3752 177.57C23.3752 180.801 20.7615 183.414 17.5314 183.414Z" fill="#F6AC1B"/>
<path d="M70.1035 195.101H105.142V160.063H70.1035V195.101ZM87.6102 171.726C90.8403 171.726 93.454 174.34 93.454 177.57C93.454 180.8 90.8403 183.414 87.6102 183.414C84.3801 183.414 81.7664 180.8 81.7664 177.57C81.7911 174.34 84.4047 171.726 87.6102 171.726Z" fill="#F6AC1B"/>
<path d="M35.0391 195.102V230.14H70.0771V195.102H35.0391ZM52.5704 218.453C49.3403 218.453 46.7266 215.839 46.7266 212.609C46.7266 209.379 49.3403 206.765 52.5704 206.765C55.8005 206.765 58.4142 209.379 58.4142 212.609C58.4142 215.839 55.8005 218.453 52.5704 218.453Z" fill="#F6AC1B"/>
<path d="M35.0382 125H0V160.038H35.0382V125Z" fill="#6BC9C6"/>
<path d="M105.142 125H70.1035V160.038H105.142V125Z" fill="#6BC9C6"/>
<path d="M35.0382 195.102H0V230.14H35.0382V195.102Z" fill="#6BC9C6"/>
<path d="M105.142 195.102H70.1035V230.14H105.142V195.102Z" fill="#6BC9C6"/>
<path d="M70.0771 160.039H35.0391V195.077H70.0771V160.039Z" fill="#6BC9C6"/>
<path d="M52.5703 148.377C55.7978 148.377 58.4141 145.76 58.4141 142.533C58.4141 139.305 55.7978 136.689 52.5703 136.689C49.3429 136.689 46.7266 139.305 46.7266 142.533C46.7266 145.76 49.3429 148.377 52.5703 148.377Z" fill="#6BC9C6"/>
<path d="M17.5323 183.414C20.7597 183.414 23.376 180.797 23.376 177.57C23.376 174.342 20.7597 171.726 17.5323 171.726C14.3048 171.726 11.6885 174.342 11.6885 177.57C11.6885 180.797 14.3048 183.414 17.5323 183.414Z" fill="#6BC9C6"/>
<path d="M52.5703 218.451C55.7978 218.451 58.4141 215.834 58.4141 212.607C58.4141 209.38 55.7978 206.763 52.5703 206.763C49.3429 206.763 46.7266 209.38 46.7266 212.607C46.7266 215.834 49.3429 218.451 52.5703 218.451Z" fill="#6BC9C6"/>
<path d="M87.6075 183.414C90.8349 183.414 93.4512 180.797 93.4512 177.57C93.4512 174.342 90.8349 171.726 87.6075 171.726C84.38 171.726 81.7637 174.342 81.7637 177.57C81.7637 180.797 84.38 183.414 87.6075 183.414Z" fill="#6BC9C6"/>
<path d="M0 230.14V335.279H105.139V230.14H0ZM89.7528 319.844H68.005L52.5695 335.279L37.134 319.844H15.4848V298.194L0.0493629 282.759L15.4848 267.323V245.576H37.2326L52.5695 230.239L67.9064 245.576H89.7528V267.422L105.09 282.759L89.7528 298.096V319.844Z" fill="#C31632"/>
<path d="M89.7513 267.422V245.575H67.9049L52.568 230.238L37.2311 245.575H15.4833V267.323L0.0478516 282.758L15.4833 298.194V319.843H37.1325L52.568 335.279L68.0035 319.843H89.7513V298.095L105.088 282.758L89.7513 267.422ZM21.4257 282.758L30.5983 273.586V260.665H43.5188L52.6173 251.567L61.7158 260.665H74.6856V273.635L83.7842 282.734L74.6856 291.832V304.753H61.7652L52.5927 313.925L43.4201 304.753H30.549V291.882L21.4257 282.758Z" fill="#F6AC1B"/>
<path d="M43.4724 304.781L52.6202 313.954L61.7928 304.781H74.7133V291.861L83.8119 282.762L74.7133 273.664V260.669H61.7435L52.6202 251.571L43.5218 260.669H30.6012V273.59L21.4287 282.762L30.6012 291.935V304.781H43.4724Z" fill="black"/>
<path d="M52.5695 387.849C78.8542 387.849 105.139 370.317 105.139 335.279H0C0 370.317 26.2847 387.849 52.5695 387.849Z" fill="#6BC9C6"/>
<path d="M52.5695 387.85C26.2847 387.85 0 405.381 0 440.419H105.139C105.139 405.381 78.8542 387.85 52.5695 387.85Z" fill="#6BC9C6"/>
<path d="M52.5713 387.849C78.856 387.849 105.141 405.38 105.141 440.418V335.279C105.141 370.317 78.856 387.849 52.5713 387.849Z" fill="white"/>
<path d="M52.5695 387.849C26.2847 387.849 0 370.317 0 335.279V440.418C0 405.38 26.2847 387.849 52.5695 387.849Z" fill="white"/>
<path d="M57.3773 449.222C56.4157 449.124 55.4541 449.074 54.4678 449.05C57.4267 470.847 74.6868 488.107 96.4839 491.066C96.4346 490.104 96.4099 489.118 96.3113 488.156C76.2649 485.173 60.3855 469.294 57.3773 449.222Z" fill="#F6AC1B"/>
<path d="M95.8918 485.22C92.6617 467.147 78.4098 452.895 60.3359 449.665C63.3934 467.812 77.744 482.138 95.8918 485.22Z" fill="#F6AC1B"/>
<path d="M0.073969 491.46C0.0986264 490.498 0.147935 489.561 0.221907 488.624C0.295879 487.663 0.419178 486.726 0.542465 485.789C0.764381 484.211 1.06028 482.657 1.40549 481.128C5.91778 461.649 21.23 446.312 40.7093 441.825C42.2381 441.479 43.7914 441.159 45.3695 440.962C46.3065 440.838 47.2435 440.715 48.2051 440.641C49.1421 440.567 50.079 440.518 51.0407 440.493C51.1146 440.493 51.164 440.493 51.238 440.493C51.6818 440.493 52.1257 440.419 52.5695 440.419H0V492.989C0 492.545 0.0493117 492.101 0.073969 491.657C0.073969 491.583 0.073969 491.534 0.073969 491.46Z" fill="#F6AC1B"/>
<path d="M51.0394 545.485C50.0778 545.461 49.1408 545.411 48.2038 545.337C47.2422 545.263 46.3052 545.14 45.3683 545.017C43.7902 544.795 42.2368 544.499 40.7081 544.154C21.2288 539.641 5.89188 524.329 1.40424 504.85C1.05904 503.321 0.73848 501.768 0.541221 500.19C0.417934 499.253 0.294635 498.316 0.220663 497.354C0.615181 497.329 1.00967 497.305 1.42885 497.305C1.62611 497.305 1.79871 497.28 1.97131 497.28C2.34117 497.28 2.68638 497.329 3.05624 497.329C4.01788 497.354 4.95487 497.403 5.9165 497.477C6.9028 497.551 7.83981 497.699 8.80145 497.847C28.8725 500.831 44.7518 516.71 47.7353 536.781C48.697 536.88 49.6587 536.929 50.645 536.954C47.6861 515.157 30.4259 497.897 8.62883 494.938C7.69185 494.814 6.7302 494.691 5.76857 494.617C4.83159 494.543 3.86994 494.494 2.90831 494.469C2.58776 494.469 2.29186 494.42 1.97131 494.42C1.77406 494.42 1.60145 494.445 1.42885 494.445C0.985017 494.469 0.541239 494.494 0.0974065 494.518C0.0974065 494.445 0.0974065 494.395 0.0974065 494.321C0.0974065 493.877 0.0234375 493.434 0.0234375 492.99V545.559H52.5928C52.149 545.559 51.7052 545.51 51.2614 545.485C51.1874 545.485 51.1134 545.485 51.0394 545.485Z" fill="#F6AC1B"/>
<path d="M102.082 488.674C102.009 487.713 101.861 486.751 101.713 485.814C98.5565 464.14 81.4197 447.003 59.7459 443.847C58.8089 443.699 57.8472 443.576 56.8856 443.477C55.9486 443.403 54.987 443.354 54.0253 443.329C54.0007 443.329 53.9513 443.329 53.9267 443.329C53.4582 443.305 53.0144 443.255 52.5459 443.255C52.0774 443.255 51.6336 443.305 51.1651 443.329C51.1404 443.329 51.0911 443.329 51.0664 443.329C50.1048 443.354 49.1678 443.403 48.2062 443.477C47.2445 443.551 46.2829 443.699 45.3459 443.847C23.6721 447.003 6.53525 464.14 3.37911 485.814C3.23117 486.751 3.1079 487.713 3.00927 488.674C2.93529 489.611 2.88599 490.573 2.86133 491.535C2.86133 491.559 2.86133 491.608 2.86133 491.633C3.82296 491.658 4.75993 491.707 5.69691 491.781C5.69691 491.658 5.72159 491.535 5.72159 491.387C5.74625 490.425 5.7709 489.488 5.86953 488.526C5.96816 487.565 6.11611 486.603 6.26405 485.666C9.4202 465.694 25.2008 449.888 45.198 446.732C46.1596 446.584 47.0966 446.412 48.0582 446.338C48.9952 446.239 49.9568 446.214 50.9185 446.19C51.0418 446.19 51.1651 446.165 51.313 446.165C51.7322 446.165 52.1267 446.091 52.5459 446.091C52.9651 446.091 53.3596 446.14 53.7787 446.165C53.902 446.165 54.0253 446.19 54.1733 446.19C55.1349 446.214 56.0719 446.239 57.0335 446.338C57.9952 446.436 58.9568 446.584 59.8938 446.732C79.8909 449.888 95.6716 465.669 98.8277 485.666C98.9756 486.628 99.1483 487.565 99.2222 488.526C99.3209 489.463 99.3455 490.425 99.3702 491.387C99.3702 491.51 99.3948 491.633 99.3948 491.781C100.332 491.707 101.269 491.658 102.23 491.633C102.23 491.608 102.23 491.559 102.23 491.535C102.181 490.548 102.156 489.611 102.082 488.674Z" fill="#F6AC1B"/>
<path d="M52.5713 440.419C53.0151 440.419 53.4589 440.469 53.9027 440.493C53.9767 440.493 54.0261 440.493 54.1 440.493C55.0617 440.518 55.9986 440.567 56.9356 440.641C57.8972 440.715 58.8342 440.838 59.7712 440.962C61.3493 441.184 62.9027 441.479 64.4315 441.825C83.9108 446.337 99.2477 461.649 103.735 481.128C104.08 482.657 104.401 484.211 104.598 485.789C104.722 486.726 104.845 487.663 104.919 488.624C104.993 489.561 105.042 490.498 105.067 491.46C105.067 491.534 105.067 491.583 105.067 491.657C105.067 492.101 105.141 492.545 105.141 492.989V440.419H52.5713Z" fill="#F6AC1B"/>
<path d="M44.801 536.288C41.7188 518.14 27.3929 503.814 9.24512 500.732C12.4752 518.806 26.7271 533.058 44.801 536.288Z" fill="#F6AC1B"/>
<path d="M95.8918 500.756C77.744 503.838 63.4181 518.164 60.3359 536.312C78.3851 533.057 92.6617 518.805 95.8918 500.756Z" fill="#F6AC1B"/>
<path d="M53.8 539.814C53.3808 539.814 52.9863 539.888 52.5672 539.888C52.148 539.888 51.7535 539.839 51.3343 539.814C51.211 539.814 51.0877 539.79 50.9398 539.79C49.9781 539.765 49.0411 539.74 48.0795 539.642C47.1179 539.543 46.1562 539.395 45.2192 539.247C25.2221 536.091 9.4414 520.31 6.28526 500.313C5.32362 500.215 4.36203 500.19 3.40039 500.165C6.55653 521.839 23.6934 538.976 45.3672 542.132C46.3042 542.28 47.2658 542.403 48.2274 542.502C49.1644 542.576 50.1261 542.625 51.0877 542.65C51.1124 542.65 51.1617 542.65 51.1863 542.65C51.6548 542.675 52.0987 542.724 52.5672 542.724C53.0356 542.724 53.4795 542.675 53.948 542.65C53.9726 542.65 54.0219 542.65 54.0465 542.65C55.0082 542.625 55.9452 542.576 56.9068 542.502C57.8684 542.428 58.8301 542.28 59.7671 542.132C81.4409 538.976 98.5778 521.839 101.734 500.165C100.772 500.19 99.7859 500.215 98.849 500.313C95.6928 520.286 79.9121 536.091 59.915 539.247C58.9534 539.395 58.0164 539.568 57.0547 539.642C56.1178 539.74 55.1562 539.765 54.1945 539.79C54.0466 539.79 53.9233 539.814 53.8 539.814Z" fill="#F6AC1B"/>
<path d="M105.066 494.493C104.622 494.468 104.178 494.443 103.734 494.419C103.537 494.419 103.364 494.394 103.192 494.394C102.871 494.394 102.575 494.443 102.255 494.443C101.293 494.468 100.356 494.517 99.3944 494.591C98.4328 494.665 97.4711 494.764 96.5341 494.912C74.737 497.871 57.4769 515.131 54.518 536.928C55.4796 536.879 56.466 536.854 57.4276 536.755C60.4112 516.684 76.2904 500.805 96.3615 497.821C97.3232 497.673 98.2848 497.55 99.2465 497.452C100.183 497.378 101.145 497.328 102.107 497.304C102.477 497.304 102.822 497.254 103.192 497.254C103.389 497.254 103.562 497.279 103.734 497.279C104.129 497.304 104.523 497.328 104.942 497.328C104.868 498.29 104.745 499.227 104.622 500.164C104.4 501.742 104.104 503.295 103.759 504.824C99.2464 524.303 83.9342 539.64 64.4549 544.128C62.9262 544.473 61.3728 544.794 59.7947 544.991C58.8577 545.114 57.9208 545.237 56.9591 545.311C56.0221 545.385 55.0851 545.435 54.1235 545.459C54.0495 545.459 54.0002 545.459 53.9262 545.459C53.4824 545.459 53.0386 545.533 52.5947 545.533H105.164V492.964C105.164 493.408 105.115 493.852 105.09 494.295C105.066 494.369 105.066 494.443 105.066 494.493Z" fill="#F6AC1B"/>
<path d="M8.62988 491.066C30.427 488.107 47.6872 470.847 50.646 449.05C49.6844 449.099 48.698 449.124 47.7364 449.222C44.7529 469.294 28.8736 485.173 8.8025 488.156C8.70387 489.118 8.65454 490.08 8.62988 491.066Z" fill="#F6AC1B"/>
<path d="M9.24512 485.22C27.3929 482.138 41.7188 467.812 44.801 449.665C26.7271 452.895 12.4752 467.147 9.24512 485.22Z" fill="#F6AC1B"/>
<path d="M52.5675 531.7C73.9476 531.7 91.2795 514.368 91.2795 492.988C91.2795 471.608 73.9476 454.276 52.5675 454.276C31.1875 454.276 13.8555 471.608 13.8555 492.988C13.8555 514.368 31.1875 531.7 52.5675 531.7Z" fill="#F6AC1B"/>
<path d="M105.065 491.46C105.04 490.498 104.991 489.561 104.917 488.624C104.843 487.663 104.72 486.726 104.596 485.789C104.375 484.211 104.079 482.657 103.733 481.129C99.2212 461.649 83.909 446.312 64.4297 441.825C62.9009 441.479 61.3475 441.159 59.7694 440.962C58.8324 440.838 57.8955 440.715 56.9338 440.641C55.9968 440.567 55.0599 440.518 54.0982 440.493C54.0243 440.493 53.9749 440.493 53.9009 440.493C53.4571 440.493 53.0133 440.419 52.5695 440.419C52.1257 440.419 51.6818 440.469 51.238 440.493C51.164 440.493 51.1146 440.493 51.0407 440.493C50.079 440.518 49.1421 440.567 48.2051 440.641C47.2435 440.715 46.3065 440.838 45.3695 440.962C43.7914 441.184 42.2381 441.479 40.7093 441.825C21.23 446.337 5.89313 461.649 1.40549 481.129C1.06028 482.657 0.739724 484.211 0.542465 485.789C0.419178 486.726 0.295879 487.663 0.221907 488.624C0.147935 489.561 0.0986264 490.498 0.073969 491.46C0.073969 491.534 0.073969 491.583 0.073969 491.657C0.073969 492.101 0 492.545 0 492.989C0 493.433 0.0493117 493.876 0.073969 494.32C0.073969 494.394 0.073969 494.443 0.073969 494.517C0.517801 494.493 0.961655 494.468 1.40549 494.443C1.60275 494.443 1.77535 494.419 1.94795 494.419C2.2685 494.419 2.56432 494.468 2.88487 494.468C3.8465 494.493 4.78349 494.542 5.74513 494.616C6.70677 494.69 7.66841 494.789 8.60539 494.937C30.4025 497.895 47.6627 515.156 50.6215 536.953C49.6599 536.903 48.6736 536.879 47.712 536.78C44.7285 516.709 28.8491 500.83 8.77801 497.846C7.81637 497.698 6.8547 497.575 5.89307 497.476C4.95609 497.402 3.99452 497.353 3.03288 497.328C2.66302 497.328 2.31781 497.279 1.94795 497.279C1.75069 497.279 1.57809 497.304 1.40549 497.304C1.01097 497.328 0.616401 497.353 0.197226 497.353C0.271198 498.315 0.394497 499.252 0.517783 500.189C0.739699 501.767 1.0356 503.32 1.38081 504.849C5.8931 524.328 21.2053 539.665 40.6846 544.153C42.2134 544.498 43.7668 544.818 45.3448 545.016C46.2818 545.139 47.2188 545.262 48.1805 545.336C49.1175 545.41 50.0544 545.459 51.0161 545.484C51.09 545.484 51.1393 545.484 51.2133 545.484C51.6571 545.484 52.101 545.558 52.5448 545.558C52.9886 545.558 53.4325 545.509 53.8763 545.484C53.9503 545.484 53.9996 545.484 54.0736 545.484C55.0352 545.459 55.9722 545.41 56.9091 545.336C57.8708 545.262 58.8078 545.139 59.7448 545.016C61.3229 544.794 62.8762 544.498 64.405 544.153C83.8843 539.64 99.2212 524.328 103.709 504.849C104.054 503.32 104.375 501.767 104.572 500.189C104.695 499.252 104.818 498.315 104.892 497.353C104.498 497.328 104.103 497.304 103.684 497.304C103.487 497.304 103.314 497.279 103.142 497.279C102.772 497.279 102.427 497.328 102.057 497.328C101.095 497.353 100.158 497.402 99.1966 497.476C98.2103 497.55 97.2732 497.698 96.3116 497.846C76.2405 500.83 60.3612 516.709 57.3776 536.78C56.416 536.879 55.4544 536.928 54.4681 536.953C57.427 515.156 74.6871 497.895 96.4842 494.937C97.4212 494.813 98.3829 494.69 99.3445 494.616C100.281 494.542 101.243 494.493 102.205 494.468C102.525 494.468 102.821 494.419 103.142 494.419C103.339 494.419 103.512 494.443 103.684 494.443C104.128 494.468 104.572 494.493 105.016 494.517C105.016 494.443 105.016 494.394 105.016 494.32C105.016 493.876 105.09 493.433 105.09 492.989C105.09 492.545 105.04 492.101 105.016 491.657C105.065 491.583 105.065 491.534 105.065 491.46ZM47.7366 449.222C48.6982 449.123 49.6599 449.074 50.6462 449.049C47.6873 470.846 30.4272 488.107 8.63007 491.065C8.67939 490.104 8.70406 489.117 8.80269 488.156C28.8738 485.172 44.7531 469.293 47.7366 449.222ZM9.24651 485.222C12.4766 467.148 26.7285 452.896 44.8024 449.666C41.7202 467.814 27.3943 482.139 9.24651 485.222ZM44.8024 536.287C26.7285 533.057 12.4766 518.805 9.24651 500.731C27.3943 503.813 41.7202 518.139 44.8024 536.287ZM95.8924 500.756C92.6623 518.83 78.4104 533.081 60.3365 536.312C63.3941 518.139 77.7446 503.813 95.8924 500.756ZM57.0325 539.64C57.9941 539.542 58.9557 539.394 59.8927 539.246C79.8898 536.09 95.6705 520.309 98.8266 500.312C99.7883 500.213 100.75 500.189 101.712 500.164C98.5554 521.838 81.4186 538.975 59.7448 542.131C58.8078 542.279 57.8462 542.402 56.8845 542.501C55.9475 542.575 54.9859 542.624 54.0243 542.649C53.9996 542.649 53.9503 542.649 53.9256 542.649C53.4571 542.673 53.0133 542.723 52.5448 542.723C52.0763 542.723 51.6325 542.673 51.164 542.649C51.1393 542.649 51.09 542.649 51.0654 542.649C50.1037 542.624 49.1667 542.575 48.2051 542.501C47.2435 542.427 46.2818 542.279 45.3448 542.131C23.671 538.975 6.53419 521.838 3.37805 500.164C4.33968 500.189 5.32601 500.213 6.26299 500.312C9.41913 520.284 25.1998 536.09 45.1969 539.246C46.1585 539.394 47.0955 539.566 48.0572 539.64C48.9941 539.739 49.9558 539.764 50.9174 539.788C51.0407 539.788 51.164 539.813 51.3119 539.813C51.7311 539.813 52.1256 539.887 52.5448 539.887C52.964 539.887 53.3585 539.838 53.7777 539.813C53.901 539.813 54.0243 539.788 54.1722 539.788C55.1338 539.764 56.0955 539.739 57.0325 539.64ZM52.5695 531.701C48.0819 512.542 32.9915 497.476 13.8574 492.989C33.0162 488.501 48.0819 473.411 52.5695 454.277C57.0571 473.435 72.1474 488.501 91.2815 492.989C72.1474 497.476 57.0571 512.542 52.5695 531.701ZM54.4928 449.025C55.4544 449.074 56.4407 449.099 57.4023 449.197C60.3859 469.268 76.2652 485.148 96.3363 488.131C96.4349 489.093 96.4842 490.054 96.5088 491.041C74.7117 488.082 57.4516 470.822 54.4928 449.025ZM60.3365 449.666C78.4104 452.896 92.6623 467.148 95.8924 485.222C77.7446 482.139 63.3941 467.814 60.3365 449.666ZM99.3938 491.756C99.3938 491.633 99.3691 491.509 99.3691 491.361C99.3444 490.4 99.3198 489.463 99.2212 488.501C99.1225 487.539 98.9746 486.578 98.8266 485.641C95.6705 465.668 79.8898 449.863 59.8927 446.707C58.9311 446.559 57.9941 446.386 57.0325 446.312C56.0955 446.214 55.1338 446.189 54.1722 446.164C54.0489 446.164 53.9256 446.14 53.7777 446.14C53.3585 446.14 52.964 446.066 52.5448 446.066C52.1256 446.066 51.7311 446.115 51.3119 446.14C51.1887 446.14 51.0654 446.164 50.9174 446.164C49.9558 446.189 49.0188 446.214 48.0572 446.312C47.0955 446.411 46.1339 446.559 45.1969 446.707C25.1998 449.863 9.41913 465.644 6.26299 485.641C6.11504 486.602 5.94243 487.539 5.86846 488.501C5.76983 489.438 5.74518 490.4 5.72052 491.361C5.72052 491.485 5.69584 491.608 5.69584 491.756C4.75886 491.682 3.8219 491.633 2.86026 491.608C2.86026 491.583 2.86026 491.534 2.86026 491.509C2.88492 490.548 2.93423 489.611 3.0082 488.649C3.08217 487.687 3.2301 486.726 3.37805 485.789C6.53419 464.115 23.671 446.978 45.3448 443.822C46.2818 443.674 47.2435 443.551 48.2051 443.452C49.1421 443.378 50.1037 443.329 51.0654 443.304C51.09 443.304 51.1393 443.304 51.164 443.304C51.6325 443.279 52.0763 443.23 52.5448 443.23C53.0133 443.23 53.4571 443.279 53.9256 443.304C53.9503 443.304 53.9996 443.304 54.0243 443.304C54.9859 443.329 55.9229 443.378 56.8845 443.452C57.8462 443.526 58.8078 443.674 59.7448 443.822C81.4186 446.978 98.5554 464.115 101.712 485.789C101.86 486.726 101.983 487.687 102.081 488.649C102.155 489.586 102.205 490.548 102.229 491.509C102.229 491.534 102.229 491.583 102.229 491.608C101.268 491.633 100.331 491.682 99.3938 491.756Z" fill="#C31632"/>
<path d="M101.587 647.343C99.8112 643.768 98.1099 640.365 99.5893 634.867C101.069 629.368 104.225 627.272 107.554 625.053C111.03 622.76 114.951 620.146 116.726 613.563C118.477 606.979 116.381 602.738 114.532 599.015C112.756 595.415 111.055 592.037 112.534 586.514C114.014 580.991 117.17 578.895 120.499 576.675C121.189 576.207 121.904 575.714 122.619 575.196L122.619 577.119C120.523 579.486 118.723 582.495 118.304 587.253C117.737 593.714 120.252 597.462 122.619 600.692L122.619 622.587C122.077 623.13 121.534 623.672 120.967 624.19C117.934 627.075 114.532 630.33 113.94 637.111C113.348 643.891 116.159 647.689 118.625 651.042C120.375 653.409 122.052 655.702 122.619 659.031L122.619 663.963C122.397 665.59 121.978 666.971 121.411 668.154C114.754 668.08 108.244 667.489 101.882 666.404C102.622 665.121 103.288 663.642 103.756 661.867C105.532 655.308 103.436 651.091 101.587 647.343Z" fill="#6BC9C6"/>
<path d="M121.242 587.526C121.439 585.381 121.932 583.68 122.647 582.25L122.647 595.293C121.611 593.222 120.946 590.83 121.242 587.526Z" fill="#6BC9C6"/>
<path d="M116.874 637.383C117.343 631.959 119.883 629.32 122.644 626.682L122.644 651.635C122.102 650.821 121.559 650.057 120.992 649.317C118.625 646.137 116.381 643.079 116.874 637.383Z" fill="#6BC9C6"/>
<path d="M16.8912 574.064C19.1103 570.735 21.2062 567.579 26.7048 566.099C32.2034 564.62 35.6061 566.321 39.1814 568.097C42.9047 569.946 47.1457 572.042 53.7293 570.291C60.3128 568.516 62.9265 564.595 65.2196 561.119C67.4388 557.79 69.5346 554.634 75.0578 553.154C80.5811 551.675 83.9592 553.351 87.5591 555.151C91.3071 557.001 95.5235 559.097 102.107 557.346C104.449 556.73 106.274 555.817 107.778 554.757C107.951 555.053 108.123 555.349 108.321 555.62C107.334 556.483 106.151 557.272 104.647 557.962C99.4686 560.379 95.8441 559.294 91.9975 558.184C88.003 557.001 83.4661 555.669 77.2771 558.554C71.1127 561.439 69.2141 565.754 67.5374 569.576C65.9347 573.25 64.4059 576.727 59.2525 579.118C54.0744 581.535 50.4499 580.475 46.6033 579.316C42.6088 578.132 38.0718 576.801 31.9075 579.686C25.7432 582.57 23.8446 586.885 22.1679 590.707C20.5652 594.381 19.061 597.858 13.883 600.25C13.5871 600.398 13.3158 600.472 13.02 600.595C10.1844 594.973 7.79266 589.129 5.84473 583.064C12.083 581.264 14.6474 577.466 16.8912 574.064Z" fill="#6BC9C6"/>
<path d="M86.7461 546.422C86.3516 546.151 85.957 545.855 85.5625 545.559L105.116 545.559C105.116 546.496 105.239 547.408 105.387 548.321C103.661 549.455 101.565 550.293 98.6802 550.54C93.009 551.033 89.9762 548.789 86.7461 546.422Z" fill="#6BC9C6"/>
<path d="M12.1317 555.151C14.8934 552.241 17.5071 549.504 23.1783 549.011C28.8494 548.543 31.9069 550.762 35.1124 553.129C38.4658 555.595 42.2877 558.406 49.0438 557.814C55.8246 557.222 59.0793 553.795 61.9642 550.786C63.9615 548.691 65.8847 546.718 68.8929 545.559L79.7422 545.559C81.6902 546.348 83.3175 547.532 84.9942 548.765C88.3476 551.23 92.1695 554.041 98.9502 553.449C101.958 553.178 104.252 552.34 106.15 551.23C106.249 551.526 106.298 551.822 106.421 552.093C105.115 553.08 103.512 553.918 101.367 554.485C95.8434 555.964 92.4654 554.288 88.8654 552.512C85.1421 550.663 80.9011 548.567 74.3176 550.318C67.7341 552.093 65.1204 556.014 62.8272 559.49C60.6081 562.819 58.5122 565.975 53.0136 567.455C47.515 568.934 44.1123 567.233 40.537 565.458C36.8137 563.608 32.5727 561.512 25.9892 563.263C19.4056 565.014 16.792 568.959 14.4988 572.436C12.329 575.69 10.2578 578.773 5.05509 580.277C3.30441 574.31 1.99753 568.17 1.15918 561.882C6.60846 560.896 9.54271 557.863 12.1317 555.151Z" fill="#6BC9C6"/>
<path d="M59.868 548.765C57.1064 551.674 54.4928 554.411 48.7969 554.904C43.1011 555.397 40.0682 553.154 36.8628 550.786C33.5094 548.321 29.7122 545.51 22.9314 546.102C16.1506 546.693 12.8959 550.121 10.011 553.129C7.54522 555.718 5.20275 558.159 0.739766 559.022C0.246619 554.608 1.99394e-07 550.121 0 545.559L63.2215 545.559C61.964 546.595 60.879 547.704 59.868 548.765Z" fill="#6BC9C6"/>
<path d="M24.8791 591.889C26.4818 588.215 27.9858 584.739 33.1639 582.347C38.3173 579.93 41.9666 581.015 45.8131 582.15C49.8076 583.333 54.3445 584.665 60.5089 581.78C66.6732 578.895 68.5719 574.58 70.2486 570.758C71.8513 567.084 73.38 563.607 78.5334 561.215C83.7114 558.799 87.3361 559.859 91.1826 560.994C95.1771 562.152 99.7141 563.509 105.903 560.624C107.654 559.81 109.035 558.873 110.193 557.887C110.465 558.158 110.761 558.38 111.056 558.626C110.366 559.366 109.528 560.106 108.517 560.796C103.832 564.076 100.084 563.657 96.0894 563.213C91.9223 562.744 87.2375 562.226 81.6649 566.122C76.0924 570.018 74.9827 574.629 73.9965 578.673C73.0595 582.569 72.1718 586.243 67.487 589.522C62.8267 592.802 59.0541 592.358 55.0843 591.914C50.9419 591.445 46.257 590.928 40.6597 594.823C35.0872 598.719 33.9776 603.33 32.9913 607.374C32.0543 611.27 31.1667 614.944 26.4818 618.223C25.8653 618.667 25.2489 619.037 24.6571 619.333C20.8352 614.253 17.4079 608.878 14.375 603.232C14.6216 603.133 14.8681 603.059 15.1394 602.936C21.3037 600.051 23.2024 595.711 24.8791 591.889Z" fill="#6BC9C6"/>
<path d="M49.4135 622.071C49.6601 618.077 49.9067 614.304 53.9259 610.26C57.9697 606.216 61.7422 605.995 65.7367 605.748C69.9038 605.501 74.6134 605.181 79.4215 600.373C84.2297 595.565 84.5256 590.83 84.7968 586.688C85.0434 582.693 85.2899 578.921 89.3091 574.877C93.3529 570.833 97.1255 570.587 101.12 570.34C105.287 570.069 109.997 569.773 114.829 564.965C115.766 564.028 116.555 563.091 117.172 562.154C117.566 562.277 117.961 562.425 118.38 562.524C118.084 563.091 117.739 563.658 117.345 564.225C114.065 568.91 110.391 569.798 106.495 570.735C102.451 571.721 97.8405 572.83 93.9447 578.403C90.0488 583.976 90.5666 588.685 91.0351 592.828C91.479 596.822 91.8981 600.57 88.6434 605.255C85.3639 609.915 81.69 610.803 77.7941 611.764C73.7503 612.751 69.1394 613.86 65.2436 619.433C61.3477 625.005 61.8655 629.715 62.3339 633.857C62.7778 637.852 63.197 641.6 59.9423 646.285C59.0546 647.542 58.1422 648.529 57.1806 649.318C51.7313 645.866 46.5533 641.994 41.7451 637.753C42.5095 637.186 43.2739 636.57 44.0629 635.805C48.8711 630.948 49.1669 626.214 49.4135 622.071Z" fill="#6BC9C6"/>
<path d="M62.3358 647.912C66.2317 642.339 65.7139 637.63 65.2454 633.487C64.8016 629.517 64.3824 625.745 67.6372 621.085C70.9166 616.424 74.5906 615.512 78.4864 614.575C82.5302 613.589 87.1411 612.479 91.037 606.907C94.9329 601.334 94.415 596.625 93.9466 592.482C93.5027 588.488 93.0836 584.74 96.3383 580.055C99.6177 575.37 103.292 574.482 107.188 573.545C111.231 572.559 115.842 571.449 119.738 565.877C120.453 564.866 120.996 563.904 121.439 562.943C121.834 562.967 122.229 563.066 122.623 563.066L122.623 563.239C122.45 563.732 122.327 564.2 122.081 564.718C119.664 569.896 116.187 571.4 112.514 573.027C108.692 574.704 104.352 576.603 101.467 582.767C98.5822 588.931 99.9136 593.468 101.097 597.463C102.231 601.309 103.292 604.934 100.875 610.112C98.4588 615.266 95.0068 616.794 91.3329 618.397C87.511 620.074 83.1713 621.948 80.311 628.137C77.4261 634.301 78.7576 638.838 79.9412 642.832C81.0754 646.679 82.1357 650.304 79.7193 655.482C78.9303 657.158 78.0426 658.416 77.0563 659.451C71.0152 657.035 65.1961 654.175 59.6729 650.871C60.6345 650.057 61.4975 649.095 62.3358 647.912Z" fill="#6BC9C6"/>
<path d="M35.8275 608.04C36.7645 604.144 37.6522 600.47 42.3371 597.191C46.9973 593.911 50.7699 594.355 54.7397 594.799C58.8822 595.292 63.5671 595.785 69.1643 591.889C74.7369 587.993 75.8464 583.383 76.8327 579.339C77.7697 575.443 78.6574 571.769 83.3423 568.489C88.0272 565.21 91.7751 565.629 95.7696 566.073C99.912 566.542 104.622 567.059 110.194 563.163C111.476 562.251 112.512 561.314 113.375 560.353C113.72 560.574 114.09 560.747 114.46 560.944C113.991 561.585 113.474 562.226 112.808 562.868C108.764 566.911 104.991 567.158 100.997 567.405C96.8298 567.676 92.1203 567.972 87.2875 572.78C82.4793 577.588 82.1833 582.322 81.9121 586.465C81.6655 590.459 81.419 594.232 77.3752 598.276C73.356 602.295 69.5588 602.541 65.5643 602.788C61.3972 603.059 56.6877 603.355 51.8795 608.163C47.0713 612.971 46.7754 617.706 46.5042 621.848C46.2576 625.842 46.011 629.615 41.9918 633.659C41.1535 634.497 40.3399 635.138 39.5015 635.681C34.7919 631.341 30.4523 626.631 26.4824 621.601C27.0495 621.281 27.592 620.96 28.1838 620.566C33.7317 616.695 34.8412 612.108 35.8275 608.04Z" fill="#6BC9C6"/>
<path d="M82.7985 642.017C81.6643 638.17 80.604 634.546 83.0204 629.368C85.4369 624.19 88.8889 622.686 92.5628 621.083C96.3847 619.406 100.724 617.532 103.585 611.368C106.47 605.204 105.138 600.667 103.955 596.647C102.82 592.801 101.76 589.176 104.176 583.998C106.593 578.82 110.07 577.316 113.743 575.689C116.727 574.382 120.006 572.927 122.669 569.426L122.669 571.448C121.511 572.483 120.228 573.346 118.922 574.209C115.445 576.527 111.5 579.141 109.749 585.724C107.998 592.308 110.094 596.549 111.944 600.272C113.719 603.872 115.42 607.25 113.941 612.773C112.461 618.272 109.305 620.368 105.976 622.587C102.5 624.88 98.5546 627.494 96.8039 634.077C95.0532 640.661 97.1491 644.877 98.9984 648.625C100.774 652.201 102.475 655.603 100.996 661.102C100.478 663.074 99.7135 664.578 98.8258 665.836C92.3902 664.554 86.1026 662.803 80.0615 660.559C80.9245 659.499 81.7382 658.217 82.4533 656.663C85.3135 650.548 83.9821 646.012 82.7985 642.017Z" fill="#6BC9C6"/>
<path d="M122.646 668.229C122.251 668.229 121.832 668.204 121.438 668.204C122.005 667.021 122.424 665.64 122.646 664.013L122.646 668.229Z" fill="black"/>
<path d="M118.652 651.091C116.186 647.738 113.375 643.941 113.967 637.16C114.558 630.379 117.986 627.124 120.994 624.239C121.561 623.697 122.104 623.179 122.646 622.637L122.646 626.73C119.884 629.368 117.345 631.982 116.876 637.431C116.383 643.102 118.627 646.16 120.994 649.39C121.536 650.13 122.104 650.894 122.646 651.708L122.646 659.105C122.079 655.752 120.402 653.458 118.652 651.091Z" fill="black"/>
<path d="M80.0107 642.833C78.8271 638.838 77.4956 634.301 80.3805 628.137C83.2654 621.973 87.5804 620.074 91.4023 618.397C95.0763 616.795 98.5283 615.29 100.945 610.112C103.361 604.934 102.276 601.31 101.167 597.463C99.9831 593.469 98.6516 588.932 101.537 582.767C104.421 576.603 108.761 574.704 112.583 573.028C116.257 571.425 119.734 569.896 122.15 564.718C122.397 564.2 122.495 563.732 122.693 563.239L122.693 569.452C120.03 572.929 116.75 574.409 113.767 575.715C110.093 577.318 106.616 578.847 104.2 584.025C101.783 589.203 102.868 592.828 103.978 596.674C105.161 600.669 106.493 605.206 103.608 611.395C100.723 617.559 96.4078 619.458 92.5859 621.11C88.912 622.712 85.4353 624.216 83.0435 629.394C80.6271 634.572 81.712 638.197 82.8216 642.044C84.0052 646.038 85.3366 650.575 82.4517 656.739C81.7366 658.293 80.923 659.55 80.0599 660.635C79.0737 660.265 78.112 659.871 77.1504 659.501C78.1367 658.465 79.0244 657.208 79.8134 655.531C82.2052 650.329 81.1449 646.679 80.0107 642.833Z" fill="black"/>
<path d="M22.1879 590.73C23.8646 586.909 25.7386 582.569 31.9276 579.709C38.0919 576.824 42.6289 578.18 46.6233 579.339C50.4699 580.473 54.0945 581.533 59.2726 579.142C64.4506 576.725 65.9548 573.273 67.5575 569.599C69.2342 565.777 71.1081 561.438 77.2971 558.577C83.4614 555.692 88.023 557.024 92.0175 558.207C95.8641 559.342 99.4887 560.402 104.667 557.986C106.171 557.295 107.354 556.481 108.341 555.643C108.908 556.432 109.524 557.196 110.19 557.887C109.031 558.898 107.65 559.81 105.9 560.624C99.7353 563.509 95.1983 562.153 91.1792 560.994C87.3326 559.859 83.708 558.799 78.53 561.216C73.3519 563.632 71.8479 567.084 70.2451 570.758C68.5684 574.58 66.6944 578.92 60.5054 581.78C54.3411 584.64 49.8042 583.309 45.8097 582.15C41.9631 581.015 38.3385 579.955 33.1604 582.347C27.9824 584.763 26.4783 588.215 24.8756 591.889C23.1989 595.711 21.3249 600.051 15.1359 602.911C14.8647 603.034 14.6428 603.108 14.3716 603.207C13.9031 602.344 13.4839 601.481 13.04 600.593C13.3359 600.47 13.6072 600.396 13.9031 600.248C19.0811 597.856 20.5852 594.404 22.1879 590.73Z" fill="black"/>
<path d="M61.9859 550.786C59.101 553.819 55.8462 557.222 49.0655 557.814C42.3093 558.406 38.4874 555.595 35.134 553.129C31.9039 550.737 28.871 548.518 23.1998 549.011C17.504 549.504 14.915 552.241 12.1534 555.151C9.56438 557.863 6.63015 560.896 1.13156 561.907C1.00828 560.945 0.860349 559.984 0.761719 559.022C5.2247 558.159 7.5671 555.718 10.0328 553.129C12.9177 550.121 16.1726 546.693 22.9533 546.102C29.7341 545.51 33.5313 548.321 36.8847 550.786C40.1148 553.178 43.1477 555.422 48.8189 554.904C54.5147 554.411 57.1037 551.674 59.89 548.765C60.9009 547.704 61.9859 546.595 63.2434 545.559L68.9639 545.559C65.8817 546.693 63.9585 548.691 61.9859 550.786Z" fill="black"/>
<path d="M98.9732 648.651C97.1239 644.927 95.028 640.686 96.7787 634.103C98.5293 627.519 102.475 624.906 105.951 622.612C109.28 620.393 112.436 618.297 113.916 612.799C115.395 607.276 113.718 603.898 111.918 600.298C110.069 596.574 107.973 592.333 109.724 585.75C111.499 579.166 115.42 576.553 118.896 574.235C120.203 573.372 121.485 572.509 122.644 571.473L122.644 575.196C121.929 575.714 121.214 576.207 120.524 576.676C117.195 578.895 114.039 580.991 112.559 586.514C111.08 592.037 112.757 595.415 114.557 599.015C116.406 602.739 118.502 606.98 116.751 613.563C115 620.147 111.055 622.76 107.579 625.054C104.25 627.273 101.094 629.369 99.6143 634.867C98.1349 640.366 99.8116 643.768 101.612 647.344C103.461 651.067 105.557 655.308 103.806 661.892C103.338 663.692 102.672 665.146 101.932 666.429C100.897 666.256 99.8609 666.083 98.8253 665.886C99.7129 664.629 100.453 663.1 100.995 661.152C102.425 655.629 100.749 652.251 98.9732 648.651Z" fill="black"/>
<path d="M14.4469 572.459C16.7647 568.982 19.3784 565.037 25.9373 563.286C32.5208 561.536 36.7372 563.631 40.4851 565.481C44.0604 567.256 47.4631 568.957 52.9617 567.478C58.4849 565.999 60.5562 562.842 62.7753 559.514C65.0931 556.037 67.7068 552.092 74.2657 550.341C80.8492 548.591 85.0902 550.686 88.8135 552.536C92.4135 554.311 95.7915 555.988 101.315 554.508C103.46 553.941 105.063 553.103 106.37 552.117C106.739 553.029 107.208 553.916 107.726 554.73C106.222 555.79 104.397 556.703 102.054 557.319C95.471 559.095 91.2299 556.974 87.5067 555.125C83.9067 553.349 80.5286 551.648 75.0054 553.127C69.4821 554.607 67.3863 557.763 65.1671 561.092C62.8493 564.568 60.2356 568.514 53.6768 570.264C47.0933 572.015 42.8769 569.919 39.129 568.07C35.529 566.294 32.1509 564.618 26.6523 566.073C21.1291 567.552 19.0579 570.708 16.8387 574.037C14.5949 577.415 12.0305 581.237 5.81686 583.061C5.52097 582.149 5.24975 581.212 4.97852 580.275C10.2305 578.771 12.3017 575.714 14.4469 572.459Z" fill="black"/>
<path d="M46.5035 621.875C46.7747 617.708 47.0706 612.998 51.8787 608.19C56.6869 603.382 61.3965 603.086 65.5636 602.814C69.5581 602.568 73.3306 602.321 77.3744 598.302C81.4182 594.258 81.6401 590.486 81.9114 586.491C82.1826 582.324 82.4786 577.615 87.2867 572.806C92.0949 567.998 96.8291 567.702 100.996 567.431C104.991 567.185 108.788 566.938 112.807 562.894C113.448 562.253 113.991 561.612 114.459 560.971C115.347 561.439 116.259 561.834 117.221 562.154C116.58 563.091 115.815 564.028 114.878 564.965C110.07 569.774 105.336 570.094 101.169 570.341C97.1743 570.587 93.3771 570.834 89.3579 574.878C85.3141 578.921 85.0922 582.694 84.8456 586.689C84.5744 590.856 84.2785 595.565 79.4703 600.373C74.6621 605.182 69.9526 605.477 65.7855 605.749C61.791 605.995 58.0184 606.242 53.9746 610.261C49.9308 614.305 49.709 618.077 49.4624 622.072C49.1911 626.239 48.8952 630.949 44.087 635.757C43.3226 636.521 42.5336 637.162 41.7692 637.705C41.0295 637.039 40.2651 636.398 39.5254 635.707C40.3391 635.165 41.1775 634.524 42.0158 633.685C46.0103 629.666 46.2569 625.869 46.5035 621.875Z" fill="black"/>
<path d="M98.9483 553.449C92.1675 554.066 88.3456 551.23 84.9922 548.765C83.3155 547.532 81.7128 546.348 79.7402 545.559L85.5347 545.559C85.9292 545.855 86.3237 546.126 86.7182 546.422C89.9483 548.789 92.9812 551.058 98.6771 550.54C101.562 550.293 103.658 549.455 105.384 548.321C105.556 549.332 105.803 550.293 106.124 551.23C104.25 552.34 101.981 553.178 98.9483 553.449Z" fill="black"/>
<path d="M32.9877 607.375C33.974 603.331 35.0836 598.72 40.6562 594.824C46.2287 590.928 50.9137 591.446 55.0808 591.915C59.0506 592.358 62.8232 592.778 67.4834 589.523C72.1683 586.243 73.0559 582.569 73.9929 578.674C74.9792 574.63 76.0888 570.019 81.6614 566.123C87.2339 562.203 91.9188 562.745 96.0859 563.213C100.056 563.657 103.828 564.076 108.513 560.797C109.524 560.082 110.338 559.367 111.053 558.627C111.793 559.268 112.557 559.885 113.371 560.403C112.508 561.364 111.472 562.301 110.19 563.213C104.617 567.134 99.9078 566.592 95.7654 566.123C91.7709 565.679 88.023 565.26 83.3381 568.539C78.6532 571.819 77.7655 575.493 76.8285 579.389C75.8422 583.432 74.7326 588.043 69.1601 591.939C63.5875 595.835 58.9026 595.342 54.7355 594.849C50.7657 594.405 46.9931 593.986 42.3329 597.241C37.648 600.52 36.7603 604.194 35.8233 608.09C34.837 612.134 33.7275 616.745 28.1549 620.64C27.5878 621.035 27.0206 621.38 26.4535 621.676C25.8371 620.912 25.2207 620.147 24.6289 619.358C25.2207 619.038 25.8371 618.693 26.4535 618.249C31.1384 614.945 32.0507 611.271 32.9877 607.375Z" fill="black"/>
<path d="M59.9394 646.235C63.2189 641.575 62.7996 637.802 62.3311 633.808C61.8626 629.665 61.3449 624.956 65.2407 619.383C69.1366 613.811 73.7475 612.701 77.7913 611.715C81.6872 610.778 85.3611 609.89 88.6405 605.205C91.92 600.52 91.5008 596.772 91.0323 592.778C90.5638 588.636 90.046 583.951 93.9419 578.353C97.8624 572.781 102.449 571.647 106.492 570.685C110.388 569.748 114.062 568.836 117.342 564.175C117.761 563.584 118.081 563.017 118.377 562.474C119.364 562.721 120.375 562.844 121.41 562.918C120.966 563.88 120.424 564.841 119.709 565.852C115.788 571.425 111.202 572.534 107.158 573.521C103.262 574.458 99.5884 575.37 96.309 580.03C93.0296 584.715 93.4488 588.463 93.9172 592.457C94.3857 596.6 94.9035 601.309 91.0076 606.882C87.1118 612.455 82.5255 613.564 78.457 614.55C74.5612 615.487 70.8873 616.375 67.6078 621.06C64.3284 625.72 64.7476 629.493 65.2161 633.463C65.6845 637.605 66.2024 642.315 62.3065 647.887C61.4682 649.071 60.6051 650.008 59.7421 650.846C58.8791 650.328 58.0161 649.786 57.1777 649.243C58.1147 648.479 59.0518 647.517 59.9394 646.235Z" fill="black"/>
<path d="M118.33 587.278C118.749 582.519 120.549 579.511 122.645 577.144L122.645 582.248C121.93 583.678 121.437 585.404 121.24 587.524C120.944 590.828 121.609 593.22 122.645 595.291L122.645 600.716C120.278 597.486 117.763 593.713 118.33 587.278Z" fill="black"/>
</svg>
