<svg width="123" height="246" viewBox="0 0 123 246" fill="none" xmlns="http://www.w3.org/2000/svg">
<path d="M0 185.712V178.33C30.5401 178.33 55.3031 153.543 55.3031 123.027H62.6851C62.7098 157.591 34.5891 185.712 0 185.712Z" fill="#6BC9C6"/>
<path d="M0 151.865V144.483C11.8507 144.483 21.4794 134.854 21.4794 123.004H28.8613C28.8613 138.928 15.9243 151.865 0 151.865Z" fill="#6BC9C6"/>
<path d="M0 163.148V155.766C18.0723 155.766 32.7622 141.076 32.7622 123.004H40.1441C40.1441 145.15 22.1459 163.148 0 163.148Z" fill="#6BC9C6"/>
<path d="M0 174.429V167.047C24.2939 167.047 44.045 147.321 44.045 123.002H51.4269C51.4269 151.37 28.3675 174.429 0 174.429Z" fill="#6BC9C6"/>
<path d="M0 196.995V189.613C36.7617 189.613 66.5859 159.789 66.5859 123.027H73.9679C73.9679 163.813 40.8107 196.995 0 196.995Z" fill="#6BC9C6"/>
<path d="M0 230.816V223.434C55.4512 223.434 100.434 178.476 100.434 123H107.816C107.816 182.451 59.4508 230.816 0 230.816Z" fill="#6BC9C6"/>
<path d="M0 242.1V234.718C61.6975 234.718 111.717 184.699 111.717 123.001H119.099C119.099 188.674 65.6724 242.1 0 242.1Z" fill="#6BC9C6"/>
<path d="M0 208.25V200.868C43.008 200.868 77.8688 166.008 77.8688 123H85.2507C85.2507 170.032 47.0323 208.25 0 208.25Z" fill="#6BC9C6"/>
<path d="M0 219.536V212.154C49.2296 212.154 89.1515 172.232 89.1515 123.002H96.5335C96.5335 176.256 53.2292 219.536 0 219.536Z" fill="#6BC9C6"/>
<path d="M119.099 123.026H123C123 127.273 122.778 131.47 122.358 135.593C121.716 141.79 120.63 147.863 119.124 153.764C117.618 159.665 115.667 165.393 113.322 170.898C110.976 176.404 108.261 181.737 105.175 186.798C103.125 190.18 100.903 193.464 98.558 196.599C76.1405 226.596 40.3416 246.002 0 246.002V242.101C65.6724 242.101 119.099 188.674 119.099 123.026Z" fill="#6BC9C6"/>
<path d="M107.816 123.027H111.717C111.717 184.725 61.6975 234.744 0 234.744V230.844C59.4508 230.819 107.816 182.453 107.816 123.027Z" fill="#6BC9C6"/>
<path d="M96.5335 123.025H100.434C100.434 178.477 55.4759 223.46 0 223.46V219.559C53.2292 219.534 96.5335 176.255 96.5335 123.025Z" fill="#6BC9C6"/>
<path d="M85.2507 123.027H89.1515C89.1515 172.256 49.2296 212.178 0 212.178V208.277C47.0323 208.253 85.2507 170.034 85.2507 123.027Z" fill="#6BC9C6"/>
<path d="M73.9679 123.027H77.8687C77.8687 166.035 42.9833 200.895 0 200.895V196.994C40.8107 196.994 73.9679 163.813 73.9679 123.027Z" fill="#6BC9C6"/>
<path d="M62.7085 123.026H66.6093C66.6093 159.788 36.7852 189.612 0.0234375 189.612V185.711C34.5879 185.711 62.7085 157.591 62.7085 123.026Z" fill="#6BC9C6"/>
<path d="M51.4257 123.026H55.3265C55.3265 153.566 30.5389 178.329 0.0234375 178.329V174.428C28.3663 174.428 51.4257 151.369 51.4257 123.026Z" fill="#6BC9C6"/>
<path d="M40.1441 123.029H44.045C44.045 147.323 24.3185 167.074 0 167.074V163.173C22.1459 163.148 40.1441 145.15 40.1441 123.029Z" fill="#6BC9C6"/>
<path d="M28.8613 123.027H32.7622C32.7622 141.099 18.0723 155.789 0 155.789V151.888C15.9243 151.863 28.8613 138.926 28.8613 123.027Z" fill="#6BC9C6"/>
<path d="M17.5785 123.027H21.4794C21.4794 134.877 11.8507 144.506 0 144.506V140.605C9.72742 140.581 17.5785 132.729 17.5785 123.027Z" fill="#6BC9C6"/>
<path d="M63.1939 17.4566C68.0645 20.374 72.7125 23.6375 77.1133 27.1977L14.4636 101.863L63.1939 17.4566Z" fill="#C31632"/>
<path d="M44.5034 8.33199C49.7943 10.3841 54.912 12.7823 59.832 15.5266L11.2749 99.6116L44.5034 8.33199Z" fill="#C31632"/>
<path d="M80.1312 29.6929C84.4578 33.4014 88.5125 37.4066 92.2705 41.6838L17.2591 104.63L80.1312 29.6929Z" fill="#C31632"/>
<path d="M3.93049 0.0999763C9.64164 0.273041 15.2291 0.841698 20.7178 1.75647L3.93049 96.9424L3.93049 0.0999763Z" fill="#C31632"/>
<path d="M24.5542 2.44856C30.1417 3.58585 35.5561 5.09399 40.8223 6.94826L7.69264 97.9312L24.5542 2.44856Z" fill="#C31632"/>
<path d="M94.8134 44.6521C98.4478 49.053 101.785 53.7257 104.802 58.5963L19.4806 107.846L94.8134 44.6521Z" fill="#C31632"/>
<path d="M121.146 101.688C122.135 107.349 122.728 113.159 122.926 119.068L22.5231 119.068L121.146 101.688Z" fill="#C31632"/>
<path d="M106.78 61.9571C109.623 66.9265 112.145 72.1185 114.271 77.5082L21.1376 111.404L106.78 61.9571Z" fill="#C31632"/>
<path d="M115.706 81.1445C117.659 86.559 119.242 92.1218 120.453 97.8577L22.1768 115.189L115.706 81.1445Z" fill="#C31632"/>
<path d="M3.93104 0.098905L3.93104 96.9413L20.7183 1.7554C22.004 1.97791 23.2896 2.17569 24.5505 2.44766L7.71376 97.955L40.8434 6.97206C42.0796 7.41709 43.291 7.86212 44.5025 8.33187L11.274 99.6115L59.8311 15.5265C60.9684 16.1693 62.1057 16.8121 63.2182 17.4796L14.488 101.886L77.1376 27.2207C78.1513 28.0366 79.1402 28.8772 80.1292 29.7178L17.257 104.655L92.2685 41.7087C93.1338 42.673 93.9991 43.6619 94.815 44.6509L19.4821 107.869L104.803 58.6197C105.496 59.7323 106.138 60.8448 106.781 61.9821L21.1387 111.429L114.273 77.5333C114.742 78.7447 115.237 79.9562 115.682 81.1676L22.1523 115.212L120.429 97.8808C120.701 99.1417 120.898 100.427 121.121 101.713L22.4984 119.094L122.901 119.094C122.951 120.404 123 121.69 123 123L17.5785 123C17.5785 113.308 9.71638 105.422 -7.6838e-07 105.422L-5.3765e-06 5.3765e-06C1.33507 5.31814e-06 2.62069 0.0494514 3.93104 0.098905Z" fill="white"/>
</svg>
