<svg width="125" height="246" viewBox="0 0 125 246" fill="none" xmlns="http://www.w3.org/2000/svg">
<path d="M123 123L97.7041 123C97.7041 176.984 53.9849 220.703 0.000498122 220.703L0.000495911 246C67.8247 246 123 190.824 123 123Z" fill="black"/>
<path d="M26.1704 123L0.000201386 123L0.000199098 149.17C14.4129 149.17 26.1704 137.413 26.1704 123Z" fill="white"/>
<path d="M88.9795 122.999L64.0978 122.999C64.0978 158.338 35.43 187.097 0.000781452 187.097L0.000779277 211.978C49.0428 211.978 88.9795 172.041 88.9795 122.999Z" fill="white"/>
<path d="M57.5747 123L32.3916 123C32.3916 140.884 17.8838 155.392 0.00024641 155.392L0.000244209 180.574C31.6615 180.666 57.5747 154.753 57.5747 123Z" fill="black"/>
<path d="M1.30824 0.000102647L1.03934 25.2951C55.0206 25.869 98.2724 70.0504 97.6986 124.032L122.994 124.301C123.715 56.4803 69.1285 0.721086 1.30824 0.000102647Z" fill="black"/>
<path d="M0.279027 96.8248L0.000832415 122.994L26.1696 123.272C26.3228 108.86 14.6907 96.978 0.279027 96.8248Z" fill="white"/>
<path d="M0.945772 34.0195L0.681275 58.8997C36.0183 59.2754 64.4702 88.2473 64.0936 123.675L88.9736 123.939C89.4949 74.8998 49.985 34.5408 0.945772 34.0195Z" fill="white"/>
<path d="M0.612882 65.4226L0.34518 90.6043C18.2278 90.7944 32.5805 105.456 32.3904 123.338L57.5718 123.606C57.9996 91.9474 32.3636 65.7602 0.612882 65.4226Z" fill="black"/>
</svg>
