<svg xmlns="http://www.w3.org/2000/svg" width="35" height="34" viewBox="0 0 35 34" fill="none">
<path d="M17.5 0C7.84 0 0 7.616 0 17C0 26.384 7.84 34 17.5 34C27.16 34 35 26.384 35 17C35 7.616 27.16 0 17.5 0ZM25.62 11.56C25.3575 14.246 24.22 20.774 23.6425 23.783C23.3975 25.058 22.9075 25.483 22.4525 25.534C21.4375 25.619 20.6675 24.888 19.6875 24.259C18.1475 23.273 17.2725 22.661 15.785 21.709C14.0525 20.604 15.1725 19.992 16.17 19.006C16.4325 18.751 20.9125 14.79 21 14.433C21.0122 14.3789 21.0105 14.3228 20.9953 14.2695C20.98 14.2161 20.9516 14.1672 20.9125 14.127C20.8075 14.042 20.6675 14.076 20.545 14.093C20.3875 14.127 17.9375 15.708 13.16 18.836C12.46 19.295 11.83 19.533 11.27 19.516C10.64 19.499 9.45 19.176 8.5575 18.887C7.455 18.547 6.5975 18.36 6.6675 17.765C6.7025 17.459 7.14 17.153 7.9625 16.83C13.0725 14.671 16.4675 13.243 18.165 12.563C23.03 10.591 24.0275 10.251 24.6925 10.251C24.8325 10.251 25.165 10.285 25.375 10.455C25.55 10.591 25.6025 10.778 25.62 10.914C25.6025 11.016 25.6375 11.322 25.62 11.56Z" fill="black"/>
</svg>
