<svg width="131" height="131" viewBox="0 0 131 131" fill="none" xmlns="http://www.w3.org/2000/svg">
<path d="M76.0335 77.9039C78.4929 75.7701 80.3708 72.9116 81.2759 69.5338C82.2004 66.0836 81.968 62.608 80.8326 59.5109C102.809 63.0979 124.347 49.5004 130.23 27.5448C108.25 21.6554 85.7292 33.5156 77.8476 54.3409C75.7091 51.8026 72.8153 49.8635 69.3892 48.9455C66.0114 48.0404 62.5969 48.2375 59.5193 49.3006C63.0451 27.3598 49.4588 5.87652 27.5273 0C21.6508 21.9315 33.4693 44.4151 54.2028 52.3496C51.6645 54.4882 49.7254 57.382 48.8009 60.8322C47.8894 64.2341 48.0864 67.6486 49.1736 70.7327C27.2859 67.2987 5.86374 80.8497 0.000157736 102.733C21.8834 108.596 44.3235 96.8439 52.2998 76.1474C54.4272 78.631 57.2857 80.509 60.6876 81.4205C64.1377 82.345 67.6134 82.1126 70.7346 80.9836C67.2394 102.907 80.8015 124.384 102.733 130.26C108.61 108.329 96.7976 85.8208 76.0335 77.9039Z" fill="#F3A41E"/>
</svg>
