<svg width="57" height="57" viewBox="0 0 57 57" fill="none" xmlns="http://www.w3.org/2000/svg">
<path d="M45.0626 22.2387C42.2153 25.0854 37.6034 25.0854 34.7695 22.2387C31.9221 19.392 31.9221 14.7812 34.7695 11.948L37.6168 9.10129L28.5134 0L19.4099 9.10129L22.3241 12.0148C25.1714 14.8615 25.1714 19.4722 22.3241 22.3055C19.4768 25.1522 14.8649 25.1522 12.031 22.3055L9.11679 19.392L0 28.5067L9.10342 37.608L12.0042 34.7079C14.8515 31.8612 19.4634 31.8612 22.2974 34.7079C25.1447 37.5545 25.1447 42.1653 22.2974 44.9986L19.3966 47.8987L28.5 57L37.6034 47.8987L34.7427 45.0387C31.8954 42.1921 31.8954 37.5812 34.7427 34.748C37.5901 31.9013 42.2019 31.9013 45.0359 34.748L47.8966 37.608L57 28.5067L47.8966 19.4054L45.0626 22.2387Z" fill="#F3A41E"/>
</svg>
