<svg xmlns="http://www.w3.org/2000/svg" width="31" height="32" viewBox="0 0 31 32" fill="none">
<path d="M2.17 2.24C4.1061e-07 4.50133 0 8.11733 0 15.36V16.64C0 23.872 4.1061e-07 27.488 2.17 29.76C4.36067 32 7.86367 32 14.88 32H16.12C23.126 32 26.629 32 28.83 29.76C31 27.4987 31 23.8827 31 16.64V15.36C31 8.128 31 4.512 28.83 2.24C26.6393 4.23855e-07 23.1363 0 16.12 0H14.88C7.874 0 4.371 4.23855e-07 2.17 2.24ZM5.22867 9.73867H8.78333C8.897 15.84 11.501 18.4213 13.5677 18.9547V9.73867H16.9053V14.9973C18.941 14.7733 21.0903 12.3733 21.8137 9.728H25.141C24.8695 11.0973 24.3275 12.3941 23.5487 13.5374C22.77 14.6808 21.7713 15.6462 20.615 16.3733C21.9057 17.0362 23.0455 17.9741 23.9593 19.1251C24.873 20.2761 25.54 21.6141 25.916 23.0507H22.2477C21.4623 20.5227 19.499 18.56 16.9053 18.2933V23.0507H16.492C9.424 23.0507 5.394 18.0587 5.22867 9.73867Z" fill="black"/>
</svg>
