<svg width="101" height="101" viewBox="0 0 101 101" fill="none" xmlns="http://www.w3.org/2000/svg">
<path d="M66.9944 13.7677C67.5139 13.7677 67.9863 13.933 68.4113 14.1692L82.5805 0H51.6445L65.7192 14.0747C66.1207 13.8858 66.5457 13.7677 66.9944 13.7677Z" fill="#F6AC1B"/>
<path d="M33.4378 13.7677C33.9573 13.7677 34.4296 13.933 34.8547 14.1692L49.0238 0H18.0879L32.1625 14.0747C32.564 13.8858 32.9891 13.7677 33.4378 13.7677Z" fill="#F6AC1B"/>
<path d="M13.744 33.4385C13.744 32.9662 13.8621 32.541 14.051 32.1396L0 18.0885V49.0246L14.1455 34.879C13.933 34.4303 13.744 33.958 13.744 33.4385Z" fill="#F6AC1B"/>
<path d="M0 0V15.468L15.468 0H0Z" fill="#F6AC1B"/>
<path d="M100.695 100.694V85.2263L85.2266 100.694H100.695Z" fill="#F6AC1B"/>
<path d="M0 100.694H15.468L0 85.2263V100.694Z" fill="#F6AC1B"/>
<path d="M67.1615 86.8088C66.6892 86.8088 66.2641 86.6907 65.8626 86.4781L51.6699 100.671H82.6058L68.4367 86.5018C68.0352 86.6907 67.6338 86.8088 67.1615 86.8088Z" fill="#F6AC1B"/>
<path d="M64.4707 82.5602L51.6476 69.7371C51.2462 69.9496 50.7975 70.0913 50.3016 70.0913C49.8293 70.0913 49.4042 69.9732 49.0028 69.7607L36.2506 82.513C36.4395 82.9144 36.5812 83.3395 36.5812 83.8118C36.5812 84.3313 36.4158 84.78 36.1797 85.2051L50.3252 99.3507L64.5179 85.1579C64.3054 84.7328 64.1401 84.2841 64.1401 83.7882C64.1873 83.3631 64.3054 82.938 64.4707 82.5602Z" fill="#F6AC1B"/>
<path d="M47.3254 67.0898C47.3254 66.5938 47.4671 66.1451 47.6797 65.7437L34.9039 52.9678C34.4552 53.2275 33.9829 53.3928 33.4397 53.3928C32.9674 53.3928 32.5423 53.2748 32.1409 53.0859L19.4123 65.8145C19.6012 66.216 19.7193 66.6411 19.7193 67.1134C19.7193 67.5857 19.5776 68.0344 19.3887 68.4359L32.1881 81.2353C32.6132 80.9992 33.0855 80.8339 33.5814 80.8339C34.0773 80.8339 34.526 80.9991 34.9511 81.2117L47.6797 68.4831C47.4671 68.058 47.3254 67.6093 47.3254 67.0898Z" fill="#F6AC1B"/>
<path d="M30.9131 82.5602L18.09 69.7371C17.6886 69.9496 17.2399 70.0913 16.744 70.0913C16.2717 70.0913 15.8466 69.9732 15.4451 69.7843L1.32324 83.9063L16.7912 99.3743L30.9839 85.1815C30.7714 84.7564 30.6061 84.3077 30.6061 83.8118C30.6061 83.3631 30.7242 82.938 30.9131 82.5602Z" fill="#F6AC1B"/>
<path d="M80.88 67.0898C80.88 66.5938 81.0217 66.1688 81.2342 65.7437L68.4584 52.9678C68.0333 53.2275 67.5374 53.3928 66.9942 53.3928C66.5219 53.3928 66.0968 53.2748 65.6954 53.0623L52.9668 65.7909C53.1557 66.1923 53.2974 66.6175 53.2974 67.0898C53.2974 67.5621 53.1557 68.0108 52.9668 68.4122L65.7663 81.2117C66.1913 80.9755 66.6636 80.8103 67.1596 80.8103C67.6555 80.8103 68.1042 80.952 68.5292 81.1881L81.2578 68.4594C81.0453 68.058 80.88 67.6093 80.88 67.0898Z" fill="#F6AC1B"/>
<path d="M83.8817 70.0901C83.4094 70.0901 82.9843 69.9721 82.5828 69.7596L69.8306 82.5118C70.0195 82.9133 70.1613 83.3383 70.1613 83.8106C70.1613 84.3302 69.9959 84.7789 69.7598 85.2039L83.9053 99.3496L99.3732 83.8815L85.2041 69.7123C84.8263 69.9484 84.3776 70.0901 83.8817 70.0901Z" fill="#F6AC1B"/>
<path d="M85.2266 0L100.695 15.468V0H85.2266Z" fill="#F6AC1B"/>
<path d="M69.7111 15.5148C69.8764 15.8927 69.9945 16.3177 69.9945 16.7428C69.9945 17.1915 69.8764 17.6166 69.6875 17.9944L82.4869 30.7939C82.912 30.5814 83.3607 30.4161 83.8566 30.4161C84.3762 30.4161 84.8485 30.5814 85.2735 30.8175L99.3482 16.7428L83.8803 1.27478L69.7111 15.5148Z" fill="#F6AC1B"/>
<path d="M83.8803 36.438C83.4316 36.438 83.0301 36.3199 82.6523 36.1546L69.6875 49.1194C69.8764 49.5209 70.0181 49.946 70.0181 50.4183C70.0181 50.8434 69.9236 51.2448 69.7583 51.6226L82.5814 64.4458C82.9829 64.2333 83.4316 64.1152 83.9039 64.1152C84.3998 64.1152 84.8485 64.2569 85.2735 64.493L99.4191 50.3475L85.2027 36.131C84.7776 36.3199 84.3526 36.438 83.8803 36.438Z" fill="#F6AC1B"/>
<path d="M16.7402 64.1174C17.2361 64.1174 17.6848 64.2827 18.1099 64.4952L30.8149 51.7902C30.6024 51.3651 30.437 50.9164 30.437 50.4205C30.437 49.8773 30.6259 49.4051 30.8621 48.9564L18.0154 36.1096C17.614 36.2985 17.1889 36.4166 16.7166 36.4166C16.2679 36.4166 15.8665 36.2985 15.4886 36.1332L1.2959 50.326L15.3942 64.4244C15.8192 64.2355 16.2679 64.1174 16.7402 64.1174Z" fill="#F6AC1B"/>
<path d="M53.3007 33.4393C53.3007 33.9353 53.1354 34.4075 52.9229 34.809L65.7931 47.6794C66.171 47.5141 66.5724 47.4196 66.9975 47.4196C67.4934 47.4196 67.9421 47.5849 68.3672 47.7974L81.2847 34.8798C81.0485 34.4548 80.8832 33.9825 80.8832 33.463C80.8832 32.9907 81.0013 32.5656 81.1902 32.1877L68.3908 19.3882C67.9657 19.6243 67.517 19.7897 66.9975 19.7897C66.5488 19.7897 66.1474 19.6716 65.7695 19.5063L53.0409 32.2349C53.2062 32.5892 53.3007 32.9906 53.3007 33.4393Z" fill="#F6AC1B"/>
<path d="M13.744 67.0895C13.744 66.5935 13.8857 66.1448 14.0983 65.7434L0 51.645V82.5811L14.1219 68.4591C13.9093 68.0577 13.744 67.609 13.744 67.0895Z" fill="#F6AC1B"/>
<path d="M51.5998 36.131C51.1983 36.3199 50.7732 36.438 50.3246 36.438C49.8759 36.438 49.4744 36.3199 49.0966 36.1546L36.1318 49.1194C36.3208 49.5209 36.4388 49.946 36.4388 50.4183C36.4388 50.8434 36.3443 51.2448 36.179 51.6226L49.0021 64.4458C49.4036 64.2333 49.8523 64.1152 50.3246 64.1152C50.8205 64.1152 51.2692 64.2805 51.6942 64.493L64.3992 51.788C64.1867 51.3629 64.0214 50.9142 64.0214 50.4183C64.0214 49.8751 64.2103 49.4029 64.4464 48.9542L51.5998 36.131Z" fill="#F6AC1B"/>
<path d="M86.8807 33.4409C86.8807 33.9368 86.7155 34.4091 86.5029 34.8105L100.696 49.0034V18.0673L86.5974 32.1656C86.7627 32.5907 86.8807 32.9922 86.8807 33.4409Z" fill="#F6AC1B"/>
<path d="M33.6058 86.8088C33.1335 86.8088 32.7084 86.6907 32.307 86.4781L18.1143 100.671H49.0502L34.8811 86.5018C34.4796 86.6907 34.0545 86.8088 33.6058 86.8088Z" fill="#F6AC1B"/>
<path d="M86.8814 67.0895C86.8814 67.5618 86.7397 68.0105 86.5508 68.4119L100.72 82.5811V51.645L86.5744 65.7906C86.7397 66.192 86.8814 66.6408 86.8814 67.0895Z" fill="#F6AC1B"/>
<path d="M19.7421 33.4393C19.7421 33.9353 19.5768 34.3839 19.3643 34.809L32.2345 47.6794C32.6124 47.5141 33.0139 47.4196 33.4389 47.4196C33.9348 47.4196 34.3835 47.5849 34.8086 47.7974L47.7261 34.8798C47.49 34.4548 47.3246 33.9825 47.3246 33.463C47.3246 32.9907 47.4427 32.5656 47.6316 32.1877L34.8322 19.3882C34.4071 19.6243 33.9585 19.7897 33.4389 19.7897C32.9902 19.7897 32.5888 19.6716 32.2109 19.5063L19.4587 32.2586C19.624 32.5892 19.7421 32.9906 19.7421 33.4393Z" fill="#F6AC1B"/>
<path d="M16.744 30.4374C17.2635 30.4374 17.7358 30.6028 18.1609 30.8389L30.8422 18.1575C30.6061 17.7324 30.4408 17.2601 30.4408 16.7406C30.4408 16.221 30.6061 15.7724 30.8422 15.3473L16.7912 1.29614L1.32324 16.7642L15.3743 30.8153C15.7994 30.6028 16.248 30.4374 16.744 30.4374Z" fill="#F6AC1B"/>
<path d="M48.9324 30.8153C49.3575 30.6028 49.8062 30.4374 50.3021 30.4374C50.8217 30.4374 51.2939 30.6028 51.719 30.8389L64.4004 18.1575C64.1643 17.7324 63.9989 17.2601 63.9989 16.7406C63.9989 16.221 64.1643 15.7724 64.4004 15.3473L50.3493 1.29614L36.133 15.5126C36.2983 15.8905 36.4164 16.2919 36.4164 16.7406C36.4164 17.1893 36.2983 17.6143 36.1094 17.9922L48.9324 30.8153Z" fill="#F6AC1B"/>
<path d="M82.6048 0L68.4357 14.1692C68.0106 13.933 67.5383 13.7677 67.0188 13.7677C66.5701 13.7677 66.145 13.8858 65.7672 14.0747L51.6925 0H49.0476L34.8785 14.1692C34.4534 13.933 33.9811 13.7677 33.4616 13.7677C33.0129 13.7677 32.5878 13.8858 32.21 14.0747L18.1353 0H15.4904L0.0224609 15.468V18.113L14.0735 32.1641C13.8846 32.5655 13.7665 32.9906 13.7665 33.463C13.7665 33.9825 13.9318 34.4547 14.168 34.8798L0.0224609 49.0254V51.6704L14.1207 65.7687C13.9082 66.1702 13.7665 66.6189 13.7665 67.1148C13.7665 67.6107 13.9318 68.0594 14.1443 68.4845L0.0224609 82.6064V85.2514L15.4904 100.719H18.1353L32.328 86.5265C32.7295 86.7155 33.1546 86.8572 33.6269 86.8572C34.0756 86.8572 34.5006 86.7391 34.8785 86.5502L49.0476 100.719H51.6925L65.8852 86.5265C66.2867 86.7155 66.7117 86.8572 67.1841 86.8572C67.6327 86.8572 68.0578 86.7391 68.4357 86.5502L82.6048 100.719H85.2497L100.718 85.2514V82.6064L86.5485 68.4372C86.761 68.0358 86.8791 67.5871 86.8791 67.1148C86.8791 66.6425 86.761 66.2174 86.5485 65.8159L100.694 51.6704V49.0254L86.5013 34.8326C86.7138 34.4075 86.8791 33.9589 86.8791 33.463C86.8791 33.0143 86.761 32.6128 86.5957 32.2349L100.694 18.1366V15.4917L85.2261 0.0236384H82.6048V0ZM65.7672 19.459C66.145 19.6243 66.5701 19.7424 66.9951 19.7424C67.5147 19.7424 67.9634 19.5771 68.3885 19.341L81.1879 32.1404C80.999 32.5419 80.8809 32.967 80.8809 33.4157C80.8809 33.9352 81.0462 34.4075 81.2823 34.8326L68.3648 47.7502C67.9397 47.5377 67.491 47.3723 66.9951 47.3723C66.5701 47.3723 66.1686 47.4668 65.7908 47.6322L52.9205 34.7618C53.133 34.3367 53.2983 33.888 53.2983 33.392C53.2983 32.9433 53.1802 32.5419 53.0149 32.1641L65.7672 19.459ZM64.3738 51.7884L51.6689 64.4935C51.2438 64.2809 50.7951 64.1156 50.2992 64.1156C49.8269 64.1156 49.3782 64.2573 48.9768 64.4463L36.1537 51.6231C36.319 51.2452 36.4135 50.8438 36.4135 50.4187C36.4135 49.9464 36.2954 49.5213 36.1065 49.1199L49.0712 36.1551C49.449 36.3204 49.8741 36.4384 50.2992 36.4384C50.7715 36.4384 51.1966 36.3203 51.5744 36.1314L64.4211 48.9782C64.1613 49.4032 63.996 49.8992 63.996 50.4423C63.996 50.9146 64.1613 51.3633 64.3738 51.7884ZM36.1537 15.5153L50.37 1.29881L64.4211 15.35C64.1849 15.775 64.0196 16.2237 64.0196 16.7433C64.0196 17.2628 64.1849 17.7351 64.4211 18.1602L51.7397 30.8416C51.3147 30.6055 50.8423 30.4401 50.3228 30.4401C49.8269 30.4401 49.3546 30.6054 48.9531 30.818L36.1537 18.0185C36.3426 17.6407 36.4607 17.2156 36.4607 16.7669C36.4371 16.3182 36.319 15.8931 36.1537 15.5153ZM32.21 19.459C32.5878 19.6243 32.9893 19.7424 33.438 19.7424C33.9575 19.7424 34.4062 19.5771 34.8312 19.341L47.6307 32.1404C47.4418 32.5419 47.3237 32.967 47.3237 33.4157C47.3237 33.9352 47.489 34.4075 47.7252 34.8326L34.8076 47.7502C34.3826 47.5377 33.9339 47.3723 33.438 47.3723C33.0129 47.3723 32.6114 47.4668 32.2336 47.6322L19.3633 34.7618C19.5758 34.3367 19.7411 33.888 19.7411 33.392C19.7411 32.9433 19.6231 32.5419 19.4578 32.1641L32.21 19.459ZM1.32129 16.7669L16.7892 1.29881L30.8403 15.35C30.6041 15.775 30.4388 16.2237 30.4388 16.7433C30.4388 17.2628 30.6041 17.7351 30.8403 18.1602L18.1589 30.8416C17.7339 30.6055 17.2615 30.4401 16.742 30.4401C16.2461 30.4401 15.7974 30.6054 15.3723 30.818L1.32129 16.7669ZM1.32129 50.3479L15.514 36.1551C15.8919 36.3204 16.2933 36.4384 16.742 36.4384C17.2143 36.4384 17.6394 36.3203 18.0408 36.1314L30.8875 48.9782C30.6277 49.4269 30.4624 49.8992 30.4624 50.4423C30.4624 50.9382 30.6277 51.387 30.8403 51.812L18.1353 64.5171C17.7102 64.3046 17.2615 64.1392 16.7656 64.1392C16.2933 64.1392 15.8446 64.2809 15.4432 64.4698L1.32129 50.3479ZM16.7892 99.3733L1.32129 83.9053L15.4432 69.7833C15.8446 69.9722 16.2697 70.0903 16.742 70.0903C17.2379 70.0903 17.6866 69.9486 18.0881 69.7361L30.9111 82.5592C30.7222 82.937 30.6041 83.3621 30.6041 83.8108C30.6041 84.3067 30.7694 84.7554 30.982 85.1805L16.7892 99.3733ZM33.6032 80.8117C33.0837 80.8117 32.635 80.9769 32.21 81.2131L19.4105 68.4136C19.5995 68.0122 19.7411 67.5871 19.7411 67.0912C19.7411 66.6189 19.6231 66.1937 19.4341 65.7923L32.1627 53.0636C32.5642 53.2526 32.9893 53.3707 33.4616 53.3707C34.0047 53.3707 34.477 53.1818 34.9257 52.9456L47.7015 65.7214C47.489 66.1229 47.3473 66.5716 47.3473 67.0675C47.3473 67.5634 47.5126 68.0122 47.7252 68.4372L34.9965 81.1659C34.5478 80.977 34.0992 80.8117 33.6032 80.8117ZM50.3464 99.3733L36.2009 85.2277C36.4371 84.8026 36.6024 84.3303 36.6024 83.8344C36.6024 83.3621 36.4843 82.9371 36.2718 82.5356L49.024 69.7833C49.4254 69.9722 49.8505 70.1139 50.3228 70.1139C50.8187 70.1139 51.2674 69.9722 51.6689 69.7597L64.4919 82.5828C64.303 82.9607 64.1849 83.3857 64.1849 83.8344C64.1849 84.3303 64.3502 84.779 64.5628 85.2041L50.3464 99.3733ZM67.1604 80.8117C66.6409 80.8117 66.1922 80.9769 65.7672 81.2131L52.9677 68.4136C53.1802 68.0122 53.2983 67.5635 53.2983 67.0912C53.2983 66.6189 53.1802 66.1937 52.9677 65.7923L65.6963 53.0636C66.0977 53.2526 66.5228 53.3942 66.9951 53.3942C67.5383 53.3942 68.0106 53.2053 68.4593 52.9692L81.2351 65.7451C81.0225 66.1465 80.8809 66.5952 80.8809 67.0912C80.8809 67.5871 81.0226 68.0357 81.2587 68.4608L68.5301 81.1895C68.1287 80.977 67.68 80.8117 67.1604 80.8117ZM99.3716 83.9053L83.9036 99.3733L69.7581 85.2277C69.9942 84.8026 70.1596 84.3303 70.1596 83.8344C70.1596 83.3621 70.0415 82.9371 69.8289 82.5356L82.5812 69.7833C82.9826 69.9722 83.4077 70.1139 83.88 70.1139C84.3759 70.1139 84.801 69.9722 85.2261 69.7597L99.3716 83.9053ZM99.3716 50.3479L85.2261 64.4935C84.801 64.2809 84.3523 64.1156 83.8564 64.1156C83.3841 64.1156 82.9354 64.2573 82.5339 64.4463L69.7109 51.6231C69.8762 51.2452 69.9707 50.8438 69.9707 50.4187C69.9707 49.9464 69.8526 49.5213 69.6401 49.1199L82.6048 36.1551C82.9826 36.3204 83.4077 36.4384 83.8328 36.4384C84.3051 36.4384 84.7301 36.3203 85.108 36.1314L99.3716 50.3479ZM85.2969 30.8653C84.8718 30.6291 84.3995 30.4638 83.88 30.4638C83.3841 30.4638 82.9118 30.6291 82.5103 30.8416L69.7109 18.0421C69.8998 17.6642 70.0179 17.2392 70.0179 16.7905C70.0179 16.3418 69.8998 15.9403 69.7345 15.5625L83.9509 1.34609L99.4188 16.8141L85.2969 30.8653Z" fill="black"/>
</svg>
