<svg width="119" height="317" viewBox="0 0 119 317" fill="none" xmlns="http://www.w3.org/2000/svg">
<path d="M66.991 150.74C39.4354 150.74 17.0771 128.382 17.0771 100.826V150.74C44.6328 150.74 66.991 173.098 66.991 200.654C66.991 173.098 89.3493 150.74 116.905 150.74V100.826C116.905 128.405 94.5467 150.74 66.991 150.74Z" fill="#F6AC1B"/>
<path d="M17.0771 150.741V200.655H66.991C39.412 200.655 17.0771 178.32 17.0771 150.741Z" fill="#F6AC1B"/>
<path d="M66.9922 200.655H116.906V150.741C116.906 178.32 94.5479 200.655 66.9922 200.655Z" fill="#F6AC1B"/>
<path d="M66.991 150.74C66.991 123.184 89.3493 100.826 116.905 100.826H17.0771C44.6328 100.826 66.991 123.184 66.991 150.74Z" fill="#F6AC1B"/>
<path d="M66.991 150.74C66.991 123.184 44.6328 100.826 17.0771 100.826C17.0771 128.405 39.412 150.74 66.991 150.74Z" fill="#6BC9C6"/>
<path d="M66.9922 150.74C94.5479 150.74 116.906 128.382 116.906 100.826C89.3271 100.826 66.9922 123.184 66.9922 150.74Z" fill="#6BC9C6"/>
<path d="M17.0771 150.741C17.0771 178.297 39.4354 200.655 66.991 200.655C66.991 173.099 44.6328 150.741 17.0771 150.741Z" fill="#6BC9C6"/>
<path d="M66.9922 200.655C94.5479 200.655 116.906 178.297 116.906 150.741C89.3271 150.741 66.9922 173.099 66.9922 200.655Z" fill="#6BC9C6"/>
<path d="M20.0389 296.887C21.7246 293.492 23.34 290.262 21.9353 285.041C20.5306 279.82 17.5338 277.83 14.3732 275.723C11.0722 273.546 7.3497 271.064 5.66405 264.813C4.00182 258.562 5.99185 254.535 7.74774 251C9.43339 247.582 11.0488 244.374 9.64409 239.13C8.23938 233.886 5.24265 231.896 2.08205 229.789C1.42652 229.344 0.747614 228.876 0.0686722 228.384L0.0686721 230.21C2.05867 232.458 3.76774 235.314 4.16574 239.833C4.70421 245.966 2.3162 249.525 0.0686711 252.592L0.0686702 273.382C0.583729 273.897 1.09875 274.412 1.63722 274.903C4.51687 277.643 7.74771 280.733 8.3096 287.171C8.87148 293.609 6.20255 297.215 3.86137 300.399C2.19913 302.646 0.60714 304.824 0.0686687 307.984L0.0686685 312.667C0.279373 314.212 0.677351 315.523 1.21582 316.647C7.53701 316.576 13.7178 316.015 19.758 314.984C19.0556 313.767 18.4235 312.362 17.9787 310.677C16.293 304.449 18.283 300.446 20.0389 296.887Z" fill="#6BC9C6"/>
<path d="M1.3773 240.091C1.19 238.055 0.72175 236.439 0.0428081 235.081L0.0428075 247.466C1.0261 245.499 1.65824 243.229 1.3773 240.091Z" fill="#6BC9C6"/>
<path d="M5.52365 287.43C5.07882 282.279 2.66742 279.774 0.0452962 277.269L0.0452952 300.962C0.560355 300.189 1.07545 299.463 1.61392 298.761C3.86145 295.741 5.99188 292.838 5.52365 287.43Z" fill="#6BC9C6"/>
<path d="M100.457 227.309C98.3498 224.148 96.3598 221.152 91.1389 219.747C85.9181 218.342 82.6873 219.958 79.2926 221.643C75.7574 223.399 71.7306 225.389 65.4796 223.727C59.2287 222.041 56.747 218.319 54.5697 215.018C52.4627 211.857 50.4727 208.861 45.2284 207.456C39.9842 206.051 36.7768 207.643 33.3587 209.352C29.8001 211.108 25.7967 213.098 19.5457 211.436C17.3216 210.851 15.5891 209.984 14.1609 208.978C13.9971 209.259 13.8332 209.539 13.6459 209.797C14.5824 210.616 15.7062 211.366 17.1343 212.021C22.0508 214.315 25.4922 213.285 29.1445 212.232C32.9372 211.108 37.245 209.844 43.1213 212.583C48.9743 215.322 50.777 219.419 52.369 223.048C53.8908 226.536 55.3424 229.837 60.2354 232.108C65.1519 234.403 68.5934 233.396 72.2456 232.296C76.0383 231.172 80.3461 229.908 86.1991 232.647C92.052 235.386 93.8547 239.483 95.4467 243.112C96.9685 246.6 98.3966 249.901 103.313 252.172C103.594 252.313 103.852 252.383 104.133 252.5C106.825 247.162 109.096 241.614 110.945 235.854C105.022 234.145 102.587 230.54 100.457 227.309Z" fill="#6BC9C6"/>
<path d="M34.1291 201.064C34.5037 200.806 34.8783 200.525 35.2529 200.244L16.6874 200.244C16.6874 201.134 16.5703 202 16.4298 202.866C18.0686 203.943 20.0587 204.739 22.7978 204.973C28.1825 205.442 31.0622 203.311 34.1291 201.064Z" fill="#6BC9C6"/>
<path d="M104.975 209.351C102.353 206.589 99.8715 203.99 94.4868 203.522C89.1021 203.077 86.199 205.184 83.1555 207.432C79.9715 209.773 76.3426 212.442 69.9278 211.88C63.4896 211.318 60.3992 208.064 57.66 205.208C55.7637 203.218 53.9376 201.345 51.0813 200.244L40.7801 200.244C38.9306 200.993 37.3854 202.117 35.7934 203.288C32.6094 205.629 28.9806 208.298 22.5424 207.736C19.6861 207.479 17.5088 206.683 15.7061 205.629C15.6124 205.91 15.5656 206.191 15.4486 206.448C16.6894 207.385 18.2111 208.181 20.248 208.719C25.4922 210.124 28.6996 208.532 32.1178 206.846C35.653 205.091 39.6798 203.1 45.9307 204.763C52.1817 206.448 54.6633 210.171 56.8406 213.472C58.9477 216.633 60.9377 219.629 66.1585 221.034C71.3794 222.439 74.6102 220.823 78.0049 219.138C81.5401 217.382 85.5669 215.392 91.8179 217.054C98.0688 218.716 100.55 222.462 102.728 225.763C104.788 228.853 106.755 231.78 111.694 233.208C113.357 227.542 114.598 221.713 115.394 215.743C110.22 214.806 107.434 211.927 104.975 209.351Z" fill="#6BC9C6"/>
<path d="M59.6503 203.288C62.2724 206.05 64.7541 208.649 70.1622 209.117C75.5703 209.586 78.4499 207.455 81.4935 205.208C84.6775 202.866 88.2829 200.197 94.7211 200.759C101.159 201.321 104.25 204.575 106.989 207.432C109.33 209.89 111.554 212.208 115.792 213.027C116.26 208.836 116.494 204.575 116.494 200.244L56.4663 200.244C57.6603 201.228 58.6904 202.281 59.6503 203.288Z" fill="#6BC9C6"/>
<path d="M92.8723 244.234C91.3505 240.746 89.9224 237.445 85.0059 235.174C80.1129 232.879 76.6479 233.909 72.9957 234.986C69.2029 236.11 64.8952 237.374 59.0422 234.635C53.1893 231.896 51.3866 227.799 49.7946 224.17C48.2728 220.682 46.8213 217.381 41.9282 215.11C37.0117 212.815 33.5702 213.822 29.918 214.899C26.1252 215.999 21.8175 217.287 15.9411 214.548C14.2789 213.775 12.9678 212.886 11.8675 211.949C11.6099 212.207 11.329 212.417 11.048 212.652C11.7036 213.354 12.4996 214.056 13.4595 214.712C17.9077 217.826 21.4663 217.428 25.259 217.006C29.2156 216.561 33.6638 216.07 38.9549 219.769C44.2459 223.468 45.2995 227.846 46.236 231.685C47.1256 235.384 47.9684 238.873 52.4167 241.986C56.8415 245.1 60.4235 244.679 64.1928 244.257C68.126 243.813 72.5742 243.321 77.8887 247.02C83.1798 250.719 84.2333 255.097 85.1698 258.937C86.0595 262.636 86.9023 266.124 91.3505 269.238C91.9358 269.659 92.5211 270.01 93.083 270.291C96.7118 265.469 99.966 260.365 102.846 255.003C102.612 254.91 102.377 254.84 102.12 254.723C96.267 251.983 94.4643 247.863 92.8723 244.234Z" fill="#6BC9C6"/>
<path d="M69.5764 272.891C69.3423 269.099 69.1081 265.517 65.292 261.677C61.4525 257.838 57.8705 257.627 54.0778 257.393C50.1212 257.159 45.6495 256.854 41.0842 252.289C36.5189 247.724 36.238 243.229 35.9804 239.296C35.7463 235.503 35.5122 231.921 31.6961 228.081C27.8566 224.242 24.2746 224.008 20.4818 223.774C16.5253 223.516 12.0536 223.235 7.4649 218.67C6.57525 217.78 5.82604 216.89 5.24075 216.001C4.86616 216.118 4.49159 216.258 4.09359 216.352C4.37453 216.89 4.70226 217.429 5.07684 217.967C8.19061 222.416 11.679 223.258 15.3781 224.148C19.2176 225.085 23.5956 226.138 27.2947 231.429C30.9938 236.72 30.5021 241.192 30.0573 245.125C29.6359 248.918 29.2379 252.476 32.3282 256.925C35.442 261.349 38.9303 262.192 42.6294 263.105C46.4689 264.042 50.8469 265.095 54.546 270.386C58.245 275.677 57.7535 280.149 57.3086 284.082C56.8872 287.875 56.4891 291.434 59.5795 295.882C60.4223 297.076 61.2886 298.012 62.2017 298.761C67.3757 295.484 72.2921 291.808 76.8574 287.781C76.1317 287.243 75.4059 286.658 74.6567 285.932C70.0914 281.32 69.8105 276.825 69.5764 272.891Z" fill="#6BC9C6"/>
<path d="M57.3065 297.427C53.6075 292.136 54.099 287.664 54.5439 283.731C54.9653 279.961 55.3633 276.379 52.2729 271.955C49.1592 267.53 45.6708 266.664 41.9717 265.774C38.1322 264.837 33.7542 263.784 30.0552 258.493C26.3561 253.202 26.8478 248.73 27.2926 244.797C27.714 241.004 28.112 237.446 25.0216 232.997C21.9079 228.549 18.4195 227.706 14.7205 226.817C10.8809 225.88 6.50285 224.827 2.80379 219.536C2.12485 218.576 1.60985 217.663 1.18844 216.75C0.81385 216.773 0.439236 216.867 0.0646477 216.867L0.0646477 217.031C0.228531 217.499 0.345592 217.944 0.579712 218.435C2.87407 223.352 6.17514 224.78 9.6635 226.325C13.2923 227.917 17.4128 229.72 20.1519 235.573C22.8911 241.426 21.6269 245.733 20.5032 249.526C19.4262 253.178 18.4195 256.62 20.7139 261.536C23.0082 266.429 26.2859 267.881 29.7742 269.403C33.403 270.995 37.5235 272.774 40.2393 278.65C42.9785 284.503 41.7142 288.811 40.5905 292.604C39.5135 296.256 38.5068 299.698 40.8012 304.614C41.5503 306.206 42.3932 307.4 43.3297 308.383C49.0656 306.089 54.5907 303.373 59.835 300.236C58.9219 299.463 58.1025 298.55 57.3065 297.427Z" fill="#6BC9C6"/>
<path d="M82.4766 259.569C81.5869 255.87 80.7441 252.381 76.2958 249.268C71.871 246.154 68.289 246.575 64.5197 246.997C60.5865 247.465 56.1383 247.933 50.8238 244.234C45.5327 240.535 44.4792 236.157 43.5428 232.318C42.6531 228.618 41.8102 225.13 37.362 222.016C32.9138 218.903 29.3551 219.301 25.5624 219.722C21.6292 220.167 17.1577 220.658 11.8666 216.959C10.6492 216.093 9.66586 215.204 8.84644 214.29C8.51868 214.501 8.1675 214.665 7.81632 214.852C8.26115 215.461 8.75282 216.07 9.38494 216.678C13.2245 220.518 16.8064 220.752 20.5991 220.986C24.5557 221.244 29.0274 221.525 33.6161 226.09C38.1814 230.655 38.4624 235.15 38.7199 239.084C38.954 242.876 39.1882 246.458 43.0277 250.298C46.8438 254.114 50.4492 254.348 54.2419 254.582C58.1985 254.84 62.6702 255.121 67.2355 259.686C71.8008 264.251 72.0817 268.746 72.3392 272.679C72.5734 276.472 72.8075 280.054 76.6236 283.894C77.4196 284.69 78.1922 285.298 78.9882 285.814C83.4598 281.693 87.5803 277.221 91.3496 272.445C90.8111 272.141 90.2961 271.837 89.7342 271.462C84.4665 267.786 83.4131 263.432 82.4766 259.569Z" fill="#6BC9C6"/>
<path d="M37.8788 291.83C38.9557 288.177 39.9624 284.736 37.6681 279.819C35.3737 274.903 32.0961 273.475 28.6077 271.953C24.9789 270.361 20.8584 268.582 18.1427 262.729C15.4035 256.876 16.6677 252.568 17.7915 248.752C18.8684 245.1 19.8752 241.658 17.5808 236.742C15.2864 231.825 11.9854 230.397 8.49702 228.852C5.66419 227.611 2.55043 226.23 0.0219574 222.905L0.0219573 224.825C1.12231 225.808 2.3397 226.628 3.58052 227.447C6.88159 229.648 10.6275 232.13 12.2897 238.38C13.952 244.631 11.9619 248.658 10.206 252.193C8.52038 255.612 6.90497 258.819 8.30968 264.063C9.71439 269.284 12.7111 271.274 15.8717 273.381C19.1728 275.558 22.9187 278.04 24.5809 284.291C26.2431 290.542 24.2531 294.545 22.4972 298.104C20.8116 301.499 19.1962 304.73 20.6009 309.95C21.0925 311.823 21.8183 313.251 22.6611 314.445C28.7716 313.228 34.7416 311.566 40.4775 309.435C39.6581 308.429 38.8855 307.211 38.2066 305.736C35.4908 299.93 36.755 295.622 37.8788 291.83Z" fill="#6BC9C6"/>
<path d="M0.0422263 316.718C0.416815 316.718 0.814864 316.694 1.18945 316.694C0.650982 315.57 0.252933 314.259 0.0422264 312.714L0.0422263 316.718Z" fill="black"/>
<path d="M3.83721 300.446C6.17839 297.262 8.8474 293.656 8.28551 287.218C7.72363 280.78 4.46938 277.689 1.61314 274.95C1.07467 274.435 0.559575 273.943 0.0445156 273.428L0.0445154 277.315C2.66664 279.82 5.07804 282.301 5.52287 287.475C5.9911 292.86 3.86067 295.763 1.61314 298.83C1.09808 299.533 0.559574 300.258 0.0445144 301.031L0.0445141 308.054C0.582985 304.87 2.17498 302.693 3.83721 300.446Z" fill="black"/>
<path d="M40.5264 292.604C41.6502 288.811 42.9144 284.504 40.1752 278.651C37.4361 272.798 33.339 270.995 29.7102 269.403C26.2218 267.881 22.9442 266.453 20.6498 261.537C18.3555 256.62 19.3856 253.179 20.4391 249.526C21.5629 245.734 22.8271 241.426 20.0879 235.573C17.3487 229.72 13.2283 227.917 9.59944 226.325C6.11109 224.804 2.81001 223.352 0.515655 218.436C0.281536 217.944 0.187889 217.499 0.000591278 217.031L0.00059102 222.931C2.52907 226.232 5.64283 227.636 8.47565 228.877C11.964 230.399 15.2651 231.85 17.5594 236.767C19.8538 241.683 18.8237 245.125 17.7701 248.777C16.6464 252.57 15.3821 256.878 18.1213 262.754C20.8605 268.607 24.9575 270.41 28.5864 271.978C32.0747 273.5 35.3758 274.928 37.6467 279.845C39.9411 284.761 38.911 288.203 37.8574 291.855C36.7337 295.648 35.4695 299.955 38.2087 305.808C38.8876 307.283 39.6602 308.477 40.4796 309.507C41.4161 309.156 42.3291 308.782 43.2422 308.43C42.3057 307.447 41.4628 306.253 40.7137 304.661C38.4427 299.721 39.4495 296.256 40.5264 292.604Z" fill="black"/>
<path d="M95.4265 243.134C93.8345 239.505 92.0552 235.384 86.1789 232.669C80.3259 229.929 76.0182 231.217 72.2254 232.317C68.5732 233.394 65.1317 234.401 60.2152 232.13C55.2987 229.836 53.8705 226.558 52.3488 223.07C50.7568 219.441 48.9775 215.32 43.1012 212.605C37.2482 209.866 32.917 211.13 29.1243 212.254C25.4721 213.33 22.0305 214.337 17.1141 212.043C15.6859 211.387 14.5622 210.615 13.6257 209.819C13.0872 210.568 12.502 211.294 11.8698 211.949C12.9702 212.909 14.2812 213.775 15.9435 214.548C21.7964 217.287 26.1042 215.999 29.9203 214.899C33.5725 213.822 37.0141 212.815 41.9306 215.11C46.847 217.404 48.2751 220.682 49.7969 224.17C51.3889 227.799 53.1682 231.919 59.0446 234.635C64.8975 237.351 69.2053 236.087 72.998 234.986C76.6502 233.909 80.0918 232.903 85.0083 235.174C89.9247 237.468 91.3528 240.746 92.8746 244.234C94.4666 247.863 96.2459 251.983 102.122 254.699C102.38 254.816 102.591 254.886 102.848 254.98C103.293 254.161 103.691 253.341 104.112 252.498C103.831 252.381 103.574 252.311 103.293 252.171C98.3764 249.9 96.9483 246.622 95.4265 243.134Z" fill="black"/>
<path d="M57.64 205.207C60.3792 208.087 63.4695 211.318 69.9078 211.88C76.3226 212.442 79.9515 209.773 83.1355 207.432C86.2024 205.161 89.0821 203.054 94.4668 203.522C99.8749 203.99 102.333 206.589 104.955 209.351C107.413 211.927 110.199 214.806 115.42 215.766C115.537 214.853 115.678 213.94 115.771 213.027C111.534 212.208 109.31 209.89 106.969 207.432C104.23 204.575 101.139 201.321 94.7009 200.759C88.2626 200.197 84.6572 202.866 81.4732 205.208C78.4063 207.478 75.5266 209.609 70.1419 209.117C64.7338 208.649 62.2756 206.05 59.63 203.288C58.6702 202.281 57.64 201.227 56.446 200.244L51.0145 200.244C53.941 201.321 55.7671 203.217 57.64 205.207Z" fill="black"/>
<path d="M22.5214 298.128C24.2773 294.593 26.2674 290.566 24.6051 284.315C22.9429 278.064 19.197 275.583 15.8959 273.405C12.7353 271.298 9.73861 269.308 8.3339 264.087C6.92919 258.843 8.52119 255.636 10.2303 252.218C11.9861 248.683 13.9762 244.656 12.3139 238.405C10.6283 232.154 6.90581 229.672 3.60474 227.471C2.36392 226.652 1.14646 225.833 0.0461044 224.849L0.0461043 228.384C0.725046 228.876 1.40403 229.344 2.05955 229.789C5.22015 231.896 8.21681 233.886 9.62152 239.131C11.0262 244.375 9.43423 247.582 7.72517 251C5.96928 254.535 3.97932 258.562 5.64156 264.813C7.30379 271.064 11.0497 273.546 14.3507 275.723C17.5113 277.83 20.508 279.82 21.9127 285.041C23.3174 290.262 21.7254 293.493 20.0164 296.887C18.2605 300.423 16.2705 304.449 17.9327 310.7C18.3776 312.409 19.0096 313.791 19.712 315.008C20.6953 314.844 21.6786 314.68 22.6619 314.493C21.8191 313.299 21.1167 311.848 20.6017 309.998C19.2438 304.754 20.8358 301.546 22.5214 298.128Z" fill="black"/>
<path d="M102.778 225.785C100.578 222.484 98.0961 218.738 91.8685 217.076C85.6176 215.414 81.6142 217.404 78.0556 219.16C74.6609 220.845 71.43 222.461 66.2092 221.056C60.965 219.651 58.9984 216.655 56.8913 213.494C54.6906 210.193 52.2089 206.447 45.9814 204.785C39.7304 203.123 35.7036 205.113 32.1684 206.869C28.7503 208.554 25.5429 210.146 20.2987 208.741C18.2618 208.203 16.7401 207.407 15.4993 206.471C15.1481 207.337 14.7033 208.18 14.2116 208.952C15.6398 209.959 17.3722 210.825 19.5963 211.41C25.8473 213.096 29.8741 211.083 33.4093 209.327C36.8274 207.641 40.0348 206.026 45.2791 207.43C50.5233 208.835 52.5133 211.832 54.6204 214.992C56.8211 218.293 59.3027 222.039 65.5303 223.702C71.7812 225.364 75.7846 223.374 79.3432 221.618C82.7613 219.932 85.9687 218.34 91.1896 219.722C96.4338 221.126 98.4004 224.123 100.507 227.284C102.638 230.491 105.073 234.12 110.973 235.852C111.254 234.986 111.511 234.096 111.769 233.207C106.782 231.779 104.815 228.876 102.778 225.785Z" fill="black"/>
<path d="M72.3412 272.705C72.0837 268.748 71.8028 264.276 67.2375 259.711C62.6722 255.146 58.2005 254.865 54.2439 254.607C50.4512 254.373 46.8692 254.139 43.0297 250.323C39.1901 246.483 38.9794 242.901 38.7219 239.109C38.4644 235.152 38.1834 230.68 33.6181 226.115C29.0528 221.55 24.5577 221.269 20.6011 221.011C16.8084 220.777 13.203 220.543 9.38692 216.704C8.77821 216.095 8.26312 215.486 7.8183 214.877C6.97547 215.322 6.10925 215.697 5.19619 216.001C5.80489 216.891 6.53062 217.781 7.42027 218.67C11.9856 223.236 16.4807 223.54 20.4373 223.774C24.23 224.008 27.8354 224.242 31.6515 228.082C35.491 231.921 35.7018 235.503 35.9359 239.296C36.1934 243.253 36.4743 247.724 41.0396 252.29C45.605 256.855 50.0766 257.136 54.0332 257.393C57.8259 257.627 61.4079 257.862 65.2474 261.678C69.087 265.517 69.2977 269.099 69.5318 272.892C69.7893 276.849 70.0703 281.32 74.6356 285.885C75.3614 286.611 76.1105 287.22 76.8363 287.735C77.5387 287.103 78.2644 286.494 78.9668 285.839C78.1942 285.324 77.3982 284.715 76.6022 283.919C72.8095 280.103 72.5753 276.497 72.3412 272.705Z" fill="black"/>
<path d="M22.5455 207.736C28.9837 208.321 32.6125 205.629 35.7965 203.288C37.3886 202.117 38.9103 200.993 40.7832 200.244L35.2815 200.244C34.9069 200.525 34.5323 200.783 34.1577 201.064C31.0907 203.311 28.2111 205.465 22.803 204.973C20.0638 204.739 18.0738 203.943 16.4349 202.866C16.2711 203.826 16.037 204.739 15.7326 205.629C17.5119 206.682 19.6658 207.478 22.5455 207.736Z" fill="black"/>
<path d="M85.1738 258.937C84.2373 255.098 83.1837 250.72 77.8927 247.021C72.6016 243.322 68.1534 243.813 64.1968 244.258C60.4275 244.68 56.8455 245.078 52.4206 241.987C47.9724 238.873 47.1296 235.385 46.24 231.686C45.3035 227.846 44.2499 223.468 38.9588 219.769C33.6678 216.047 29.2196 216.562 25.263 217.007C21.4937 217.428 17.9117 217.826 13.4634 214.712C12.5035 214.034 11.731 213.355 11.052 212.652C10.3497 213.261 9.62389 213.846 8.8513 214.338C9.67072 215.251 10.654 216.141 11.8714 217.007C17.1625 220.729 21.6341 220.214 25.5673 219.769C29.36 219.348 32.9186 218.95 37.3669 222.064C41.8151 225.178 42.658 228.666 43.5476 232.365C44.4841 236.204 45.5376 240.582 50.8286 244.282C56.1197 247.981 60.568 247.512 64.5246 247.044C68.2939 246.623 71.8759 246.225 76.3007 249.315C80.7489 252.429 81.5918 255.917 82.4814 259.616C83.4179 263.456 84.4714 267.834 89.7625 271.533C90.301 271.907 90.8394 272.235 91.3779 272.516C91.9632 271.79 92.5485 271.065 93.1103 270.315C92.5485 270.011 91.9632 269.683 91.3779 269.262C86.9297 266.125 86.0634 262.636 85.1738 258.937Z" fill="black"/>
<path d="M59.5829 295.835C56.4691 291.41 56.8672 287.828 57.312 284.035C57.7568 280.102 58.2484 275.63 54.5494 270.339C50.8503 265.048 46.4723 263.995 42.6328 263.058C38.9337 262.169 35.4454 261.326 32.3316 256.877C29.2178 252.429 29.6158 248.871 30.0606 245.078C30.5055 241.145 30.9971 236.696 27.2981 231.382C23.5756 226.091 19.221 225.014 15.3815 224.101C11.6824 223.211 8.194 222.345 5.08023 217.92C4.68223 217.358 4.37791 216.82 4.09697 216.305C3.1605 216.539 2.20059 216.656 1.21729 216.726C1.63871 217.639 2.15377 218.552 2.83271 219.512C6.55519 224.803 10.9098 225.857 14.7493 226.793C18.4484 227.683 21.9367 228.549 25.0505 232.974C28.1643 237.422 27.7663 240.981 27.3214 244.774C26.8766 248.707 26.385 253.178 30.0841 258.469C33.7831 263.761 38.1377 264.814 42.0007 265.751C45.6997 266.64 49.1881 267.483 52.3019 271.931C55.4156 276.356 55.0176 279.938 54.5728 283.707C54.128 287.641 53.6363 292.112 57.3354 297.403C58.1314 298.527 58.9508 299.417 59.7702 300.213C60.5896 299.721 61.4091 299.206 62.2051 298.691C61.3154 297.965 60.4257 297.052 59.5829 295.835Z" fill="black"/>
<path d="M4.14284 239.856C3.74484 235.337 2.03578 232.481 0.045773 230.233L0.0457728 235.08C0.724715 236.437 1.19297 238.076 1.38026 240.09C1.6612 243.227 1.02907 245.498 0.0457723 247.464L0.0457721 252.615C2.2933 249.548 4.68131 245.966 4.14284 239.856Z" fill="black"/>
<path d="M17.5352 0V100.716H118.252V0H17.5352ZM103.513 85.9302H82.6797L67.8934 100.716L53.1071 85.9302H32.3686V65.1917L17.5824 50.4055L32.3686 35.6192V14.7863H53.2016L67.8934 0.0945009L82.5852 14.7863H103.513V35.7137L118.204 50.4055L103.513 65.0972V85.9302Z" fill="black"/>
<path d="M103.511 35.7132V14.7858H82.5838L67.892 0.0939941L53.2003 14.7858H32.3672V35.6187L17.5811 50.405L32.3672 65.1912V85.9297H53.1058L67.892 100.716L82.6783 85.9297H103.511V65.0967L118.203 50.405L103.511 35.7132ZM38.0597 50.405L46.8464 41.6182V29.2413H59.2235L67.9392 20.5254L76.6551 29.2413H89.0793V41.6655L97.7952 50.3813L89.0793 59.0972V71.4742H76.7024L67.9157 80.2609L59.129 71.4742H46.7992V59.1445L38.0597 50.405Z" fill="#C31632"/>
<path d="M59.1799 71.5012L67.943 80.2879L76.7297 71.5012H89.1067V59.1243L97.8226 50.4084L89.1067 41.6926V29.2448H76.6825L67.943 20.5289L59.2272 29.2448H46.8502V41.6217L38.0635 50.4084L46.8502 59.1951V71.5012H59.1799Z" fill="white"/>
</svg>
