<svg width="443" height="445" viewBox="0 0 443 445" fill="none" xmlns="http://www.w3.org/2000/svg">
<path d="M144.41 298.368C144.436 298.363 144.436 298.363 144.463 298.359L151.193 315C151.041 314.752 150.889 314.504 150.738 314.255L144.41 298.368Z" fill="black"/>
<path d="M141.221 292.362C141.293 292.623 141.338 292.889 141.41 293.15C141.334 292.862 141.284 292.57 141.203 292.255C141.212 292.308 141.216 292.335 141.221 292.362Z" fill="black"/>
<path d="M141.373 254.51C141.356 254.566 141.339 254.622 141.322 254.677C141.322 254.677 141.322 254.677 141.292 254.656L141.318 254.652C141.339 254.622 141.356 254.566 141.373 254.51Z" fill="black"/>
<path d="M143.872 246.986C143.845 246.991 143.845 246.991 143.872 246.986C143.591 247.747 143.363 248.498 143.081 249.259C143.059 249.29 143.068 249.343 143.046 249.374C143.318 248.561 143.564 247.751 143.872 246.986Z" fill="black"/>
<path d="M77.7842 324.917C76.6564 325.055 75.5065 325.223 74.3879 325.414C71.4846 325.909 68.6886 326.551 65.9464 327.347C53.4601 330.957 42.442 337.551 33.6441 346.233C32.2885 329.607 36.4346 313.578 44.6948 300.136C51.2331 289.455 60.3761 280.385 71.4259 273.978L71.4525 273.973C79.1558 269.48 86.3952 265.641 90.8453 264.251C91.8348 263.946 93.29 263.478 94.3112 263.359C82.0698 255.387 76.7555 246.728 66.8532 235.918C57.2049 225.311 48.7911 213.425 41.9723 200.444C67.12 206.626 93.9192 207.866 121.087 203.232C125.935 202.405 130.697 201.401 135.379 200.246C135.588 200.348 135.793 200.422 135.976 200.528C139.816 202.477 143.724 204.332 147.714 206.036C155.189 209.202 162.911 211.887 170.812 214.02C166.848 215.848 162.629 217.307 158.262 218.381C156.478 218.85 154.676 219.212 152.812 219.53C147.538 220.429 142.355 220.738 137.219 220.517C135.647 220.457 134.065 220.343 132.527 220.166C122.528 219.076 113.006 215.958 104.481 211.135C103.511 210.588 102.531 209.988 101.583 209.409C101.858 210.377 102.154 211.313 102.509 212.266C105.122 219.715 108.862 226.532 113.513 232.592C117.464 237.756 122.079 242.314 127.237 246.203C127.434 246.389 127.652 246.544 127.87 246.699C132.049 249.823 136.563 252.507 141.342 254.652C140.397 255.06 139.479 255.463 138.526 255.818C134.21 257.513 129.812 258.729 125.347 259.546C119.638 260.629 113.883 260.953 108.214 260.659C103.953 260.426 99.7439 259.856 95.6313 258.885C97.7434 261.787 100.046 264.519 102.53 267.028C106.579 271.162 111.083 274.752 115.901 277.767C117.005 278.456 118.1 279.091 119.222 279.722C121.47 281.011 123.766 282.1 126.133 283.121C126.458 283.258 126.787 283.421 127.108 283.531C131.325 285.278 135.715 286.585 140.142 287.475C140.116 287.479 140.085 287.457 140.085 287.457L140.125 287.533C137.165 290.587 133.995 293.375 130.632 295.84C125.516 299.59 120.002 302.614 114.196 304.892C110.7 306.256 107.111 307.389 103.44 308.207C105.492 309.31 107.553 310.301 109.644 311.151C110.471 311.503 111.294 311.829 112.144 312.15C119.502 314.951 127.161 316.468 134.807 316.781C134.807 316.781 134.807 316.781 134.834 316.777C137.1 316.884 139.347 316.884 141.599 316.747C144.863 316.601 148.113 316.211 151.354 315.604C151.407 315.595 151.46 315.586 151.514 315.577L151.568 315.732C150.036 318.323 148.406 320.821 146.612 323.156C138.974 333.175 129.044 340.844 117.93 345.754C135.466 351.178 153.868 349.629 169.792 342.391C172.133 341.334 174.425 340.148 176.668 338.833C176.152 340.95 175.52 343.031 174.831 345.095C171.843 353.772 167.28 361.732 161.443 368.648C173.62 366.763 184.738 361.879 194.115 354.825C196.001 357.848 198.13 360.691 200.371 363.379C199.742 367.571 198.776 371.71 197.463 375.744C200.575 373.897 203.423 371.794 206.169 369.572C209.503 372.731 213.085 375.574 216.906 378.047C218.331 379.01 219.796 379.884 221.278 380.7C219.579 381.346 217.898 381.934 216.203 382.443L216.176 382.447C211.3 383.909 206.342 384.892 201.426 385.319L201.4 385.324C193.118 386.106 184.849 385.515 176.94 383.657C178.599 395.955 183.2 407.341 189.988 417.092C180.501 416.271 171.541 413.715 163.384 409.761C159.734 407.971 156.235 405.937 152.935 403.622C146.998 399.509 141.711 394.545 137.137 388.938C132.552 397.093 129.644 405.758 128.292 414.54C127.442 420.167 127.206 425.854 127.587 431.463C121.734 427.198 116.612 422.234 112.304 416.746C102.141 403.761 96.5234 387.861 96.0533 371.605C85.2624 379.531 77.1105 389.912 71.8772 401.494C68.8731 395.291 66.7876 388.849 65.5901 382.31C62.3437 364.883 65.3142 346.944 73.6651 331.623C74.9179 329.326 76.2643 327.095 77.7842 324.917Z" fill="black"/>
<path d="M170.818 214.046C166.652 216.456 162.776 219.447 159.254 222.898C159.112 223.032 158.948 223.197 158.811 223.357C155.908 226.264 153.286 229.535 150.937 233.115C150.115 234.406 149.347 235.689 148.584 236.998C147.904 238.155 147.309 239.326 146.718 240.523C145.656 242.65 144.74 244.835 143.878 247.01C143.574 247.802 143.324 248.585 143.047 249.372C142.463 251.089 141.852 252.81 141.378 254.535C141.361 254.593 141.343 254.651 141.326 254.709L141.299 254.713C136.542 252.537 132.006 249.884 127.827 246.76C127.605 246.578 127.386 246.424 127.195 246.265C122.063 242.371 117.417 237.791 113.471 232.653C108.824 226.62 105.08 219.776 102.466 212.328C102.138 211.369 101.842 210.433 101.54 209.47C102.493 210.075 103.468 210.649 104.439 211.196C112.959 215.993 122.486 219.137 132.485 220.227C134.049 220.399 135.604 220.518 137.177 220.578C142.313 220.799 147.495 220.491 152.769 219.591C154.607 219.278 156.431 218.884 158.22 218.442C162.604 217.311 166.796 215.856 170.818 214.046C170.84 214.015 170.84 214.015 170.894 214.005C170.84 214.015 170.814 214.019 170.818 214.046Z" fill="#6BC9C6"/>
<path d="M140.758 257.028C140.627 257.544 140.522 258.055 140.417 258.566C139.611 262.514 139.11 266.491 138.939 270.467C138.778 273.702 138.834 276.927 139.131 280.11C139.336 282.597 139.669 285.035 140.136 287.449C135.704 286.533 131.314 285.226 127.101 283.505C126.781 283.395 126.452 283.232 126.127 283.096C123.764 282.101 121.49 280.981 119.216 279.697C118.098 279.093 117.003 278.457 115.894 277.742C111.108 274.748 106.603 271.158 102.523 267.003C100.066 264.489 97.7636 261.757 95.6248 258.86C99.7641 259.826 103.946 260.401 108.207 260.634C113.907 260.95 119.659 260.599 125.34 259.52C129.779 258.708 134.199 257.461 138.519 255.793C139.473 255.438 140.395 255.061 141.335 254.627C141.367 254.649 141.367 254.649 141.367 254.649C141.121 255.458 140.924 256.232 140.758 257.028Z" fill="#6BC9C6"/>
<path d="M140.673 289.96C140.831 290.728 140.994 291.523 141.206 292.281C141.282 292.57 141.332 292.863 141.413 293.178C141.887 294.989 142.44 296.786 143.042 298.547C144.438 302.557 146.199 306.451 148.261 310.183C149.057 311.637 149.924 313.024 150.817 314.407L151.302 315.64C148.061 316.247 144.807 316.61 141.547 316.783C139.295 316.92 137.048 316.92 134.782 316.813C134.755 316.817 134.755 316.817 134.755 316.817C127.109 316.504 119.445 314.961 112.092 312.185C111.274 311.886 110.424 311.565 109.592 311.187C107.496 310.31 105.44 309.345 103.388 308.243C107.032 307.429 110.626 306.323 114.143 304.928C119.923 302.654 125.459 299.599 130.58 295.875C133.943 293.411 137.113 290.622 140.073 287.568L140.171 287.826C140.316 288.514 140.519 289.219 140.673 289.96Z" fill="#6BC9C6"/>
<path d="M151.193 314.974L151.233 315.049C151.086 314.828 150.965 314.602 150.823 314.408L150.769 314.253C150.916 314.474 151.041 314.726 151.193 314.974Z" fill="#6BC9C6"/>
<path d="M151.606 315.643C157.078 323.783 164.221 330.952 172.971 336.614C174.174 337.395 175.398 338.146 176.618 338.87C174.375 340.184 172.11 341.365 169.742 342.427C153.844 349.661 135.416 351.214 117.88 345.79C128.993 340.88 138.923 333.211 146.561 323.192C148.329 320.862 149.986 318.359 151.517 315.768L151.606 315.643Z" fill="#6BC9C6"/>
<path d="M255.245 344.4C253.516 352.26 250.524 359.952 246.091 367.067C245.163 361.305 243.507 355.612 241.186 350.197C241.15 350.148 241.145 350.122 241.136 350.068C241.136 350.068 241.163 350.064 241.158 350.037C245.959 348.451 250.678 346.55 255.245 344.4Z" fill="#6BC9C6"/>
<path d="M222.113 351.668C228.439 351.796 234.731 351.243 240.897 350.109C240.972 350.069 241.026 350.06 241.132 350.042L241.137 350.068C241.119 350.126 241.102 350.184 241.084 350.242C237.571 359.695 232.06 368.528 224.653 376.041C225.096 368.675 224.486 361.241 222.699 353.981C222.528 353.297 222.361 352.64 222.163 351.961L222.168 351.988C222.176 351.877 222.131 351.775 222.113 351.668Z" fill="#6BC9C6"/>
<path d="M200.316 363.39C200.797 360.101 201.104 356.759 201.162 353.405C201.184 351.921 201.147 350.42 201.079 348.897C199.738 350.194 198.334 351.448 196.891 352.626C195.979 353.385 195.031 354.095 194.083 354.805C184.706 361.858 173.561 366.747 161.41 368.627C167.252 361.738 171.815 353.778 174.798 345.074C175.488 343.01 176.12 340.929 176.636 338.812C184.462 343.398 192.706 346.734 201.101 348.866C208.028 350.59 215.068 351.527 222.056 351.678C221.539 352.506 221.018 353.308 220.466 354.087C216.543 359.855 211.694 365.012 206.154 369.493C203.408 371.716 200.56 373.819 197.449 375.665C198.749 371.716 199.688 367.581 200.316 363.39Z" fill="#6BC9C6"/>
<path d="M358.224 308.254C353.376 307.792 348.229 306.861 342.964 305.402C332.839 302.606 324.005 298.384 317.524 293.651C317.409 290.245 316.997 286.861 316.371 283.514L323.994 282.57L324.026 282.593C336.357 292.056 351.614 297.622 367.794 297.987C365.027 301.694 361.797 305.095 358.224 308.254Z" fill="#6BC9C6"/>
<path d="M378.222 307.065C376.785 307.474 375.186 307.747 373.531 308.002C374.326 304.632 374.9 301.245 375.189 297.797C377.489 297.624 379.78 297.397 382.098 297.002C399.224 294.081 413.993 285.532 424.817 273.626C415.358 289.52 400.08 301.829 381.372 307.213C380.634 306.9 379.838 306.734 379.012 306.875C378.741 306.894 378.48 306.966 378.222 307.065Z" fill="#6BC9C6"/>
<path d="M297.876 296.098L278.069 298.571L249.676 302.126C253.585 298.69 256.84 294.791 259.529 290.632L284.757 287.481L304.564 285.007L304.67 284.989L310.873 284.233C309.484 287.978 307.778 291.64 305.691 295.149L297.876 296.098Z" fill="#6BC9C6"/>
<path d="M241.976 287.511C242.079 287.63 242.204 287.718 242.302 287.811C240.46 291.634 238.177 295.285 235.289 298.601C234.012 297.064 233.117 295.189 232.758 293.085C231.854 287.784 234.691 282.723 239.334 280.533C239.362 281.022 239.36 281.488 239.446 281.994C239.805 284.098 240.705 286.001 241.976 287.511Z" fill="#6BC9C6"/>
<path d="M358.226 308.25C361.804 305.119 365.029 301.69 367.769 297.989C370.668 294.095 373.145 289.973 375.092 285.639C375.48 289.684 375.518 293.762 375.191 297.792C374.902 301.24 374.333 304.654 373.533 307.997C369.018 308.685 363.825 308.776 358.226 308.25Z" fill="white"/>
<path d="M317.524 293.649L305.709 295.089C307.797 291.581 309.502 287.918 310.892 284.173C312.167 280.721 313.18 277.177 313.859 273.607C314.986 276.841 315.772 280.161 316.366 283.486C316.996 286.859 317.409 290.243 317.524 293.649Z" fill="white"/>
<path d="M343.062 247.959C343.111 247.924 343.155 247.861 343.204 247.826C343.244 247.901 343.311 247.972 343.378 248.043C351.088 250.181 359.397 250.683 367.814 249.247C371.836 248.561 375.678 247.467 379.293 246.001C386.816 243.019 393.417 238.494 398.842 232.854C399.018 233.564 399.189 234.248 399.312 234.967C399.475 235.926 399.608 236.862 399.66 237.813C400.48 246.636 397.975 255.094 393.101 261.874C393.021 260.599 392.887 259.334 392.669 258.055C392.001 254.14 390.722 250.493 388.95 247.177C382.096 251.827 374.139 255.158 365.43 256.643C360.449 257.493 355.497 257.707 350.716 257.316C350.729 257.232 350.773 257.17 350.786 257.085C350.688 257.157 350.564 257.233 350.467 257.304C350.551 257.317 350.636 257.33 350.72 257.343C349.308 262.244 346.918 266.708 343.809 270.5C342.063 272.634 340.084 274.534 337.932 276.217C338.238 274.959 338.455 273.661 338.619 272.372C338.847 270.332 338.919 268.346 338.832 266.388C338.792 265.353 338.704 264.354 338.558 263.337C337.915 263.584 337.294 263.799 336.646 264.019C333.789 264.945 330.847 265.694 327.811 266.212C325.786 266.557 323.77 266.791 321.768 266.941C320.062 267.067 318.366 267.083 316.66 267.045C318.096 266.306 319.559 265.563 320.96 264.776C329.408 259.991 336.903 254.273 343.062 247.959Z" fill="white"/>
<path d="M208.086 223.013C208.13 222.951 208.143 222.866 208.187 222.804C208.267 222.627 208.403 222.467 208.482 222.289C208.359 222.529 208.209 222.773 208.086 223.013Z" fill="#F6AC1B"/>
<path d="M204.591 234.163C204.474 234.923 204.419 235.727 204.36 236.504C204.419 235.727 204.478 234.949 204.591 234.163Z" fill="#F6AC1B"/>
<path d="M216.783 211.8C217 211.626 217.217 211.452 217.434 211.278C216.304 212.21 215.238 213.187 214.238 214.235C215.078 213.379 215.928 212.576 216.783 211.8Z" fill="#F6AC1B"/>
<path d="M205.29 230.702C205.128 231.36 204.997 232.04 204.889 232.689C204.993 232.013 205.128 231.36 205.29 230.702Z" fill="#F6AC1B"/>
<path d="M207.208 224.917C207.362 224.535 207.569 224.143 207.75 223.756C207.45 224.41 207.177 225.06 206.909 225.736C207.001 225.473 207.089 225.184 207.208 224.917Z" fill="#F6AC1B"/>
<path d="M206.029 227.97C206.103 227.765 206.178 227.56 206.253 227.356C206.073 227.907 205.893 228.459 205.717 229.037C205.849 228.686 205.923 228.317 206.029 227.97Z" fill="#F6AC1B"/>
<path d="M204.291 241.422C204.22 240.201 204.229 238.966 204.269 237.753C204.202 238.97 204.22 240.201 204.291 241.422Z" fill="#F6AC1B"/>
<path d="M213.525 215.041C213.777 214.752 214.007 214.493 214.264 214.23C213.87 214.653 213.512 215.126 213.123 215.576C213.255 215.389 213.361 215.206 213.525 215.041Z" fill="#F6AC1B"/>
<path d="M211.071 218.174C210.802 218.522 210.563 218.891 210.325 219.261C210.537 218.896 210.802 218.522 211.071 218.174Z" fill="#F6AC1B"/>
<path d="M176.618 338.842C175.399 338.119 174.174 337.368 172.972 336.586C164.248 330.92 157.079 323.756 151.606 315.616L151.518 315.741L151.464 315.586C151.411 315.595 151.357 315.604 151.304 315.613L150.82 314.38C150.967 314.601 151.088 314.828 151.231 315.022L151.191 314.947L144.46 298.306L140.572 288.69L144.407 298.315L150.735 314.203L150.789 314.358C149.895 312.975 149.023 311.562 148.232 310.134C146.17 306.402 144.409 302.508 143.013 298.498C142.411 296.737 141.858 294.94 141.384 293.129C141.312 292.867 141.267 292.601 141.195 292.339C141.001 291.523 140.811 290.733 140.644 289.912C140.494 289.197 140.287 288.465 140.165 287.746L140.066 287.488L140.026 287.413C140.052 287.408 140.084 287.431 140.084 287.431C139.612 284.989 139.279 282.552 139.078 280.092C138.778 276.881 138.721 273.656 138.887 270.449C139.058 266.472 139.558 262.495 140.365 258.547C140.47 258.036 140.601 257.52 140.706 257.009C140.876 256.24 141.073 255.466 141.27 254.693C141.752 252.856 142.376 251.05 143.026 249.24C143.281 248.484 143.509 247.732 143.795 246.998C144.626 244.801 145.573 242.638 146.631 240.484C147.222 239.287 147.848 238.139 148.497 236.959C149.234 235.655 150.028 234.368 150.85 233.077C153.199 229.496 155.821 226.226 158.724 223.319C158.861 223.158 159.03 223.02 159.167 222.86C162.694 219.435 166.57 216.444 170.731 214.007C170.754 213.976 170.78 213.972 170.807 213.967C170.78 213.972 170.758 214.003 170.731 214.007C162.856 211.869 155.108 209.189 147.634 206.023C143.647 204.346 139.74 202.491 135.895 200.515C85.5359 174.924 47.4894 126.703 37.2635 66.747C36.7865 63.9503 36.3894 61.14 36.0502 58.3472C53.9146 123.716 105.712 172.525 168.699 188.589C177.159 183.555 186.611 179.832 196.794 177.821C197.588 177.658 198.414 177.518 199.213 177.381C206.698 176.105 214.106 175.828 221.357 176.4C217.817 177.662 214.519 179.376 211.56 181.47C208.016 183.993 204.94 187.012 202.403 190.46L202.381 190.491L202.354 190.496C202.328 190.5 202.332 190.527 202.332 190.527C200.37 193.164 198.697 196.053 197.439 199.119C197.439 199.119 197.412 199.123 197.416 199.15C196.439 201.455 195.693 203.829 195.156 206.306C195.134 206.337 195.134 206.337 195.134 206.337C194.116 210.978 193.939 215.887 194.647 220.838L194.673 220.833C194.647 220.838 194.647 220.838 194.651 220.864C194.679 221.188 194.738 221.535 194.793 221.854C194.906 222.52 195.042 223.155 195.182 223.816C196.669 230.607 199.819 236.703 204.094 241.675C204.107 241.591 204.124 241.533 204.137 241.448C204.133 241.422 204.159 241.417 204.159 241.417C205.491 234.118 211.234 228.095 218.985 226.773C219.917 226.614 220.81 226.544 221.738 226.523C225.589 226.442 229.298 227.618 232.34 229.704L232.589 229.88C232.839 230.057 233.057 230.212 233.28 230.393C233.311 230.415 233.342 230.437 233.373 230.459C234.763 231.538 235.968 232.813 236.986 234.283C240.24 234.88 243.642 234.902 247.078 234.316C251.58 233.549 255.664 231.783 259.137 229.327C260.64 228.495 261.955 227.366 262.981 225.985C265.574 223.35 267.712 220.299 269.161 216.9C269.887 215.214 270.467 213.47 270.873 211.674C271.659 208.086 271.805 204.279 271.146 200.417C270.869 198.792 270.437 197.221 269.902 195.695C274.883 199.67 279.458 204.152 283.493 209.165C284.532 210.441 285.523 211.752 286.492 213.094C287.316 213.42 288.161 213.714 289.032 214.004C294.672 215.893 300.704 216.865 306.869 216.855C309.939 216.852 313.043 216.57 316.185 216.034C326.999 214.189 336.545 209.409 344.155 202.602C344.177 202.57 344.204 202.566 344.231 202.561C344.253 202.53 344.279 202.526 344.301 202.494C345.297 201.584 346.267 200.679 347.174 199.729C349.538 197.682 352.215 196.019 355.088 194.707C355.749 194.402 356.405 194.071 357.075 193.82C358.233 193.375 359.399 192.985 360.607 192.669C361.601 192.39 362.657 192.155 363.696 191.978C364.654 191.814 365.622 191.704 366.568 191.625C367.674 191.518 368.767 191.497 369.864 191.501C370.25 191.518 370.632 191.507 371.019 191.524C372.178 191.573 373.32 191.679 374.445 191.844C374.952 191.922 375.436 192.031 375.943 192.109C376.765 192.27 377.566 192.463 378.366 192.655C378.824 192.769 379.286 192.909 379.749 193.05C380.794 193.392 381.817 193.766 382.818 194.171C384.086 194.695 385.31 195.281 386.499 195.983C386.588 196.022 386.681 196.089 386.775 196.155C387.598 196.645 388.426 197.161 389.206 197.714C389.491 197.939 389.718 198.147 389.968 198.324C390.591 198.766 391.193 199.239 391.772 199.743C392.062 199.995 392.356 200.274 392.65 200.552C393.141 201.017 393.653 201.45 394.121 201.946C394.451 202.274 394.728 202.61 395.036 202.969C395.442 203.42 395.848 203.872 396.232 204.355C396.549 204.767 396.866 205.178 397.156 205.595C397.477 206.033 397.803 206.499 398.125 206.937C398.455 207.429 398.733 207.93 399.041 208.453C399.274 208.852 399.537 209.273 399.748 209.703C400.07 210.306 400.37 210.94 400.643 211.578C401.862 214.221 402.783 217.052 403.296 220.062C403.696 222.406 403.847 224.737 403.745 227.03C402.233 229.096 400.588 231.022 398.818 232.858C393.389 238.472 386.792 243.023 379.269 246.005C375.655 247.472 371.812 248.566 367.79 249.251C359.373 250.687 351.065 250.185 343.354 248.047C343.287 247.976 343.22 247.905 343.18 247.83C343.131 247.866 343.087 247.928 343.039 247.964C336.879 254.277 329.385 259.995 320.878 264.763C319.478 265.55 318.041 266.288 316.578 267.031C313.958 268.383 311.271 269.663 308.455 270.829C306.69 271.569 304.889 272.259 303.03 272.933C296.185 275.388 288.948 277.308 281.357 278.603C279.519 278.916 277.65 279.208 275.825 279.437C272.095 279.908 268.392 280.211 264.745 280.367C264.581 280.368 264.443 280.364 264.279 280.364C258.394 280.573 252.632 280.377 247.019 279.772C246.504 279.641 245.97 279.567 245.41 279.498C245.05 279.478 244.717 279.452 244.362 279.458C243.673 279.438 242.994 279.472 242.275 279.595C241.209 279.776 240.202 280.14 239.267 280.601C234.624 282.791 231.787 287.852 232.691 293.153C233.05 295.257 233.945 297.132 235.222 298.669C233.457 300.697 231.505 302.592 229.366 304.355C222.055 310.344 213.5 313.859 204.722 314.944C219.754 317.424 235.674 313.695 248.299 303.346C248.755 302.966 249.18 302.565 249.605 302.164L277.998 298.609L297.805 296.136L305.642 295.155L317.425 293.694L317.457 293.716C323.938 298.449 332.771 302.671 342.896 305.467C348.161 306.926 353.309 307.857 358.157 308.318C363.76 308.87 368.948 308.753 373.463 308.065C375.119 307.81 376.686 307.515 378.155 307.128C378.412 307.029 378.674 306.957 378.94 306.912C379.792 306.766 380.593 306.959 381.3 307.249C382.599 307.795 383.607 308.884 383.862 310.376C384.03 311.361 383.833 312.299 383.423 313.109C383.344 313.287 383.26 313.438 383.145 313.568C374.65 327.077 360.642 337.031 343.702 339.921C330.837 342.115 318.235 339.906 307.425 334.376C307.331 334.31 307.242 334.271 307.158 334.258C306.762 334.024 306.339 333.794 305.947 333.587C299.111 330.148 291.172 328.761 283.075 330.142C277.535 331.087 272.47 333.212 268.164 336.249C267.499 336.691 266.866 337.155 266.242 337.673C262.751 340.187 259.055 342.462 255.175 344.467C250.608 346.616 245.916 348.513 241.089 350.104C241.089 350.104 241.089 350.104 241.062 350.108C240.987 350.148 240.907 350.162 240.827 350.176C234.635 351.314 228.342 351.866 222.043 351.735C222.061 351.841 222.101 351.917 222.12 352.023L222.115 351.997L221.968 351.775C214.975 351.597 207.94 350.686 201.013 348.962C192.689 346.764 184.45 343.455 176.618 338.842ZM357.191 204.462C347.495 204.663 339.758 210.889 339.906 218.347C339.939 220.15 340.452 221.872 341.32 223.423C343.927 218.62 348.628 214.365 354.718 211.819C360.705 209.318 366.918 208.943 372.094 210.363C368.891 206.688 363.391 204.337 357.191 204.462Z" fill="#F6AC1B"/>
<path d="M249.671 302.099C249.22 302.505 248.822 302.902 248.365 303.281C235.74 313.63 219.825 317.386 204.788 314.88C213.566 313.794 222.126 310.305 229.433 304.29C231.572 302.527 233.523 300.632 235.288 298.604C238.15 295.293 240.459 291.637 242.301 287.814C243.593 285.1 244.71 282.333 245.481 279.46C246.01 279.507 246.543 279.58 247.086 279.707C252.672 280.317 258.434 280.513 264.346 280.299C264.51 280.299 264.648 280.303 264.812 280.302C263.48 283.901 261.68 287.332 259.552 290.601C256.84 294.791 253.585 298.69 249.671 302.099Z" fill="white"/>
<path d="M259.169 229.375C258.455 229.689 257.705 229.954 256.956 230.219C256.228 230.452 255.514 230.602 254.781 230.809C248.339 231.606 242.357 227.227 241.257 220.781C240.122 214.122 244.584 207.824 251.243 206.688C253.694 206.271 256.111 206.626 258.243 207.55C259.088 208.009 259.885 208.504 260.687 209.025C263.053 210.842 264.79 213.478 265.336 216.674C265.922 220.11 264.984 223.45 263.066 226.024C262.036 227.379 260.747 228.503 259.222 229.366C259.222 229.366 259.196 229.371 259.169 229.375ZM262.829 215.156C262.965 211.131 258.963 207.756 253.858 207.558C248.785 207.382 244.546 210.49 244.41 214.515C244.274 218.54 248.276 221.914 253.38 222.112C258.454 222.288 262.693 219.181 262.829 215.156Z" fill="white"/>
<path d="M253.355 222.119C248.282 221.943 244.249 218.546 244.385 214.521C244.52 210.496 248.76 207.389 253.833 207.565C258.907 207.741 262.94 211.137 262.804 215.162C262.695 219.183 258.455 222.291 253.355 222.119Z" fill="black"/>
<path d="M270.956 211.713C270.55 213.509 269.975 215.279 269.243 216.939C267.795 220.338 265.656 223.389 263.063 226.024C265.008 223.445 265.92 220.11 265.333 216.674C264.793 213.504 263.05 210.841 260.685 209.024C259.883 208.503 259.06 208.013 258.241 207.55C256.105 206.599 253.718 206.266 251.241 206.688C244.582 207.824 240.12 214.122 241.255 220.78C242.355 227.226 248.337 231.606 254.779 230.808C245.509 233.184 236.811 230.721 234.816 224.812C232.682 218.405 239.084 210.461 249.141 207.074C251.009 206.453 252.855 206.029 254.649 205.778C253.879 205.443 253.061 205.144 252.242 204.845C254.66 200.376 255.684 195.131 254.762 189.724C253.762 183.864 250.665 178.883 246.374 175.421C249.162 176.179 251.814 177.262 254.342 178.585C254.369 178.58 254.426 178.598 254.462 178.646C257.8 180.38 260.891 182.593 263.642 185.222C263.673 185.244 263.673 185.244 263.678 185.27C266.452 188.196 268.593 191.75 269.954 195.712C270.488 197.238 270.916 198.782 271.198 200.434C271.856 204.296 271.738 208.099 270.956 211.713Z" fill="black"/>
<path d="M251.884 199.04C252.22 201.011 252.329 202.938 252.248 204.871C251.696 204.691 251.154 204.564 250.607 204.411C250.233 204.31 249.855 204.183 249.482 204.082C248.019 203.701 246.543 203.404 245.005 203.228C244.837 203.202 244.672 203.203 244.508 203.203C243.166 203.048 241.815 203.005 240.447 203.019C239.927 203.025 239.439 203.054 238.919 203.06C238.457 203.084 238.018 203.077 237.556 203.101C237.734 200.932 237.632 198.73 237.255 196.519C235.684 187.303 229.659 179.943 221.752 176.331C221.752 176.331 221.747 176.304 221.774 176.299C221.8 176.295 221.8 176.295 221.8 176.295C236.138 174.699 249.417 184.577 251.884 199.04Z" fill="black"/>
<path d="M237.524 203.08C236.498 203.173 235.477 203.293 234.465 203.465C233.399 203.647 232.369 203.877 231.344 204.134C231.291 204.143 231.264 204.148 231.216 204.184C228.305 204.954 225.532 206.058 223.006 207.475L222.979 207.48C222.527 207.721 222.106 207.985 221.658 208.253C220.413 208.986 219.27 209.839 218.132 210.719C217.888 210.897 217.649 211.102 217.406 211.281C217.188 211.455 216.945 211.634 216.755 211.803C215.873 212.584 215.024 213.387 214.236 214.234C213.98 214.497 213.75 214.755 213.497 215.045L213.471 215.049C209.157 210.331 203.372 207.425 197.278 206.573L197.274 206.546C196.598 206.442 195.901 206.37 195.239 206.345C195.234 206.319 195.234 206.319 195.261 206.314C195.89 205.988 196.52 205.661 197.19 205.41C201.376 203.599 205.833 202.894 210.192 203.219C214.715 203.544 219.105 205.016 222.979 207.48C222.867 207.143 222.728 206.81 222.594 206.504C219.703 199.843 214.452 194.928 208.25 192.313C206.385 191.507 204.424 190.937 202.442 190.562C202.442 190.562 202.437 190.536 202.464 190.531L202.491 190.526L202.513 190.495C204.557 189.626 206.674 189.018 208.782 188.686C220.227 186.843 231.958 192.463 237.524 203.08Z" fill="black"/>
<path d="M211.075 218.175C210.81 218.549 210.567 218.892 210.328 219.261C209.674 220.25 209.079 221.256 208.518 222.311C208.439 222.489 208.302 222.649 208.223 222.827C206.746 222.202 205.211 221.724 203.642 221.361C200.765 220.728 197.802 220.548 194.893 220.852C196.754 219.384 198.744 218.195 200.837 217.289C204.89 215.502 209.285 214.752 213.581 215.033C213.444 215.194 213.312 215.381 213.175 215.541C212.387 216.388 211.715 217.27 211.075 218.175Z" fill="black"/>
<path d="M254.741 189.757C255.663 195.163 254.666 200.404 252.222 204.878C252.308 202.972 252.194 201.018 251.858 199.047C249.391 184.584 236.112 174.706 221.743 176.28C223.886 175.503 226.145 174.926 228.462 174.531C234.641 173.477 240.711 173.867 246.353 175.454C250.644 178.916 253.741 183.897 254.741 189.757Z" fill="#6BC9C6"/>
<path d="M237.225 196.496C237.602 198.707 237.708 200.937 237.525 203.078C231.959 192.461 220.228 186.841 208.757 188.688C206.648 189.021 204.532 189.628 202.487 190.498C205.024 187.05 208.1 184.031 211.644 181.508C214.603 179.413 217.897 177.673 221.442 176.438C221.544 176.393 221.619 176.353 221.694 176.313C221.694 176.313 221.694 176.313 221.721 176.308C229.628 179.921 235.648 187.254 237.225 196.496Z" fill="#6BC9C6"/>
<path d="M222.619 206.475C222.758 206.807 222.897 207.14 223.005 207.451C219.131 204.987 214.741 203.515 210.218 203.19C205.886 202.86 201.402 203.57 197.216 205.38C196.55 205.658 195.916 205.958 195.287 206.285C195.824 203.809 196.57 201.434 197.547 199.129C197.543 199.103 197.569 199.098 197.569 199.098C198.833 196.059 200.474 193.148 202.463 190.506C204.468 190.85 206.407 191.451 208.271 192.257C214.451 194.903 219.702 199.818 222.619 206.475Z" fill="#6BC9C6"/>
<path d="M197.334 206.564C203.454 207.412 209.213 210.322 213.526 215.041C209.229 214.759 204.83 215.482 200.781 217.297C198.715 218.197 196.694 219.364 194.838 220.86C197.773 220.551 200.71 220.735 203.586 221.368C205.156 221.731 206.69 222.21 208.167 222.835C208.123 222.897 208.11 222.982 208.066 223.044C207.942 223.284 207.823 223.551 207.727 223.787C207.546 224.174 207.339 224.566 207.185 224.948C207.066 225.215 206.978 225.504 206.886 225.767C206.674 226.296 206.468 226.852 206.261 227.408C206.186 227.613 206.107 227.791 206.037 228.022C205.932 228.369 205.831 228.743 205.726 229.09C205.572 229.636 205.392 230.188 205.27 230.757C205.108 231.415 204.977 232.095 204.869 232.744C204.786 233.224 204.681 233.735 204.599 234.215C204.482 234.976 204.427 235.78 204.368 236.557C204.33 236.975 204.291 237.393 204.253 237.81C204.213 239.023 204.2 240.232 204.275 241.479C204.275 241.479 204.249 241.484 204.253 241.511C204.24 241.595 204.223 241.653 204.21 241.737C199.936 236.765 196.79 230.696 195.298 223.878C195.158 223.217 195.022 222.582 194.909 221.917C194.854 221.597 194.795 221.251 194.767 220.926C194.789 220.895 194.789 220.895 194.789 220.895C194.763 220.9 194.763 220.9 194.763 220.9C194.024 215.928 194.232 211.04 195.25 206.399C195.96 206.388 196.658 206.46 197.334 206.564Z" fill="#6BC9C6"/>
<path d="M204.357 236.504C204.416 235.726 204.476 234.949 204.588 234.162C204.666 233.656 204.775 233.171 204.858 232.691C204.989 232.011 205.097 231.362 205.259 230.704C205.381 230.135 205.561 229.583 205.715 229.036C205.895 228.485 206.044 227.911 206.25 227.355C206.43 226.804 206.642 226.274 206.875 225.714C207.143 225.037 207.416 224.388 207.716 223.734C207.839 223.493 207.932 223.231 208.055 222.991C208.179 222.75 208.329 222.505 208.452 222.265C209.012 221.21 209.608 220.204 210.262 219.215C210.5 218.846 210.77 218.498 211.008 218.129C211.649 217.225 212.352 216.365 213.06 215.531C213.449 215.081 213.807 214.609 214.201 214.185C215.201 213.138 216.267 212.161 217.397 211.228C217.636 211.023 217.879 210.844 218.123 210.666C219.235 209.791 220.404 208.934 221.65 208.2C222.022 207.973 222.372 207.776 222.749 207.574C222.723 209.032 222.835 210.493 223.09 211.984C225.37 225.355 238.055 234.32 251.426 232.039C254.223 231.562 256.831 230.624 259.163 229.349C259.189 229.345 259.212 229.314 259.238 229.309C255.765 231.765 251.68 233.531 247.179 234.299C243.743 234.885 240.336 234.835 237.087 234.266C236.073 232.822 234.864 231.52 233.474 230.442C233.443 230.419 233.438 230.393 233.381 230.375C233.158 230.194 232.908 230.017 232.69 229.863L232.441 229.686C229.399 227.601 225.721 226.446 221.839 226.505C220.937 226.522 220.018 226.597 219.086 226.756C211.335 228.078 205.592 234.101 204.26 241.4C204.189 240.178 204.197 238.943 204.237 237.731C204.28 237.339 204.345 236.917 204.357 236.504Z" fill="#C31632"/>
<path d="M259.172 229.377C256.845 230.678 254.232 231.59 251.435 232.067C238.064 234.347 225.379 225.382 223.099 212.012C222.844 210.52 222.732 209.059 222.758 207.602C222.381 207.803 222.035 208.027 221.659 208.228C222.106 207.96 222.527 207.696 222.979 207.454L223.006 207.45C225.533 206.032 228.305 204.929 231.216 204.158C231.269 204.149 231.296 204.145 231.345 204.109C232.37 203.852 233.399 203.622 234.465 203.44C235.477 203.267 236.498 203.148 237.524 203.055C237.981 203.005 238.426 203.038 238.887 203.014C239.403 202.981 239.896 202.98 240.415 202.973C241.783 202.959 243.139 203.029 244.476 203.158C244.645 203.184 244.809 203.183 244.974 203.182C246.485 203.363 247.987 203.655 249.45 204.036C249.824 204.137 250.197 204.238 250.575 204.365C251.122 204.518 251.691 204.641 252.216 204.825C253.03 205.098 253.853 205.423 254.623 205.758C252.825 205.982 250.978 206.407 249.115 207.054C239.058 210.441 232.656 218.385 234.79 224.792C236.789 230.727 245.482 233.164 254.753 230.788C255.49 230.608 256.204 230.459 256.927 230.198C257.708 229.955 258.458 229.69 259.172 229.377Z" fill="#F6AC1B"/>
<path d="M354.743 211.841C348.654 214.387 343.926 218.647 341.345 223.445C340.477 221.894 339.965 220.172 339.931 218.369C339.783 210.911 347.52 204.685 357.216 204.484C363.417 204.359 368.916 206.71 372.119 210.385C366.917 208.97 360.73 209.34 354.743 211.841Z" fill="#C31632"/>
<path d="M399.035 208.453C398.731 207.957 398.449 207.429 398.119 206.937C397.819 206.468 397.498 206.029 397.15 205.595C396.833 205.183 396.543 204.767 396.226 204.355C395.842 203.872 395.436 203.42 395.03 202.969C394.727 202.637 394.419 202.278 394.115 201.946C393.647 201.451 393.135 201.017 392.644 200.553C392.35 200.274 392.082 199.991 391.766 199.743C391.187 199.239 390.563 198.797 389.962 198.324C389.712 198.147 389.485 197.939 389.235 197.763C388.456 197.21 387.628 196.694 386.804 196.204C386.715 196.164 386.622 196.098 386.528 196.031C385.558 195.484 384.565 194.968 383.551 194.484C382.201 191.233 380.537 188.063 378.513 185.037C377.892 184.128 377.249 183.251 376.58 182.379C383.559 186.177 389.759 191.671 394.494 198.702C397.389 202.978 399.534 207.518 400.991 212.204C400.896 211.973 400.776 211.747 400.655 211.521C400.355 210.887 400.081 210.248 399.759 209.645C399.531 209.273 399.268 208.852 399.035 208.453Z" fill="#6BC9C6"/>
<path d="M378.4 192.704C377.595 192.485 376.795 192.293 375.977 192.158C375.465 192.053 374.981 191.944 374.479 191.893C373.354 191.728 372.212 191.622 371.053 191.573C370.666 191.556 370.284 191.567 369.898 191.55C368.8 191.546 367.708 191.568 366.602 191.674C366.438 191.675 366.273 191.675 366.114 191.702L366.087 191.707C366.06 191.712 366.06 191.712 366.06 191.712C365.279 191.79 364.502 191.895 363.729 192.027C362.664 192.209 361.634 192.439 360.64 192.718C359.433 193.034 358.267 193.425 357.109 193.869C356.439 194.12 355.783 194.451 355.122 194.756C354.794 194.921 354.457 195.034 354.129 195.199C350.36 192.388 346.1 190.072 341.474 188.34C340.478 187.961 339.432 187.619 338.418 187.298C346.286 186.34 354.494 187.215 362.425 190.166C363.658 190.641 364.863 191.121 366.056 191.685C363.153 188.809 359.87 186.271 356.206 184.073C355.262 183.521 354.322 182.996 353.366 182.529C361.283 182.988 369.217 185.307 376.478 189.633C378.886 191.059 381.131 192.65 383.212 194.405C383.092 194.343 382.95 194.313 382.83 194.251C381.824 193.82 380.801 193.446 379.761 193.13C379.32 192.958 378.862 192.845 378.4 192.704Z" fill="#6BC9C6"/>
</svg>
