<svg width="250" height="449" viewBox="0 0 250 449" fill="none" xmlns="http://www.w3.org/2000/svg">
<path d="M134.302 232.089H151.439L134.302 249.226V232.089Z" fill="#F6AC1B"/>
<path d="M134.302 331.916V314.779L151.439 331.916H134.302Z" fill="#F6AC1B"/>
<path d="M217.298 331.916L234.131 315.083V331.916H217.298Z" fill="#F6AC1B"/>
<path d="M234.131 232.087V248.92L217.298 232.087H234.131Z" fill="#F6AC1B"/>
<path d="M151.439 331.916L134.302 314.779V298.648L167.593 331.916H151.439Z" fill="#C31632"/>
<path d="M134.302 249.224L151.439 232.087H167.593L134.302 265.355V249.224Z" fill="#C31632"/>
<path d="M200.863 331.916L234.132 298.648V315.083L217.298 331.916H200.863Z" fill="#C31632"/>
<path d="M217.298 232.087L234.132 248.92V265.355L200.863 232.087H217.298Z" fill="#C31632"/>
<path d="M167.593 331.916L134.302 298.648V282.002L184.216 331.916H167.593Z" fill="#F6AC1B"/>
<path d="M134.302 265.355L167.593 232.087H184.216L134.302 282.001V265.355Z" fill="#F6AC1B"/>
<path d="M184.218 331.916L234.132 282.002V298.648L200.864 331.916H184.218Z" fill="#F6AC1B"/>
<path d="M200.864 232.087L234.132 265.355V282.001L184.218 232.087H200.864Z" fill="#F6AC1B"/>
<path d="M134.302 282.002L184.216 232.088L234.13 282.002L184.216 331.916L134.302 282.002ZM184.216 248.734L150.948 282.002L184.216 315.27L217.484 282.002L184.216 248.734Z" fill="#C31632"/>
<path d="M184.204 315.267L150.93 281.992L184.204 248.718L217.479 281.992L184.204 315.267Z" fill="#6BC9C6"/>
<path d="M224.39 232.487H210.648L210.671 222.841L200.908 222.865L191.286 232.487H191.239L200.885 222.841V209.028L191.122 199.266H177.309L167.547 209.028V222.841L177.192 232.487H177.145L167.523 222.865L157.76 222.841L157.784 232.487H144.088L144.322 232.253L144.345 222.49L134.583 222.514L134.302 222.795V209.028L144.018 209.052L143.994 199.289H157.807L167.57 189.526V175.713L157.807 165.951H144.018L144.041 156.188L134.325 156.211V142.328L143.947 142.352L143.924 132.683H157.948L157.924 132.706L157.901 142.469L167.57 142.445V156.211L177.333 165.974H191.146L200.908 156.211V142.398L191.192 132.683H191.263L201.025 142.445L210.788 142.469L210.765 132.706L210.741 132.683H224.461L224.414 132.729L224.39 142.492L234.106 142.469V156.235L224.414 156.211L224.437 165.974H210.648L210.671 156.211L200.908 156.235L191.122 166.021L191.099 175.784L200.861 175.76V189.573L210.624 199.336H224.437L234.106 189.667V189.69L224.437 199.359L224.414 209.122L234.083 209.099V222.865L224.344 222.841L224.39 232.487ZM177.309 165.974L167.523 156.188L157.76 156.165L157.784 165.927L167.57 175.713L177.333 175.737L177.309 165.974ZM167.57 189.503L157.784 199.289L157.76 209.052L167.523 209.028L177.309 199.242L177.333 189.48L167.57 189.503ZM210.648 199.289L200.861 189.503L191.099 189.48L191.122 199.242L200.908 209.028L210.671 209.052L210.648 199.289Z" fill="#6BC9C6"/>
<path d="M167.547 209.052L177.31 199.289H191.123L200.885 209.052V222.841L191.24 232.487H177.193L167.547 222.841V209.052Z" fill="black"/>
<path d="M200.885 156.188L191.123 165.951H177.31L167.547 156.188V142.422H167.641L177.403 132.659H191.146L200.885 142.375V156.188Z" fill="black"/>
<path d="M167.547 175.714V189.527L157.784 199.29H143.994L134.302 189.597V175.644L143.994 165.951H157.784L167.547 175.714Z" fill="black"/>
<path d="M210.65 199.29L200.888 189.527V175.714L210.65 165.951H224.44L234.109 175.621V189.621L224.44 199.29H210.65Z" fill="black"/>
<path d="M200.883 175.714L191.12 175.738L191.144 165.975L200.906 156.189H210.669L210.646 165.951L200.883 175.714Z" fill="white"/>
<path d="M177.261 132.66L177.308 132.614H191.121L191.144 132.66H177.261Z" fill="white"/>
<path d="M167.547 209.029L157.784 209.052L157.808 199.29L167.57 189.504H177.333L177.31 199.266L167.547 209.029Z" fill="white"/>
<path d="M144.322 222.49V232.253L144.088 232.487H134.302V222.795L134.583 222.514L144.322 222.49Z" fill="white"/>
<path d="M157.782 165.951L157.759 156.189H167.522L177.308 165.975V175.738L167.545 175.714L157.782 165.951Z" fill="white"/>
<path d="M143.901 142.307H134.302V132.661H143.901V142.307Z" fill="white"/>
<path d="M191.121 199.266L191.098 189.504H200.86L210.647 199.29V209.052L200.907 209.029L191.121 199.266Z" fill="white"/>
<path d="M224.411 232.498L224.395 222.782L234.134 222.766L234.15 232.482L224.411 232.498Z" fill="white"/>
<path d="M224.416 132.709L224.463 132.663H234.108V142.449L224.393 142.472L224.416 132.709Z" fill="white"/>
<path d="M224.461 199.29L234.107 189.621V209.029L224.438 209.052L224.461 199.29Z" fill="white"/>
<path d="M224.413 156.19H234.106V175.622L224.437 165.953L224.413 156.19Z" fill="white"/>
<path d="M167.522 222.865L177.144 232.487H157.782L157.759 222.841L167.522 222.865Z" fill="white"/>
<path d="M210.668 222.841L210.645 232.487H191.283L200.905 222.865L210.668 222.841Z" fill="white"/>
<path d="M143.994 209.052L134.302 209.029V189.597L143.971 199.29L143.994 209.052Z" fill="white"/>
<path d="M143.994 165.954L134.302 175.646V156.191H144.018L143.994 165.954Z" fill="white"/>
<path d="M167.549 142.421L157.88 142.444L157.903 132.681V132.658H177.265L167.549 142.374V142.421Z" fill="white"/>
<path d="M210.743 142.444L201.004 142.421L191.241 132.658H210.72L210.743 132.681V142.444Z" fill="white"/>
<path d="M192.172 332L199.172 332C199.172 360.96 222.677 384.442 251.614 384.442L251.614 391.443C218.838 391.466 192.172 364.8 192.172 332Z" fill="#F6AC1B"/>
<path d="M224.269 332L231.269 332C231.269 343.238 240.399 352.368 251.637 352.368L251.637 359.368C236.536 359.368 224.269 347.101 224.269 332Z" fill="#F6AC1B"/>
<path d="M213.568 332L220.568 332C220.568 349.137 234.498 363.067 251.636 363.067L251.636 370.068C230.636 370.068 213.568 353 213.568 332Z" fill="#F6AC1B"/>
<path d="M202.87 332L209.87 332C209.87 355.037 228.576 373.767 251.637 373.767L251.637 380.767C224.737 380.767 202.87 358.9 202.87 332Z" fill="#F6AC1B"/>
<path d="M181.472 332L188.472 332C188.472 366.86 216.753 395.142 251.613 395.142L251.613 402.142C212.937 402.142 181.472 370.7 181.472 332Z" fill="#F6AC1B"/>
<path d="M149.4 332L156.4 332C156.4 384.583 199.033 427.239 251.64 427.239L251.64 434.239C195.264 434.239 149.4 388.376 149.4 332Z" fill="#F6AC1B"/>
<path d="M138.7 332L145.7 332C145.7 390.506 193.133 437.938 251.639 437.938L251.639 444.939C189.363 444.939 138.7 394.275 138.7 332Z" fill="#F6AC1B"/>
<path d="M170.799 332L177.799 332C177.799 372.783 210.856 405.841 251.64 405.841L251.64 412.841C207.04 412.841 170.799 376.599 170.799 332Z" fill="#F6AC1B"/>
<path d="M160.098 332L167.098 332C167.098 378.683 204.955 416.54 251.638 416.54L251.638 423.54C201.138 423.54 160.098 382.476 160.098 332Z" fill="#F6AC1B"/>
<path d="M251.614 444.939L251.614 448.638C247.587 448.638 243.607 448.427 239.698 448.029C233.821 447.42 228.062 446.39 222.466 444.962C216.871 443.534 211.439 441.684 206.219 439.46C200.998 437.236 195.941 434.661 191.141 431.734C187.934 429.791 184.82 427.684 181.847 425.46C153.402 404.202 135 370.255 135 332L138.699 332C138.699 394.275 189.362 444.939 251.614 444.939Z" fill="black"/>
<path d="M251.613 434.239L251.613 437.938C193.107 437.938 145.675 390.506 145.675 332L149.374 332C149.397 388.376 195.261 434.239 251.613 434.239Z" fill="black"/>
<path d="M251.616 423.54L251.616 427.239C199.033 427.239 156.377 384.606 156.377 332L160.076 332C160.099 382.476 201.14 423.54 251.616 423.54Z" fill="black"/>
<path d="M251.613 412.841L251.613 416.54C204.93 416.54 167.073 378.683 167.073 332L170.772 332C170.796 376.599 207.037 412.841 251.613 412.841Z" fill="black"/>
<path d="M251.613 402.142L251.613 405.841C210.83 405.841 177.772 372.76 177.772 332L181.472 332C181.472 370.7 212.937 402.142 251.613 402.142Z" fill="black"/>
<path d="M251.615 391.465L251.615 395.165C216.755 395.165 188.474 366.883 188.474 332.023L192.173 332.023C192.173 364.799 218.839 391.465 251.615 391.465Z" fill="black"/>
<path d="M251.613 380.766L251.613 384.465C222.653 384.465 199.171 360.96 199.171 332.023L202.87 332.023C202.87 358.9 224.737 380.766 251.613 380.766Z" fill="black"/>
<path d="M251.611 370.068L251.611 373.767C228.574 373.767 209.845 355.061 209.845 332L213.544 332C213.567 353 230.634 370.068 251.611 370.068Z" fill="black"/>
<path d="M251.613 359.368L251.613 363.067C234.476 363.067 220.546 349.137 220.546 332L224.245 332C224.268 347.101 236.536 359.368 251.613 359.368Z" fill="black"/>
<path d="M251.614 348.669L251.614 352.368C240.377 352.368 231.246 343.238 231.246 332L234.945 332C234.969 341.224 242.414 348.669 251.614 348.669Z" fill="black"/>
<path d="M98.2676 2L2.01761 2C3.09008 62.8527 53.0091 112.036 114.86 113.098L114.86 18.3472C106.152 17.432 99.2083 10.6087 98.2676 2Z" stroke="#F6AC1B" stroke-width="4"/>
<path d="M177.089 32.6701C181.701 35.4327 186.102 38.5231 190.27 41.8944L130.944 112.598L177.089 32.6701Z" fill="#C31632"/>
<path d="M159.388 24.0296C164.398 25.9728 169.244 28.2437 173.903 30.8424L127.923 110.466L159.388 24.0296Z" fill="#C31632"/>
<path d="M193.127 44.2578C197.224 47.7696 201.063 51.5623 204.622 55.6125L133.591 115.219L193.127 44.2578Z" fill="#C31632"/>
<path d="M120.97 16.2343C126.378 16.3981 131.669 16.9366 136.866 17.8029L120.97 107.938L120.97 16.2343Z" fill="#C31632"/>
<path d="M140.496 18.4588C145.787 19.5357 150.915 20.9639 155.901 22.7197L124.53 108.875L140.496 18.4588Z" fill="#C31632"/>
<path d="M207.03 58.4228C210.471 62.5901 213.632 67.015 216.488 71.6271L135.694 118.263L207.03 58.4228Z" fill="#C31632"/>
<path d="M231.965 112.432C232.901 117.794 233.463 123.295 233.65 128.891L138.575 128.891L231.965 112.432Z" fill="#C31632"/>
<path d="M218.362 74.8093C221.055 79.5151 223.443 84.4316 225.456 89.5354L137.264 121.633L218.362 74.8093Z" fill="#C31632"/>
<path d="M226.814 92.979C228.664 98.1062 230.162 103.374 231.31 108.805L138.248 125.217L226.814 92.979Z" fill="#C31632"/>
<path d="M120.969 16.2336L120.969 107.938L136.866 17.8022C138.083 18.0129 139.301 18.2002 140.495 18.4577L124.551 108.898L155.923 22.7421C157.094 23.1635 158.241 23.5849 159.388 24.0297L127.923 110.466L173.904 30.8426C174.98 31.4513 176.057 32.06 177.111 32.6921L130.966 112.62L190.292 41.9163C191.252 42.6889 192.188 43.4849 193.125 44.2809L133.588 115.242L204.62 55.6357C205.439 56.5487 206.259 57.4852 207.031 58.4217L135.695 118.286L216.49 71.6493C217.145 72.7029 217.754 73.7564 218.362 74.8333L137.264 121.657L225.456 89.5593C225.901 90.7065 226.369 91.8537 226.791 93.0009L138.224 125.239L231.286 108.827C231.543 110.021 231.731 111.239 231.941 112.456L138.552 128.915L233.627 128.915C233.674 130.155 233.721 131.373 233.721 132.614L133.893 132.614C133.893 123.436 126.448 115.968 117.247 115.968L117.247 16.1399C118.511 16.1399 119.729 16.1868 120.969 16.2336Z" fill="#6BC9C6"/>
</svg>
