<svg width="545" height="542" viewBox="0 0 545 542" fill="none" xmlns="http://www.w3.org/2000/svg">
<path d="M317 516H545V541H317V516Z" fill="black"/>
<path d="M292.416 516.387H316.844L317.169 516.712V541.49C312.423 541.49 307.927 540.117 304.18 537.744C302.532 536.77 301.008 535.571 299.659 534.222C295.163 529.726 292.416 523.506 292.416 516.712V516.387Z" fill="#6BC9C6"/>
<path d="M337.85 434.535L355.01 451.695C354.136 453.069 353.111 454.318 351.937 455.492L317.218 490.211V455.167L337.85 434.535Z" fill="black"/>
<path d="M292.439 420.075L292.739 420.1C304.629 420.2 314.495 428.743 316.743 439.983H292.414V420.075H292.439Z" fill="#6BC9C6"/>
<path d="M273.882 439.958C268.411 439.958 263.391 437.735 259.819 434.163C256.197 430.541 254.024 425.57 253.999 420.075H292.44V439.983L273.882 439.958Z" fill="#F6AC1B"/>
<path d="M351.937 420.448C360.455 428.965 361.454 442.054 355.01 451.695L337.85 434.535L351.937 420.448Z" fill="#F6AC1B"/>
<path d="M316.169 403.08L316.169 403.088L316.169 403.095C316.146 407.828 317.944 412.51 321.524 416.09L337.848 432.414L349.815 420.447L320.531 391.164C317.623 394.585 316.148 398.843 316.169 403.08Z" fill="#C31632" stroke="black" stroke-width="3"/>
<path d="M292.415 516.388V491.959L292.44 440.005H316.768C317.068 441.603 317.218 443.177 317.218 444.851V490.211L317.193 516.413H292.415V516.388Z" fill="#F6AC1B"/>
<path d="M290.913 492.583L277.576 479.246L262.355 494.466C263.014 495.37 263.759 496.23 264.574 497.045L292.109 524.58C291.332 522.096 290.913 519.459 290.913 516.74V492.583Z" fill="white" stroke="black" stroke-width="3"/>
<path d="M277.578 477.125L260.418 494.285C253.999 484.693 254.998 471.58 263.515 463.062L277.578 477.125Z" fill="black"/>
<path d="M281.274 445.302C285.17 449.199 287.094 454.319 287.094 459.39C287.094 464.46 285.145 469.531 281.224 473.453L277.552 477.124L263.489 463.062L281.274 445.302Z" fill="#6BC9C6"/>
<path d="M411.609 181H316.025V286.229C316.373 220.576 362.413 185.524 411.609 181Z" fill="#6BC9C6"/>
<path d="M352.045 287H422.024V216.524C386.948 216.748 352.045 240.24 352.045 287Z" fill="#6BC9C6"/>
<path d="M411.609 181C362.412 185.499 316.398 220.576 316.025 286.229C316.025 286.477 316 286.726 316 287H352.046C352.046 240.239 386.948 216.747 422.025 216.523V181H411.609Z" fill="#C31632"/>
</svg>
