<svg width="160" height="337" viewBox="0 0 160 337" fill="none" xmlns="http://www.w3.org/2000/svg">
<path d="M124.003 265L124.003 276.84C137.066 276.84 147.682 287.43 147.682 300.519L159.521 300.519C159.497 280.911 143.61 265 124.003 265Z" fill="black"/>
<path d="M124.001 276.841L124.001 288.681C130.545 288.681 135.841 293.976 135.841 300.52L147.68 300.52C147.655 287.432 137.064 276.841 124.001 276.841Z" fill="#6BC9C6"/>
<path d="M124.001 288.68L124.001 300.52L135.841 300.52C135.841 293.976 130.545 288.68 124.001 288.68Z" fill="#F6AC1B"/>
<path d="M124.026 195L124.026 203.093L146.581 203.093C140.436 198.023 132.593 195 124.026 195Z" fill="white"/>
<path d="M157.445 218.63L124.025 218.63L124.025 226.848L159.344 226.848C159.044 223.975 158.37 221.228 157.445 218.63Z" fill="white"/>
<path d="M150.353 206.738L124.026 206.738L124.026 214.956L155.924 214.956C154.45 211.959 152.576 209.186 150.353 206.738Z" fill="white"/>
<path d="M159.52 230.494C159.52 229.271 159.445 228.047 159.345 226.848L124.026 226.848L124.026 230.494L159.52 230.494Z" fill="#C31632"/>
<path d="M155.898 214.958L124 214.958L124 218.605L157.421 218.605C156.997 217.356 156.497 216.157 155.898 214.958Z" fill="#C31632"/>
<path d="M146.582 203.094L124.027 203.094L124.027 206.741L150.354 206.741C149.18 205.442 147.931 204.194 146.582 203.094Z" fill="#C31632"/>
<path d="M0.0174207 60.9102L0.0174213 68.3663C30.8749 68.3662 55.9039 93.3951 55.9039 124.253L63.3601 124.253C63.3601 89.317 34.953 60.91 0.0174207 60.9102Z" fill="black"/>
<path d="M0.0175511 95.093L0.0175517 102.549C11.9895 102.549 21.721 112.281 21.721 124.253L29.1772 124.253C29.1597 108.167 16.1026 95.093 0.0175511 95.093Z" fill="black"/>
<path d="M0.017514 83.6987L0.0175146 91.1549C18.273 91.1549 33.1153 105.98 33.1153 124.253L40.5715 124.253C40.554 101.884 22.3861 83.6986 0.017514 83.6987Z" fill="black"/>
<path d="M0.0174788 72.3044L0.0174794 79.7606C24.5739 79.7605 44.5096 99.6961 44.5096 124.253L51.9658 124.253C51.9658 95.6005 28.6696 72.3043 0.0174788 72.3044Z" fill="black"/>
<path d="M0.0173817 49.5157L0.0173822 56.9719C37.1584 56.9718 67.2982 87.1115 67.2982 124.252L74.7544 124.252C74.7544 83.0333 41.2365 49.5156 0.0173817 49.5157Z" fill="black"/>
<path d="M0.0174717 15.3155L0.0174738 22.7717C56.0615 22.7717 101.481 68.209 101.481 124.235L108.938 124.235C108.937 64.1833 60.0696 15.3155 0.0174717 15.3155Z" fill="black"/>
<path d="M0.0175155 3.92081L0.0175161 11.377C62.345 11.3768 112.893 61.9072 112.893 124.252L120.349 124.252C120.332 57.899 66.3532 3.92057 0.0175155 3.92081Z" fill="black"/>
<path d="M0.0175868 38.1214L0.0175874 45.5776C43.4596 45.5775 78.6927 80.8105 78.6927 124.252L86.1489 124.252C86.1489 76.7498 47.5202 38.1213 0.0175868 38.1214Z" fill="black"/>
<path d="M0.0175249 26.7271L0.0175255 34.1832C49.7605 34.183 90.087 74.5094 90.087 124.252L97.5432 124.252C97.5432 70.4662 53.8037 26.7269 0.0175249 26.7271Z" fill="black"/>
<path d="M120.332 124.252L124.27 124.252C124.27 119.964 124.06 115.729 123.622 111.545C122.992 105.279 121.89 99.1534 120.349 93.2025C118.809 87.2515 116.849 81.4581 114.503 75.8922C112.141 70.3088 109.393 64.9529 106.277 59.8246C104.194 56.4116 101.971 53.1036 99.5735 49.9181C76.9074 19.6208 40.7466 0.000110047 2.01729e-05 0.000163733L2.09844e-05 3.9383C66.3532 3.92071 120.332 57.8993 120.332 124.252Z" fill="#C31632"/>
<path d="M108.938 124.252L112.876 124.252C112.876 61.9248 62.3451 11.3769 9.81751e-05 11.3771L9.84764e-05 15.3153C60.0698 15.315 108.938 64.1827 108.938 124.252Z" fill="#C31632"/>
<path d="M97.5431 124.252L101.481 124.252C101.481 68.2083 56.0439 22.7887 0.0173796 22.7889L0.0173799 26.7271C53.8035 26.7269 97.5431 70.4662 97.5431 124.252Z" fill="#C31632"/>
<path d="M86.1488 124.252L90.0869 124.252C90.0869 74.5093 49.7604 34.183 0.0174415 34.1832L0.0174418 38.1213C47.5201 38.1212 86.1488 76.7497 86.1488 124.252Z" fill="#C31632"/>
<path d="M74.7545 124.252L78.6926 124.252C78.6926 80.8105 43.4595 45.5775 0.0174806 45.5776L0.0174809 49.5158C41.2366 49.5156 74.7545 83.0333 74.7545 124.252Z" fill="#C31632"/>
<path d="M63.3602 124.252L67.2983 124.252C67.2983 87.1115 37.1585 56.9718 0.0175119 56.9719L0.0175123 60.9101C34.9531 60.9099 63.3602 89.3168 63.3602 124.252Z" fill="#C31632"/>
<path d="M51.9657 124.253L55.9038 124.253C55.9038 93.3951 30.8748 68.3662 0.0173373 68.3663L0.0173376 72.3044C28.6694 72.3043 51.9657 95.6005 51.9657 124.253Z" fill="#C31632"/>
<path d="M40.5541 124.253L44.4922 124.253C44.4922 99.6961 24.5565 79.7605 3.47479e-05 79.7606L3.50487e-05 83.6987C22.3861 83.6987 40.5541 101.884 40.5541 124.253Z" fill="#C31632"/>
<path d="M29.1598 124.253L33.0979 124.253C33.0979 105.997 18.273 91.1548 9.66497e-05 91.1549L9.6951e-05 95.093C16.1027 95.093 29.1598 108.167 29.1598 124.253Z" fill="#C31632"/>
<path d="M17.7655 124.253L21.7036 124.253C21.7036 112.281 11.9721 102.549 0.000133761 102.549L0.000134062 106.487C9.81921 106.487 17.7655 114.434 17.7655 124.253Z" fill="#C31632"/>
<path d="M76.1246 132.918C75.1505 132.818 74.1764 132.768 73.1772 132.743C76.1746 154.824 93.6593 172.309 115.74 175.306C115.69 174.332 115.665 173.333 115.565 172.359C95.2579 169.336 79.172 153.25 76.1246 132.918Z" fill="#F6AC1B"/>
<path d="M115.14 169.385C111.868 151.076 97.431 136.639 79.1221 133.367C82.2194 151.751 96.7566 166.263 115.14 169.385Z" fill="#F6AC1B"/>
<path d="M18.0754 175.705C18.1004 174.731 18.1503 173.782 18.2253 172.833C18.3002 171.859 18.4251 170.91 18.55 169.96C18.7748 168.362 19.0746 166.788 19.4243 165.24C23.9953 145.507 39.5067 129.97 59.2394 125.424C60.788 125.075 62.3616 124.75 63.9602 124.55C64.9094 124.425 65.8586 124.3 66.8327 124.225C67.7819 124.15 68.731 124.101 69.7052 124.076C69.7801 124.076 69.8301 124.076 69.905 124.076C70.3546 124.076 70.8043 124.001 71.2539 124.001H18.0005V177.254C18.0005 176.804 18.0504 176.355 18.0754 175.905C18.0754 175.83 18.0754 175.78 18.0754 175.705Z" fill="#F6AC1B"/>
<path d="M69.7046 230.434C68.7304 230.409 67.7813 230.359 66.8321 230.284C65.858 230.209 64.9088 230.084 63.9596 229.959C62.361 229.734 60.7875 229.435 59.2388 229.085C39.5061 224.514 23.9697 209.003 19.4237 189.27C19.074 187.721 18.7492 186.148 18.5494 184.549C18.4245 183.6 18.2996 182.651 18.2247 181.676C18.6243 181.651 19.024 181.627 19.4486 181.627C19.6484 181.627 19.8233 181.602 19.9981 181.602C20.3728 181.602 20.7225 181.651 21.0972 181.651C22.0713 181.676 23.0205 181.726 23.9946 181.801C24.9938 181.876 25.943 182.026 26.9171 182.176C47.2493 185.198 63.3352 201.284 66.3575 221.616C67.3317 221.716 68.3059 221.766 69.305 221.791C66.3076 199.711 48.8229 182.226 26.7422 179.229C25.7931 179.104 24.8189 178.979 23.8448 178.904C22.8956 178.829 21.9214 178.779 20.9473 178.754C20.6226 178.754 20.3228 178.704 19.9981 178.704C19.7983 178.704 19.6234 178.729 19.4486 178.729C18.999 178.754 18.5494 178.779 18.0998 178.804C18.0998 178.729 18.0998 178.679 18.0998 178.604C18.0998 178.155 18.0249 177.705 18.0249 177.255V230.509H71.2782C70.8286 230.509 70.3791 230.459 69.9295 230.434C69.8545 230.434 69.7795 230.434 69.7046 230.434Z" fill="#F6AC1B"/>
<path d="M121.412 172.884C121.337 171.909 121.187 170.935 121.037 169.986C117.84 148.03 100.48 130.67 78.5245 127.473C77.5753 127.323 76.6011 127.198 75.627 127.099C74.6778 127.024 73.7037 126.974 72.7295 126.949C72.7045 126.949 72.6546 126.949 72.6296 126.949C72.155 126.924 71.7054 126.874 71.2308 126.874C70.7562 126.874 70.3066 126.924 69.8321 126.949C69.8071 126.949 69.7571 126.949 69.7321 126.949C68.758 126.974 67.8088 127.024 66.8346 127.099C65.8605 127.174 64.8863 127.323 63.9372 127.473C41.9814 130.67 24.6216 148.03 21.4244 169.986C21.2746 170.935 21.1497 171.909 21.0498 172.884C20.9748 173.833 20.9249 174.807 20.8999 175.781C20.8999 175.806 20.8999 175.856 20.8999 175.881C21.874 175.906 22.8232 175.956 23.7724 176.031C23.7724 175.906 23.7974 175.781 23.7974 175.631C23.8224 174.657 23.8473 173.708 23.9472 172.734C24.0471 171.76 24.197 170.785 24.3469 169.836C27.5441 149.604 43.53 133.593 63.7873 130.396C64.7615 130.246 65.7106 130.071 66.6848 129.996C67.6339 129.896 68.6081 129.871 69.5823 129.846C69.7071 129.846 69.832 129.821 69.9819 129.821C70.4065 129.821 70.8062 129.746 71.2308 129.746C71.6554 129.746 72.0551 129.796 72.4797 129.821C72.6046 129.821 72.7295 129.846 72.8794 129.846C73.8535 129.871 74.8027 129.896 75.7769 129.996C76.751 130.096 77.7252 130.246 78.6743 130.396C98.9316 133.593 114.918 149.579 118.115 169.836C118.265 170.81 118.439 171.76 118.514 172.734C118.614 173.683 118.639 174.657 118.664 175.631C118.664 175.756 118.689 175.881 118.689 176.031C119.638 175.956 120.588 175.906 121.562 175.881C121.562 175.856 121.562 175.806 121.562 175.781C121.512 174.782 121.487 173.833 121.412 172.884Z" fill="#F6AC1B"/>
<path d="M71.2549 124.001C71.7045 124.001 72.154 124.051 72.6036 124.076C72.6786 124.076 72.7286 124.076 72.8035 124.076C73.7777 124.101 74.7268 124.15 75.676 124.225C76.6501 124.3 77.5993 124.425 78.5485 124.55C80.1471 124.775 81.7207 125.075 83.2694 125.424C103.002 129.995 118.538 145.507 123.085 165.24C123.434 166.788 123.759 168.362 123.959 169.96C124.084 170.91 124.208 171.859 124.283 172.833C124.358 173.782 124.408 174.731 124.433 175.705C124.433 175.78 124.433 175.83 124.433 175.905C124.433 176.355 124.508 176.804 124.508 177.254V124.001H71.2549Z" fill="#F6AC1B"/>
<path d="M63.3844 221.117C60.2621 202.733 45.7499 188.221 27.366 185.099C30.6381 203.408 45.0754 217.845 63.3844 221.117Z" fill="#F6AC1B"/>
<path d="M115.14 185.122C96.7566 188.245 82.2443 202.757 79.1221 221.141C97.4061 217.844 111.868 203.406 115.14 185.122Z" fill="#F6AC1B"/>
<path d="M72.5009 224.689C72.0762 224.689 71.6766 224.764 71.252 224.764C70.8273 224.764 70.4277 224.714 70.003 224.689C69.8782 224.689 69.7533 224.664 69.6034 224.664C68.6292 224.639 67.6801 224.614 66.7059 224.514C65.7318 224.414 64.7576 224.265 63.8084 224.115C43.5512 220.917 27.5652 204.932 24.368 184.674C23.3938 184.574 22.4197 184.549 21.4456 184.524C24.6428 206.48 42.0025 223.84 63.9583 227.037C64.9075 227.187 65.8816 227.312 66.8558 227.412C67.8049 227.487 68.7791 227.537 69.7533 227.562C69.7782 227.562 69.8282 227.562 69.8532 227.562C70.3278 227.587 70.7774 227.637 71.252 227.637C71.7265 227.637 72.1761 227.587 72.6507 227.562C72.6757 227.562 72.7256 227.562 72.7506 227.562C73.7247 227.537 74.6739 227.487 75.6481 227.412C76.6222 227.337 77.5964 227.187 78.5455 227.037C100.501 223.84 117.861 206.48 121.058 184.524C120.084 184.549 119.085 184.574 118.136 184.674C114.939 204.907 98.9527 220.917 78.6954 224.115C77.7212 224.265 76.7721 224.439 75.7979 224.514C74.8487 224.614 73.8747 224.639 72.9005 224.664C72.7507 224.664 72.6258 224.689 72.5009 224.689Z" fill="#F6AC1B"/>
<path d="M124.433 178.777C123.983 178.752 123.534 178.727 123.084 178.702C122.884 178.702 122.709 178.677 122.534 178.677C122.21 178.677 121.91 178.727 121.585 178.727C120.611 178.752 119.662 178.802 118.688 178.877C117.714 178.952 116.74 179.051 115.79 179.201C93.7097 182.199 76.225 199.683 73.2276 221.764C74.2017 221.714 75.2009 221.689 76.1751 221.589C79.1974 201.257 95.2833 185.171 115.615 182.149C116.59 181.999 117.564 181.874 118.538 181.774C119.487 181.699 120.461 181.649 121.435 181.624C121.81 181.624 122.16 181.574 122.534 181.574C122.734 181.574 122.909 181.599 123.084 181.599C123.484 181.624 123.883 181.649 124.308 181.649C124.233 182.623 124.108 183.573 123.983 184.522C123.758 186.12 123.459 187.694 123.109 189.243C118.538 208.975 103.026 224.512 83.2938 229.058C81.7451 229.407 80.1715 229.732 78.5729 229.932C77.6238 230.057 76.6746 230.182 75.7005 230.257C74.7513 230.332 73.8021 230.382 72.8279 230.406C72.753 230.406 72.7031 230.406 72.6281 230.406C72.1785 230.406 71.7289 230.481 71.2793 230.481H124.533V177.228C124.533 177.678 124.483 178.127 124.458 178.577C124.433 178.652 124.433 178.727 124.433 178.777Z" fill="#F6AC1B"/>
<path d="M26.7434 175.306C48.8241 172.309 66.3088 154.824 69.3062 132.743C68.332 132.793 67.3328 132.818 66.3587 132.918C63.3363 153.25 47.2505 169.336 26.9183 172.359C26.8184 173.333 26.7684 174.307 26.7434 175.306Z" fill="#F6AC1B"/>
<path d="M27.366 169.385C45.7499 166.263 60.2621 151.751 63.3844 133.367C45.0754 136.639 30.6381 151.076 27.366 169.385Z" fill="#F6AC1B"/>
<path d="M71.2533 216.468C92.9115 216.468 110.469 198.911 110.469 177.253C110.469 155.595 92.9115 138.037 71.2533 138.037C49.5951 138.037 32.0376 155.595 32.0376 177.253C32.0376 198.911 49.5951 216.468 71.2533 216.468Z" fill="#F6AC1B"/>
<path d="M124.432 175.705C124.407 174.731 124.357 173.782 124.282 172.833C124.207 171.859 124.083 170.91 123.958 169.96C123.733 168.362 123.433 166.788 123.083 165.24C118.513 145.507 103.001 129.97 83.2684 125.424C81.7197 125.075 80.146 124.75 78.5475 124.55C77.5983 124.425 76.6491 124.3 75.675 124.225C74.7258 124.15 73.7767 124.101 72.8025 124.076C72.7276 124.076 72.6776 124.076 72.6026 124.076C72.153 124.076 71.7035 124.001 71.2539 124.001C70.8043 124.001 70.3546 124.051 69.905 124.076C69.8301 124.076 69.7801 124.076 69.7052 124.076C68.731 124.101 67.7819 124.15 66.8327 124.225C65.8586 124.3 64.9094 124.425 63.9602 124.55C62.3616 124.775 60.788 125.075 59.2394 125.424C39.5067 129.995 23.9703 145.507 19.4243 165.24C19.0746 166.788 18.7498 168.362 18.55 169.96C18.4251 170.91 18.3002 171.859 18.2253 172.833C18.1503 173.782 18.1004 174.731 18.0754 175.705C18.0754 175.78 18.0754 175.83 18.0754 175.905C18.0754 176.355 18.0005 176.804 18.0005 177.254C18.0005 177.704 18.0504 178.153 18.0754 178.603C18.0754 178.678 18.0754 178.728 18.0754 178.803C18.525 178.778 18.9747 178.753 19.4243 178.728C19.6241 178.728 19.7989 178.703 19.9738 178.703C20.2985 178.703 20.5982 178.753 20.9229 178.753C21.897 178.778 22.8462 178.828 23.8204 178.903C24.7945 178.977 25.7687 179.077 26.7178 179.227C48.7985 182.225 66.2832 199.709 69.2806 221.79C68.3064 221.74 67.3073 221.715 66.3332 221.615C63.3108 201.283 47.2249 185.197 26.8927 182.175C25.9185 182.025 24.9444 181.9 23.9702 181.8C23.0211 181.725 22.047 181.675 21.0728 181.65C20.6982 181.65 20.3485 181.6 19.9738 181.6C19.774 181.6 19.5991 181.625 19.4243 181.625C19.0246 181.65 18.6249 181.675 18.2003 181.675C18.2752 182.649 18.4001 183.598 18.525 184.548C18.7498 186.146 19.0496 187.72 19.3993 189.268C23.9703 209.001 39.4817 224.538 59.2144 229.084C60.763 229.433 62.3366 229.758 63.9352 229.958C64.8844 230.083 65.8336 230.208 66.8078 230.283C67.7569 230.357 68.7061 230.407 69.6802 230.432C69.7552 230.432 69.8051 230.432 69.88 230.432C70.3296 230.432 70.7793 230.507 71.2289 230.507C71.6785 230.507 72.1281 230.457 72.5777 230.432C72.6527 230.432 72.7026 230.432 72.7775 230.432C73.7517 230.407 74.7008 230.357 75.65 230.283C76.6241 230.208 77.5734 230.083 78.5225 229.958C80.1211 229.733 81.6947 229.433 83.2434 229.084C102.976 224.513 118.512 209.001 123.058 189.268C123.408 187.72 123.733 186.146 123.933 184.548C124.058 183.598 124.183 182.649 124.257 181.675C123.858 181.65 123.458 181.625 123.033 181.625C122.834 181.625 122.659 181.6 122.484 181.6C122.109 181.6 121.76 181.65 121.385 181.65C120.411 181.675 119.462 181.725 118.488 181.8C117.488 181.875 116.539 182.025 115.565 182.175C95.2329 185.197 79.1469 201.283 76.1246 221.615C75.1504 221.715 74.1763 221.765 73.1772 221.79C76.1745 199.709 93.6593 182.225 115.74 179.227C116.689 179.102 117.663 178.977 118.637 178.903C119.587 178.828 120.561 178.778 121.535 178.753C121.86 178.753 122.159 178.703 122.484 178.703C122.684 178.703 122.859 178.728 123.033 178.728C123.483 178.753 123.933 178.778 124.382 178.803C124.382 178.728 124.382 178.678 124.382 178.603C124.382 178.153 124.457 177.704 124.457 177.254C124.457 176.804 124.407 176.355 124.382 175.905C124.432 175.83 124.432 175.78 124.432 175.705ZM66.3581 132.918C67.3323 132.818 68.3065 132.768 69.3056 132.743C66.3082 154.824 48.8235 172.308 26.7428 175.306C26.7928 174.332 26.8178 173.332 26.9177 172.358C47.2499 169.336 63.3358 153.25 66.3581 132.918ZM27.3673 169.386C30.6394 151.077 45.0767 136.64 63.3857 133.367C60.2634 151.751 45.7512 166.264 27.3673 169.386ZM63.3857 221.116C45.0767 217.843 30.6394 203.406 27.3673 185.097C45.7512 188.219 60.2634 202.732 63.3857 221.116ZM115.14 185.122C111.868 203.431 97.4309 217.868 79.122 221.141C82.2193 202.732 96.7565 188.219 115.14 185.122ZM75.7749 224.513C76.7491 224.413 77.7232 224.263 78.6724 224.113C98.9296 220.916 114.916 204.93 118.113 184.673C119.087 184.573 120.061 184.548 121.035 184.523C117.838 206.478 100.478 223.838 78.5225 227.035C77.5734 227.185 76.5992 227.31 75.6251 227.41C74.6759 227.485 73.7017 227.535 72.7276 227.56C72.7026 227.56 72.6526 227.56 72.6276 227.56C72.1531 227.585 71.7035 227.635 71.2289 227.635C70.7543 227.635 70.3047 227.585 69.8301 227.56C69.8051 227.56 69.7552 227.56 69.7302 227.56C68.756 227.535 67.8069 227.485 66.8327 227.41C65.8586 227.335 64.8844 227.185 63.9352 227.035C41.9795 223.838 24.6197 206.478 21.4225 184.523C22.3966 184.548 23.3958 184.573 24.345 184.673C27.5422 204.905 43.5281 220.916 63.7854 224.113C64.7595 224.263 65.7087 224.438 66.6828 224.513C67.632 224.612 68.6062 224.637 69.5803 224.662C69.7052 224.662 69.8301 224.687 69.98 224.687C70.4046 224.687 70.8042 224.762 71.2289 224.762C71.6535 224.762 72.0532 224.712 72.4778 224.687C72.6027 224.687 72.7276 224.662 72.8774 224.662C73.8516 224.637 74.8257 224.612 75.7749 224.513ZM71.2539 216.47C66.7079 197.062 51.4212 181.8 32.0382 177.254C51.4462 172.708 66.7079 157.421 71.2539 138.038C75.7999 157.446 91.0865 172.708 110.469 177.254C91.0865 181.8 75.7999 197.062 71.2539 216.47ZM73.2022 132.718C74.1763 132.768 75.1754 132.793 76.1496 132.893C79.1719 153.225 95.2579 169.311 115.59 172.333C115.69 173.307 115.74 174.282 115.765 175.281C93.6842 172.283 76.1995 154.799 73.2022 132.718ZM79.122 133.367C97.4309 136.64 111.868 151.077 115.14 169.386C96.7565 166.264 82.2193 151.751 79.122 133.367ZM118.687 176.005C118.687 175.88 118.662 175.755 118.662 175.605C118.637 174.631 118.612 173.682 118.512 172.708C118.413 171.734 118.263 170.76 118.113 169.81C114.916 149.578 98.9296 133.567 78.6724 130.37C77.6982 130.22 76.7491 130.045 75.7749 129.97C74.8257 129.87 73.8516 129.845 72.8774 129.82C72.7526 129.82 72.6277 129.796 72.4778 129.796C72.0532 129.796 71.6535 129.721 71.2289 129.721C70.8042 129.721 70.4046 129.771 69.98 129.796C69.8551 129.796 69.7302 129.82 69.5803 129.82C68.6062 129.845 67.657 129.87 66.6828 129.97C65.7087 130.07 64.7345 130.22 63.7854 130.37C43.5281 133.567 27.5422 149.553 24.345 169.81C24.1951 170.785 24.0202 171.734 23.9453 172.708C23.8454 173.657 23.8204 174.631 23.7954 175.605C23.7954 175.73 23.7704 175.855 23.7704 176.005C22.8213 175.93 21.8721 175.88 20.898 175.855C20.898 175.83 20.898 175.78 20.898 175.755C20.9229 174.781 20.9729 173.832 21.0478 172.858C21.1228 171.884 21.2726 170.91 21.4225 169.96C24.6197 148.005 41.9795 130.645 63.9352 127.448C64.8844 127.298 65.8586 127.173 66.8327 127.073C67.7819 126.998 68.756 126.948 69.7302 126.923C69.7552 126.923 69.8051 126.923 69.8301 126.923C70.3047 126.898 70.7543 126.848 71.2289 126.848C71.7035 126.848 72.1531 126.898 72.6276 126.923C72.6526 126.923 72.7026 126.923 72.7276 126.923C73.7017 126.948 74.6509 126.998 75.6251 127.073C76.5992 127.148 77.5734 127.298 78.5225 127.448C100.478 130.645 117.838 148.005 121.035 169.96C121.185 170.91 121.31 171.884 121.41 172.858C121.485 173.807 121.535 174.781 121.56 175.755C121.56 175.78 121.56 175.83 121.56 175.855C120.586 175.88 119.636 175.93 118.687 176.005Z" fill="#C31632"/>
<path d="M71.2538 336.507C100.665 336.507 124.507 312.665 124.507 283.254C124.507 253.843 100.665 230 71.2538 230C41.8428 230 18.0005 253.843 18.0005 283.254C18.0005 312.665 41.8428 336.507 71.2538 336.507Z" fill="#C31632"/>
<path d="M71.2538 230H18.0005V283.254C54.4436 283.254 71.2538 266.444 71.2538 230Z" fill="#6BC9C6"/>
<path d="M71.2551 336.509H124.509V283.255C88.0654 283.255 71.2551 300.065 71.2551 336.509Z" fill="#6BC9C6"/>
<path d="M18.0005 283.255V336.509H71.2538C71.2538 300.065 54.4436 283.255 18.0005 283.255Z" fill="#6BC9C6"/>
<path d="M71.2551 230C71.2551 266.444 88.0654 283.254 124.509 283.254V230H71.2551Z" fill="#6BC9C6"/>
</svg>
