<svg width="545" height="542" viewBox="0 0 545 542" fill="none" xmlns="http://www.w3.org/2000/svg">
<path d="M311.506 255.591C311.482 255.597 311.482 255.597 311.458 255.603L312.227 272.18C312.259 271.913 312.291 271.646 312.323 271.379L311.506 255.591Z" fill="black"/>
<path d="M311.866 249.314C311.906 249.561 311.971 249.801 312.011 250.049C311.964 249.777 311.893 249.513 311.84 249.217C311.853 249.265 311.859 249.29 311.866 249.314Z" fill="black"/>
<path d="M297.129 217.579C297.165 217.619 297.201 217.659 297.236 217.7C297.236 217.7 297.236 217.7 297.253 217.67L297.23 217.676C297.201 217.659 297.165 217.619 297.129 217.579Z" fill="black"/>
<path d="M292.125 212.222C292.15 212.215 292.15 212.215 292.125 212.222C292.655 212.752 293.137 213.296 293.667 213.826C293.698 213.844 293.711 213.892 293.741 213.909C293.198 213.331 292.68 212.746 292.125 212.222Z" fill="black"/>
<path d="M377.719 252.176C378.719 251.856 379.75 251.554 380.764 251.282C383.394 250.577 385.99 250.037 388.601 249.648C400.483 247.86 412.283 249.146 423.024 253.043C417.746 238.554 408.076 226.69 395.949 218.587C386.334 212.139 375.153 208.049 363.398 206.932L363.374 206.938C355.169 206.137 347.606 205.707 343.332 206.258C342.382 206.383 340.98 206.552 340.076 206.846C347.282 195.425 348.403 186.099 352.548 173.197C356.559 160.563 359.039 147.331 359.756 133.795C341.018 148.694 318.985 160.08 294.376 166.674C289.985 167.851 285.597 168.846 281.218 169.683C281.081 169.849 280.938 169.99 280.826 170.15C278.352 173.269 275.786 176.336 273.091 179.308C268.034 184.852 262.585 190.088 256.771 194.93C260.806 194.934 264.913 194.532 268.996 193.748C270.675 193.454 272.329 193.062 274.018 192.61C278.795 191.33 283.268 189.588 287.497 187.421C288.794 186.763 290.079 186.056 291.303 185.315C299.281 180.539 306.076 174.245 311.375 166.903C311.979 166.069 312.57 165.187 313.144 164.335C313.286 165.253 313.398 166.154 313.469 167.092C314.148 174.358 313.639 181.528 312.07 188.413C310.745 194.276 308.628 199.886 305.796 205.144C305.703 205.376 305.579 205.59 305.456 205.804C303.152 210.042 300.396 214.039 297.209 217.685C298.16 217.663 299.087 217.648 300.025 217.577C304.304 217.336 308.468 216.66 312.534 215.622C317.747 214.328 322.707 212.379 327.356 209.944C330.845 208.104 334.16 206 337.24 203.597C336.586 206.85 335.706 210.033 334.589 213.1C332.783 218.135 330.385 222.889 327.502 227.282C326.84 228.287 326.165 229.243 325.467 230.206C324.076 232.156 322.567 233.957 320.973 235.729C320.753 235.969 320.539 236.233 320.313 236.449C317.444 239.545 314.262 242.337 310.886 244.793C310.91 244.787 310.928 244.756 310.928 244.756L310.923 244.835C314.588 246.258 318.327 247.376 322.103 248.149C327.848 249.325 333.648 249.736 339.404 249.409C342.867 249.205 346.319 248.772 349.718 248.042C348.42 249.76 347.072 251.388 345.643 252.909C345.084 253.524 344.518 254.116 343.929 254.713C338.83 259.907 332.981 264.137 326.679 267.351C326.679 267.351 326.679 267.351 326.655 267.358C324.793 268.322 322.905 269.19 320.961 269.944C318.163 271.082 315.282 272.009 312.326 272.749C312.277 272.762 312.229 272.775 312.181 272.788L312.196 272.939C314.482 274.524 316.815 275.994 319.224 277.262C329.507 282.73 340.808 285.339 352.039 285.174C339.403 296.499 323.347 302.301 307.177 302.367C304.802 302.383 302.419 302.271 300.028 302.033C301.278 303.611 302.612 305.116 303.988 306.583C309.847 312.719 316.753 317.644 324.325 321.201C313.369 324.317 302.145 324.506 291.545 322.2C291.128 325.467 290.436 328.678 289.592 331.8C291.738 335.078 294.147 338.182 296.807 341.064C293.48 340.714 290.276 340.047 287.112 339.24C285.53 343.181 283.618 346.951 281.364 350.503C280.538 351.862 279.645 353.162 278.715 354.42C280.392 354.306 282.031 354.152 283.651 353.924L283.675 353.918C288.336 353.264 292.88 352.176 297.174 350.637L297.198 350.631C304.456 348.091 311.174 344.403 317.101 339.79C320.454 350.761 320.984 362.1 319.046 372.912C326.698 368.56 333.238 362.954 338.564 356.485C340.938 353.573 343.092 350.513 344.971 347.294C348.37 341.548 350.895 335.337 352.574 328.863C359.573 333.943 365.359 340.099 369.886 346.954C372.771 351.353 375.164 356.039 377.009 360.897C380.28 355.056 382.667 348.908 384.167 342.636C387.692 327.805 386.274 312.282 380.394 298.445C392.517 300.937 403.372 306.511 412.238 314.22C412.368 307.85 411.633 301.634 410.115 295.679C406.115 279.787 396.696 265.865 383.767 256.218C381.828 254.772 379.836 253.418 377.719 252.176Z" fill="black"/>
<path d="M256.776 194.953C261.206 195.369 265.616 196.386 269.907 197.925C270.078 197.983 270.279 198.058 270.456 198.14C274.017 199.462 277.481 201.197 280.837 203.297C282.025 204.065 283.165 204.846 284.312 205.65C285.33 206.36 286.281 207.114 287.24 207.891C288.953 209.268 290.566 210.75 292.13 212.244C292.69 212.792 293.203 213.353 293.739 213.908C294.893 215.124 296.07 216.334 297.134 217.601C297.171 217.643 297.208 217.685 297.245 217.726L297.269 217.72C300.425 214.056 303.211 210.077 305.515 205.839C305.632 205.601 305.756 205.387 305.856 205.179C308.663 199.927 310.798 194.287 312.13 188.448C313.705 181.587 314.208 174.392 313.528 167.127C313.434 166.195 313.322 165.294 313.203 164.369C312.636 165.245 312.039 166.104 311.435 166.938C306.129 174.255 299.34 180.574 291.362 185.349C290.115 186.097 288.854 186.797 287.556 187.455C283.327 189.623 278.855 191.364 274.078 192.644C272.413 193.09 270.729 193.464 269.056 193.783C264.936 194.525 260.853 194.921 256.776 194.953C256.745 194.935 256.745 194.935 256.697 194.948C256.745 194.935 256.769 194.929 256.776 194.953Z" fill="#6BC9C6"/>
<path d="M298.618 219.455C298.927 219.838 299.213 220.227 299.498 220.616C301.699 223.62 303.655 226.768 305.334 230.042C306.717 232.697 307.914 235.428 308.894 238.217C309.682 240.385 310.343 242.561 310.883 244.769C314.252 242.289 317.435 239.497 320.31 236.425C320.536 236.209 320.75 235.945 320.97 235.705C322.571 233.957 324.049 232.139 325.464 230.182C326.169 229.243 326.844 228.287 327.499 227.258C330.364 222.896 332.762 218.142 334.586 213.076C335.679 210.016 336.559 206.832 337.237 203.573C334.133 205.983 330.842 208.08 327.353 209.92C322.686 212.386 317.72 214.311 312.531 215.598C308.489 216.629 304.295 217.288 300.022 217.553C299.084 217.624 298.164 217.663 297.206 217.661C297.189 217.692 297.189 217.692 297.189 217.692C297.707 218.277 298.172 218.851 298.618 219.455Z" fill="#6BC9C6"/>
<path d="M311.4 247.087C311.563 247.793 311.733 248.523 311.848 249.242C311.895 249.514 311.966 249.78 312.02 250.076C312.321 251.779 312.55 253.502 312.724 255.214C313.099 259.122 313.123 263.072 312.831 267.003C312.724 268.531 312.531 270.031 312.314 271.537L312.383 272.76C315.339 272.02 318.214 271.069 321.018 269.955C322.963 269.201 324.851 268.333 326.713 267.369C326.737 267.363 326.737 267.363 326.737 267.363C333.039 264.148 338.88 259.894 343.986 254.724C344.558 254.157 345.148 253.56 345.701 252.92C347.123 251.375 348.477 249.771 349.775 248.053C346.4 248.776 342.955 249.234 339.462 249.42C333.729 249.741 327.899 249.312 322.16 248.16C318.385 247.387 314.646 246.269 310.98 244.846L310.997 245.1C311.141 245.734 311.243 246.405 311.4 247.087Z" fill="#6BC9C6"/>
<path d="M312.218 272.158L312.214 272.237C312.252 271.995 312.266 271.759 312.311 271.54L312.296 271.389C312.258 271.632 312.25 271.892 312.218 272.158Z" fill="#6BC9C6"/>
<path d="M312.13 272.879C310.675 281.828 307.441 290.607 302.277 298.74C301.568 299.861 300.83 300.964 300.084 302.043C302.476 302.282 304.834 302.399 307.233 302.377C323.379 302.318 339.459 296.509 352.095 285.185C340.865 285.349 329.564 282.74 319.28 277.272C316.896 275.998 314.539 274.535 312.252 272.949L312.13 272.879Z" fill="#6BC9C6"/>
<path d="M236.173 337.039C240.66 342.974 246.142 348.28 252.612 352.546C251.167 347.347 250.361 341.926 250.221 336.481C250.232 336.427 250.225 336.403 250.213 336.354C250.213 336.354 250.188 336.361 250.182 336.337C245.537 336.857 240.839 337.082 236.173 337.039Z" fill="#6BC9C6"/>
<path d="M266.809 330.356C261.544 332.904 256.046 334.869 250.429 336.296C250.35 336.292 250.302 336.305 250.205 336.33L250.212 336.355C250.249 336.396 250.286 336.438 250.323 336.48C256.923 343.064 264.961 348.358 274.083 351.809C270.868 345.792 268.511 339.313 267.209 332.524C267.089 331.884 266.976 331.268 266.88 330.621L266.887 330.645C266.837 330.555 266.835 330.452 266.809 330.356Z" fill="#6BC9C6"/>
<path d="M289.642 331.789C287.969 329.212 286.421 326.524 285.078 323.729C284.487 322.49 283.939 321.215 283.408 319.909C285.035 320.482 286.698 320.993 288.365 321.426C289.424 321.711 290.495 321.941 291.565 322.171C302.164 324.477 313.412 324.282 324.345 321.172C316.779 317.639 309.873 312.714 304.008 306.554C302.632 305.087 301.298 303.582 300.047 302.004C295.243 308.877 289.606 314.861 283.377 319.892C278.224 324.014 272.672 327.518 266.861 330.343C267.614 330.839 268.361 331.311 269.126 331.752C274.647 335.083 280.711 337.544 287.094 339.169C290.259 339.976 293.463 340.644 296.789 340.994C294.173 338.178 291.788 335.067 289.642 331.789Z" fill="#6BC9C6"/>
<path d="M135.719 346.424C139.614 344.165 143.578 341.396 147.437 338.138C154.863 331.881 160.654 324.925 164.271 318.448C163.053 315.542 162.093 312.541 161.327 309.488L154.559 311.637L154.541 311.668C147.836 324.377 137.168 334.942 123.718 341.494C127.473 343.539 131.499 345.15 135.719 346.424Z" fill="#6BC9C6"/>
<path d="M118.461 353.145C119.826 352.934 121.274 352.546 122.764 352.121C120.794 349.597 119.005 346.974 117.431 344.189C115.432 344.931 113.42 345.626 111.321 346.188C95.8077 350.345 80.1022 348.864 66.4141 343.042C80.4946 352.741 98.0797 357.184 115.872 354.485C116.372 353.937 116.976 353.491 117.724 353.29C117.959 353.202 118.206 353.161 118.461 353.145Z" fill="#6BC9C6"/>
<path d="M181.72 312.919L199.312 307.352L224.535 299.378C219.925 298.002 215.686 295.983 211.821 293.527L189.414 300.617L171.821 306.185L171.725 306.21L166.222 307.969C168.835 310.579 171.681 312.997 174.789 315.138L181.72 312.919Z" fill="#6BC9C6"/>
<path d="M225.359 284.129C225.319 284.269 225.248 284.392 225.202 284.508C228.225 287.008 231.552 289.193 235.257 290.864C235.736 289.081 235.765 287.159 235.254 285.253C233.967 280.452 229.631 277.296 224.886 277.248C225.05 277.67 225.233 278.06 225.355 278.519C225.866 280.425 225.844 282.37 225.359 284.129Z" fill="#6BC9C6"/>
<path d="M135.715 346.421C131.502 345.171 127.469 343.536 123.739 341.484C119.801 339.333 116.129 336.826 112.821 333.937C114.056 337.485 115.598 340.924 117.428 344.184C119.002 346.969 120.798 349.616 122.76 352.116C126.818 350.951 131.215 349.023 135.715 346.421Z" fill="white"/>
<path d="M164.268 318.446L174.749 315.095C171.641 312.954 168.795 310.536 166.182 307.926C163.778 305.519 161.56 302.933 159.611 300.196C159.913 303.348 160.534 306.44 161.318 309.462C162.091 312.539 163.05 315.54 164.268 318.446Z" fill="white"/>
<path d="M125.181 289.923C125.126 289.912 125.065 289.877 125.011 289.866C125.006 289.945 124.977 290.03 124.948 290.115C119.297 294.888 112.511 298.516 104.887 300.559C101.244 301.535 97.5936 302.099 93.9913 302.263C86.5213 302.661 79.2295 301.409 72.4959 298.765C72.6222 299.43 72.742 300.07 72.9166 300.721C73.1493 301.59 73.3997 302.428 73.7225 303.246C76.4397 310.974 81.8082 317.113 88.519 320.926C88.0945 319.824 87.7183 318.71 87.4079 317.551C86.4576 314.005 86.1251 310.448 86.3334 306.979C93.8858 308.239 101.855 307.966 109.744 305.852C114.256 304.643 118.499 302.911 122.364 300.738C122.32 300.672 122.259 300.636 122.216 300.57C122.325 300.593 122.459 300.609 122.568 300.631C122.502 300.675 122.436 300.718 122.37 300.762C125.448 304.333 129.179 307.161 133.254 309.146C135.545 310.265 137.94 311.097 140.398 311.68C139.655 310.741 138.971 309.734 138.336 308.715C137.358 307.09 136.53 305.449 135.848 303.77C135.481 302.886 135.17 302.013 134.9 301.102C135.535 301.061 136.14 301.003 136.769 300.938C139.527 300.612 142.287 300.106 145.038 299.369C146.871 298.877 148.655 298.296 150.395 297.649C151.876 297.097 153.308 296.454 154.726 295.764C153.234 295.698 151.719 295.639 150.238 295.518C141.294 294.76 132.792 292.849 125.181 289.923Z" fill="white"/>
<path d="M228.932 216.871C228.87 216.836 228.827 216.77 228.766 216.735C228.631 216.617 228.454 216.535 228.319 216.416C228.515 216.57 228.735 216.718 228.932 216.871Z" fill="#F6AC1B"/>
<path d="M236.171 224.888C236.563 225.481 236.919 226.135 237.269 226.766C236.919 226.135 236.569 225.505 236.171 224.888Z" fill="#F6AC1B"/>
<path d="M217.299 210.807C217.049 210.745 216.8 210.683 216.55 210.62C217.859 210.968 219.132 211.376 220.376 211.871C219.34 211.476 218.316 211.13 217.299 210.807Z" fill="#F6AC1B"/>
<path d="M234.249 222.25C234.639 222.74 235.011 223.261 235.353 223.764C235.005 223.237 234.639 222.74 234.249 222.25Z" fill="#F6AC1B"/>
<path d="M230.406 218.132C230.128 217.87 229.803 217.621 229.502 217.366C230.006 217.8 230.486 218.24 230.973 218.704C230.794 218.519 230.608 218.31 230.406 218.132Z" fill="#F6AC1B"/>
<path d="M232.574 220.24C232.432 220.097 232.291 219.954 232.149 219.811C232.513 220.205 232.877 220.599 233.248 221.017C233.001 220.772 232.797 220.491 232.574 220.24Z" fill="#F6AC1B"/>
<path d="M239.226 230.87C238.815 229.816 238.331 228.782 237.829 227.779C238.355 228.776 238.815 229.816 239.226 230.87Z" fill="#F6AC1B"/>
<path d="M221.286 212.274C220.963 212.128 220.67 212 220.353 211.878C220.847 212.081 221.33 212.34 221.83 212.568C221.647 212.462 221.487 212.349 221.286 212.274Z" fill="#F6AC1B"/>
<path d="M224.557 213.959C224.917 214.147 225.26 214.365 225.603 214.584C225.284 214.359 224.917 214.147 224.557 213.959Z" fill="#F6AC1B"/>
<path d="M300.075 302.021C300.82 300.942 301.559 299.839 302.267 298.718C307.408 290.592 310.665 281.806 312.12 272.857L312.243 272.927L312.228 272.776C312.276 272.763 312.324 272.75 312.373 272.737L312.304 271.515C312.265 271.758 312.251 271.994 312.206 272.213L312.211 272.134L311.441 255.558L310.995 245.98L311.49 255.545L312.307 271.333L312.321 271.484C312.538 269.978 312.725 268.454 312.839 266.949C313.13 263.018 313.106 259.068 312.731 255.16C312.557 253.449 312.328 251.726 312.027 250.022C311.986 249.774 311.922 249.533 311.881 249.285C311.729 248.525 311.583 247.788 311.407 247.033C311.257 246.376 311.148 245.681 310.973 245.029L310.957 244.775L310.962 244.696C310.938 244.703 310.92 244.733 310.92 244.733C310.373 242.501 309.713 240.324 308.931 238.181C307.945 235.368 306.748 232.637 305.371 230.006C303.692 226.732 301.736 223.584 299.535 220.58C299.25 220.191 298.94 219.808 298.655 219.419C298.215 218.839 297.751 218.265 297.287 217.691C296.173 216.335 294.952 215.059 293.707 213.789C293.201 213.252 292.719 212.709 292.196 212.203C290.649 210.678 289.019 209.227 287.299 207.826C286.341 207.048 285.372 206.325 284.372 205.585C283.249 204.773 282.085 203.999 280.897 203.232C277.541 201.131 274.076 199.396 270.516 198.074C270.339 197.993 270.144 197.941 269.967 197.859C265.682 196.344 261.272 195.328 256.835 194.887C256.805 194.87 256.781 194.876 256.757 194.883C256.781 194.876 256.811 194.894 256.835 194.887C262.625 190.052 268.099 184.81 273.156 179.265C275.857 176.318 278.423 173.251 280.891 170.107C313.314 129.173 326.661 73.9819 312.108 19.6719C311.43 17.1386 310.678 14.6247 309.885 12.1478C320.11 73.9527 295.44 134.945 248.732 172.751C239.682 171.788 230.305 172.31 220.976 174.551C220.246 174.721 219.498 174.921 218.774 175.115C211.994 176.932 205.664 179.559 199.794 182.838C203.254 182.532 206.687 182.698 209.981 183.315C213.932 184.067 217.681 185.415 221.142 187.332L221.173 187.35L221.197 187.344C221.221 187.337 221.228 187.361 221.228 187.361C223.894 188.819 226.414 190.6 228.655 192.689C228.655 192.689 228.679 192.683 228.685 192.707C230.396 194.266 231.939 195.973 233.346 197.845C233.377 197.863 233.377 197.863 233.377 197.863C236.023 201.369 238.066 205.424 239.383 209.856L239.359 209.862C239.383 209.856 239.383 209.856 239.389 209.88C239.491 210.163 239.575 210.476 239.653 210.766C239.814 211.369 239.945 211.955 240.083 212.564C241.455 218.843 241.162 225.179 239.49 231.006C239.447 230.94 239.41 230.898 239.366 230.832C239.36 230.808 239.336 230.814 239.336 230.814C235.4 225.197 228.251 222.355 221.23 224.236C220.386 224.462 219.609 224.748 218.821 225.088C215.555 226.507 212.893 228.926 211.143 231.852L211.001 232.097C210.86 232.342 210.736 232.556 210.619 232.794C210.602 232.825 210.584 232.855 210.566 232.886C209.815 234.328 209.296 235.864 209.008 237.492C206.505 239.249 203.655 240.582 200.543 241.416C196.465 242.508 192.353 242.602 188.487 241.879C186.904 241.76 185.364 241.32 183.969 240.555C180.774 239.343 177.8 237.605 175.271 235.309C174.01 234.173 172.85 232.932 171.816 231.581C169.771 228.87 168.179 225.728 167.241 222.23C166.847 220.758 166.604 219.272 166.464 217.783C163.814 223.045 161.701 228.576 160.247 234.344C159.866 235.817 159.539 237.301 159.244 238.802C158.678 239.393 158.082 239.967 157.461 240.547C153.453 244.31 148.762 247.455 143.579 249.826C140.999 251.009 138.283 251.969 135.436 252.732C125.64 255.357 115.777 255.026 106.757 252.245C106.726 252.228 106.702 252.234 106.678 252.241C106.648 252.223 106.623 252.229 106.593 252.212C105.405 251.832 104.241 251.445 103.113 250.998C100.336 250.19 97.4461 249.827 94.5258 249.834C93.8532 249.833 93.1742 249.808 92.5146 249.855C91.3707 249.929 90.2397 250.051 89.104 250.252C88.1613 250.401 87.1833 250.612 86.2424 250.864C85.3738 251.096 84.5182 251.377 83.6931 251.676C82.7233 252.013 81.797 252.417 80.8772 252.844C80.5588 253.007 80.2339 253.146 79.9156 253.309C78.9604 253.798 78.0423 254.328 77.1613 254.9C76.7658 255.161 76.4009 255.44 76.0054 255.701C75.3768 256.154 74.7788 256.625 74.1808 257.095C73.8401 257.368 73.5057 257.664 73.1714 257.96C72.4257 258.652 71.7105 259.36 71.026 260.087C70.1631 261.016 69.3613 261.981 68.6337 263.029C68.5743 263.097 68.5213 263.189 68.4683 263.281C67.9656 264.01 67.4693 264.764 67.0277 265.528C66.8752 265.828 66.7645 266.09 66.6232 266.335C66.27 266.947 65.9473 267.576 65.6553 268.223C65.5092 268.547 65.3697 268.895 65.2301 269.242C64.9975 269.822 64.7343 270.384 64.5323 270.981C64.3815 271.383 64.279 271.773 64.1589 272.193C63.9922 272.729 63.8255 273.265 63.6894 273.819C63.5821 274.287 63.4749 274.755 63.3918 275.217C63.291 275.71 63.1967 276.226 63.0959 276.719C63.0081 277.26 62.9685 277.787 62.9112 278.346C62.8699 278.77 62.8109 279.226 62.8002 279.668C62.7623 280.299 62.755 280.948 62.7719 281.59C62.7687 284.28 63.0873 287.013 63.8178 289.739C64.3867 291.863 65.1599 293.879 66.1307 295.766C68.198 296.918 70.3231 297.9 72.5188 298.76C79.2458 301.38 86.5441 302.656 94.0141 302.258C97.6165 302.095 101.267 301.53 104.91 300.554C112.534 298.511 119.319 294.883 124.971 290.11C125 290.025 125.029 289.94 125.033 289.861C125.088 289.872 125.149 289.907 125.204 289.919C132.815 292.844 141.317 294.755 150.303 295.476C151.783 295.597 153.275 295.663 154.791 295.722C157.513 295.846 160.264 295.885 163.08 295.777C164.848 295.717 166.628 295.602 168.449 295.45C175.146 294.871 181.967 293.69 188.843 291.847C190.508 291.401 192.19 290.924 193.812 290.412C197.127 289.369 200.354 288.194 203.477 286.917C203.616 286.854 203.73 286.798 203.868 286.735C208.892 284.639 213.657 282.25 218.138 279.576C218.52 279.266 218.94 278.999 219.384 278.725C219.678 278.568 219.948 278.418 220.249 278.286C220.82 278.004 221.403 277.77 222.055 277.595C223.02 277.337 224.006 277.253 224.97 277.28C229.715 277.327 234.052 280.484 235.338 285.285C235.849 287.191 235.821 289.112 235.342 290.895C237.607 291.917 239.978 292.756 242.455 293.411C250.908 295.62 259.451 295.27 267.244 292.794C255.574 300.679 240.762 303.691 226.162 299.872C225.632 299.729 225.121 299.556 224.609 299.383L199.386 307.356L181.794 312.924L174.833 315.125L164.37 318.446L164.353 318.476C160.735 324.953 154.945 331.91 147.519 338.166C143.66 341.424 139.695 344.193 135.801 346.452C131.307 349.078 126.904 350.982 122.846 352.147C121.356 352.572 119.926 352.929 118.543 353.171C118.289 353.187 118.041 353.228 117.8 353.292C117.028 353.499 116.43 353.97 115.948 354.487C115.067 355.447 114.641 356.751 115.003 358.102C115.242 358.994 115.769 359.707 116.426 360.229C116.561 360.348 116.69 360.442 116.837 360.507C129.187 368.575 144.796 371.53 160.141 367.418C171.794 364.296 181.527 357.576 188.474 348.759C188.527 348.667 188.586 348.6 188.652 348.556C188.895 348.207 189.161 347.851 189.41 347.525C193.825 341.998 199.958 337.769 207.293 335.803C212.311 334.459 217.386 334.289 222.175 335.177C222.904 335.292 223.616 335.438 224.34 335.632C228.243 336.396 232.225 336.881 236.258 337.067C240.924 337.11 245.598 336.892 250.266 336.365C250.266 336.365 250.266 336.365 250.291 336.359C250.369 336.363 250.442 336.344 250.514 336.324C256.155 334.891 261.654 332.926 266.895 330.384C266.92 330.48 266.916 330.559 266.941 330.656L266.935 330.632L266.973 330.389C272.778 327.54 278.336 324.06 283.49 319.938C289.633 314.878 295.277 308.918 300.075 302.021ZM96.5253 258.84C104.748 255.266 113.65 257.51 116.404 263.831C117.072 265.359 117.305 267.003 117.175 268.641C113.132 265.613 107.54 263.853 101.442 264.065C95.4473 264.275 90.0839 266.358 86.284 269.549C87.5564 265.225 91.2682 261.128 96.5253 258.84Z" fill="#F6AC1B"/>
<path d="M224.527 299.354C225.063 299.521 225.551 299.7 226.081 299.843C240.68 303.663 255.499 300.675 267.162 292.766C259.37 295.242 250.833 295.615 242.373 293.383C239.896 292.728 237.525 291.889 235.26 290.867C231.579 289.19 228.228 287.01 225.205 284.51C223.072 282.729 221.065 280.836 219.309 278.72C218.883 278.964 218.463 279.231 218.056 279.547C213.6 282.215 208.835 284.604 203.787 286.706C203.649 286.769 203.534 286.826 203.396 286.889C205.904 289.397 208.74 291.585 211.79 293.509C215.685 295.983 219.924 298.002 224.527 299.354Z" fill="white"/>
<path d="M188.478 241.932C189.199 241.92 189.931 241.853 190.663 241.787C191.365 241.702 192.023 241.552 192.717 241.443C198.437 239.626 201.772 233.638 200.207 227.799C198.591 221.768 192.411 218.2 186.38 219.816C184.16 220.411 182.266 221.642 180.833 223.242C180.299 223.954 179.821 224.677 179.349 225.424C178.063 227.863 177.62 230.748 178.396 233.644C179.23 236.756 181.307 239.199 183.912 240.622C185.3 241.362 186.816 241.809 188.43 241.945C188.43 241.945 188.454 241.939 188.478 241.932ZM179.916 231.401C178.248 228.072 180.307 223.693 184.518 221.556C188.712 219.45 193.473 220.424 195.14 223.753C196.808 227.081 194.749 231.46 190.538 233.597C186.344 235.703 181.583 234.729 179.916 231.401Z" fill="white"/>
<path d="M190.561 233.592C194.755 231.486 196.831 227.076 195.164 223.748C193.496 220.419 188.736 219.445 184.542 221.551C180.348 223.658 178.271 228.067 179.939 231.396C181.583 234.731 186.343 235.705 190.561 233.592Z" fill="black"/>
<path d="M171.759 231.645C172.794 232.997 173.96 234.262 175.215 235.374C177.744 237.67 180.718 239.408 183.913 240.62C181.284 239.204 179.231 236.755 178.397 233.642C177.628 230.771 178.064 227.862 179.349 225.422C179.822 224.675 180.324 223.946 180.834 223.24C182.26 221.617 184.137 220.416 186.38 219.815C192.412 218.199 198.592 221.766 200.208 227.798C201.772 233.637 198.438 239.625 192.718 241.442C201.423 239.859 207.778 234.432 207.173 228.699C206.493 222.494 198.049 218.292 188.293 219.328C186.485 219.528 184.77 219.884 183.166 220.366C183.684 219.787 184.256 219.22 184.828 218.653C181.072 215.832 178.188 211.821 176.875 206.924C175.453 201.616 176.132 196.236 178.4 191.672C176.351 193.385 174.541 195.318 172.928 197.405C172.904 197.411 172.862 197.448 172.851 197.503C170.716 200.247 168.974 203.3 167.678 206.569C167.66 206.6 167.66 206.6 167.667 206.624C166.466 210.152 166.039 213.965 166.425 217.818C166.565 219.306 166.802 220.768 167.203 222.264C168.14 225.762 169.708 228.911 171.759 231.645Z" fill="black"/>
<path d="M182.89 213.639C183.368 215.425 184.02 217.086 184.835 218.678C185.228 218.314 185.635 217.998 186.035 217.658C186.31 217.429 186.578 217.176 186.853 216.947C187.935 216.063 189.06 215.244 190.284 214.502C190.416 214.415 190.554 214.352 190.692 214.29C191.76 213.641 192.878 213.083 194.032 212.567C194.471 212.372 194.893 212.207 195.332 212.012C195.729 211.854 196.095 211.678 196.493 211.52C195.506 209.767 194.741 207.878 194.204 205.875C191.968 197.527 194.187 189.02 199.435 182.933C199.435 182.933 199.429 182.909 199.405 182.915C199.38 182.922 199.38 182.922 199.38 182.922C186.721 187.115 179.379 200.538 182.89 213.639Z" fill="black"/>
<path d="M196.512 211.49C197.409 211.172 198.313 210.878 199.23 210.633C200.195 210.374 201.149 210.17 202.109 209.99C202.157 209.977 202.182 209.971 202.236 209.982C204.979 209.506 207.733 209.363 210.403 209.578L210.427 209.572C210.9 209.6 211.356 209.659 211.835 209.712C213.164 209.847 214.453 210.122 215.749 210.421C216.023 210.477 216.303 210.557 216.576 210.613C216.826 210.676 217.099 210.732 217.325 210.801C218.366 211.116 219.39 211.463 220.378 211.87C220.695 211.992 220.988 212.121 221.312 212.267L221.336 212.26C223.138 206.631 226.876 201.958 231.666 198.89L231.659 198.866C232.187 198.518 232.745 198.187 233.291 197.911C233.285 197.887 233.285 197.887 233.261 197.894C232.606 197.862 231.951 197.831 231.291 197.878C227.076 197.974 223.06 199.101 219.524 201.057C215.85 203.076 212.73 206.007 210.427 209.572C210.391 209.245 210.38 208.912 210.374 208.603C210.231 201.892 212.745 195.736 216.946 191.146C218.2 189.749 219.628 188.514 221.149 187.434C221.149 187.434 221.142 187.41 221.118 187.416L221.094 187.423L221.063 187.405C219.01 187.464 216.998 187.77 215.098 188.305C204.774 191.175 197.089 200.423 196.512 211.49Z" fill="black"/>
<path d="M224.556 213.96C224.923 214.172 225.259 214.366 225.602 214.584C226.533 215.162 227.422 215.778 228.3 216.447C228.435 216.566 228.612 216.648 228.747 216.767C229.747 215.672 230.851 214.678 232.029 213.767C234.201 212.125 236.621 210.83 239.181 209.963C237.052 209.448 234.922 209.217 232.814 209.264C228.719 209.327 224.738 210.394 221.238 212.289C221.415 212.371 221.598 212.476 221.775 212.558C222.764 212.966 223.669 213.447 224.556 213.96Z" fill="black"/>
<path d="M176.906 206.944C178.218 211.842 181.079 215.859 184.858 218.674C184.05 217.106 183.392 215.42 182.913 213.635C179.403 200.534 186.745 187.111 199.422 182.887C197.322 183.062 195.202 183.449 193.103 184.011C187.506 185.511 182.558 188.181 178.43 191.692C176.162 196.256 175.483 201.636 176.906 206.944Z" fill="#6BC9C6"/>
<path d="M194.221 205.845C194.757 207.847 195.529 209.761 196.509 211.49C197.086 200.422 204.771 191.174 215.12 188.298C217.019 187.763 219.032 187.457 221.085 187.398C217.623 185.481 213.874 184.132 209.923 183.381C206.629 182.764 203.19 182.573 199.736 182.904C199.633 182.906 199.554 182.901 199.475 182.896C199.475 182.896 199.475 182.896 199.451 182.903C194.204 188.989 191.977 197.473 194.221 205.845Z" fill="#6BC9C6"/>
<path d="M210.341 208.588C210.353 208.921 210.365 209.254 210.394 209.556C212.697 205.991 215.817 203.061 219.491 201.042C223.002 199.093 227.043 197.958 231.258 197.863C231.924 197.84 232.573 197.847 233.228 197.878C231.821 196.006 230.277 194.299 228.567 192.74C228.56 192.716 228.536 192.722 228.536 192.722C226.302 190.658 223.799 188.846 221.109 187.394C219.558 188.456 218.161 189.71 216.906 191.106C212.736 195.715 210.222 201.87 210.341 208.588Z" fill="#6BC9C6"/>
<path d="M231.615 198.904C226.802 201.978 223.087 206.645 221.286 212.274C224.786 210.379 228.761 209.289 232.862 209.25C234.945 209.209 237.094 209.409 239.229 209.949C236.645 210.822 234.249 212.111 232.077 213.753C230.899 214.663 229.795 215.657 228.795 216.753C228.856 216.788 228.9 216.854 228.961 216.889C229.158 217.043 229.361 217.222 229.533 217.382C229.834 217.638 230.159 217.887 230.437 218.149C230.639 218.327 230.825 218.536 231.004 218.721C231.385 219.084 231.774 219.471 232.162 219.859C232.304 220.002 232.439 220.121 232.587 220.288C232.809 220.539 233.038 220.813 233.261 221.064C233.601 221.464 233.965 221.858 234.287 222.289C234.677 222.779 235.049 223.3 235.391 223.803C235.646 224.175 235.931 224.564 236.185 224.935C236.577 225.528 236.934 226.183 237.283 226.813C237.477 227.149 237.67 227.485 237.864 227.821C238.365 228.825 238.843 229.834 239.261 230.912C239.261 230.912 239.285 230.905 239.292 230.93C239.335 230.996 239.372 231.037 239.416 231.103C241.087 225.277 241.387 218.964 240.008 212.662C239.871 212.052 239.74 211.467 239.578 210.864C239.501 210.574 239.416 210.26 239.315 209.977C239.284 209.96 239.284 209.96 239.284 209.96C239.308 209.953 239.308 209.953 239.308 209.953C238.009 205.491 235.948 201.467 233.302 197.961C232.701 198.225 232.143 198.556 231.615 198.904Z" fill="#6BC9C6"/>
<path d="M237.272 226.764C236.922 226.133 236.572 225.503 236.174 224.886C235.913 224.49 235.634 224.125 235.38 223.754C235.007 223.233 234.666 222.73 234.276 222.24C233.953 221.809 233.589 221.415 233.249 221.015C232.885 220.621 232.539 220.197 232.151 219.809C231.786 219.416 231.405 219.052 230.992 218.672C230.506 218.207 230.026 217.767 229.522 217.333C229.325 217.179 229.146 216.994 228.95 216.84C228.753 216.686 228.533 216.538 228.336 216.384C227.459 215.714 226.57 215.099 225.639 214.52C225.296 214.302 224.935 214.114 224.592 213.896C223.705 213.384 222.783 212.933 221.867 212.506C221.366 212.278 220.883 212.019 220.389 211.816C219.145 211.321 217.871 210.913 216.563 210.565C216.283 210.485 216.009 210.429 215.736 210.373C214.464 210.067 213.151 209.799 211.822 209.663C211.421 209.616 211.051 209.585 210.657 209.562C211.241 210.776 211.71 212.046 212.072 213.398C215.318 225.509 208.123 237.936 196.011 241.181C193.478 241.86 190.924 242.079 188.474 241.908C188.45 241.914 188.419 241.897 188.395 241.903C192.261 242.626 196.373 242.532 200.45 241.44C203.563 240.606 206.406 239.249 208.915 237.517C209.21 235.912 209.723 234.353 210.474 232.91C210.492 232.879 210.485 232.855 210.527 232.818C210.644 232.58 210.785 232.335 210.909 232.121L211.05 231.876C212.801 228.951 215.444 226.561 218.728 225.113C219.492 224.779 220.293 224.486 221.138 224.26C228.158 222.379 235.307 225.221 239.243 230.839C238.832 229.785 238.348 228.751 237.846 227.748C237.659 227.436 237.442 227.106 237.272 226.764Z" fill="#C31632"/>
<path d="M188.477 241.935C190.934 242.13 193.481 241.887 196.014 241.208C208.126 237.963 215.321 225.536 212.076 213.425C211.714 212.073 211.244 210.803 210.66 209.589C211.054 209.612 211.431 209.667 211.825 209.69C211.345 209.638 210.89 209.579 210.417 209.55L210.393 209.557C207.723 209.341 204.969 209.485 202.226 209.961C202.178 209.974 202.154 209.98 202.099 209.969C201.139 210.149 200.185 210.353 199.22 210.611C198.303 210.857 197.399 211.151 196.502 211.469C196.098 211.603 195.738 211.803 195.34 211.961C194.895 212.132 194.48 212.321 194.041 212.516C192.886 213.032 191.775 213.615 190.701 214.239C190.569 214.326 190.431 214.388 190.293 214.451C189.093 215.187 187.944 216.012 186.862 216.896C186.587 217.125 186.312 217.354 186.044 217.607C185.644 217.947 185.213 218.269 184.843 218.627C184.265 219.17 183.699 219.761 183.182 220.339C184.779 219.834 186.494 219.478 188.308 219.302C198.064 218.265 206.508 222.467 207.188 228.672C207.8 234.43 201.438 239.833 192.734 241.415C192.045 241.548 191.387 241.698 190.68 241.759C189.93 241.856 189.198 241.923 188.477 241.935Z" fill="#F6AC1B"/>
<path d="M101.428 264.093C107.526 263.881 113.142 265.635 117.161 268.669C117.291 267.031 117.058 265.387 116.39 263.859C113.636 257.538 104.734 255.294 96.5113 258.868C91.2542 261.156 87.5424 265.254 86.27 269.577C90.094 266.38 95.4333 264.303 101.428 264.093Z" fill="#C31632"/>
<path d="M62.9158 278.343C62.9795 277.809 63.0126 277.257 63.1005 276.716C63.1707 276.206 63.2715 275.714 63.3964 275.215C63.5036 274.747 63.5867 274.285 63.694 273.816C63.8301 273.263 63.9967 272.727 64.1634 272.191C64.2901 271.795 64.4103 271.375 64.5369 270.979C64.7389 270.382 65.0021 269.82 65.2347 269.24C65.3743 268.892 65.4897 268.551 65.6599 268.221C65.9519 267.574 66.3052 266.962 66.6278 266.333C66.7691 266.088 66.8798 265.826 67.0211 265.581C67.4627 264.816 67.959 264.062 68.4617 263.333C68.5212 263.265 68.5741 263.173 68.6271 263.082C69.2311 262.248 69.8657 261.431 70.5308 260.632C70.4095 257.381 70.5841 254.075 71.1159 250.752C71.2869 249.75 71.4885 248.765 71.7141 247.773C67.3174 253.658 64.2301 260.665 62.9666 268.4C62.1855 273.109 62.1363 277.751 62.721 282.249C62.711 282.018 62.7252 281.782 62.7394 281.545C62.7467 280.897 62.7298 280.255 62.7677 279.624C62.8155 279.224 62.8745 278.768 62.9158 278.343Z" fill="#6BC9C6"/>
<path d="M74.1716 257.149C74.7631 256.655 75.3611 256.184 75.9961 255.755C76.3852 255.47 76.7501 255.191 77.152 254.954C78.0331 254.382 78.9512 253.852 79.9063 253.363C80.2247 253.2 80.5496 253.061 80.8679 252.898C81.7878 252.471 82.7141 252.067 83.6839 251.73C83.8222 251.667 83.9605 251.604 84.1052 251.565L84.1294 251.559C84.1535 251.552 84.1535 251.552 84.1535 251.552C84.8402 251.317 85.5335 251.105 86.2331 250.918C87.1982 250.659 88.1521 250.455 89.0948 250.306C90.2305 250.105 91.3615 249.983 92.5054 249.909C93.165 249.862 93.844 249.887 94.5166 249.888C94.8561 249.9 95.1827 249.864 95.5222 249.877C97.6028 246.061 100.287 242.471 103.504 239.23C104.195 238.528 104.941 237.837 105.669 237.176C98.6906 239.408 92.1338 243.311 86.6104 248.851C85.7587 249.726 84.9311 250.594 84.147 251.528C85.475 247.992 87.2537 244.593 89.4831 241.332C90.0629 240.505 90.6492 239.701 91.2726 238.939C84.799 242.381 79.0303 247.391 74.6004 253.828C73.1276 255.955 71.8559 258.158 70.7854 260.436C70.8625 260.337 70.9702 260.257 71.0473 260.159C71.7254 259.408 72.4406 258.699 73.1928 258.032C73.4965 257.718 73.8373 257.446 74.1716 257.149Z" fill="#6BC9C6"/>
</svg>
